<svg width="315" height="267" viewBox="0 0 315 267" fill="none" xmlns="http://www.w3.org/2000/svg">
<path d="M206.352 81.9076H205.148C202.631 81.9076 200.572 80.09 200.572 77.8683C200.572 75.6469 202.631 73.8293 205.148 73.8293H206.352C208.869 73.8293 210.928 75.6469 210.928 77.8683C210.928 80.09 208.869 81.9076 206.352 81.9076Z" fill="#002E4C"/>
<path d="M267.285 260.69H155.535C152.885 260.69 150.718 258.777 150.718 256.439V115.709C150.718 113.37 152.885 111.457 155.535 111.457H267.284C269.934 111.457 272.101 113.37 272.101 115.709V256.439C272.101 258.777 269.934 260.69 267.285 260.69Z" fill="white"/>
<path d="M267.285 261.116H155.535C152.613 261.116 150.236 259.018 150.236 256.439V115.708C150.236 113.129 152.613 111.031 155.535 111.031H267.284C270.206 111.031 272.583 113.129 272.583 115.708V256.439C272.583 259.017 270.206 261.116 267.285 261.116ZM155.535 111.882C153.144 111.882 151.2 113.598 151.2 115.708V256.439C151.2 258.548 153.144 260.265 155.535 260.265H267.284C269.674 260.265 271.619 258.549 271.619 256.439V115.708C271.619 113.599 269.674 111.882 267.284 111.882H155.535Z" fill="#002E4C"/>
<path d="M311.567 260.691H269.022C267.273 260.691 265.839 259.428 265.839 257.885V114.039C265.839 112.619 267.214 111.645 268.89 111.874L309.751 117.451C311.299 117.662 312.577 118.949 312.596 120.311L314.453 258.01C314.472 259.484 313.176 260.691 311.567 260.691Z" fill="white"/>
<path d="M311.567 261.116H269.022C267.001 261.116 265.358 259.666 265.358 257.885V114.039C265.358 113.253 265.715 112.549 266.364 112.058C267.047 111.541 267.995 111.321 268.964 111.453L309.825 117.031C311.598 117.273 313.057 118.742 313.078 120.306L314.935 258.004C314.946 258.852 314.587 259.646 313.923 260.239C313.289 260.804 312.453 261.116 311.567 261.116ZM268.402 112.265C267.862 112.265 267.372 112.416 266.991 112.703C266.559 113.031 266.321 113.504 266.321 114.039V257.885C266.321 259.197 267.533 260.265 269.022 260.265H311.567C312.194 260.265 312.787 260.043 313.237 259.641C313.719 259.211 313.979 258.633 313.971 258.014L312.114 120.316C312.098 119.169 310.983 118.049 309.678 117.871L268.817 112.293C268.676 112.274 268.537 112.265 268.402 112.265Z" fill="#002E4C"/>
<path d="M256.698 265.58H161.305C155.747 265.58 151.2 261.566 151.2 256.66V255.154C151.2 250.248 155.747 246.235 161.305 246.235H256.698C262.256 246.235 266.803 250.248 266.803 255.154V256.66C266.803 261.566 262.255 265.58 256.698 265.58Z" fill="#002E4C"/>
<path d="M303.902 265.58H208.509C202.952 265.58 198.404 261.566 198.404 256.66V255.154C198.404 250.248 202.952 246.235 208.509 246.235H303.902C309.46 246.235 314.008 250.248 314.008 255.154V256.66C314.008 261.566 309.46 265.58 303.902 265.58Z" fill="#002E4C"/>
<path d="M206.593 214.985C230.402 214.985 249.703 197.948 249.703 176.932C249.703 155.917 230.402 138.88 206.593 138.88C182.783 138.88 163.482 155.917 163.482 176.932C163.482 197.948 182.783 214.985 206.593 214.985Z" fill="white"/>
<path d="M206.593 215.41C182.556 215.41 163.001 198.149 163.001 176.932C163.001 155.716 182.556 138.455 206.593 138.455C230.629 138.455 250.185 155.716 250.185 176.932C250.185 198.149 230.63 215.41 206.593 215.41ZM206.593 139.305C183.087 139.305 163.964 156.185 163.964 176.932C163.964 197.681 183.087 214.56 206.593 214.56C230.099 214.56 249.221 197.68 249.221 176.932C249.221 156.185 230.099 139.305 206.593 139.305Z" fill="#002E4C"/>
<path d="M238.213 200.382C252.885 187.431 252.885 166.434 238.213 153.483C223.541 140.532 199.752 140.532 185.08 153.483C170.408 166.434 170.408 187.431 185.08 200.382C199.752 213.333 223.541 213.333 238.213 200.382Z" fill="white"/>
<path d="M211.65 210.521C190.668 210.521 173.598 195.453 173.598 176.932C173.598 158.411 190.668 143.344 211.65 143.344C232.633 143.344 249.703 158.411 249.703 176.932C249.703 195.453 232.633 210.521 211.65 210.521ZM211.65 144.194C191.199 144.194 174.561 158.88 174.561 176.932C174.561 194.984 191.199 209.67 211.65 209.67C232.102 209.67 248.74 194.984 248.74 176.932C248.74 158.881 232.102 144.194 211.65 144.194Z" fill="#002E4C"/>
<path d="M280.049 209.883C295.345 209.883 307.745 193.655 307.745 173.637C307.745 153.619 295.345 137.392 280.049 137.392C264.753 137.392 252.353 153.619 252.353 173.637C252.353 193.655 264.753 209.883 280.049 209.883Z" fill="white"/>
<path d="M280.049 210.308C272.486 210.308 265.389 206.471 260.065 199.504C254.781 192.589 251.871 183.403 251.871 173.637C251.871 163.872 254.781 154.686 260.065 147.77C265.389 140.803 272.486 136.967 280.049 136.967C287.612 136.967 294.709 140.803 300.033 147.77C305.317 154.686 308.227 163.872 308.227 173.637C308.227 183.403 305.317 192.589 300.033 199.504C294.709 206.471 287.612 210.308 280.049 210.308ZM280.049 137.817C265.043 137.817 252.834 153.886 252.834 173.637C252.834 193.389 265.043 209.457 280.049 209.457C295.055 209.457 307.264 193.388 307.264 173.637C307.264 153.886 295.055 137.817 280.049 137.817Z" fill="#002E4C"/>
<path d="M274.751 207.332C286.988 207.332 296.908 192.009 296.908 173.106C296.908 154.204 286.988 138.88 274.751 138.88C262.514 138.88 252.594 154.204 252.594 173.106C252.594 192.009 262.514 207.332 274.751 207.332Z" fill="white"/>
<path d="M274.751 207.757C268.652 207.757 262.939 204.121 258.665 197.518C254.439 190.99 252.112 182.321 252.112 173.106C252.112 163.891 254.439 155.221 258.665 148.693C262.939 142.091 268.653 138.455 274.751 138.455C280.85 138.455 286.562 142.091 290.836 148.693C295.062 155.221 297.39 163.891 297.39 173.106C297.39 182.321 295.062 190.99 290.836 197.518C286.562 204.121 280.849 207.757 274.751 207.757ZM274.751 139.305C262.799 139.305 253.075 154.468 253.075 173.106C253.075 191.744 262.799 206.907 274.751 206.907C286.703 206.907 296.427 191.744 296.427 173.106C296.426 154.468 286.703 139.305 274.751 139.305Z" fill="#002E4C"/>
<path d="M251.148 184.217C249.691 184.217 248.499 183.165 248.499 181.878V168.16C248.499 166.874 249.691 165.821 251.148 165.821C252.605 165.821 253.797 166.873 253.797 168.16V181.878C253.797 183.165 252.605 184.217 251.148 184.217Z" fill="#002E4C"/>
<path d="M175.272 181.462C176.521 180.381 194.586 181.449 203 179.314C211.413 177.178 212.403 177.605 213.641 177.605C214.878 177.605 215.868 179.314 229.973 183.157C244.079 187 247.294 186.573 247.295 187.214C247.296 187.854 242.842 198.53 234.923 203.014C227.004 207.498 211.166 207.071 211.166 207.071C211.166 207.071 198.546 206.644 187.41 211.982C176.274 217.32 177.017 218.174 177.017 218.174C177.017 218.174 177.265 203.655 176.522 195.968C175.78 188.281 175.547 181.646 175.547 181.646L175.272 181.462Z" fill="#002E4C"/>
<path d="M149.996 80.8449C149.996 80.8449 153.608 88.7104 161.556 98.0641C169.503 107.418 175.268 111.457 175.268 111.457H233.085C233.085 111.457 237.288 107.371 245.127 96.7883C253.316 85.7338 255.242 80.6318 255.242 80.6318L149.996 80.8449Z" fill="white"/>
<path d="M233.299 111.882H175.1L174.969 111.79C174.911 111.749 169.064 107.609 161.171 98.3195C153.277 89.0293 149.585 81.0839 149.549 81.0048L149.281 80.4215L255.911 80.2061L255.7 80.7674C255.62 80.9777 253.659 86.0476 245.53 97.0217C237.76 107.512 233.484 111.702 233.442 111.743L233.299 111.882ZM175.44 111.032H232.868C233.658 110.231 237.781 105.929 244.724 96.5556C251.272 87.7159 253.814 82.6609 254.543 81.0584L150.727 81.268C151.723 83.2536 155.351 90.0517 161.941 97.8083C169.11 106.246 174.551 110.379 175.44 111.032Z" fill="#002E4C"/>
<path d="M255.845 80.8462H147.708C146.582 80.8462 145.66 80.0328 145.66 79.0387C145.66 78.0446 146.582 77.2312 147.708 77.2312H255.845C256.971 77.2312 257.892 78.0446 257.892 79.0387C257.892 80.0328 256.971 80.8462 255.845 80.8462Z" fill="white"/>
<path d="M255.845 81.2713H147.707C146.313 81.2713 145.179 80.2698 145.179 79.0383C145.179 77.8072 146.313 76.8057 147.707 76.8057H255.845C257.239 76.8057 258.373 77.8072 258.373 79.0383C258.373 80.2698 257.239 81.2713 255.845 81.2713ZM147.707 77.6563C146.844 77.6563 146.142 78.2766 146.142 79.0387C146.142 79.8008 146.844 80.4211 147.707 80.4211H255.845C256.708 80.4211 257.41 79.8012 257.41 79.0387C257.41 78.2766 256.708 77.6563 255.845 77.6563H147.707Z" fill="#002E4C"/>
<path d="M149.996 80.8448C149.996 80.8448 153.608 88.7104 161.556 98.064C169.503 107.418 175.268 111.457 175.268 111.457H210.281C216.786 99.1185 227.103 88.3559 239.821 80.6631L149.996 80.8448Z" fill="#002E4C"/>
<path d="M203.462 78.5065C203.462 76.4501 205.139 74.7238 207.345 74.3372C206.81 74.1496 206.234 74.0422 205.63 74.0422H159.388C156.739 74.0422 154.572 76.0196 154.572 78.4368V100.19H203.462V78.5065H203.462Z" fill="white"/>
<path d="M203.943 100.615H154.09V78.4363C154.09 75.7789 156.466 73.6167 159.388 73.6167H205.63C206.271 73.6167 206.909 73.726 207.523 73.9414L209.038 74.473L207.439 74.7534C205.413 75.1083 203.944 76.6865 203.944 78.506L203.943 100.615ZM155.053 99.7649H202.98V78.5064C202.98 76.8119 204.023 75.2885 205.615 74.4675H159.388C156.998 74.4675 155.053 76.2482 155.053 78.4367V99.7649Z" fill="#002E4C"/>
<path d="M20.0225 250.061C20.1574 253.47 17.8924 256.642 16.7914 259.751C16.0303 261.901 16.8783 262.813 19.3799 262.804C21.5233 262.796 23.6912 262.958 25.8825 262.958C30.6513 262.958 35.3136 263.099 40.0922 263.099C41.321 263.099 45.1823 262.787 43.9055 261.222C43.0251 260.142 40.7175 260.301 39.3298 259.946C37.1526 259.39 33.941 258.462 32.3457 256.97C29.9772 254.755 29.9892 251.513 28.9739 248.679C25.449 248.007 23.9641 248.306 20.7853 249.104C21.0263 249.107 19.7864 250.268 20.0225 250.202V250.061Z" fill="#FFD071"/>
<path d="M40.0925 263.418C37.6992 263.418 35.2971 263.382 32.9743 263.348C30.6583 263.313 28.2632 263.277 25.8828 263.277C24.7991 263.277 23.7101 263.237 22.657 263.199C21.5791 263.159 20.4661 263.117 19.3815 263.123C19.3695 263.123 19.3571 263.123 19.3447 263.123C17.9548 263.123 17.0424 262.84 16.5565 262.259C16.0692 261.676 16.0332 260.825 16.4468 259.657C16.7943 258.675 17.2629 257.672 17.7165 256.703C18.6781 254.647 19.6709 252.524 19.6669 250.339C19.6105 250.247 19.6105 250.162 19.6611 250.058C19.6624 249.934 19.7445 249.825 19.8648 249.774C19.9216 249.707 19.9877 249.633 20.0627 249.548C20.0973 249.509 20.1377 249.464 20.1794 249.416L18.3049 249.395L20.6862 248.798C23.865 247.999 25.4231 247.676 29.05 248.367L29.2551 248.407L29.3185 248.583C29.6283 249.448 29.8457 250.356 30.0556 251.234C30.5518 253.307 31.02 255.266 32.6082 256.751C34.1184 258.163 37.2248 259.076 39.4304 259.64C39.8302 259.742 40.3237 259.801 40.8465 259.862C42.089 260.009 43.4976 260.176 44.1992 261.036C44.6336 261.568 44.5511 261.98 44.4051 262.232C43.7239 263.405 40.2403 263.418 40.0925 263.418ZM19.5271 262.485C20.5784 262.485 21.6492 262.524 22.6863 262.561C23.7323 262.599 24.8138 262.639 25.8824 262.639C28.2686 262.639 30.6672 262.675 32.9863 262.71C35.3059 262.745 37.7045 262.781 40.092 262.781C41.426 262.781 43.4434 262.489 43.7616 261.941C43.7909 261.89 43.8801 261.737 43.6121 261.408C43.0924 260.772 41.9017 260.631 40.7502 260.494C40.1999 260.429 39.6807 260.368 39.2289 260.253C36.9421 259.668 33.7132 258.714 32.0824 257.189C30.3543 255.573 29.8431 253.435 29.3483 251.366C29.1561 250.564 28.9582 249.736 28.691 248.952C25.4568 248.357 24.0292 248.625 21.1074 249.355C21.0213 249.503 20.8602 249.684 20.6312 249.942C20.5558 250.027 20.4537 250.142 20.388 250.222C20.4284 252.575 19.3895 254.797 18.3839 256.947C17.9162 257.947 17.4737 258.893 17.136 259.847C16.7961 260.807 16.7965 261.472 17.1374 261.88C17.4813 262.292 18.2068 262.484 19.3784 262.485C19.4281 262.485 19.4778 262.485 19.5271 262.485Z" fill="#002E4C"/>
<path d="M105.922 70.6409C105.922 70.6409 109.535 66.602 116.519 67.2397C116.519 67.2397 112.184 31.9506 109.053 30.4629C105.922 28.9748 100.623 31.1006 100.623 32.1637C100.623 33.226 105.922 70.6409 105.922 70.6409Z" fill="#002E4C"/>
<path d="M58.717 41.0917C58.717 41.0917 59.9214 33.8639 63.2928 33.0135C68.3265 31.7439 111.702 29.6123 107.366 30.25C103.031 30.8877 106.644 54.6969 107.607 68.7275C108.571 82.7582 109.052 86.5844 109.052 86.5844L61.8474 88.2852L58.717 41.0917Z" fill="white"/>
<path d="M61.3948 88.7269L58.2334 41.0727L58.2409 41.0297C58.292 40.7233 59.5319 33.5198 63.1611 32.6048C66.1077 31.8617 80.8841 30.9479 87.1005 30.5894C92.1094 30.3008 97.258 30.0414 101.228 29.8785C107.727 29.6117 107.818 29.6952 108.016 29.8781L108.218 30.063L108.128 30.3133C108.026 30.584 107.732 30.627 107.447 30.6693C106.771 30.7688 105.656 32.0356 105.771 39.4056C105.854 44.6259 106.504 51.3555 107.132 57.8634C107.511 61.7758 107.867 65.4707 108.089 68.702C109.04 82.5501 109.528 86.4997 109.532 86.5377L109.589 86.9909L61.3948 88.7269ZM59.2008 41.1107L62.301 87.8436L108.522 86.1781C108.374 84.8079 107.905 80.0889 107.127 68.7533C106.906 65.5326 106.549 61.8424 106.172 57.9358C104.776 43.4912 103.997 33.3373 106.113 30.5699C98.9502 30.7214 67.6641 32.3537 63.4251 33.4227C60.9231 34.0533 59.5363 39.1436 59.2008 41.1107Z" fill="#002E4C"/>
<mask id="mask0_47_168" style="mask-type:luminance" maskUnits="userSpaceOnUse" x="58" y="30" width="52" height="59">
<path d="M58.717 41.0914C58.717 41.0914 59.9214 33.8636 63.2928 33.0132C68.3265 31.7437 111.702 29.612 107.366 30.2497C103.031 30.8874 106.644 54.6967 107.607 68.7273C108.571 82.7579 109.052 86.5842 109.052 86.5842L61.8474 88.285L58.717 41.0914Z" fill="white"/>
</mask>
<g mask="url(#mask0_47_168)">
<path d="M56.0167 39.9814C73.043 37.856 90.1954 36.5406 107.38 36.0036C109.698 35.9311 109.709 32.7422 107.38 32.8147C89.8683 33.3619 72.4058 34.7407 55.0564 36.9065C54.0925 37.0267 53.556 38.1145 53.7948 38.8678C54.0854 39.7844 55.0427 40.1028 56.0167 39.9814Z" fill="#002E4C"/>
</g>
<mask id="mask1_47_168" style="mask-type:luminance" maskUnits="userSpaceOnUse" x="58" y="30" width="52" height="59">
<path d="M58.717 41.0914C58.717 41.0914 59.9214 33.8636 63.2928 33.0132C68.3265 31.7437 111.702 29.612 107.366 30.2497C103.031 30.8874 106.644 54.6967 107.607 68.7273C108.571 82.7579 109.052 86.5842 109.052 86.5842L61.8474 88.285L58.717 41.0914Z" fill="white"/>
</mask>
<g mask="url(#mask1_47_168)">
<path d="M55.5348 45.2956C72.5611 43.1702 89.7134 41.8548 106.898 41.3178C109.216 41.2453 109.227 38.0564 106.898 38.1289C89.3868 38.6761 71.9238 40.0549 54.5745 42.2207C53.6106 42.3409 53.0741 43.4287 53.3128 44.182C53.6039 45.099 54.5612 45.4174 55.5348 45.2956Z" fill="#002E4C"/>
</g>
<mask id="mask2_47_168" style="mask-type:luminance" maskUnits="userSpaceOnUse" x="58" y="30" width="52" height="59">
<path d="M58.717 41.0914C58.717 41.0914 59.9214 33.8636 63.2928 33.0132C68.3265 31.7437 111.702 29.612 107.366 30.2497C103.031 30.8874 106.644 54.6967 107.607 68.7273C108.571 82.7579 109.052 86.5842 109.052 86.5842L61.8474 88.285L58.717 41.0914Z" fill="white"/>
</mask>
<g mask="url(#mask2_47_168)">
<path d="M55.0534 50.6103C72.0797 48.4849 89.232 47.1695 106.417 46.6325C108.735 46.56 108.746 43.3711 106.417 43.4436C88.9054 43.9908 71.4424 45.3692 54.093 47.5354C53.1292 47.6557 52.5926 48.7434 52.8314 49.4967C53.1221 50.4137 54.0797 50.7317 55.0534 50.6103Z" fill="#002E4C"/>
</g>
<mask id="mask3_47_168" style="mask-type:luminance" maskUnits="userSpaceOnUse" x="58" y="30" width="52" height="59">
<path d="M58.717 41.0914C58.717 41.0914 59.9214 33.8636 63.2928 33.0132C68.3265 31.7437 111.702 29.612 107.366 30.2497C103.031 30.8874 106.644 54.6967 107.607 68.7273C108.571 82.7579 109.052 86.5842 109.052 86.5842L61.8474 88.285L58.717 41.0914Z" fill="white"/>
</mask>
<g mask="url(#mask3_47_168)">
<path d="M54.3309 55.925C71.3572 53.7996 88.5096 52.4842 105.694 51.9472C108.013 51.8747 108.023 48.6858 105.694 48.7583C88.1825 49.3055 70.72 50.6843 53.3706 52.8501C52.4067 52.9704 51.8702 54.0581 52.109 54.8114C52.3996 55.728 53.3569 56.0464 54.3309 55.925Z" fill="#002E4C"/>
</g>
<mask id="mask4_47_168" style="mask-type:luminance" maskUnits="userSpaceOnUse" x="58" y="30" width="52" height="59">
<path d="M58.717 41.0914C58.717 41.0914 59.9214 33.8636 63.2928 33.0132C68.3265 31.7437 111.702 29.612 107.366 30.2497C103.031 30.8874 106.644 54.6967 107.607 68.7273C108.571 82.7579 109.052 86.5842 109.052 86.5842L61.8474 88.285L58.717 41.0914Z" fill="white"/>
</mask>
<g mask="url(#mask4_47_168)">
<path d="M56.0167 73.3569C73.043 71.2315 90.1954 69.9161 107.38 69.3791C109.698 69.3066 109.709 66.1177 107.38 66.1902C89.8683 66.7374 72.4058 68.1158 55.0564 70.282C54.0925 70.4022 53.556 71.49 53.7948 72.2433C54.0854 73.1599 55.0427 73.4783 56.0167 73.3569Z" fill="#002E4C"/>
</g>
<mask id="mask5_47_168" style="mask-type:luminance" maskUnits="userSpaceOnUse" x="58" y="30" width="52" height="59">
<path d="M58.717 41.0914C58.717 41.0914 59.9214 33.8636 63.2928 33.0132C68.3265 31.7437 111.702 29.612 107.366 30.2497C103.031 30.8874 106.644 54.6967 107.607 68.7273C108.571 82.7579 109.052 86.5842 109.052 86.5842L61.8474 88.285L58.717 41.0914Z" fill="white"/>
</mask>
<g mask="url(#mask5_47_168)">
<path d="M58.6662 78.0336C75.6925 75.9082 92.8448 74.5929 110.03 74.0558C112.348 73.9834 112.358 70.7945 110.03 70.8669C92.5182 71.4142 75.0552 72.793 57.7058 74.9587C56.7419 75.079 56.2054 76.1668 56.4442 76.92C56.7349 77.837 57.6921 78.1555 58.6662 78.0336Z" fill="#002E4C"/>
</g>
<mask id="mask6_47_168" style="mask-type:luminance" maskUnits="userSpaceOnUse" x="58" y="30" width="52" height="59">
<path d="M58.717 41.0914C58.717 41.0914 59.9214 33.8636 63.2928 33.0132C68.3265 31.7437 111.702 29.612 107.366 30.2497C103.031 30.8874 106.644 54.6967 107.607 68.7273C108.571 82.7579 109.052 86.5842 109.052 86.5842L61.8474 88.285L58.717 41.0914Z" fill="white"/>
</mask>
<g mask="url(#mask6_47_168)">
<path d="M57.4253 82.982C74.6553 81.1171 91.9878 80.0528 109.344 79.7939C111.667 79.7591 111.674 76.5705 109.344 76.605C91.9878 76.8639 74.6553 77.9282 57.4253 79.7931C56.457 79.8977 55.6191 80.4508 55.6191 81.3874C55.6191 82.1677 56.4503 83.0874 57.4253 82.982Z" fill="#002E4C"/>
</g>
<mask id="mask7_47_168" style="mask-type:luminance" maskUnits="userSpaceOnUse" x="58" y="30" width="52" height="59">
<path d="M58.717 41.0914C58.717 41.0914 59.9214 33.8636 63.2928 33.0132C68.3265 31.7437 111.702 29.612 107.366 30.2497C103.031 30.8874 106.644 54.6967 107.607 68.7273C108.571 82.7579 109.052 86.5842 109.052 86.5842L61.8474 88.285L58.717 41.0914Z" fill="white"/>
</mask>
<g mask="url(#mask7_47_168)">
<path d="M57.6499 87.6468C74.8994 85.9308 92.2435 85.0165 109.602 84.9072C111.925 84.8927 111.931 81.7038 109.602 81.7183C92.243 81.8272 74.8994 82.7418 57.6499 84.4579C56.6807 84.5543 55.8438 85.1219 55.8438 86.0522C55.8433 86.8395 56.674 87.744 57.6499 87.6468Z" fill="#002E4C"/>
</g>
<path d="M34.773 43.8369C39.0714 40.6633 41.1785 35.1962 41.1363 30.2497C49.7668 27.7099 54.8725 19.1945 63.6135 16.9688C64.2024 16.8188 64.8854 16.7158 65.3882 17.0249C65.7232 17.2309 66.2766 16.0957 66.4244 16.4318C68.2035 20.4778 68.5323 22.2432 66.6653 29.8247C65.4609 34.714 63.4688 36.8493 62.0896 38.328C60.883 39.6218 60.0389 38.0765 58.4675 39.017C52.9949 42.2932 47.3327 45.5319 40.9455 47.0431C39.2126 47.4532 37.279 47.7129 35.693 46.9722C34.1069 46.2315 33.3095 44.1033 34.6195 43.021L34.773 43.8369Z" fill="#FFD3C5"/>
<path d="M38.0534 47.8679C37.1729 47.8683 36.2858 47.73 35.467 47.3477C34.4375 46.8667 33.6689 45.8749 33.5091 44.82C33.3822 43.9802 33.6591 43.2308 34.2897 42.7103C34.4841 42.5497 34.789 42.5587 34.9705 42.7303C35.0539 42.809 35.0969 42.9085 35.1 43.0088C38.5859 40.0858 40.6969 35.2784 40.6539 30.2524L40.6512 29.9437L40.9832 29.8458C45.1072 28.6322 48.4994 25.9506 51.7798 23.3575C55.2829 20.5881 58.9054 17.7247 63.4794 16.5598C64.0257 16.4207 64.7988 16.2805 65.4533 16.566C65.5119 16.5088 65.5785 16.4364 65.6224 16.3886C65.8434 16.1481 66.0724 15.8993 66.4314 15.9487C66.6324 15.9765 66.7931 16.096 66.8725 16.277C68.724 20.487 68.9916 22.3766 67.1353 29.9139C65.9064 34.9027 63.8336 37.1253 62.4614 38.5961C61.6387 39.4779 60.8541 39.3251 60.2248 39.2025C59.714 39.103 59.3111 39.0247 58.7368 39.3678C53.0534 42.7702 47.4259 45.9485 41.0693 47.4527C40.1626 47.6681 39.1131 47.8679 38.0534 47.8679ZM34.4663 44.1647C34.4304 44.3746 34.4433 44.5678 34.4641 44.7076C34.5822 45.4863 35.1662 46.2451 35.9175 46.596C37.4241 47.2991 39.3288 46.985 40.8203 46.6321C47.0318 45.1624 52.5839 42.0244 58.1967 38.6647C59.1145 38.1155 59.8764 38.2644 60.4329 38.3729C60.9907 38.4814 61.2708 38.5362 61.7172 38.0572C63.1098 36.5644 65.0153 34.5216 66.1944 29.7337C67.9287 22.6916 67.788 20.8282 66.1998 17.1031C65.9393 17.3569 65.5439 17.6381 65.113 17.3733C64.7579 17.1548 64.1637 17.2707 63.747 17.3769C59.3843 18.4878 55.8456 21.2854 52.4232 23.9909C49.1553 26.5742 45.7795 29.2429 41.6182 30.5524C41.5734 36.0132 39.0869 41.2061 35.0823 44.1623C34.9008 44.2967 34.6416 44.2932 34.4663 44.1647Z" fill="#002E4C"/>
<path d="M52.2465 41.7049C54.3442 38.4545 55.5824 35.2597 55.8269 31.5251C57.1835 35.2006 57.9996 38.0687 60.1315 41.4452C58.4855 42.7923 56.3554 43.6717 54.129 43.9231C53.5024 43.994 52.8203 44.0054 52.2922 43.6999C51.7641 43.3943 51.5218 42.6626 51.9674 42.2674L52.2465 41.7049Z" fill="#002E4C"/>
<path d="M68.9529 19.5145C68.9529 22.6246 65.3251 22.2392 61.7278 24.6165C56.0236 28.3863 51.6125 32.9074 43.9059 33.3324C40.5066 33.52 35.2358 28.8324 35.2358 20.7899C35.2358 12.7473 42.4099 5.69653 51.8539 5.69653C61.2969 5.69653 68.9529 11.4719 68.9529 19.5145Z" fill="#FFD071"/>
<path d="M43.7109 33.6565C42.4027 33.6565 40.8969 33.0251 39.5421 31.9013C36.619 29.4774 34.874 25.3233 34.874 20.7896C34.874 12.2911 42.491 5.37744 51.8533 5.37744C56.8821 5.37744 61.5577 6.55531 65.0192 8.69404C68.9732 11.1371 71.2076 14.7256 71.481 19.0712C71.6474 21.7141 69.1188 22.4058 66.4419 23.1383C64.8679 23.5688 63.2405 24.0142 61.9443 24.8712C60.7727 25.6453 59.6415 26.462 58.5481 27.2513C54.2341 30.365 50.1598 33.3063 43.9284 33.6498C43.8565 33.6545 43.7841 33.6565 43.7109 33.6565ZM51.8533 6.01553C42.8895 6.01553 35.5965 12.6433 35.5965 20.79C35.5965 25.1509 37.2562 29.1311 40.0369 31.4367C41.323 32.5029 42.7235 33.0764 43.8831 33.0141C49.8825 32.6831 53.8694 29.8052 58.0905 26.7581C59.1902 25.9641 60.3272 25.1435 61.5112 24.3608C62.9077 23.438 64.6717 22.9554 66.228 22.5292C69.1214 21.7376 70.8881 21.1488 70.7599 19.1065C70.1905 10.0635 60.8539 6.01553 51.8533 6.01553Z" fill="#002E4C"/>
<path d="M51.2233 6.9235C52.4051 8.48172 50.4702 11.454 46.9018 13.5622C43.3334 15.6704 39.4828 16.1161 38.301 14.5579C37.1193 12.9997 39.0541 10.0274 42.6225 7.91923C46.1909 5.81105 50.0415 5.36528 51.2233 6.9235Z" fill="#002E4C"/>
<path d="M48.5082 7.24456C46.422 2.53779 40.2327 -0.14542 34.5387 0.386521C28.8446 0.918463 23.8037 4.18492 20.5123 8.3202C19.6407 9.41542 18.8379 10.6062 17.59 11.3657C15.0547 12.9091 11.5942 12.2079 8.61511 12.8973C5.19316 13.689 2.62105 16.3295 1.36428 19.2485C-0.518211 23.6208 0.297002 28.8947 3.72649 32.4608C7.15598 36.0266 14.3851 37.1171 19.3398 35.4582C23.7563 33.9795 25.9645 31.5634 28.0098 27.805C30.0552 24.0469 30.9698 19.2473 33.2477 15.5946C34.7224 13.2303 36.0359 10.8499 39.0882 11.0109C40.0184 11.0598 40.807 11.6924 41.7376 11.6486C44.374 11.5244 47.5652 9.79499 48.4812 7.60964L48.5082 7.24456Z" fill="#FFD071"/>
<path d="M14.3455 36.5172C10.3232 36.5172 5.97239 35.2884 3.4513 32.6671C-0.0110265 29.0669 -0.962918 23.7557 1.02652 19.1351C2.46746 15.7883 5.27034 13.3413 8.52365 12.5888C9.6961 12.3178 10.9378 12.2555 12.1386 12.1952C14.0735 12.0984 15.901 12.0068 17.3849 11.1035C18.3848 10.4948 19.1108 9.55897 19.8124 8.65412C19.9468 8.48059 20.0809 8.30785 20.2167 8.13706C23.896 3.51411 29.1024 0.573552 34.5004 0.0694223C40.6383 -0.50404 46.8063 2.53053 48.8446 7.12841C48.8934 7.23848 48.8681 7.35795 48.79 7.44413C48.845 7.52443 48.8601 7.62549 48.8201 7.72028C47.7866 10.1869 44.3491 11.8454 41.757 11.9672C41.177 11.9923 40.6729 11.807 40.1852 11.626C39.8013 11.4834 39.4388 11.3491 39.0673 11.3291C36.3967 11.1908 35.1825 13.14 33.7811 15.4001L33.5645 15.7484C32.3486 17.6979 31.5085 20.029 30.6964 22.2829C30.0028 24.2081 29.2852 26.1984 28.336 27.9427C26.3456 31.5997 24.168 34.1822 19.4685 35.7557C17.9689 36.2583 16.1916 36.5172 14.3455 36.5172ZM36.0044 0.637399C35.5295 0.637399 35.0534 0.65894 34.5763 0.703595C29.3855 1.18853 24.3673 4.03117 20.8078 8.50331C20.6738 8.67174 20.5411 8.84292 20.4084 9.0141C19.6695 9.96713 18.9049 10.9527 17.795 11.6284C16.1441 12.6335 14.1285 12.7342 12.1795 12.8317C11.0141 12.8901 9.80882 12.9504 8.70648 13.2058C5.67861 13.9062 3.0599 16.2074 1.7015 19.3619C-0.166788 23.7005 0.757593 28.8816 4.00159 32.2542C7.15549 35.5336 14.1205 36.8642 19.2115 35.1599C23.6865 33.6612 25.7714 31.1821 27.6841 27.6669C28.6115 25.963 29.3211 23.9938 30.0072 22.0897C30.83 19.8061 31.6811 17.4452 32.9312 15.4409L33.1469 15.0938C34.539 12.8489 35.976 10.5245 39.1099 10.6926C39.6052 10.7184 40.0423 10.881 40.4652 11.0381C40.897 11.1987 41.307 11.351 41.7184 11.3303C44.0922 11.2186 47.2403 9.65259 48.1425 7.49897C48.1563 7.46606 48.1758 7.43629 48.1993 7.41005C48.1887 7.39477 48.1793 7.37793 48.1714 7.3607C46.4056 3.37662 41.3332 0.637399 36.0044 0.637399Z" fill="#002E4C"/>
<path d="M39.9796 6.83024C37.5233 6.86589 35.631 7.55334 33.9105 8.9917C31.2421 11.2225 30.0448 15.073 28.6034 18.0574C26.6286 22.1457 23.5151 25.7831 19.7075 28.6915C17.7949 30.1526 15.663 31.4547 13.2431 32.1053C10.1979 32.924 6.78925 32.6294 3.98149 31.3054C3.26479 30.9674 2.58981 30.5623 1.96631 30.1032C2.44603 30.9446 3.03181 31.7382 3.72676 32.4609C7.15625 36.0267 14.3853 37.1172 19.3401 35.4583C23.7565 33.9796 25.9647 31.5635 28.0101 27.8051C30.0555 24.047 30.9701 19.2474 33.248 15.5947C34.7226 13.2304 36.0362 10.85 39.0885 11.011C40.0186 11.0599 40.8072 11.6925 41.7378 11.6487C43.3203 11.5742 45.0999 10.9185 46.4702 9.93571C44.7373 8.0371 42.2717 6.79695 39.9796 6.83024Z" fill="#002E4C"/>
<path d="M43.9053 33.3322C51.6123 32.9072 56.023 28.3861 61.7273 24.6163C65.0037 22.4509 68.304 22.5767 68.8672 20.2668C67.1595 20.2558 65.6427 21.8003 63.9169 21.5688C63.004 21.4462 62.2682 20.8437 61.3891 20.595C60.1017 20.2307 58.6728 20.6812 57.6019 21.4098C56.5311 22.1383 55.7257 23.12 54.8301 24.0138C53.5516 25.2904 52.0157 26.4315 50.1785 26.9544C48.3413 27.4773 46.1628 27.287 44.7187 26.1561C43.9244 25.5337 43.4052 24.6844 42.9858 23.8235C41.8373 21.4654 41.3168 18.8715 41.4783 16.3085C41.5382 15.3575 41.6664 14.319 41.0616 13.5301C40.7163 13.0801 40.0174 12.8595 39.4298 12.9234L40.0582 12.4858C39.7964 12.5975 39.5736 12.7495 39.3819 12.9308C38.9608 12.9888 38.6044 13.1948 38.4926 13.5764L39.302 13.0123C38.7806 13.5532 37.8766 13.0064 37.5225 13.6688C33.4282 21.322 35.8366 26.4236 38.0821 29.8726C39.8594 32.2033 42.1355 33.4301 43.9053 33.3322Z" fill="#002E4C"/>
<path d="M57.2979 29.4576C56.5408 28.5324 56.2963 26.9233 56.7729 25.2323C57.4475 22.8377 59.3127 21.1855 60.9382 21.5424C61.9008 21.7539 62.5638 23.0473 62.8043 24.2173L57.2979 29.4576Z" fill="#FFD3C5"/>
<path d="M57.2983 29.8828C57.1488 29.8828 57.0014 29.8217 56.9074 29.7065C56.0398 28.6458 55.809 26.8921 56.3056 25.1298C57.0556 22.467 59.1427 20.7101 61.0549 21.1301C62.2952 21.4023 63.0284 22.9225 63.2786 24.1415C63.3261 24.3726 63.1526 24.5939 62.8908 24.6359C62.6294 24.679 62.3782 24.5246 62.3307 24.2935C62.0804 23.0757 61.4458 22.0921 60.8223 21.955C59.4795 21.662 57.8397 23.2081 57.2406 25.3347C56.8173 26.8377 56.993 28.3583 57.6889 29.2087C57.8446 29.399 57.7958 29.6646 57.5801 29.8021C57.4945 29.8566 57.396 29.8828 57.2983 29.8828Z" fill="#002E4C"/>
<path d="M23.3757 98.1078C21.3459 101.885 19.8216 103.697 17.6542 109.437C16.831 111.617 15.4868 117.94 19.0991 121.129C19.0179 124.104 19.167 122.956 18.8182 125.916C17.6542 135.797 17.4993 141.403 17.4132 150.253C17.3391 157.857 18.2142 167.687 17.3653 175.254C16.594 182.13 15.0905 188.94 14.6573 195.84C14.2202 202.809 13.8634 212.387 14.5229 219.343C15.56 230.281 16.9312 240.388 18.6171 250.38C22.131 251.929 26.0371 250.815 29.9365 251.23C29.4856 229.004 30.8622 199.504 35.4757 188.305C37.4026 183.628 38.4073 172.035 40.0515 165.134C42.4563 155.041 45.2556 145.242 47.1301 135.062C48.9256 125.31 49.222 115.343 48.0088 105.522C47.3409 100.115 45.2969 93.7684 39.4151 92.1483C33.453 90.5059 27.6271 94.8402 23.6708 99.1059L23.3757 98.1078Z" fill="#00BAA8"/>
<path d="M30.3054 251.591L29.8936 251.547C28.4957 251.398 27.068 251.451 25.6875 251.502C23.2689 251.592 20.7673 251.685 18.4562 250.665L18.288 250.591L18.26 250.427C16.4902 239.939 15.15 229.78 14.1631 219.37C13.4948 212.322 13.8671 202.675 14.2967 195.823C14.5545 191.714 15.2002 187.574 15.825 183.571C16.2515 180.837 16.6926 178.011 17.0055 175.223C17.5571 170.305 17.3787 164.459 17.2065 158.806C17.1137 155.768 17.0263 152.899 17.0521 150.251C17.1341 141.823 17.2699 135.978 18.4588 125.884C18.7011 123.829 18.7011 123.778 18.7073 122.916C18.71 122.557 18.7131 122.072 18.7344 121.256C15.1354 117.93 16.4796 111.54 17.3117 109.337C18.8808 105.181 20.1256 103.055 21.4432 100.803C21.9549 99.9285 22.4839 99.0245 23.0497 97.9716C23.1353 97.8121 23.3505 97.7444 23.5312 97.82C23.7113 97.8956 23.7881 98.0855 23.7025 98.2446C23.1313 99.3077 22.5992 100.216 22.0849 101.095C20.7806 103.324 19.5487 105.43 17.9968 109.538C17.1958 111.659 15.8783 117.835 19.3548 120.904L19.4644 121L19.4609 121.137C19.4364 122.028 19.4329 122.544 19.4302 122.92C19.424 123.792 19.4236 123.864 19.1782 125.949C17.9924 136.015 17.8571 141.847 17.775 150.256C17.7492 152.892 17.8366 155.756 17.9294 158.788C18.1025 164.461 18.2817 170.327 17.7253 175.285C17.4111 178.085 16.9691 180.918 16.5417 183.657C15.9191 187.648 15.2752 191.775 15.0187 195.857C14.59 202.689 14.219 212.305 14.8838 219.316C15.8645 229.658 17.1941 239.751 18.9474 250.166C21.0438 251.036 23.2871 250.953 25.6577 250.865C26.9345 250.817 28.2503 250.769 29.5692 250.875C29.1156 227.441 30.6573 199.07 35.1372 188.196C36.2675 185.453 37.0978 180.168 37.901 175.057C38.4549 171.531 39.0278 167.886 39.6992 165.068C40.4563 161.891 41.2644 158.695 42.0459 155.605C43.7402 148.906 45.4918 141.979 46.7747 135.011C48.5676 125.273 48.8623 115.363 47.6507 105.557C47.0206 100.453 45.0613 94.0376 39.3087 92.4528C33.383 90.8205 27.6871 95.2801 23.9514 99.3081C23.8249 99.4444 23.5977 99.4643 23.4428 99.3531C23.2884 99.2415 23.2658 99.0405 23.3923 98.9042C27.2686 94.7243 33.2139 90.106 39.5239 91.844C44.373 93.1798 47.432 97.8975 48.3692 105.487C49.5874 115.351 49.2909 125.319 47.4879 135.113C46.2018 142.1 44.4476 149.036 42.751 155.744C41.97 158.833 41.1623 162.026 40.4061 165.199C39.74 167.995 39.1689 171.63 38.6164 175.145C37.8083 180.289 36.9722 185.608 35.8162 188.414C31.3451 199.268 29.8234 227.781 30.2983 251.224L30.3054 251.591Z" fill="#002E4C"/>
<path d="M46.1784 139.127C44.3039 136.016 42.448 129.445 40.1728 126.55C35.8496 121.051 30.9467 119.27 25.5109 114.603C25.9139 116.592 23.8477 118.478 21.5889 118.808C20.1018 119.025 18.6085 118.731 17.2119 118.193C17.5794 119.295 18.1771 120.315 19.0997 121.129C19.0682 122.287 19.0713 122.819 19.0664 123.213C24.3909 130.177 28.4438 137.905 31.8108 145.784C34.9061 153.028 37.4573 160.452 39.4494 167.992C39.6425 166.979 39.8422 166.017 40.0525 165.134C42.1205 156.455 44.4792 147.992 46.2916 139.318C46.253 139.254 46.2166 139.19 46.1784 139.127Z" fill="#006F7E"/>
<path d="M65.2385 105.303C67.9704 125.533 69.7082 145.867 70.4449 166.23C70.5572 169.338 70.6002 172.621 68.8735 175.332C67.1849 177.983 64.0834 179.645 61.1158 181.19C60.2824 181.624 59.1828 182.049 58.4204 181.524C58.0791 181.288 58.0321 181.434 57.875 181.078C51.3546 166.334 44.6949 151.032 40.128 135.727C39.2493 132.782 38.4443 129.821 37.6393 126.86C37.4405 126.128 37.2288 125.372 36.7091 124.775C36.1637 124.148 35.3423 123.768 34.5879 123.342C31.7384 121.734 26.686 119.535 25.7226 115.071C25.6099 114.548 27.4121 110.171 27.2882 109.65C27.168 109.145 27.1409 112.701 27.2882 112.201C29.855 103.491 37.906 98.1683 47.8794 96.2979C52.5159 95.4283 58.0077 95.8893 60.992 99.1393C62.8643 101.179 63.4674 104.024 65.6397 105.816L65.2385 105.303Z" fill="#00BAA8"/>
<path d="M59.264 182.085C58.8948 182.085 58.5255 182.001 58.1976 181.775C58.1062 181.712 58.048 181.688 57.9921 181.665C57.7835 181.578 57.6686 181.49 57.5377 181.194C50.4444 165.154 44.212 150.668 39.7778 135.808C38.9 132.867 38.0831 129.861 37.2927 126.954C37.1076 126.273 36.9035 125.523 36.4225 124.97C36.0106 124.496 35.4173 124.172 34.7889 123.829C34.6562 123.757 34.5235 123.685 34.3926 123.611C33.9107 123.339 33.3462 123.057 32.748 122.759C29.8519 121.313 25.8855 119.332 25.4825 115.419C25.2185 112.854 26.3448 110.417 26.9776 109.486C27.0801 109.335 27.3024 109.286 27.4733 109.377C27.6441 109.467 27.6996 109.663 27.5971 109.814C27.0064 110.683 25.9547 112.961 26.2019 115.361C26.5707 118.942 30.1927 120.75 33.1035 122.203C33.7101 122.506 34.283 122.792 34.7814 123.074C34.9092 123.146 35.0383 123.216 35.1683 123.287C35.8242 123.645 36.5023 124.015 36.9949 124.582C37.5696 125.242 37.7928 126.063 37.9894 126.786C38.7842 129.709 39.6003 132.711 40.4763 135.647C44.9008 150.474 51.1256 164.942 58.2104 180.963C58.2522 181.057 58.2717 181.081 58.2739 181.083C58.269 181.077 58.2828 181.081 58.2988 181.088C58.3733 181.119 58.4865 181.166 58.6418 181.273C59.106 181.594 59.8551 181.477 60.9312 180.916C63.715 179.467 66.8707 177.825 68.5575 175.177C70.1751 172.637 70.2052 169.627 70.0832 166.241C69.3501 145.97 67.5989 125.481 64.879 105.342C64.8555 105.166 64.9971 105.008 65.195 104.987C65.3943 104.964 65.5727 105.091 65.5966 105.266C68.3192 125.423 70.0712 145.931 70.8052 166.221C70.9312 169.705 70.8966 172.806 69.1877 175.489C67.4055 178.287 64.0195 180.05 61.2987 181.466C60.9508 181.646 60.1076 182.085 59.264 182.085Z" fill="#002E4C"/>
<path d="M105.369 42.7669C104.924 41.9663 104.48 41.1652 104.035 40.3646C103.917 40.1535 103.787 39.0531 103.997 38.7985C105.44 37.0527 106.885 38.3285 107.264 37.7284C107.328 37.6273 107.515 37.8185 107.644 37.7997C107.833 37.7727 107.955 37.6132 108.049 37.4659C108.512 36.7378 109.411 35.5685 110.016 34.9269C110.621 34.2853 111.041 34.1881 111.947 34.4282C112.548 34.5877 113.001 35.0232 113.373 35.4698C115.211 37.6747 117.921 40.933 117.482 43.6428C117.241 45.1309 113.157 46.3241 112.56 46.5689C112.276 46.6852 111.976 46.8043 111.663 46.7863C111.383 46.7702 111.127 46.6453 110.884 46.5215C109.77 45.9555 108.68 45.351 107.62 44.7098L105.369 42.7669Z" fill="#FFD3C5"/>
<path d="M111.726 47.2136C111.695 47.2136 111.663 47.2124 111.632 47.2109C111.229 47.1877 110.89 47.0158 110.643 46.89C109.522 46.3201 108.413 45.7047 107.347 45.0608C107.128 44.928 107.072 44.6636 107.222 44.4697C107.373 44.2762 107.672 44.2268 107.892 44.3588C108.936 44.9903 110.024 45.5939 111.124 46.1529C111.345 46.2653 111.528 46.3522 111.695 46.362C111.893 46.3753 112.139 46.2727 112.357 46.183C112.445 46.147 112.606 46.0906 112.816 46.0169C115.484 45.089 116.894 44.2695 117.005 43.5821C117.417 41.0367 114.749 37.838 112.984 35.7212C112.698 35.3781 112.306 34.9672 111.807 34.8348C111.073 34.6405 110.861 34.6946 110.386 35.1983C109.813 35.8059 108.935 36.9391 108.468 37.6735C108.384 37.8051 108.162 38.1557 107.721 38.2188C107.606 38.2352 107.504 38.2207 107.418 38.1961C107.113 38.3759 106.716 38.33 106.405 38.2944C105.811 38.2266 105.139 38.1483 104.4 39.0312C104.321 39.2357 104.394 40.0081 104.471 40.1867L105.801 42.5793C105.918 42.79 105.82 43.045 105.581 43.1484C105.341 43.2515 105.053 43.1645 104.936 42.9542L103.601 40.5518C103.443 40.2678 103.246 38.9842 103.607 38.5482C104.688 37.2399 105.841 37.3727 106.529 37.4518C106.644 37.4647 106.795 37.482 106.872 37.4796C106.955 37.3774 107.175 37.1808 107.58 37.3284C107.593 37.31 107.609 37.2873 107.627 37.2583C108.118 36.4874 109.041 35.2951 109.644 34.6554C110.366 33.8892 110.982 33.7294 112.083 34.0216C112.855 34.2261 113.384 34.7686 113.759 35.2183C115.617 37.4467 118.425 40.8142 117.958 43.7035C117.74 45.0474 115.415 46.0275 113.169 46.809C112.982 46.874 112.839 46.923 112.761 46.9551C112.493 47.0651 112.131 47.2132 111.726 47.2136Z" fill="#002E4C"/>
<path d="M26.5447 48.1594C25.0865 49.1305 24.1128 50.5563 23.2723 51.9876C17.2818 62.1905 16.3934 74.0761 16.2017 85.5665C16.1853 86.543 16.1848 87.5646 16.6912 88.4326C17.837 90.3959 20.9833 90.6419 23.358 89.9462C27.5548 88.7162 30.698 85.4627 32.3537 81.8433C34.0095 78.2239 34.3565 74.248 34.408 70.345C34.4839 64.6057 33.9456 58.792 31.8434 53.3601C31.365 52.1243 30.7828 50.8779 29.7488 49.9437C28.7148 49.0094 27.1314 48.4466 25.7224 48.8457L26.5447 48.1594Z" fill="#002E4C"/>
<path d="M65.2385 105.303C65.2465 105.361 65.2536 105.42 65.2616 105.478C65.3823 105.594 65.5079 105.707 65.6393 105.815L65.2385 105.303Z" fill="#002E4C"/>
<path d="M65.2616 105.478C63.3898 103.681 62.7503 101.054 60.9916 99.1388C58.0072 95.8888 52.5151 95.4278 47.879 96.2974C46.695 96.5195 45.5389 96.7917 44.4149 97.111C44.382 97.1513 44.347 97.1893 44.315 97.2301C42.4547 99.5874 42.2302 102.625 42.07 105.495L41.8743 105.559C47.086 104.725 52.078 107.726 55.803 111.049C61.0564 115.736 65.1693 121.406 67.8377 127.562C67.1099 120.19 66.2521 112.827 65.2616 105.478Z" fill="#002E4C"/>
<path d="M23.7953 52.5713C22.6362 59.2229 22.6628 70.3569 23.5717 77.0386C24.4805 83.7204 24.8919 90.7665 21.7859 96.9124C21.4087 97.6582 20.9725 98.4749 21.2365 99.2579C21.4455 99.878 22.0517 100.322 22.6517 100.694C26.0879 102.82 30.2496 103.798 34.3407 104.624C45.2332 106.823 63.4355 109.216 67.6283 107.63C67.6283 103.378 67.5923 89.5059 68.5917 82.5453C69.5822 75.6449 70.981 74.1948 72.0651 67.3058C73.1892 60.1614 72.8914 52.9097 72.5919 45.7015C72.4463 42.1988 71.0005 37.2649 69.0736 37.0526C67.2413 36.8504 57.3136 36.2292 56.0817 36.6659C51.9324 38.1372 43.7314 42.3872 39.4504 43.4304C36.7123 44.0975 35.8376 44.2808 35.5895 42.5623C29.5746 44.5561 24.7437 47.1312 23.7953 52.5713Z" fill="#002E4C"/>
<path d="M62.8591 108.57C55.0784 108.57 41.5854 106.523 34.2334 105.038C30.1782 104.22 25.9228 103.236 22.3753 101.041C21.7256 100.639 21.0276 100.127 20.7751 99.3793C20.4688 98.4717 20.9148 97.5916 21.308 96.8148L21.3462 96.7392C24.4069 90.683 23.9951 83.716 23.0938 77.0891C22.2382 70.7983 22.0811 59.611 23.3197 52.5066C24.3488 46.602 29.7433 44.0461 35.4201 42.1643L35.9903 41.9751L36.0675 42.5082C36.139 43.0022 36.2623 43.2948 36.4438 43.4017C36.8295 43.6281 37.9292 43.3598 39.3226 43.0202C41.8481 42.4048 45.8954 40.5936 49.466 38.9958C51.9143 37.9002 54.2268 36.8653 55.9025 36.2711C57.3425 35.7603 67.7299 36.4755 69.1336 36.6303C71.6636 36.9092 72.9478 42.6657 73.0734 45.6858C73.3694 52.8027 73.6756 60.1622 72.5427 67.3642C72.0106 70.7477 71.3977 72.8449 70.8053 74.8728C70.172 77.0417 69.5738 79.09 69.0701 82.5985C68.1063 89.3144 68.1094 102.31 68.1107 107.201V107.91L67.8187 108.02C66.7993 108.406 65.0562 108.57 62.8591 108.57ZM35.2204 43.1409C30.0193 44.9149 25.1937 47.3451 24.2715 52.6355C23.0458 59.669 23.2021 70.7524 24.0501 76.9877C24.9678 83.7356 25.3819 90.8408 22.2257 97.0855L22.1871 97.1618C21.8463 97.8352 21.494 98.5313 21.6981 99.1365C21.8663 99.6347 22.4144 100.027 22.9278 100.345C26.3329 102.453 30.4862 103.41 34.4477 104.209C45.1285 106.366 62.6035 108.659 67.1464 107.336V107.202C67.1451 102.295 67.1419 89.2607 68.1138 82.492C68.625 78.9298 69.2592 76.7597 69.872 74.6609C70.4574 72.6557 71.0631 70.5828 71.5877 67.2474C72.7091 60.1191 72.4047 52.7977 72.11 45.7175C71.9467 41.7859 70.3837 37.626 69.0133 37.4748C66.8309 37.2339 57.2839 36.6972 56.2606 37.0607C54.624 37.6413 52.3296 38.6679 49.9009 39.7549C46.1132 41.4498 42.1969 43.2023 39.5782 43.8404C37.7587 44.2839 36.6604 44.5518 35.9095 44.1099C35.5266 43.8843 35.3304 43.5169 35.2204 43.1409Z" fill="#002E4C"/>
<path d="M71.8812 68.4026C69.8234 67.5867 67.072 67.9545 65.9298 69.6573C65.3724 70.4877 65.2623 71.4858 65.1727 72.4478C64.0677 84.2943 64.0725 96.221 65.1802 108.067C66.2204 107.989 67.0556 107.847 67.6281 107.63C67.6281 103.378 67.5921 89.506 68.5915 82.5453C69.527 76.0284 70.8268 74.3703 71.8812 68.4026Z" fill="#002E4C"/>
<path d="M9.60878 17.5866C11.5694 18.0414 13.4337 16.7221 14.6971 15.5356C16.4189 13.9183 17.914 12.0252 19.4686 10.2781C19.7526 9.95889 19.2449 9.5045 18.9578 9.82727C17.776 11.1552 16.5334 12.4353 15.3912 13.7906C14.2103 15.1921 12.0642 17.4969 9.80094 16.972C9.3505 16.8675 9.15879 17.4824 9.60878 17.5866Z" fill="#002E4C"/>
<path d="M69.0733 37.0526C66.9636 38.8658 61.6365 59.3906 63.775 68.9401C64.0333 70.094 65.22 68.7274 68.5918 69.7905C69.8077 70.1739 70.1592 70.6561 71.2411 71.2786C75.7468 73.8705 81.1728 76.7229 86.0499 78.723C92.1939 81.0572 95.0842 81.4826 98.6997 76.8577C104.718 68.0897 108.812 59.586 111.274 50.8717C112.031 48.1889 112.425 46.8312 108.832 43.4954C106.943 41.7406 106.381 41.708 104.237 43.2173C100.256 46.0192 93.3988 52.5709 90.027 56.6102C85.2102 50.2328 81.5975 46.4062 72.9275 38.7534C71.9045 37.8505 69.5552 36.6276 69.0733 37.0526Z" fill="#002E4C"/>
<path d="M92.6824 80.841C90.7724 80.841 88.5988 80.1548 85.8594 79.1136C80.4445 76.893 74.7792 73.8216 70.9779 71.6347C70.5882 71.4106 70.2878 71.2026 70.0224 71.0193C69.5374 70.6836 69.154 70.4188 68.4297 70.1909C68.179 70.1117 68.0485 69.8685 68.1382 69.6472C68.2278 69.4263 68.5034 69.3111 68.7537 69.3898C69.6252 69.6644 70.1067 69.9974 70.6166 70.3499C70.8789 70.5313 71.1496 70.7185 71.5042 70.9222C75.2789 73.0938 80.902 76.1429 86.253 78.3376C92.2351 80.6103 94.8303 81.0534 98.2953 76.627C104.251 67.9479 108.343 59.4898 110.806 50.7691C111.549 48.1396 111.885 46.9476 108.483 43.7885C106.773 42.2013 106.479 42.1833 104.537 43.5499C100.787 46.1889 93.9241 52.6584 90.4147 56.8626L90.0074 57.3506L89.6262 56.8461C84.7309 50.3649 81.0684 46.5406 72.5866 39.0539C71.5694 38.1561 69.8059 37.3496 69.3678 37.3895C69.1788 37.5188 68.9063 37.5066 68.7333 37.3535C68.5451 37.1874 68.5451 36.9183 68.7333 36.7522C69.1375 36.3954 69.8658 36.4839 71.0245 37.0303C71.8477 37.4185 72.7286 37.9767 73.2677 38.453C81.5828 45.7925 85.298 49.6383 90.0486 55.8755C93.3943 51.9913 99.9421 45.6961 103.936 42.8856C106.282 41.2349 107.115 41.2847 109.182 43.2033C112.948 46.7008 112.521 48.2128 111.746 50.9575C109.253 59.7835 105.122 68.322 99.1118 77.0791L99.0963 77.1002C96.9848 79.7999 95.0336 80.841 92.6824 80.841ZM69.414 37.3531L69.4136 37.3535L69.414 37.3531Z" fill="#002E4C"/>
<path d="M62.571 47.6816C62.5355 47.6816 62.4991 47.6781 62.4631 47.6707C62.204 47.6182 62.042 47.3902 62.101 47.1614C64.836 36.6272 67.6979 36.6272 69.0731 36.6272C69.3394 36.6272 69.5551 36.8176 69.5551 37.0522C69.5551 37.2868 69.3394 37.4772 69.0731 37.4772C68.0347 37.4772 65.6037 37.4772 63.04 47.351C62.989 47.5484 62.7906 47.6816 62.571 47.6816Z" fill="#002E4C"/>
<path d="M96.8401 49.5089C96.8649 49.5663 96.888 49.624 96.9084 49.6829L96.8898 49.4624C96.8729 49.4779 96.8565 49.4934 96.8401 49.5089Z" fill="#002E4C"/>
<path d="M90.0264 56.6104C89.5849 55.9128 89.1376 55.2355 88.6809 54.5716C89.9909 57.6163 92.3057 60.3344 93.3845 63.4677C93.976 65.1861 94.1793 66.9868 94.3799 68.7738C94.5338 62.3309 94.7083 55.7968 96.7336 49.6113C94.1602 52.0568 91.6759 54.6342 90.0264 56.6104Z" fill="#002E4C"/>
<path d="M62.1727 70.4968C64.7156 69.6222 67.4088 69.6226 69.9517 70.4983C70.3852 70.6475 70.5729 70.0313 70.1438 69.8837C67.494 68.9711 64.6312 68.9703 61.981 69.8817C61.5523 70.0293 61.7387 70.6459 62.1727 70.4968Z" fill="#002E4C"/>
<path d="M61.628 24.2776C61.2716 23.988 61.1829 23.5018 60.7555 23.2671C60.3419 23.0398 59.8627 23.144 59.5081 23.4066C58.5429 24.1201 58.2935 25.5883 58.3245 26.6274C58.337 27.0373 59.0594 27.0388 59.047 26.6274C59.023 25.832 59.1668 24.9378 59.6585 24.2502C59.9305 23.8701 60.302 23.6417 60.6153 24.1052C60.7711 24.336 60.8904 24.5444 61.1172 24.7286C61.4589 25.0064 61.9715 24.5566 61.628 24.2776Z" fill="#002E4C"/>
<path d="M34.7374 145.574C32.625 159.239 30.4114 172.896 28.4779 186.583C26.5604 200.157 25.0369 213.801 24.8674 227.491C24.7706 235.288 25.1274 243.088 26.0762 250.843C26.1255 251.247 26.8488 251.251 26.7987 250.843C23.4455 223.429 27.6756 195.934 31.8719 168.786C33.0594 161.105 34.2465 153.424 35.4341 145.743C35.4958 145.342 34.7999 145.168 34.7374 145.574Z" fill="#002E4C"/>
<path d="M46.4343 219.237C50.4246 219.237 53.6594 216.572 53.6594 213.284C53.6594 209.997 50.4246 207.332 46.4343 207.332C42.444 207.332 39.2092 209.997 39.2092 213.284C39.2092 216.572 42.444 219.237 46.4343 219.237Z" fill="#002E4C"/>
<path d="M78.6014 224.654C74.7073 234.215 71.3514 243.947 68.5508 253.802C70.7772 254.397 73.3999 254.936 75.2571 253.701C75.8274 253.321 76.2605 252.806 76.6834 252.298C79.9389 248.384 83.0982 244.408 86.158 240.374C92.7525 231.678 99.0177 222.402 100.821 212.06C100.913 211.536 100.991 210.99 100.812 210.484C100.42 209.368 98.9689 208.856 97.6651 208.654C92.8559 207.91 87.74 209.478 84.2413 212.484C80.7426 215.49 78.8468 219.816 78.7891 224.126L78.6014 224.654Z" fill="#002E4C"/>
<path d="M67.6249 255.34C66.1942 257.735 65.0142 260.247 64.1049 262.832C63.7189 263.93 63.5116 265.374 64.6033 266C65.0755 266.271 65.6706 266.296 66.2337 266.302C68.6745 266.327 71.1179 266.159 73.5249 265.801C74.1715 265.705 74.823 265.593 75.4207 265.354C77.4035 264.564 78.4207 262.416 78.0226 260.528C77.6245 258.64 76.0278 257.063 74.1072 256.161C71.9766 255.16 69.4089 254.906 67.0804 255.468C67.0498 255.61 67.1093 255.765 67.2318 255.862L67.6249 255.34Z" fill="#002E4C"/>
<path d="M72.9022 246.512C72.1416 247.415 71.7164 248.043 70.7588 248.786C69.4425 249.807 67.8339 250.395 65.942 251.975C64.6684 253.038 64.0782 254.049 64.9786 255.376C65.4259 256.036 66.9308 257.253 67.6279 257.714C71.4812 260.266 73.212 261.811 76.2984 263.454C77.0009 263.828 77.7265 263.196 78.5151 263.395C80.3097 263.848 82.213 263.321 83.9832 262.798C84.139 262.203 83.6731 261.637 83.2732 261.139C81.1209 258.457 80.3088 253.522 80.8742 250.274C81.0783 249.1 81.361 249.453 81.4236 248.266C81.4861 247.08 81.1648 245.803 80.1752 244.998C77.3466 242.699 74.5242 244.587 72.9022 246.512Z" fill="#FFD3C5"/>
<path d="M76.7991 264C76.5576 264 76.3043 263.954 76.0495 263.818C74.0681 262.764 72.6626 261.766 70.8831 260.503C69.882 259.792 68.7468 258.986 67.3391 258.055C66.6393 257.592 65.0701 256.339 64.5655 255.595C63.3926 253.865 64.5083 252.587 65.6111 251.666C66.7343 250.728 67.7629 250.13 68.67 249.601C69.3077 249.23 69.9099 248.879 70.4407 248.467C71.164 247.906 71.5705 247.409 72.0849 246.78C72.2193 246.616 72.3604 246.443 72.5158 246.259C73.311 245.315 74.9596 243.706 77.0698 243.531C78.2822 243.433 79.436 243.82 80.5019 244.686C81.8315 245.767 81.9517 247.406 81.9056 248.287C81.8701 248.958 81.768 249.203 81.6167 249.5C81.527 249.675 81.4347 249.856 81.3509 250.339C80.8232 253.371 81.559 258.268 83.6669 260.894L83.6882 260.921C84.1187 261.457 84.6543 262.124 84.4533 262.895L84.3925 263.126L84.1364 263.202C82.4652 263.695 80.3856 264.309 78.3829 263.804C78.1508 263.745 77.8925 263.807 77.593 263.879C77.3547 263.935 77.0849 264 76.7991 264ZM73.2888 246.766C73.1366 246.946 72.9981 247.116 72.8659 247.277C72.3378 247.923 71.8816 248.48 71.077 249.105C70.4961 249.556 69.8669 249.922 69.2008 250.311C68.3265 250.82 67.3356 251.397 66.2732 252.284C64.9556 253.383 64.7169 254.162 65.3923 255.158C65.7753 255.722 67.1882 256.892 67.9174 257.374C69.3383 258.315 70.4797 259.125 71.4871 259.84C73.2382 261.083 74.6215 262.065 76.5474 263.09C76.7423 263.193 76.9646 263.147 77.3414 263.058C77.7053 262.971 78.1579 262.862 78.6478 262.986C80.1496 263.365 81.7525 262.999 83.528 262.484C83.4885 262.142 83.1912 261.772 82.9023 261.412L82.8806 261.385C80.6035 258.548 79.8305 253.475 80.3985 250.209C80.5028 249.612 80.6333 249.356 80.7385 249.15C80.8401 248.95 80.9137 248.806 80.9435 248.247C81.0096 247 80.6106 245.93 79.8496 245.311C78.9931 244.615 78.0882 244.302 77.1603 244.377C75.8898 244.482 74.479 245.353 73.2888 246.766Z" fill="#002E4C"/>
<path d="M69.0059 266.651C69.0738 266.321 69.3494 266.059 69.6126 265.817C73.2457 262.48 76.953 259.093 81.5408 256.853C85.1522 258.858 88.3611 261.426 90.9741 264.403C91.3864 264.872 91.7707 265.588 91.2834 265.998C91.0402 266.202 90.6728 266.227 90.3373 266.239C83.7588 266.488 77.1802 266.737 70.6017 266.986C69.8748 267.014 69.1022 267.032 68.4734 266.709C68.8067 266.738 69.1399 266.766 69.4728 266.795L69.0059 266.651Z" fill="#002E4C"/>
<path d="M59.9211 266.854C59.527 266.854 59.2048 266.575 59.1991 266.227C59.1933 265.875 59.5119 265.585 59.9109 265.58L76.2879 265.367C76.2915 265.367 76.295 265.367 76.2986 265.367C76.6926 265.367 77.0148 265.646 77.0206 265.995C77.0264 266.347 76.7077 266.637 76.3088 266.642L59.9317 266.854C59.9282 266.854 59.9246 266.854 59.9211 266.854Z" fill="#002E4C"/>
<path d="M41.2315 211.29C41.5133 217.117 46.1326 222.358 52.0321 224.985C57.9316 227.612 64.8945 227.894 71.3931 226.839C77.8917 225.784 84.0331 223.476 90.0689 221.103C83.4917 228.29 77.7 235.899 72.6747 244.004C75.0946 247.936 77.9121 250.368 82.8012 251.55C94.1206 241.249 105.44 230.814 116.76 220.513C119.277 218.222 124.085 213.56 125.189 210.521C125.89 208.592 126.875 201.805 124.179 199.695C120.373 196.703 95.412 197.425 90.1892 197.376C78.9994 197.269 67.7142 194.027 56.7894 196.166C54.1786 196.677 51.579 197.526 49.5851 199.098C46.7507 201.334 45.466 204.751 42.8366 207.175C42.0521 207.898 41.1219 208.569 40.7598 209.519C40.3981 210.467 40.9843 211.778 42.1182 211.805L41.2315 211.29Z" fill="#002E4C"/>
<path d="M82.9485 252.026L82.6738 251.959C77.9578 250.819 74.9379 248.572 72.2508 244.206L72.1257 244.002L72.2517 243.799C76.9225 236.266 82.3716 229.005 88.4641 222.194C82.8788 224.358 77.3356 226.306 71.48 227.257C66.3269 228.094 58.7326 228.444 51.815 225.364C45.4948 222.55 41.1964 217.192 40.7712 211.643C40.7278 211.597 40.686 211.549 40.6461 211.498C40.1744 210.903 40.0399 210.072 40.3031 209.382C40.6332 208.516 41.3504 207.886 42.0435 207.277C42.1935 207.145 42.3435 207.013 42.4882 206.88C43.6673 205.793 44.5957 204.46 45.4939 203.171C46.5714 201.624 47.6861 200.024 49.2638 198.78C51.0544 197.368 53.4818 196.376 56.685 195.749C63.6589 194.384 70.8689 195.196 77.8415 195.981C81.8972 196.438 86.0913 196.91 90.194 196.949C90.9613 196.957 92.1528 196.947 93.6621 196.935C102.574 196.866 121.116 196.718 124.498 199.377C127.516 201.739 126.244 209.006 125.647 210.65C124.521 213.749 119.812 218.344 117.105 220.808C111.446 225.958 105.691 231.228 100.127 236.325C94.5616 241.423 88.8072 246.694 83.1468 251.845L82.9485 252.026ZM73.2236 244.003C75.6865 247.926 78.4477 249.996 82.6551 251.071C88.2498 245.979 93.9341 240.772 99.4334 235.735C104.999 230.638 110.753 225.367 116.414 220.216C118.545 218.276 123.624 213.434 124.73 210.391C125.526 208.2 126.207 201.85 123.858 200.013C120.753 197.572 101.774 197.722 93.6705 197.785C92.1563 197.798 90.9604 197.807 90.1833 197.8C86.0247 197.76 81.8022 197.284 77.7195 196.825C70.8285 196.048 63.7033 195.246 56.8931 196.579C53.8551 197.174 51.5696 198.102 49.9055 199.414C48.4326 200.576 47.4039 202.053 46.3144 203.616C45.39 204.944 44.4337 206.316 43.184 207.468C43.0341 207.606 42.8792 207.742 42.7234 207.879C42.0808 208.443 41.4737 208.977 41.2159 209.653C41.0712 210.032 41.1249 210.512 41.3419 210.875C41.5425 210.916 41.6965 211.069 41.712 211.257C41.8256 211.326 41.9646 211.374 42.131 211.379C42.3968 211.385 42.6067 211.58 42.5996 211.814C42.5925 212.049 42.3693 212.232 42.1052 212.228C42.0001 212.226 41.8967 212.215 41.7964 212.197C42.4563 217.231 46.4627 222.027 52.2495 224.604C58.9274 227.578 66.2985 227.233 71.3065 226.42C77.6862 225.384 83.7295 223.129 89.8731 220.713L91.7019 219.994L90.4438 221.369C83.9443 228.47 78.1517 236.085 73.2236 244.003Z" fill="#002E4C"/>
<path d="M108.661 213.371C101.499 215.474 94.6184 218.321 88.2028 221.83C88.8259 221.589 89.448 221.346 90.0684 221.102C85.7154 225.859 81.709 230.802 78.0386 235.949C87.8788 228.033 97.949 220.341 108.661 213.371Z" fill="#002E4C"/>
<path d="M51.6786 197.792C50.9313 198.161 50.2262 198.591 49.5845 199.098C46.7501 201.333 45.4654 204.751 42.836 207.174C42.0514 207.897 41.1212 208.569 40.7591 209.518C40.5079 210.177 40.7148 211.009 41.2442 211.466C41.5557 216.368 44.9257 220.838 49.5263 223.663C48.767 220.392 48.3317 217.078 48.4844 213.746C48.7542 207.852 51.0507 201.84 55.8519 197.751C54.4655 197.551 53.0637 197.581 51.6786 197.792Z" fill="#002E4C"/>
<path d="M56.0908 197.548C56.01 197.614 55.9315 197.683 55.8521 197.751C56.2479 197.808 56.6429 197.882 57.0356 197.977L56.0908 197.548Z" fill="#002E4C"/>
<path d="M171.718 181.189C171.853 182.322 171.988 183.454 172.123 184.587C172.205 185.279 172.622 185.319 173.116 185.861C173.844 186.661 173.423 187.562 174.561 187.349C177.21 187.561 177.933 187.349 180.995 185.959C182.749 185.223 181.245 183.517 180.822 183.098C178.896 181.184 177.431 179.712 174.445 178.927C174.266 178.88 174.076 178.837 173.893 178.873C173.686 178.914 173.522 179.05 173.374 179.184C172.64 179.846 172.005 180.591 171.488 181.397C171.736 181.523 172.097 181.41 172.199 181.174L171.718 181.189Z" fill="#FFD3C5"/>
<path d="M176.001 187.843C175.581 187.843 175.119 187.82 174.586 187.778C173.513 187.947 173.277 187.277 173.135 186.872C173.048 186.624 172.958 186.367 172.74 186.127C172.604 185.977 172.472 185.871 172.345 185.767C172.037 185.518 171.718 185.26 171.643 184.631L171.305 181.792C171.285 181.784 171.266 181.775 171.247 181.765L170.833 181.554L171.069 181.187C171.607 180.348 172.266 179.574 173.029 178.886C173.22 178.714 173.452 178.525 173.786 178.458C174.083 178.399 174.353 178.458 174.583 178.519C177.676 179.332 179.204 180.849 181.137 182.77L181.183 182.814C181.497 183.127 182.505 184.224 182.273 185.233C182.196 185.566 181.948 186.029 181.201 186.342C178.753 187.454 177.718 187.843 176.001 187.843ZM174.532 186.92L174.605 186.926C177.145 187.129 177.807 186.928 180.775 185.581C181.257 185.379 181.311 185.143 181.329 185.065C181.451 184.535 180.842 183.756 180.463 183.38L180.418 183.335C178.515 181.444 177.14 180.079 174.309 179.334C174.227 179.312 174.075 179.273 173.999 179.288C173.915 179.305 173.787 179.42 173.719 179.482C173.261 179.894 172.843 180.341 172.471 180.815C172.653 180.924 172.732 181.137 172.65 181.326C172.578 181.494 172.443 181.636 172.268 181.733L172.603 184.542C172.64 184.851 172.737 184.93 172.997 185.141C173.137 185.254 173.31 185.394 173.492 185.595C173.825 185.96 173.959 186.342 174.057 186.62C174.098 186.738 174.16 186.916 174.204 186.953C174.204 186.949 174.22 186.956 174.256 186.956C174.297 186.956 174.362 186.952 174.462 186.933L174.532 186.92Z" fill="#002E4C"/>
<path d="M98.2227 143.923C103.41 144.105 109.027 144.179 113.25 141.515C112.444 143.946 113.165 146.535 113.443 149.056C113.593 150.416 113.612 151.784 113.631 153.151C113.66 155.246 113.689 157.342 113.718 159.438C113.722 159.705 113.676 160.039 113.391 160.126C113.178 160.192 112.954 160.075 112.767 159.965C106.819 156.443 100.53 153.37 93.9922 150.789C93.6053 150.637 93.2019 150.475 92.9352 150.184C92.2393 149.424 92.8304 148.29 93.5356 147.536C94.7466 146.241 96.2794 145.181 97.9946 144.454L98.2227 143.923Z" fill="#FFD3C5"/>
<path d="M113.263 160.57C112.925 160.57 112.638 160.4 112.499 160.318C106.586 156.817 100.294 153.742 93.7958 151.177C93.3981 151.02 92.9029 150.825 92.5607 150.451C91.6949 149.505 92.3047 148.185 93.1638 147.265C94.4121 145.93 96.0057 144.827 97.7733 144.075C97.7502 144.023 97.7387 143.965 97.7413 143.905C97.752 143.671 97.9703 143.487 98.2419 143.498C103.752 143.69 109.024 143.658 112.97 141.169L114.104 140.454L113.712 141.634C113.115 143.436 113.407 145.402 113.69 147.302C113.774 147.863 113.86 148.444 113.923 149.014C114.075 150.392 114.094 151.791 114.113 153.145L114.2 159.433C114.21 160.17 113.851 160.435 113.549 160.528C113.451 160.558 113.355 160.57 113.263 160.57ZM98.4643 144.356C98.5148 144.546 98.4114 144.748 98.2038 144.836C96.5565 145.535 95.0707 146.562 93.9076 147.806C93.3182 148.437 92.8083 149.368 93.3102 149.917C93.5073 150.132 93.8539 150.269 94.1889 150.401C100.737 152.986 107.077 156.085 113.035 159.611C113.119 159.661 113.173 159.688 113.21 159.703C113.223 159.658 113.238 159.578 113.237 159.443L113.15 153.156C113.131 151.819 113.112 150.439 112.964 149.097C112.902 148.54 112.817 147.967 112.735 147.413C112.49 145.771 112.239 144.082 112.528 142.433C108.553 144.476 103.611 144.53 98.4643 144.356Z" fill="#002E4C"/>
<path d="M100.308 141.03C92.7959 141.112 81.7176 143.025 75.2149 147.064C67.3943 151.922 59.4671 159.763 54.6091 167.034C47.0286 178.38 41.4694 192.2 40.052 205.312C39.6863 208.694 39.811 211.265 39.811 214.241C42.2194 211.69 47.1062 208.158 49.204 207.226C59.9242 202.459 66.6239 199.17 78.5863 198.297C80.0214 198.192 85.0538 197.727 87.4973 197.022C89.4725 196.451 89.417 196.774 91.1038 195.703C99.9119 190.108 109.315 183.775 112.053 174.507C115.137 164.069 109.414 154.718 104.115 145.364C103.29 143.908 101.466 141.963 100.021 140.9L100.308 141.03Z" fill="url(#paint0_linear_47_168)"/>
<path d="M39.4498 215.122V214.241C39.4498 213.632 39.4445 213.039 39.4392 212.453C39.4188 210.156 39.3997 207.987 39.6921 205.282C41.0487 192.734 46.3723 178.734 54.2976 166.872C59.2967 159.39 67.4258 151.512 75.0064 146.804C81.3896 142.839 92.1498 140.893 99.7211 140.721C99.7277 140.712 99.7353 140.704 99.7432 140.695C99.871 140.56 100.099 140.542 100.252 140.654C100.278 140.673 100.304 140.692 100.329 140.712C100.496 140.721 100.632 140.829 100.662 140.971C102.104 142.132 103.699 143.917 104.438 145.221L105.128 146.435C110.172 155.308 115.388 164.484 112.403 174.587C109.722 183.66 100.898 189.875 91.3146 195.961C90.0889 196.74 89.7042 196.824 88.9378 196.992C88.6107 197.064 88.2029 197.153 87.6096 197.325C85.2016 198.02 80.301 198.492 78.616 198.615C67.4706 199.428 61.0492 202.295 51.3297 206.635C50.6893 206.921 50.0356 207.213 49.3664 207.51C47.3113 208.424 42.4431 211.951 40.0889 214.445L39.4498 215.122ZM100.063 141.353C92.5856 141.473 81.7744 143.38 75.4226 147.325C67.9193 151.986 59.8714 159.786 54.9202 167.196C47.0463 178.981 41.7583 192.885 40.4115 205.343C40.1226 208.015 40.1417 210.169 40.1616 212.449C40.1647 212.762 40.1674 213.076 40.1692 213.395C42.7693 210.873 47.0779 207.814 49.0411 206.941C49.7103 206.643 50.3636 206.352 51.0035 206.066C60.7989 201.693 67.2701 198.803 78.5566 197.98C80.2181 197.858 85.0432 197.395 87.385 196.719C88.0036 196.54 88.4252 196.448 88.7638 196.374C89.4827 196.216 89.7801 196.151 90.8926 195.444C100.365 189.428 109.083 183.294 111.703 174.426C114.619 164.556 109.466 155.489 104.482 146.721L103.792 145.507C103.068 144.227 101.474 142.46 100.063 141.353Z" fill="#002E4C"/>
<path d="M91.1038 195.703C99.9122 190.108 109.314 183.775 112.053 174.507C114.476 166.304 111.08 157.994 106.547 150.279C105.607 150.682 104.767 151.322 104.146 152.065C102.925 153.526 102.368 155.324 101.796 157.068C100.243 161.8 98.2929 166.633 94.3699 170.138C90.447 173.642 84.0429 175.433 79.1241 173.104C78.1211 172.63 77.0619 171.978 75.9529 172.205C74.7769 172.445 74.1498 173.549 73.6803 174.531C71.1881 179.746 68.6958 184.962 66.2036 190.177C64.2918 194.177 61.7237 198.356 60.02 202.551C65.6648 200.339 71.0926 198.844 78.5858 198.297C80.2632 198.174 84.7272 197.553 87.6175 197.34C89.6886 197.188 89.417 196.774 91.1038 195.703Z" fill="url(#paint1_linear_47_168)"/>
<path d="M117.262 169.191C125.105 164.62 133.267 160.474 141.686 156.785C142.13 156.59 142.613 156.392 143.101 156.466C143.669 156.553 144.078 156.981 144.435 157.38C145.271 158.315 146.107 159.251 146.943 160.186C147.46 160.765 148.005 161.414 147.965 162.151C147.935 162.705 147.575 163.197 147.227 163.659C142.697 169.672 138.167 175.686 133.637 181.7C132.802 182.81 131.757 184.032 130.251 184.129C128.456 184.245 127.142 182.722 126.191 181.373C123.772 177.942 121.354 174.51 118.935 171.079C118.262 170.124 117.57 169.119 117.488 167.997L117.262 169.191Z" fill="url(#paint2_linear_47_168)"/>
<path d="M111.575 149.946C110.983 151.131 110.076 152.191 108.947 153.018C108.707 153.193 108.429 153.422 108.496 153.691C108.523 153.796 108.6 153.885 108.675 153.971C110.067 155.576 111.003 157.487 111.374 159.482C111.457 159.923 111.555 160.429 111.991 160.655C112.195 160.761 112.438 160.784 112.674 160.796C113.237 160.825 113.858 160.788 114.274 160.451C114.791 160.033 114.796 159.326 114.73 158.71C114.562 157.136 114.181 155.588 113.801 154.043C113.454 152.639 112.944 151.046 111.469 150.44L111.575 149.946Z" fill="#002E4C"/>
<path d="M139.525 146.516C138.428 151.057 137.712 152.485 136.989 154.399C136.882 154.682 136.082 160.735 135.859 160.959C135.561 161.257 134.233 161.194 133.858 161.414C133.136 161.839 131.979 165.75 129.523 166.729C127.881 167.383 126.356 167.155 124.706 166.516C122.382 165.617 120.112 164.732 117.963 163.54C116.863 162.93 114.986 161.544 114.263 160.592C113.662 159.8 112.956 158.718 112.665 157.8C111.579 154.384 110.903 150.866 112.18 147.502C113.115 145.038 115.26 143.023 117.794 141.701C120.327 140.378 123.232 139.698 126.147 139.332C128.917 138.984 131.837 138.924 134.415 139.887C136.992 140.85 139.135 143.047 139.098 145.517C139.089 146.158 139.35 147.121 140.034 146.908L139.525 146.516Z" fill="#FFD3C5"/>
<path d="M127.504 167.544C126.369 167.544 125.353 167.23 124.514 166.905C122.259 166.033 119.927 165.131 117.707 163.9C116.64 163.308 114.657 161.873 113.864 160.828C113.391 160.204 112.545 158.997 112.201 157.915C111.191 154.737 110.345 150.998 111.724 147.367C112.636 144.961 114.705 142.819 117.549 141.335C119.846 140.136 122.636 139.343 126.08 138.911C129.634 138.465 132.343 138.651 134.604 139.496C137.112 140.433 139.623 142.66 139.581 145.523C139.577 145.743 139.608 145.943 139.653 146.106C139.853 146.154 139.992 146.308 140.007 146.484C140.214 146.474 140.417 146.584 140.489 146.768C140.578 146.989 140.446 147.232 140.195 147.31C140.066 147.35 139.936 147.369 139.81 147.363C139 150.586 138.408 152.085 137.834 153.539C137.704 153.869 137.576 154.194 137.447 154.534C137.414 154.655 137.27 155.61 137.131 156.534C136.491 160.786 136.397 161.064 136.22 161.241C135.937 161.524 135.398 161.587 134.826 161.653C134.599 161.679 134.219 161.723 134.123 161.77C133.98 161.872 133.65 162.476 133.386 162.963C132.596 164.415 131.513 166.403 129.722 167.117C128.946 167.425 128.202 167.544 127.504 167.544ZM129.52 139.526C128.511 139.526 127.416 139.602 126.215 139.753C122.899 140.169 120.225 140.925 118.039 142.066C115.395 143.447 113.476 145.425 112.637 147.636C111.341 151.05 112.158 154.632 113.129 157.685C113.353 158.393 113.913 159.365 114.664 160.355C115.357 161.267 117.202 162.615 118.22 163.18C120.379 164.378 122.678 165.267 124.9 166.127C126.666 166.81 127.99 166.874 129.326 166.342C130.797 165.755 131.833 163.853 132.518 162.594C132.992 161.723 133.255 161.259 133.592 161.061C133.854 160.907 134.247 160.862 134.702 160.81C134.932 160.783 135.298 160.741 135.461 160.687C135.615 160.152 135.963 157.838 136.176 156.422C136.418 154.816 136.484 154.394 136.533 154.265C136.663 153.921 136.792 153.593 136.924 153.26C137.508 151.781 138.11 150.255 138.951 146.851C138.701 146.466 138.61 145.932 138.617 145.513C138.648 143.409 136.843 141.257 134.227 140.28C132.88 139.774 131.344 139.526 129.52 139.526Z" fill="#002E4C"/>
<path d="M140.602 149.509C142.288 150.147 142.32 145.028 142.288 144.62C141.807 138.455 134.902 132.29 125.791 132.29C116.68 132.29 109.293 137.422 109.293 144.407C109.293 147.277 109.913 151.024 110.979 152.698C109.775 153.973 119.592 151.276 122.454 149.512C125.125 147.864 137.743 148.959 140.602 149.509Z" fill="#002E4C"/>
<path d="M114.576 153.714C113.925 152.574 113.982 150.916 114.862 149.368C116.132 147.133 118.635 145.972 120.453 146.777C121.638 147.302 122.239 148.533 122.162 149.946L114.576 153.714Z" fill="#FFD3C5"/>
<path d="M114.576 154.14C114.4 154.14 114.231 154.054 114.146 153.906C113.404 152.606 113.513 150.794 114.432 149.178C115.818 146.736 118.616 145.488 120.669 146.397C121.996 146.984 122.733 148.319 122.643 149.967C122.63 150.201 122.407 150.377 122.138 150.371C121.872 150.36 121.667 150.16 121.681 149.926C121.752 148.624 121.213 147.589 120.237 147.157C118.659 146.459 116.442 147.537 115.293 149.559C114.508 150.94 114.399 152.458 115.006 153.523C115.126 153.733 115.03 153.988 114.793 154.094C114.723 154.125 114.649 154.14 114.576 154.14Z" fill="#002E4C"/>
<path d="M83.7572 151.604C90.1472 149.403 97.7046 148.738 105.079 153.23C112.453 157.721 119.048 166.623 127.695 174.374C128.258 174.878 128.685 175.53 129.412 175.827C129.857 176.009 130.353 176.068 130.84 176.124C140.559 177.255 154.468 178.335 164.085 180.015C165.424 180.249 164.781 180.747 165.048 181.928C165.771 185.117 165.733 185.216 165.868 187.278C165.048 188.943 143.628 192.878 129.886 193.833C128.552 193.926 124.347 193.62 122.661 193.408C120.243 193.103 113.892 190.088 111.823 188.943C103.15 184.148 94.1851 179.692 85.0899 175.55C81.091 173.73 79.2929 171.957 74.7948 172.049C74.0537 172.065 73.0632 171.969 72.9442 171.323C72.8999 171.081 73.0121 170.84 73.1297 170.618C75.4999 166.156 80.9091 163.53 83.8265 159.328C84.8321 157.88 85.5292 156.104 84.9262 154.491C84.4376 153.183 83.3028 151.447 84.6346 150.73C84.5427 151.246 84.2152 151.726 83.7422 152.04L83.7572 151.604Z" fill="url(#paint3_linear_47_168)"/>
<path d="M129.238 194.382C127.433 194.382 124 194.112 122.609 193.936C120.079 193.617 113.648 190.542 111.63 189.426C103.331 184.838 94.3462 180.337 84.9236 176.047C83.9051 175.583 83.0482 175.133 82.2192 174.698C79.8055 173.43 78.0637 172.514 74.802 172.581C74.0524 172.596 73.0415 172.913 72.6599 173.756C72.5858 173.919 72.3754 173.999 72.1904 173.933C72.0053 173.868 71.9152 173.682 71.9893 173.519C72.5019 172.388 73.8163 171.963 74.7855 171.943C78.2488 171.872 80.1663 172.877 82.5889 174.15C83.4081 174.58 84.2557 175.025 85.2546 175.48C94.6951 179.778 103.698 184.288 112.014 188.886C114.166 190.075 120.4 193.013 122.711 193.305C124.48 193.528 128.596 193.815 129.857 193.728C144.463 192.712 164.357 188.764 165.501 187.415L165.478 187.06C165.374 185.418 165.355 185.122 164.694 182.203C164.601 181.792 164.609 181.463 164.615 181.197C164.627 180.689 164.628 180.647 164.014 180.54C157.437 179.392 148.678 178.507 140.951 177.726C137.301 177.357 133.852 177.009 130.792 176.653C130.283 176.594 129.757 176.532 129.26 176.329C128.679 176.091 128.285 175.676 127.903 175.275C127.746 175.109 127.598 174.953 127.438 174.81C124.085 171.805 121.067 168.654 118.147 165.608C113.627 160.891 109.358 156.435 104.874 153.704C98.7369 149.966 91.6761 149.431 83.8887 152.113C83.7023 152.178 83.4933 152.096 83.4205 151.932C83.3482 151.768 83.44 151.583 83.6255 151.519C91.6503 148.756 98.9371 149.315 105.284 153.18C109.847 155.959 114.147 160.446 118.698 165.196C121.609 168.233 124.619 171.374 127.952 174.363C128.133 174.524 128.297 174.697 128.457 174.865C128.803 175.229 129.129 175.573 129.564 175.751C129.96 175.913 130.431 175.968 130.887 176.021C133.941 176.376 137.386 176.724 141.033 177.093C148.774 177.874 157.549 178.761 164.155 179.915C165.279 180.111 165.353 180.556 165.337 181.211C165.331 181.457 165.324 181.736 165.402 182.079C166.074 185.042 166.095 185.383 166.199 187.025L166.232 187.548L166.198 187.618C165.596 188.842 157.542 190.48 152.795 191.347C145.026 192.767 136.258 193.923 129.913 194.364C129.731 194.376 129.502 194.382 129.238 194.382Z" fill="#002E4C"/>
<path d="M124.478 176.051C127.141 175.762 129.942 176.042 132.438 176.922C132.87 177.074 133.058 176.457 132.631 176.307C130.087 175.411 127.191 175.119 124.478 175.413C124.023 175.462 124.017 176.101 124.478 176.051Z" fill="#002E4C"/>
<path d="M129.885 193.408C133.143 193.181 136.833 192.787 140.578 192.296C139.266 189.35 133.82 186.465 126.887 185.331C119.496 184.123 112.873 185.307 110.848 187.986C111.172 188.164 111.499 188.339 111.822 188.518C113.892 189.662 120.243 192.678 122.66 192.982C124.346 193.195 128.551 193.501 129.885 193.408Z" fill="url(#paint4_linear_47_168)"/>
<path d="M150.181 143.74C147.717 147.832 146.623 152.698 144.456 157.163C144.157 157.778 145.251 158.283 145.574 158.889C145.814 159.338 146.245 159.681 146.665 160.01C147.202 160.432 147.739 160.854 148.276 161.275C148.496 161.448 151.608 160.139 152.155 159.787C153.044 159.215 154.823 158.5 155.775 158.013C156.917 157.429 157.47 156.544 156.979 155.462C156.582 154.769 152.163 156.738 150.964 155.798C150.962 152.118 150.96 148.438 150.957 144.758C150.957 144.379 151.108 142.76 150.718 142.92C150.477 143.398 149.714 144.909 149.271 145.257L150.181 143.74Z" fill="#FFD3C5"/>
<path d="M148.321 161.72C148.139 161.72 148.048 161.664 147.956 161.592L146.346 160.327C145.914 159.988 145.424 159.604 145.139 159.069C145.053 158.908 144.855 158.722 144.662 158.542C144.256 158.161 143.7 157.64 144.013 156.994C144.925 155.117 145.657 153.133 146.366 151.216C147.096 149.239 147.844 147.211 148.793 145.304C148.776 145.171 148.83 145.034 148.951 144.938C148.964 144.928 148.981 144.913 149.002 144.893C149.24 144.433 149.49 143.981 149.756 143.54C149.804 143.46 149.876 143.4 149.96 143.361C150.057 143.178 150.163 142.974 150.278 142.746L150.351 142.6L150.515 142.533C150.704 142.456 150.919 142.468 151.087 142.568C151.461 142.787 151.5 143.311 151.449 144.48C151.443 144.598 151.439 144.695 151.439 144.757L151.446 155.563C152.066 155.78 153.556 155.444 154.573 155.215C156.069 154.878 157.058 154.656 157.409 155.269L157.427 155.303C157.978 156.518 157.464 157.64 156.017 158.38C155.663 158.56 155.206 158.768 154.722 158.989C153.905 159.361 152.977 159.783 152.439 160.129C152.1 160.347 151.102 160.789 150.292 161.114C149.145 161.574 148.614 161.72 148.321 161.72ZM149.828 145.339C148.837 147.268 148.077 149.326 147.281 151.48C146.566 153.415 145.827 155.417 144.899 157.33C144.834 157.463 145.116 157.727 145.364 157.96C145.607 158.188 145.859 158.424 146.01 158.707C146.212 159.084 146.605 159.394 146.986 159.693L148.455 160.846C149.113 160.697 151.402 159.745 151.871 159.443C152.469 159.058 153.432 158.62 154.281 158.234C154.754 158.019 155.2 157.815 155.534 157.645C156.518 157.141 156.87 156.499 156.58 155.734C156.257 155.714 155.399 155.908 154.811 156.04C153.183 156.407 151.5 156.786 150.645 156.115L150.483 155.988L150.476 144.758C150.476 144.689 150.48 144.58 150.486 144.448C150.487 144.42 150.489 144.385 150.491 144.345C150.233 144.793 150.016 145.119 149.828 145.339Z" fill="#002E4C"/>
<path d="M172.92 178.963C173.218 178.887 173.57 178.82 173.812 178.992C173.932 179.077 173.999 179.207 174.059 179.332C175.24 181.792 175.568 184.566 174.989 187.188C174.596 187.127 171.751 187.49 166.614 186.499C166.319 186.442 165.166 182.879 165.134 181.964C165.091 180.755 164.953 181.068 166.435 180.609C168.544 179.956 170.771 179.509 172.92 178.963Z" fill="#FFD3C5"/>
<path d="M175.371 187.68L174.905 187.607C174.858 187.602 174.66 187.608 174.469 187.613C173.332 187.644 170.671 187.717 166.51 186.914C166.242 186.862 166.01 186.817 165.312 184.67C165.02 183.771 164.671 182.527 164.652 181.977C164.648 181.867 164.643 181.77 164.639 181.684C164.597 180.813 164.736 180.631 165.629 180.392C165.798 180.347 166.009 180.29 166.275 180.208C167.7 179.767 169.19 179.415 170.632 179.076C171.342 178.908 172.076 178.735 172.787 178.555C173.047 178.489 173.655 178.335 174.114 178.661C174.317 178.805 174.417 178.99 174.502 179.166C175.716 181.696 176.057 184.574 175.461 187.27L175.371 187.68ZM166.883 186.115C170.831 186.862 173.354 186.794 174.439 186.763C174.493 186.762 174.542 186.761 174.587 186.759C175.044 184.33 174.703 181.765 173.615 179.498C173.593 179.453 173.542 179.346 173.51 179.323C173.494 179.311 173.412 179.281 173.053 179.371C172.334 179.554 171.595 179.728 170.88 179.897C169.457 180.232 167.984 180.579 166.593 181.01C166.312 181.097 166.087 181.158 165.908 181.205C165.793 181.236 165.667 181.27 165.592 181.295C165.588 181.375 165.595 181.513 165.601 181.647C165.605 181.736 165.61 181.837 165.614 181.95C165.642 182.72 166.534 185.509 166.883 186.115Z" fill="#002E4C"/>
<path d="M116.38 152.274C116.468 151.256 116.922 150.288 117.738 149.554C118.203 149.135 118.732 148.768 119.394 148.985C119.983 149.178 120.256 149.735 120.508 150.208C120.705 150.58 121.328 150.256 121.132 149.886C120.509 148.716 119.408 147.718 117.934 148.573C116.541 149.381 115.782 150.846 115.658 152.274C115.622 152.684 116.345 152.682 116.38 152.274Z" fill="#002E4C"/>
<defs>
<linearGradient id="paint0_linear_47_168" x1="39.7937" y1="214.244" x2="100.944" y2="153.277" gradientUnits="userSpaceOnUse">
<stop offset="1.70489e-07" stop-color="#4EB9C4"/>
<stop offset="0.9926" stop-color="#06B584"/>
</linearGradient>
<linearGradient id="paint1_linear_47_168" x1="60.0223" y1="202.553" x2="103.603" y2="158.505" gradientUnits="userSpaceOnUse">
<stop offset="1.70489e-07" stop-color="#4EB9C4"/>
<stop offset="0.9926" stop-color="#06B584"/>
</linearGradient>
<linearGradient id="paint2_linear_47_168" x1="117.264" y1="184.137" x2="140.224" y2="158.675" gradientUnits="userSpaceOnUse">
<stop offset="1.70489e-07" stop-color="#4EB9C4"/>
<stop offset="0.9926" stop-color="#06B584"/>
</linearGradient>
<linearGradient id="paint3_linear_47_168" x1="72.9384" y1="193.852" x2="101.272" y2="133.956" gradientUnits="userSpaceOnUse">
<stop offset="1.70489e-07" stop-color="#4EB9C4"/>
<stop offset="0.9926" stop-color="#06B584"/>
</linearGradient>
<linearGradient id="paint4_linear_47_168" x1="110.849" y1="193.425" x2="114.651" y2="180.235" gradientUnits="userSpaceOnUse">
<stop offset="1.70489e-07" stop-color="#4EB9C4"/>
<stop offset="0.9926" stop-color="#06B584"/>
</linearGradient>
</defs>
</svg>
