<svg width="600" height="443" viewBox="0 0 600 443" fill="none" xmlns="http://www.w3.org/2000/svg">
<g clip-path="url(#clip0_84_2071)">
<path d="M479.495 74.8733C438.545 38.5267 380.147 30.5996 346.323 44.3573C285.154 69.2383 291.293 112.789 213.426 119.553C173.699 123.004 142.139 159.136 142.155 208.549C142.194 323.716 293.474 319.019 351.721 317.494C401.776 316.183 479.496 317.494 505.947 274.381C533.282 229.827 529.5 119.256 479.495 74.8733Z" fill="#E3F2FC"/>
<path d="M317.972 404.999C449.5 404.999 556.125 395.933 556.125 384.749C556.125 373.566 449.5 364.5 317.972 364.5C186.444 364.5 79.8193 373.566 79.8193 384.749C79.8193 395.933 186.444 404.999 317.972 404.999Z" fill="#E3F2FC"/>
<path d="M215.344 100.823H34.3885C33.2333 100.823 32.2964 101.805 32.2964 103.018C32.2964 106.248 34.7932 108.868 37.8728 108.868H211.86C214.939 108.868 217.436 106.248 217.436 103.018C217.436 101.805 216.499 100.823 215.344 100.823Z" fill="#547291"/>
<path d="M130.309 102.877H119.423V378.162H130.309V102.877Z" fill="#547291"/>
<path d="M177.287 107.506L174.688 104.479L124.866 151.567L75.0437 104.479L72.4453 107.506L123.146 155.423L124.866 153.419L126.587 155.423L177.287 107.506Z" fill="#547291"/>
<path d="M50.1858 85.7473C48.6721 85.7473 47.4453 87.0348 47.4453 88.6223V103.956H52.9263V88.6223C52.9263 87.0344 51.6994 85.7473 50.1858 85.7473Z" fill="#547291"/>
<path d="M55.6289 95.4507H44.7427C44.4484 95.4507 44.21 95.7008 44.21 96.0095V96.6883C44.21 96.9971 44.4484 97.2476 44.7427 97.2476H55.6289C55.9232 97.2476 56.162 96.9975 56.162 96.6883V96.0095C56.162 95.7008 55.9232 95.4507 55.6289 95.4507Z" fill="#425A73"/>
<path d="M55.6289 91.3376H44.7427C44.4484 91.3376 44.21 91.5878 44.21 91.8965V92.5753C44.21 92.884 44.4484 93.1346 44.7427 93.1346H55.6289C55.9232 93.1346 56.162 92.8845 56.162 92.5753V91.8965C56.162 91.5882 55.9232 91.3376 55.6289 91.3376Z" fill="#425A73"/>
<path d="M99.9724 85.7473C98.4588 85.7473 97.2319 87.0348 97.2319 88.6223V103.956H102.713V88.6223C102.713 87.0344 101.486 85.7473 99.9724 85.7473Z" fill="#547291"/>
<path d="M105.415 95.4507H94.5293C94.235 95.4507 93.9966 95.7008 93.9966 96.0095V96.6883C93.9966 96.9971 94.235 97.2476 94.5293 97.2476H105.415C105.71 97.2476 105.949 96.9975 105.949 96.6883V96.0095C105.948 95.7008 105.709 95.4507 105.415 95.4507Z" fill="#425A73"/>
<path d="M105.415 91.3376H94.5293C94.235 91.3376 93.9966 91.5878 93.9966 91.8965V92.5753C93.9966 92.884 94.235 93.1346 94.5293 93.1346H105.415C105.71 93.1346 105.949 92.8845 105.949 92.5753V91.8965C105.948 91.5882 105.709 91.3376 105.415 91.3376Z" fill="#425A73"/>
<path d="M149.759 85.7473C148.245 85.7473 147.019 87.0348 147.019 88.6223V103.956H152.5V88.6223C152.5 87.0344 151.273 85.7473 149.759 85.7473Z" fill="#547291"/>
<path d="M155.202 95.4507H144.316C144.022 95.4507 143.783 95.7008 143.783 96.0095V96.6883C143.783 96.9971 144.022 97.2476 144.316 97.2476H155.202C155.496 97.2476 155.735 96.9975 155.735 96.6883V96.0095C155.735 95.7008 155.496 95.4507 155.202 95.4507Z" fill="#425A73"/>
<path d="M155.202 91.3376H144.316C144.022 91.3376 143.783 91.5878 143.783 91.8965V92.5753C143.783 92.884 144.022 93.1346 144.316 93.1346H155.202C155.496 93.1346 155.735 92.8845 155.735 92.5753V91.8965C155.735 91.5882 155.496 91.3376 155.202 91.3376Z" fill="#425A73"/>
<path d="M199.546 85.7473C198.032 85.7473 196.805 87.0348 196.805 88.6223V103.956H202.287V88.6223C202.286 87.0344 201.059 85.7473 199.546 85.7473Z" fill="#547291"/>
<path d="M204.989 95.4507H194.103C193.808 95.4507 193.57 95.7008 193.57 96.0095V96.6883C193.57 96.9971 193.808 97.2476 194.103 97.2476H204.989C205.283 97.2476 205.522 96.9975 205.522 96.6883V96.0095C205.522 95.7008 205.283 95.4507 204.989 95.4507Z" fill="#425A73"/>
<path d="M204.989 91.3376H194.103C193.808 91.3376 193.57 91.5878 193.57 91.8965V92.5753C193.57 92.884 193.808 93.1346 194.103 93.1346H204.989C205.283 93.1346 205.522 92.8845 205.522 92.5753V91.8965C205.522 91.5882 205.283 91.3376 204.989 91.3376Z" fill="#425A73"/>
<path d="M147.656 161.118H102.713V230.151H147.656V161.118Z" fill="#8AA6C4"/>
<path d="M107.803 161.118H102.713V230.151H128.93C107.1 213.379 106.277 179.941 107.803 161.118Z" fill="#91AFCF"/>
<path d="M145.246 227.622H105.123V163.646H145.246V227.622ZM105.545 227.18H144.823V164.089H105.545V227.18Z" fill="#547291"/>
<path d="M135.202 193.094L130.584 184.702L125.965 176.31C125.618 175.679 124.75 175.679 124.404 176.31L119.785 184.702L115.166 193.094C114.819 193.725 115.253 194.513 115.947 194.513H125.184H134.421C135.116 194.513 135.549 193.725 135.202 193.094Z" fill="#547291"/>
<path d="M133.886 192.475L125.585 177.39C125.407 177.067 124.963 177.067 124.785 177.39L116.483 192.475C116.305 192.798 116.527 193.202 116.883 193.202H133.487C133.842 193.202 134.064 192.798 133.886 192.475Z" fill="#FFB859"/>
<path d="M127.553 183.086L125.048 182.922L122.871 187.01L124.1 187.091L121.412 192.079L126.597 186.296L125.302 186.211L127.553 183.086Z" fill="white"/>
<path d="M137.307 210.217H113.062C112.411 210.217 111.884 210.771 111.884 211.453V219.944C111.884 220.627 112.411 221.18 113.062 221.18H137.307C137.958 221.18 138.486 220.626 138.486 219.944V211.453C138.486 210.77 137.958 210.217 137.307 210.217Z" fill="#547291"/>
<path d="M137.158 210.881H113.212C112.828 210.881 112.518 211.207 112.518 211.609V219.787C112.518 220.189 112.829 220.515 113.212 220.515H137.158C137.542 220.515 137.852 220.189 137.852 219.787V211.609C137.852 211.207 137.541 210.881 137.158 210.881Z" fill="#B2C7DE"/>
<path d="M136.585 213.705H113.784V214.702H136.585V213.705Z" fill="#547291"/>
<path d="M136.585 216.695H113.784V217.692H136.585V216.695Z" fill="#547291"/>
<path d="M141.894 196.263C142.236 196.032 142.452 195.613 142.409 195.145C142.359 194.592 141.937 194.14 141.41 194.078C140.725 193.998 140.145 194.559 140.145 195.262C140.145 195.682 140.352 196.051 140.665 196.263L140.374 198.8H142.186L141.894 196.263Z" fill="#547291"/>
<path d="M475.834 210.595H472.198C471.727 210.595 471.345 210.996 471.345 211.49V234.72C471.345 235.214 471.727 235.615 472.198 235.615H475.834C476.305 235.615 476.687 235.215 476.687 234.72V211.49C476.687 210.996 476.305 210.595 475.834 210.595Z" fill="#547291"/>
<path d="M476.687 214.256V231.955C479.721 231.955 482.182 229.374 482.182 226.19V220.021C482.182 216.837 479.722 214.256 476.687 214.256Z" fill="#8AA6C4"/>
<path d="M486.268 222.612H484.657V241.68H486.268V222.612Z" fill="#8AA6C4"/>
<path d="M486.268 222.23H481.494V223.673H486.268V222.23Z" fill="#8AA6C4"/>
<path d="M486.31 234.852H484.614C483.809 234.852 483.156 235.536 483.156 236.381V255.562C483.156 256.407 483.81 257.092 484.614 257.092H486.31C487.116 257.092 487.768 256.407 487.768 255.562V236.381C487.768 235.536 487.116 234.852 486.31 234.852Z" fill="#CF493E"/>
<path d="M472.845 160.332H377.541V308.087H472.845V160.332Z" fill="#8AA6C4"/>
<path d="M467.468 302.447V165.972L382.917 165.972V302.447H467.468Z" fill="#6386AB"/>
<path d="M400.55 207.501H399.654V252.657H400.55V207.501Z" fill="#FFB859"/>
<path d="M425.64 207.501H424.744V246.307H425.64V207.501Z" fill="#CF493E"/>
<path d="M438.186 207.501H437.29V254.546H438.186V207.501Z" fill="#4A8921"/>
<path d="M450.905 208.535H450.009V231.023H450.905V208.535Z" fill="#1B4F82"/>
<path d="M413.095 207.501H412.199V260.186H413.095V207.501Z" fill="#1B4F82"/>
<path d="M467.469 165.972H457.215V302.447H467.469V165.972Z" fill="#547291"/>
<path d="M458.929 179.797H390.1C388.215 179.797 386.687 181.4 386.687 183.378V207.227C386.687 209.205 388.215 210.808 390.1 210.808H458.929C460.813 210.808 462.341 209.205 462.341 207.227V183.378C462.342 181.4 460.813 179.797 458.929 179.797Z" fill="#B2C7DE"/>
<path d="M398.837 186.322H398.205V209.326H398.837V186.322Z" fill="#CF493E"/>
<path d="M402 186.322H401.367V209.326H402V186.322Z" fill="#4A8921"/>
<path d="M411.382 186.322H410.75V209.326H411.382V186.322Z" fill="#FFB859"/>
<path d="M414.545 186.322H413.912V209.326H414.545V186.322Z" fill="#1B4F82"/>
<path d="M423.927 186.322H423.295V209.326H423.927V186.322Z" fill="#4A8921"/>
<path d="M427.09 186.322H426.458V209.326H427.09V186.322Z" fill="#1B4F82"/>
<path d="M436.472 186.322H435.84V209.326H436.472V186.322Z" fill="#CF493E"/>
<path d="M439.635 186.322H439.002V209.326H439.635V186.322Z" fill="#1B4F82"/>
<path d="M449.018 186.322H448.386V209.326H449.018V186.322Z" fill="#FFB859"/>
<path d="M452.18 186.322H451.548V209.326H452.18V186.322Z" fill="#4A8921"/>
<path d="M402.997 183.889H397.208C396.873 183.889 396.601 184.174 396.601 184.525V186.902C396.601 187.253 396.873 187.538 397.208 187.538H402.997C403.332 187.538 403.603 187.253 403.603 186.902V184.525C403.603 184.174 403.331 183.889 402.997 183.889Z" fill="#547291"/>
<path d="M415.542 183.889H409.753C409.418 183.889 409.146 184.174 409.146 184.525V186.902C409.146 187.253 409.418 187.538 409.753 187.538H415.542C415.877 187.538 416.148 187.253 416.148 186.902V184.525C416.148 184.174 415.877 183.889 415.542 183.889Z" fill="#547291"/>
<path d="M428.087 183.889H422.298C421.963 183.889 421.691 184.174 421.691 184.525V186.902C421.691 187.253 421.963 187.538 422.298 187.538H428.087C428.422 187.538 428.693 187.253 428.693 186.902V184.525C428.693 184.174 428.422 183.889 428.087 183.889Z" fill="#547291"/>
<path d="M440.632 183.889H434.843C434.508 183.889 434.236 184.174 434.236 184.525V186.902C434.236 187.253 434.508 187.538 434.843 187.538H440.632C440.967 187.538 441.238 187.253 441.238 186.902V184.525C441.238 184.174 440.967 183.889 440.632 183.889Z" fill="#547291"/>
<path d="M453.178 183.889H447.388C447.054 183.889 446.782 184.174 446.782 184.525V186.902C446.782 187.253 447.054 187.538 447.388 187.538H453.178C453.512 187.538 453.784 187.253 453.784 186.902V184.525C453.784 184.174 453.512 183.889 453.178 183.889Z" fill="#547291"/>
<path d="M457.241 275.266H388.453C387.405 275.266 386.555 276.157 386.555 277.256V290.196C386.555 291.296 387.405 292.187 388.453 292.187H457.24C458.288 292.187 459.138 291.296 459.138 290.196V277.256C459.138 276.157 458.289 275.266 457.241 275.266Z" fill="#B2C7DE"/>
<path d="M420.082 278.459H389.247V279.344H420.082V278.459Z" fill="#474F5E"/>
<path d="M420.082 283.284H389.247V284.169H420.082V283.284Z" fill="#474F5E"/>
<path d="M420.082 288.108H389.247V288.993H420.082V288.108Z" fill="#474F5E"/>
<path d="M427.097 289.607V277.846H423.287V289.607H427.097Z" fill="#474F5E"/>
<path d="M423.867 288.998H426.517V278.455H423.867V288.998Z" fill="#8AA6C4"/>
<path d="M433.049 252.187H399.654V253.127H433.049V252.187Z" fill="#FFB859"/>
<path d="M433.138 259.716H412.199V260.656H433.138V259.716Z" fill="#1B4F82"/>
<path d="M450.457 253.605H437.523V254.545H450.457V253.605Z" fill="#4A8921"/>
<path d="M441.997 267.048H434.683V267.988H441.997V267.048Z" fill="#1B4F82"/>
<path d="M450.906 230.312H434.683V231.252H450.906V230.312Z" fill="#1B4F82"/>
<path d="M441.957 245.422H424.728V246.362H441.957V245.422Z" fill="#CF493E"/>
<path d="M433.669 252.187H432.772V281.965H433.669V252.187Z" fill="#FFB859"/>
<path d="M442.445 245.422H441.549V281.964H442.445V245.422Z" fill="#CF493E"/>
<path d="M435.579 230.782H434.683V267.519H435.579V230.782Z" fill="#1B4F82"/>
<path d="M450.905 253.605H450.009V281.965H450.905V253.605Z" fill="#4A8921"/>
<path d="M402.997 205.676H397.208C396.873 205.676 396.601 205.961 396.601 206.312V208.69C396.601 209.041 396.873 209.326 397.208 209.326H402.997C403.332 209.326 403.603 209.041 403.603 208.69V206.312C403.603 205.961 403.331 205.676 402.997 205.676Z" fill="#547291"/>
<path d="M415.542 205.676H409.753C409.418 205.676 409.146 205.961 409.146 206.312V208.69C409.146 209.041 409.418 209.326 409.753 209.326H415.542C415.877 209.326 416.148 209.041 416.148 208.69V206.312C416.148 205.961 415.877 205.676 415.542 205.676Z" fill="#547291"/>
<path d="M428.087 205.676H422.298C421.963 205.676 421.691 205.961 421.691 206.312V208.69C421.691 209.041 421.963 209.326 422.298 209.326H428.087C428.422 209.326 428.693 209.041 428.693 208.69V206.312C428.693 205.961 428.422 205.676 428.087 205.676Z" fill="#547291"/>
<path d="M440.632 205.676H434.843C434.508 205.676 434.236 205.961 434.236 206.312V208.69C434.236 209.041 434.508 209.326 434.843 209.326H440.632C440.967 209.326 441.238 209.041 441.238 208.69V206.312C441.238 205.961 440.967 205.676 440.632 205.676Z" fill="#547291"/>
<path d="M453.178 205.676H447.388C447.054 205.676 446.782 205.961 446.782 206.312V208.69C446.782 209.041 447.054 209.326 447.388 209.326H453.178C453.512 209.326 453.784 209.041 453.784 208.69V206.312C453.784 205.961 453.512 205.676 453.178 205.676Z" fill="#547291"/>
<path d="M434.788 279.317H431.654C431.428 279.317 431.244 279.509 431.244 279.747V287.706C431.244 287.944 431.428 288.136 431.654 288.136H434.788C435.014 288.136 435.198 287.944 435.198 287.706V279.747C435.198 279.509 435.014 279.317 434.788 279.317Z" fill="#8AA6C4"/>
<path d="M433.978 280.257H432.464C432.285 280.257 432.14 280.409 432.14 280.597V286.856C432.14 287.044 432.285 287.196 432.464 287.196H433.978C434.157 287.196 434.302 287.044 434.302 286.856V280.597C434.302 280.409 434.156 280.257 433.978 280.257Z" fill="#474F5E"/>
<path d="M443.406 279.317H440.272C440.046 279.317 439.862 279.509 439.862 279.747V287.706C439.862 287.944 440.046 288.136 440.272 288.136H443.406C443.632 288.136 443.816 287.944 443.816 287.706V279.747C443.816 279.509 443.632 279.317 443.406 279.317Z" fill="#8AA6C4"/>
<path d="M442.596 280.257H441.082C440.903 280.257 440.758 280.409 440.758 280.597V286.856C440.758 287.044 440.903 287.196 441.082 287.196H442.596C442.775 287.196 442.92 287.044 442.92 286.856V280.597C442.92 280.409 442.775 280.257 442.596 280.257Z" fill="#474F5E"/>
<path d="M452.025 279.317H448.89C448.664 279.317 448.48 279.509 448.48 279.747V287.706C448.48 287.944 448.664 288.136 448.89 288.136H452.025C452.25 288.136 452.434 287.944 452.434 287.706V279.747C452.434 279.509 452.25 279.317 452.025 279.317Z" fill="#8AA6C4"/>
<path d="M451.214 280.257H449.7C449.522 280.257 449.376 280.409 449.376 280.597V286.856C449.376 287.044 449.522 287.196 449.7 287.196H451.214C451.393 287.196 451.538 287.044 451.538 286.856V280.597C451.538 280.409 451.393 280.257 451.214 280.257Z" fill="#474F5E"/>
<path d="M452.619 282.913H448.297C448.129 282.913 447.994 283.055 447.994 283.231V283.851C447.994 284.026 448.129 284.169 448.297 284.169H452.619C452.786 284.169 452.922 284.027 452.922 283.851V283.231C452.922 283.056 452.786 282.913 452.619 282.913Z" fill="#4A8921"/>
<path d="M444.158 282.913H439.836C439.669 282.913 439.533 283.055 439.533 283.231V283.851C439.533 284.026 439.669 284.169 439.836 284.169H444.158C444.326 284.169 444.461 284.027 444.461 283.851V283.231C444.461 283.056 444.326 282.913 444.158 282.913Z" fill="#CF493E"/>
<path d="M435.382 282.913H431.06C430.892 282.913 430.757 283.055 430.757 283.231V283.851C430.757 284.026 430.892 284.169 431.06 284.169H435.382C435.549 284.169 435.685 284.027 435.685 283.851V283.231C435.685 283.056 435.549 282.913 435.382 282.913Z" fill="#FFB859"/>
<path d="M325.007 374.701C318.225 374.701 311.449 373.288 305.197 370.443C291.784 364.34 280.67 351.601 275.467 336.366C275.367 336.073 275.497 335.745 275.756 335.632C276.015 335.517 276.307 335.664 276.406 335.958C281.51 350.904 292.413 363.402 305.573 369.389C318.733 375.375 334.264 374.905 347.119 368.128C350.439 366.378 353.664 364.19 356.783 362.074C361.844 358.641 367.078 355.09 372.879 353.294C378.579 351.531 384.587 351.533 390.395 351.543C392.493 351.543 394.663 351.546 396.78 351.465C401.165 351.295 406.658 350.605 410.246 346.747L410.845 346.102C417.676 338.763 424.127 331.831 425.536 321.317C426.463 314.402 426.046 307.751 425.605 300.709C425.345 296.572 425.077 292.293 425.055 287.681C425.054 287.368 425.278 287.112 425.556 287.111C425.557 287.111 425.558 287.111 425.558 287.111C425.835 287.111 426.06 287.363 426.062 287.676C426.083 292.25 426.35 296.509 426.608 300.628C427.054 307.735 427.475 314.448 426.531 321.487C425.071 332.386 418.498 339.449 411.539 346.925L410.94 347.569C407.107 351.692 401.378 352.424 396.815 352.6C394.68 352.683 392.501 352.678 390.394 352.679C384.647 352.667 378.714 352.667 373.146 354.391C367.478 356.144 362.305 359.654 357.302 363.048C354.161 365.179 350.913 367.382 347.546 369.157C340.549 372.845 332.774 374.701 325.007 374.701Z" fill="#474F5E"/>
<path d="M277.831 52.889C211.727 52.1673 172.467 122.946 210.354 187.874H210.332C223.3 207.361 246.808 239.978 248.011 277.096C248.011 277.096 261.408 277.096 275.839 277.096C277.162 277.096 278.492 277.096 279.823 277.096C294.253 277.096 307.65 277.096 307.65 277.096C308.853 239.978 332.362 207.361 345.329 187.874H345.307C383.194 122.946 343.934 52.1673 277.831 52.889Z" fill="#F5BD71"/>
<path d="M277.831 52.889C271.434 52.8193 265.292 53.4262 259.444 54.6255C261.315 54.5332 263.205 54.4875 265.12 54.5083C334.234 53.7538 375.283 127.756 335.669 195.641H335.692C323.531 213.917 302.505 243.24 297.394 277.096C303.525 277.096 307.649 277.096 307.649 277.096C308.852 239.978 332.361 207.361 345.328 187.874H345.306C383.195 122.946 343.934 52.1673 277.831 52.889Z" fill="#FDC01A"/>
<path d="M286.239 271.59L265.583 271.474L265.614 270.338C265.635 269.54 267.015 212.141 258.094 176.717C252.606 177.718 247.328 177.915 243.14 177.296C231.817 175.62 225.793 168.589 223.93 162.569C222.393 157.595 223.329 152.59 226.376 149.506C228.52 147.339 233.576 144.267 243.389 148.013C250.767 150.833 255.942 160.9 259.56 174.133C265.307 172.887 271.154 170.762 275.978 167.835C270.759 164.325 267.011 159.876 265.456 155.009C263.061 147.505 266.218 143.117 268.312 141.168C272.339 137.424 278.824 136.483 283.736 138.928C287.986 141.044 290.211 145.172 290.001 150.551C289.77 156.462 287.065 161.725 281.954 166.193C281.353 166.719 280.724 167.226 280.073 167.716C283.899 169.816 288.344 171.444 293.128 172.401C295.644 172.904 298.118 173.204 300.527 173.308C300.973 171.214 301.421 169.183 301.864 167.227C306.203 148.18 315.194 144.919 318.858 144.401C323.846 143.707 328.788 146.254 331.153 150.77C333.338 154.941 332.757 159.78 329.596 163.717C323.386 171.458 313.531 175.622 302.217 175.568C294.261 213.467 286.453 270.025 286.369 270.633L286.239 271.59ZM267.757 269.265L284.409 269.358C285.47 261.757 292.685 210.776 300.061 175.509C297.67 175.385 295.22 175.079 292.734 174.582C287.262 173.488 282.261 171.597 278.049 169.133C272.818 172.545 266.413 174.944 260.134 176.309C268.6 209.566 267.94 260.556 267.757 269.265ZM235.002 148.473C232.035 148.456 229.592 149.337 227.846 151.105C225.385 153.594 224.657 157.724 225.945 161.884C227.608 167.266 233.077 173.564 243.437 175.097C247.38 175.686 252.359 175.476 257.524 174.537C254.137 162.054 249.369 152.663 242.663 150.1C239.855 149.026 237.276 148.486 235.002 148.473ZM320.566 146.505C320.095 146.503 319.619 146.535 319.141 146.603C312.312 147.567 306.766 155.273 303.926 167.744C303.513 169.55 303.1 171.422 302.688 173.349C313.179 173.288 322.26 169.412 327.979 162.288C330.59 159.032 331.073 155.224 329.3 151.84C327.578 148.553 324.184 146.526 320.566 146.505ZM277.89 139.809C274.896 139.793 271.849 140.846 269.717 142.83C266.776 145.565 265.976 149.641 267.465 154.305C268.928 158.892 272.745 163.169 278.018 166.504C278.931 165.864 279.793 165.192 280.598 164.487C285.229 160.438 287.68 155.719 287.884 150.461C288.058 146.027 286.262 142.643 282.829 140.934C281.326 140.185 279.616 139.819 277.89 139.809Z" fill="white"/>
<path d="M312.11 292.8L311.514 292.875C309.608 293.115 308.173 294.813 308.173 296.828V314.121C308.173 318.786 306.272 323.228 302.947 326.324L291.672 336.829C288.861 339.448 285.227 340.897 281.469 340.897H274.191C270.432 340.897 266.804 339.448 263.988 336.829L252.713 326.324C249.388 323.228 247.487 318.785 247.487 314.121V296.828C247.487 294.813 246.052 293.116 244.145 292.875L243.55 292.8C241.947 292.601 241.037 290.772 241.8 289.277L243.566 285.812C245.629 281.778 246.707 277.273 246.707 272.693V271.085C246.707 269.705 247.773 268.586 249.089 268.586H306.57C307.885 268.586 308.952 269.705 308.952 271.085V272.693C308.952 277.273 310.029 281.778 312.093 285.812L313.864 289.277C314.622 290.771 313.713 292.6 312.11 292.8Z" fill="#8C94A6"/>
<path d="M311.072 297.042H244.59C243.937 297.042 243.407 297.598 243.407 298.283V300.42C243.407 301.105 243.937 301.66 244.59 301.66H311.072C311.725 301.66 312.255 301.104 312.255 300.42V298.283C312.255 297.598 311.725 297.042 311.072 297.042Z" fill="#5F6C7C"/>
<path d="M246.215 278H309.446C309.164 276.482 309.01 274.937 308.973 273.382H246.688C246.651 274.937 246.497 276.482 246.215 278Z" fill="#5F6C7C"/>
<path d="M311.072 305.863H244.59C243.937 305.863 243.407 306.418 243.407 307.103V309.24C243.407 309.925 243.937 310.48 244.59 310.48H311.072C311.725 310.48 312.255 309.924 312.255 309.24V307.103C312.255 306.418 311.725 305.863 311.072 305.863Z" fill="#5F6C7C"/>
<path d="M311.072 314.682H244.59C243.937 314.682 243.407 315.238 243.407 315.923V318.059C243.407 318.744 243.937 319.3 244.59 319.3H311.072C311.725 319.3 312.255 318.744 312.255 318.059V315.923C312.255 315.238 311.725 314.682 311.072 314.682Z" fill="#5F6C7C"/>
<path d="M274.191 340.897H281.47C285.228 340.897 288.861 339.448 291.672 336.829L296.762 332.087H277.99H258.898L263.988 336.829C266.805 339.448 270.433 340.897 274.191 340.897Z" fill="#5F6C7C"/>
<path d="M208.98 126.172C208.98 126.172 211.146 70.6965 273.074 64.2803C273.074 64.2803 218.359 86.3528 208.98 126.172Z" fill="#FDEA21"/>
<path d="M203.691 273.008L203.309 265.971L184.775 251.75C184.775 251.75 177.27 256.836 179.782 261.042C182.466 265.536 198.497 274.099 203.691 273.008Z" fill="#FFD4C2"/>
<path d="M187.771 269.092L195.047 258.339C195.047 258.339 180.025 244.451 173.716 248.798C164.582 255.091 187.771 269.092 187.771 269.092Z" fill="#006F7E"/>
<path d="M202.94 266.029L219.514 263.497L220.629 267.04C217.553 268.496 208.089 274.446 201.619 272.702L202.94 266.029Z" fill="#FFD4C2"/>
<path d="M199.747 357.54C199.747 357.54 199.748 357.544 199.745 357.557C197.859 367.289 195.934 375.029 195.934 375.029L190.461 375.647C190.33 372.413 189.829 365.503 189.539 357.766L189.59 357.634C192.539 358.83 195.927 358.791 199.747 357.54Z" fill="#FFD4C2"/>
<path d="M208.279 380.028C208.284 379.989 208.275 379.955 208.26 379.924C208.302 379.797 208.334 379.66 208.349 379.508C208.44 377.724 206.868 377.126 204.93 376.605C204.768 376.559 204.602 376.516 204.435 376.472C204.28 376.432 204.126 376.393 203.97 376.352C203.788 376.303 203.605 376.255 203.423 376.207C203.202 376.146 202.98 376.084 202.759 376.016C202.597 375.967 202.437 375.918 202.277 375.863C202.152 375.822 202.028 375.778 201.905 375.733C201.728 375.668 201.555 375.599 201.384 375.525C201.218 375.456 201.054 375.379 200.896 375.298C200.765 375.233 200.638 375.165 200.513 375.092C200.429 375.042 200.344 374.989 200.263 374.936C200.082 374.818 199.909 374.692 199.746 374.553C199.631 374.458 199.521 374.358 199.415 374.25C199.316 374.151 199.222 374.046 199.133 373.936C199.072 373.86 199.014 373.783 198.958 373.702C198.816 373.502 198.689 373.283 198.579 373.048C198.478 372.831 198.392 372.598 198.322 372.349C198.316 372.329 198.311 372.306 198.304 372.286C197.528 369.372 194.394 372.449 194.394 372.449C192.245 374.224 191.309 372.673 190.97 371.757C190.851 371.439 190.806 371.197 190.806 371.197C190.774 371.191 190.744 371.186 190.713 371.182C189.24 371.012 189.307 374.002 189.167 374.106L189.166 374.107C188.705 374.536 188.225 376.469 188.563 376.858C188.564 376.859 188.564 376.859 188.565 376.86C188.381 377.093 188.221 379.528 188.5 379.829C189.919 381.365 193.126 380.021 200.065 381.605C207.181 383.227 208.153 380.96 208.279 380.028Z" fill="#234E68"/>
<path d="M165.867 357.282C165.867 357.282 165.867 357.287 165.863 357.3C163.373 367.398 160.946 375.404 160.946 375.404L155.172 375.735C155.206 372.336 155.63 369.667 155.733 361.535C155.733 361.535 161.794 358.373 165.867 357.282Z" fill="#FFD4C2"/>
<path d="M173.631 381.363C173.638 381.323 173.631 381.287 173.616 381.253C173.667 381.122 173.708 380.981 173.732 380.822C173.921 378.956 172.303 378.238 170.298 377.578C170.131 377.521 169.959 377.467 169.786 377.41C169.626 377.36 169.467 377.309 169.305 377.257C169.116 377.195 168.928 377.134 168.739 377.073C168.51 376.997 168.281 376.919 168.052 376.835C167.885 376.774 167.72 376.713 167.556 376.646C167.427 376.596 167.298 376.542 167.172 376.488C166.99 376.41 166.812 376.327 166.636 376.24C166.466 376.158 166.298 376.068 166.137 375.974C166.003 375.898 165.873 375.819 165.746 375.735C165.66 375.678 165.574 375.618 165.492 375.558C165.308 375.423 165.134 375.281 164.97 375.126C164.854 375.019 164.744 374.908 164.639 374.788C164.54 374.679 164.447 374.563 164.359 374.442C164.299 374.359 164.243 374.275 164.188 374.187C164.05 373.968 163.928 373.732 163.826 373.479C163.731 373.246 163.654 372.996 163.593 372.731C163.588 372.709 163.583 372.685 163.577 372.663C162.917 369.562 159.468 372.607 159.468 372.607C157.12 374.344 156.221 372.664 155.913 371.683C155.805 371.343 155.77 371.086 155.77 371.086C155.737 371.078 155.706 371.07 155.674 371.064C154.138 370.8 154.051 373.941 153.898 374.041L153.897 374.043C153.391 374.465 152.786 376.466 153.119 376.893C153.12 376.894 153.121 376.894 153.121 376.895C152.916 377.129 152.62 379.673 152.897 380.005C154.304 381.698 157.739 380.475 164.933 382.538C172.311 384.655 173.45 382.334 173.631 381.363Z" fill="#234E68"/>
<path d="M186.073 332.341C185.26 342.4 188.644 365.161 188.681 369.703C192.457 370.175 196.123 370.116 199.63 369.309C199.594 366.599 201.092 332.868 198.926 323.994C198.893 323.919 186.256 330.048 186.073 332.341Z" fill="#1B4F82"/>
<path d="M168.066 288.226C166.271 301.402 179.834 322.617 186.029 332.948C186.88 334.368 197.494 336.878 198.565 335.453C203.677 328.649 189.803 293.656 184.157 286.471L168.066 288.226Z" fill="#1B4F82"/>
<path d="M186.031 332.952C185.392 343.291 188.644 365.251 188.682 369.703C190.276 369.902 191.852 370.007 193.405 369.997C186.661 362.769 187.806 334.933 187.902 333.331C187.998 331.784 191.141 330.863 191.649 330.931C191.184 330.833 188.471 331.383 185.946 327.322C183.158 322.841 180.706 306.805 180.706 306.805C178.221 307.859 176.642 310.857 175.74 315.05C179.325 322.027 183.359 328.498 186.028 332.948C186.028 332.949 186.031 332.949 186.031 332.952Z" fill="#00446E"/>
<path d="M163.89 331.356C158.735 340.476 157.12 357.816 153.712 364.506C157.516 366.261 161.992 367.856 164.383 367.602C166.764 361.525 180.504 335.267 179.498 328.697C179.5 328.694 178.151 330.892 178.151 330.892C178.152 330.807 170.406 328.646 170.406 328.646L167.737 327.948C166.088 329.156 165.061 329.275 163.89 331.356Z" fill="#1B4F82"/>
<path d="M160.296 283.156C153.275 299.841 165.328 315.567 163.889 331.356C163.73 333.11 175.464 339.687 176.482 338.108C182.832 328.267 180.734 307.465 179.542 288.113L160.296 283.156Z" fill="#1B4F82"/>
<path d="M169.363 247.322C173.206 253.29 177.437 251.846 176.911 247.802C176.447 247.27 176.239 246.633 176.158 245.884C176.052 244.936 176.141 243.815 176.147 242.511C176.149 242.29 176.148 242.062 176.143 241.829L175.621 241.733L174.384 241.506L170.441 240.779C170.433 241.192 170.433 241.63 170.435 242.078C170.432 243.587 170.422 245.205 170.084 246.266C169.928 246.763 169.699 247.138 169.363 247.322Z" fill="#FFD0BD"/>
<path d="M158.382 299.495C159.031 305.146 191.028 300.996 189.006 295.922C181.675 277.527 193.573 250.916 177.607 247.964C177.377 247.922 177.15 247.85 176.914 247.801C176.914 247.801 177.079 249.945 175.873 250.195C172.828 250.828 170.216 248.921 169.363 247.322C168.909 247.462 167.098 247.322 166.618 247.474C150.474 252.588 157.69 294.084 158.382 299.495Z" fill="#006F7E"/>
<path d="M158.381 299.493C158.729 302.517 168.216 304.221 176.497 302.995C183.699 301.928 189.947 298.282 189.005 295.923C185.373 286.807 186.461 275.675 186.543 266.404C186.546 266.231 186.548 266.061 186.546 265.892C186.542 253.497 179.277 248.465 179.07 248.325C179.067 248.322 179.067 248.322 179.067 248.322L177.608 247.964C181.167 251.422 182.572 255.699 183.097 257.965C183.332 258.984 182.838 260.031 181.933 260.475C179.722 261.551 177.937 261.718 176.444 261.475C175.584 261.334 174.899 260.643 174.725 259.746C173.293 252.4 167.416 248.327 166.219 247.608C165.704 247.793 164.84 248.176 164.426 248.47C165.577 249.04 170.759 252.239 172.209 262.781C173.649 273.248 160.103 274.913 156.18 275.347C156.011 286.128 158.06 296.986 158.381 299.493Z" fill="#1B4F82"/>
<path d="M158.742 262.944C157.448 266.988 159.959 283.062 165.006 290.225C171.485 299.419 185.393 294.315 185.393 294.315C185.393 294.315 175.026 295.841 170.565 284.569C166.104 273.297 158.742 262.944 158.742 262.944Z" fill="#CCCCCC"/>
<path d="M167.764 247.393C169.205 248.906 172.611 251.304 175.279 251.03C177.753 250.779 177.976 248.816 177.606 247.964C177.38 247.903 177.149 247.85 176.913 247.801C176.913 247.801 176.969 248.898 176.059 249.765C174.902 250.867 170.215 248.92 169.363 247.321C168.846 247.429 168.343 247.358 167.764 247.393Z" fill="white"/>
<path d="M172.917 284.587L193.658 288.97L193.547 293.681C189.298 294.042 175.63 296.896 168.641 291.936L172.917 284.587Z" fill="#FFD4C2"/>
<path d="M173.002 283.016C172.993 283.007 172.986 282.998 172.979 282.988C172.974 282.997 172.981 283.006 173.002 283.016Z" fill="#F7E9D9"/>
<path d="M168.938 292.152L174.499 285.688L170.379 258.868C170.379 258.868 160.517 256.705 159.353 262.168C158.11 268.005 165.397 289.446 168.938 292.152Z" fill="#FFD4C2"/>
<path d="M160.282 275.158L173.023 271.298C173.023 271.298 172.379 251.282 164.948 251.957C154.641 252.895 160.282 275.158 160.282 275.158Z" fill="#006F7E"/>
<path d="M202.317 288.76C201.975 287.508 198.569 289.299 198 289.085C196.483 288.516 199.404 287.174 198.078 286.185C197.13 285.477 193.657 288.969 193.657 288.969L193.547 293.68C199.985 295.487 202.973 291.168 202.317 288.76Z" fill="#FFD4C2"/>
<path d="M167.721 218.794C167.632 218.374 167.487 217.92 167.24 217.571C167.121 217.403 166.982 217.262 166.81 217.153C166.646 217.05 166.462 217.008 166.272 216.994C166.14 216.985 166.119 217.193 166.241 217.231C166.385 217.276 166.507 217.373 166.616 217.481C166.733 217.596 166.816 217.714 166.896 217.858C167.04 218.12 167.103 218.41 167.168 218.701C166.92 218.554 166.618 218.48 166.345 218.43C165.999 218.368 165.648 218.344 165.297 218.374C164.959 218.402 164.629 218.472 164.309 218.592C163.985 218.714 163.706 218.926 163.42 219.122C163.293 219.21 163.405 219.417 163.539 219.338C163.806 219.179 164.098 219.115 164.395 219.042C164.691 218.97 164.991 218.927 165.295 218.922C165.586 218.917 165.875 218.945 166.159 219.014C166.303 219.048 166.445 219.092 166.584 219.144C166.729 219.198 166.874 219.287 167.025 219.32C167.171 219.352 167.323 219.248 167.385 219.114C167.435 219.134 167.488 219.144 167.54 219.126C167.678 219.08 167.753 218.943 167.721 218.794Z" fill="#873C29"/>
<path d="M171.688 226.342C171.688 226.342 171.688 226.342 174.75 227.256C175.828 227.578 176.847 227.451 177.715 227.152C178.461 226.894 179.095 226.51 179.56 226.172C180.091 225.787 180.4 225.463 180.4 225.463C180.476 225.521 180.552 225.577 180.628 225.632C182.86 227.247 185.256 227.084 187.109 226.69C188.647 226.364 189.906 226.158 189.516 224.134C188.643 219.589 182.013 220.782 182.013 220.782C181.669 220.836 181.306 220.923 180.93 221.038C178.606 221.743 175.783 223.481 173.873 224.777C172.567 225.662 171.688 226.342 171.688 226.342Z" fill="#EA9628"/>
<path d="M164.287 227.185C165.323 224.68 168.017 222.064 172.944 221.942C177.871 221.819 181.96 225.91 182.077 231.079C182.194 236.248 178.33 242.136 173.403 242.258C168.476 242.381 161.135 234.805 164.287 227.185Z" fill="#864527"/>
<path d="M182.599 224.138C182.599 224.138 186.478 231.246 184.958 238.044C184.182 241.512 181.283 245.575 177.183 245.551C170.678 245.513 169.435 241.028 168.849 238.28C167.915 233.905 167.681 229.339 168.371 226.669L182.599 224.138Z" fill="#FFD4C2"/>
<path d="M166.279 233.302C166.85 232.016 168.531 233.681 168.531 233.681L169.328 238.394C165.993 238.48 165.707 234.588 166.279 233.302Z" fill="#FFD4C2"/>
<path d="M166.867 234.299C167.096 234.154 167.448 234.176 167.597 234.433C167.662 234.546 167.52 234.667 167.439 234.559C167.376 234.477 167.27 234.444 167.176 234.485C167.092 234.521 167.027 234.631 166.994 234.717C166.896 234.98 167.039 235.276 167.153 235.506C167.266 235.736 167.41 235.952 167.573 236.146C167.746 236.353 167.972 236.499 168.146 236.702C168.31 236.895 168.066 237.217 167.849 237.099C167.681 237.009 167.549 236.855 167.422 236.712C167.305 236.579 167.197 236.436 167.099 236.288C166.897 235.983 166.72 235.639 166.629 235.278C166.548 234.959 166.56 234.493 166.867 234.299Z" fill="#F2E0D5"/>
<path d="M180.515 227.723C178.802 227.987 177.203 227.831 175.828 227.254C176.311 227.912 176.977 228.421 177.723 228.701C175.392 228.777 172.712 228.73 170.714 227.47C169.973 228.623 169.248 230.314 169.574 231.662C170.122 233.925 169.951 235.169 168.775 235.811C168.104 232.633 164.981 233.325 164.684 228.767C164.417 224.67 167.577 224.008 167.577 224.008C167.577 224.008 168.233 220.468 171.999 219.427C174.59 218.71 177.826 219.175 180.345 220.191C183.796 221.584 186.108 226.862 180.515 227.723Z" fill="#864527"/>
<path d="M163.034 230.869C163.107 231.031 163.187 231.192 163.272 231.356C163.433 231.664 163.61 231.976 163.805 232.291C165.26 232.604 167.672 230.849 170.134 228.521C170.136 228.518 170.136 228.518 170.136 228.518C171.469 227.258 172.814 225.828 174.035 224.466C175.992 222.286 178.988 221.473 181.168 220.75C181.552 220.62 181.926 220.513 182.287 220.432C182.287 220.432 182.051 220.036 181.587 219.463C181.455 219.3 181.304 219.121 181.136 218.933C178.995 216.56 173.925 212.706 166.408 217.839C166.228 217.963 166.043 218.092 165.859 218.23C164.225 219.436 162.518 221.249 162.06 225.438C161.881 227.059 162.106 228.884 163.034 230.869Z" fill="#FFB859"/>
<path d="M163.034 230.869C163.106 231.031 163.187 231.192 163.272 231.356C163.433 231.664 163.61 231.976 163.805 232.291C165.26 232.604 167.672 230.849 170.134 228.521C170.136 228.518 170.136 228.518 170.136 228.518C170.136 228.518 167.482 229.796 164.979 225.687C163.312 222.967 165.858 218.229 165.858 218.229C164.224 219.436 162.517 221.249 162.059 225.438C161.881 227.059 162.106 228.884 163.034 230.869Z" fill="#E6E6E6"/>
<path d="M174.125 226.032L177.051 226.298L177.135 225.372L174.208 225.106L174.125 226.032Z" fill="#92C120"/>
<path d="M169.042 226.402C169.042 226.402 170.108 229.943 174.105 228.85C178.101 227.756 184.348 221.521 186.899 222.007C189.451 222.494 190.48 224.63 187.967 226.546C187.967 226.546 188.852 226.479 189.658 225.484C190.464 224.489 190.132 221.75 186.506 220.67C184.218 219.989 182.392 220.319 182.392 220.319C176.851 220.488 172.946 223.851 169.042 226.402Z" fill="#FFB859"/>
<path d="M163.034 230.869C163.106 231.031 163.186 231.192 163.272 231.356C165.568 230.831 167.171 229.6 169.311 226.881C174.402 220.406 179.085 219.419 181.587 219.462C181.455 219.299 181.303 219.121 181.135 218.933C178.436 219.023 173.835 220.283 168.912 226.548C166.795 229.242 165.29 230.393 163.034 230.869Z" fill="white"/>
<path d="M223.702 262.05C222.989 260.418 222.215 263.268 220.429 262.656C220.24 262.266 219.958 260.633 219.56 261.031C218.625 261.963 218.354 263.596 217.751 264.542L219.455 267.369C221.203 267.115 225.016 265.053 223.702 262.05Z" fill="#FFD4C2"/>
<path d="M221.271 252.566L230.219 253.02C230.866 253.052 231.366 253.63 231.335 254.309L230.562 271.105C230.53 271.784 229.98 272.308 229.333 272.275L220.385 271.822C219.738 271.789 219.238 271.212 219.269 270.533L220.042 253.737C220.074 253.057 220.624 252.534 221.271 252.566Z" fill="#EA9628"/>
<path d="M221.532 253.092L229.911 253.517C230.446 253.544 230.859 254.021 230.833 254.582L230.088 270.782C230.062 271.343 229.607 271.776 229.072 271.749L220.693 271.325C220.158 271.297 219.745 270.82 219.771 270.259L220.516 254.059C220.542 253.498 220.997 253.065 221.532 253.092Z" fill="#425A73"/>
<path d="M220.517 254.032L219.769 270.287C219.744 270.832 220.146 271.297 220.666 271.323L229.098 271.75C229.618 271.776 230.061 271.355 230.086 270.809L230.11 270.276L223.238 269.928C222.137 269.872 221.288 268.89 221.341 267.736L222.014 253.117L221.505 253.091C220.985 253.064 220.542 253.487 220.517 254.032Z" fill="#D4DAE6"/>
<path d="M221.944 262.316C222.184 262.022 222.461 261.762 222.767 261.542C222.813 261.507 222.861 261.474 222.91 261.444C223.222 261.237 223.559 261.073 223.915 260.957C223.971 260.94 224.026 260.923 224.081 260.908C224.468 260.8 224.875 260.747 225.293 260.761C225.32 260.761 225.349 260.762 225.378 260.764C225.407 260.765 225.436 260.767 225.464 260.77C225.883 260.799 226.282 260.892 226.658 261.039C226.712 261.059 226.763 261.081 226.817 261.104C227.161 261.256 227.481 261.453 227.773 261.69C227.819 261.725 227.864 261.763 227.906 261.803C228.19 262.052 228.442 262.339 228.655 262.656C228.69 262.705 228.722 262.755 228.75 262.805L228.607 262.903L227.979 263.336C227.936 263.353 227.885 263.334 227.867 263.294C227.85 263.259 227.857 263.215 227.885 263.186L228.512 262.755C228.31 262.452 228.07 262.178 227.798 261.943L227.1 262.854C227.07 262.89 227.018 262.895 226.984 262.864C226.95 262.834 226.942 262.781 226.967 262.743L227.665 261.83C227.389 261.604 227.085 261.417 226.756 261.273L226.494 261.997C226.471 262.039 226.423 262.056 226.383 262.038C226.346 262.02 226.324 261.977 226.335 261.933L226.597 261.206C226.24 261.066 225.856 260.976 225.456 260.949L225.402 262.118C225.395 262.163 225.356 262.197 225.313 262.195C225.27 262.192 225.235 262.155 225.232 262.11L225.285 260.94C224.885 260.926 224.496 260.977 224.127 261.08C224.191 261.331 224.257 261.58 224.322 261.83C224.331 261.877 224.311 261.925 224.274 261.941C224.232 261.961 224.173 261.934 224.155 261.878L223.961 261.131C223.62 261.241 223.301 261.397 223.005 261.594C223.208 261.919 223.412 262.247 223.616 262.573C223.636 262.612 223.631 262.658 223.604 262.686C223.572 262.718 223.508 262.716 223.473 262.67L222.862 261.692C222.57 261.9 222.306 262.148 222.077 262.429C222.271 262.593 222.467 262.757 222.662 262.921C222.697 262.961 222.696 263.021 222.662 263.054C222.635 263.081 222.589 263.084 222.554 263.061L221.969 262.567L221.835 262.454C221.868 262.407 221.904 262.361 221.944 262.316Z" fill="#1B4F82"/>
<path d="M229.266 260.091L221.565 259.693C221.336 259.681 221.158 259.514 221.167 259.32L221.341 255.665C221.35 255.471 221.543 255.323 221.772 255.334L229.473 255.733C229.702 255.745 229.88 255.912 229.87 256.105L229.697 259.76C229.687 259.955 229.495 260.103 229.266 260.091Z" fill="#1B4F82"/>
<path d="M221.733 259.065L221.88 255.976C221.884 255.885 221.975 255.815 222.082 255.821L229.118 256.185C229.226 256.191 229.309 256.269 229.305 256.36L229.158 259.45C229.153 259.541 229.063 259.61 228.956 259.605L221.92 259.241C221.812 259.235 221.729 259.157 221.733 259.065Z" fill="white"/>
<path d="M226.056 256.764C226.062 256.679 226.189 256.685 226.183 256.771C226.162 257.03 226.149 257.289 226.142 257.548C226.14 257.634 226.012 257.628 226.015 257.542C226.022 257.282 226.036 257.023 226.056 256.764Z" fill="#112F3E"/>
<path d="M225.031 256.711C225.037 256.625 225.164 256.631 225.158 256.717C225.138 256.976 225.124 257.235 225.117 257.495C225.115 257.581 224.988 257.574 224.99 257.488C224.997 257.229 225.01 256.97 225.031 256.711Z" fill="#112F3E"/>
<path d="M225.999 257.972C226.006 257.887 226.133 257.893 226.126 257.978C226.106 258.237 226.092 258.497 226.085 258.756C226.083 258.842 225.956 258.835 225.958 258.75C225.965 258.49 225.979 258.231 225.999 257.972Z" fill="#112F3E"/>
<path d="M224.942 257.917C224.949 257.832 225.076 257.838 225.069 257.923C225.049 258.182 225.036 258.442 225.029 258.701C225.026 258.787 224.899 258.78 224.901 258.695C224.908 258.435 224.922 258.176 224.942 257.917Z" fill="#112F3E"/>
<path d="M225.143 257.681C225.398 257.697 225.653 257.714 225.908 257.73C225.983 257.734 225.979 257.856 225.905 257.851C225.65 257.835 225.395 257.819 225.14 257.803C225.065 257.798 225.068 257.677 225.143 257.681Z" fill="#112F3E"/>
<path d="M228.158 257.834C228.413 257.85 228.669 257.866 228.923 257.883C228.998 257.887 228.994 258.009 228.92 258.004C228.665 257.988 228.41 257.972 228.154 257.955C228.08 257.951 228.084 257.829 228.158 257.834Z" fill="#112F3E"/>
<path d="M225.09 258.806C225.345 258.822 225.6 258.839 225.855 258.855C225.93 258.859 225.926 258.981 225.852 258.976C225.597 258.96 225.341 258.944 225.087 258.928C225.012 258.923 225.015 258.802 225.09 258.806Z" fill="#112F3E"/>
<path d="M225.201 256.453C225.456 256.469 225.712 256.486 225.966 256.502C226.041 256.506 226.037 256.628 225.963 256.623C225.708 256.607 225.452 256.591 225.197 256.575C225.123 256.57 225.127 256.449 225.201 256.453Z" fill="#112F3E"/>
<path d="M227.616 256.843C227.622 256.758 227.749 256.764 227.743 256.85C227.723 257.109 227.709 257.368 227.702 257.627C227.7 257.713 227.573 257.707 227.575 257.621C227.582 257.362 227.596 257.102 227.616 256.843Z" fill="#112F3E"/>
<path d="M226.59 256.79C226.597 256.705 226.724 256.711 226.717 256.797C226.697 257.056 226.684 257.315 226.676 257.574C226.674 257.66 226.547 257.654 226.549 257.568C226.556 257.308 226.57 257.049 226.59 256.79Z" fill="#112F3E"/>
<path d="M227.559 258.051C227.565 257.966 227.692 257.972 227.686 258.058C227.665 258.316 227.652 258.576 227.645 258.835C227.643 258.921 227.515 258.914 227.518 258.829C227.525 258.569 227.538 258.31 227.559 258.051Z" fill="#112F3E"/>
<path d="M226.502 257.996C226.508 257.911 226.636 257.917 226.629 258.003C226.609 258.261 226.595 258.521 226.588 258.78C226.586 258.866 226.459 258.86 226.461 258.774C226.468 258.514 226.482 258.255 226.502 257.996Z" fill="#112F3E"/>
<path d="M226.65 258.885C226.905 258.901 227.16 258.917 227.415 258.934C227.489 258.938 227.486 259.06 227.411 259.055C227.156 259.039 226.901 259.023 226.646 259.007C226.572 259.002 226.576 258.881 226.65 258.885Z" fill="#112F3E"/>
<path d="M226.761 256.532C227.016 256.548 227.272 256.564 227.527 256.581C227.601 256.585 227.597 256.707 227.523 256.702C227.268 256.686 227.013 256.67 226.758 256.653C226.683 256.649 226.686 256.527 226.761 256.532Z" fill="#112F3E"/>
<path d="M223.57 256.635C223.577 256.55 223.704 256.556 223.697 256.641C223.677 256.9 223.663 257.16 223.656 257.419C223.654 257.505 223.527 257.498 223.529 257.413C223.536 257.153 223.55 256.894 223.57 256.635Z" fill="#112F3E"/>
<path d="M222.456 257.788C222.463 257.702 222.59 257.708 222.584 257.794C222.563 258.053 222.55 258.313 222.543 258.572C222.54 258.658 222.413 258.651 222.416 258.565C222.423 258.306 222.437 258.047 222.456 257.788Z" fill="#112F3E"/>
<path d="M223.506 257.842C223.513 257.757 223.64 257.763 223.633 257.849C223.613 258.108 223.6 258.367 223.592 258.626C223.59 258.712 223.463 258.706 223.465 258.62C223.472 258.361 223.486 258.101 223.506 257.842Z" fill="#112F3E"/>
<path d="M222.658 257.552C222.913 257.568 223.168 257.584 223.422 257.601C223.497 257.605 223.493 257.727 223.419 257.722C223.164 257.706 222.909 257.69 222.654 257.673C222.58 257.669 222.583 257.548 222.658 257.552Z" fill="#112F3E"/>
<path d="M222.605 258.677C222.86 258.693 223.115 258.709 223.37 258.726C223.444 258.73 223.441 258.852 223.366 258.847C223.111 258.831 222.856 258.815 222.601 258.798C222.527 258.794 222.53 258.673 222.605 258.677Z" fill="#112F3E"/>
<path d="M222.716 256.324C222.971 256.34 223.226 256.356 223.481 256.373C223.555 256.377 223.552 256.499 223.477 256.494C223.222 256.478 222.967 256.462 222.712 256.445C222.638 256.441 222.641 256.319 222.716 256.324Z" fill="#112F3E"/>
<path d="M224.157 258.661C224.183 258.638 224.213 258.625 224.248 258.627L224.289 258.629C224.322 258.631 224.355 258.648 224.377 258.673C224.389 258.685 224.397 258.7 224.401 258.716C224.408 258.733 224.411 258.75 224.41 258.768C224.406 258.802 224.394 258.837 224.368 258.86C224.342 258.883 224.311 258.896 224.277 258.894L224.235 258.892C224.203 258.89 224.169 258.874 224.148 258.848C224.136 258.835 224.128 258.821 224.124 258.805C224.117 258.788 224.113 258.771 224.115 258.753C224.118 258.719 224.131 258.684 224.157 258.661Z" fill="#112F3E"/>
<path d="M222.425 266.289C222.353 267.85 223.501 269.176 224.988 269.251C226.476 269.327 227.74 268.123 227.812 266.562C227.884 265.001 226.736 263.675 225.248 263.6C223.761 263.525 222.496 264.729 222.425 266.289Z" fill="#1B4F82"/>
<path d="M225.011 268.756C226.235 268.818 227.28 267.823 227.339 266.538C227.398 265.253 226.45 264.157 225.225 264.096C224.001 264.034 222.956 265.028 222.897 266.313C222.838 267.598 223.786 268.694 225.011 268.756Z" fill="white"/>
<path d="M223.836 266.58C223.824 267.296 224.367 267.888 225.048 267.907L225.049 267.904C225.733 267.964 226.337 267.43 226.395 266.712C226.453 265.993 225.943 265.36 225.259 265.299L225.273 265.119C226.053 265.188 226.633 265.91 226.567 266.727C226.502 267.537 225.827 268.141 225.058 268.086V268.089C224.276 268.076 223.65 267.397 223.663 266.577C223.676 265.756 224.323 265.1 225.105 265.113L225.102 265.295C224.415 265.283 223.847 265.859 223.836 266.58Z" fill="#1B4F82"/>
<path d="M225.044 264.835C225.071 264.786 225.138 264.757 225.21 264.763C225.276 264.768 225.333 264.803 225.353 264.851C225.342 265.088 225.331 265.325 225.321 265.562C225.299 265.612 225.232 265.644 225.159 265.64C225.089 265.635 225.028 265.597 225.012 265.546C225.022 265.309 225.033 265.072 225.044 264.835Z" fill="#1B4F82"/>
<path d="M220.762 270.141C220.744 270.535 221.033 270.87 221.409 270.889C221.784 270.908 222.103 270.604 222.121 270.21C222.139 269.816 221.85 269.481 221.474 269.463C221.098 269.444 220.78 269.748 220.762 270.141Z" fill="#1B4F82"/>
<path d="M222.994 270.255C222.976 270.649 223.265 270.983 223.641 271.002C224.017 271.021 224.336 270.717 224.354 270.323C224.372 269.929 224.082 269.595 223.707 269.576C223.331 269.557 223.012 269.861 222.994 270.255Z" fill="#CF493E"/>
<path d="M220.267 261.125C219.795 260.181 219.005 261.772 219.005 261.772L219.572 263.64C219.572 263.64 220.738 262.069 220.267 261.125Z" fill="#FFD4C2"/>
<path d="M464.955 285.635L465.324 278.83L483.247 265.078C483.247 265.078 490.505 269.996 488.075 274.063C485.479 278.41 469.977 286.69 464.955 285.635Z" fill="#FFD4C2"/>
<path d="M480.349 281.848L473.313 271.45C473.313 271.45 487.84 258.02 493.941 262.224C502.774 268.309 480.349 281.848 480.349 281.848Z" fill="#006F7E"/>
<path d="M465.798 278.897L449.617 278.166L448.876 281.689C451.971 282.774 461.632 287.524 467.693 285.18L465.798 278.897Z" fill="#FFD4C2"/>
<path d="M467.102 358.984C467.102 358.984 467.102 358.987 467.105 358.997C469.146 366.66 471.109 372.729 471.109 372.729L475.517 372.892C475.444 370.3 475.082 368.27 474.89 362.071C474.89 362.071 470.223 359.753 467.102 358.984Z" fill="#FFD4C2"/>
<path d="M461.519 377.47C461.512 377.439 461.518 377.411 461.529 377.385C460.692 373.601 468.669 374.869 469.064 370.68C470.25 366.968 474.009 374.293 474.996 369.356C476.203 368.993 476.356 371.501 476.465 371.582C476.857 371.897 477.35 373.415 477.098 373.746C478.465 378.628 474.474 375.954 468.169 378.233C462.572 379.959 461.671 378.207 461.519 377.47Z" fill="#00446E"/>
<path d="M504.045 367.719C504.045 367.719 504.049 367.72 504.059 367.719C511.622 367.12 517.679 366.289 517.679 366.289L518.694 361.787C516.257 361.354 514.29 361.329 508.457 360.312C508.457 360.311 505.375 364.659 504.045 367.719Z" fill="#FFD4C2"/>
<path d="M520.231 377.084C520.201 377.084 520.176 377.073 520.154 377.057C516.453 377.176 519.201 369.219 515.362 367.992C512.125 366.044 519.708 363.612 515.287 361.63C515.183 360.318 517.558 360.651 517.655 360.554C518.026 360.213 519.543 360.003 519.802 360.328C524.633 359.878 521.352 363.46 522.247 370.392C522.765 376.488 520.951 377.072 520.231 377.084Z" fill="#00446E"/>
<path d="M468.956 368.976L475.518 365.569C473.897 354.637 469.491 345.42 465.052 337.039C465.052 337.039 474.659 335.101 483.68 330.414C494.071 325.019 503.689 315.987 496.936 302.073L479.495 309.038C479.495 309.038 450.265 320.74 449.153 331.528C448.098 341.761 460.044 352.541 468.956 368.976Z" fill="#1B4F82"/>
<path d="M460.857 334.517C477.98 330.161 474.357 320.344 485.224 316.73L483.679 330.413C480.015 332.317 476.254 333.768 473.079 334.82C468.439 336.356 465.052 337.039 465.052 337.039C465.053 337.04 465.053 337.041 465.054 337.042L465.051 337.042C465.159 337.242 465.263 337.444 465.372 337.649C465.391 337.684 465.41 337.721 465.429 337.756C469.737 345.946 473.942 354.947 475.517 365.569L472.559 367.105C472.04 358.234 466.635 345.434 460.096 336.757C459.512 335.98 459.939 334.751 460.857 334.517Z" fill="#C5CEE0"/>
<path d="M469.945 375.491C478.639 381.307 498.452 368.475 510.704 367.856L512.277 359.591C499.188 357.087 490.897 356.067 483.312 360.162C485.438 358.77 512.028 340.875 506.497 319.282C506.39 318.838 506.263 318.4 506.119 317.958L488.527 313.611C488.527 313.611 457.234 366.988 469.945 375.491Z" fill="#1B4F82"/>
<path d="M506.612 275.201C506.612 264.106 501.699 265.222 495.196 261.006C495.196 261.011 491.649 261.409 488.765 261.407C483.316 263.336 476.587 272.7 479.304 281.163C483.403 293.933 479.093 302.413 478.888 310.129C478.853 311.523 477.977 312.42 479.344 312.478C498.331 314.285 504.666 316.199 505.849 311.48C506.75 307.885 506.612 289.594 506.612 275.201Z" fill="#006F7E"/>
<path d="M506.612 329.181L476.309 312.921C476.309 312.921 481.94 296.526 478.886 283.692C478.886 283.692 478.01 279.746 478.858 274.852C478.952 274.303 479.07 273.739 479.212 273.171C479.231 273.091 479.254 273.012 479.273 272.933C479.282 272.908 479.287 272.879 479.297 272.854C480.857 267.366 485.098 262.704 488.765 261.409C488.416 261.997 488.19 262.526 488.062 262.991C486.63 264.321 482.666 268.612 482.214 275.549C481.658 284.042 489.985 280.27 491.229 273.897C492.365 268.088 495.451 264.049 499.349 263.248C500.395 263.752 501.357 264.212 502.219 264.746C499.603 265.008 493.435 267.248 492.695 282.357C492.695 282.357 492.257 296.516 506.559 297.91C506.559 297.91 506.559 297.915 506.564 297.93C506.564 297.935 506.564 297.935 506.564 297.94C506.692 298.8 509.708 319.451 506.612 329.181Z" fill="#1B4F82"/>
<path d="M478.5 304.403C478.5 304.407 478.5 304.407 478.5 304.411C478.72 307.482 496.087 299.466 500.066 302.481C502.167 304.077 503.481 307.679 503.938 312.173C504.392 316.634 504.007 321.97 502.72 327.092V327.096C502.233 329.042 501.618 330.957 500.865 332.782C497.208 341.684 484.631 352.368 482.561 360.311C482.368 361.04 485.311 360.383 485.995 360.166C495.299 357.208 502.732 359.267 512.189 360.057L512.278 359.594C499.19 357.087 490.896 356.067 483.313 360.162C485.181 358.941 505.978 344.945 507.192 326.894C507.196 326.882 507.196 326.87 507.2 326.858C507.234 326.685 507.269 326.511 507.3 326.334C507.369 325.955 507.43 325.569 507.488 325.178C507.515 324.98 507.546 324.779 507.568 324.581L507.637 324.049C507.645 323.973 507.653 323.9 507.66 323.828C507.676 323.67 507.695 323.514 507.71 323.352C507.749 322.973 507.783 322.59 507.814 322.204C507.83 321.954 507.849 321.7 507.864 321.446C507.879 321.228 507.891 321.011 507.902 320.793C507.925 320.37 507.944 319.942 507.96 319.511C507.967 319.269 507.971 319.032 507.979 318.79C507.983 318.576 507.986 318.359 507.99 318.141C507.994 317.92 507.998 317.698 507.998 317.472C508.002 317.246 508.002 317.021 508.002 316.799C508.002 307.78 506.649 298.515 506.565 297.939C506.565 297.935 506.565 297.935 506.565 297.931C506.557 297.915 506.557 297.91 506.557 297.91C498.344 297.108 494.99 292.095 493.627 287.973C493.112 288.182 492.415 288.438 492.447 288.988C492.786 294.693 481.283 303.589 478.588 303.968L478.584 303.972V303.976C478.554 304.121 478.527 304.262 478.5 304.403Z" fill="#C5CEE0"/>
<path d="M497.003 262.036C492.663 267.865 488.233 265.51 489.045 261.406C489.556 260.895 489.905 260.557 490.039 259.795C490.212 258.832 490.272 258.009 490.354 256.673C490.367 256.446 490.384 256.212 490.404 255.974L490.945 255.915L492.227 255.774L496.316 255.322C496.297 255.746 496.267 256.194 496.235 256.654C496.136 258.2 496.037 259.859 496.313 260.971C496.44 261.49 496.671 261.822 497.003 262.036Z" fill="#FFD0BD"/>
<path d="M498.293 262.686C496.715 264.128 493.848 266.267 491.133 265.789C488.615 265.348 487.998 262.988 488.147 261.656C488.779 261.271 488.799 261.439 489.045 261.406C489.045 261.406 489.66 264.088 490.873 264.455C492.418 264.927 496.022 263.611 497.003 262.036C497.459 262.213 497.874 262.474 498.293 262.686Z" fill="white"/>
<path d="M495.798 238.385C495.798 238.385 495.798 238.385 492.642 239.49C491.531 239.879 490.461 239.797 489.542 239.526C488.752 239.294 488.072 238.923 487.572 238.593C487 238.217 486.663 237.895 486.663 237.895C486.587 237.958 486.511 238.021 486.433 238.083C484.176 239.877 481.666 239.825 479.715 239.504C478.094 239.24 476.771 239.086 477.088 236.955C477.797 232.167 484.771 233.088 484.771 233.088C485.133 233.127 485.516 233.2 485.913 233.301C488.37 233.923 491.395 235.6 493.447 236.859C494.85 237.72 495.798 238.385 495.798 238.385Z" fill="#EA9628"/>
<path d="M503.561 238.904C502.368 236.34 499.44 233.741 494.29 233.855C489.142 233.968 485.055 238.439 485.163 243.84C485.271 249.242 489.566 255.199 494.715 255.086C499.865 254.972 507.191 246.704 503.561 238.904Z" fill="#613B2A"/>
<path d="M484.309 236.619C484.309 236.619 479.99 244.696 481.88 251.718C482.845 255.3 485.948 259.043 490.226 258.817C497.015 258.459 498.804 253.607 499.293 250.71C500.073 246.097 500.114 241.319 499.275 238.566L484.309 236.619Z" fill="#FFDBCC"/>
<path d="M501.755 245.386C501.101 244.072 499.42 245.893 499.42 245.893L498.798 250.852C502.284 250.778 502.408 246.701 501.755 245.386Z" fill="#FFDBCC"/>
<path d="M500.57 247.845C500.34 247.714 499.995 247.752 499.861 248.011C499.802 248.124 499.946 248.236 500.021 248.127C500.079 248.043 500.181 248.006 500.275 248.042C500.359 248.074 500.428 248.178 500.463 248.261C500.57 248.513 500.443 248.81 500.341 249.041C500.239 249.272 500.107 249.489 499.956 249.687C499.795 249.898 499.579 250.051 499.418 250.258C499.265 250.454 499.518 250.758 499.726 250.633C499.886 250.537 500.009 250.38 500.127 250.234C500.237 250.099 500.337 249.954 500.426 249.804C500.611 249.496 500.769 249.151 500.844 248.794C500.91 248.477 500.879 248.021 500.57 247.845Z" fill="#F2E0D5"/>
<path d="M486.644 240.26C488.444 240.452 490.106 240.211 491.516 239.541C491.041 240.252 490.368 240.816 489.603 241.145C492.038 241.11 494.834 240.93 496.864 239.516C497.689 240.684 498.521 242.414 498.241 243.837C497.77 246.226 498.004 247.517 499.26 248.129C499.819 244.778 503.11 245.348 503.217 240.575C503.313 236.285 499.985 235.749 499.985 235.749C499.985 235.749 499.143 232.085 495.164 231.183C492.428 230.562 489.07 231.205 486.486 232.39C482.945 234.013 480.767 239.636 486.644 240.26Z" fill="#613B2A"/>
<path d="M505.033 242.688C504.965 242.861 504.889 243.033 504.807 243.207C504.653 243.537 504.482 243.872 504.292 244.211C502.787 244.609 500.191 242.894 497.517 240.585C497.514 240.582 497.514 240.582 497.514 240.582C496.067 239.331 494.599 237.904 493.263 236.542C491.124 234.362 487.96 233.661 485.653 233.012C485.246 232.895 484.851 232.802 484.47 232.734C484.47 232.734 484.698 232.31 485.157 231.689C485.288 231.512 485.438 231.318 485.606 231.114C487.735 228.532 492.856 224.26 500.931 229.251C501.125 229.371 501.324 229.497 501.522 229.631C503.281 230.811 505.144 232.62 505.809 236.971C506.067 238.655 505.914 240.571 505.033 242.688Z" fill="#FFB859"/>
<path d="M505.033 242.688C504.964 242.861 504.888 243.033 504.807 243.207C504.653 243.537 504.481 243.872 504.292 244.211C502.787 244.609 500.191 242.894 497.517 240.585C497.514 240.582 497.514 240.582 497.514 240.582C497.514 240.582 500.341 241.785 502.771 237.373C504.39 234.452 501.522 229.631 501.522 229.631C503.281 230.81 505.144 232.62 505.809 236.97C506.067 238.654 505.913 240.571 505.033 242.688Z" fill="#EA9628"/>
<path d="M493.24 238.181L490.196 238.603L490.068 237.641L493.112 237.219L493.24 238.181Z" fill="#92C120"/>
<path d="M498.563 238.319C498.563 238.319 497.608 242.068 493.387 241.122C489.166 240.177 482.367 233.974 479.725 234.606C477.084 235.239 476.104 237.52 478.813 239.396C478.813 239.396 477.886 239.37 477 238.37C476.114 237.371 476.34 234.495 480.077 233.191C482.434 232.368 484.356 232.623 484.356 232.623C490.147 232.528 494.374 235.848 498.563 238.319Z" fill="#FFB859"/>
<path d="M505.033 242.688C504.965 242.861 504.889 243.033 504.807 243.207C502.386 242.773 500.658 241.565 498.303 238.833C492.7 232.322 487.768 231.522 485.158 231.689C485.288 231.513 485.438 231.319 485.606 231.115C488.428 231.077 493.287 232.167 498.705 238.466C501.034 241.174 502.657 242.301 505.033 242.688Z" fill="white"/>
<path d="M478.405 304.884C478.405 304.884 493.879 310.374 500.145 301.484C501.046 300.202 501.829 298.703 502.506 297.073C505.464 289.943 506.406 280.282 506.613 275.219C506.53 276.617 505.539 289.99 498.07 294.662C497.086 295.281 495.992 295.744 494.77 296.012C484.615 298.232 480.493 300.416 478.923 302.064C478.761 303.048 478.585 303.993 478.405 304.884Z" fill="#CCCCCC"/>
<path d="M488.828 296.723L468.561 293.784L467.23 298.122C470.999 299.872 482.61 307.052 490.498 304.862L488.828 296.723Z" fill="#FFD4C2"/>
<path d="M490.405 304.884L486.503 297.524L495.943 273.192C495.943 273.192 505.685 273.403 505.648 278.817C505.611 284.6 494.302 303.141 490.405 304.884Z" fill="#FFD4C2"/>
<path d="M502.082 290.845L490.876 284.303C490.876 284.303 495.631 265.589 502.493 267.919C512.011 271.153 502.082 290.845 502.082 290.845Z" fill="#006F7E"/>
<path d="M459.083 273.378C459.078 273.311 459.119 273.25 459.18 273.233C459.242 273.215 459.306 273.247 459.334 273.308L459.745 274.225L461.92 282.721L461.34 282.884L459.165 274.388L459.083 273.378Z" fill="#8AA6C4"/>
<path d="M459.083 273.378C459.078 273.311 459.119 273.25 459.18 273.233C459.228 273.22 459.278 273.236 459.31 273.272C459.307 273.286 459.306 273.3 459.307 273.315L459.39 274.325L461.565 282.821L461.34 282.884L459.165 274.388L459.083 273.378Z" fill="#6386AB"/>
<path d="M460.04 283.251L463.089 282.391C463.265 282.342 463.446 282.451 463.493 282.636L463.653 283.26L459.967 284.299L459.807 283.674C459.76 283.49 459.865 283.3 460.04 283.251Z" fill="#1B4F82"/>
<path d="M460.013 283.261L460.031 283.333C460.108 283.633 460.403 283.811 460.688 283.731L463.566 282.92L463.653 283.26L459.967 284.299L459.807 283.674C459.763 283.5 459.854 283.322 460.013 283.261Z" fill="#C5CEE0"/>
<path d="M460.869 288.508C461.004 287.227 460.966 286.162 460.038 285.264C461.409 284.92 462.73 284.519 464.026 284.141C463.576 285.774 464.855 287.386 464.854 287.386C466.141 289.419 466.791 291.754 466.75 294.178C466.744 294.522 466.516 294.855 466.161 295.032C465.289 295.466 464.364 295.697 463.405 295.792C463.004 295.832 462.634 295.667 462.461 295.366C461.275 293.294 460.679 290.302 460.869 288.508Z" fill="#1B4F82"/>
<path d="M460.869 288.508C461.004 287.227 460.966 286.162 460.038 285.264C461.409 284.92 462.73 284.519 464.026 284.141C463.984 284.293 463.957 284.445 463.943 284.596C463.23 284.806 462.508 285.017 461.774 285.217C461.356 285.33 461.15 285.825 461.354 286.224C461.727 286.951 461.721 287.777 461.622 288.718C461.432 290.513 462.028 293.504 463.214 295.576C463.262 295.659 463.325 295.732 463.399 295.793C463 295.831 462.633 295.666 462.461 295.366C461.275 293.294 460.679 290.302 460.869 288.508Z" fill="#C5CEE0"/>
<path d="M459.955 284.195L463.657 283.152C463.951 283.069 464.253 283.252 464.332 283.56C464.411 283.868 464.236 284.185 463.943 284.268L460.241 285.311C459.947 285.394 459.645 285.211 459.566 284.903C459.487 284.595 459.661 284.278 459.955 284.195Z" fill="#1B4F82"/>
<path d="M461.042 282.968L462.22 282.636L462.135 282.303C462.047 281.962 461.713 281.76 461.388 281.852C461.063 281.943 460.87 282.294 460.957 282.635L461.042 282.968Z" fill="#8684C7"/>
<path d="M461.205 281.903L461.57 281.8C461.794 281.737 462.025 281.877 462.085 282.112L462.219 282.637L461.042 282.968L460.908 282.444C460.847 282.209 460.981 281.967 461.205 281.903Z" fill="#1B4F82"/>
<path d="M461.093 281.955C461.072 282.03 461.069 282.112 461.09 282.194L461.157 282.459C461.194 282.602 461.334 282.687 461.471 282.649L462.172 282.451L462.219 282.637L461.042 282.968L460.908 282.444C460.858 282.251 460.939 282.054 461.093 281.955Z" fill="#C5CEE0"/>
<path d="M460.72 290.695C461.412 289.666 463.977 292.441 464.562 292.436C466.12 292.424 464.139 289.317 465.65 288.857C466.731 288.528 468.561 293.784 468.561 293.784L467.23 298.121C460.804 297.616 459.389 292.674 460.72 290.695Z" fill="#FFD4C2"/>
<path d="M444.29 277.196C444.677 276.398 446.751 278.072 447.161 278.006C448.255 277.831 446.452 276.525 447.469 276.04C448.197 275.693 450.104 278.524 450.104 278.524L449.591 281.716C445.025 282.051 443.548 278.73 444.29 277.196Z" fill="#FFD4C2"/>
<path d="M567.568 160.315C568.367 164.786 565.551 169.105 561.289 169.943L560.064 170.184C559.813 172.266 559.35 174.308 558.685 176.282L559.378 176.78C561.11 178.023 562.279 179.901 562.666 182.067C563.053 184.232 562.613 186.426 561.427 188.245C560.241 190.063 558.451 191.289 556.387 191.695C554.323 192.101 552.231 191.639 550.498 190.395L549.467 189.655C547.891 190.94 546.188 192.041 544.383 192.943L544.538 193.811C545.337 198.281 542.52 202.6 538.259 203.439C533.998 204.277 529.881 201.322 529.082 196.852L528.852 195.565C526.871 195.304 524.925 194.818 523.042 194.116L522.565 194.846C521.38 196.665 519.59 197.89 517.526 198.296C515.462 198.702 513.37 198.241 511.637 196.996C508.059 194.429 507.139 189.285 509.587 185.531L510.293 184.448C509.069 182.796 508.02 181.01 507.16 179.116L506.331 179.279C502.07 180.117 497.953 177.163 497.154 172.692C496.354 168.222 499.171 163.903 503.433 163.064L504.662 162.822C504.91 160.746 505.372 158.704 506.042 156.728L505.345 156.228C501.767 153.659 500.847 148.516 503.295 144.762C504.481 142.944 506.271 141.718 508.335 141.312C510.4 140.906 512.491 141.368 514.224 142.612L515.256 143.353C516.831 142.069 518.534 140.968 520.339 140.065L520.184 139.196C519.385 134.725 522.201 130.407 526.463 129.568C530.724 128.73 534.841 131.684 535.64 136.155L535.87 137.441C537.855 137.705 539.802 138.189 541.683 138.887L542.157 138.161C543.343 136.342 545.133 135.117 547.197 134.711C549.262 134.305 551.353 134.766 553.086 136.011C556.664 138.579 557.583 143.723 555.136 147.476L554.43 148.557C555.655 150.21 556.705 151.997 557.565 153.891L558.391 153.729C562.651 152.89 566.769 155.845 567.568 160.315ZM555.058 177.456L555.505 176.295C556.432 173.879 557.011 171.335 557.224 168.733L557.322 167.553L560.741 166.881C563.392 166.359 565.145 163.671 564.648 160.889C564.151 158.108 561.589 156.27 558.937 156.791L555.789 157.41L555.322 156.257C554.348 153.854 553.044 151.628 551.444 149.642L550.713 148.736L552.683 145.716C554.206 143.38 553.633 140.18 551.407 138.582C550.328 137.808 549.027 137.521 547.742 137.773C546.458 138.026 545.344 138.789 544.606 139.92L542.8 142.691L541.693 142.223C539.392 141.25 536.967 140.643 534.485 140.419L533.361 140.317L532.719 136.729C532.222 133.947 529.661 132.109 527.009 132.63C524.357 133.152 522.605 135.84 523.102 138.622L523.693 141.926L522.594 142.415C520.302 143.437 518.18 144.806 516.289 146.484L515.425 147.25L512.546 145.183C511.467 144.409 510.166 144.121 508.881 144.374C507.597 144.627 506.484 145.389 505.745 146.521C504.223 148.857 504.795 152.057 507.021 153.655L509.67 155.557L509.221 156.719C508.287 159.137 507.709 161.676 507.503 164.266L507.408 165.449L503.979 166.126C501.328 166.648 499.575 169.336 500.072 172.117C500.57 174.899 503.132 176.737 505.783 176.216L508.933 175.596L509.4 176.749C510.374 179.153 511.678 181.378 513.278 183.364L514.008 184.271L512.038 187.29C510.515 189.625 511.089 192.826 513.314 194.424C514.393 195.198 515.694 195.486 516.978 195.233C518.263 194.98 519.376 194.217 520.114 193.086L521.926 190.308L523.035 190.779C525.276 191.732 527.63 192.332 530.033 192.564L530.436 192.485L531.454 193.214L532.002 196.277C532.499 199.059 535.061 200.897 537.712 200.375C540.364 199.853 542.116 197.166 541.619 194.385L541.028 191.081L542.128 190.591C544.418 189.571 546.54 188.202 548.434 186.522L549.297 185.757L552.176 187.822C553.254 188.596 554.555 188.884 555.84 188.631C557.124 188.378 558.238 187.616 558.976 186.484C559.714 185.352 559.988 183.987 559.747 182.64C559.506 181.292 558.779 180.124 557.7 179.35L555.058 177.456ZM552.485 162.545C554.566 174.185 547.232 185.432 536.136 187.615C525.039 189.798 514.318 182.104 512.237 170.464C510.156 158.823 517.49 147.576 528.587 145.393C539.683 143.209 550.404 150.904 552.485 162.545ZM515.157 169.889C516.936 179.841 526.101 186.419 535.588 184.552C545.074 182.686 551.345 173.071 549.566 163.119C547.786 153.167 538.621 146.589 529.134 148.455C519.648 150.322 513.377 159.937 515.157 169.889Z" fill="#B7DCF7"/>
<path d="M505.006 65.2795C507.761 67.7142 508.114 72.046 505.794 74.9357L505.127 75.7664C506.008 77.244 506.735 78.8125 507.295 80.4494L507.991 80.388C509.728 80.232 511.421 80.7955 512.755 81.9745C514.09 83.1536 514.906 84.8079 515.055 86.6317C515.204 88.4554 514.667 90.2311 513.542 91.6308C512.418 93.0304 510.841 93.8873 509.103 94.0429L508.069 94.1361C507.699 95.831 507.156 97.479 506.447 99.0549L506.982 99.5274C509.736 101.962 510.09 106.293 507.769 109.183C505.448 112.073 501.319 112.443 498.565 110.009L497.771 109.307C496.366 110.232 494.871 110.994 493.308 111.581L493.367 112.313C493.517 114.137 492.979 115.912 491.855 117.311C490.731 118.712 489.154 119.568 487.416 119.724C483.828 120.046 480.658 117.245 480.351 113.48L480.262 112.394C478.647 112.006 477.077 111.437 475.575 110.693L475.124 111.254C472.803 114.144 468.674 114.515 465.919 112.08C463.165 109.646 462.811 105.314 465.132 102.425L465.801 101.591C464.92 100.119 464.194 98.5505 463.634 96.91L462.935 96.9727C459.347 97.2944 456.178 94.4942 455.871 90.729C455.722 88.9053 456.259 87.1296 457.383 85.73C458.508 84.3303 460.084 83.4734 461.822 83.3179L462.857 83.2251C463.227 81.5306 463.77 79.8831 464.479 78.3063L463.944 77.8333C461.189 75.3986 460.836 71.0668 463.157 68.1771C465.477 65.2874 469.606 64.9173 472.361 67.3515L473.153 68.0515C474.562 67.1263 476.057 66.3644 477.617 65.776L477.557 65.0474C477.408 63.2237 477.946 61.4479 479.069 60.0483C480.194 58.6482 481.77 57.7913 483.509 57.6357C487.098 57.3141 490.266 60.1157 490.573 63.8794L490.662 64.9643C492.277 65.352 493.848 65.9223 495.351 66.6658L495.801 66.1055C498.123 63.2158 502.252 62.8453 505.006 65.2795ZM505.551 83.2043L505.256 82.2113C504.642 80.1457 503.739 78.1905 502.573 76.3991L502.044 75.5869L503.906 73.268C505.35 71.4701 505.13 68.7742 503.416 67.2597C501.702 65.7447 499.133 65.9754 497.689 67.7738L495.975 69.9085L495.096 69.4244C493.265 68.4157 491.31 67.7036 489.286 67.309L488.362 67.1286L488.115 64.1005C487.924 61.7576 485.951 60.0155 483.719 60.2153C482.637 60.3123 481.656 60.8457 480.957 61.7165C480.257 62.5878 479.923 63.6921 480.015 64.8273L480.242 67.6058L479.296 67.9154C477.328 68.5587 475.464 69.5056 473.756 70.7308L472.982 71.2855L470.771 69.3317C469.057 67.8167 466.488 68.0469 465.043 69.8453C463.599 71.6432 463.819 74.3391 465.533 75.8536L467.569 77.6529L467.107 78.574C466.145 80.4951 465.467 82.5458 465.091 84.6686L464.919 85.6381L462.031 85.897C460.949 85.9939 459.968 86.5269 459.269 87.3982C458.57 88.2694 458.235 89.3737 458.328 90.5089C458.519 92.8513 460.491 94.5938 462.723 94.394L465.38 94.1555L465.674 95.1508C466.285 97.2205 467.186 99.1725 468.352 100.953L468.884 101.766L467.018 104.093C465.573 105.891 465.793 108.586 467.507 110.101C469.221 111.616 471.791 111.385 473.234 109.587L474.95 107.451L475.828 107.935C477.659 108.945 479.614 109.656 481.638 110.051L482.561 110.232L482.808 113.261C482.999 115.602 484.972 117.345 487.204 117.146C488.286 117.048 489.267 116.515 489.966 115.644C490.666 114.773 491 113.669 490.907 112.534L490.68 109.748L491.629 109.439C493.549 108.815 495.364 107.904 497.025 106.727L497.245 106.453L498.265 106.361L500.153 108.029C501.866 109.544 504.435 109.313 505.879 107.515C507.324 105.718 507.104 103.022 505.39 101.507L503.354 99.7078L503.816 98.7863C504.778 96.867 505.456 94.8158 505.833 92.6912L506.005 91.7226L508.892 91.4637C509.973 91.3668 510.954 90.8338 511.654 89.9625C512.353 89.0913 512.688 87.987 512.595 86.8518C512.502 85.717 511.994 84.688 511.164 83.9538C510.334 83.22 509.281 82.8693 508.199 82.9667L505.551 83.2043ZM496.422 75.0331C503.595 81.3723 504.515 92.652 498.472 100.177C492.429 107.702 481.677 108.666 474.504 102.327C467.331 95.9875 466.412 84.7083 472.455 77.1831C478.498 69.6579 489.249 68.6935 496.422 75.0331ZM476.094 100.347C482.226 105.767 491.418 104.942 496.585 98.5089C501.751 92.0756 500.965 82.4323 494.833 77.0128C488.7 71.5933 479.508 72.418 474.342 78.8513C469.176 85.2846 469.962 94.9275 476.094 100.347Z" fill="#B7DCF7"/>
<path d="M446.308 112.463C448.305 114.227 448.561 117.368 446.878 119.463L446.395 120.065C447.034 121.136 447.56 122.273 447.967 123.46L448.471 123.415C449.731 123.302 450.958 123.71 451.924 124.565C452.892 125.419 453.484 126.619 453.592 127.941C453.699 129.263 453.31 130.55 452.495 131.565C451.68 132.58 450.537 133.201 449.277 133.313L448.528 133.381C448.26 134.61 447.866 135.804 447.352 136.946L447.739 137.289C449.736 139.054 449.992 142.193 448.31 144.288C446.628 146.383 443.635 146.652 441.638 144.887L441.063 144.378C440.045 145.049 438.961 145.601 437.828 146.026L437.871 146.557C437.979 147.879 437.589 149.166 436.774 150.18C435.96 151.195 434.817 151.816 433.556 151.929C430.955 152.163 428.658 150.132 428.435 147.403L428.37 146.616C427.2 146.335 426.062 145.922 424.972 145.383L424.645 145.79C422.963 147.885 419.97 148.153 417.973 146.388C415.976 144.623 415.72 141.483 417.402 139.389L417.887 138.785C417.248 137.717 416.722 136.581 416.316 135.391L415.81 135.437C413.208 135.67 410.911 133.64 410.689 130.91C410.581 129.588 410.97 128.301 411.785 127.287C412.6 126.272 413.743 125.651 415.002 125.538L415.753 125.471C416.021 124.243 416.414 123.048 416.928 121.905L416.54 121.562C414.543 119.797 414.287 116.657 415.97 114.562C417.652 112.467 420.645 112.199 422.642 113.963L423.216 114.471C424.237 113.801 425.321 113.248 426.452 112.822L426.409 112.293C426.301 110.971 426.691 109.684 427.505 108.67C428.32 107.655 429.463 107.034 430.723 106.921C433.325 106.688 435.622 108.718 435.845 111.447L435.909 112.233C437.08 112.514 438.219 112.927 439.308 113.466L439.635 113.06C441.318 110.967 444.311 110.699 446.308 112.463ZM446.703 125.456L446.489 124.736C446.044 123.239 445.39 121.822 444.544 120.523L444.16 119.934L445.51 118.253C446.557 116.95 446.398 114.996 445.155 113.898C443.912 112.8 442.05 112.967 441.003 114.271L439.761 115.819L439.124 115.467C437.797 114.736 436.379 114.22 434.912 113.934L434.242 113.803L434.063 111.608C433.924 109.91 432.495 108.647 430.877 108.792C430.093 108.862 429.382 109.249 428.875 109.88C428.367 110.511 428.125 111.312 428.192 112.135L428.357 114.149L427.671 114.374C426.244 114.84 424.893 115.526 423.654 116.415L423.093 116.817L421.49 115.4C420.248 114.302 418.386 114.469 417.339 115.772C416.292 117.076 416.451 119.03 417.694 120.128L419.169 121.432L418.835 122.1C418.138 123.493 417.646 124.979 417.373 126.518L417.249 127.221L415.156 127.408C414.372 127.479 413.66 127.865 413.153 128.497C412.646 129.128 412.404 129.929 412.471 130.751C412.61 132.449 414.039 133.713 415.657 133.568L417.583 133.395L417.797 134.117C418.24 135.617 418.892 137.032 419.737 138.323L420.123 138.912L418.77 140.599C417.724 141.902 417.883 143.856 419.125 144.954C420.368 146.052 422.231 145.885 423.277 144.581L424.521 143.033L425.157 143.384C426.485 144.115 427.902 144.631 429.369 144.917L430.038 145.048L430.217 147.244C430.355 148.941 431.785 150.205 433.403 150.06C434.187 149.99 434.898 149.604 435.406 148.972C435.913 148.341 436.155 147.54 436.088 146.718L435.924 144.698L436.612 144.474C438.003 144.022 439.318 143.361 440.523 142.509L440.682 142.31L441.422 142.243L442.79 143.453C444.033 144.551 445.895 144.384 446.941 143.08C447.988 141.777 447.829 139.823 446.586 138.725L445.111 137.421L445.445 136.753C446.143 135.361 446.635 133.874 446.908 132.334L447.032 131.632L449.124 131.444C449.908 131.374 450.619 130.987 451.126 130.356C451.634 129.725 451.876 128.923 451.809 128.101C451.741 127.278 451.373 126.533 450.772 126C450.17 125.468 449.407 125.215 448.622 125.285L446.703 125.456ZM440.085 119.533C445.284 124.128 445.951 132.305 441.57 137.76C437.19 143.215 429.396 143.914 424.196 139.318C418.997 134.723 418.33 126.546 422.71 121.091C427.091 115.637 434.885 114.938 440.085 119.533ZM425.349 137.884C429.794 141.812 436.457 141.215 440.202 136.551C443.948 131.887 443.378 124.897 438.933 120.969C434.487 117.04 427.824 117.638 424.079 122.301C420.334 126.964 420.903 133.955 425.349 137.884Z" fill="#B7DCF7"/>
</g>
<defs>
<clipPath id="clip0_84_2071">
<rect width="600" height="443.01" fill="white"/>
</clipPath>
</defs>
</svg>
