<svg width="750" height="500" viewBox="0 0 750 500" fill="none" xmlns="http://www.w3.org/2000/svg">
<path d="M183.734 396.78C194.582 389.207 198.232 379.878 199.467 366.706C200.701 353.535 195.876 339.917 186.624 330.46C178.911 322.576 168.296 317.399 162.552 307.984C156.43 297.949 156.641 284.272 148.139 276.155C142.298 270.578 133.757 269.087 126.663 265.229C120.873 262.081 116.105 257.382 110.807 253.462C105.508 249.542 99.2218 246.289 92.6498 246.782C82.7368 247.526 75.0218 257.262 74.5518 267.191C74.0808 277.121 79.6228 286.618 87.2018 293.052C92.6988 297.718 99.4668 301.291 103.069 307.537C109.834 319.269 102.766 335.571 110.029 347.001C115.333 355.348 127.356 359.344 129.025 369.092C129.639 372.677 128.625 376.332 128.653 379.969C128.739 391.343 139.372 400.507 150.567 402.524C161.761 404.542 173.185 401.034 183.734 396.78Z" fill="url(#paint0_linear_85_4414)"/>
<path d="M114.129 286.754C114.098 286.789 114.51 287.246 115.322 288.085C116.242 289.01 117.436 290.21 118.92 291.702C120.512 293.241 122.427 295.152 124.514 297.506C126.619 299.839 129.137 302.385 131.602 305.481C132.87 307.003 134.195 308.593 135.575 310.247C136.948 311.911 138.239 313.751 139.653 315.594C142.533 319.245 145.242 323.41 148.178 327.73C153.803 336.531 159.455 346.553 164.45 357.53C169.344 368.557 173.087 379.439 175.933 389.491C177.214 394.556 178.53 399.347 179.348 403.926C179.787 406.207 180.306 408.395 180.638 410.526C180.96 412.656 181.269 414.703 181.565 416.661C182.244 420.56 182.476 424.133 182.823 427.256C183.197 430.379 183.354 433.08 183.448 435.292C183.578 437.391 183.683 439.08 183.763 440.383C183.85 441.547 183.919 442.159 183.966 442.158C184.013 442.158 184.036 441.545 184.037 440.378C184.021 439.071 184.001 437.376 183.976 435.269C183.963 433.048 183.883 430.333 183.58 427.193C183.304 424.052 183.138 420.457 182.517 416.532C182.247 414.56 181.966 412.499 181.673 410.354C181.366 408.208 180.872 406.004 180.454 403.706C179.679 399.094 178.398 394.266 177.142 389.162C174.347 379.034 170.616 368.068 165.691 356.972C160.666 345.926 154.944 335.858 149.228 327.044C146.247 322.717 143.487 318.554 140.553 314.912C139.112 313.074 137.793 311.241 136.392 309.586C134.983 307.943 133.629 306.364 132.333 304.853C129.81 301.783 127.232 299.271 125.066 296.979C122.919 294.667 120.942 292.804 119.29 291.32C117.731 289.902 116.477 288.762 115.51 287.882C114.634 287.109 114.161 286.719 114.129 286.754Z" fill="url(#paint1_linear_85_4414)"/>
<path d="M670.063 202.218C670.063 202.218 660.523 195.91 648.894 218.728C637.265 241.546 632.859 254.706 632.859 254.706C632.859 254.706 629.785 259.487 626.501 256.362C623.217 253.237 618.719 244.372 613.137 245.968C607.348 247.623 605.441 254.084 606.545 263.578C607.649 273.072 609.304 293.962 609.447 295.851C609.587 297.706 608.525 300.439 605.946 298.668C603.368 296.898 588.535 280.379 581.119 287.887C573.703 295.395 581.123 321.338 581.88 324.19C582.637 327.042 582.079 328.26 580.724 328.965C579.369 329.671 574.907 323.649 570.496 319.124C566.085 314.599 560.177 310.125 556.261 314.815C552.345 319.505 551.092 338.971 569.618 370.59L579.161 384.679L596.227 383.732C632.626 379.48 647.411 366.756 648.797 360.806C650.183 354.855 643.053 352.833 636.784 352.037C630.515 351.241 623.02 351.305 622.768 349.799C622.515 348.293 623.152 347.114 625.884 346.001C628.616 344.888 653.797 335.188 655.324 324.746C656.851 314.304 634.731 312.411 631.765 311.419C628.799 310.427 630.341 307.933 631.906 306.928C633.5 305.904 651.174 294.645 659.418 289.809C667.662 284.973 671.672 279.56 669.507 273.941C667.42 268.523 657.634 270.271 653.161 269.532C648.689 268.792 650.654 263.459 650.654 263.459C650.654 263.459 658.506 252.017 669.719 228.991C680.932 205.965 669.861 202.106 669.861 202.106" fill="url(#paint2_linear_85_4414)"/>
<path d="M659.613 222.636C659.613 222.636 659.55 222.807 659.402 223.13C659.243 223.471 659.021 223.945 658.735 224.557C658.129 225.827 657.251 227.665 656.125 230.023C653.854 234.767 650.518 241.608 646.364 250.045C638.063 266.923 626.4 290.141 613.437 315.742C600.47 341.352 588.754 364.544 580.368 381.378C576.191 389.785 572.807 396.594 570.458 401.323C569.294 403.661 568.387 405.484 567.76 406.744C567.454 407.346 567.216 407.813 567.046 408.148C566.882 408.463 566.787 408.618 566.787 408.618C566.787 408.618 566.85 408.447 566.998 408.124C567.157 407.784 567.379 407.309 567.665 406.697C568.271 405.427 569.149 403.59 570.274 401.232C572.545 396.489 575.881 389.648 580.034 381.211C588.335 364.333 599.999 341.112 612.967 315.502C625.93 289.901 637.644 266.711 646.031 249.877C650.208 241.47 653.592 234.66 655.942 229.93C657.106 227.591 658.014 225.768 658.641 224.508C658.947 223.906 659.185 223.439 659.355 223.104C659.517 222.791 659.613 222.636 659.613 222.636Z" fill="#E0E0E0"/>
<path d="M618.93 258.623C618.965 258.613 619.116 259.024 619.359 259.777C619.606 260.529 619.93 261.626 620.318 262.986C621.089 265.707 622.057 269.491 623.051 273.687C624.016 277.828 624.888 281.573 625.555 284.437C625.864 285.726 626.124 286.814 626.334 287.688C626.521 288.455 626.609 288.885 626.574 288.895C626.539 288.905 626.385 288.495 626.136 287.744C625.892 286.991 625.567 285.893 625.193 284.529C624.449 281.8 623.53 278.004 622.537 273.809C621.543 269.677 620.644 265.94 619.957 263.081C619.642 261.793 619.375 260.706 619.161 259.832C618.979 259.064 618.894 258.634 618.93 258.623Z" fill="#E0E0E0"/>
<path d="M628.136 289.198C628.096 289.058 635.811 286.717 645.365 283.97C654.923 281.222 662.702 279.109 662.742 279.25C662.782 279.39 655.069 281.731 645.511 284.478C635.957 287.225 628.177 289.338 628.136 289.198Z" fill="#E0E0E0"/>
<path d="M606.453 327.622C606.455 327.586 606.902 327.567 607.709 327.564C608.624 327.567 609.767 327.571 611.124 327.576C614.006 327.582 617.988 327.573 622.38 327.403C626.774 327.242 630.745 326.958 633.619 326.73C634.972 326.624 636.111 326.534 637.023 326.462C637.828 326.403 638.275 326.388 638.279 326.424C638.283 326.46 637.844 326.545 637.046 326.667C636.247 326.788 635.089 326.943 633.654 327.102C630.785 327.426 626.806 327.77 622.4 327.931C617.995 328.102 614.002 328.052 611.117 327.95C609.674 327.893 608.507 327.834 607.702 327.77C606.896 327.709 606.452 327.658 606.453 327.622Z" fill="#E0E0E0"/>
<path d="M592.039 301.8C592.071 301.782 592.306 302.122 592.705 302.752C593.153 303.485 593.703 304.385 594.351 305.446C595.721 307.732 597.583 310.91 599.61 314.435C601.638 317.961 603.448 321.168 604.736 323.503C605.327 324.597 605.829 325.525 606.237 326.281C606.581 326.943 606.757 327.317 606.725 327.336C606.693 327.354 606.458 327.014 606.059 326.384C605.611 325.651 605.061 324.751 604.413 323.69C603.043 321.403 601.181 318.226 599.153 314.7C597.126 311.175 595.316 307.968 594.028 305.634C593.437 304.539 592.935 303.611 592.527 302.856C592.182 302.192 592.007 301.818 592.039 301.8Z" fill="#E0E0E0"/>
<path d="M568.587 333.289C568.618 333.27 568.916 333.708 569.427 334.516C569.98 335.414 570.694 336.571 571.55 337.961C573.323 340.882 575.74 344.935 578.381 349.428C581.023 353.923 583.39 358.006 585.08 360.976C585.878 362.4 586.543 363.586 587.058 364.506C587.515 365.346 587.753 365.818 587.721 365.837C587.69 365.855 587.392 365.418 586.881 364.61C586.328 363.713 585.615 362.555 584.758 361.165C582.986 358.244 580.568 354.191 577.926 349.696C575.284 345.203 572.918 341.12 571.228 338.15C570.43 336.726 569.765 335.54 569.25 334.62C568.793 333.78 568.555 333.307 568.587 333.289Z" fill="#E0E0E0"/>
<path d="M587.483 364.929C587.483 364.893 588.049 364.854 589.072 364.816C590.189 364.78 591.646 364.732 593.402 364.675C597.058 364.552 602.106 364.362 607.673 363.996C613.242 363.638 618.274 363.181 621.914 362.824C623.663 362.654 625.114 362.513 626.226 362.405C627.245 362.31 627.811 362.275 627.815 362.311C627.82 362.347 627.263 362.452 626.251 362.609C625.239 362.767 623.772 362.972 621.955 363.195C618.322 363.647 613.286 364.164 607.707 364.523C602.131 364.89 597.071 365.021 593.409 365.048C591.578 365.057 590.096 365.049 589.073 365.021C588.049 364.996 587.483 364.965 587.483 364.929Z" fill="#E0E0E0"/>
<path d="M496.968 143.224H496.761L496.615 143.371L480.283 159.702V143.724V143.224H479.783H464.468C462.528 143.224 460.955 141.651 460.955 139.711V91.4212C460.955 89.4813 462.528 87.9082 464.468 87.9082H533.122C535.835 87.9082 538.034 90.1073 538.034 92.8202V138.312C538.034 141.025 535.835 143.224 533.122 143.224H496.968Z" fill="white" stroke="url(#paint3_linear_85_4414)"/>
<path d="M487.247 116.52C487.247 118.751 485.438 120.56 483.207 120.56C480.976 120.56 479.167 118.751 479.167 116.52C479.167 114.289 480.976 112.48 483.207 112.48C485.438 112.48 487.247 114.289 487.247 116.52Z" fill="#006F7E"/>
<path d="M503.225 116.52C503.225 118.751 501.416 120.56 499.185 120.56C496.954 120.56 495.145 118.751 495.145 116.52C495.145 114.289 496.954 112.48 499.185 112.48C501.416 112.48 503.225 114.289 503.225 116.52Z" fill="#006F7E"/>
<path d="M519.203 116.52C519.203 118.751 517.394 120.56 515.163 120.56C512.932 120.56 511.123 118.751 511.123 116.52C511.123 114.289 512.932 112.48 515.163 112.48C517.394 112.48 519.203 114.289 519.203 116.52Z" fill="#006F7E"/>
<path d="M576.446 430.657C559.269 413.956 558.968 388.103 563.418 365.633C564.16 361.882 564.394 357.839 566.727 354.821C569.061 351.805 573.616 350.226 576.734 352.365C579.32 354.14 580.01 357.597 581.138 360.547C582.638 364.472 585.261 367.945 588.607 370.437C590.805 372.075 593.653 373.321 596.237 372.4C599.783 371.135 600.899 366.703 601.487 362.947C602.582 355.948 603.679 348.949 604.774 341.952C605.362 338.197 605.975 334.365 607.722 330.995C609.469 327.625 612.586 324.738 616.317 324.319C620.049 323.902 624.126 326.678 624.282 330.473C624.347 332.052 623.777 333.588 623.627 335.161C623.477 336.735 623.922 338.576 625.33 339.251C626.756 339.935 628.43 339.116 629.73 338.201C634.219 335.044 637.642 330.593 640.888 326.141C644.134 321.689 647.327 317.11 651.513 313.551C655.699 309.992 661.092 307.511 666.514 308.082C671.937 308.654 677.12 312.902 677.618 318.397C678.118 323.907 674.158 328.77 670.103 332.504C664.087 338.044 657.279 342.7 649.961 346.281C648.642 346.927 647.212 347.625 646.534 348.941C645.312 351.309 647.276 354.179 649.612 355.404C652.256 356.791 655.338 356.995 658.206 357.816C661.075 358.637 664.033 360.444 664.689 363.388C665.601 367.472 661.739 370.969 658.155 373.087C650.978 377.329 643.085 380.317 634.929 381.882C632.005 382.442 628.957 382.854 626.416 384.43C623.875 386.007 621.982 389.159 622.896 392.02C623.81 394.885 627.123 396.293 630.101 396.227C633.078 396.162 635.921 395.015 638.845 394.424C644.317 393.318 650.916 394.759 653.493 399.752C655.186 403.034 654.712 407.143 653.046 410.455C651.38 413.767 648.664 416.411 645.848 418.799C636.006 427.146 624.157 433.226 611.522 435.424C598.885 437.623 587.622 436.94 576.446 430.657Z" fill="url(#paint4_linear_85_4414)"/>
<path d="M573.011 447.579C575.288 438.761 578.974 428.51 584.179 417.662C589.363 406.801 596.033 395.367 603.419 383.648C605.276 380.726 607.112 377.837 608.92 374.991C610.732 372.154 612.529 369.34 614.457 366.697C618.29 361.392 622.379 356.584 626.404 352.142C630.428 347.696 634.409 343.624 638.158 339.844C641.918 336.07 645.488 332.618 648.876 329.611C655.637 323.57 661.655 319.352 665.904 316.625C668.027 315.254 669.708 314.245 670.858 313.576C671.41 313.26 671.843 313.011 672.169 312.824C672.466 312.659 672.621 312.579 672.627 312.589C672.634 312.6 672.491 312.7 672.205 312.886C671.888 313.088 671.465 313.356 670.929 313.698C669.805 314.406 668.148 315.452 666.05 316.855C661.852 319.65 655.901 323.915 649.202 329.985C645.844 333.007 642.302 336.471 638.567 340.258C634.838 344.054 630.878 348.135 626.877 352.581C622.876 357.025 618.813 361.824 615.009 367.105C613.096 369.737 611.318 372.528 609.503 375.373C607.696 378.218 605.863 381.106 604.007 384.027C596.627 395.738 589.957 407.134 584.756 417.947C579.537 428.747 575.818 438.938 573.488 447.709" fill="#263238"/>
<path d="M614.659 366.701C614.611 366.701 614.577 366.11 614.553 365.041C614.525 363.972 614.535 362.425 614.576 360.514C614.654 356.693 614.943 351.419 615.282 345.606C615.622 339.79 615.835 334.527 615.855 330.715C615.87 328.809 615.867 327.266 615.851 326.2C615.841 325.133 615.859 324.541 615.907 324.537C615.955 324.534 616.029 325.121 616.123 326.186C616.223 327.251 616.302 328.797 616.348 330.708C616.456 334.533 616.321 339.821 615.98 345.642C615.63 351.378 615.313 356.566 615.071 360.53C614.973 362.322 614.891 363.832 614.826 365.044C614.764 366.111 614.708 366.702 614.659 366.701Z" fill="#263238"/>
<path d="M664.357 365.547C664.351 365.595 663.651 365.563 662.396 365.464C661.141 365.373 659.325 365.23 657.076 365.127C652.581 364.884 646.36 364.766 639.491 364.935C632.62 365.117 626.409 365.546 621.926 365.987C619.681 366.191 617.87 366.405 616.617 366.546C615.364 366.692 614.668 366.749 614.66 366.701C614.653 366.652 615.336 366.503 616.58 366.273C617.824 366.049 619.631 365.759 621.875 365.489C626.358 364.92 632.585 364.41 639.477 364.227C646.366 364.058 652.609 364.255 657.11 364.628C659.362 364.796 661.177 365.014 662.427 365.191C663.675 365.375 664.362 365.498 664.357 365.547Z" fill="#263238"/>
<path d="M584.916 416.871C584.893 416.877 584.813 416.657 584.681 416.229C584.535 415.721 584.357 415.101 584.141 414.35C583.679 412.716 583.072 410.334 582.361 407.382C580.934 401.478 579.221 393.26 577.452 384.167C575.682 375.07 574.047 366.847 572.746 360.922C572.105 358.04 571.577 355.67 571.185 353.908C571.019 353.144 570.883 352.514 570.771 351.997C570.684 351.559 570.649 351.325 570.673 351.318C570.696 351.313 570.776 351.534 570.908 351.961C571.054 352.469 571.233 353.088 571.449 353.839C571.911 355.473 572.518 357.855 573.229 360.807C574.655 366.711 576.369 374.929 578.138 384.026C579.907 393.121 581.542 401.342 582.843 407.268C583.486 410.149 584.012 412.52 584.405 414.281C584.571 415.045 584.707 415.676 584.819 416.193C584.905 416.632 584.94 416.865 584.916 416.871Z" fill="#263238"/>
<path d="M652.371 406.66C652.373 406.684 652.139 406.738 651.692 406.819C651.164 406.905 650.515 407.011 649.729 407.139C647.919 407.416 645.476 407.79 642.503 408.244C636.402 409.179 627.991 410.567 618.699 412.113C609.404 413.661 600.971 414.972 594.849 415.781C591.788 416.186 589.308 416.489 587.591 416.663C586.797 416.739 586.143 416.801 585.612 416.853C585.159 416.888 584.919 416.895 584.916 416.87C584.914 416.846 585.148 416.792 585.595 416.71C586.122 416.625 586.771 416.519 587.558 416.391C589.368 416.114 591.81 415.741 594.782 415.285C600.883 414.351 609.295 412.962 618.59 411.415C627.882 409.868 636.314 408.556 642.436 407.748C645.497 407.342 647.977 407.04 649.696 406.866C650.489 406.79 651.143 406.727 651.675 406.677C652.129 406.642 652.367 406.635 652.371 406.66Z" fill="#263238"/>
<path d="M114.625 351.991C120.034 350.54 125.947 351.908 130.709 354.854C135.472 357.8 139.187 362.201 142.155 366.95C147.898 376.138 149.868 388.454 150.064 399.287C138.043 398.732 127.823 389.222 122.942 384.073C115.226 375.934 106.224 356.539 114.625 351.991Z" fill="url(#paint5_linear_85_4414)"/>
<path d="M169.369 406.643C164.447 402.781 162.277 395.98 163.345 389.816C164.413 383.652 168.427 378.213 173.608 374.706C176.003 373.084 178.967 371.804 181.737 372.636C184.327 373.414 186.119 375.947 186.629 378.603C187.139 381.259 186.556 384.01 185.657 386.561C182.572 395.307 177.982 403.205 169.369 406.643Z" fill="url(#paint6_linear_85_4414)"/>
<path d="M180.291 440.932C180.216 440.968 179.792 440.277 179.094 438.994C178.397 437.71 177.423 435.835 176.291 433.478C174.061 428.773 171.058 422.084 169.63 414.134C168.207 406.172 169.246 398.672 171.248 393.779C172.225 391.32 173.314 389.462 174.188 388.277C175.056 387.086 175.63 386.506 175.684 386.549C175.891 386.685 173.749 389.196 172.054 394.076C170.314 398.907 169.443 406.167 170.826 413.925C172.218 421.687 175.049 428.347 177.073 433.125C179.14 437.9 180.454 440.854 180.291 440.932Z" fill="#263238"/>
<path d="M122.784 366.155C122.848 366.101 123.773 367.066 125.39 368.859C127.01 370.649 129.31 373.279 132.117 376.558C137.733 383.115 145.342 392.301 153.494 402.649C161.645 413.003 168.793 422.555 173.85 429.551C176.38 433.049 178.396 435.9 179.757 437.895C181.12 439.888 181.842 441.013 181.774 441.062C181.706 441.111 180.856 440.08 179.376 438.174C177.779 436.09 175.686 433.358 173.161 430.063C167.931 423.202 160.683 413.743 152.54 403.4C144.396 393.063 136.901 383.801 131.457 377.108C128.846 373.881 126.681 371.206 125.029 369.165C123.523 367.279 122.72 366.21 122.784 366.155Z" fill="#263238"/>
<path d="M161.251 420.004C150.955 411.761 136.534 408.964 123.903 412.76C120.687 413.727 117.123 415.69 116.799 419.032C116.474 422.381 119.615 424.999 122.629 426.496C135.166 432.722 151.451 430.349 161.689 420.803" fill="url(#paint7_linear_85_4414)"/>
<path d="M131.891 418.879C131.872 418.797 132.614 418.579 133.98 418.253C134.661 418.077 135.502 417.896 136.495 417.788C137.485 417.667 138.611 417.463 139.871 417.445C142.384 417.263 145.396 417.385 148.702 417.831C151.996 418.347 155.575 419.229 159.169 420.624C162.746 422.066 165.961 423.872 168.717 425.749C171.434 427.685 173.714 429.658 175.422 431.51C176.329 432.384 177.011 433.304 177.65 434.07C178.3 434.828 178.789 435.535 179.166 436.13C179.94 437.303 180.331 437.969 180.261 438.016C180.068 438.154 178.352 435.566 174.812 432.115C173.059 430.375 170.772 428.515 168.085 426.674C165.359 424.891 162.21 423.161 158.721 421.754C155.215 420.394 151.736 419.502 148.528 418.937C145.31 418.442 142.369 418.233 139.9 418.303C134.96 418.397 131.938 419.112 131.891 418.879Z" fill="#263238"/>
<path d="M296.388 94.1672L288.001 101.177L283.921 99.3602L283.079 95.9042C283.079 95.9042 292.094 89.2542 291.754 88.9012C290.93 88.0452 289.791 87.6412 288.658 87.4792C286.507 87.1702 284.327 87.8152 282.582 89.1112L280.996 90.2892C278.058 92.4722 276.541 96.1182 277.167 99.7242C277.202 99.9232 277.227 100.033 277.227 100.033L252.358 120.698C248.497 119.413 244.217 121.243 242.527 125.038C240.729 129.076 242.545 133.807 246.582 135.605C250.62 137.403 255.351 135.587 257.149 131.549C257.875 129.92 258.003 128.18 257.643 126.563L282.235 105.917C283.183 106.828 284.482 107.158 285.77 107.203C288.261 107.289 290.659 106.242 292.441 104.499L294.516 102.468C298.089 98.7922 296.388 94.1672 296.388 94.1672ZM248.348 131.644C246.498 130.82 245.666 128.652 246.49 126.802C247.314 124.952 249.482 124.12 251.332 124.944C253.182 125.768 254.014 127.936 253.191 129.787C252.367 131.636 250.199 132.468 248.348 131.644Z" fill="#FFB859"/>
<path d="M334.029 142.08C332.998 142.166 324.146 142.908 307.242 144.324L307.339 144.274C302.55 149.966 295.401 155.835 285.822 159.256C281.051 160.936 275.73 162.026 270.093 162.123C264.467 162.16 258.539 161.388 252.73 159.377C246.926 157.389 241.261 154.21 236.29 149.886C231.318 145.573 227.044 140.117 224.013 133.838C220.973 127.569 219.203 120.479 219.042 113.185C218.959 112.274 219.016 111.361 219.069 110.446C219.115 109.531 219.161 108.613 219.208 107.694C219.21 106.77 219.44 105.867 219.552 104.949C219.692 104.034 219.831 103.118 219.972 102.199C220.161 101.29 220.423 100.394 220.646 99.4891C220.896 98.5911 221.071 97.6671 221.385 96.7841C221.707 95.9041 222.03 95.0221 222.353 94.1381L222.839 92.8111C222.999 92.3681 223.236 91.9561 223.431 91.5261C226.445 84.8791 230.869 79.0141 236.175 74.3701C241.477 69.7161 247.658 66.2861 254.11 64.2651C260.563 62.2291 267.267 61.6221 273.641 62.2181C280.024 62.8041 286.081 64.6131 291.435 67.3061C302.165 72.7151 310.041 81.4381 314.22 90.5401C314.767 91.6701 315.326 92.7761 315.698 93.9421C316.11 95.0901 316.54 96.2151 316.92 97.3371C317.468 99.6421 318.193 101.837 318.422 104.058C318.573 105.159 318.784 106.235 318.877 107.304C318.929 108.377 318.98 109.431 319.031 110.465C319.056 110.982 319.081 111.494 319.105 112.002C319.097 112.509 319.061 113.012 319.041 113.509C318.993 114.504 318.946 115.478 318.9 116.433L318.879 116.344C328.369 132.466 333.471 141.133 334.029 142.08C333.462 141.139 328.273 132.523 318.621 116.498L318.598 116.46L318.6 116.408C318.642 115.459 318.684 114.49 318.727 113.501C318.745 113.007 318.779 112.507 318.785 112.003C318.758 111.499 318.732 110.99 318.704 110.476C318.65 109.448 318.595 108.402 318.54 107.336C318.443 106.274 318.229 105.206 318.076 104.113C317.842 101.909 317.113 99.7311 316.563 97.4461C316.182 96.3341 315.751 95.2191 315.339 94.0811C314.967 92.9251 314.408 91.8291 313.862 90.7101C309.692 81.6911 301.862 73.0641 291.224 67.7231C285.916 65.0641 279.915 63.2821 273.594 62.7091C267.281 62.1261 260.645 62.7341 254.26 64.7541C247.877 66.7591 241.762 70.1581 236.517 74.7651C231.269 79.3621 226.892 85.1661 223.91 91.7431C223.717 92.1681 223.482 92.5751 223.324 93.0141L222.844 94.3271C222.524 95.2011 222.205 96.0741 221.886 96.9451C221.575 97.8181 221.403 98.7321 221.155 99.6211C220.934 100.517 220.675 101.403 220.487 102.302C220.348 103.211 220.21 104.118 220.072 105.023C219.961 105.931 219.731 106.824 219.731 107.739C219.685 108.649 219.639 109.557 219.593 110.463C219.541 111.369 219.483 112.272 219.565 113.174C219.721 120.393 221.469 127.409 224.472 133.616C227.467 139.833 231.692 145.239 236.611 149.517C241.529 153.805 247.134 156.962 252.881 158.941C258.633 160.943 264.506 161.72 270.085 161.697C275.674 161.615 280.955 160.548 285.694 158.894C295.209 155.528 302.332 149.728 307.122 144.091L307.161 144.045L307.22 144.041C324.138 142.804 332.998 142.155 334.029 142.08Z" fill="url(#paint8_linear_85_4414)"/>
<path d="M567.214 452.32H188.32C180.275 452.32 173.753 445.798 173.753 437.753V197.062C173.753 189.017 180.275 182.495 188.32 182.495H567.214C575.259 182.495 581.781 189.017 581.781 197.062V437.753C581.781 445.798 575.259 452.32 567.214 452.32Z" fill="#455A64"/>
<path d="M581.53 455.973H175.058C165.229 455.973 157.26 448.005 157.26 438.175V432.363H599.328V438.175C599.328 448.004 591.36 455.973 581.53 455.973Z" fill="#455A64"/>
<path d="M570.258 193.215H185.276V421.078H570.258V193.215Z" fill="#F5F5F5"/>
<path d="M338.114 432.363C338.106 432.359 338.25 432.354 338.539 432.35C338.853 432.347 339.282 432.342 339.833 432.337C341.006 432.33 342.695 432.321 344.86 432.308C349.278 432.29 355.639 432.264 363.514 432.232C379.391 432.198 401.368 432.151 425.884 432.098L426.344 432.097L426.112 432.495C425.327 433.84 424.484 435.283 423.637 436.736C422.748 438.258 421.865 439.771 421.019 441.22L420.942 441.351H420.791C386.869 441.287 357.9 441.233 343.601 441.206H343.534L343.5 441.15C341.741 438.29 340.387 436.087 339.458 434.576C339.019 433.857 338.682 433.304 338.442 432.911C338.215 432.543 338.114 432.363 338.114 432.363C338.114 432.363 338.252 432.563 338.497 432.941C338.752 433.335 339.111 433.89 339.577 434.61C340.524 436.084 341.906 438.234 343.701 441.025L343.6 440.969C357.899 440.942 386.869 440.888 420.79 440.825L420.562 440.956C421.408 439.507 422.291 437.994 423.18 436.471C424.028 435.018 424.871 433.574 425.656 432.23L425.884 432.627C401.469 432.574 379.581 432.527 363.769 432.493C355.857 432.461 349.467 432.435 345.028 432.417C342.829 432.405 341.114 432.395 339.923 432.388C339.353 432.383 338.91 432.378 338.585 432.375C338.281 432.372 338.114 432.363 338.114 432.363Z" fill="#263238"/>
<path fill-rule="evenodd" clip-rule="evenodd" d="M326.151 235.603C326.86 234.654 327.685 233.818 328.597 233.106L328.015 229.918L332.947 227.814L334.846 230.44C335.991 230.274 337.166 230.257 338.342 230.402L340.184 227.737L345.159 229.736L344.645 232.934C345.594 233.643 346.431 234.468 347.142 235.38L350.33 234.798L352.435 239.73L349.809 241.63C349.975 242.775 349.992 243.95 349.847 245.125L352.512 246.967L350.513 251.942L347.315 251.428C346.606 252.377 345.781 253.214 344.868 253.925L345.45 257.113L340.518 259.217L338.619 256.591C337.474 256.757 336.299 256.774 335.124 256.629L333.282 259.294L328.307 257.295L328.821 254.097C327.872 253.388 327.035 252.563 326.324 251.65L323.136 252.232L321.031 247.3L323.657 245.4C323.491 244.255 323.474 243.08 323.619 241.905L320.954 240.063L322.953 235.088L326.151 235.603ZM331.487 241.145C330.303 244.093 331.732 247.443 334.68 248.627C337.628 249.811 340.977 248.382 342.162 245.434C343.346 242.486 341.917 239.136 338.969 237.952C336.021 236.768 332.671 238.197 331.487 241.145Z" fill="#E0E0E0"/>
<path fill-rule="evenodd" clip-rule="evenodd" d="M306.163 339.02C308.216 336.27 310.607 333.847 313.25 331.784L311.563 322.545L325.854 316.447L331.357 324.056C334.675 323.574 338.079 323.525 341.485 323.945L346.823 316.223L361.24 322.016L359.751 331.283C362.501 333.337 364.925 335.729 366.987 338.372L376.225 336.686L382.323 350.976L374.714 356.48C375.196 359.798 375.245 363.202 374.825 366.608L382.547 371.946L376.755 386.363L367.487 384.874C365.434 387.624 363.042 390.048 360.398 392.11L362.085 401.349L347.795 407.447L342.291 399.837C338.973 400.319 335.57 400.367 332.163 399.948L326.825 407.671L312.408 401.878L313.897 392.611C311.147 390.557 308.723 388.166 306.661 385.522L297.423 387.209L291.325 372.919L298.935 367.415C298.453 364.097 298.405 360.694 298.824 357.287L291.102 351.949L296.894 337.532L306.163 339.02ZM321.622 355.077C318.19 363.619 322.332 373.325 330.874 376.756C339.416 380.188 349.121 376.046 352.553 367.504C355.985 358.963 351.843 349.256 343.301 345.824C334.76 342.394 325.054 346.536 321.622 355.077Z" fill="#F5F5F5"/>
<path d="M233.949 358.267C235.085 356.746 236.408 355.405 237.87 354.264L236.937 349.153L244.843 345.779L247.888 349.989C249.724 349.722 251.607 349.695 253.492 349.927L256.445 345.655L264.421 348.86L263.597 353.987C265.119 355.123 266.46 356.446 267.6 357.909L272.711 356.976L276.085 364.882L271.875 367.927C272.141 369.763 272.169 371.646 271.936 373.53L276.208 376.483L273.004 384.459L267.876 383.635C266.74 385.156 265.417 386.497 263.954 387.638L264.887 392.749L256.981 396.123L253.936 391.913C252.101 392.18 250.217 392.206 248.333 391.974L245.38 396.247L237.404 393.042L238.228 387.915C236.706 386.778 235.365 385.456 234.225 383.993L229.114 384.926L225.74 377.02L229.95 373.975C229.684 372.139 229.657 370.256 229.889 368.372L225.617 365.419L228.822 357.443L233.949 358.267ZM242.502 367.151C240.603 371.877 242.895 377.247 247.62 379.145C252.346 381.044 257.715 378.752 259.614 374.026C261.513 369.301 259.221 363.93 254.496 362.032C249.771 360.134 244.401 362.425 242.502 367.151Z" fill="#C8D3D6"/>
<path d="M242.502 367.151C242.502 367.151 242.693 366.34 243.526 365.109C244.345 363.905 245.969 362.276 248.565 361.528C249.846 361.168 251.349 361.023 252.9 361.335C254.437 361.652 256.046 362.339 257.365 363.543C258.038 364.124 258.63 364.832 259.116 365.625C259.614 366.411 259.999 367.295 260.232 368.235C260.741 370.108 260.611 372.209 259.861 374.124C259.078 376.026 257.718 377.634 256.055 378.635C255.236 379.153 254.346 379.525 253.442 379.748C252.542 379.984 251.625 380.087 250.736 380.04C248.951 379.996 247.314 379.379 245.984 378.544C244.648 377.696 243.664 376.552 242.988 375.405C241.632 373.069 241.587 370.769 241.829 369.333C242.079 367.868 242.502 367.151 242.502 367.151C242.564 367.171 242.214 367.921 242.032 369.361C241.856 370.775 241.965 372.995 243.309 375.214C243.978 376.303 244.936 377.382 246.219 378.174C247.497 378.953 249.059 379.526 250.752 379.553C251.594 379.591 252.462 379.488 253.313 379.259C254.168 379.043 255.008 378.687 255.78 378.194C257.35 377.242 258.628 375.724 259.369 373.927C260.076 372.117 260.204 370.137 259.729 368.364C259.512 367.474 259.152 366.636 258.684 365.889C258.228 365.135 257.673 364.46 257.038 363.905C255.797 362.754 254.273 362.086 252.812 361.764C251.338 361.448 249.899 361.564 248.663 361.887C246.158 362.559 244.543 364.087 243.691 365.229C242.827 366.395 242.561 367.179 242.502 367.151Z" fill="#C8D3D6"/>
<path d="M233.949 358.267C233.952 358.274 233.843 358.263 233.627 358.235C233.388 358.202 233.068 358.157 232.653 358.099C231.761 357.966 230.476 357.775 228.808 357.527L228.899 357.475C228.09 359.522 227.027 362.214 225.741 365.469L225.693 365.309C226.991 366.198 228.434 367.187 229.977 368.245L230.054 368.298L230.043 368.392C229.836 370.126 229.834 372.006 230.122 373.951L230.137 374.055L230.052 374.117C228.743 375.07 227.325 376.101 225.851 377.174L225.914 376.948C226.982 379.435 228.116 382.074 229.306 384.846L229.077 384.723C230.659 384.431 232.401 384.11 234.186 383.78L234.316 383.756L234.398 383.861C235.46 385.22 236.808 386.577 238.365 387.734L238.475 387.816L238.453 387.953C238.2 389.543 237.921 391.296 237.637 393.081L237.492 392.825C239.998 393.829 242.701 394.911 245.472 396.02L245.178 396.108C246.096 394.777 247.105 393.314 248.127 391.833L248.213 391.708L248.364 391.727C250.087 391.939 251.999 391.942 253.899 391.662L254.052 391.639L254.143 391.765C255.097 393.083 256.139 394.521 257.191 395.973L256.88 395.887C259.383 394.818 262.065 393.672 264.785 392.51L264.63 392.799C264.335 391.185 264.016 389.443 263.696 387.688L263.667 387.531L263.793 387.433C265.181 386.353 266.527 385.007 267.662 383.484L267.665 383.48L267.762 383.352L267.918 383.377C269.639 383.654 271.35 383.929 273.045 384.201L272.758 384.363C273.842 381.668 274.911 379.009 275.964 376.388L276.058 376.701C274.62 375.706 273.197 374.721 271.787 373.746L271.658 373.657L271.677 373.501C271.908 371.642 271.882 369.776 271.62 367.967L271.598 367.813L271.724 367.722C273.148 366.693 274.551 365.681 275.936 364.68L275.852 364.983C274.703 362.283 273.581 359.646 272.486 357.074L272.753 357.218C271.018 357.532 269.315 357.841 267.641 358.145L267.499 358.171L267.411 358.058C266.249 356.563 264.908 355.26 263.458 354.174L263.347 354.091L263.369 353.955C263.655 352.198 263.931 350.494 264.201 348.83L264.336 349.069C261.533 347.936 258.886 346.866 256.367 345.848L256.609 345.775C255.567 347.275 254.589 348.682 253.646 350.04L253.58 350.135L253.467 350.121C251.499 349.875 249.645 349.921 247.912 350.166L247.807 350.181L247.746 350.096C246.645 348.563 245.653 347.181 244.715 345.876L244.903 345.928C241.835 347.221 239.22 348.323 236.982 349.267L237.052 349.137C237.412 351.181 237.707 352.858 237.952 354.254L237.961 354.305L237.92 354.336C236.426 355.491 235.464 356.522 234.848 357.215C234.558 357.557 234.336 357.819 234.173 358.01C234.025 358.19 233.952 358.273 233.949 358.267C233.947 358.26 234.012 358.161 234.141 357.978C234.278 357.792 234.485 357.512 234.784 357.153C235.381 356.438 236.328 355.381 237.818 354.196L237.787 354.278C237.523 352.885 237.207 351.212 236.821 349.173L236.803 349.081L236.891 349.043C239.121 348.08 241.725 346.955 244.782 345.635L244.896 345.586L244.97 345.687C245.916 346.986 246.917 348.36 248.029 349.886L247.864 349.816C249.624 349.556 251.51 349.498 253.515 349.738L253.336 349.818C254.272 348.456 255.244 347.044 256.279 345.539L256.37 345.406L256.521 345.466C259.045 346.474 261.695 347.533 264.503 348.655L264.666 348.72L264.638 348.894C264.373 350.559 264.102 352.264 263.823 354.022L263.734 353.803C265.22 354.909 266.594 356.237 267.787 357.763L267.558 357.676C269.231 357.368 270.934 357.055 272.667 356.737L272.858 356.702L272.935 356.881C274.035 359.451 275.162 362.086 276.317 364.783L276.396 364.968L276.233 365.086C274.85 366.088 273.449 367.103 272.026 368.134L272.129 367.89C272.4 369.743 272.429 371.656 272.194 373.561L272.084 373.316C273.494 374.29 274.919 375.274 276.357 376.267L276.529 376.386L276.451 376.58C275.399 379.201 274.331 381.861 273.249 384.557L273.17 384.753L272.962 384.72C271.267 384.448 269.556 384.173 267.835 383.897L268.089 383.794L268.086 383.798C266.922 385.36 265.541 386.739 264.118 387.847L264.215 387.592C264.535 389.347 264.853 391.089 265.147 392.703L265.185 392.91L264.992 392.992C262.272 394.151 259.588 395.295 257.085 396.362L256.894 396.443L256.773 396.275C255.723 394.822 254.684 393.382 253.731 392.063L253.975 392.166C252.028 392.45 250.068 392.445 248.305 392.224L248.542 392.118C247.517 393.597 246.506 395.058 245.585 396.388L245.473 396.55L245.291 396.477C242.523 395.361 239.823 394.272 237.319 393.263L237.144 393.192L237.174 393.006C237.463 391.221 237.748 389.469 238.005 387.88L238.094 388.099C236.505 386.912 235.134 385.521 234.055 384.129L234.266 384.209C232.479 384.532 230.736 384.846 229.153 385.132L228.989 385.162L228.924 385.009C227.747 382.232 226.625 379.588 225.569 377.096L225.51 376.957L225.632 376.869C227.112 375.805 228.536 374.781 229.85 373.836L229.78 374.001C229.499 372.022 229.514 370.113 229.737 368.354L229.803 368.501C228.268 367.431 226.834 366.431 225.543 365.531L225.454 365.469L225.494 365.37C226.818 362.129 227.912 359.45 228.745 357.413L228.771 357.35L228.837 357.361C230.484 357.645 231.753 357.864 232.634 358.016C233.051 358.092 233.374 358.151 233.614 358.194C233.833 358.235 233.946 358.26 233.949 358.267Z" fill="#C8D3D6"/>
<path fill-rule="evenodd" clip-rule="evenodd" d="M214.422 252.738C216.055 248.296 218.262 244.153 220.945 240.388L215.084 228.841L231.573 215.163L241.838 223.056C246.034 221.115 250.514 219.712 255.181 218.927L259.2 206.623L280.532 208.611L282.208 221.445C286.65 223.078 290.794 225.286 294.559 227.97L306.106 222.109L319.783 238.599L311.89 248.865C313.831 253.061 315.234 257.54 316.018 262.207L328.324 266.227L326.336 287.558L313.502 289.234C311.869 293.676 309.661 297.82 306.977 301.584L312.838 313.131L296.349 326.809L286.083 318.915C281.888 320.856 277.408 322.259 272.741 323.043L268.722 335.349L247.39 333.361L245.714 320.527C241.272 318.894 237.128 316.687 233.363 314.003L221.816 319.864L208.138 303.375L216.032 293.109C214.091 288.913 212.688 284.434 211.904 279.767L199.599 275.748L201.587 254.416L214.422 252.738ZM241.168 267.884C239.99 280.523 249.281 291.723 261.919 292.901C274.557 294.079 285.758 284.788 286.935 272.15C288.113 259.511 278.822 248.311 266.184 247.133C253.546 245.955 242.345 255.246 241.168 267.884Z" fill="#FBD9B6"/>
<path d="M581.781 432.363C581.781 432.5 490.433 432.611 377.777 432.611C265.081 432.611 173.753 432.5 173.753 432.363C173.753 432.226 265.081 432.115 377.777 432.115C490.434 432.115 581.781 432.226 581.781 432.363Z" fill="#263238"/>
<path d="M362.323 125.794C356.03 128.555 352.369 135.336 350.996 142.069C349.623 148.802 350.073 155.76 349.478 162.606C348.883 169.452 347.005 176.607 342.009 181.324C337.353 185.72 330.495 187.51 326.528 192.537C323.583 196.269 322.719 201.541 324.318 206.018C325.917 210.495 329.926 214.026 334.569 215.048C331.431 220.017 333.002 226.955 337.016 231.248C341.03 235.541 346.927 237.586 352.737 238.471C362.957 240.027 373.856 238.308 382.489 232.62C391.122 226.932 397.163 217.054 397.142 206.716" fill="#263238"/>
<path d="M335.071 227.373C335.071 227.373 334.505 226.668 333.963 225.145C333.424 223.636 333.046 221.248 333.561 218.395C333.82 216.976 334.287 215.453 335.004 213.913C335.74 212.381 336.715 210.846 337.893 209.351C340.237 206.342 343.381 203.575 346.544 200.597C349.706 197.607 352.601 194.632 354.954 191.695C357.337 188.782 359.119 185.878 360.335 183.313C361.546 180.742 362.192 178.519 362.52 176.963C362.708 176.189 362.762 175.571 362.85 175.16C362.924 174.746 362.971 174.529 362.988 174.531C363.005 174.533 362.991 174.753 362.95 175.172C362.894 175.589 362.871 176.216 362.71 177.001C362.438 178.58 361.837 180.843 360.654 183.461C359.466 186.073 357.694 189.029 355.312 191.981C352.959 194.958 350.057 197.959 346.886 200.958C343.71 203.947 340.581 206.684 338.252 209.635C337.083 211.099 336.111 212.602 335.376 214.091C334.659 215.589 334.182 217.074 333.907 218.46C333.359 221.245 333.674 223.584 334.148 225.086C334.622 226.6 335.124 227.345 335.071 227.373Z" fill="#455A64"/>
<path d="M437.535 148.382C437.535 157.624 441.799 166.094 445.633 169.208C451.058 173.613 459.016 175.743 464.261 177.209C471.9 179.344 478.302 186.032 479.257 193.906C480.212 201.78 475.062 210.199 467.382 212.179C472.21 217.109 470.773 225.586 466.799 231.227C459.268 241.918 444.236 246.026 431.771 242.073C419.306 238.121 409.753 227.073 406.032 214.537" fill="#263238"/>
<path d="M456.54 239.403C456.506 239.319 457.763 239.319 459.478 238.11C460.315 237.505 461.227 236.582 461.939 235.291C462.664 234.017 463.203 232.38 463.255 230.534C463.301 228.694 462.752 226.673 461.71 224.769C460.663 222.86 459.108 221.07 457.219 219.502C453.434 216.311 448.284 214.318 443.305 211.455C440.824 210 438.522 208.311 436.696 206.266C435.782 205.25 434.993 204.146 434.386 202.972C433.776 201.802 433.358 200.562 433.093 199.336C432.559 196.871 432.611 194.466 432.77 192.262C432.937 190.052 433.218 188.015 433.413 186.152C433.822 182.433 433.776 179.382 433.274 177.348C433.139 176.851 433.018 176.405 432.911 176.01C432.797 175.625 432.643 175.32 432.549 175.061C432.346 174.549 432.246 174.275 432.262 174.267C432.277 174.259 432.407 174.518 432.641 175.021C432.75 175.275 432.92 175.578 433.05 175.962C433.171 176.358 433.309 176.805 433.462 177.303C434.029 179.349 434.129 182.447 433.762 186.186C433.589 188.058 433.328 190.097 433.18 192.29C433.04 194.477 433.008 196.843 433.539 199.236C434.052 201.626 435.242 203.979 437.059 205.94C438.842 207.928 441.104 209.587 443.556 211.025C448.48 213.861 453.664 215.878 457.513 219.15C459.43 220.758 461.011 222.598 462.072 224.571C463.128 226.54 463.676 228.625 463.607 230.542C463.53 232.455 462.949 234.13 462.181 235.427C461.426 236.74 460.467 237.67 459.59 238.265C458.717 238.884 457.905 239.11 457.379 239.274C456.829 239.377 456.542 239.42 456.54 239.403Z" fill="#455A64"/>
<path d="M474.543 208.568C474.451 208.535 475.346 207.807 475.476 206C475.519 205.119 475.343 204.009 474.762 202.884C474.195 201.766 473.276 200.583 471.928 199.754C470.572 198.925 468.871 198.404 467.014 198.095C465.153 197.772 463.123 197.654 460.993 197.324C456.737 196.666 452.19 194.985 448.058 192.208C443.935 189.415 440.675 185.818 438.501 182.099C436.305 178.38 435.146 174.613 434.576 171.419C434.005 168.212 434.034 165.56 434.167 163.754C434.237 162.849 434.321 162.15 434.407 161.68C434.482 161.209 434.529 160.963 434.546 160.965C434.605 160.973 434.432 161.962 434.36 163.765C434.286 165.563 434.312 168.191 434.921 171.356C435.529 174.507 436.708 178.214 438.894 181.866C441.058 185.518 444.275 189.045 448.335 191.797C452.405 194.532 456.876 196.199 461.064 196.873C463.16 197.212 465.197 197.345 467.084 197.69C468.968 198.023 470.713 198.574 472.113 199.457C473.519 200.35 474.446 201.592 475.011 202.762C475.588 203.939 475.744 205.099 475.669 206.013C475.59 206.938 475.261 207.597 475.01 208.004C474.876 208.203 474.749 208.339 474.673 208.434C474.593 208.529 474.55 208.574 474.543 208.568Z" fill="#455A64"/>
<path d="M366.811 256.714C368.127 242.905 369.26 228.343 369.26 228.343C369.26 228.343 351.766 223.64 350.365 200.074C349.029 177.599 357.704 126.858 357.704 126.858C384.327 118.938 413.967 128.872 430.203 151.155L417.664 263.136C416.208 276.136 403.871 285.238 389.963 283.573C375.917 281.89 365.557 269.87 366.811 256.714Z" fill="#F1A19A"/>
<path d="M360.358 167.418C360.148 168.984 361.301 170.453 362.932 170.703C364.56 170.952 366.053 169.888 366.263 168.322C366.473 166.756 365.321 165.285 363.692 165.036C362.062 164.786 360.569 165.853 360.358 167.418Z" fill="#263238"/>
<path d="M355.862 163.612C356.193 164.036 358.611 162.59 361.813 162.914C365.015 163.191 367.203 165.07 367.589 164.712C367.777 164.555 367.47 163.818 366.52 162.972C365.586 162.131 363.939 161.241 361.943 161.052C359.947 160.867 358.197 161.436 357.159 162.093C356.1 162.751 355.697 163.42 355.862 163.612Z" fill="#263238"/>
<path d="M393.084 171.21C392.874 172.776 394.027 174.245 395.658 174.495C397.286 174.744 398.779 173.68 398.989 172.114C399.199 170.548 398.046 169.077 396.418 168.827C394.787 168.578 393.294 169.644 393.084 171.21Z" fill="#263238"/>
<path d="M389.159 168.063C389.49 168.487 391.911 167.042 395.11 167.365C398.312 167.642 400.5 169.521 400.887 169.163C401.074 169.006 400.771 168.27 399.817 167.423C398.883 166.582 397.236 165.692 395.241 165.504C393.245 165.319 391.495 165.888 390.456 166.545C389.4 167.203 388.996 167.872 389.159 168.063Z" fill="#263238"/>
<path d="M375.201 190.667C375.234 190.486 373.277 189.947 370.092 189.217C369.283 189.052 368.525 188.813 368.442 188.242C368.307 187.632 368.737 186.784 369.226 185.872C370.189 183.969 371.198 181.974 372.257 179.884C376.487 171.349 379.636 164.299 379.291 164.132C378.946 163.965 375.236 170.746 371.006 179.281C369.983 181.387 369.005 183.395 368.073 185.317C367.672 186.216 367.036 187.217 367.333 188.484C367.493 189.117 368.05 189.619 368.56 189.812C369.068 190.023 369.527 190.077 369.93 190.142C373.159 190.635 375.171 190.848 375.201 190.667Z" fill="#263238"/>
<path d="M369.261 228.343C369.261 228.343 384.772 230.885 401.152 223.112C401.152 223.112 392.044 238.309 369.035 233.852L369.261 228.343Z" fill="#F1A19A"/>
<path d="M375.796 198.518C377.098 197.108 379.197 196.471 381.18 196.884C382.555 197.17 383.893 197.978 384.626 199.193C385.359 200.407 385.378 202.031 384.504 203.035C383.52 204.165 381.687 204.268 380.201 203.683C378.715 203.098 377.499 201.963 376.349 200.837C376.031 200.526 375.706 200.202 375.527 199.8C375.349 199.399 375.352 198.897 375.649 198.608" fill="#F1A19A"/>
<path d="M384.407 193.81C383.889 193.729 383.54 197.204 380.323 199.378C377.11 201.561 373.443 200.806 373.368 201.289C373.298 201.502 374.127 202.045 375.686 202.242C377.215 202.446 379.504 202.173 381.472 200.843C383.436 199.508 384.415 197.567 384.674 196.152C384.95 194.712 384.647 193.813 384.407 193.81Z" fill="#263238"/>
<path d="M419.162 175.909C421.69 175.673 424.307 175.999 426.584 177.122C428.861 178.244 430.769 180.209 431.563 182.621C432.359 185.039 431.99 187.745 430.897 190.044C429.804 192.343 428.035 194.267 426.056 195.868C424.635 197.018 423.047 198.039 421.257 198.414C419.468 198.788 417.441 198.416 416.168 197.104" fill="#F1A19A"/>
<path d="M419.053 191.086C418.76 191.15 419.691 192.757 422.02 192.37C423.14 192.19 424.3 191.335 425.065 190.198C425.834 189.043 426.387 187.749 426.705 186.202C427.015 184.669 426.824 182.988 426.086 181.731C425.39 180.456 424.129 179.619 423.015 179.485C420.687 179.203 419.805 180.748 420.064 180.822C420.232 181.029 421.219 180.285 422.711 180.803C424.148 181.216 425.388 183.373 424.825 185.85C424.296 188.376 423.085 190.616 421.669 191.065C420.186 191.645 419.229 190.896 419.053 191.086Z" fill="#AA6550"/>
<path d="M368.919 136.782C365.496 144.728 358.183 150.886 349.771 152.908C349.276 147.179 348.94 141.378 349.876 135.704C350.812 130.031 353.123 124.434 357.261 120.44C361.398 116.447 367.534 114.297 373.088 115.785" fill="#263238"/>
<path d="M370.519 126.256C367.633 133.515 368.82 142.246 373.539 148.471C378.258 154.697 386.342 158.199 394.111 157.384C395.634 157.224 397.226 156.919 398.655 157.47C400.18 158.058 401.184 159.494 402.093 160.852C405.791 166.379 409.699 172.124 415.528 175.325C421.357 178.526 429.703 178.211 433.6 172.823C435.496 170.202 436.053 166.872 436.493 163.668C437.971 152.895 438.576 141.332 433.443 131.746C429.629 124.624 422.928 119.33 415.516 116.117C408.104 112.904 399.988 111.628 391.924 111.134C387.238 110.847 382.387 110.841 378.041 112.617C373.695 114.393 369.942 118.339 369.696 123.027" fill="#263238"/>
<path d="M435.463 166.714C435.446 166.718 435.349 166.446 435.179 165.924C435.021 165.398 434.753 164.634 434.396 163.656C433.669 161.707 432.449 158.933 430.451 155.794C428.442 152.674 425.604 149.206 421.78 146.118C417.975 143.001 413.127 140.494 407.893 138.299C402.647 136.102 397.518 134.29 393.031 132.189C388.54 130.105 384.711 127.745 381.824 125.345C378.939 122.939 377 120.557 375.88 118.789C375.324 117.9 374.919 117.196 374.69 116.693C374.444 116.2 374.323 115.938 374.339 115.93C374.354 115.922 374.505 116.17 374.778 116.646C375.034 117.132 375.465 117.816 376.04 118.682C377.201 120.404 379.161 122.726 382.045 125.074C384.932 127.416 388.747 129.725 393.222 131.775C397.692 133.84 402.819 135.638 408.085 137.842C413.339 140.046 418.23 142.588 422.067 145.763C425.92 148.906 428.758 152.434 430.746 155.606C432.723 158.796 433.902 161.611 434.576 163.59C434.907 164.583 435.146 165.359 435.274 165.896C435.414 166.428 435.479 166.71 435.463 166.714Z" fill="#455A64"/>
<path d="M428.249 165.438C428.234 165.445 428.098 165.218 427.855 164.78C427.602 164.347 427.223 163.712 426.664 162.944C425.563 161.401 423.682 159.349 420.906 157.386C418.147 155.397 414.493 153.608 410.348 151.843C408.278 150.949 406.09 150.032 403.866 148.974C401.646 147.911 399.383 146.729 397.142 145.386C392.655 142.706 388.683 139.631 385.496 136.405C382.301 133.183 379.898 129.837 378.224 126.848C376.536 123.861 375.581 121.237 375.024 119.41C374.763 118.489 374.571 117.772 374.476 117.277C374.371 116.785 374.324 116.525 374.34 116.521C374.357 116.517 374.436 116.77 374.573 117.253C374.699 117.739 374.92 118.445 375.208 119.352C375.819 121.152 376.816 123.735 378.529 126.675C380.227 129.616 382.637 132.909 385.819 136.083C388.995 139.262 392.939 142.299 397.396 144.961C399.622 146.295 401.869 147.473 404.075 148.536C406.283 149.594 408.462 150.517 410.53 151.424C414.671 153.215 418.347 155.053 421.111 157.102C423.892 159.123 425.759 161.241 426.822 162.833C427.362 163.626 427.718 164.282 427.943 164.733C428.159 165.189 428.265 165.431 428.249 165.438Z" fill="#455A64"/>
<path d="M349.852 162.117C349.836 162.123 349.759 161.939 349.627 161.583C349.499 161.226 349.298 160.7 349.079 160.011C348.711 158.617 348.192 156.569 348.077 153.973C347.962 151.389 348.164 148.263 349.104 144.956C350.04 141.665 351.591 138.138 354.068 135.027C355.259 133.436 356.674 132.094 358.089 130.875C359.536 129.69 361.03 128.688 362.453 127.751C365.309 125.895 367.859 124.194 369.673 122.383C371.516 120.604 372.628 118.82 373.208 117.517C373.788 116.208 373.92 115.412 373.972 115.426C373.989 115.43 373.958 115.627 373.884 116.001C373.803 116.373 373.652 116.917 373.385 117.593C372.852 118.94 371.761 120.792 369.92 122.631C368.108 124.505 365.541 126.259 362.705 128.132C361.291 129.078 359.816 130.08 358.397 131.251C357.012 132.454 355.627 133.77 354.458 135.333C352.026 138.387 350.489 141.847 349.543 145.081C348.593 148.331 348.358 151.407 348.427 153.961C348.496 156.527 348.957 158.563 349.265 159.962C349.451 160.611 349.602 161.137 349.721 161.552C349.823 161.916 349.868 162.111 349.852 162.117Z" fill="#455A64"/>
<path d="M407.161 208.39C401.743 208.39 396.308 206.544 392.304 202.941L392.94 202.234C399.891 208.488 411.353 209.211 419.035 203.883C426.718 198.554 430.055 187.564 426.632 178.863L427.517 178.514C431.095 187.608 427.607 199.094 419.578 204.664C415.974 207.165 411.573 208.39 407.161 208.39Z" fill="#E8505B"/>
<path d="M399.429 204.32C399.429 206.865 397.366 208.927 394.822 208.927C392.277 208.927 390.215 206.864 390.215 204.32C390.215 201.776 392.278 199.713 394.822 199.713C397.366 199.713 399.429 201.776 399.429 204.32Z" fill="#E8505B"/>
<path d="M445.513 182.756C446.55 174.297 440.534 166.598 432.075 165.561C423.616 164.524 415.919 170.541 414.881 179C413.844 187.459 419.861 195.158 428.319 196.195C436.778 197.232 444.476 191.215 445.513 182.756Z" fill="#E8505B"/>
<path d="M427.705 178.753C427.603 178.742 427.64 177.346 427.794 174.839C427.844 173.572 427.904 172.04 427.974 170.269C427.992 168.487 428.05 166.461 427.979 164.223C427.978 163.103 427.903 161.934 427.836 160.716C427.793 159.496 427.652 158.235 427.531 156.929C427.432 155.619 427.183 154.285 427.01 152.9C426.882 152.215 426.752 151.519 426.621 150.815C426.499 150.108 426.349 149.398 426.162 148.688C424.854 142.982 422.391 136.854 418.084 131.673C413.782 126.483 408.154 123.006 402.701 120.893C397.232 118.749 391.973 117.725 387.555 117.086C383.123 116.467 379.493 116.281 376.988 116.104C374.48 115.99 373.088 115.889 373.087 115.784C373.086 115.683 374.477 115.589 377.001 115.525C379.522 115.525 383.183 115.551 387.686 116.043C392.174 116.557 397.546 117.484 403.197 119.616C408.825 121.714 414.731 125.295 419.226 130.722C423.728 136.137 426.232 142.524 427.497 148.382C427.679 149.113 427.823 149.842 427.937 150.566C428.06 151.288 428.182 152 428.302 152.702C428.456 154.116 428.684 155.481 428.758 156.813C428.855 158.143 428.968 159.426 428.982 160.662C429.019 161.898 429.063 163.083 429.031 164.214C429.035 166.477 428.902 168.518 428.805 170.309C428.657 172.097 428.515 173.635 428.372 174.888C428.039 177.39 427.807 178.764 427.705 178.753Z" fill="#E8505B"/>
<g opacity="0.4">
<path d="M441.246 180.898C441.246 186.764 436.491 191.519 430.625 191.519C424.759 191.519 420.004 186.764 420.004 180.898C420.004 175.032 424.759 170.277 430.625 170.277C436.49 170.278 441.246 175.033 441.246 180.898Z" fill="black"/>
</g>
<path d="M427.131 170.993C427.124 170.977 427.286 170.893 427.606 170.746C427.928 170.607 428.421 170.437 429.079 170.31C430.374 170.08 432.452 170.067 434.588 171.253C435.643 171.829 436.689 172.733 437.418 173.968C438.165 175.189 438.573 176.719 438.554 178.324C438.539 179.925 438.047 181.631 436.985 183.042C435.925 184.454 434.301 185.48 432.497 185.916C430.694 186.357 428.781 186.194 427.187 185.434C425.586 184.676 424.385 183.363 423.647 181.943C422.905 180.514 422.625 178.955 422.74 177.531C422.87 176.096 423.408 174.847 424.051 173.833C425.356 171.786 427.154 170.723 428.449 170.407C429.099 170.23 429.628 170.221 429.978 170.233C430.329 170.266 430.51 170.292 430.508 170.309C430.511 170.382 429.755 170.201 428.502 170.592C427.266 170.953 425.567 172.023 424.348 174.018C423.748 175.006 423.254 176.214 423.15 177.563C423.059 178.909 423.339 180.384 424.052 181.731C424.761 183.07 425.901 184.295 427.394 184.994C428.881 185.697 430.679 185.85 432.38 185.434C434.082 185.023 435.607 184.06 436.598 182.749C437.594 181.438 438.073 179.833 438.098 178.315C438.128 176.795 437.756 175.339 437.064 174.177C436.391 173.003 435.415 172.129 434.415 171.558C432.391 170.382 430.382 170.334 429.109 170.501C427.811 170.69 427.151 171.048 427.131 170.993Z" fill="#263238"/>
<path d="M430.533 191.36C430.401 191.383 430.105 190.268 430.048 188.855C429.988 187.442 430.191 186.306 430.324 186.318C430.464 186.329 430.484 187.455 430.543 188.835C430.598 190.213 430.671 191.337 430.533 191.36Z" fill="#263238"/>
<path d="M436.392 189.297C436.264 189.347 435.771 188.385 435.289 187.149C434.807 185.913 434.52 184.871 434.648 184.821C434.776 184.771 435.269 185.733 435.751 186.969C436.232 188.205 436.519 189.247 436.392 189.297Z" fill="#263238"/>
<path d="M440.339 184.679C440.247 184.78 439.519 184.268 438.714 183.536C437.908 182.803 437.33 182.127 437.422 182.026C437.514 181.925 438.242 182.436 439.048 183.169C439.853 183.901 440.431 184.577 440.339 184.679Z" fill="#263238"/>
<path d="M440.62 178.231C440.573 178.36 440.045 178.287 439.441 178.069C438.836 177.85 438.384 177.569 438.43 177.44C438.477 177.311 439.004 177.384 439.609 177.603C440.214 177.82 440.667 178.102 440.62 178.231Z" fill="#263238"/>
<path d="M423.596 188.978C423.47 188.936 423.745 187.806 424.396 186.541C425.043 185.273 425.8 184.391 425.908 184.468C426.024 184.548 425.467 185.533 424.837 186.767C424.203 187.998 423.728 189.025 423.596 188.978Z" fill="#263238"/>
<path d="M420.43 183.567C420.334 183.469 420.938 182.721 421.78 181.896C422.621 181.071 423.381 180.481 423.477 180.579C423.573 180.677 422.969 181.425 422.127 182.25C421.285 183.076 420.525 183.665 420.43 183.567Z" fill="#263238"/>
<path d="M422.908 176.211C422.943 176.343 422.512 176.573 421.946 176.723C421.379 176.874 420.891 176.888 420.856 176.756C420.821 176.624 421.252 176.394 421.819 176.244C422.384 176.093 422.872 176.079 422.908 176.211Z" fill="#263238"/>
<path d="M503.616 260.627C502.619 254.976 500.41 251.906 498.761 250.299C497.215 248.791 495.723 247.221 493.873 246.096C491.629 244.73 488.578 243.035 486.628 242.614C484.215 242.092 483.628 238.955 485.649 238.062C487.67 237.171 494.35 238.447 500.776 243.171C507.201 247.896 503.951 235.926 502.846 231.546C501.739 227.165 498.958 213.466 500.042 212.095C501.633 210.085 504.144 211.45 505.146 215.849C506.161 220.301 510.087 233.25 512.384 232.615C514.647 231.99 508.712 209.756 508.712 209.756C508.712 209.756 506.671 205.189 509.299 204.368C514.039 202.886 518.599 226.94 518.976 229.238C519.237 230.837 521.761 230.236 521.387 228.534C521.002 226.781 514.949 206.48 519.759 204.925C523.451 203.732 523.697 224.682 527.3 228.258C530.906 231.833 525.482 212.351 529.059 211.355C530.39 210.985 531.44 210.893 532.932 222.487C533.734 228.718 533.213 237.309 535.645 249.199" fill="#F1A19A"/>
<path d="M491.631 305.349L513.49 336.719L502.991 255.816L534.243 243.493C534.243 243.493 573.682 394.687 520.785 396.815C520.785 396.815 484.184 395.812 456.864 332.446L491.631 305.349Z" fill="#F1A19A"/>
<path d="M526.69 242.897C526.746 242.978 526.005 243.469 525.045 244.546C524.09 245.608 522.949 247.345 522.483 249.587L522.36 250.178L521.925 249.743C521.437 249.255 520.91 248.762 520.31 248.328C518.042 246.646 515.499 245.94 513.666 245.75C511.817 245.552 510.654 245.753 510.639 245.639C510.62 245.573 511.772 245.197 513.703 245.279C515.612 245.352 518.315 246.016 520.708 247.79C521.34 248.248 521.894 248.772 522.401 249.294L521.844 249.45C522.375 247.063 523.664 245.276 524.74 244.253C525.827 243.214 526.661 242.843 526.69 242.897Z" fill="#AA6550"/>
<path d="M475.928 370.755L449.475 337.2L442.601 371.519C439.816 385.42 441.251 399.836 446.721 412.915L450.135 421.078H327.652L330.714 410.174C332.441 396.814 330.128 382.865 330.531 363.731L327.128 342.16L308.6 421.078H254.127C254.127 421.078 284.028 298.588 302.757 274.353C326.371 243.796 367.626 247.827 367.626 247.827L392.904 287.446L417.588 251.723C417.588 251.723 460.009 242.706 493.125 299.726L510.847 330.1L502.619 267.573L540.97 258.719C540.97 258.719 554.821 320.153 553.91 353.047C553.097 382.428 540.593 397.843 523.262 399.359C496.02 401.743 475.928 370.755 475.928 370.755Z" fill="#006F7E"/>
<path d="M367.627 247.827L368.059 242.892C368.059 242.892 386.782 247.053 393.059 279.743C393.059 279.743 399.357 249.574 419.523 246.535L422.924 255.226L410.542 287.462L388.796 293.818L367.641 287.462L358.019 268.355L367.627 247.827Z" fill="#006F7E"/>
<path d="M315.454 260.827C315.471 260.826 315.503 261.118 315.549 261.674C315.592 262.273 315.651 263.084 315.725 264.106C315.861 266.219 316.081 269.275 316.385 273.047C316.988 280.592 318.024 291.001 319.654 302.434C321.294 313.869 323.217 324.152 324.753 331.564C325.519 335.27 326.163 338.265 326.626 340.331C326.841 341.333 327.012 342.128 327.139 342.715C327.251 343.261 327.302 343.55 327.285 343.554C327.268 343.558 327.185 343.277 327.042 342.738C326.893 342.156 326.692 341.368 326.439 340.375C325.919 338.322 325.222 335.337 324.411 331.637C322.786 324.238 320.806 313.953 319.164 302.505C317.532 291.059 316.55 280.632 316.036 273.074C315.777 269.295 315.609 266.234 315.533 264.117C315.498 263.092 315.47 262.279 315.45 261.679C315.436 261.121 315.437 260.828 315.454 260.827Z" fill="#263238"/>
<path d="M422.461 250.558C422.475 250.568 422.383 250.73 422.194 251.03C421.971 251.373 421.693 251.803 421.352 252.329C420.578 253.511 419.521 255.124 418.233 257.091C415.614 261.121 412.076 266.74 408.401 273.084C408.256 273.334 408.111 273.584 407.977 273.815L407.739 274.225L407.538 273.797C406.783 272.187 406.015 270.616 404.847 269.47C403.701 268.331 402.137 267.639 400.679 267.911C399.215 268.139 398.06 269.137 397.241 270.167C396.406 271.219 395.882 272.37 395.525 273.463C394.818 275.656 394.407 277.508 393.884 278.706C393.642 279.312 393.396 279.756 393.229 280.054C393.047 280.345 392.945 280.492 392.931 280.483C392.892 280.461 393.274 279.852 393.707 278.638C394.17 277.432 394.523 275.596 395.197 273.355C395.538 272.239 396.065 271.025 396.921 269.917C397.764 268.832 398.977 267.738 400.606 267.464C402.235 267.149 403.966 267.916 405.185 269.124C406.439 270.347 407.229 271.976 407.987 273.585L407.548 273.567C407.682 273.336 407.827 273.086 407.972 272.835C411.652 266.481 415.244 260.882 417.94 256.897C419.287 254.904 420.405 253.309 421.192 252.219C421.565 251.714 421.869 251.301 422.112 250.972C422.327 250.691 422.447 250.548 422.461 250.558Z" fill="#263238"/>
<path d="M404.633 269.07C404.647 269.079 404.577 269.224 404.431 269.492C404.251 269.807 404.033 270.189 403.769 270.651C403.136 271.713 402.287 273.137 401.257 274.866C400.168 276.657 398.89 278.76 397.477 281.083C396.76 282.252 396.008 283.477 395.23 284.746C394.834 285.384 394.432 286.032 394.024 286.69C393.903 286.859 393.761 287.033 393.55 287.167C393.343 287.307 393.033 287.355 392.788 287.271C392.284 287.108 392.042 286.665 391.836 286.362C388.318 281.077 385.702 275.973 383.65 272.38C382.638 270.574 381.806 269.121 381.22 268.123C380.636 267.124 380.314 266.569 380.345 266.549C380.359 266.54 380.459 266.666 380.636 266.915C380.811 267.165 381.071 267.533 381.385 268.021C382.023 268.99 382.903 270.419 383.955 272.205C386.087 275.758 388.754 280.837 392.248 286.084C392.467 286.427 392.665 286.716 392.935 286.797C393.177 286.886 393.416 286.7 393.623 286.404C394.028 285.756 394.426 285.117 394.818 284.49C395.605 283.227 396.364 282.007 397.089 280.843C398.536 278.54 399.845 276.456 400.96 274.681C402.046 272.986 402.94 271.59 403.606 270.549C403.901 270.107 404.146 269.74 404.347 269.439C404.52 269.188 404.618 269.061 404.633 269.07Z" fill="#263238"/>
<path d="M472.448 271.969C472.463 271.977 472.365 272.202 472.164 272.623C471.937 273.084 471.638 273.692 471.264 274.451C470.464 276.029 469.344 278.332 468.004 281.195C466.657 284.056 465.137 287.501 463.536 291.362C461.957 295.232 460.31 299.523 458.733 304.081C457.172 308.646 455.83 313.043 454.694 317.066C453.581 321.095 452.659 324.746 451.961 327.831C451.256 330.913 450.722 333.417 450.382 335.153C450.21 335.982 450.072 336.645 449.967 337.148C449.867 337.603 449.806 337.841 449.789 337.838C449.772 337.835 449.8 337.592 449.869 337.131C449.951 336.623 450.058 335.954 450.193 335.118C450.475 333.37 450.957 330.852 451.619 327.755C452.274 324.656 453.162 320.989 454.254 316.945C455.369 312.907 456.7 308.496 458.265 303.92C459.846 299.352 461.51 295.056 463.115 291.187C464.742 287.328 466.298 283.89 467.688 281.044C469.071 278.195 470.24 275.914 471.093 274.362C471.502 273.62 471.828 273.026 472.076 272.576C472.305 272.17 472.433 271.961 472.448 271.969Z" fill="#263238"/>
<path d="M416.422 396.236C416.42 396.253 416.157 396.244 415.657 396.21C415.111 396.167 414.383 396.11 413.47 396.037C412.52 395.963 411.36 395.856 410.017 395.689C408.674 395.527 407.14 395.372 405.456 395.11C402.08 394.65 398.081 393.954 393.668 393.04C389.263 392.094 384.449 390.91 379.461 389.439C374.478 387.945 369.798 386.306 365.591 384.692C361.396 383.047 357.666 381.444 354.587 379.985C353.034 379.285 351.664 378.577 350.451 377.978C349.235 377.384 348.205 376.839 347.369 376.383C346.565 375.945 345.924 375.595 345.444 375.333C345.007 375.088 344.781 374.952 344.789 374.937C344.797 374.922 345.039 375.028 345.491 375.244C345.982 375.485 346.637 375.807 347.458 376.211C348.307 376.641 349.348 377.16 350.574 377.729C351.797 378.303 353.175 378.988 354.735 379.666C357.827 381.082 361.562 382.648 365.757 384.266C369.963 385.853 374.634 387.474 379.604 388.965C384.579 390.432 389.376 391.626 393.765 392.595C398.161 393.532 402.145 394.261 405.508 394.765C407.185 395.049 408.713 395.228 410.051 395.416C411.389 395.609 412.545 395.744 413.49 395.847C414.398 395.958 415.123 396.046 415.666 396.112C416.163 396.176 416.423 396.219 416.422 396.236Z" fill="#263238"/>
<path d="M411.005 398.379C411.008 398.396 410.834 398.44 410.501 398.509C410.112 398.583 409.629 398.674 409.039 398.786C407.769 399.021 405.922 399.312 403.633 399.627C399.057 400.26 392.697 400.905 385.648 401.154C378.596 401.395 372.207 401.193 367.597 400.879C365.292 400.724 363.43 400.562 362.146 400.415C361.55 400.344 361.062 400.287 360.669 400.24C360.332 400.195 360.156 400.162 360.157 400.145C360.159 400.128 360.338 400.127 360.678 400.14C361.073 400.162 361.563 400.189 362.162 400.222C363.449 400.31 365.313 400.418 367.616 400.529C372.222 400.753 378.596 400.899 385.63 400.659C392.661 400.411 399.008 399.823 403.588 399.28C405.878 399.01 407.73 398.772 409.008 398.596C409.603 398.522 410.091 398.46 410.483 398.411C410.823 398.373 411.003 398.362 411.005 398.379Z" fill="#263238"/>
<path d="M454.35 343.383C454.334 343.378 454.384 343.131 454.494 342.663C454.621 342.151 454.79 341.473 455.001 340.625C455.463 338.807 456.11 336.263 456.903 333.142C458.509 326.824 460.643 318.072 463.266 308.471C464.589 303.672 465.94 299.124 467.251 295.014C468.584 290.911 469.86 287.239 471.039 284.196C471.601 282.664 472.177 281.304 472.664 280.104C473.145 278.901 473.592 277.878 473.971 277.048C474.333 276.252 474.622 275.616 474.841 275.136C475.045 274.701 475.159 274.476 475.175 274.483C475.191 274.49 475.107 274.728 474.932 275.176C474.735 275.665 474.475 276.313 474.148 277.123C473.797 277.963 473.376 278.996 472.921 280.207C472.459 281.416 471.907 282.782 471.367 284.319C470.232 287.372 468.993 291.049 467.686 295.153C466.401 299.264 465.064 303.809 463.743 308.603C461.123 318.195 458.935 326.933 457.242 333.231C456.398 336.381 455.7 338.926 455.187 340.676C454.938 341.514 454.74 342.184 454.59 342.69C454.448 343.148 454.366 343.387 454.35 343.383Z" fill="#263238"/>
<path d="M326.492 341.741C326.479 341.752 326.3 341.544 325.971 341.138C325.653 340.724 325.139 340.145 324.575 339.328C323.392 337.733 321.829 335.309 320.207 332.146C318.578 328.987 316.976 325.051 315.623 320.551C314.268 316.051 313.195 310.986 312.436 305.622C310.978 294.875 310.739 285.063 310.298 277.996C310.1 274.459 309.914 271.598 309.765 269.622C309.695 268.669 309.64 267.911 309.599 267.346C309.565 266.825 309.555 266.551 309.572 266.549C309.589 266.547 309.632 266.818 309.698 267.336C309.761 267.854 309.861 268.618 309.957 269.605C310.165 271.577 310.405 274.437 310.648 277.974C311.178 285.041 311.474 294.847 312.927 305.553C313.684 310.896 314.737 315.939 316.061 320.421C317.383 324.904 318.941 328.827 320.521 331.989C322.093 335.154 323.603 337.594 324.733 339.217C325.271 340.048 325.758 340.644 326.05 341.077C326.353 341.501 326.506 341.73 326.492 341.741Z" fill="#263238"/>
<path d="M321.839 319.723C321.868 319.869 320.42 320.183 318.883 321.096C317.334 321.991 316.353 323.1 316.239 323.004C316.132 322.939 316.991 321.621 318.632 320.669C320.265 319.703 321.835 319.597 321.839 319.723Z" fill="#263238"/>
<path d="M320.908 306.879C320.926 307.03 319.107 307.19 317.175 308.223C315.228 309.23 314.066 310.639 313.952 310.538C313.841 310.483 314.886 308.854 316.945 307.784C318.991 306.694 320.926 306.756 320.908 306.879Z" fill="#263238"/>
<path d="M318.099 295.138C318.107 295.287 316.67 295.361 315.135 296.138C313.588 296.891 312.66 297.99 312.546 297.894C312.433 297.837 313.248 296.511 314.914 295.694C316.573 294.861 318.122 295.014 318.099 295.138Z" fill="#263238"/>
<path d="M316.732 283.02C316.751 283.164 315.481 283.407 314.039 284.03C312.591 284.64 311.537 285.389 311.446 285.275C311.358 285.182 312.32 284.218 313.844 283.574C315.364 282.92 316.726 282.892 316.732 283.02Z" fill="#263238"/>
<path d="M315.945 273.22C315.964 273.365 314.676 273.597 313.245 274.278C311.806 274.944 310.805 275.786 310.705 275.679C310.609 275.596 311.509 274.538 313.034 273.829C314.553 273.109 315.942 273.092 315.945 273.22Z" fill="#263238"/>
<path d="M456.921 328.403C456.803 328.487 456.151 327.61 454.958 327.141C453.776 326.644 452.697 326.817 452.671 326.674C452.608 326.556 453.793 326.122 455.145 326.681C456.502 327.225 457.048 328.363 456.921 328.403Z" fill="#263238"/>
<path d="M460.642 318.388C460.509 318.449 459.992 316.956 458.439 315.98C456.91 314.964 455.337 315.108 455.338 314.961C455.329 314.904 455.709 314.773 456.35 314.793C456.987 314.81 457.878 315.029 458.708 315.563C459.535 316.1 460.102 316.822 460.379 317.396C460.661 317.972 460.698 318.372 460.642 318.388Z" fill="#263238"/>
<path d="M463.43 307.385C463.312 307.473 462.509 306.238 460.902 305.624C459.31 304.971 457.879 305.32 457.854 305.175C457.836 305.118 458.17 304.941 458.768 304.857C459.362 304.771 460.221 304.823 461.085 305.163C461.947 305.507 462.609 306.058 462.982 306.527C463.36 306.998 463.482 307.355 463.43 307.385Z" fill="#263238"/>
<path d="M466.715 296.809C466.587 296.875 466.066 295.895 464.912 295.305C463.774 294.685 462.67 294.808 462.653 294.664C462.641 294.604 462.909 294.48 463.377 294.454C463.842 294.425 464.505 294.531 465.143 294.867C465.78 295.205 466.241 295.693 466.479 296.093C466.723 296.494 466.771 296.784 466.715 296.809Z" fill="#263238"/>
<path d="M470.559 287.099C470.433 287.164 469.895 285.983 468.527 285.375C467.177 284.726 465.929 285.08 465.897 284.942C465.876 284.887 466.159 284.703 466.689 284.615C467.214 284.524 467.985 284.58 468.735 284.925C469.484 285.273 470.025 285.824 470.296 286.283C470.572 286.745 470.615 287.08 470.559 287.099Z" fill="#263238"/>
<path d="M407.696 273.22C407.711 273.229 407.637 273.388 407.481 273.684C407.293 274.025 407.061 274.448 406.778 274.962C406.156 276.065 405.239 277.652 404.08 279.598C402.921 281.543 401.521 283.849 399.917 286.378C399.114 287.642 398.259 288.962 397.342 290.313C396.418 291.659 395.468 293.055 394.317 294.382C394.02 294.712 393.739 295.034 393.291 295.3C393.181 295.377 393.024 295.4 392.853 295.387C392.695 295.377 392.599 295.308 392.47 295.267C392.263 295.15 392.065 295.026 391.902 294.882C391.226 294.319 390.683 293.684 390.152 293.057C389.104 291.793 388.18 290.517 387.317 289.29C385.596 286.833 384.137 284.563 382.93 282.647C381.726 280.728 380.78 279.158 380.141 278.065C379.85 277.555 379.612 277.136 379.419 276.797C379.26 276.504 379.184 276.345 379.198 276.337C379.213 276.328 379.317 276.469 379.504 276.746C379.718 277.071 379.982 277.474 380.305 277.964C381.034 279.086 382.022 280.606 383.225 282.458C384.468 284.348 385.956 286.594 387.69 289.027C388.56 290.241 389.488 291.506 390.525 292.746C391.047 293.358 391.591 293.986 392.212 294.498C392.512 294.739 392.892 295.006 393.077 294.855C393.36 294.687 393.677 294.367 393.948 294.053C395.062 292.77 396.02 291.375 396.942 290.041C397.86 288.7 398.721 287.388 399.533 286.133C401.156 283.621 402.585 281.337 403.782 279.417C404.949 277.541 405.907 276.001 406.614 274.865C406.929 274.37 407.188 273.963 407.397 273.635C407.578 273.353 407.681 273.211 407.696 273.22Z" fill="#263238"/>
<path d="M386.391 287.447C386.334 287.455 386.215 287.111 386.258 286.534C386.297 285.961 386.55 285.169 387.099 284.47C387.651 283.773 388.363 283.343 388.912 283.173C389.463 282.997 389.825 283.033 389.831 283.091C389.868 283.229 388.479 283.485 387.489 284.777C386.46 286.041 386.533 287.451 386.391 287.447Z" fill="#263238"/>
<path d="M392.96 295.332C392.83 295.35 392.49 293.592 392.477 291.392C392.458 289.191 392.774 287.429 392.904 287.445C393.045 287.46 392.954 289.221 392.973 291.388C392.985 293.555 393.101 295.315 392.96 295.332Z" fill="#263238"/>
<path d="M400.419 285.286C400.28 285.325 399.969 284.219 398.93 283.373C397.912 282.5 396.769 282.391 396.783 282.247C396.784 282.186 397.08 282.12 397.558 282.195C398.032 282.267 398.677 282.516 399.248 282.992C399.817 283.47 400.177 284.06 400.332 284.514C400.491 284.971 400.479 285.274 400.419 285.286Z" fill="#263238"/>
<path d="M405.292 277.135C405.149 277.156 404.978 276.031 404.059 275.072C403.164 274.09 402.053 273.844 402.084 273.703C402.093 273.643 402.392 273.613 402.853 273.745C403.312 273.873 403.916 274.196 404.421 274.734C404.924 275.274 405.205 275.899 405.303 276.365C405.402 276.834 405.353 277.131 405.292 277.135Z" fill="#263238"/>
<path d="M381.42 279.985C381.363 279.998 381.205 279.609 381.18 278.939C381.152 278.273 381.31 277.329 381.793 276.419C382.28 275.51 382.975 274.852 383.544 274.504C384.115 274.151 384.526 274.066 384.546 274.12C384.621 274.247 383.116 274.939 382.23 276.651C381.303 278.341 381.568 279.977 381.42 279.985Z" fill="#263238"/>
<g opacity="0.4">
<path d="M367.371 247.753C369.514 255.971 373.09 269.355 376.963 279.83C377.14 280.309 377.33 280.806 377.701 281.158C378.684 282.093 380.374 281.519 381.301 280.528C382.18 279.588 382.693 278.372 383.411 277.304C384.129 276.236 385.191 275.25 386.477 275.206C387.526 275.17 388.507 275.784 389.199 276.573C389.891 277.362 390.353 278.321 390.866 279.236C391.142 279.728 391.496 280.257 392.049 280.371C392.602 280.485 393.211 279.984 392.894 279.378L389.469 270.5C389.469 270.5 387.899 263.987 382.454 265C376.367 266.133 379.127 276.128 379.127 276.128C379.127 276.128 367.28 247.405 367.371 247.753Z" fill="black"/>
</g>
<path d="M393.059 279.743C393.043 279.75 392.943 279.549 392.765 279.161C392.589 278.773 392.341 278.195 392.032 277.447C391.414 275.889 390.557 273.727 389.508 271.08C389.237 270.411 388.953 269.71 388.634 268.994C388.317 268.27 387.966 267.559 387.388 266.971C386.251 265.813 384.477 265.016 382.647 265.204C381.762 265.326 380.822 265.686 380.148 266.324C379.472 266.976 379.123 267.938 378.797 268.911C378.48 269.849 378.488 270.902 378.591 271.951C378.694 273.003 378.905 274.066 379.154 275.133C379.25 275.523 379.347 275.912 379.436 276.273L378.962 276.415C377.558 272.384 375.946 268.654 374.475 265.275C372.995 261.898 371.649 258.869 370.589 256.298C369.526 253.729 368.749 251.619 368.279 250.141C368.03 249.407 367.876 248.825 367.766 248.432C367.659 248.039 367.61 247.831 367.626 247.826C367.642 247.821 367.722 248.02 367.859 248.403C367.999 248.785 368.182 249.356 368.457 250.079C368.981 251.533 369.803 253.617 370.906 256.164C372.005 258.712 373.382 261.723 374.887 265.092C376.384 268.464 378.015 272.197 379.43 276.253L378.956 276.395C378.866 276.031 378.769 275.639 378.672 275.245C378.42 274.165 378.206 273.084 378.1 271.997C377.998 270.919 377.983 269.799 378.337 268.756C378.672 267.778 379.035 266.74 379.82 265.982C380.615 265.248 381.603 264.884 382.598 264.749C384.606 264.562 386.47 265.429 387.686 266.686C388.303 267.324 388.682 268.118 388.985 268.839C389.298 269.569 389.574 270.276 389.835 270.951C390.824 273.622 391.631 275.803 392.213 277.376C392.479 278.096 392.693 278.676 392.859 279.122C393.005 279.523 393.075 279.736 393.059 279.743Z" fill="#263238"/>
<g opacity="0.4">
<path d="M393.545 279.498C393.338 279.64 393.49 280.007 393.735 280.061C393.98 280.115 394.223 279.97 394.421 279.816C395.695 278.831 396.406 277.309 397.303 275.971C398.2 274.634 399.514 273.352 401.124 273.345C402.835 273.338 404.206 274.771 405.051 276.259C405.896 277.747 406.473 279.432 407.691 280.634C413.816 271.654 418.711 261.837 422.199 251.542C420.19 252.934 418.875 255.094 417.618 257.19C414.371 262.605 411.124 268.021 407.877 273.436C407.195 271.855 406.389 270.282 405.133 269.105C403.877 267.928 402.087 267.2 400.411 267.593C398.515 268.038 397.202 269.752 396.275 271.465C394.919 273.972 394.032 276.731 393.673 279.558" fill="black"/>
</g>
<path d="M521.25 359.61C521.219 359.626 520.99 359.236 520.601 358.517C520.209 357.8 519.674 356.745 519.041 355.427C517.774 352.793 516.161 349.084 514.654 344.883C513.151 340.679 512.042 336.789 511.349 333.95C511.001 332.53 510.745 331.376 510.592 330.573C510.436 329.771 510.366 329.324 510.4 329.316C510.433 329.308 510.567 329.741 510.78 330.529C511.02 331.41 511.324 332.528 511.688 333.861C512.466 336.67 513.623 340.528 515.121 344.716C516.622 348.901 518.177 352.616 519.359 355.28C519.925 356.541 520.399 357.598 520.773 358.431C521.109 359.175 521.281 359.594 521.25 359.61Z" fill="#263238"/>
<path d="M511.743 357.73C511.71 357.739 511.569 357.35 511.342 356.636C511.11 355.924 510.82 354.879 510.502 353.578C509.863 350.977 509.188 347.325 508.862 343.245C508.543 339.163 508.638 335.449 508.861 332.781C508.971 331.446 509.094 330.369 509.211 329.629C509.323 328.888 509.401 328.482 509.435 328.486C509.469 328.49 509.456 328.905 509.402 329.65C509.344 330.394 509.274 331.472 509.21 332.803C509.077 335.465 509.039 339.152 509.355 343.206C509.678 347.258 510.294 350.893 510.843 353.501C511.116 354.806 511.353 355.86 511.527 356.585C511.697 357.313 511.776 357.72 511.743 357.73Z" fill="#263238"/>
<path d="M542.299 270.19C542.309 270.169 542.549 270.26 543.064 270.483L543.214 270.548L543.055 270.606C540.888 271.389 533.275 273.797 523.969 275.488C518.388 276.516 513.281 277.113 509.578 277.41C507.726 277.561 506.226 277.652 505.187 277.686C504.149 277.724 503.574 277.729 503.572 277.694C503.57 277.66 504.141 277.59 505.174 277.493C506.29 277.383 507.763 277.237 509.545 277.061C513.232 276.676 518.315 276.026 523.879 275.001C533.155 273.316 540.785 271.064 543.016 270.48L543.007 270.602C542.511 270.341 542.289 270.211 542.299 270.19Z" fill="#263238"/>
<path d="M533.686 265.854C533.673 265.84 533.785 265.69 534.094 265.602C534.398 265.509 534.902 265.562 535.375 265.886C535.822 266.198 536.337 266.823 536.201 267.666C536.128 268.071 535.855 268.457 535.468 268.671C535.086 268.888 534.631 268.966 534.189 268.906C533.747 268.846 533.326 268.663 533.009 268.358C532.692 268.051 532.53 267.611 532.54 267.211C532.569 266.381 533.133 265.838 533.608 265.568C534.111 265.297 534.599 265.277 534.9 265.362C535.206 265.442 535.329 265.577 535.317 265.594C535.306 265.681 534.635 265.308 533.79 265.868C533.402 266.13 532.987 266.62 532.997 267.211C532.98 267.807 533.54 268.334 534.253 268.414C534.955 268.516 535.648 268.147 535.755 267.57C535.879 267.009 535.525 266.457 535.166 266.165C534.794 265.863 534.395 265.766 534.127 265.791C533.855 265.811 533.709 265.896 533.686 265.854Z" fill="#263238"/>
<path d="M385.087 286.958C385.098 286.971 384.91 287.135 384.54 287.435C384.162 287.723 383.641 288.199 382.89 288.703C381.432 289.772 379.193 291.158 376.238 292.487C373.288 293.822 369.571 294.99 365.322 295.592C363.197 295.863 360.945 296.032 358.61 295.953C356.277 295.87 353.869 295.583 351.447 295.065C346.61 293.973 342.247 292.189 338.144 291.09C336.097 290.522 334.118 290.118 332.247 289.927C330.373 289.751 328.611 289.782 327.025 289.978C323.843 290.366 321.414 291.453 319.95 292.471C318.469 293.483 317.829 294.27 317.784 294.223C317.784 294.223 318.371 293.389 319.84 292.312C321.291 291.23 323.748 290.069 326.98 289.63C328.591 289.408 330.381 289.356 332.286 289.517C334.191 289.693 336.2 290.088 338.265 290.648C342.408 291.734 346.777 293.503 351.556 294.58C353.948 295.091 356.323 295.378 358.628 295.466C360.934 295.551 363.16 295.393 365.264 295.138C369.469 294.567 373.159 293.447 376.101 292.164C379.049 290.888 381.3 289.558 382.784 288.543C383.549 288.067 384.086 287.617 384.483 287.355C384.867 287.082 385.076 286.944 385.087 286.958Z" fill="#FAFAFA"/>
<path d="M448.631 328.141C448.627 328.148 448.524 328.101 448.327 328.002C448.11 327.889 447.824 327.74 447.463 327.552C447.082 327.358 446.589 327.162 446.02 326.904C445.43 326.7 444.766 326.413 443.978 326.212C440.878 325.276 436.1 324.798 430.356 325.717C427.482 326.139 424.391 326.913 421.091 327.821C417.79 328.723 414.273 329.768 410.484 330.54C406.706 331.323 402.604 331.733 398.401 331.277C394.194 330.886 389.966 329.698 385.746 328.3C381.524 326.878 377.482 325.291 373.512 323.967C369.553 322.615 365.636 321.614 361.835 321.102C354.218 320.058 347.225 320.837 341.597 322.203C338.775 322.897 336.293 323.773 334.142 324.609C333.085 325.071 332.089 325.478 331.199 325.908C330.318 326.356 329.494 326.732 328.784 327.128C328.078 327.523 327.448 327.875 326.897 328.183C326.371 328.507 325.922 328.785 325.549 329.015C325.201 329.227 324.926 329.395 324.716 329.523C324.527 329.635 324.427 329.689 324.423 329.682C324.418 329.675 324.508 329.607 324.688 329.481C324.891 329.343 325.158 329.161 325.495 328.931C325.853 328.695 326.289 328.389 326.822 328.057C327.368 327.737 327.992 327.37 328.692 326.959C329.397 326.548 330.218 326.158 331.097 325.695C331.985 325.25 332.98 324.828 334.037 324.352C336.189 323.487 338.678 322.582 341.512 321.862C347.165 320.444 354.209 319.621 361.896 320.648C365.733 321.152 369.691 322.154 373.666 323.505C377.654 324.828 381.698 326.413 385.904 327.829C390.107 329.222 394.298 330.401 398.451 330.793C402.598 331.249 406.638 330.856 410.395 330.091C414.159 329.337 417.674 328.309 420.984 327.423C424.292 326.531 427.408 325.772 430.306 325.369C436.096 324.487 440.925 325.024 444.035 326.026C444.824 326.243 445.489 326.547 446.078 326.766C446.645 327.04 447.134 327.252 447.51 327.461C447.863 327.668 448.142 327.831 448.354 327.956C448.542 328.072 448.636 328.134 448.631 328.141Z" fill="#FAFAFA"/>
<path d="M398.242 286.25C398.26 286.191 399.128 286.586 400.798 286.81C402.459 287.052 404.934 287.003 407.851 286.245C410.783 285.533 414.054 284.01 417.785 282.53C419.655 281.804 421.67 281.118 423.838 280.725C426.002 280.344 428.289 280.189 430.613 280.335C435.272 280.603 439.59 281.852 443.301 283.381C447.02 284.921 450.175 286.712 452.764 288.288C455.352 289.87 457.382 291.248 458.782 292.201C459.445 292.662 459.976 293.033 460.383 293.316C460.745 293.576 460.931 293.719 460.922 293.734C460.913 293.748 460.708 293.633 460.328 293.4C459.909 293.137 459.36 292.792 458.676 292.363C457.244 291.46 455.186 290.129 452.583 288.59C449.979 287.058 446.823 285.309 443.127 283.806C439.441 282.313 435.171 281.095 430.584 280.832C428.296 280.688 426.05 280.838 423.924 281.205C421.798 281.583 419.811 282.248 417.948 282.958C414.233 284.403 410.917 285.908 407.934 286.587C404.968 287.312 402.444 287.307 400.768 287.002C399.082 286.714 398.242 286.25 398.242 286.25Z" fill="#FAFAFA"/>
<path d="M456.687 261.166C456.696 261.199 456.19 261.351 455.266 261.598C454.805 261.726 454.238 261.87 453.571 262C452.905 262.135 452.151 262.312 451.303 262.432C449.617 262.725 447.588 262.949 445.327 263.076C443.065 263.176 440.571 263.162 437.965 262.95C435.36 262.719 432.899 262.311 430.686 261.831C428.479 261.324 426.517 260.761 424.904 260.187C424.089 259.926 423.375 259.624 422.742 259.379C422.107 259.138 421.572 258.901 421.139 258.696C420.27 258.297 419.798 258.061 419.812 258.03C419.826 257.999 420.325 258.174 421.213 258.518C421.655 258.694 422.198 258.905 422.84 259.12C423.48 259.339 424.197 259.617 425.014 259.855C426.63 260.383 428.588 260.907 430.782 261.385C432.982 261.837 435.423 262.227 438.006 262.456C440.59 262.666 443.061 262.693 445.306 262.62C447.55 262.519 449.567 262.333 451.249 262.085C452.095 261.989 452.849 261.836 453.516 261.728C454.185 261.624 454.755 261.509 455.221 261.41C456.157 261.222 456.678 261.133 456.687 261.166Z" fill="#FAFAFA"/>
<path d="M315.858 267.593C315.848 267.579 315.998 267.447 316.294 267.207C316.591 266.969 317.028 266.615 317.606 266.18C318.755 265.301 320.444 264.062 322.594 262.619C326.882 259.753 333.102 256.021 340.697 253.68C348.296 251.337 355.677 251.265 360.762 252.28C363.314 252.766 365.323 253.415 366.663 253.968C367.344 254.217 367.842 254.487 368.19 254.64C368.534 254.804 368.711 254.897 368.704 254.913C368.686 254.955 367.95 254.637 366.595 254.149C365.242 253.656 363.235 253.064 360.701 252.626C355.65 251.709 348.365 251.836 340.842 254.155C333.319 256.473 327.111 260.129 322.786 262.913C320.619 264.314 318.902 265.507 317.72 266.337C317.163 266.725 316.71 267.04 316.354 267.288C316.039 267.501 315.868 267.607 315.858 267.593Z" fill="#FAFAFA"/>
<path d="M441.721 372.464C441.723 372.472 441.628 372.499 441.44 372.542C441.225 372.588 440.948 372.648 440.602 372.723C440.235 372.814 439.774 372.885 439.224 372.931C438.948 372.961 438.653 372.992 438.338 373.026C438.019 373.035 437.681 373.044 437.324 373.053C434.449 373.174 430.309 372.432 425.445 370.867C423.005 370.106 420.367 369.175 417.496 368.324C414.627 367.472 411.493 366.817 408.147 366.51C401.443 365.869 394.019 366.676 386.377 368.071C378.72 369.449 371.483 371.188 364.756 371.989C358.045 372.816 351.893 372.874 346.822 372.105C341.732 371.419 337.813 369.875 335.259 368.612C334.625 368.279 334.057 367.994 333.576 367.727C333.119 367.436 332.728 367.187 332.4 366.979C332.104 366.786 331.868 366.632 331.683 366.511C331.523 366.403 331.444 366.345 331.449 366.337C331.454 366.33 331.542 366.375 331.711 366.468C331.902 366.577 332.146 366.718 332.452 366.893C332.785 367.089 333.183 367.324 333.647 367.597C334.143 367.843 334.709 368.123 335.342 368.438C337.908 369.64 341.811 371.121 346.87 371.757C351.91 372.476 358.019 372.383 364.698 371.535C371.389 370.714 378.611 368.965 386.288 367.583C393.948 366.185 401.423 365.383 408.188 366.055C411.563 366.376 414.733 367.055 417.612 367.93C420.493 368.803 423.123 369.753 425.55 370.533C430.386 372.135 434.47 372.921 437.321 372.86C437.675 372.858 438.011 372.857 438.327 372.855C438.64 372.83 438.933 372.806 439.208 372.784C439.756 372.753 440.216 372.698 440.584 372.624C440.932 372.57 441.211 372.526 441.428 372.492C441.62 372.465 441.719 372.455 441.721 372.464Z" fill="#FAFAFA"/>
<g opacity="0.3">
<path d="M353.616 379.353C358.148 390.66 366.919 398.694 378.987 400.354C391.055 402.014 403.265 399.251 415.019 396.053C393.647 393.064 374.744 390.102 353.616 379.353Z" fill="black"/>
</g>
<path d="M444.782 410.449C444.778 410.457 444.678 410.42 444.486 410.341C444.271 410.249 443.992 410.13 443.64 409.979C442.871 409.638 441.787 409.157 440.405 408.544C437.593 407.308 433.565 405.411 428.531 403.23C426.006 402.169 423.193 401.089 420.062 400.364C416.938 399.622 413.473 399.372 409.9 399.891C408.117 400.151 406.31 400.564 404.502 401.116C402.699 401.684 400.893 402.378 399.088 403.164C395.476 404.738 391.886 406.7 388.192 408.681C384.494 410.662 380.808 412.495 377.073 413.855C373.345 415.209 369.552 416.087 365.88 416.134C362.203 416.239 358.748 415.363 355.747 414.147C352.73 412.932 350.111 411.414 347.72 410.065C345.333 408.705 343.184 407.461 341.224 406.512C339.263 405.575 337.537 404.827 336.063 404.41C335.34 404.153 334.672 404.023 334.1 403.881C333.53 403.726 333.036 403.652 332.636 403.598C332.258 403.538 331.959 403.49 331.728 403.454C331.524 403.419 331.419 403.396 331.42 403.388C331.421 403.379 331.527 403.385 331.733 403.404C331.966 403.428 332.268 403.46 332.65 403.5C333.054 403.538 333.553 403.597 334.13 403.737C334.709 403.864 335.386 403.98 336.118 404.225C337.612 404.617 339.36 405.344 341.345 406.263C343.327 407.194 345.495 408.421 347.892 409.761C350.292 411.09 352.911 412.583 355.9 413.767C358.876 414.953 362.259 415.794 365.871 415.679C369.477 415.62 373.215 414.747 376.906 413.4C380.604 412.047 384.267 410.221 387.957 408.245C391.649 406.266 395.252 404.3 398.893 402.72C400.712 401.931 402.537 401.235 404.362 400.665C406.192 400.111 408.025 399.698 409.836 399.44C413.465 398.925 416.999 399.196 420.154 399.965C423.319 400.716 426.142 401.823 428.668 402.909C433.699 405.138 437.695 407.079 440.485 408.37C441.85 409.019 442.921 409.528 443.681 409.89C444.025 410.059 444.297 410.193 444.507 410.297C444.692 410.39 444.785 410.441 444.782 410.449Z" fill="#FAFAFA"/>
<defs>
<linearGradient id="paint0_linear_85_4414" x1="74.5239" y1="246.732" x2="183.759" y2="324.876" gradientUnits="userSpaceOnUse">
<stop stop-color="#92FFC0"/>
<stop offset="1" stop-color="#002661"/>
</linearGradient>
<linearGradient id="paint1_linear_85_4414" x1="114.131" y1="442.165" x2="211.08" y2="398.557" gradientUnits="userSpaceOnUse">
<stop offset="1.70489e-07" stop-color="#4EB9C4"/>
<stop offset="0.9926" stop-color="#06B584"/>
</linearGradient>
<linearGradient id="paint2_linear_85_4414" x1="553.861" y1="201.418" x2="672.226" y2="271.215" gradientUnits="userSpaceOnUse">
<stop stop-color="#92FFC0"/>
<stop offset="1" stop-color="#002661"/>
</linearGradient>
<linearGradient id="paint3_linear_85_4414" x1="460.455" y1="87.4082" x2="514.633" y2="138.86" gradientUnits="userSpaceOnUse">
<stop stop-color="#92FFC0"/>
<stop offset="1" stop-color="#002661"/>
</linearGradient>
<linearGradient id="paint4_linear_85_4414" x1="561.005" y1="436.567" x2="667.692" y2="339.768" gradientUnits="userSpaceOnUse">
<stop offset="1.70489e-07" stop-color="#4EB9C4"/>
<stop offset="0.9926" stop-color="#06B584"/>
</linearGradient>
<linearGradient id="paint5_linear_85_4414" x1="111.252" y1="399.289" x2="150.308" y2="367.632" gradientUnits="userSpaceOnUse">
<stop offset="1.70489e-07" stop-color="#4EB9C4"/>
<stop offset="0.9926" stop-color="#06B584"/>
</linearGradient>
<linearGradient id="paint6_linear_85_4414" x1="163.08" y1="406.644" x2="189.828" y2="388.116" gradientUnits="userSpaceOnUse">
<stop offset="1.70489e-07" stop-color="#4EB9C4"/>
<stop offset="0.9926" stop-color="#06B584"/>
</linearGradient>
<linearGradient id="paint7_linear_85_4414" x1="116.777" y1="429.949" x2="128.001" y2="403.218" gradientUnits="userSpaceOnUse">
<stop offset="1.70489e-07" stop-color="#4EB9C4"/>
<stop offset="0.9926" stop-color="#06B584"/>
</linearGradient>
<linearGradient id="paint8_linear_85_4414" x1="219" y1="62" x2="292.874" y2="137.874" gradientUnits="userSpaceOnUse">
<stop stop-color="#92FFC0"/>
<stop offset="1" stop-color="#002661"/>
</linearGradient>
</defs>
</svg>
