<svg width="95" height="79" viewBox="0 0 95 79" fill="none" xmlns="http://www.w3.org/2000/svg">
<path d="M50.2876 51.7624L69.7656 76.8662H93.5156V58.6045L56.4062 40.3428L50.2876 51.7624Z" fill="#E8A674"/>
<path d="M93.5155 69.5615L80.4426 57.7681L89.0283 46.105L93.5155 48.8649V69.5615Z" fill="#FCC28C"/>
<path d="M51.0209 28.9988C49.498 26.2452 48.3049 23.3768 47.4584 20.434L43.648 7.13217C43.4771 6.53586 43.0654 6.00443 42.4799 5.62411C41.8944 5.24378 41.1694 5.03687 40.4225 5.03695C39.5438 5.03695 38.7011 5.32324 38.0798 5.83284C37.4584 6.34244 37.1094 7.03361 37.1094 7.75429C37.1091 9.99773 37.335 12.2374 37.7848 14.4503L38.5938 18.4289C35.6654 17.6281 33.0045 16.2793 30.8216 14.4892L17.9149 3.9035C16.8993 3.07034 15.5217 2.6022 14.0852 2.60205C13.499 2.60205 12.9369 2.79304 12.5224 3.133C12.1079 3.47296 11.875 3.93405 11.875 4.41483C11.8746 4.81801 12.0387 5.20971 12.3411 5.52758L22.2656 15.994L8.34367 4.57553C8.0513 4.33572 7.70417 4.14551 7.32212 4.01578C6.94008 3.88606 6.5306 3.81936 6.11711 3.8195C5.28223 3.81982 4.48166 4.09198 3.89132 4.57617C3.30097 5.06035 2.96914 5.71696 2.96875 6.40171C2.96858 6.74084 3.0499 7.07668 3.20807 7.39003C3.36624 7.70337 3.59815 7.98808 3.89055 8.22788L19.2969 20.8638L6.53125 12.7239C6.14489 12.4767 5.66904 12.3421 5.17898 12.3416C4.59279 12.3416 4.03061 12.5326 3.61611 12.8726C3.20161 13.2125 2.96875 13.6736 2.96875 14.1544C2.96878 14.7294 3.12445 15.2971 3.42453 15.8167C3.72461 16.3363 4.16161 16.7948 4.70398 17.1591L19.2969 26.951L11.0541 23.088C9.64651 22.4281 8.05318 22.081 6.4318 22.0812C5.90702 22.0812 5.40374 22.2522 5.03266 22.5565C4.66159 22.8609 4.45313 23.2737 4.45313 23.7041C4.4533 23.9561 4.52486 24.2046 4.66216 24.43C4.79946 24.6555 4.99874 24.8516 5.2443 25.0031L9.47625 27.606C17.9657 32.8281 27.2566 37.1105 37.1094 40.3429L48.9844 52.5174L49.2456 52.375C51.8802 50.9345 54.045 48.9871 55.5513 46.7029L64.554 37.9945L51.0209 28.9988Z" fill="#006F7E"/>
<path d="M52.1015 46.3084C50.7963 46.0552 49.6327 45.4493 48.7981 44.5881C47.9635 43.7269 47.5063 42.6605 47.5 41.5604C47.5003 40.9577 47.5499 40.3558 47.6484 39.7586C46.7114 39.3358 45.9287 38.716 45.3809 37.9628C44.833 37.2095 44.5397 36.3502 44.5312 35.4731C44.5294 33.4057 45.2765 31.3845 46.6776 29.6659C47.5912 28.5477 48.6277 27.5004 49.7741 26.5371C48.834 24.5487 48.0623 22.5095 47.4644 20.434L43.648 7.13217C43.4624 6.48308 42.9922 5.91263 42.3271 5.52936C41.6619 5.14609 40.8482 4.97676 40.0407 5.05358C39.2332 5.13041 38.4884 5.44803 37.9479 5.94601C37.4074 6.444 37.1089 7.08757 37.1094 7.75429C37.1091 9.99773 37.335 12.2374 37.7848 14.4503L38.5937 18.4289C35.6654 17.6281 33.0045 16.2793 30.8216 14.4892L17.9149 3.9035C16.8993 3.07034 15.5217 2.6022 14.0852 2.60205C13.499 2.60205 12.9368 2.79304 12.5224 3.133C12.1079 3.47296 11.875 3.93405 11.875 4.41483C11.8746 4.81801 12.0387 5.20971 12.3411 5.52758L22.2656 15.994L8.34366 4.57553C7.75314 4.0912 6.95222 3.81911 6.1171 3.81911C5.28197 3.81911 4.48106 4.0912 3.89053 4.57553C3.30001 5.05986 2.96826 5.71676 2.96826 6.40171C2.96826 7.08665 3.30001 7.74355 3.89053 8.22788L19.2969 20.8638L6.53124 12.7239C6.20463 12.5167 5.81379 12.3887 5.40301 12.3544C4.99223 12.32 4.57794 12.3808 4.2071 12.5297C3.83625 12.6786 3.52368 12.9097 3.30481 13.1969C3.08593 13.4841 2.96951 13.8158 2.96874 14.1544C2.96877 14.7294 3.12444 15.2971 3.42452 15.8167C3.7246 16.3363 4.1616 16.7948 4.70397 17.1591L19.2969 26.951L11.0541 23.088C9.6465 22.4281 8.05316 22.081 6.43178 22.0812C6.3635 22.0812 6.3071 22.108 6.2403 22.1129C6.36638 22.2887 6.53212 22.4432 6.72866 22.5682L10.9606 25.1711C19.4501 30.3932 28.741 34.6756 38.5937 37.908L50.4687 50.0825L51.3594 51.0151C52.285 50.3373 53.13 49.5889 53.8828 48.7799C53.813 48.7263 53.7344 48.6861 53.6631 48.6289C52.8805 47.9952 52.3382 47.1893 52.1015 46.3084Z" fill="#006F7E"/>
<path d="M89.0625 45.2127C89.064 47.8017 88.2298 50.3449 86.6446 52.5837C85.0594 54.8226 82.7798 56.6773 80.0375 57.9594L78.6719 58.6047L69.0531 47.3433C68.8163 47.0611 68.4993 46.8305 68.1295 46.6714C67.7596 46.5123 67.3481 46.4295 66.9305 46.4302C66.4449 46.4308 65.9689 46.5413 65.555 46.7497C65.1412 46.9581 64.8055 47.2562 64.5852 47.6111L64.4219 47.8911C64.2428 48.1822 63.9693 48.4271 63.6314 48.599C63.2936 48.7708 62.9045 48.8629 62.507 48.8651C62.0958 48.8656 61.6885 48.7992 61.3089 48.6696C60.9292 48.5401 60.5847 48.3499 60.2953 48.1103C59.9862 47.8595 59.7481 47.5561 59.5977 47.2215L59.3898 47.3189C58.9336 47.5339 58.4168 47.6472 57.8906 47.6476C57.1051 47.6429 56.3533 47.3848 55.7978 46.9292C55.2424 46.4736 54.9277 45.857 54.9219 45.2127C54.9196 44.6747 54.9693 44.1373 55.0703 43.6057H55.0555C54.5727 43.8598 54.0112 43.995 53.4375 43.9953C52.6519 43.9905 51.9002 43.7324 51.3447 43.2768C50.7892 42.8212 50.4746 42.2047 50.4687 41.5604C50.4691 40.2879 50.7301 39.0245 51.2406 37.8228C50.9897 37.8818 50.7297 37.9105 50.4687 37.9081C49.6832 37.9033 48.9315 37.6452 48.376 37.1896C47.8205 36.734 47.5058 36.1175 47.5 35.4732C47.5026 33.8872 48.0757 32.3372 49.1477 31.0173C50.0267 29.9309 51.0362 28.9195 52.1609 27.998L54.2391 26.2936C55.2565 25.4641 56.5442 24.8931 57.9476 24.649C59.351 24.405 60.8105 24.4984 62.1508 24.9179L71.8141 27.9737C74.4122 28.7908 76.7469 30.0861 78.6385 31.7599C80.53 33.4337 81.9278 35.4413 82.7242 37.628L84.6094 42.7778L89.0625 45.2127Z" fill="#66C3E9"/>
<path d="M86.3684 52.9218C86.9571 51.5267 86.9589 50.01 86.3734 48.614C85.7879 47.2179 84.6489 46.0231 83.1384 45.2203L83.125 45.2129L81.2398 40.0631C80.4434 37.8764 79.0456 35.8688 77.1541 34.195C75.2626 32.5212 72.9278 31.2259 70.3297 30.4088L60.6664 27.353C59.7456 27.0647 58.7645 26.9282 57.7793 26.9512C55.7822 27.0351 53.8993 27.7405 52.5142 28.9235L50.6766 30.4331C49.6567 31.2755 48.7326 32.1924 47.9156 33.1724C47.6415 33.9187 47.5015 34.6939 47.5 35.4734C47.5058 36.1177 47.8205 36.7342 48.376 37.1898C48.9315 37.6454 49.6832 37.9035 50.4688 37.9083C50.7297 37.9107 50.9897 37.882 51.2406 37.823C50.7301 39.0247 50.4691 40.2881 50.4688 41.5606C50.4746 42.2049 50.7892 42.8215 51.3447 43.2771C51.9002 43.7326 52.6519 43.9907 53.4375 43.9955C54.0112 43.9953 54.5727 43.86 55.0555 43.6059H55.0703C54.9693 44.1375 54.9196 44.6749 54.9219 45.2129C54.9277 45.8572 55.2424 46.4738 55.7978 46.9294C56.3533 47.385 57.1051 47.6431 57.8906 47.6478C58.4168 47.6474 58.9336 47.5341 59.3898 47.3191L59.5977 47.2217C59.7481 47.5563 59.9862 47.8597 60.2953 48.1105C60.5847 48.3501 60.9292 48.5403 61.3089 48.6698C61.6885 48.7994 62.0958 48.8659 62.507 48.8653C62.9045 48.8631 63.2936 48.771 63.6314 48.5992C63.9693 48.4273 64.2428 48.1824 64.4219 47.8913L64.5852 47.6113C64.8055 47.2564 65.1412 46.9583 65.555 46.7499C65.9689 46.5415 66.4449 46.431 66.9305 46.4304C67.3481 46.4297 67.7596 46.5125 68.1295 46.6716C68.4993 46.8307 68.8163 47.0613 69.0531 47.3435L78.6719 58.6049L80.0375 57.9596C82.6296 56.7425 84.8067 55.0101 86.3684 52.9218Z" fill="#40A8C9"/>
<path d="M56.5414 43.7674L53.5979 43.4436C53.7819 42.3464 54.134 41.2727 54.6459 40.2478C55.4381 38.6722 56.603 37.241 58.0733 36.0366C60.3786 34.1414 63.3191 32.8514 66.5209 32.3307L69.4733 31.8438L70.0581 34.2299L67.1042 34.7169C64.4767 35.1452 62.0638 36.2047 60.1722 37.7605C58.9797 38.7372 58.0348 39.8978 57.392 41.1755C56.9762 42.0066 56.6905 42.8775 56.5414 43.7674Z" fill="#66C3E9"/>
<path d="M52.6419 38.2232L49.8379 37.4209C50.9201 34.8264 53.0215 32.5998 55.8125 31.0902C57.7612 30.0204 59.9206 29.2345 62.1953 28.7673L64.9488 28.2061L65.6643 30.5679L62.9197 31.1279C60.9762 31.5271 59.1312 32.1985 57.4661 33.1124C55.7698 34.0445 54.3746 35.3003 53.4004 36.772C53.102 37.2389 52.8484 37.7241 52.6419 38.2232Z" fill="#66C3E9"/>
<path d="M64.1859 42.2654L70.3163 40.2566L69.2149 37.9946L63.0859 40.0059C62.0512 40.3481 61.1108 40.8573 60.3206 41.5033C59.5493 42.1308 58.9375 42.8776 58.5204 43.7003C58.1033 44.523 57.8893 45.4054 57.8906 46.2964C57.8901 46.7479 57.9959 47.1952 58.2023 47.6137C58.3521 47.6065 58.5009 47.5903 58.6477 47.565L59.6036 47.2217L60.9633 46.7347C60.8931 46.5958 60.8578 46.4467 60.8594 46.2964C60.858 45.7256 60.9947 45.1602 61.2615 44.633C61.5282 44.1057 61.9198 43.6271 62.4135 43.2248C62.9205 42.8114 63.5231 42.4852 64.1859 42.2654Z" fill="#66C3E9"/>
</svg>
