<svg width="345" height="267" viewBox="0 0 345 267" fill="none" xmlns="http://www.w3.org/2000/svg">
<path d="M340.689 3.09058H2.88977V264.069H340.689V3.09058Z" fill="white"/>
<path d="M11.5182 199.207L136.737 174.501C139.01 174.053 142.53 174.136 144.593 174.685L332.712 224.588C334.773 225.132 334.279 226.112 331.607 226.777L183.869 263.592C181.183 264.262 177.528 264.251 175.713 263.569L10.6752 201.255C8.87174 200.571 9.24897 199.655 11.5182 199.207Z" fill="#00425B"/>
<path d="M45.0148 212.02L31.0065 199.215L72.0171 206.373L86.0419 219.169L45.0148 212.02Z" fill="#455464"/>
<path d="M71.5076 206.479L56.769 194.067L98.4996 200.838L113.255 213.242L71.5076 206.479Z" fill="#455464"/>
<path d="M97.9904 200.944L82.5216 188.925L124.972 195.308L140.457 207.319L97.9904 200.944Z" fill="#455464"/>
<path d="M124.463 195.415L108.264 183.788L151.434 189.784L167.65 201.402L124.463 195.415Z" fill="#455464"/>
<path d="M150.926 189.89L133.996 178.656L177.887 184.266L194.832 195.491L150.926 189.89Z" fill="#455464"/>
<path d="M152.166 252.085L139.56 238.526L182.082 244.871L194.704 258.422L152.166 252.085Z" fill="#455464"/>
<path d="M181.517 245.007L168.181 231.841L211.423 237.799L224.775 250.957L181.517 245.007Z" fill="#455464"/>
<path d="M210.859 237.935L196.793 225.161L240.755 230.732L254.837 243.497L210.859 237.935Z" fill="#455464"/>
<path d="M240.191 230.868L225.394 218.487L270.076 223.671L284.888 236.043L240.191 230.868Z" fill="#455464"/>
<path d="M269.512 223.807L253.986 211.818L299.387 216.615L314.93 228.595L269.512 223.807Z" fill="#455464"/>
<path d="M98.6244 232.09L85.3182 218.907L127.085 225.658L140.408 238.832L98.6244 232.09Z" fill="#455464"/>
<path d="M126.548 225.78L112.512 212.99L154.999 219.354L169.052 232.135L126.548 225.78Z" fill="#455464"/>
<path d="M154.462 219.475L139.695 207.078L182.902 213.055L197.685 225.443L154.462 219.475Z" fill="#455464"/>
<path d="M182.366 213.176L166.869 201.171L210.796 206.761L226.309 218.757L182.366 213.176Z" fill="#455464"/>
<path d="M210.259 206.882L194.033 195.27L238.679 200.473L254.922 212.076L210.259 206.882Z" fill="#455464"/>
<path d="M130.547 195.604C138.973 195.271 141.948 203.756 132.292 204.922C127.323 205.522 126.611 210.032 120.881 207.414C117.34 205.797 126.396 200.265 126.396 200.265L130.547 195.604Z" fill="#BBBDC4"/>
<path d="M145.875 192.002C155.787 188.353 154.664 124.9 154.664 124.9L139.344 121.619L138.835 105.693L121.549 99.4405C120.734 99.1457 119.856 99.0698 119.003 99.2204L80.3896 105.856L97.7634 111.902C100.488 112.854 102.048 115.715 101.37 118.521L99.8035 125.012L106.236 126.88C109.639 127.867 111.934 131.044 111.802 134.585L109.266 203.076C109.266 203.076 145.65 192.085 145.875 192.002Z" fill="#FF6969"/>
<path d="M130.684 194.729C139.11 194.396 142.085 202.881 132.429 204.047C127.461 204.647 126.749 209.157 121.018 206.539C117.477 204.922 126.533 199.39 126.533 199.39L130.684 194.729Z" fill="#FF6969"/>
<path d="M105.694 200.473C107.353 201.558 109.563 200.422 109.646 198.441L112.345 134.658C112.474 131.173 111.538 127.223 107.146 125.962L104.077 125.251C102.852 124.966 102.016 123.834 102.105 122.58L102.616 115.385C102.697 114.234 101.998 113.171 100.909 112.791L81.3644 105.966C79.6888 105.381 77.9415 106.64 77.9658 108.414C77.9658 108.414 77.9062 119.912 77.2091 120.21C74.7942 121.242 73.144 125.431 76.2314 127.743C76.7724 128.148 77.0195 138.228 76.2662 138.373C73.2917 138.945 72.8764 144.438 75.923 145.58C76.5896 145.83 75.8823 157.078 75.2432 157.381C73.1216 158.386 72.0608 161.624 74.3498 163.746C74.3498 163.746 70.2741 167.263 74.7965 171.227C77.8516 173.905 86.7548 168.899 86.981 187.988C86.9911 188.844 88.6873 189.354 89.4037 189.823L105.694 200.473Z" fill="#FA4850"/>
<path d="M135.657 52.6692C135.657 52.6692 144.326 23.4599 174.477 31.1863C204.629 38.9127 211.536 42.1827 210.935 66.8486L194.995 70.7035L192.247 61.0011L186.776 67.9636L182.957 86.5896L144.137 81.1246L150.733 61.9032L152.041 57.6244L149.083 60.9344L135.657 52.6692Z" fill="#00CAE3"/>
<path d="M118.426 202.026L116.167 195.891C116.168 195.891 116.169 195.891 116.17 195.89C121.415 193.953 135.534 187.014 137.878 178.28L144.192 179.974C142.599 185.913 137.705 191.454 129.648 196.442C123.911 199.993 118.647 201.945 118.426 202.026Z" fill="#BBBDC4"/>
<path d="M178.961 32.3556C178.961 32.3556 181.351 41.3853 184.671 41.2526C187.991 41.1197 192.107 35.2769 192.107 35.2769L180.953 25.7161C180.953 25.7161 182.546 30.7622 178.961 32.3556Z" fill="#FFB18E"/>
<path d="M198.828 29.7098C197.842 32.2603 195.945 34.3605 193.494 35.5728C190.51 37.0486 186.546 37.8876 184.621 34.9218C180.493 28.5595 181.022 22.8146 181.327 21.1747C181.819 18.5236 185.682 7.91998 195.983 12.6917C205.896 17.2842 204.662 22.1349 199.895 27.7529C199.521 28.1933 198.828 29.7098 198.828 29.7098Z" fill="#FFB18E"/>
<path d="M193.701 19.4952C193.701 19.4952 204.638 18.5109 204.857 18.1827C205.075 17.8547 193.423 6.04845 187.539 9.50395C181.495 13.0531 180.7 15.5556 179.927 19.5336C179.148 23.5428 180.495 28.499 181.407 28.3407C182.949 28.0723 183.66 26.2618 183.66 26.2618C183.66 26.2618 181.613 25.1396 182.707 22.9523C183.288 21.7902 184.131 20.8207 185.114 20.5453C185.929 20.317 186.42 20.9057 186.65 22.2384C186.8 23.109 186.47 24.0398 187.401 24.5202C188.26 24.9636 191.623 23.651 192.061 22.4479C192.498 21.2448 193.701 19.4952 193.701 19.4952Z" fill="#E5684D"/>
<path d="M110.127 181.86C110.09 181.86 110.052 181.852 110.017 181.834L74.4861 163.983C74.3652 163.923 74.3163 163.775 74.3771 163.654C74.4379 163.533 74.5855 163.484 74.7063 163.545L110.237 181.396C110.358 181.457 110.407 181.604 110.346 181.725C110.303 181.811 110.217 181.86 110.127 181.86Z" fill="#6D0E07"/>
<path d="M110.41 174.421C110.374 174.421 110.338 174.413 110.304 174.397L75.4255 157.567C75.3036 157.508 75.2524 157.361 75.3113 157.239C75.3701 157.118 75.5166 157.066 75.6387 157.125L110.517 173.955C110.639 174.014 110.69 174.161 110.631 174.283C110.589 174.37 110.501 174.421 110.41 174.421Z" fill="#6D0E07"/>
<path d="M110.677 160.278C110.646 160.278 110.613 160.272 110.583 160.259L76.2483 145.963C76.1233 145.911 76.0641 145.768 76.1162 145.643C76.1682 145.517 76.3119 145.459 76.4368 145.511L110.771 159.806C110.896 159.858 110.955 160.002 110.903 160.127C110.864 160.221 110.773 160.278 110.677 160.278Z" fill="#6D0E07"/>
<path d="M111.274 152.919C111.243 152.919 111.212 152.913 111.181 152.9L76.4928 138.763C76.3673 138.712 76.3072 138.569 76.3583 138.444C76.4095 138.318 76.5525 138.257 76.6779 138.309L111.367 152.447C111.492 152.498 111.552 152.641 111.501 152.766C111.462 152.861 111.371 152.919 111.274 152.919Z" fill="#6D0E07"/>
<path d="M111.722 140.753C111.694 140.753 111.666 140.748 111.638 140.738L76.8861 128.101C76.759 128.055 76.6933 127.914 76.7395 127.787C76.7858 127.659 76.9262 127.594 77.0537 127.64L111.805 140.277C111.933 140.323 111.998 140.464 111.952 140.591C111.916 140.691 111.822 140.753 111.722 140.753Z" fill="#6D0E07"/>
<path d="M111.835 132.967C111.807 132.967 111.778 132.963 111.75 132.952L77.9013 120.541C77.7743 120.495 77.7089 120.354 77.7555 120.226C77.8021 120.099 77.943 120.034 78.0701 120.081L111.919 132.492C112.046 132.539 112.112 132.679 112.065 132.807C112.029 132.906 111.935 132.967 111.835 132.967Z" fill="#6D0E07"/>
<path d="M200.363 26.9121C200.305 26.9121 200.247 26.8969 200.194 26.865C198.517 25.853 196.806 26.5886 196.789 26.5962C196.624 26.6689 196.431 26.5949 196.358 26.4303C196.285 26.2657 196.358 26.073 196.523 25.9993C196.605 25.9625 198.555 25.1123 200.532 26.3052C200.687 26.3986 200.737 26.5994 200.643 26.7541C200.582 26.8557 200.474 26.9121 200.363 26.9121Z" fill="#6D0E07"/>
<path d="M81.0322 195.604C86.1098 194.931 89.4991 188.898 88.6024 182.128C87.7057 175.357 82.8625 170.414 77.7849 171.087C72.7073 171.759 69.318 177.793 70.2147 184.563C71.1114 191.333 75.9546 196.276 81.0322 195.604Z" fill="#00CAE3"/>
<path d="M80.6265 193.151C84.5113 192.307 86.7487 187.424 85.624 182.245C84.4992 177.065 80.4381 173.55 76.5533 174.393C72.6685 175.237 70.4311 180.12 71.5559 185.3C72.6806 190.479 76.7417 193.994 80.6265 193.151Z" fill="#005971"/>
<path d="M80.7972 122.702C83.3746 122.361 85.0949 119.298 84.6398 115.862C84.1846 112.426 81.7263 109.917 79.149 110.258C76.5716 110.599 74.8513 113.662 75.3064 117.098C75.7616 120.535 78.2199 123.044 80.7972 122.702Z" fill="#00CAE3"/>
<path d="M80.5776 121.467C82.5494 121.039 83.6853 118.56 83.1146 115.931C82.544 113.302 80.4829 111.518 78.5111 111.946C76.5393 112.374 75.4034 114.852 75.9741 117.481C76.5447 120.11 78.6058 121.894 80.5776 121.467Z" fill="#005971"/>
<path d="M183.752 12.1617C183.752 12.1617 189.186 1.90631 200.284 4.81444C208.596 6.99279 207.019 18.3609 207.019 18.3609C207.019 18.3609 215.82 28.3867 205.029 27.5448C189.872 26.3623 188.191 20.1976 183.752 12.1617Z" fill="#005971"/>
<path d="M190.689 26.9026C190.831 26.2912 191.302 25.8783 191.741 25.9807C192.179 26.083 192.419 26.6617 192.276 27.2732C192.134 27.8846 191.662 28.2974 191.224 28.1951C190.785 28.0928 190.546 27.5142 190.689 26.9026Z" fill="#6D0E07"/>
<path d="M196.754 28.2114C196.925 27.6796 197.354 27.3417 197.712 27.4568C198.071 27.5719 198.223 28.0964 198.053 28.6282C197.882 29.16 197.453 29.4979 197.094 29.3828C196.736 29.2678 196.584 28.7433 196.754 28.2114Z" fill="#6D0E07"/>
<path d="M190.851 35.1603C190.343 35.1603 189.944 35.0387 189.658 34.7958C189.166 34.3777 189.216 33.7699 189.219 33.7442C189.231 33.6094 189.352 33.5104 189.485 33.5228C189.62 33.5352 189.719 33.6537 189.707 33.7877C189.705 33.807 189.683 34.1774 189.98 34.4261C190.335 34.7228 191.021 34.7497 191.963 34.5044C192.093 34.4704 192.228 34.549 192.262 34.68C192.296 34.811 192.217 34.9449 192.086 34.9791C191.622 35.1 191.21 35.1603 190.851 35.1603Z" fill="#6D0E07"/>
<path d="M192.659 33.1432C192.254 33.1432 191.807 32.969 191.327 32.6225C191.217 32.5434 191.192 32.3901 191.271 32.2802C191.351 32.1706 191.504 32.1456 191.614 32.2248C192.114 32.5852 192.541 32.7192 192.885 32.6227C193.271 32.5143 193.484 32.1281 193.577 31.9074C193.729 31.5461 194.197 29.7392 194.538 28.4199C194.933 26.8948 194.951 26.8412 194.992 26.7794C195.067 26.6667 195.219 26.6362 195.332 26.7114C195.435 26.7801 195.469 26.913 195.417 27.0213C195.378 27.1326 195.192 27.8492 195.013 28.5426C194.648 29.9509 194.195 31.7035 194.029 32.0977C193.902 32.3997 193.601 32.9307 193.017 33.0947C192.902 33.1269 192.782 33.1432 192.659 33.1432Z" fill="#6D0E07"/>
<path d="M193.781 25.7441C193.719 25.7441 193.657 25.7207 193.609 25.6739C192.078 24.1729 190.288 24.718 190.212 24.7418C190.083 24.7825 189.946 24.7116 189.904 24.583C189.863 24.4542 189.934 24.3165 190.062 24.275C190.149 24.2471 192.205 23.6101 193.952 25.324C194.049 25.4188 194.05 25.5741 193.956 25.6707C193.908 25.7194 193.844 25.7441 193.781 25.7441Z" fill="#6D0E07"/>
<path d="M183.719 203.311C183.719 203.311 182.53 207.842 185.507 208.831C188.484 209.82 187.878 209.681 190.091 212.722C192.926 216.618 201.884 216.184 200.303 212.83C199.678 211.504 197.767 211.485 190.83 201.768L183.719 203.311Z" fill="#BBBDC4"/>
<path d="M183.883 202.493C183.883 202.493 182.693 207.024 185.67 208.013C188.647 209.003 188.041 208.864 190.254 211.905C193.09 215.8 202.048 215.367 200.467 212.012C199.841 210.686 197.931 210.667 190.993 200.951L183.883 202.493Z" fill="#FF6969"/>
<path d="M168.512 64.6833C169.485 65.0721 169.659 34.3863 171.919 30.6198C172.021 30.4509 165.62 29.6739 165.603 29.9273C165.527 31.0563 162.486 65.4608 162.486 65.4608C162.486 65.4608 148.488 81.7917 144.405 81.7917C140.322 81.7917 130.407 149.06 130.407 149.06L126.284 196.287C126.194 197.313 126.882 198.244 127.889 198.458C131.186 199.159 138.171 200.347 140.516 198.442C143.627 195.914 149.071 154.309 149.071 154.309C149.071 154.309 161.144 119.483 161.144 120.066C161.144 120.65 175.223 150.409 175.807 150.409C176.39 150.409 180.372 204.274 182.316 205.247C183.795 205.986 191.456 205.151 195.042 204.709C196.098 204.578 196.884 203.673 196.867 202.61L195.917 145.296L181.539 91.1236L189.512 67.9631C189.512 67.9631 199.939 44.7708 203.595 42.0982C203.973 41.8215 199.334 39.2744 199.334 39.2744L184.663 66.844L168.512 64.6833Z" fill="#005971"/>
<path d="M78.2099 226.369C75.4047 226.369 72.4289 225.545 69.3044 223.898L68.1445 223.286C58.1228 218.004 50.8819 214.188 46.3073 210.371C43.6303 208.137 41.9185 205.918 41.074 203.586C40.1254 200.966 40.2573 198.167 41.4661 195.266C42.2371 193.416 43.9642 190.968 47.8139 189.814C50.1452 189.115 53.0466 188.939 56.6845 189.279C62.9571 189.863 70.7234 191.901 78.9459 194.058C82.295 194.936 85.7583 195.845 89.1757 196.667C90.2672 196.93 91.3335 197.154 92.3754 197.343C94.736 186.491 96.1524 171.909 96.5859 153.993C97.0342 135.462 98.7216 123.26 101.896 115.593C104.963 108.188 109.059 106.034 112.351 104.303C113.177 103.869 113.957 103.459 114.652 102.996C120.516 99.0861 131.167 102.263 145.908 106.66C151.852 108.432 158.589 110.442 165.591 112.136C170.271 113.268 175.535 116.942 181.683 123.366C186.624 128.529 192.253 135.632 198.417 144.48C209.603 160.538 220.621 179.494 228.667 193.335C233.675 201.95 237.999 209.39 239.684 211.411C246.004 218.995 252.046 219.821 252.3 219.852L252.263 219.848L251.612 226.354C251.257 226.318 242.806 225.37 234.661 215.596C232.624 213.152 228.801 206.576 223.015 196.621C215.026 182.878 204.085 164.056 193.052 148.217C177.326 125.642 168.602 119.591 164.053 118.49C156.884 116.756 150.06 114.721 144.039 112.925C137.291 110.912 131.464 109.174 126.773 108.309C121.397 107.317 119.186 107.83 118.278 108.436C117.3 109.087 116.33 109.597 115.393 110.09C110.073 112.887 104.043 116.058 103.121 154.151C102.686 172.15 101.264 186.935 98.8943 198.122C111.571 198.838 119.144 194.498 119.237 194.444L122.551 200.079C122.084 200.354 112.655 205.759 97.316 204.569C94.4098 214.861 90.4362 221.383 85.2371 224.434C83.0389 225.724 80.6911 226.369 78.2099 226.369ZM53.164 195.643C50.2202 195.643 48.1409 196.244 47.5007 197.78C46.6745 199.763 46.2818 201.835 50.4956 205.351C54.5407 208.726 61.5254 212.407 71.1927 217.503L72.3536 218.115C76.1588 220.121 79.2906 220.344 81.9285 218.796C84.4552 217.313 87.8636 213.454 90.7614 203.693C89.742 203.501 88.7042 203.278 87.6454 203.023C84.1634 202.185 80.6676 201.268 77.2869 200.381C68.9426 198.192 59.2236 195.643 53.164 195.643Z" fill="#BBBDC4"/>
<path d="M157.233 116.781L128.584 108.762L130.395 102.254L159.063 110.393L157.233 116.781Z" fill="#6D0E07"/>
<path d="M145.729 95.9598C145.624 95.9598 145.527 95.8915 145.494 95.7856C145.455 95.656 145.529 95.5192 145.658 95.48C150.835 93.915 153.545 89.4395 153.572 89.3945C153.641 89.2782 153.791 89.2399 153.908 89.3092C154.024 89.3783 154.062 89.5289 153.993 89.6452C153.965 89.692 151.157 94.33 145.8 95.9495C145.777 95.9564 145.753 95.9598 145.729 95.9598Z" fill="#6D0E07"/>
<path d="M194.942 70.6253C196.139 78.7634 200.7 86.3715 200.689 89.943C200.674 95.1073 205.471 123.339 201.942 123.339C201.276 123.339 195.829 125.76 196.328 129.752C196.328 129.752 198.994 125.851 202.016 127.243C205.15 128.687 199.577 131.779 198.246 132.111C196.915 132.444 199.911 140.112 207.926 133.33C210.367 131.265 210.533 126.711 210.205 122.212C210.163 121.643 212.612 87.5898 212.612 87.5898L210.935 66.7705L194.942 70.6253Z" fill="#FFB18E"/>
<path d="M135.686 52.5818C135.475 53.0337 134.425 54.3123 132.762 59.2195C131.471 63.0266 130.246 67.2239 131.29 71.1062L140.933 103.846C140.933 103.846 136.169 111.831 141.847 115.076C147.106 118.081 150.555 114.902 150.555 114.902C150.555 114.902 144.753 113.219 148.121 108.613C149 107.411 151.816 108.704 151.74 108.248C151.4 106.179 149.245 103.603 148.413 103.769C147.581 103.935 144.129 67.194 144.129 67.194L149.092 60.8971L135.686 52.5818Z" fill="#FFB18E"/>
<path d="M247.812 222.955C248.401 222.454 256.713 214.856 256.713 214.856L261.187 216.263L252.725 224.381L247.812 222.955Z" fill="#00CAE3"/>
<path d="M244.467 239.217L249.331 240.433L252.742 224.333L247.811 222.952L244.467 239.217Z" fill="#00CAE3"/>
<path d="M249.331 240.433C250.285 239.331 265.462 222.046 265.462 222.046L261.186 216.264L252.742 224.333L249.331 240.433Z" fill="#BBBDC4"/>
<path d="M189.253 36.8182C188.334 36.8182 187.487 36.5971 186.722 36.1551C184.188 34.6925 183.46 31.3625 183.43 31.2213C183.403 31.0889 183.487 30.959 183.62 30.931C183.752 30.9034 183.882 30.9877 183.91 31.1201C183.917 31.1525 184.625 34.3806 186.969 35.7318C188.188 36.4344 189.649 36.515 191.312 35.9711C191.44 35.9292 191.579 35.9992 191.621 36.128C191.663 36.2566 191.593 36.3951 191.464 36.4372C190.688 36.6914 189.949 36.8182 189.253 36.8182Z" fill="#6D0E07"/>
<path d="M200.121 126.838L185.377 137.739L189.265 142.997L204.009 132.096L200.121 126.838Z" fill="#6D0E07"/>
<path d="M200.153 134.745C202.386 134.745 204.196 132.934 204.196 130.699C204.196 128.465 202.386 126.654 200.153 126.654C197.92 126.654 196.109 128.465 196.109 130.699C196.109 132.934 197.92 134.745 200.153 134.745Z" fill="#455464"/>
<path d="M180.916 99.305C180.885 99.305 180.852 99.2988 180.821 99.2857C178.424 98.2763 174.91 92.7355 174.762 92.4999C174.69 92.3854 174.724 92.234 174.839 92.1618C174.953 92.0897 175.104 92.1239 175.177 92.2384C175.212 92.2948 178.755 97.8839 181.012 98.8338C181.136 98.8863 181.195 99.0301 181.142 99.1548C181.103 99.2486 181.012 99.305 180.916 99.305Z" fill="#6D0E07"/>
<path d="M182.607 77.3948C182.595 77.3948 182.584 77.394 182.572 77.3924L162.407 74.5192C162.334 74.5089 162.27 74.4661 162.232 74.403C162.194 74.3399 162.186 74.2629 162.211 74.1936L164.56 67.6545C164.606 67.527 164.746 67.4611 164.873 67.5066C165.001 67.5523 165.067 67.6927 165.021 67.8202L162.774 74.0761L182.437 76.8777L184.39 70.7996C184.432 70.6706 184.57 70.6 184.699 70.6412C184.828 70.6827 184.898 70.8208 184.857 70.9496L182.84 77.2245C182.807 77.3271 182.712 77.3948 182.607 77.3948Z" fill="#6D0E07"/>
<path d="M169.566 51.9855L163.702 51.8256L163.942 48.8538L169.765 48.9938L169.566 51.9855Z" fill="#6D0E07"/>
<path d="M194.615 57.193L190.749 55.4076L192.136 52.7747L195.95 54.5137L194.615 57.193Z" fill="#6D0E07"/>
<path d="M169.821 47.2559L164.101 47.1121L164.213 46.1055L169.885 46.2653L169.821 47.2559Z" fill="#6D0E07"/>
<path d="M196.642 53.2953L192.834 51.423L193.323 50.5393L197.092 52.4115L196.642 53.2953Z" fill="#6D0E07"/>
<path d="M166.895 109.603C166.864 109.603 166.834 109.597 166.804 109.585C166.678 109.535 166.617 109.393 166.667 109.267C166.731 109.106 166.794 108.909 166.866 108.68C167.478 106.756 168.753 102.751 177.171 103.332C177.306 103.341 177.408 103.458 177.399 103.593C177.389 103.728 177.272 103.83 177.137 103.821C169.101 103.266 167.951 106.885 167.333 108.829C167.258 109.066 167.193 109.271 167.122 109.448C167.084 109.544 166.992 109.603 166.895 109.603Z" fill="#6D0E07"/>
<path d="M169.384 109.373C169.316 109.373 169.248 109.345 169.2 109.291C169.11 109.189 169.12 109.034 169.221 108.945C172.263 106.247 177.074 107.891 177.277 107.963C177.405 108.007 177.472 108.147 177.427 108.275C177.383 108.403 177.243 108.471 177.115 108.425C177.068 108.409 172.372 106.807 169.546 109.311C169.5 109.353 169.441 109.373 169.384 109.373Z" fill="#6D0E07"/>
<path d="M145.321 120.912C144.655 120.912 143.971 120.86 143.272 120.746C137.882 119.865 133.171 115.516 129.27 107.819L130.582 107.154C134.259 114.409 138.608 118.494 143.509 119.294C149.982 120.352 155.267 115.231 155.32 115.179L156.352 116.227C156.138 116.438 151.517 120.912 145.321 120.912Z" fill="#6D0E07"/>
</svg>
