<svg width="674" height="482" viewBox="0 0 674 482" fill="none" xmlns="http://www.w3.org/2000/svg">
<path d="M548.163 435.525C587.594 403.4 628.703 368.998 646.524 321.362C655.282 297.948 657.807 272.237 653.77 247.567C651.465 233.485 646.826 219.337 637.401 208.623C623.474 192.788 601.419 186.878 580.438 184.765C556.277 182.331 531.83 183.858 507.709 181.063C483.587 178.267 458.864 170.451 442.2 152.788C416.969 126.044 415.833 83.4813 392.32 55.2168C372.854 31.8169 341.094 22.1864 310.719 20.2382C252.758 16.5204 189.138 41.5064 164.096 93.9107C155.471 111.963 151.824 132.115 142.769 149.958C132.862 169.483 116.49 185.657 96.8483 195.328C86.0948 200.623 74.3575 204.053 64.4331 210.777C42.446 225.676 33.5121 253.821 31.2478 280.283C28.0167 318.032 36.4271 358.506 62.3354 386.15C84.3028 409.589 115.797 421.122 146.069 431.874C162.518 437.717 178.968 443.559 195.419 449.402C206.314 453.272 217.26 457.155 228.613 459.342C243.692 462.247 259.17 462.101 274.524 461.945C357.946 461.096 441.367 460.247 524.788 459.399L548.163 435.525Z" fill="url(#paint0_linear_47_15)" fill-opacity="0.2"/>
<path d="M505.813 469.823V337.104H431.1V390.648H321.828V342.568H275.934V311.973H218.019V352.403H164.476V277.004H107.654V375.351H92.3564V472.944L505.813 469.823Z" fill="#F4D7C9"/>
<path d="M456.234 348.032V286.84H491.2V317.437H528.353V285.747H561.134V471.51H428.915L456.234 348.032Z" fill="#F4D7C9"/>
<path d="M623.458 480.251H16.9196C12.1128 480.251 8.21655 476.355 8.21655 471.548V470.378C8.21655 465.571 12.1128 461.675 16.9196 461.675H623.458C628.265 461.675 632.162 465.571 632.162 470.378V471.548C632.162 476.355 628.265 480.251 623.458 480.251Z" fill="#FEC166"/>
<path d="M103.83 439.929L67.4137 374.528C64.155 368.677 56.9174 366.356 50.8644 369.223L45.2561 371.879L47.8405 377.909L53.9538 374.852C56.3165 373.671 59.1895 374.557 60.4765 376.863L103.829 454.571L103.83 439.929Z" fill="#DDDBDC"/>
<path d="M25.8745 390.399C25.8745 393.729 23.1746 396.428 19.8451 396.428C16.5155 396.428 13.8157 393.729 13.8157 390.399C13.8157 387.069 16.5155 384.37 19.8451 384.37C23.1746 384.37 25.8745 387.069 25.8745 390.399Z" fill="#FEC166"/>
<path d="M40.9492 367.573L8.21655 370.157L32.3354 407.196L48.7011 384.8L40.9492 367.573Z" fill="#DDDBDC"/>
<path d="M43.8892 365.7L52.8861 383.695C53.4593 384.843 53.1537 386.235 52.1527 387.037C50.8133 388.109 48.8271 387.688 48.0374 386.164L38.7755 368.302C38.0763 366.953 38.6168 365.295 39.9746 364.616L40.2396 364.483C41.5816 363.811 43.2162 364.356 43.8892 365.7Z" fill="#C9C9C9"/>
<path d="M341.882 64.7057L318.345 130.611C317.113 134.058 319.668 137.684 323.33 137.684H372.138C374.4 137.684 376.412 136.248 377.146 134.108L399.741 68.2032C400.92 64.7674 398.367 61.1938 394.734 61.1938H346.866C344.629 61.1925 342.634 62.5989 341.882 64.7057Z" fill="#3EC1A1"/>
<path d="M346.079 66.6565L323.833 128.941L371.547 131.126L394.128 66.6565H346.079Z" fill="#C6F4F3"/>
<path d="M360.62 65.0167C360.62 65.9219 359.887 66.6552 358.981 66.6552C358.076 66.6552 357.342 65.9219 357.342 65.0167C357.342 64.1115 358.076 63.3782 358.981 63.3782C359.887 63.3782 360.62 64.1115 360.62 65.0167Z" fill="#212121"/>
<path d="M380.289 65.0167C380.289 65.9219 379.556 66.6552 378.65 66.6552C377.745 66.6552 377.01 65.9219 377.01 65.0167C377.01 64.1115 377.745 63.3782 378.65 63.3782C379.556 63.3782 380.289 64.1115 380.289 65.0167Z" fill="#212121"/>
<path d="M367.177 82.5C363.827 82.5 361.268 81.3967 359.57 79.2216C355.536 74.0555 357.806 64.7319 357.904 64.3384L358.966 64.6034C358.942 64.6952 356.726 73.8088 360.432 78.5513C361.913 80.4469 364.182 81.4072 367.177 81.4072C370.233 81.4072 372.666 80.4063 374.409 78.4319C378.644 73.6357 377.575 64.6283 377.563 64.5378L378.646 64.4027C378.695 64.791 379.785 73.9938 375.229 79.156C373.268 81.3757 370.559 82.5 367.177 82.5Z" fill="#212121"/>
<path d="M355.43 91.7881H342.044V107.086H355.43V91.7881Z" fill="#67DBBD"/>
<path d="M367.528 110.435C366.282 116.533 361.078 120.619 355.905 119.562C350.731 118.504 347.547 112.705 348.793 106.607C350.04 100.509 355.244 96.4229 360.418 97.4803C365.592 98.5377 368.775 104.337 367.528 110.435Z" fill="#3EC1A1"/>
<path d="M361.732 85.1211L357.565 105.519L377.314 98.9299L361.732 85.1211Z" fill="#A8DDDA"/>
<path d="M248.069 52.4503C248.069 52.4503 236.049 45.8935 230.585 44.8007C230.585 44.8007 229.492 36.0583 206.545 32.78C206.545 32.78 205.452 24.0376 204.359 21.8533C203.267 19.6677 199.988 19.6677 199.988 24.0389C199.988 24.0389 190.153 14.2051 189.06 16.3893C187.968 18.5749 191.246 22.9461 191.246 22.9461C191.246 22.9461 185.782 18.5749 184.689 20.7605C183.596 22.9461 189.06 26.2245 189.06 26.2245C189.06 26.2245 183.596 25.1317 183.596 27.3173C183.596 29.5029 189.06 29.5029 189.06 29.5029C189.06 29.5029 185.782 28.4101 185.782 31.6885C185.782 34.9669 201.08 36.0596 201.08 36.0596C201.08 36.0596 208.729 52.4503 226.213 53.5431L241.511 64.4697L248.069 52.4503Z" fill="#F9D7A9"/>
<path opacity="0.59" d="M248.069 52.4503C248.069 52.4503 236.049 45.8935 230.585 44.8007C230.585 44.8007 229.492 36.0583 206.545 32.78C206.545 32.78 205.452 24.0376 204.359 21.8533C203.267 19.6677 199.988 19.6677 199.988 24.0389C199.988 24.0389 190.153 14.2051 189.06 16.3893C187.968 18.5749 191.246 22.9461 191.246 22.9461C191.246 22.9461 185.782 18.5749 184.689 20.7605C183.596 22.9461 189.06 26.2245 189.06 26.2245C189.06 26.2245 183.596 25.1317 183.596 27.3173C183.596 29.5029 189.06 29.5029 189.06 29.5029C189.06 29.5029 185.782 28.4101 185.782 31.6885C185.782 34.9669 201.08 36.0596 201.08 36.0596C201.08 36.0596 208.729 52.4503 226.213 53.5431L241.511 64.4697L248.069 52.4503Z" fill="#EF896A"/>
<path d="M275.87 68.7976C271.84 60.9631 246.131 48.3743 246.131 48.3743L236.46 62.6908C236.46 62.6908 254.72 79.0145 261.816 82.0712C271.7 86.3295 281.459 79.6613 275.87 68.7976Z" fill="url(#paint1_linear_47_15)"/>
<path d="M264.461 55.7287L266.645 62.2854L276.48 57.9143V51.3575L273.202 42.6165L264.461 55.7287Z" fill="#F9D7A9"/>
<path opacity="0.59" d="M264.461 55.7287L266.645 62.2854L276.48 57.9143V51.3575L273.202 42.6165L264.461 55.7287Z" fill="#EF896A"/>
<path d="M245.884 24.0401C239.327 30.5968 244.791 39.3379 242.606 42.6163C240.42 45.8946 239.328 45.6362 239.328 48.0802C239.328 50.2658 240.685 49.2307 245.884 55.7298C250.255 61.1938 254.627 63.3793 265.553 57.9154C276.48 52.4514 276.48 40.432 276.48 40.432L271.016 27.3198L263.366 18.5774L245.884 24.0401Z" fill="#F9D7A9"/>
<path d="M245.196 24.7906C234.956 14.2063 243.699 0 248.07 0C252.441 0 249.163 6.55677 249.163 6.55677C249.163 6.55677 255.72 -2.18559 261.182 1.09279C266.646 4.37118 260.089 12.0194 255.718 15.2978C255.718 15.2978 274.294 8.74104 283.037 21.8546C291.779 34.9668 278.666 49.1731 276.48 51.3574L268.83 43.7079L264.459 36.0583L261.181 39.3367C261.181 39.3367 263.083 20.077 245.196 24.7906Z" fill="#212121"/>
<path d="M263.212 37.3071C265.552 30.5956 269.923 32.7812 271.016 36.0595C272.109 39.3379 269.923 44.8019 266.645 44.8019C263.368 44.8019 263.212 37.3071 263.212 37.3071Z" fill="#F9D7A9"/>
<path opacity="0.59" d="M264.974 37.9854C266.296 34.1954 268.764 35.4299 269.38 37.281C269.997 39.132 268.764 42.2176 266.911 42.2176C265.059 42.2176 264.974 37.9854 264.974 37.9854Z" fill="#EF896A"/>
<path d="M249.161 36.0596C249.161 37.2665 248.672 38.2452 248.069 38.2452C247.465 38.2452 246.976 37.2665 246.976 36.0596C246.976 34.8527 247.465 33.874 248.069 33.874C248.672 33.874 249.161 34.8527 249.161 36.0596Z" fill="#212121"/>
<path opacity="0.59" d="M250.254 50.2648C253.533 50.2648 256.811 44.8008 256.811 44.8008C256.811 44.8008 261.182 53.5418 254.625 55.7274L250.254 50.2648Z" fill="#EF896A"/>
<path d="M305.962 113.491C305.711 117.163 305.033 120.866 303.799 124.571C303.099 126.679 302.269 128.493 301.361 130.035C293.723 142.831 279.375 136.985 270.054 131.127C270.044 131.127 270.044 131.127 270.032 131.127C264.82 127.849 261.181 124.571 261.181 124.571C261.181 124.571 260.471 110.288 261.082 95.8104C261.542 84.9599 262.743 73.9886 265.552 68.8421C265.552 68.8421 263.366 66.6565 263.366 63.3782C265.552 60.0998 280.85 51.3587 284.128 55.7286C287.407 60.0998 288.499 64.471 288.499 64.471C288.499 64.471 307.732 87.8762 305.962 113.491Z" fill="url(#paint2_linear_47_15)"/>
<path d="M305.962 113.491C305.711 117.163 305.033 120.866 303.799 124.571C303.099 126.679 302.269 128.493 301.361 130.035C291.079 130.898 273.343 131.587 270.054 131.128C270.044 131.128 270.044 131.128 270.032 131.128C264.82 127.849 261.181 124.571 261.181 124.571C261.181 124.571 260.471 110.288 261.082 95.8104C268.579 88.4127 277.026 80.3158 277.026 80.3158L289.176 80.1624C287.952 103.263 277.026 106.54 279.211 109.819C281.364 113.042 294.095 121.565 305.962 113.491Z" fill="url(#paint3_linear_47_15)"/>
<path d="M267.739 101.623C266.646 108.18 263.787 110.364 260.846 111.457C257.905 112.55 240.418 113.718 240.418 113.718C240.418 113.718 225.124 112.55 220.753 111.457C216.381 110.364 220.753 105.993 225.124 104.9C229.495 103.808 232.773 108.179 232.773 108.179C232.773 108.179 255.721 99.4365 257.906 97.2522C260.089 95.0666 267.739 101.623 267.739 101.623Z" fill="#F9D7A9"/>
<path d="M275.387 67.7481C267.508 71.6877 254.625 97.2523 254.625 97.2523L268.83 107.086C268.83 107.086 285.361 89.0137 288.499 81.9531C292.871 72.1193 286.315 62.2854 275.387 67.7481Z" fill="url(#paint4_linear_47_15)"/>
<path d="M410.884 133.312L379.196 244.77L344.371 243.961L241.808 241.601L237.12 241.492L236.716 238.257L220.751 111.457L243.25 114.047L410.884 133.312Z" fill="#FD9F61"/>
<path d="M299.427 193.411V246.956H309.261L315.818 197.783L299.427 193.411Z" fill="white"/>
<path opacity="0.2" d="M357.341 238.759L344.371 243.961L342.589 244.682L250.801 247.501L241.808 241.601L236.716 238.257L220.751 111.457L243.25 114.047C260.537 138.382 280.774 166.956 280.774 166.956C243.152 173.195 248.616 222.368 283.582 230.017C318.551 237.668 357.341 238.759 357.341 238.759Z" fill="#E03F5E"/>
<path d="M345.322 207.616H366.084V218.544L345.322 216.359V207.616Z" fill="#212121"/>
<path d="M220.751 111.457L248.069 165.001L375.918 172.65L410.884 133.312L220.751 111.457Z" fill="#FFC9AB"/>
<path d="M325.528 421.69C326.857 424.602 327.759 427.604 328.248 430.617C330.718 445.821 322.882 461.407 308.192 468.107C290.583 476.14 269.804 468.372 261.775 450.772C259.154 445.026 258.215 438.928 258.75 433.052C259.869 420.948 267.255 409.761 279.11 404.354C296.712 396.326 317.498 404.089 325.528 421.69Z" fill="#FD9F61"/>
<mask id="mask0_47_15" style="mask-type:luminance" maskUnits="userSpaceOnUse" x="258" y="401" width="71" height="71">
<path d="M326.484 448.507C333.255 430.38 324.048 410.197 305.922 403.427C287.795 396.656 267.611 405.862 260.841 423.989C254.07 442.116 263.277 462.299 281.403 469.07C299.53 475.84 319.714 466.634 326.484 448.507Z" fill="white"/>
</mask>
<g mask="url(#mask0_47_15)">
<g opacity="0.56">
<path d="M251.087 415.056C282.057 425.908 293.243 468.682 274.849 485.399" stroke="white" stroke-width="2.27638" stroke-miterlimit="10"/>
<path d="M305.554 390.21C293.448 420.711 318.418 457.199 343.1 454.265" stroke="white" stroke-width="2.27638" stroke-miterlimit="10"/>
<path d="M262.253 450.815L326.005 421.732" stroke="white" stroke-width="2.27638" stroke-miterlimit="10"/>
<path d="M279.588 404.397L308.67 468.15" stroke="white" stroke-width="2.27638" stroke-miterlimit="10"/>
</g>
</g>
<path opacity="0.2" d="M328.248 430.619C330.718 445.822 322.882 461.408 308.192 468.108C290.583 476.141 269.804 468.373 261.775 450.773C259.154 445.027 258.215 438.929 258.75 433.054C287.21 467.833 321.073 443.664 328.248 430.619Z" fill="#E03F5E"/>
<path d="M172.612 227.287C163.93 219.637 172.671 211.989 172.671 211.989C172.671 211.989 166.114 204.34 173.764 195.599C181.413 186.857 191.247 189.042 186.876 195.599C186.876 195.599 208.731 185.763 214.195 190.135C219.659 194.506 210.916 199.968 210.916 199.968C210.916 199.968 225.121 199.968 230.585 211.988C236.049 224.007 222.858 238.759 222.858 238.759L218.566 241.491L210.057 232.75L183.599 218.545L172.612 227.287Z" fill="#212121"/>
<path d="M229.492 241.492L228.836 244.104L226.214 254.606L205.452 251.327L178.035 262.922L177.041 263.348C173.762 256.791 171.577 243.679 171.577 243.679L165.873 240.827C165.555 240.673 165.567 240.226 165.883 240.073C172.592 236.936 171.839 221.562 178.132 215.268C178.132 215.268 189.059 214.175 192.337 214.175C195.616 214.175 210.914 233.844 210.914 233.844L229.492 241.492Z" fill="#F9D7A9"/>
<path opacity="0.59" d="M228.838 244.104L226.215 254.606L205.454 251.327L178.037 262.922C190.701 257.338 201.628 247.503 205.999 244.225C210.37 240.946 222.86 246.41 226.991 244.225C227.733 243.83 228.346 243.83 228.838 244.104Z" fill="#EF896A"/>
<path d="M178.135 213.081C177.042 225.1 185.783 228.378 187.969 227.286C190.154 226.193 187.969 218.543 187.969 218.543C187.969 218.543 193.433 232.748 197.804 230.563C202.175 228.377 199.461 220.182 199.461 220.182C199.461 220.182 206.545 224.006 205.452 215.265C204.359 206.522 186.876 205.43 185.783 205.43C184.692 205.432 178.135 213.081 178.135 213.081Z" fill="#212121"/>
<path d="M203.435 224.683C205.452 219.637 209.823 220.73 210.916 222.916C212.009 225.101 209.823 237.121 203.267 236.028C196.711 234.935 203.435 224.683 203.435 224.683Z" fill="#F9D7A9"/>
<path opacity="0.59" d="M203.268 228.378C205.454 225.1 207.639 222.914 207.639 226.193C207.639 229.471 203.268 232.75 203.268 232.75V228.378Z" fill="#EF896A"/>
<path d="M180.32 229.471C180.32 230.678 179.831 231.657 179.228 231.657C178.624 231.657 178.135 230.678 178.135 229.471C178.135 228.264 178.624 227.286 179.228 227.286C179.831 227.287 180.32 228.264 180.32 229.471Z" fill="#212121"/>
<path d="M177.042 246.956C180.32 246.956 183.599 243.677 183.599 243.677" stroke="#EF896A" stroke-width="1.13825" stroke-miterlimit="10" stroke-linecap="round"/>
<path d="M304.891 434.903L301.613 448.017H311.447L318.004 435.996L304.891 434.903Z" fill="#F9D7A9"/>
<path d="M300.52 443.646L315.184 446.078C315.184 446.078 312.004 453.369 313.3 460.158C314.598 466.946 314.018 471.279 314.018 471.279C314.018 471.279 283.257 470.471 275.752 460.646C275.752 460.646 276.332 456.315 285.935 458.701C295.538 461.089 298.335 456.758 300.52 443.646Z" fill="#212121"/>
<path d="M335.487 276.459C331.116 293.942 322.375 356.228 318.004 372.618C313.632 389.009 302.706 435.996 302.706 435.996L316.911 441.46C316.911 441.46 343.136 403.215 342.044 372.619L363.898 331.096C363.898 331.096 366.084 296.129 364.991 293.944C363.898 291.758 362.805 273.182 362.805 273.182L345.322 269.903L335.487 276.459Z" fill="url(#paint5_linear_47_15)"/>
<path d="M398.865 431.625L403.236 442.553L394.494 445.831L388.484 435.45L398.865 431.625Z" fill="#F9D7A9"/>
<path d="M404.329 440.367L414.232 460.175C414.867 461.447 414.797 462.957 414.043 464.162L411.729 467.866C410.525 469.793 408.412 470.964 406.138 470.964H379.996C379.521 470.964 379.142 470.577 379.154 470.102C379.203 468.286 380.074 464.161 386.844 463.315C395.587 462.222 398.865 457.851 392.308 445.831L404.329 440.367Z" fill="#212121"/>
<path d="M357.341 244.77C372.963 243.678 389.031 252.42 389.031 284.108C389.031 315.797 369.362 362.784 369.362 362.784C369.362 362.784 379.197 369.341 385.753 385.732C392.31 402.122 401.051 433.812 401.051 433.812L387.938 438.183C387.938 438.183 348.6 381.362 346.415 368.248C344.229 355.136 342.591 267.171 342.591 267.171L357.341 244.77Z" fill="url(#paint6_linear_47_15)"/>
<path d="M228.401 234.935C224.03 233.842 216.381 253.511 216.381 258.975C216.381 264.439 226.215 263.347 226.215 263.347C226.215 263.347 229.494 269.903 250.256 273.182C271.017 276.46 303.799 283.017 313.634 284.108C323.468 285.201 332.757 286.84 332.757 286.84C332.757 286.84 356.25 249.14 356.25 246.956C356.25 244.77 265.555 240.399 264.462 239.306C263.369 238.214 237.143 239.306 237.143 239.306C237.143 239.306 236.049 236.028 228.401 234.935Z" fill="#7F4960"/>
<path opacity="0.26" d="M261.728 257.337C301.066 270.449 340.404 252.966 344.775 257.337C349.146 261.708 361.166 254.058 368.815 254.058C376.465 254.058 376.465 250.78 376.465 250.78L295.603 248.595L261.729 247.502V257.337H261.728Z" fill="#212121"/>
<path d="M302.706 239.306H313.632C313.632 239.306 333.301 231.657 368.268 242.585C368.268 242.585 373.732 237.121 380.288 237.121C380.288 237.121 380.288 230.564 382.473 230.564C384.659 230.564 384.659 242.583 384.659 242.583L376.637 250.018L300.519 252.417L302.706 239.306Z" fill="#F9D7A9"/>
<path d="M239.328 236.028C252.04 230.943 307.077 239.306 307.077 239.306L305.984 257.882C305.984 257.882 255.718 263.346 243.699 255.697C231.678 248.047 233.864 238.213 239.328 236.028Z" fill="#7F4960"/>
<path d="M127.869 393.695L131.148 471.278H227.308L237.142 393.695H127.869Z" fill="#EF8354"/>
<path d="M119.128 393.695L122.406 471.278H218.566L228.401 393.695H119.128Z" fill="#FD9F61"/>
<path d="M175.949 393.695H163.93V471.278H175.949V393.695Z" fill="white"/>
<path d="M209.823 460.351H195.618V465.815H209.823V460.351Z" fill="#212121"/>
<path d="M203.006 349.125L204.876 393.38H259.727L265.337 349.125H203.006Z" fill="#EF8354"/>
<path d="M198.019 349.125L199.89 393.38H254.741L260.35 349.125H198.019Z" fill="#FD9F61"/>
<path d="M230.432 349.125H223.576V393.38H230.432V349.125Z" fill="white"/>
<path d="M249.754 387.147H241.651V390.264H249.754V387.147Z" fill="#212121"/>
<path d="M429.2 349.125L431.069 393.38H485.921L491.531 349.125H429.2Z" fill="#EF8354"/>
<path d="M424.213 349.125L426.083 393.38H480.935L486.544 349.125H424.213Z" fill="#FD9F61"/>
<path d="M456.624 349.125H449.769V393.38H456.624V349.125Z" fill="white"/>
<path d="M475.948 387.147H467.845V390.264H475.948V387.147Z" fill="#212121"/>
<path d="M170.85 319.075H167.572V372.618H170.85V319.075Z" fill="#7F4960"/>
<path d="M180.684 393.38H157.738L152.274 368.794H186.148L180.684 393.38Z" fill="#FEC166"/>
<path d="M199.261 322.353H139.16L161.015 280.283H177.407L199.261 322.353Z" fill="#3EC1A1"/>
<path d="M517.972 421.013H416.349V471.278H517.972V421.013Z" fill="#3DAD90"/>
<path d="M476.448 421.013H457.872V441.775H476.448V421.013Z" fill="white"/>
<path opacity="0.26" d="M517.972 421.013H416.349V431.394H517.972V421.013Z" fill="#212121"/>
<path d="M523.434 393.695H410.885V421.013H523.434V393.695Z" fill="#3EC1A1"/>
<path d="M135.129 439.774H71.4359V471.279H135.129V439.774Z" fill="#E03F5E"/>
<path d="M109.105 439.774H97.4623V452.787H109.105V439.774Z" fill="white"/>
<path opacity="0.26" d="M135.129 439.774H71.4359V446.281H135.129V439.774Z" fill="#212121"/>
<path d="M138.554 422.652H68.012V439.773H138.554V422.652Z" fill="#E03F5E"/>
<path d="M590.091 440.682V452.702H579.164V438.497L590.091 440.682Z" fill="#F9D7A9"/>
<path d="M576.979 450.516H591.184V455.98L593.369 471.278H561.101C558.986 471.278 558.01 468.696 559.56 467.256C561.745 465.225 565.001 463.076 569.329 462.536C578.072 461.443 576.979 457.072 576.979 457.072V450.516Z" fill="#212121"/>
<path d="M545.29 440.682L543.105 452.702H532.177L535.455 439.589L545.29 440.682Z" fill="#F9D7A9"/>
<path d="M529.991 450.516H544.196V455.98L546.382 471.278H514.113C511.999 471.278 511.023 468.696 512.572 467.256C514.758 465.225 518.014 463.076 522.342 462.536C531.084 461.443 529.991 457.072 529.991 457.072V450.516Z" fill="#212121"/>
<path d="M554.031 269.124C549.66 289.886 536.548 355.449 537.641 366.376C538.734 377.303 532.177 441.774 532.177 441.774L545.289 443.959V441.774C545.289 441.774 548.567 433.033 554.031 416.641C559.495 400.25 564.958 356.541 564.958 356.541L567.144 307.368L570.907 265.641L554.031 269.124Z" fill="#006F7E"/>
<path d="M598.225 267.094C606.483 294.257 589 352.171 586.814 362.006C584.628 371.84 592.278 372.933 593.371 392.603C594.463 412.272 590.092 443.961 590.092 443.961H576.98C576.98 443.961 563.868 370.749 559.497 341.244C555.126 311.74 559.497 265.037 559.497 265.037L598.225 267.094Z" fill="#006F7E"/>
<path d="M533.476 146.849C527.873 134.453 532.784 126.002 542.804 123.348C552.826 120.694 566.56 119.915 574.531 132.46C582.501 145.006 575.302 163.713 580.276 171.689C585.248 179.667 601.333 185.057 601.874 193.851C602.416 202.644 591.374 204.139 591.03 209.592C590.688 215.046 603.5 220.23 600.839 227.728C598.177 235.224 593.068 229.429 592.725 234.881C592.383 240.333 603.761 250.903 586.991 256.418C570.221 261.933 563.911 188.178 563.911 188.178L551.312 162.203L533.476 146.849Z" fill="#212121"/>
<path d="M558.647 151.658L565.962 172.979L555.94 175.633L551.173 164.385L558.647 151.658Z" fill="#F9D7A9"/>
<path opacity="0.59" d="M558.647 151.658L565.962 172.979L555.94 175.633L551.173 164.385L558.647 151.658Z" fill="#EF896A"/>
<path d="M537.758 133.98C532.984 140.249 534.616 149.111 531.139 152.177C527.661 155.242 529.195 156.981 530.797 157.629C532.822 158.449 533.931 160.016 533.931 160.016C533.931 160.016 536.448 172.218 541.97 171.47C542.759 171.364 543.657 171.119 544.617 170.776C552.901 167.827 557.626 162.611 559.187 153.958L561.34 142.032L542.189 133.164L537.758 133.98Z" fill="#F9D7A9"/>
<path d="M551.997 151.299C553.499 144.823 555.749 143.871 557.861 145.098C559.973 146.326 559.425 155.05 554.994 155.866C550.563 156.683 551.997 151.299 551.997 151.299Z" fill="#F9D7A9"/>
<path d="M536.872 130.639C538.092 146.045 555.199 152.595 561.949 149.735C568.698 146.875 568.225 136.992 568.225 136.992L554.595 127.375L536.872 130.639Z" fill="#212121"/>
<path d="M538.622 148.536C538.537 149.891 538.101 150.967 537.65 150.938C537.199 150.909 536.901 149.788 536.986 148.432C537.071 147.077 537.507 146.001 537.958 146.03C538.41 146.059 538.707 147.181 538.622 148.536Z" fill="#212121"/>
<path d="M539.177 163.63C541.359 163.768 544.905 159.611 544.905 159.611" stroke="#EF896A" stroke-width="1.13825" stroke-miterlimit="10" stroke-linecap="round"/>
<path d="M598.833 269.124H554.031C554.031 254.23 549.463 236.812 546.207 221.689C544.688 214.607 543.454 208.04 543.103 202.467C542.011 184.984 548.567 179.52 548.567 179.52L547.929 175.049C547.657 173.151 548.632 171.292 550.346 170.435L563.742 163.738C565.488 162.866 567.594 163.834 568.066 165.727L569.329 170.779L594.079 253.269L598.833 269.124Z" fill="#C18DB9"/>
<path d="M598.833 269.124H554.031C554.031 254.23 549.463 236.812 546.207 221.689C548.643 219.854 550.632 216.237 551.299 209.571C553.484 187.717 577.404 210.303 577.404 210.303C581.894 228.147 581.031 238.987 583.654 248.866C585.522 255.913 591.062 254.592 594.078 253.27L598.833 269.124Z" fill="#C18DB9"/>
<path d="M491.746 194.819L490.653 253.826H498.303L495.024 194.819H491.746Z" fill="#7F4960"/>
<path d="M517.972 247.27L513.885 261.181L513.875 261.191L507.045 284.423H483.005L479.246 270.217L473.17 247.27H517.972Z" fill="#FEC166"/>
<path d="M513.875 261.191L507.045 284.422H483.005L479.246 270.217C479.246 270.217 503.209 272.95 513.875 261.191Z" fill="#FD9F61"/>
<path d="M529.958 175.478C529.575 176.79 529.052 178.101 528.363 179.302C527.653 180.526 526.757 181.619 525.61 182.46C524.484 183.28 523.096 183.772 521.708 183.836C520.724 183.891 519.741 183.727 518.866 183.29C519.73 183.935 520.451 184.744 521.03 185.651C522.297 187.617 522.877 190.075 522.635 192.415C522.242 196.239 519.937 199.692 516.921 202.086C513.719 204.632 508.999 206.031 505.601 203.757C504.891 205.975 502.705 207.636 500.389 207.712C498.061 207.8 495.767 206.292 494.904 204.139L493.188 204.62C492.466 206.664 490.653 208.172 488.642 209.002C486.643 209.822 484.447 210.051 482.294 210.226C480.895 210.335 479.431 210.412 478.152 209.855C475.694 208.772 474.765 205.779 474.503 203.113C474.154 199.474 474.667 195.475 476.809 192.611C473.52 195.431 468.57 195.835 464.111 194.994C445.853 191.541 451.163 174.789 453.501 172.025C455.697 169.436 459.609 168.441 462.778 169.665C458.44 167.316 454.157 164.224 452.781 159.481C451.317 154.39 451.272 148.893 453.502 145.647C453.808 145.199 454.245 144.708 454.792 144.183C459.479 139.736 472.515 133.485 485.52 141.539C488.426 143.341 490.568 146.521 490.851 149.898C491.081 146.15 493.758 142.784 496.588 140.151C498.839 138.063 501.419 136.086 504.456 135.627C508.751 134.971 512.913 137.442 516.115 140.37C518.683 142.719 521 145.56 521.82 148.948C522.65 152.335 521.656 156.335 518.76 158.269C522.771 156.947 527.349 159.438 529.348 163.153C531.336 166.879 531.161 171.435 529.958 175.478Z" fill="#56A550"/>
<path d="M521.031 185.652C522.298 187.618 522.878 190.077 522.637 192.416C522.243 196.24 519.938 199.693 516.922 202.087C513.72 204.633 509 206.032 505.602 203.758C504.892 205.977 502.707 207.637 500.39 207.714C498.063 207.801 495.768 206.293 494.905 204.14L493.189 204.621C492.468 206.665 490.655 208.173 488.643 209.003C486.644 209.823 484.448 210.053 482.295 210.227C480.897 210.336 479.433 210.413 478.154 209.856C475.695 208.774 474.766 205.78 474.504 203.114C474.155 199.475 474.668 195.476 476.81 192.613C473.521 195.432 468.572 195.836 464.113 194.995C445.854 191.542 451.164 174.791 453.502 172.027C455.698 169.437 459.61 168.443 462.78 169.666C458.441 167.317 454.158 164.225 452.782 159.482C451.318 154.391 451.273 148.894 453.503 145.649C453.809 145.2 454.246 144.709 454.793 144.185C454.881 149.55 455.777 154.937 458.279 159.658C461.108 164.979 466.267 169.318 472.254 169.996C476.189 170.444 480.133 169.329 483.859 167.996C482.953 170.389 482.045 172.827 481.903 175.384C481.75 177.941 482.493 180.672 484.427 182.344C487.946 185.393 493.332 183.765 497.638 181.994C495.267 184.442 497.015 189.042 500.205 190.245C503.396 191.446 507.057 190.037 509.647 187.808C510.86 190.081 513.919 190.956 516.356 190.136C518.464 189.421 520.092 187.672 521.031 185.652Z" fill="#4A8745"/>
<path d="M575.886 233.064V252.313C575.886 255.878 573.749 259.091 570.46 260.464C555.478 266.719 514.175 283.934 507.045 286.609C498.303 289.887 486.283 289.887 481.912 287.701C477.541 285.516 485.191 284.423 491.747 282.237C491.747 282.237 489.562 276.773 491.747 276.773C493.933 276.773 498.304 282.237 498.304 282.237C498.304 282.237 500.49 284.423 508.139 278.959C515.789 273.495 535.458 250.548 554.034 249.455L552.941 230.879L575.886 233.064Z" fill="#F9D7A9"/>
<path opacity="0.59" d="M553.715 244.075C560.042 244.538 575.886 250.571 575.886 250.571V237.309L553.265 236.44L553.715 244.075Z" fill="#EF896A"/>
<path d="M555.124 184.984C561.095 176.029 574.793 182.798 576.979 205.746C579.164 228.693 579.164 237.434 579.164 237.434L550.753 236.341C550.753 236.341 550.753 191.541 555.124 184.984Z" fill="#C18DB9"/>
<path d="M526.659 178.307C526.415 178.722 526.105 179.099 525.863 179.512C526.13 179.058 526.002 179.334 525.897 179.461C525.826 179.546 525.755 179.63 525.682 179.714C525.524 179.894 525.359 180.068 525.188 180.236C525.017 180.406 524.838 180.567 524.654 180.722C524.626 180.745 524.597 180.769 524.569 180.793C524.409 180.921 524.454 180.887 524.704 180.691C524.608 180.741 524.519 180.828 524.43 180.888C524.022 181.165 523.588 181.395 523.134 181.586C523.291 181.519 523.449 181.454 523.605 181.387C523.007 181.63 522.387 181.797 521.746 181.885C521.92 181.862 522.096 181.838 522.271 181.814C522.083 181.837 521.897 181.854 521.709 181.864C522.344 182.697 522.978 183.53 523.613 184.362C523.887 183.526 524.16 182.69 524.501 181.879C524.434 182.036 524.368 182.194 524.301 182.35C524.551 181.77 524.838 181.218 525.199 180.699C525.369 180.455 524.912 181.047 525.06 180.879C525.103 180.831 525.142 180.779 525.187 180.731C525.288 180.618 525.396 180.51 525.511 180.411C525.577 180.353 525.777 180.197 525.485 180.425C525.194 180.652 525.39 180.501 525.465 180.453C525.588 180.374 525.717 180.307 525.851 180.247C525.693 180.314 525.536 180.379 525.38 180.446C525.588 180.36 525.801 180.301 526.024 180.265C525.849 180.289 525.674 180.312 525.499 180.336C525.763 180.302 526.023 180.305 526.286 180.335C526.112 180.311 525.936 180.287 525.762 180.264C526.066 180.312 526.351 180.399 526.635 180.517C526.478 180.451 526.32 180.385 526.164 180.318C526.589 180.507 526.983 180.747 527.369 181.005C528.229 181.58 529.591 181.201 530.069 180.297C530.593 179.304 530.28 178.209 529.36 177.597C528.253 176.858 526.941 176.244 525.575 176.378C524.371 176.496 523.283 176.988 522.449 177.881C521.053 179.376 520.433 181.409 519.807 183.31C519.42 184.487 520.466 185.877 521.711 185.808C523.459 185.711 525.234 185.179 526.652 184.129C528.055 183.09 529.186 181.804 530.069 180.297C530.591 179.406 530.302 178.094 529.36 177.597C528.413 177.098 527.216 177.354 526.659 178.307Z" fill="#56A550"/>
<path d="M96.7106 359.435L95.9563 400.139H101.234L98.9723 359.435H96.7106Z" fill="#7F4960"/>
<path d="M114.801 395.617L111.982 405.212L111.974 405.22L107.263 421.244H90.68L88.0877 411.446L83.8962 395.617H114.801Z" fill="#FEC166"/>
<path d="M123.07 346.093C122.807 346.997 122.444 347.902 121.97 348.732C121.48 349.575 120.861 350.329 120.07 350.909C119.293 351.475 118.336 351.813 117.379 351.859C116.701 351.897 116.023 351.783 115.419 351.482C116.015 351.927 116.512 352.485 116.912 353.111C117.787 354.467 118.186 356.163 118.021 357.777C117.749 360.415 116.159 362.797 114.079 364.448C111.869 366.204 108.613 367.169 106.269 365.601C105.78 367.131 104.271 368.277 102.673 368.33C101.067 368.39 99.4853 367.35 98.8897 365.865L97.7063 366.197C97.2091 367.605 95.9576 368.646 94.5709 369.219C93.1922 369.784 91.6769 369.943 90.1919 370.064C89.2277 370.139 88.2175 370.192 87.3346 369.808C85.6384 369.062 84.9982 366.997 84.8171 365.158C84.5758 362.648 84.93 359.889 86.4084 357.913C84.1389 359.858 80.7254 360.137 77.649 359.557C65.0537 357.175 68.7165 345.62 70.3301 343.712C71.8453 341.925 74.5438 341.239 76.7294 342.084C73.737 340.464 70.7814 338.331 69.8329 335.059C68.8227 331.546 68.7925 327.755 70.3301 325.516C70.5413 325.207 70.843 324.868 71.2195 324.506C74.4533 321.438 83.4462 317.127 92.4155 322.683C94.4201 323.926 95.8973 326.12 96.0941 328.45C96.2528 325.864 98.0999 323.542 100.052 321.726C101.605 320.286 103.384 318.922 105.479 318.605C108.441 318.153 111.313 319.857 113.522 321.877C115.293 323.498 116.891 325.457 117.457 327.794C118.03 330.13 117.344 332.889 115.346 334.223C118.113 333.312 121.27 335.03 122.65 337.592C124.02 340.161 123.899 343.304 123.07 346.093Z" fill="#56A550"/>
<path d="M116.912 353.111C117.787 354.467 118.186 356.163 118.021 357.777C117.749 360.415 116.159 362.797 114.079 364.448C111.869 366.204 108.613 367.169 106.269 365.601C105.78 367.131 104.271 368.277 102.673 368.33C101.067 368.39 99.4853 367.35 98.8897 365.865L97.7063 366.197C97.2091 367.605 95.9576 368.646 94.5709 369.219C93.1922 369.784 91.6769 369.943 90.1919 370.064C89.2277 370.139 88.2175 370.192 87.3346 369.808C85.6384 369.062 84.9982 366.997 84.8171 365.158C84.5758 362.648 84.93 359.889 86.4084 357.913C84.1389 359.858 80.7254 360.137 77.649 359.557C65.0537 357.175 68.7165 345.62 70.3301 343.712C71.8453 341.925 74.5438 341.239 76.7294 342.084C73.737 340.464 70.7814 338.331 69.8329 335.059C68.8227 331.546 68.7925 327.755 70.3301 325.516C70.5413 325.207 70.843 324.868 71.2195 324.506C71.2799 328.207 71.8978 331.924 73.6242 335.18C75.5763 338.85 79.1341 341.843 83.2652 342.31C85.9781 342.619 88.7003 341.851 91.2703 340.931C90.6445 342.581 90.0187 344.263 89.9203 346.026C89.8154 347.79 90.327 349.675 91.6612 350.828C94.0882 352.931 97.8047 351.808 100.775 350.586C99.1389 352.275 100.346 355.448 102.546 356.277C104.747 357.107 107.273 356.134 109.058 354.597C109.895 356.165 112.006 356.768 113.686 356.203C115.141 355.711 116.264 354.505 116.912 353.111Z" fill="#4A8745"/>
<path d="M113.695 144.641C110.801 126.545 133.625 122.091 133.625 122.091C133.625 122.091 133.408 139.289 113.695 144.641Z" fill="#56A550"/>
<path d="M104.556 242.367C107.518 231.464 121.472 234.749 121.472 234.749C121.472 234.749 116.99 244.357 104.556 242.367Z" fill="#56A550"/>
<path d="M471.711 100.621C454.131 105.795 446.806 83.7241 446.806 83.7241C446.806 83.7241 463.892 81.751 471.711 100.621Z" fill="#56A550"/>
<path d="M667.586 378.194C659.216 390.9 638.987 400.716 632.029 396.132C625.071 391.548 634.018 374.303 642.388 361.596C650.757 348.889 660.491 336.45 667.45 341.033C674.408 345.617 675.956 365.487 667.586 378.194Z" fill="#FCEFE8"/>
<path d="M19.2416 204.812C24.3278 197.089 36.1202 190.79 39.9837 193.335C43.8472 195.88 38.3202 206.305 33.2341 214.028C28.1479 221.751 22.2878 229.349 18.423 226.804C14.5582 224.259 14.1541 212.535 19.2416 204.812Z" fill="#FCEFE8"/>
<path d="M1.60197 252.897C3.65113 243.879 9.29482 240.476 13.8064 241.502C18.3179 242.528 17.7131 254.864 15.664 263.882C13.6148 272.9 14.4505 299.281 7.89505 299.057C-2.28513 298.707 -0.44718 261.915 1.60197 252.897Z" fill="#FCEFE8"/>
<defs>
<linearGradient id="paint0_linear_47_15" x1="30.5901" y1="19.8767" x2="348.18" y2="421.26" gradientUnits="userSpaceOnUse">
<stop stop-color="#92FFC0"/>
<stop offset="1" stop-color="#002661"/>
</linearGradient>
<linearGradient id="paint1_linear_47_15" x1="236.462" y1="83.3723" x2="265.275" y2="49.5846" gradientUnits="userSpaceOnUse">
<stop offset="1.70489e-07" stop-color="#4EB9C4"/>
<stop offset="0.9926" stop-color="#06B584"/>
</linearGradient>
<linearGradient id="paint2_linear_47_15" x1="260.836" y1="137.689" x2="319.045" y2="106.023" gradientUnits="userSpaceOnUse">
<stop offset="1.70489e-07" stop-color="#4EB9C4"/>
<stop offset="0.9926" stop-color="#06B584"/>
</linearGradient>
<linearGradient id="paint3_linear_47_15" x1="260.836" y1="131.276" x2="303.123" y2="93.9449" gradientUnits="userSpaceOnUse">
<stop offset="1.70489e-07" stop-color="#4EB9C4"/>
<stop offset="0.9926" stop-color="#06B584"/>
</linearGradient>
<linearGradient id="paint4_linear_47_15" x1="254.627" y1="107.088" x2="288.355" y2="78.0296" gradientUnits="userSpaceOnUse">
<stop offset="1.70489e-07" stop-color="#4EB9C4"/>
<stop offset="0.9926" stop-color="#06B584"/>
</linearGradient>
<linearGradient id="paint5_linear_47_15" x1="302.706" y1="269.903" x2="377.364" y2="294.255" gradientUnits="userSpaceOnUse">
<stop stop-color="#92FFC0"/>
<stop offset="1" stop-color="#002661"/>
</linearGradient>
<linearGradient id="paint6_linear_47_15" x1="342.591" y1="244.681" x2="414.494" y2="264.102" gradientUnits="userSpaceOnUse">
<stop stop-color="#92FFC0"/>
<stop offset="1" stop-color="#002661"/>
</linearGradient>
</defs>
</svg>
