<svg width="570" height="550" viewBox="0 0 570 550" fill="none" xmlns="http://www.w3.org/2000/svg">
<path d="M284.81 465.953C399.687 465.953 492.814 376.034 492.814 265.113C492.814 154.193 399.687 64.2739 284.81 64.2739C169.933 64.2739 76.8062 154.193 76.8062 265.113C76.8062 376.034 169.933 465.953 284.81 465.953Z" fill="#006D7F"/>
<mask id="mask0_85_2269" style="mask-type:luminance" maskUnits="userSpaceOnUse" x="76" y="64" width="417" height="402">
<path d="M284.81 465.953C399.687 465.953 492.814 376.034 492.814 265.113C492.814 154.193 399.687 64.2739 284.81 64.2739C169.933 64.2739 76.8062 154.193 76.8062 265.113C76.8062 376.034 169.933 465.953 284.81 465.953Z" fill="white"/>
</mask>
<g mask="url(#mask0_85_2269)">
<path d="M284.81 489.316C387.338 489.316 470.453 404.745 470.453 300.42C470.453 196.096 387.338 111.524 284.81 111.524C182.282 111.524 99.1672 196.096 99.1672 300.42C99.1672 404.745 182.282 489.316 284.81 489.316Z" fill="#028C93"/>
</g>
<mask id="mask1_85_2269" style="mask-type:luminance" maskUnits="userSpaceOnUse" x="76" y="64" width="417" height="402">
<path d="M284.81 465.953C399.687 465.953 492.814 376.034 492.814 265.113C492.814 154.193 399.687 64.2739 284.81 64.2739C169.933 64.2739 76.8062 154.193 76.8062 265.113C76.8062 376.034 169.933 465.953 284.81 465.953Z" fill="white"/>
</mask>
<g mask="url(#mask1_85_2269)">
<path d="M274.318 338.257C274.318 338.257 323.281 276.66 331.712 272.344C340.144 268.028 412.066 315.699 417.754 316.973C417.754 316.973 408.409 329.712 405.158 332.415C405.158 332.415 341.363 296.276 337.3 295.492C333.236 294.707 281.226 357.663 274.318 360.122C267.409 362.581 258.788 357.477 274.318 338.257Z" fill="#233C42"/>
<path d="M269.306 351.466C269.306 351.466 295.041 326.036 305.2 315.864C315.358 305.693 334.862 284.899 340.957 282.936C347.052 280.975 407.652 298.676 407.652 298.676C407.652 298.676 406.84 316.314 405.621 317.883C404.402 319.453 349.491 301.769 346.241 301.769C342.99 301.769 279.024 379.845 264.075 381.806C249.126 383.768 237.365 372.39 237.365 372.39L269.306 351.466Z" fill="#2B4951"/>
<path d="M403.994 302.583C403.994 302.583 409.683 296.274 410.903 289.816C412.122 283.358 410.903 265.654 410.903 265.654C410.903 265.654 424.311 263.643 425.937 265.654C427.563 267.664 427.968 298.267 425.937 300.621C423.906 302.975 420.248 305.329 420.248 305.329C420.248 305.329 424.311 308.86 424.311 311.999C424.311 315.137 423.092 319.846 423.092 319.846C423.092 319.846 408.058 319.976 403.994 316.184C399.931 312.391 403.994 302.583 403.994 302.583Z" fill="#3C2814"/>
<path d="M414.098 317.202C414.098 317.202 419.38 319.294 423.037 317.202C426.694 315.109 434.008 297.846 436.446 293.53C438.884 289.215 448.636 297.454 449.855 300.2C451.074 302.947 439.29 325.848 436.039 327.344C432.789 328.841 427.506 330.018 427.506 330.018C427.506 330.018 432.289 336.296 430.101 337.864C427.913 339.434 420.841 344.535 420.841 344.535C420.841 344.535 407.235 335.903 404.978 329.625C402.72 323.349 414.098 317.202 414.098 317.202Z" fill="#3C2814"/>
<path d="M197.65 382.034C197.65 382.034 196.428 391.317 201.715 395.455C207.002 399.593 213.872 395.455 213.872 395.455L217.837 397.294C217.837 397.294 208.886 407.44 197.65 401.685C186.414 395.931 193.826 382.034 193.826 382.034L197.65 382.034Z" fill="#191919"/>
<path d="M264.43 472.307C264.43 476.063 261.277 479.108 257.387 479.108C253.497 479.108 250.344 476.063 250.344 472.307V406.917C250.344 403.161 253.497 400.116 257.387 400.116C261.277 400.116 264.43 403.161 264.43 406.917V472.307Z" fill="#191919"/>
<path d="M294.229 475.38C294.229 478.094 291.95 480.293 289.141 480.293C286.33 480.293 284.052 478.094 284.052 475.38V448.971C284.052 446.258 286.331 444.059 289.141 444.059C291.951 444.059 294.229 446.259 294.229 448.971V475.38Z" fill="#191919"/>
<path d="M231.967 475.38C231.967 478.094 229.688 480.293 226.878 480.293C224.068 480.293 221.79 478.094 221.79 475.38V448.971C221.79 446.258 224.069 444.059 226.878 444.059C229.689 444.059 231.967 446.259 231.967 448.971V475.38Z" fill="#191919"/>
<path d="M293.087 448.505C293.087 450.961 291.025 452.952 288.481 452.952H227.454C224.91 452.952 222.848 450.961 222.848 448.505C222.848 446.05 224.91 444.059 227.454 444.059H288.481C291.025 444.059 293.087 446.05 293.087 448.505Z" fill="#191919"/>
<path d="M213.872 400.116C210.313 397.359 209.365 377.622 213.872 376.052C218.379 374.483 297.479 373.96 302.897 379.192C308.315 384.423 305.064 402.209 302.897 404.301C300.73 406.394 226.702 410.055 213.872 400.116Z" fill="#191919"/>
<path d="M137.231 304.385C141.232 301.06 153.907 299.968 166.368 312.377C178.829 324.787 211.422 366.636 210.837 370.299C210.253 373.96 196.958 386.296 194.394 387.039C191.829 387.781 156.635 354.688 144.355 338.388C132.075 322.088 130.306 310.14 137.231 304.385Z" fill="#191919"/>
<path d="M133.319 366.636C133.319 366.636 119.774 380.238 123.025 384.423C126.276 388.607 135.486 381.284 135.486 381.284C135.486 381.284 132.236 394.363 138.195 395.408C144.155 396.455 144.355 379.715 144.355 379.715C144.355 379.715 153.906 394.885 159.866 391.747C165.826 388.608 153.532 373.961 153.532 373.961C153.532 373.961 170.16 366.114 169.076 362.975C167.992 359.837 144.355 361.406 144.355 361.406C144.355 361.406 131.03 341.678 131.774 325.171C126.651 325.034 121.529 324.872 116.403 324.791C115.68 337.491 120.02 352.343 133.319 366.636Z" fill="#FBD9B6"/>
<path d="M288.268 256.502C282.42 254.119 276.704 251.394 271.145 248.702C270.884 249.125 270.678 249.569 270.389 249.98C257.928 267.767 217.974 265.987 217.974 265.987C217.974 265.987 196.165 270.417 190.748 286.878C190.748 286.878 149.03 284.768 133.319 293.53C124.884 298.234 117.24 310.066 116.403 324.79C121.528 324.872 126.651 325.034 131.774 325.17C131.869 323.058 132.163 320.99 132.777 319.032C138.195 301.769 190.748 307 190.748 307C190.748 307 216.753 365.066 234.09 376.052C247.093 372.783 266.462 358.789 271.88 351.466C277.297 344.142 281.226 333.679 281.226 333.679C281.226 333.679 238.967 308.831 232.465 282.937C232.465 282.937 277.456 279.066 288.268 256.502Z" fill="#8ACFE7"/>
<path d="M290.436 248.934C293.686 219.639 273.099 188.613 273.099 188.613C273.099 188.613 280.684 186.16 280.684 179.883C280.684 173.605 275.266 161.573 270.39 158.958C265.514 156.342 256.304 167.851 256.304 167.851C256.304 167.851 246.01 152.43 238.966 158.571C231.923 164.712 249.802 173.28 259.554 188.612C269.08 203.59 282.156 230.866 271.145 248.702C276.704 251.394 282.42 254.118 288.268 256.502C289.38 254.182 290.133 251.666 290.436 248.934Z" fill="#FBD9B6"/>
<path d="M266.191 253.855C266.191 253.855 269.022 242.478 274.108 241.914C274.108 241.914 286.12 245.003 290.784 247.885C295.448 250.766 290.845 259.831 286.102 262.633C286.102 262.633 269.848 256.553 266.191 253.855Z" fill="#48B3CC"/>
<path d="M203.944 272.345V293.531C203.944 293.531 189.394 290.785 185.33 286.862C181.267 282.938 203.944 272.345 203.944 272.345Z" fill="#48B3CC"/>
<path d="M219.056 260.966C219.056 260.966 226.729 272.888 225.977 277.596C222.818 278.757 201.715 277.153 201.715 277.153C201.715 277.153 213.596 262.103 219.056 260.966Z" fill="#48B3CC"/>
<path d="M114.628 331.195C114.628 331.195 132.912 333.942 135.351 331.195C137.789 328.449 137.924 319.817 135.351 319.425C132.778 319.033 119.098 316.155 114.628 317.202C110.158 318.248 112.76 330.939 114.628 331.195Z" fill="#48B3CC"/>
<path d="M210.252 282.938C210.252 282.938 239.508 337.342 269.306 351.466C269.306 351.466 234.413 318.509 210.252 282.938Z" fill="#2697AA"/>
<path d="M201.715 313.801L217.295 304.385C217.295 304.385 225.99 314.324 225.977 317.202C225.964 320.079 221.629 326.88 221.629 326.88C221.629 326.88 214.044 327.926 210.252 326.88C206.46 325.833 201.715 313.801 201.715 313.801Z" fill="#48B3CC"/>
<path d="M196.784 210.753C196.784 210.753 201.584 198.651 188.581 188.613C188.581 188.613 197.65 180.144 193.115 171.513C188.581 162.881 178.016 175.436 178.016 175.436C178.016 175.436 182.079 145.619 151.197 147.188C120.316 148.757 151.197 178.941 151.197 178.941C151.197 178.941 124.379 164.397 108.939 178.941C93.4975 193.484 124.379 191.915 124.379 191.915C124.379 191.915 101.917 206.824 104.615 224.872C104.615 224.872 91.0596 223.302 91.0596 230.365C91.0596 237.427 105.687 237.747 105.687 237.747C105.687 237.747 99.1859 251.551 105.687 253.12C112.189 254.69 117.877 246.058 117.877 246.058C117.877 246.058 135.756 264.106 149.572 262.536C163.388 260.966 196.784 210.753 196.784 210.753Z" fill="#BF7C40"/>
<path d="M181.904 188.613C181.904 188.613 225.151 252.335 225.964 257.043C226.777 261.751 189.394 287.646 185.33 286.861C181.267 286.077 168.264 270.383 168.264 270.383C168.264 270.383 157.699 279.015 146.322 267.245C134.945 255.475 155.261 248.413 155.261 248.413C155.261 248.413 151.59 231.15 142.861 224.872C142.861 224.872 160.137 224.088 161.763 220.948C163.389 217.81 154.449 212.317 154.449 212.317C154.449 212.317 180.454 209.178 180.454 202.901C180.454 196.623 166.639 194.269 166.639 194.269C166.639 194.269 181.904 193.321 181.904 188.613Z" fill="#FBD9B6"/>
<path d="M202.396 237.745C202.396 237.745 177.505 253.598 169.076 254.689C169.076 254.689 187.214 272.736 197.649 269.598C208.085 266.459 202.396 237.745 202.396 237.745Z" fill="#873A06"/>
<path d="M173.57 231.668C175.462 234.866 174.985 238.569 172.504 239.938C170.023 241.307 166.477 239.825 164.583 236.626C162.691 233.428 163.168 229.725 165.649 228.356C168.131 226.987 171.677 228.47 173.57 231.668Z" fill="black"/>
<path d="M192.668 219.066C194.56 222.264 194.083 225.967 191.602 227.336C189.12 228.705 185.575 227.222 183.681 224.024C181.789 220.826 182.266 217.123 184.747 215.754C187.229 214.385 190.775 215.868 192.668 219.066Z" fill="black"/>
</g>
<mask id="mask2_85_2269" style="mask-type:luminance" maskUnits="userSpaceOnUse" x="76" y="64" width="417" height="402">
<path d="M284.81 465.953C399.687 465.953 492.814 376.034 492.814 265.113C492.814 154.193 399.687 64.2739 284.81 64.2739C169.933 64.2739 76.8062 154.193 76.8062 265.113C76.8062 376.034 169.933 465.953 284.81 465.953Z" fill="white"/>
</mask>
<g mask="url(#mask2_85_2269)">
<path d="M465.432 318.419C465.432 318.419 467.599 333.157 465.432 334.727C463.264 336.296 446.469 343.62 447.011 347.804C457.3 349.632 497.938 347.804 497.938 347.804C497.938 347.804 485.103 335.973 479.602 334.042V315.865L465.432 318.419Z" fill="#BFBFBF"/>
<path d="M471.391 227.846C471.391 227.846 485.477 236.985 486.56 241.913C487.644 246.841 488.728 313.22 486.56 315.864C484.393 318.509 473.557 318.418 473.557 318.418L471.391 227.846Z" fill="#BFBFBF"/>
<path d="M476.808 316.265C476.808 319.238 475.419 321.648 473.705 321.648H457.156C455.443 321.648 454.053 319.238 454.053 316.265V210.264C454.053 207.29 455.443 204.88 457.156 204.88H473.705C475.419 204.88 476.808 207.29 476.808 210.264V316.265Z" fill="#E9E9E9"/>
<path d="M367.369 347.804L369.536 342.05H420.841L423.172 348.616L367.369 347.804Z" fill="#BFBFBF"/>
<path d="M516.359 347.804H358.159V479.108H516.359V347.804Z" fill="#BA784A"/>
</g>
<path d="M305.226 160.967L318.081 138.157L332.069 145.507L330.688 147.957L319.507 142.082L315.163 149.789L325.62 155.284L324.239 157.734L313.782 152.24L309.413 159.991L320.776 165.962L319.395 168.412L305.226 160.967ZM328.8 173.873C327.699 173.294 326.814 172.565 326.146 171.685C325.483 170.797 325.107 169.825 325.018 168.768C324.933 167.703 325.205 166.614 325.833 165.5C326.385 164.52 327.029 163.829 327.764 163.426C328.504 163.016 329.3 162.809 330.153 162.805C331.007 162.801 331.877 162.921 332.766 163.167C333.666 163.409 334.549 163.69 335.415 164.01C336.547 164.432 337.459 164.781 338.153 165.059C338.859 165.334 339.411 165.465 339.809 165.453C340.215 165.445 340.537 165.229 340.775 164.806L340.826 164.717C341.445 163.618 341.621 162.603 341.353 161.673C341.092 160.747 340.347 159.961 339.117 159.315C337.842 158.645 336.688 158.395 335.654 158.564C334.62 158.732 333.78 159.051 333.134 159.52L331.101 157.297C332.14 156.496 333.199 156.004 334.28 155.821C335.373 155.635 336.433 155.662 337.46 155.904C338.5 156.142 339.457 156.491 340.332 156.951C340.891 157.244 341.494 157.648 342.143 158.162C342.804 158.673 343.361 159.307 343.814 160.065C344.275 160.827 344.503 161.731 344.5 162.778C344.496 163.826 344.112 165.029 343.346 166.387L336.994 177.659L334.323 176.255L335.628 173.939L335.493 173.867C335.102 174.143 334.577 174.382 333.915 174.583C333.254 174.784 332.489 174.849 331.62 174.778C330.751 174.706 329.811 174.404 328.8 173.873ZM330.538 171.726C331.595 172.281 332.6 172.545 333.554 172.517C334.516 172.493 335.364 172.255 336.098 171.804C336.839 171.356 337.411 170.776 337.813 170.063L339.169 167.657C338.98 167.731 338.662 167.723 338.214 167.632C337.779 167.538 337.289 167.401 336.745 167.221C336.212 167.037 335.696 166.852 335.194 166.666C334.705 166.476 334.306 166.325 333.999 166.211C333.254 165.935 332.524 165.739 331.807 165.623C331.102 165.502 330.454 165.542 329.863 165.741C329.283 165.937 328.805 166.369 328.428 167.037C327.913 167.951 327.868 168.822 328.291 169.65C328.725 170.475 329.474 171.167 330.538 171.726ZM361.664 173.414L358.888 172.821C358.959 172.349 358.952 171.849 358.867 171.323C358.794 170.794 358.577 170.276 358.217 169.769C357.857 169.263 357.289 168.805 356.512 168.397C355.448 167.838 354.425 167.614 353.444 167.724C352.475 167.83 351.783 168.251 351.368 168.986C351 169.639 350.951 170.282 351.22 170.915C351.49 171.547 352.066 172.259 352.95 173.051L355.179 175.03C356.524 176.218 357.362 177.395 357.693 178.56C358.028 179.717 357.859 180.894 357.185 182.089C356.633 183.07 355.852 183.795 354.844 184.266C353.843 184.741 352.707 184.933 351.438 184.844C350.168 184.754 348.858 184.354 347.508 183.645C345.734 182.713 344.48 181.563 343.745 180.196C343.01 178.828 342.898 177.335 343.409 175.717L346.296 176.425C346.018 177.473 346.085 178.403 346.497 179.216C346.917 180.034 347.674 180.73 348.768 181.304C350.013 181.959 351.148 182.218 352.172 182.083C353.209 181.944 353.934 181.507 354.349 180.772C354.683 180.178 354.752 179.57 354.556 178.947C354.364 178.316 353.886 177.671 353.124 177.011L350.603 174.82C349.221 173.612 348.375 172.422 348.068 171.25C347.772 170.075 347.957 168.897 348.622 167.716C349.166 166.751 349.923 166.042 350.892 165.589C351.869 165.139 352.956 164.955 354.152 165.035C355.357 165.119 356.57 165.483 357.792 166.125C359.512 167.029 360.654 168.11 361.216 169.368C361.786 170.629 361.935 171.978 361.664 173.414ZM356.624 196.288C356.171 196.05 355.789 195.801 355.476 195.54C355.159 195.287 354.951 195.091 354.853 194.953L356.838 192.993C357.395 193.498 357.935 193.858 358.458 194.075C358.981 194.293 359.546 194.305 360.152 194.114C360.762 193.934 361.474 193.495 362.288 192.797L363.539 191.722L366.803 171.148L369.7 172.67L366.815 188.824L366.997 188.919L379.478 177.808L382.375 179.33L363.949 195.055C363.119 195.764 362.296 196.28 361.479 196.601C360.658 196.93 359.843 197.065 359.036 197.006C358.235 196.952 357.431 196.712 356.624 196.288ZM392.646 177.336L383.18 193.611L380.554 192.231L389.567 175.718L392.646 177.336ZM378.151 199.515C377.592 199.221 377.224 198.773 377.046 198.169C376.868 197.566 376.934 196.989 377.244 196.44C377.553 195.89 378.019 195.524 378.641 195.34C379.262 195.157 379.852 195.212 380.411 195.505C380.969 195.799 381.337 196.247 381.515 196.851C381.693 197.454 381.627 198.031 381.318 198.58C381.113 198.944 380.83 199.229 380.47 199.434C380.117 199.643 379.734 199.76 379.32 199.783C378.918 199.802 378.528 199.713 378.151 199.515Z" fill="white"/>
</svg>
