<svg width="600" height="443" viewBox="0 0 600 443" fill="none" xmlns="http://www.w3.org/2000/svg">
<mask id="mask0_55_10884" style="mask-type:luminance" maskUnits="userSpaceOnUse" x="0" y="0" width="600" height="444">
<path d="M600 0H0V443.008H600V0Z" fill="white"/>
</mask>
<g mask="url(#mask0_55_10884)">
<path d="M464.054 182.851C464.054 223.162 441.718 255.84 414.165 255.84C386.612 255.84 364.276 223.162 364.276 182.851C364.276 142.54 399.231 60.4468 414.165 60.4468C431.359 60.4477 464.054 142.541 464.054 182.851Z" fill="url(#paint0_linear_55_10884)"/>
<path d="M414.165 379.432C413.06 379.432 412.165 378.441 412.165 377.217V107.208C412.165 105.984 413.06 104.993 414.165 104.993C415.27 104.993 416.165 105.984 416.165 107.208V377.217C416.165 378.441 415.269 379.432 414.165 379.432Z" fill="#D8E2E5"/>
<path d="M414.164 228.149C413.789 228.149 413.414 228.004 413.11 227.709L376.235 191.843C375.571 191.197 375.506 190.077 376.088 189.342C376.671 188.606 377.682 188.534 378.346 189.18L415.22 225.046C415.884 225.692 415.95 226.812 415.367 227.546C415.051 227.946 414.608 228.149 414.164 228.149Z" fill="#D8E2E5"/>
<path d="M414.163 175.707C413.839 175.707 413.511 175.597 413.227 175.37L373.843 143.789C373.127 143.215 372.967 142.107 373.486 141.314C374.004 140.522 375.004 140.345 375.72 140.918L415.103 172.499C415.819 173.073 415.979 174.181 415.461 174.974C415.147 175.452 414.659 175.707 414.163 175.707Z" fill="#D8E2E5"/>
<path d="M414.164 136.861C413.787 136.861 413.41 136.714 413.105 136.416L390.383 114.148C389.721 113.499 389.659 112.379 390.244 111.646C390.831 110.914 391.84 110.846 392.503 111.493L415.225 133.761C415.887 134.41 415.948 135.53 415.363 136.263C415.047 136.659 414.606 136.861 414.164 136.861Z" fill="#D8E2E5"/>
<path d="M414.166 152.482C413.614 152.482 413.077 152.165 412.78 151.597C412.338 150.75 412.598 149.666 413.364 149.176L445.77 128.415C446.532 127.926 447.513 128.214 447.955 129.061C448.398 129.909 448.137 130.993 447.37 131.483L414.965 152.244C414.714 152.405 414.438 152.482 414.166 152.482Z" fill="#D8E2E5"/>
<path d="M414.166 199.895C413.565 199.895 412.989 199.519 412.716 198.875C412.34 197.989 412.685 196.934 413.485 196.519L452.024 176.486C452.823 176.071 453.776 176.449 454.152 177.337C454.528 178.223 454.183 179.278 453.383 179.694L414.844 199.727C414.625 199.841 414.394 199.895 414.166 199.895Z" fill="#D8E2E5"/>
<path d="M59.5409 282.003C78.464 282.003 93.8041 259.56 93.8041 231.875C93.8041 204.19 78.464 181.747 59.5409 181.747C40.6179 181.747 25.2777 204.19 25.2777 231.875C25.2777 259.56 40.6179 282.003 59.5409 282.003Z" fill="#E6ECED"/>
<path d="M59.5407 379.432C58.7823 379.432 58.1671 378.751 58.1671 377.911V192.471C58.1671 191.631 58.7823 190.95 59.5407 190.95C60.2991 190.95 60.9143 191.631 60.9143 192.471V377.911C60.9143 378.752 60.2991 379.432 59.5407 379.432Z" fill="#D8E2E5"/>
<path d="M59.54 275.533C59.2824 275.533 59.024 275.433 58.816 275.231L33.4912 250.598C33.0352 250.155 32.9904 249.385 33.3904 248.88C33.7912 248.375 34.4848 248.326 34.9408 248.769L60.2656 273.401C60.7216 273.845 60.7664 274.614 60.3664 275.118C60.1496 275.393 59.8456 275.533 59.54 275.533Z" fill="#D8E2E5"/>
<path d="M59.5402 239.515C59.317 239.515 59.0914 239.44 58.897 239.284L31.849 217.594C31.3578 217.2 31.2474 216.439 31.6034 215.895C31.9594 215.351 32.6466 215.229 33.1378 215.623L60.1858 237.312C60.677 237.707 60.7874 238.468 60.4314 239.012C60.2162 239.341 59.881 239.515 59.5402 239.515Z" fill="#D8E2E5"/>
<path d="M59.54 212.836C59.2816 212.836 59.0216 212.735 58.8128 212.531L43.2072 197.237C42.7528 196.791 42.7104 196.022 43.112 195.519C43.5152 195.016 44.208 194.97 44.6632 195.414L60.2688 210.707C60.7232 211.153 60.7656 211.922 60.364 212.425C60.1464 212.697 59.844 212.836 59.54 212.836Z" fill="#D8E2E5"/>
<path d="M59.5416 223.565C59.1624 223.565 58.7928 223.347 58.5896 222.957C58.2856 222.375 58.4648 221.631 58.9912 221.294L81.2472 207.036C81.7712 206.7 82.444 206.898 82.7488 207.48C83.0528 208.062 82.8736 208.806 82.3472 209.143L60.0912 223.401C59.9184 223.513 59.7288 223.565 59.5416 223.565Z" fill="#D8E2E5"/>
<path d="M59.5416 256.128C59.1288 256.128 58.7336 255.869 58.5464 255.428C58.288 254.819 58.5248 254.094 59.0744 253.809L85.5424 240.05C86.0904 239.765 86.7456 240.025 87.004 240.635C87.2624 241.244 87.0256 241.968 86.476 242.254L60.008 256.012C59.8568 256.091 59.6984 256.128 59.5416 256.128Z" fill="#D8E2E5"/>
<path d="M27.1522 329.405C37.9787 329.405 46.7554 317.881 46.7554 303.665C46.7554 289.45 37.9787 277.926 27.1522 277.926C16.3256 277.926 7.54895 289.45 7.54895 303.665C7.54895 317.881 16.3256 329.405 27.1522 329.405Z" fill="#E6ECED"/>
<path d="M27.153 379.432C26.7186 379.432 26.3674 379.082 26.3674 378.651V283.432C26.3674 283.001 26.7194 282.651 27.153 282.651C27.5866 282.651 27.9386 283.001 27.9386 283.432V378.651C27.9386 379.082 27.5866 379.432 27.153 379.432Z" fill="#D8E2E5"/>
<path d="M27.1522 326.083C27.005 326.083 26.857 326.031 26.7378 325.928L12.249 313.28C11.9882 313.052 11.9626 312.657 12.1914 312.397C12.421 312.138 12.8178 312.112 13.0786 312.34L27.5674 324.987C27.8282 325.215 27.8538 325.61 27.625 325.869C27.501 326.011 27.3274 326.083 27.1522 326.083Z" fill="#D8E2E5"/>
<path d="M27.1523 307.588C27.0243 307.588 26.8955 307.55 26.7843 307.47L11.3091 296.332C11.0275 296.13 10.9651 295.74 11.1683 295.46C11.3723 295.181 11.7651 295.118 12.0459 295.32L27.5211 306.457C27.8019 306.66 27.8651 307.051 27.6619 307.33C27.5387 307.499 27.3467 307.588 27.1523 307.588Z" fill="#D8E2E5"/>
<path d="M27.1522 293.889C27.0042 293.889 26.8554 293.838 26.7362 293.732L17.8082 285.879C17.5482 285.651 17.5242 285.256 17.7538 284.997C17.9842 284.738 18.381 284.715 18.641 284.943L27.5698 292.796C27.8298 293.024 27.8538 293.419 27.6242 293.678C27.4994 293.818 27.3258 293.889 27.1522 293.889Z" fill="#D8E2E5"/>
<path d="M27.1531 299.398C26.9363 299.398 26.7251 299.287 26.6083 299.087C26.4347 298.788 26.5371 298.405 26.8379 298.232L39.5715 290.911C39.8715 290.738 40.2563 290.84 40.4307 291.139C40.6043 291.438 40.5019 291.82 40.2011 291.993L27.4683 299.314C27.3683 299.371 27.2603 299.398 27.1531 299.398Z" fill="#D8E2E5"/>
<path d="M27.153 316.118C26.917 316.118 26.6906 315.985 26.5834 315.759C26.4362 315.446 26.5714 315.074 26.8858 314.928L42.029 307.862C42.3426 307.716 42.717 307.85 42.865 308.163C43.0122 308.476 42.877 308.848 42.5626 308.994L27.4194 316.058C27.3338 316.1 27.2426 316.118 27.153 316.118Z" fill="#D8E2E5"/>
<path d="M335.252 386.08H-57.0624V82.9656L137.538 18.0171L335.252 82.9656V386.08Z" fill="#D8E2E5"/>
<path d="M126.359 122.127H46.7561V249.752H126.359V122.127Z" fill="white"/>
<path d="M126.359 262.27H46.7561V306.637H126.359V262.27Z" fill="white"/>
<path d="M224.333 122.292H144.73V249.918H224.333V122.292Z" fill="white"/>
<path d="M224.333 262.27H144.73V306.637H224.333V262.27Z" fill="white"/>
<path d="M600 375.832H0.00012207V443.008H600V375.832Z" fill="white"/>
<path d="M139.095 -8.60229L-122.828 100.194L-119.34 111.516L139.095 28.2011L397.53 111.516L401.018 100.194L139.095 -8.60229Z" fill="#E6ECED"/>
<path d="M144.006 408.306H75.0984C73.5152 408.306 72.2192 406.87 72.2192 405.117C72.2192 403.362 73.5152 401.928 75.0984 401.928H144.006C145.59 401.928 146.886 403.363 146.886 405.117C146.886 406.871 145.59 408.306 144.006 408.306Z" fill="#B0C3C6"/>
<path d="M346.402 416.145H278.394C276.563 416.145 275.065 414.486 275.065 412.458C275.065 410.43 276.562 408.771 278.394 408.771H346.402C348.233 408.771 349.731 410.43 349.731 412.458C349.731 414.485 348.234 416.145 346.402 416.145Z" fill="#B0C3C6"/>
<path d="M522.706 406.238H442.263C440.771 406.238 439.551 404.886 439.551 403.235V402.893C439.551 401.24 440.772 399.889 442.263 399.889H522.706C524.198 399.889 525.418 401.241 525.418 402.893V403.235C525.418 404.886 524.198 406.238 522.706 406.238Z" fill="#B0C3C6"/>
<path d="M406.624 421.13H336.266C334.114 421.13 332.352 419.179 332.352 416.795C332.352 414.41 334.114 412.459 336.266 412.459H406.624C408.777 412.459 410.539 414.41 410.539 416.795C410.539 419.179 408.778 421.13 406.624 421.13Z" fill="#B0C3C6"/>
<path d="M159.978 385.712L148.898 391.592C147.246 392.468 147.618 395.182 149.43 395.477L257.336 413.04C260.562 413.565 263.849 412.73 266.545 410.699L289.269 393.587C291.402 391.981 290.638 388.308 288.085 387.897L235.418 379.431L159.978 385.712Z" fill="#B0C3C6"/>
<path d="M507.922 398.059H365.022C362.868 398.059 361.106 396.108 361.106 393.723C361.106 391.339 362.868 389.388 365.022 389.388H507.922C510.075 389.388 511.837 391.339 511.837 393.723C511.838 396.108 510.075 398.059 507.922 398.059Z" fill="#ACB4B5"/>
<path d="M231.429 60.1827C231.429 60.1827 239.507 79.0584 242.803 81.9592C244.029 83.0375 269.632 85.1941 271.714 84.9681C273.798 84.7431 272.894 91.0542 272.829 93.4588C271.385 96.8257 238.122 96.2932 235.012 93.403C231.902 90.5128 218.706 72.2166 218.706 72.2166C218.706 72.2166 224.532 56.7361 231.429 60.1827Z" fill="#006F7E"/>
<path d="M297.84 248.237L331.173 385.712H336.773L303.709 247.341L297.84 248.237Z" fill="#626666"/>
<path d="M298.54 248.237L265.207 385.712H259.607L292.67 247.341L298.54 248.237Z" fill="#626666"/>
<path d="M304.59 235.385H291.79V249.562H304.59V235.385Z" fill="#7F8384"/>
<path d="M308.323 231.25H288.057V240.702H308.323V231.25Z" fill="#626666"/>
<path d="M331.787 233.462H264.593C259.409 233.462 255.206 228.807 255.206 223.065V53.8116C255.206 48.0693 259.409 43.415 264.593 43.415H331.787C336.972 43.415 341.174 48.0702 341.174 53.8116V223.065C341.174 228.807 336.972 233.462 331.787 233.462Z" fill="#9A9FA0"/>
<path d="M255.206 118.431V223.065C255.206 228.808 259.409 233.462 264.593 233.462H331.786C336.971 233.462 341.174 228.807 341.174 223.065V118.431H255.206Z" fill="#CCCCCC"/>
<path d="M322.096 211.008C335.301 196.383 335.301 172.672 322.096 158.048C308.892 143.424 287.483 143.424 274.278 158.048C261.074 172.672 261.074 196.383 274.278 211.008C287.483 225.632 308.892 225.632 322.096 211.008Z" fill="#7F8384"/>
<path d="M298.19 151.878C300.399 151.878 302.19 149.895 302.19 147.448C302.19 145.002 300.399 143.018 298.19 143.018C295.981 143.018 294.19 145.002 294.19 147.448C294.19 149.895 295.981 151.878 298.19 151.878Z" fill="#7F8384"/>
<path d="M298.19 225.934C300.399 225.934 302.19 223.951 302.19 221.504C302.19 219.058 300.399 217.074 298.19 217.074C295.981 217.074 294.19 219.058 294.19 221.504C294.19 223.951 295.981 225.934 298.19 225.934Z" fill="#7F8384"/>
<path d="M331.623 188.906C333.832 188.906 335.623 186.922 335.623 184.476C335.623 182.029 333.832 180.046 331.623 180.046C329.414 180.046 327.623 182.029 327.623 184.476C327.623 186.922 329.414 188.906 331.623 188.906Z" fill="#7F8384"/>
<path d="M264.757 188.906C266.966 188.906 268.757 186.922 268.757 184.476C268.757 182.029 266.966 180.046 264.757 180.046C262.548 180.046 260.757 182.029 260.757 184.476C260.757 186.922 262.548 188.906 264.757 188.906Z" fill="#7F8384"/>
<path d="M298.19 215.981C313.875 215.981 326.59 201.898 326.59 184.527C326.59 167.156 313.875 153.073 298.19 153.073C282.506 153.073 269.79 167.156 269.79 184.527C269.79 201.898 282.506 215.981 298.19 215.981Z" fill="#626666"/>
<path d="M299.999 147.449C299.999 148.555 299.189 149.453 298.19 149.453C297.19 149.453 296.38 148.555 296.38 147.449C296.38 146.342 297.19 145.444 298.19 145.444C299.19 145.444 299.999 146.342 299.999 147.449Z" fill="#626666"/>
<path d="M331.623 186.531C330.624 186.531 329.813 185.634 329.813 184.527C329.813 183.42 330.624 182.523 331.623 182.523C332.622 182.523 333.433 183.42 333.433 184.527C333.433 185.635 332.622 186.531 331.623 186.531Z" fill="#626666"/>
<path d="M264.665 186.531C263.665 186.531 262.855 185.634 262.855 184.527C262.855 183.42 263.665 182.523 264.665 182.523C265.664 182.523 266.474 183.42 266.474 184.527C266.474 185.635 265.664 186.531 264.665 186.531Z" fill="#626666"/>
<path d="M299.999 221.606C299.999 222.713 299.189 223.61 298.19 223.61C297.19 223.61 296.38 222.713 296.38 221.606C296.38 220.499 297.19 219.602 298.19 219.602C299.19 219.603 299.999 220.499 299.999 221.606Z" fill="#626666"/>
<path d="M332.04 76.4141C333.412 67.3406 327.882 58.7539 319.689 57.235C311.497 55.7162 303.744 61.8404 302.372 70.9139C301.001 79.9873 306.531 88.574 314.723 90.0929C322.916 91.6117 330.669 85.4875 332.04 76.4141Z" fill="#7F8384"/>
<path d="M318.986 57.1802C318.986 58.2682 318.189 59.1507 317.206 59.1507C316.224 59.1507 315.427 58.2682 315.427 57.1802C315.427 56.0922 316.224 55.2097 317.206 55.2097C318.19 55.2097 318.986 56.0922 318.986 57.1802Z" fill="#7F8384"/>
<path d="M318.986 90.1204C318.986 91.2084 318.189 92.0909 317.206 92.0909C316.224 92.0909 315.427 91.2084 315.427 90.1204C315.427 89.0324 316.224 88.1499 317.206 88.1499C318.19 88.1499 318.986 89.0315 318.986 90.1204Z" fill="#7F8384"/>
<path d="M332.078 75.6207C331.095 75.6207 330.298 74.7382 330.298 73.6502C330.298 72.5622 331.095 71.6797 332.078 71.6797C333.06 71.6797 333.857 72.5622 333.857 73.6502C333.857 74.7382 333.06 75.6207 332.078 75.6207Z" fill="#7F8384"/>
<path d="M302.336 75.6207C301.354 75.6207 300.557 74.7382 300.557 73.6502C300.557 72.5622 301.354 71.6797 302.336 71.6797C303.318 71.6797 304.115 72.5622 304.115 73.6502C304.115 74.7382 303.318 75.6207 302.336 75.6207Z" fill="#7F8384"/>
<path d="M322.923 86.1328C329.142 82.6327 331.622 74.2113 328.462 67.323C325.301 60.4348 317.698 57.6882 311.478 61.1883C305.258 64.6885 302.779 73.1099 305.939 79.9981C309.099 86.8864 316.703 89.633 322.923 86.1328Z" fill="#626666"/>
<path d="M318.011 57.1795C318.011 57.6719 317.651 58.0704 317.207 58.0704C316.762 58.0704 316.402 57.6719 316.402 57.1795C316.402 56.6871 316.762 56.2886 317.207 56.2886C317.651 56.2886 318.011 56.688 318.011 57.1795Z" fill="#626666"/>
<path d="M317.217 91.0711C317.661 91.0594 318.013 90.6511 318.002 90.1592C317.992 89.6674 317.623 89.2781 317.178 89.2898C316.734 89.3015 316.382 89.7098 316.393 90.2017C316.404 90.6936 316.772 91.0828 317.217 91.0711Z" fill="#626666"/>
<path d="M294.27 76.4763C295.663 67.4074 290.154 58.805 281.966 57.2623C273.777 55.7195 266.01 61.8206 264.617 70.8895C263.224 79.9583 268.733 88.5607 276.921 90.1035C285.11 91.6462 292.877 85.5451 294.27 76.4763Z" fill="#7F8384"/>
<path d="M281.229 57.1802C281.229 58.2682 280.432 59.1507 279.45 59.1507C278.467 59.1507 277.67 58.2682 277.67 57.1802C277.67 56.0922 278.467 55.2097 279.45 55.2097C280.432 55.2097 281.229 56.0922 281.229 57.1802Z" fill="#7F8384"/>
<path d="M281.229 90.1206C281.229 91.2087 280.432 92.0912 279.45 92.0912C278.467 92.0912 277.67 91.2087 277.67 90.1206C277.67 89.0326 278.467 88.1501 279.45 88.1501C280.432 88.1501 281.229 89.0317 281.229 90.1206Z" fill="#7F8384"/>
<path d="M294.321 75.6209C295.303 75.6209 296.1 74.7387 296.1 73.6504C296.1 72.5622 295.303 71.6799 294.321 71.6799C293.338 71.6799 292.542 72.5622 292.542 73.6504C292.542 74.7387 293.338 75.6209 294.321 75.6209Z" fill="#7F8384"/>
<path d="M264.579 75.6209C265.561 75.6209 266.358 74.7387 266.358 73.6504C266.358 72.5622 265.561 71.6799 264.579 71.6799C263.596 71.6799 262.799 72.5622 262.799 73.6504C262.799 74.7387 263.596 75.6209 264.579 75.6209Z" fill="#7F8384"/>
<path d="M284.881 86.3099C291.177 82.9813 293.844 74.6307 290.839 67.6582C287.833 60.6858 280.293 57.7318 273.998 61.0604C267.702 64.389 265.035 72.7397 268.04 79.7122C271.046 86.6846 278.586 89.6385 284.881 86.3099Z" fill="#626666"/>
<path d="M280.254 57.1797C280.254 57.6721 279.894 58.0706 279.449 58.0706C279.005 58.0706 278.645 57.6721 278.645 57.1797C278.645 56.6873 279.005 56.2888 279.449 56.2888C279.893 56.2888 280.254 56.6882 280.254 57.1797Z" fill="#626666"/>
<path d="M280.254 90.1653C280.254 90.6577 279.894 91.0562 279.449 91.0562C279.005 91.0562 278.645 90.6577 278.645 90.1653C278.645 89.6729 279.005 89.2744 279.449 89.2744C279.893 89.2744 280.254 89.6729 280.254 90.1653Z" fill="#626666"/>
<path d="M233.745 128.498C233.745 128.498 232.152 158.609 231.408 165.251C230.664 171.894 213.585 233.396 213.585 233.396L207.239 231.923C207.239 231.923 209.584 185.417 218.272 170.533C221.102 155.571 209.08 139.151 212.813 122.127C221.771 122.217 233.745 128.498 233.745 128.498Z" fill="#2A3051"/>
<path d="M239.245 126.55C239.245 126.55 243.261 156.382 243.763 163.053C244.265 169.724 241.505 233.835 241.505 233.835H235.021C235.021 233.835 226.261 191.093 231.885 171.205C231.885 155.919 217.078 142.577 217.58 125.067C226.363 123.123 239.245 126.55 239.245 126.55Z" fill="#2A3051"/>
<path d="M218.448 38.082C218.448 38.082 219.171 43.2165 217.336 47.6049C220.564 48.8454 223.306 52.2663 224.827 51.9987C225.874 51.8153 226.231 48.0453 226.231 48.0453L218.448 38.082Z" fill="#FCA08B"/>
<path d="M229.394 28.0522C229.394 28.0522 231.385 31.4607 231.571 32.9324C231.758 34.4032 231.087 35.7907 231.84 36.6731C232.593 37.5556 233.55 38.4026 233.752 38.9289C233.954 39.4552 232.635 40.7683 232.23 40.9827C232.276 42.4181 231.722 46.1526 231.219 47.4099C230.717 48.6671 227.498 47.8901 224.187 46.5549C220.877 45.2197 219.951 42.3224 219.279 40.53C218.606 38.7376 214.161 36.8459 216.87 31.5316C219.578 26.2182 228.519 26.4459 229.394 28.0522Z" fill="#FFB29C"/>
<path d="M231.979 43.9402C231.979 43.9402 233.053 45.7406 232.178 47.8449C231.303 49.9766 225.802 47.1617 225.802 47.1617C225.802 47.1617 229.528 47.673 230.703 46.2917C231.877 44.9104 231.979 43.9402 231.979 43.9402Z" fill="#202441"/>
<path d="M232.382 40.8828C232.382 40.8828 232.752 41.9389 232.652 43.268C230.552 43.3415 228.086 44.745 226.718 43.268C228.118 43.4159 229.166 42.5662 229.558 42.0497C229.952 41.5323 232.382 40.8828 232.382 40.8828Z" fill="#202441"/>
<path d="M223.445 30.2549C223.445 30.2549 229.272 30.5411 230.82 26.4034C232.368 22.2657 230.443 18.7615 228.527 18.7615C213.951 18.7615 214.415 27.4648 214.415 27.4648C209.879 27.3727 212.194 36.9691 218.478 42.178C220.304 40.5203 219.679 35.1581 219.679 35.1581L223.445 30.2549Z" fill="#202441"/>
<path d="M224.274 29.0171C224.274 29.0171 223.792 32.9714 222.618 34.0993C222.752 38.6897 224.274 41.5693 224.274 41.5693L221.7 41.8643C221.7 41.8643 223.134 35.7712 219.876 34.0922C216.618 32.4132 224.274 29.0171 224.274 29.0171Z" fill="#202441"/>
<path d="M230.067 36.7153C230.054 37.2237 229.816 37.6275 229.535 37.6195C229.255 37.6107 229.039 37.1918 229.051 36.6843C229.064 36.1769 229.302 35.7722 229.583 35.7801C229.863 35.789 230.079 36.2079 230.067 36.7153Z" fill="#202441"/>
<path d="M221.071 40.1134C221.071 40.1134 219.962 41.1332 218.647 39.1636C217.333 37.194 217.666 35.3608 218.409 34.5368C219.152 33.7129 220.741 34.1124 221.446 35.2271C222.15 36.3425 222.33 39.0972 221.071 40.1134Z" fill="#FFB29C"/>
<path d="M226.566 36C226.566 36 227.506 33.412 230.434 33.5307C230.729 33.4412 230.702 32.1778 229.842 32.1848C228.983 32.1919 226.781 33.6503 226.566 36Z" fill="#202441"/>
<path d="M229.281 53.9592C229.281 53.9592 225.842 49.0347 221.692 46.934C217.541 44.8333 216.297 45.8176 215.882 47.8528C215.467 49.888 214.933 52.9084 214.933 52.9084L229.281 53.9592Z" fill="#006F7E"/>
<path d="M208.057 61.1823C208.057 61.1823 211.733 52.6464 218.017 50.939C224.301 49.2317 226.791 52.5153 228.569 52.7775C230.348 53.0398 233.745 61.6492 235.152 67.4429C235.58 69.2043 237.318 76.5821 238.131 90.0806C239.004 104.577 239.538 128.738 239.538 128.738C239.538 128.738 223.99 129.028 216.54 126.664C213.713 95.9363 203.886 80.4062 208.057 61.1823Z" fill="#006F7E"/>
<path d="M238.907 75.4605C237.973 68.3724 231.923 56.6805 231.923 56.6805C231.923 56.6805 230.04 51.4645 225.04 51.6125C220.04 51.7604 219.235 57.0021 216.005 58.0361C212.774 59.0701 214.175 52.9636 214.175 52.9636C213.507 52.72 212.233 54.7445 211.681 55.425C211.129 56.1046 207.44 65.6408 208.44 87.5697C208.842 96.3802 212.141 103.016 212.64 110.052C213.383 120.529 208.269 122.128 212.651 135.856C228.04 143.61 240.279 134.333 240.279 134.333C240.279 134.333 239.839 82.5486 238.907 75.4605ZM237.839 96.1339C237.306 99.235 227.573 101.893 225.573 98.0539C223.573 94.2148 218.639 67.4863 220.239 61.1823C221.839 54.8783 228.506 55.2292 230.695 57.3476C232.884 59.4652 234.373 67.3384 234.373 67.3384C236.759 75.3205 238.373 93.0328 237.839 96.1339Z" fill="#2A3051"/>
<path d="M274.114 56.666C274.114 56.666 275.294 55.4814 275.906 54.1108C276.518 52.7401 277.354 49.4955 278.045 48.8682C278.737 48.2409 279.299 49.484 278.964 50.7404C278.629 51.9967 278.521 52.7472 278.521 52.7472C278.521 52.7472 282.609 48.3711 283.81 46.2589C284.942 44.9786 285.354 46.3989 284.729 47.5498C284.103 48.7007 281.462 52.2422 281.462 52.2422C281.462 52.2422 284.666 48.7309 285.606 47.3735C286.547 46.0161 286.95 46.3528 287.286 46.9411C287.623 47.5294 283.156 53.1716 282.829 53.4746C285.35 52.1146 287.598 49.126 288.038 48.8611C288.479 48.5953 289.191 48.979 288.896 49.8322C288.601 50.6845 284.867 54.6202 284.316 54.9525C285.976 54.1639 287.81 52.3733 288.292 52.189C288.773 52.0047 289.229 52.8376 288.119 53.8742C287.01 54.9117 282.796 58.4505 281.096 59.1575C279.396 59.8646 277.53 61.3655 277.53 61.3655L274.114 56.666Z" fill="#FFB29C"/>
<path d="M228.045 53.8459C228.045 53.8459 243.085 66.4513 247.218 67.3373C248.755 67.6669 272.36 56.4756 274.113 55.2095C275.866 53.9434 277.698 60.0038 278.645 62.1683C278.769 65.8931 249.048 82.4439 245.084 81.4728C241.12 80.5018 221.784 71.0294 221.784 71.0294C221.784 71.0294 220.49 54.3191 228.045 53.8459Z" fill="#006F7E"/>
<path d="M230.4 214.173L243.528 213.612C243.528 213.612 243.944 232.661 244.21 234.876C244.477 237.091 250.877 238.863 255.01 240.487C259.144 242.111 258.744 245.212 257.144 245.803C255.544 246.394 234.828 246.394 233.45 246.394C230.4 246.394 232.411 241.226 233.078 236.648C233.744 232.07 230.4 214.173 230.4 214.173Z" fill="#006F7E"/>
<path d="M257.439 243.286C255.839 243.877 235.123 243.877 233.745 243.877C232.865 243.877 232.415 243.438 232.224 242.715C231.932 244.811 232.103 246.314 233.745 246.314C235.123 246.314 255.839 246.314 257.439 245.723C258.436 245.355 258.966 244.012 258.225 242.66C258.028 242.947 257.759 243.168 257.439 243.286Z" fill="#4F4F4F"/>
<path d="M207.239 213.531L219.936 215.589C219.936 215.589 215.267 232.299 215.534 234.515C215.801 236.73 222.373 238.502 226.506 240.126C230.64 241.75 230.24 244.851 228.64 245.442C227.84 245.737 223.936 245.859 218.342 245.933C212.747 246.007 205.863 243.582 205.174 243.582C202.124 243.582 204.135 238.414 204.802 233.836C205.467 229.258 207.239 213.531 207.239 213.531Z" fill="#006F7E"/>
<path d="M228.639 243.227C227.839 243.522 223.935 243.644 218.341 243.718C212.746 243.792 205.862 241.366 205.173 241.366C204.264 241.366 203.811 240.9 203.632 240.135C203.37 242.15 203.572 243.581 205.173 243.581C205.862 243.581 212.746 246.007 218.341 245.933C223.935 245.86 227.839 245.738 228.639 245.442C229.605 245.085 230.125 243.813 229.483 242.505C229.283 242.838 228.993 243.096 228.639 243.227Z" fill="#4F4F4F"/>
<path d="M273.209 390.848V247.335L253.286 233.462C253.286 233.462 227.386 289.937 230.872 325.322C234.358 360.707 253.286 405.573 253.286 405.573L273.209 390.848Z" fill="#9A9FA0"/>
<path d="M158.649 246.517L253.285 233.462C253.285 233.462 246.312 283.478 253.285 405.573C218.751 401.895 158.649 394.106 158.649 394.106C158.649 394.106 146.031 297.084 158.649 246.517Z" fill="#ACB4B5"/>
<path d="M200.82 364.008C223.377 364.008 241.663 341.76 241.663 314.315C241.663 286.871 223.377 264.623 200.82 264.623C178.263 264.623 159.977 286.871 159.977 314.315C159.977 341.76 178.263 364.008 200.82 364.008Z" fill="#CCCCCC"/>
<path d="M199.327 364.008C221.058 364.008 238.676 341.76 238.676 314.315C238.676 286.871 221.058 264.623 199.327 264.623C177.595 264.623 159.978 286.871 159.978 314.315C159.978 341.76 177.595 364.008 199.327 364.008Z" fill="#E0E0E0"/>
<path d="M198.371 350.395C214.532 350.395 227.634 334.241 227.634 314.315C227.634 294.389 214.532 278.236 198.371 278.236C182.21 278.236 169.109 294.389 169.109 314.315C169.109 334.241 182.21 350.395 198.371 350.395Z" fill="#9A9FA0"/>
<path d="M201.235 345.686C214.76 345.686 225.724 331.641 225.724 314.315C225.724 296.989 214.76 282.944 201.235 282.944C187.711 282.944 176.747 296.989 176.747 314.315C176.747 331.641 187.711 345.686 201.235 345.686Z" fill="#7F8384"/>
<path d="M204.224 342.134C215.365 342.134 224.397 329.592 224.397 314.12C224.397 298.649 215.365 286.106 204.224 286.106C193.083 286.106 184.051 298.649 184.051 314.12C184.051 329.592 193.083 342.134 204.224 342.134Z" fill="#626666"/>
<path d="M154.852 268.945L251.282 258.806C251.295 258.542 251.309 258.274 251.322 258.014L154.94 268.149C154.91 268.414 154.881 268.679 154.852 268.945Z" fill="#9A9FA0"/>
<path d="M205.504 250.665C205.26 253.683 203.154 256.004 200.799 255.848C198.445 255.692 196.734 253.119 196.978 250.1C197.222 247.082 199.328 244.762 201.682 244.917C204.038 245.073 205.748 247.646 205.504 250.665Z" fill="#9A9FA0"/>
<path d="M203.934 250.561C203.69 253.58 201.584 255.899 199.23 255.744C196.875 255.588 195.164 253.015 195.408 249.997C195.652 246.979 197.758 244.658 200.113 244.814C202.467 244.969 204.178 247.542 203.934 250.561Z" fill="#E0E0E0"/>
<path d="M199.243 247.335C199.089 247.335 198.963 247.195 198.963 247.025V245.603C198.963 245.432 199.09 245.293 199.243 245.293C199.398 245.293 199.523 245.433 199.523 245.603V247.025C199.523 247.195 199.398 247.335 199.243 247.335Z" fill="#7F8384"/>
<path d="M217.21 241.468L235.83 239.055C236.877 238.92 237.776 239.871 237.702 241.035L237.03 251.589C236.974 252.485 236.346 253.208 235.54 253.308L216.799 255.615C215.747 255.744 214.85 254.777 214.938 253.609L215.731 243.16C215.798 242.278 216.417 241.571 217.21 241.468Z" fill="#CCCCCC"/>
<path d="M216.743 241.26L235.363 238.848C236.41 238.712 237.309 239.664 237.235 240.827L236.563 251.381C236.506 252.278 235.879 253.001 235.073 253.1L216.332 255.408C215.28 255.537 214.383 254.57 214.471 253.402L215.264 242.953C215.331 242.071 215.95 241.363 216.743 241.26Z" fill="#E0E0E0"/>
<path d="M244.356 237.835L241.981 238.127C241.558 238.179 241.233 238.566 241.217 239.037L241.142 241.226C241.123 241.798 241.561 242.26 242.077 242.21L244.444 241.981C244.874 241.939 245.21 241.549 245.228 241.071L245.31 238.82C245.33 238.238 244.879 237.771 244.356 237.835Z" fill="#7F8384"/>
<path d="M240.976 246.087L240.787 251.629C240.767 252.206 241.214 252.671 241.734 252.611L244.076 252.346C244.502 252.299 244.83 251.911 244.848 251.438L245.049 245.957C245.07 245.388 244.636 244.925 244.123 244.969L241.769 245.173C241.334 245.211 240.993 245.604 240.976 246.087Z" fill="#7F8384"/>
<path d="M188.017 245.297L185.015 245.665C184.745 245.698 184.537 245.945 184.527 246.246L184.429 249.122C184.417 249.487 184.697 249.782 185.025 249.75L188.017 249.459C188.292 249.433 188.505 249.184 188.517 248.879L188.625 245.924C188.639 245.554 188.35 245.255 188.017 245.297Z" fill="#7F8384"/>
<path d="M184.285 253.367L184.079 259.423C184.065 259.848 184.393 260.189 184.775 260.146L187.574 259.83C187.887 259.794 188.129 259.51 188.142 259.162L188.361 253.179C188.376 252.76 188.057 252.42 187.68 252.453L184.869 252.696C184.548 252.724 184.297 253.012 184.285 253.367Z" fill="#7F8384"/>
<path d="M120.974 218.536C120.974 218.536 118.406 220.119 112.233 225.482C106.058 230.845 96.8048 247.262 110.699 248.359C124.594 249.456 120.974 218.536 120.974 218.536Z" fill="#006F7E"/>
<path d="M112.106 287.876C112.106 287.876 111.069 318.016 110.448 324.675C109.827 331.333 93.8873 393.209 93.8873 393.209L87.5161 391.881C87.5161 391.881 89.0009 345.331 97.4129 330.254C99.9657 315.23 87.6433 299.086 91.0609 281.982C100.018 281.868 112.106 287.876 112.106 287.876Z" fill="#2A3051"/>
<path d="M117.569 285.804C117.569 285.804 122.134 315.54 122.759 322.197C123.384 328.855 121.809 393.016 121.809 393.016L115.327 393.163C115.327 393.163 105.779 350.629 111.034 330.618C110.751 315.334 95.7016 302.332 95.88 284.814C104.626 282.67 117.569 285.804 117.569 285.804Z" fill="#2A3051"/>
<path d="M140.546 204.528C140.546 204.528 138.805 209.354 135.207 212.093C137.413 214.982 138.197 219.473 139.63 220.103C140.615 220.536 142.656 217.493 142.656 217.493L140.546 204.528Z" fill="#FCA08B"/>
<path d="M154.579 202.078C154.579 202.078 154.723 206.135 154.206 207.505C153.689 208.876 152.474 209.691 152.715 210.876C152.957 212.06 153.121 214.294 153.052 214.861C152.983 215.428 151.515 214.849 151.067 214.804C150.447 216.065 148.251 218.966 147.24 219.763C146.229 220.561 143.817 218.075 141.583 215.059C139.35 212.042 139.887 209.026 140.133 207.104C140.379 205.182 137.425 201.045 142.201 198.002C146.977 194.958 154.565 200.203 154.579 202.078Z" fill="#FFB29C"/>
<path d="M144.252 212.7C143.932 211.484 143.991 210.096 144.021 210.011C144.139 209.673 144.733 206.787 146.115 203.631C147.423 203.337 149.124 201.26 149.124 201.26L150.719 198.464C148.14 197.124 144.766 196.367 142.201 198.001C140.026 199.387 139.456 201 139.455 202.527C141.261 201.28 143.558 201.548 143.926 202.862C144.363 204.426 143.615 206.401 142.275 207.915C141.519 208.77 140.574 209.289 139.897 209.897C139.908 211.464 140.596 212.571 141.358 214.739C141.607 215.449 142.852 217.407 143.894 217.877C145.222 215.513 144.486 215.765 144.252 212.7Z" fill="#202441"/>
<path d="M149.723 216.577L146.669 214.573C146.702 217.879 148.052 220.245 149.723 216.577Z" fill="white"/>
<path d="M148.446 200.615C148.446 200.615 153.328 204.151 156.564 201.464C159.8 198.778 159.755 194.678 158.108 193.596C156.46 192.512 154.394 194.271 154.394 194.271C153.343 191.409 148.651 191.062 146.803 192.469C143.448 189.212 141.962 193.117 141.962 193.117C138.102 190.477 135.676 200.04 138.686 208.069C141.02 207.673 142.95 202.707 142.95 202.707L148.446 200.615Z" fill="#202441"/>
<path d="M151.171 209.91C150.926 210.34 150.535 210.554 150.298 210.389C150.061 210.223 150.067 209.74 150.312 209.311C150.557 208.881 150.948 208.667 151.185 208.833C151.422 208.998 151.415 209.481 151.171 209.91Z" fill="#202441"/>
<path d="M141.866 207.756C141.866 207.756 140.443 208.008 140.218 205.571C139.994 203.134 141.124 201.745 142.142 201.455C143.161 201.166 144.345 202.407 144.438 203.764C144.53 205.12 143.418 207.592 141.866 207.756Z" fill="#FFB29C"/>
<path d="M148.608 207.269C148.608 207.269 150.608 205.574 153.072 207.328C153.367 207.419 153.926 206.316 153.183 205.837C152.44 205.358 149.874 205.369 148.608 207.269Z" fill="#202441"/>
<path d="M142.558 224.303C142.558 224.303 141.866 218.125 139.263 213.975C136.659 209.825 135.135 209.969 133.841 211.486C132.547 213.003 130.698 215.3 130.698 215.3L142.558 224.303Z" fill="#006F7E"/>
<path d="M120.974 218.536C120.974 218.536 128.064 213.267 134.257 215.346C140.449 217.425 141.08 221.655 142.49 222.886C143.899 224.115 142.859 233.441 141.403 239.218C140.961 240.975 139.062 248.304 133.548 260.376C127.627 273.341 116.967 294.43 116.967 294.43C116.967 294.43 103.457 285.902 98.1353 279.662C109.846 251.63 117.115 224.246 120.974 218.536Z" fill="#006F7E"/>
<path d="M140.944 248.235C143.403 241.61 143.579 228.134 143.579 228.134C143.579 228.134 144.359 222.584 139.99 219.888C135.62 217.193 132.515 221.249 129.26 220.314C126.004 219.38 130.019 214.917 130.019 214.917C129.558 214.33 127.53 215.354 126.742 215.627C125.954 215.899 118.391 222.022 109.16 241.453C105.451 249.26 105.235 256.832 102.427 263.167C98.2441 272.6 93.1089 271.088 90.5609 285.373C100.232 300.732 115.031 299.659 115.031 299.659C115.031 299.659 138.486 254.86 140.944 248.235ZM130.512 265.42C128.626 267.786 119.029 264.579 119.075 260.147C119.122 255.714 127.178 229.934 131.456 225.414C135.734 220.894 141.308 224.96 142.217 228.017C143.126 231.075 140.783 238.69 140.783 238.69C139.162 246.903 132.399 263.052 130.512 265.42Z" fill="#2A3051"/>
<path d="M173.745 265.176C173.745 265.176 175.326 264.958 176.539 264.227C177.751 263.495 180.119 261.373 181.011 261.301C181.903 261.228 181.718 262.603 180.791 263.417C179.865 264.232 179.387 264.777 179.387 264.777C179.387 264.777 185.003 263.801 187.083 262.837C188.675 262.511 188.274 263.935 187.164 264.478C186.055 265.021 182.055 266.236 182.055 266.236C182.055 266.236 186.499 265.404 187.974 264.893C189.448 264.381 189.603 264.914 189.573 265.609C189.543 266.305 182.959 268.077 182.534 268.115C185.303 268.608 188.693 267.595 189.191 267.659C189.69 267.722 190.073 268.49 189.389 268.999C188.704 269.509 183.607 270.35 182.983 270.271C184.751 270.683 187.182 270.387 187.671 270.542C188.159 270.698 188.101 271.669 186.655 271.811C185.208 271.952 179.923 272.164 178.166 271.661C176.407 271.157 174.102 271.197 174.102 271.197L173.745 265.176Z" fill="#FFB29C"/>
<path d="M142.558 228.445C142.558 228.445 150.182 248.741 152.443 252.736C155.744 258.569 173.951 262.989 175.299 264.762C176.647 266.535 175.987 270.443 174.161 271.746C170.838 272.335 163.766 270.63 161.178 269.847C159.802 269.432 153.352 267.796 150.178 266.192C147.003 264.589 142.978 259.422 141.678 257.207C138.528 251.842 129.383 242.11 128.878 233.461C128.646 229.48 137.563 218.994 142.558 228.445Z" fill="#006F7E"/>
<path d="M110.413 373.495L123.528 372.636C123.528 372.636 124.296 391.672 124.603 393.881C124.91 396.089 131.342 397.715 135.505 399.246C139.667 400.777 139.325 403.886 137.736 404.513C136.147 405.139 115.435 405.609 114.058 405.64C111.009 405.709 112.924 400.497 113.506 395.904C114.087 391.312 110.413 373.495 110.413 373.495Z" fill="#006F7E"/>
<path d="M137.691 402.076C136.103 402.703 115.391 403.172 114.013 403.204C113.134 403.224 112.675 402.795 112.471 402.077C112.219 404.179 112.417 405.677 114.058 405.64C115.436 405.609 136.147 405.139 137.736 404.513C138.726 404.122 139.231 402.768 138.465 401.432C138.273 401.724 138.009 401.951 137.691 402.076Z" fill="#4F4F4F"/>
<path d="M86.952 373.465L99.684 375.235C99.684 375.235 95.3248 392.048 95.6328 394.256C95.94 396.465 102.544 398.087 106.706 399.618C110.869 401.148 110.526 404.258 108.938 404.884C108.143 405.198 104.242 405.409 98.6504 405.609C93.0584 405.809 86.1312 403.54 85.4416 403.556C82.3928 403.625 84.3072 398.413 84.8896 393.82C85.4704 389.228 86.952 373.465 86.952 373.465Z" fill="#006F7E"/>
<path d="M108.896 402.67C108.101 402.983 104.2 403.194 98.6087 403.395C93.0167 403.596 86.0895 401.326 85.3999 401.342C84.4911 401.362 84.0303 400.907 83.8367 400.146C83.6119 402.167 83.8399 403.593 85.4407 403.557C86.1295 403.541 93.0575 405.811 98.6495 405.61C104.241 405.409 108.142 405.198 108.937 404.885C109.896 404.506 110.393 403.224 109.726 401.929C109.532 402.266 109.247 402.531 108.896 402.67Z" fill="#4F4F4F"/>
<path d="M460.529 300.005H346.122C341.6 300.005 337.921 295.931 337.921 290.922V266.248C337.921 261.24 341.6 257.165 346.122 257.165H460.529C465.051 257.165 468.73 261.24 468.73 266.248V290.922C468.73 295.931 465.052 300.005 460.529 300.005ZM346.122 261.596C343.806 261.596 341.921 263.684 341.921 266.249V290.923C341.921 293.489 343.806 295.576 346.122 295.576H460.529C462.845 295.576 464.73 293.489 464.73 290.923V266.249C464.73 263.683 462.846 261.596 460.529 261.596H346.122Z" fill="#626666"/>
<path d="M312.193 393.724H308.059C307.138 393.724 306.393 392.897 306.393 391.878V387.079H313.859V391.878C313.859 392.897 313.113 393.724 312.193 393.724Z" fill="#626666"/>
<path d="M498.593 393.724H494.459C493.539 393.724 492.793 392.897 492.793 391.878V387.079H500.259V391.878C500.259 392.897 499.513 393.724 498.593 393.724Z" fill="#626666"/>
<path d="M505.991 389.873H300.661C297.693 389.873 295.287 387.209 295.287 383.922V294.681C295.287 291.394 297.693 288.729 300.661 288.729H505.991C508.959 288.729 511.365 291.394 511.365 294.681V383.922C511.364 387.209 508.958 389.873 505.991 389.873Z" fill="#ACB4B5"/>
<path d="M449.93 288.994H355.53V390.137H449.93V288.994Z" fill="#7F8384"/>
<path d="M495.891 373.126C504.886 363.164 504.886 347.012 495.891 337.05C486.896 327.087 472.312 327.087 463.317 337.05C454.322 347.012 454.322 363.164 463.317 373.126C472.312 383.088 486.896 383.088 495.891 373.126Z" fill="#7F8384"/>
<path d="M482.334 329.828C482.334 331.494 481.114 332.846 479.609 332.846C478.104 332.846 476.884 331.494 476.884 329.828C476.884 328.161 478.104 326.81 479.609 326.81C481.114 326.81 482.334 328.161 482.334 329.828Z" fill="#7F8384"/>
<path d="M482.334 380.276C482.334 381.942 481.114 383.294 479.609 383.294C478.104 383.294 476.884 381.942 476.884 380.276C476.884 378.609 478.104 377.258 479.609 377.258C481.114 377.258 482.334 378.609 482.334 380.276Z" fill="#7F8384"/>
<path d="M502.384 358.07C500.879 358.07 499.659 356.719 499.659 355.052C499.659 353.385 500.879 352.034 502.384 352.034C503.889 352.034 505.109 353.385 505.109 355.052C505.109 356.719 503.889 358.07 502.384 358.07Z" fill="#7F8384"/>
<path d="M456.833 358.07C455.329 358.07 454.109 356.719 454.109 355.052C454.109 353.385 455.329 352.034 456.833 352.034C458.338 352.034 459.558 353.385 459.558 355.052C459.558 356.719 458.338 358.07 456.833 358.07Z" fill="#7F8384"/>
<path d="M479.609 376.513C490.294 376.513 498.955 366.92 498.955 355.087C498.955 343.253 490.294 333.66 479.609 333.66C468.924 333.66 460.262 343.253 460.262 355.087C460.262 366.92 468.924 376.513 479.609 376.513Z" fill="#626666"/>
<path d="M479.609 331.193C480.29 331.193 480.842 330.582 480.842 329.828C480.842 329.073 480.29 328.462 479.609 328.462C478.928 328.462 478.376 329.073 478.376 329.828C478.376 330.582 478.928 331.193 479.609 331.193Z" fill="#626666"/>
<path d="M502.384 356.452C503.065 356.452 503.617 355.841 503.617 355.087C503.617 354.333 503.065 353.722 502.384 353.722C501.703 353.722 501.151 354.333 501.151 355.087C501.151 355.841 501.703 356.452 502.384 356.452Z" fill="#626666"/>
<path d="M456.771 356.452C457.452 356.452 458.004 355.841 458.004 355.087C458.004 354.333 457.452 353.722 456.771 353.722C456.09 353.722 455.538 354.333 455.538 355.087C455.538 355.841 456.09 356.452 456.771 356.452Z" fill="#626666"/>
<path d="M479.609 381.711C480.29 381.711 480.842 381.1 480.842 380.346C480.842 379.592 480.29 378.98 479.609 378.98C478.928 378.98 478.376 379.592 478.376 380.346C478.376 381.1 478.928 381.711 479.609 381.711Z" fill="#626666"/>
<path d="M494.308 319.812C499.979 319.812 504.576 314.721 504.576 308.441C504.576 302.161 499.979 297.07 494.308 297.07C488.638 297.07 484.041 302.161 484.041 308.441C484.041 314.721 488.638 319.812 494.308 319.812Z" fill="#7F8384"/>
<path d="M495.523 297.182C495.523 297.925 494.979 298.527 494.308 298.527C493.638 298.527 493.094 297.924 493.094 297.182C493.094 296.438 493.638 295.837 494.308 295.837C494.979 295.837 495.523 296.439 495.523 297.182Z" fill="#7F8384"/>
<path d="M495.523 319.668C495.523 320.412 494.979 321.013 494.308 321.013C493.638 321.013 493.094 320.411 493.094 319.668C493.094 318.926 493.638 318.323 494.308 318.323C494.979 318.323 495.523 318.926 495.523 319.668Z" fill="#7F8384"/>
<path d="M504.461 309.771C503.79 309.771 503.247 309.169 503.247 308.426C503.247 307.684 503.791 307.081 504.461 307.081C505.131 307.081 505.675 307.684 505.675 308.426C505.675 309.169 505.132 309.771 504.461 309.771Z" fill="#7F8384"/>
<path d="M484.157 309.771C483.486 309.771 482.942 309.169 482.942 308.426C482.942 307.684 483.486 307.081 484.157 307.081C484.828 307.081 485.371 307.684 485.371 308.426C485.371 309.169 484.827 309.771 484.157 309.771Z" fill="#7F8384"/>
<path d="M494.309 317.992C499.071 317.992 502.933 313.716 502.933 308.441C502.933 303.166 499.071 298.89 494.309 298.89C489.546 298.89 485.685 303.166 485.685 308.441C485.685 313.716 489.546 317.992 494.309 317.992Z" fill="#626666"/>
<path d="M494.858 297.181C494.858 297.517 494.613 297.79 494.309 297.79C494.005 297.79 493.759 297.518 493.759 297.181C493.759 296.846 494.005 296.573 494.309 296.573C494.612 296.574 494.858 296.846 494.858 297.181Z" fill="#626666"/>
<path d="M504.46 309.049C504.157 309.049 503.911 308.777 503.911 308.441C503.911 308.104 504.156 307.832 504.46 307.832C504.764 307.832 505.01 308.104 505.01 308.441C505.01 308.777 504.764 309.049 504.46 309.049Z" fill="#626666"/>
<path d="M484.129 309.049C483.826 309.049 483.579 308.777 483.579 308.441C483.579 308.104 483.825 307.832 484.129 307.832C484.432 307.832 484.678 308.104 484.678 308.441C484.678 308.777 484.432 309.049 484.129 309.049Z" fill="#626666"/>
<path d="M494.858 319.699C494.858 320.035 494.613 320.308 494.309 320.308C494.005 320.308 493.759 320.036 493.759 319.699C493.759 319.363 494.005 319.091 494.309 319.091C494.612 319.092 494.858 319.364 494.858 319.699Z" fill="#626666"/>
<path d="M464.609 319.812C470.279 319.812 474.876 314.721 474.876 308.441C474.876 302.161 470.279 297.07 464.609 297.07C458.938 297.07 454.342 302.161 454.342 308.441C454.342 314.721 458.938 319.812 464.609 319.812Z" fill="#7F8384"/>
<path d="M465.823 297.182C465.823 297.925 465.279 298.527 464.609 298.527C463.938 298.527 463.394 297.924 463.394 297.182C463.394 296.438 463.938 295.837 464.609 295.837C465.279 295.837 465.823 296.439 465.823 297.182Z" fill="#7F8384"/>
<path d="M465.823 319.668C465.823 320.412 465.279 321.013 464.609 321.013C463.938 321.013 463.394 320.411 463.394 319.668C463.394 318.926 463.938 318.323 464.609 318.323C465.279 318.323 465.823 318.926 465.823 319.668Z" fill="#7F8384"/>
<path d="M474.761 309.771C474.089 309.771 473.546 309.169 473.546 308.426C473.546 307.684 474.09 307.081 474.761 307.081C475.431 307.081 475.975 307.684 475.975 308.426C475.975 309.169 475.432 309.771 474.761 309.771Z" fill="#7F8384"/>
<path d="M454.457 309.771C453.786 309.771 453.242 309.169 453.242 308.426C453.242 307.684 453.786 307.081 454.457 307.081C455.128 307.081 455.671 307.684 455.671 308.426C455.671 309.169 455.127 309.771 454.457 309.771Z" fill="#7F8384"/>
<path d="M464.609 317.992C469.371 317.992 473.233 313.716 473.233 308.441C473.233 303.166 469.371 298.89 464.609 298.89C459.846 298.89 455.985 303.166 455.985 308.441C455.985 313.716 459.846 317.992 464.609 317.992Z" fill="#626666"/>
<path d="M465.159 297.181C465.159 297.517 464.913 297.79 464.609 297.79C464.306 297.79 464.059 297.518 464.059 297.181C464.059 296.846 464.305 296.573 464.609 296.573C464.912 296.574 465.159 296.846 465.159 297.181Z" fill="#626666"/>
<path d="M474.761 309.049C474.457 309.049 474.211 308.777 474.211 308.441C474.211 308.104 474.457 307.832 474.761 307.832C475.064 307.832 475.31 308.104 475.31 308.441C475.31 308.777 475.064 309.049 474.761 309.049Z" fill="#626666"/>
<path d="M454.429 309.049C454.126 309.049 453.879 308.777 453.879 308.441C453.879 308.104 454.125 307.832 454.429 307.832C454.732 307.832 454.978 308.104 454.978 308.441C454.978 308.777 454.732 309.049 454.429 309.049Z" fill="#626666"/>
<path d="M465.159 319.699C465.159 320.035 464.913 320.308 464.609 320.308C464.306 320.308 464.059 320.036 464.059 319.699C464.059 319.363 464.305 319.091 464.609 319.091C464.912 319.092 465.159 319.364 465.159 319.699Z" fill="#626666"/>
<path d="M342.432 373.125C351.428 363.163 351.428 347.011 342.432 337.049C333.437 327.086 318.853 327.086 309.858 337.049C300.863 347.011 300.863 363.163 309.858 373.125C318.853 383.087 333.437 383.087 342.432 373.125Z" fill="#7F8384"/>
<path d="M328.875 329.827C328.875 331.494 327.655 332.845 326.15 332.845C324.645 332.845 323.425 331.494 323.425 329.827C323.425 328.161 324.645 326.81 326.15 326.81C327.655 326.81 328.875 328.161 328.875 329.827Z" fill="#7F8384"/>
<path d="M328.875 380.276C328.875 381.942 327.655 383.293 326.15 383.293C324.645 383.293 323.425 381.942 323.425 380.276C323.425 378.609 324.645 377.258 326.15 377.258C327.655 377.258 328.875 378.609 328.875 380.276Z" fill="#7F8384"/>
<path d="M348.925 358.069C347.42 358.069 346.2 356.718 346.2 355.052C346.2 353.385 347.42 352.034 348.925 352.034C350.43 352.034 351.65 353.385 351.65 355.052C351.65 356.718 350.43 358.069 348.925 358.069Z" fill="#7F8384"/>
<path d="M303.374 358.069C301.87 358.069 300.65 356.718 300.65 355.052C300.65 353.385 301.87 352.034 303.374 352.034C304.879 352.034 306.099 353.385 306.099 355.052C306.099 356.718 304.879 358.069 303.374 358.069Z" fill="#7F8384"/>
<path d="M326.15 376.513C336.834 376.513 345.496 366.92 345.496 355.087C345.496 343.253 336.834 333.66 326.15 333.66C315.465 333.66 306.803 343.253 306.803 355.087C306.803 366.92 315.465 376.513 326.15 376.513Z" fill="#626666"/>
<path d="M326.15 331.193C326.831 331.193 327.383 330.582 327.383 329.828C327.383 329.073 326.831 328.462 326.15 328.462C325.469 328.462 324.917 329.073 324.917 329.828C324.917 330.582 325.469 331.193 326.15 331.193Z" fill="#626666"/>
<path d="M348.925 356.452C349.606 356.452 350.158 355.841 350.158 355.087C350.158 354.333 349.606 353.722 348.925 353.722C348.244 353.722 347.692 354.333 347.692 355.087C347.692 355.841 348.244 356.452 348.925 356.452Z" fill="#626666"/>
<path d="M303.312 356.452C303.993 356.452 304.545 355.841 304.545 355.087C304.545 354.333 303.993 353.722 303.312 353.722C302.631 353.722 302.079 354.333 302.079 355.087C302.079 355.841 302.631 356.452 303.312 356.452Z" fill="#626666"/>
<path d="M326.15 381.711C326.831 381.711 327.383 381.1 327.383 380.346C327.383 379.592 326.831 378.98 326.15 378.98C325.469 378.98 324.917 379.592 324.917 380.346C324.917 381.1 325.469 381.711 326.15 381.711Z" fill="#626666"/>
<path d="M340.85 319.812C346.52 319.812 351.117 314.721 351.117 308.441C351.117 302.161 346.52 297.07 340.85 297.07C335.179 297.07 330.582 302.161 330.582 308.441C330.582 314.721 335.179 319.812 340.85 319.812Z" fill="#7F8384"/>
<path d="M342.065 297.182C342.065 297.925 341.521 298.527 340.85 298.527C340.18 298.527 339.636 297.924 339.636 297.182C339.636 296.438 340.18 295.837 340.85 295.837C341.521 295.837 342.065 296.439 342.065 297.182Z" fill="#7F8384"/>
<path d="M342.065 319.668C342.065 320.412 341.521 321.013 340.85 321.013C340.18 321.013 339.636 320.411 339.636 319.668C339.636 318.926 340.18 318.323 340.85 318.323C341.521 318.323 342.065 318.926 342.065 319.668Z" fill="#7F8384"/>
<path d="M351.002 309.771C350.33 309.771 349.787 309.169 349.787 308.426C349.787 307.684 350.331 307.081 351.002 307.081C351.672 307.081 352.216 307.684 352.216 308.426C352.216 309.169 351.673 309.771 351.002 309.771Z" fill="#7F8384"/>
<path d="M330.698 309.771C330.026 309.771 329.483 309.169 329.483 308.426C329.483 307.684 330.027 307.081 330.698 307.081C331.369 307.081 331.912 307.684 331.912 308.426C331.912 309.169 331.369 309.771 330.698 309.771Z" fill="#7F8384"/>
<path d="M340.85 317.992C345.612 317.992 349.474 313.716 349.474 308.441C349.474 303.166 345.612 298.89 340.85 298.89C336.087 298.89 332.226 303.166 332.226 308.441C332.226 313.716 336.087 317.992 340.85 317.992Z" fill="#626666"/>
<path d="M341.399 297.181C341.399 297.517 341.154 297.79 340.85 297.79C340.546 297.79 340.3 297.518 340.3 297.181C340.3 296.846 340.546 296.573 340.85 296.573C341.154 296.574 341.399 296.846 341.399 297.181Z" fill="#626666"/>
<path d="M351.002 309.049C350.698 309.049 350.452 308.777 350.452 308.441C350.452 308.104 350.698 307.832 351.002 307.832C351.305 307.832 351.551 308.104 351.551 308.441C351.551 308.777 351.306 309.049 351.002 309.049Z" fill="#626666"/>
<path d="M330.67 309.049C330.366 309.049 330.12 308.777 330.12 308.441C330.12 308.104 330.366 307.832 330.67 307.832C330.973 307.832 331.219 308.104 331.219 308.441C331.219 308.777 330.973 309.049 330.67 309.049Z" fill="#626666"/>
<path d="M341.399 319.699C341.399 320.035 341.154 320.308 340.85 320.308C340.546 320.308 340.3 320.036 340.3 319.699C340.3 319.363 340.546 319.091 340.85 319.091C341.154 319.092 341.399 319.364 341.399 319.699Z" fill="#626666"/>
<path d="M311.15 319.812C316.82 319.812 321.417 314.721 321.417 308.441C321.417 302.161 316.82 297.07 311.15 297.07C305.479 297.07 300.883 302.161 300.883 308.441C300.883 314.721 305.479 319.812 311.15 319.812Z" fill="#7F8384"/>
<path d="M312.365 297.182C312.365 297.925 311.821 298.527 311.15 298.527C310.48 298.527 309.936 297.924 309.936 297.182C309.936 296.438 310.48 295.837 311.15 295.837C311.821 295.837 312.365 296.439 312.365 297.182Z" fill="#7F8384"/>
<path d="M312.365 319.668C312.365 320.412 311.821 321.013 311.15 321.013C310.48 321.013 309.936 320.411 309.936 319.668C309.936 318.926 310.48 318.323 311.15 318.323C311.821 318.323 312.365 318.926 312.365 319.668Z" fill="#7F8384"/>
<path d="M321.302 309.771C320.631 309.771 320.087 309.169 320.087 308.426C320.087 307.684 320.631 307.081 321.302 307.081C321.973 307.081 322.516 307.684 322.516 308.426C322.516 309.169 321.973 309.771 321.302 309.771Z" fill="#7F8384"/>
<path d="M300.998 309.771C300.326 309.771 299.783 309.169 299.783 308.426C299.783 307.684 300.327 307.081 300.998 307.081C301.669 307.081 302.212 307.684 302.212 308.426C302.212 309.169 301.669 309.771 300.998 309.771Z" fill="#7F8384"/>
<path d="M311.15 317.992C315.912 317.992 319.774 313.716 319.774 308.441C319.774 303.166 315.912 298.89 311.15 298.89C306.387 298.89 302.526 303.166 302.526 308.441C302.526 313.716 306.387 317.992 311.15 317.992Z" fill="#626666"/>
<path d="M311.699 297.181C311.699 297.517 311.454 297.79 311.15 297.79C310.847 297.79 310.6 297.518 310.6 297.181C310.6 296.846 310.846 296.573 311.15 296.573C311.454 296.574 311.699 296.846 311.699 297.181Z" fill="#626666"/>
<path d="M321.302 309.049C320.998 309.049 320.752 308.777 320.752 308.441C320.752 308.104 320.998 307.832 321.302 307.832C321.605 307.832 321.851 308.104 321.851 308.441C321.851 308.777 321.606 309.049 321.302 309.049Z" fill="#626666"/>
<path d="M300.97 309.049C300.667 309.049 300.42 308.777 300.42 308.441C300.42 308.104 300.667 307.832 300.97 307.832C301.273 307.832 301.519 308.104 301.519 308.441C301.519 308.777 301.273 309.049 300.97 309.049Z" fill="#626666"/>
<path d="M311.699 319.699C311.699 320.035 311.454 320.308 311.15 320.308C310.847 320.308 310.6 320.036 310.6 319.699C310.6 319.363 310.846 319.091 311.15 319.091C311.454 319.092 311.699 319.364 311.699 319.699Z" fill="#626666"/>
<path d="M365.533 364.301H361.106V370.725H365.533V364.301Z" fill="#595B5B"/>
<path d="M401.64 336.576H361.106V362.861H401.64V336.576Z" fill="#595B5B"/>
<path d="M398.387 362.048H364.361C363.255 362.048 362.359 361.056 362.359 359.832V339.604C362.359 338.379 363.255 337.387 364.361 337.387H398.387C399.492 337.387 400.388 338.379 400.388 339.604V359.832C400.387 361.056 399.491 362.048 398.387 362.048Z" fill="#626666"/>
<path d="M443.859 336.576H403.326V362.861H443.859V336.576Z" fill="#595B5B"/>
<path d="M440.605 362.048H406.579C405.474 362.048 404.578 361.056 404.578 359.832V339.604C404.578 338.379 405.474 337.387 406.579 337.387H440.605C441.71 337.387 442.606 338.379 442.606 339.604V359.832C442.606 361.056 441.71 362.048 440.605 362.048Z" fill="#626666"/>
<path d="M370.691 364.301H366.265V370.724H370.691V364.301Z" fill="#595B5B"/>
<path d="M375.85 364.301H371.423V370.724H375.85V364.301Z" fill="#595B5B"/>
<path d="M381.008 364.301H376.582V370.724H381.008V364.301Z" fill="#595B5B"/>
<path d="M386.166 364.301H381.739V370.724H386.166V364.301Z" fill="#595B5B"/>
<path d="M391.324 364.301H386.897V370.724H391.324V364.301Z" fill="#595B5B"/>
<path d="M396.482 364.301H392.056V370.724H396.482V364.301Z" fill="#595B5B"/>
<path d="M401.64 364.301H397.214V370.724H401.64V364.301Z" fill="#595B5B"/>
<path d="M407.752 364.301H403.326V370.724H407.752V364.301Z" fill="#595B5B"/>
<path d="M412.91 364.301H408.484V370.724H412.91V364.301Z" fill="#595B5B"/>
<path d="M418.069 364.301H413.642V370.724H418.069V364.301Z" fill="#595B5B"/>
<path d="M423.226 364.301H418.8V370.724H423.226V364.301Z" fill="#595B5B"/>
<path d="M428.385 364.301H423.958V370.724H428.385V364.301Z" fill="#595B5B"/>
<path d="M433.543 364.301H429.117V370.724H433.543V364.301Z" fill="#595B5B"/>
<path d="M438.702 364.301H434.275V370.724H438.702V364.301Z" fill="#595B5B"/>
<path d="M443.859 364.301H439.433V370.724H443.859V364.301Z" fill="#595B5B"/>
<path d="M375.07 349.718C375.07 351.268 373.935 352.524 372.536 352.524C371.137 352.524 370.002 351.268 370.002 349.718C370.002 348.168 371.137 346.912 372.536 346.912C373.935 346.912 375.07 348.168 375.07 349.718Z" fill="#595B5B"/>
<path d="M375.007 350.179H369.983C369.783 350.179 369.62 349.999 369.62 349.778C369.62 349.557 369.783 349.377 369.983 349.377H375.007C375.207 349.377 375.37 349.557 375.37 349.778C375.37 349.999 375.207 350.179 375.007 350.179Z" fill="#7F8384"/>
<path d="M372.132 352.561V346.996C372.132 346.775 372.295 346.595 372.494 346.595C372.694 346.595 372.857 346.775 372.857 346.996V352.561C372.857 352.782 372.694 352.963 372.494 352.963C372.295 352.963 372.132 352.782 372.132 352.561Z" fill="#7F8384"/>
<path d="M392.095 349.718C392.095 351.268 390.961 352.524 389.562 352.524C388.162 352.524 387.028 351.268 387.028 349.718C387.028 348.168 388.162 346.912 389.562 346.912C390.961 346.912 392.095 348.168 392.095 349.718Z" fill="#595B5B"/>
<path d="M392.033 350.179H387.008C386.809 350.179 386.646 349.999 386.646 349.778C386.646 349.557 386.809 349.377 387.008 349.377H392.033C392.232 349.377 392.395 349.557 392.395 349.778C392.395 349.999 392.232 350.179 392.033 350.179Z" fill="#7F8384"/>
<path d="M389.158 352.561V346.996C389.158 346.775 389.321 346.595 389.52 346.595C389.719 346.595 389.883 346.775 389.883 346.996V352.561C389.883 352.782 389.719 352.963 389.52 352.963C389.321 352.963 389.158 352.782 389.158 352.561Z" fill="#7F8384"/>
<path d="M417.654 349.718C417.654 351.268 416.52 352.524 415.121 352.524C413.722 352.524 412.587 351.268 412.587 349.718C412.587 348.168 413.722 346.912 415.121 346.912C416.52 346.912 417.654 348.168 417.654 349.718Z" fill="#595B5B"/>
<path d="M417.592 350.179H412.567C412.368 350.179 412.205 349.999 412.205 349.778C412.205 349.557 412.368 349.377 412.567 349.377H417.592C417.791 349.377 417.954 349.557 417.954 349.778C417.954 349.999 417.791 350.179 417.592 350.179Z" fill="#7F8384"/>
<path d="M414.717 352.561V346.996C414.717 346.775 414.88 346.595 415.079 346.595C415.278 346.595 415.442 346.775 415.442 346.996V352.561C415.442 352.782 415.278 352.963 415.079 352.963C414.88 352.963 414.717 352.782 414.717 352.561Z" fill="#7F8384"/>
<path d="M434.68 349.718C434.68 351.268 433.545 352.524 432.146 352.524C430.747 352.524 429.613 351.268 429.613 349.718C429.613 348.168 430.747 346.912 432.146 346.912C433.545 346.912 434.68 348.168 434.68 349.718Z" fill="#595B5B"/>
<path d="M434.618 350.179H429.593C429.394 350.179 429.23 349.999 429.23 349.778C429.23 349.557 429.394 349.377 429.593 349.377H434.618C434.817 349.377 434.98 349.557 434.98 349.778C434.98 349.999 434.817 350.179 434.618 350.179Z" fill="#7F8384"/>
<path d="M431.742 352.561V346.996C431.742 346.775 431.905 346.595 432.105 346.595C432.304 346.595 432.467 346.775 432.467 346.996V352.561C432.467 352.782 432.304 352.963 432.105 352.963C431.905 352.963 431.742 352.782 431.742 352.561Z" fill="#7F8384"/>
<path d="M442.016 311.251H362.95C361.933 311.251 361.107 310.336 361.107 309.209V299.833C361.107 298.705 361.933 297.791 362.95 297.791H442.016C443.034 297.791 443.859 298.706 443.859 299.833V309.209C443.859 310.336 443.034 311.251 442.016 311.251Z" fill="#ACB4B5"/>
<path d="M385.745 322.197C386.329 318.218 383.89 314.467 380.297 313.82C376.703 313.172 373.317 315.873 372.732 319.852C372.147 323.831 374.586 327.582 378.18 328.23C381.773 328.877 385.16 326.176 385.745 322.197Z" fill="#595B5B"/>
<path d="M384.991 321.014C384.991 324.531 382.417 327.382 379.242 327.382C376.066 327.382 373.492 324.531 373.492 321.014C373.492 317.498 376.066 314.646 379.242 314.646C382.417 314.646 384.991 317.497 384.991 321.014Z" fill="#626666"/>
<path d="M379.242 316.766C379.618 316.766 379.922 316.429 379.922 316.013C379.922 315.596 379.618 315.259 379.242 315.259C378.866 315.259 378.561 315.596 378.561 316.013C378.561 316.429 378.866 316.766 379.242 316.766Z" fill="#ACB4B5"/>
<path d="M399.475 326.088C396.945 328.987 392.772 329.065 390.155 326.263C387.537 323.461 387.467 318.839 389.996 315.94C392.527 313.041 396.699 312.963 399.317 315.765C401.935 318.567 402.006 323.189 399.475 326.088Z" fill="#595B5B"/>
<path d="M400.458 321.776C400.827 318.283 398.57 315.12 395.416 314.711C392.262 314.302 389.406 316.802 389.037 320.295C388.667 323.788 390.925 326.951 394.078 327.36C397.232 327.769 400.088 325.269 400.458 321.776Z" fill="#626666"/>
<path d="M398.364 317.942C398.103 318.241 397.671 318.249 397.401 317.96C397.131 317.67 397.123 317.193 397.385 316.894C397.647 316.594 398.078 316.586 398.348 316.876C398.619 317.165 398.626 317.643 398.364 317.942Z" fill="#ACB4B5"/>
<path d="M410.342 328.314C406.702 328.382 403.701 325.169 403.639 321.138C403.578 317.106 406.478 313.783 410.118 313.715C413.758 313.646 416.759 316.859 416.821 320.891C416.882 324.922 413.982 328.245 410.342 328.314Z" fill="#595B5B"/>
<path d="M410.327 327.381C407.152 327.44 404.535 324.638 404.481 321.122C404.427 317.605 406.957 314.707 410.132 314.647C413.307 314.587 415.924 317.389 415.979 320.905C416.032 324.422 413.503 327.321 410.327 327.381Z" fill="#626666"/>
<path d="M414.757 321.683C414.381 321.69 414.071 321.358 414.064 320.942C414.058 320.525 414.358 320.182 414.734 320.175C415.11 320.168 415.42 320.5 415.427 320.916C415.433 321.333 415.133 321.676 414.757 321.683Z" fill="#ACB4B5"/>
<path d="M432.315 320.891C432.376 324.922 429.475 328.245 425.836 328.314C422.196 328.382 419.195 325.169 419.134 321.138C419.072 317.106 421.973 313.783 425.613 313.715C429.252 313.646 432.253 316.859 432.315 320.891Z" fill="#595B5B"/>
<path d="M431.473 320.906C431.527 324.423 428.997 327.321 425.822 327.381C422.647 327.441 420.03 324.639 419.975 321.122C419.922 317.606 422.451 314.708 425.627 314.647C428.802 314.588 431.419 317.39 431.473 320.906Z" fill="#626666"/>
<path d="M426.329 316C426.335 316.417 426.035 316.76 425.659 316.767C425.283 316.774 424.973 316.442 424.966 316.026C424.96 315.61 425.26 315.266 425.636 315.259C426.012 315.252 426.322 315.584 426.329 316Z" fill="#ACB4B5"/>
<path d="M465.057 218.073C465.057 218.073 452.372 237.487 450.856 242.199C450.282 243.986 430.892 208.271 430.892 208.271C430.892 208.271 425.815 211.891 425.28 215.739C433.292 230.387 448.41 255.357 453.178 254.514C457.947 253.672 459.53 251.275 461.362 247.318C463.348 243.025 468.334 234.558 471.823 227.385C473.257 224.437 465.057 218.073 465.057 218.073Z" fill="#006F7E"/>
<path d="M459.94 283.36C459.94 283.36 456.573 316.952 456.22 323.634C455.868 330.317 460.344 390.096 460.344 390.096L466.825 389.918C466.825 389.918 473.632 351.4 468.277 331.459C467.936 316.177 482.459 298.774 481.565 281.283C472.741 279.58 459.94 283.36 459.94 283.36Z" fill="#2A3051"/>
<path d="M503.492 385.225C503.492 385.225 505.587 390.194 505.922 391.061C506.257 391.929 501.837 397.057 501.439 397.441C501.041 397.824 506.57 397.06 509.557 395.252C512.543 393.445 512.415 393.701 512.483 392.935C512.551 392.17 511.361 390.388 510.417 389.125C509.473 387.861 508.447 383.117 508.447 383.117L503.492 385.225Z" fill="#FFB29C"/>
<path d="M467.417 285.69C467.417 285.69 475.702 319.946 477.54 326.114C479.38 332.281 504.025 388.246 504.025 388.246L509.984 385.419C509.984 385.419 503.296 346.239 491.271 328.204C486 314.573 495.009 296.221 488.51 280.825C479.765 282.921 467.417 285.69 467.417 285.69Z" fill="#2A3051"/>
<path d="M497.638 222.248C497.638 222.248 493.08 212.175 484.762 209.709C478.512 207.857 475.988 211.285 474.209 211.548C472.431 211.81 468.868 214.006 465.512 217.232C464.268 218.428 461.478 227.693 460.056 243.815C458.78 258.274 459.43 283.389 459.43 283.389C459.43 283.389 485.127 289.606 492.577 287.242C495.404 256.513 498.33 229.34 497.638 222.248Z" fill="#006F7E"/>
<path d="M497.297 218.103C495.164 211.917 489.257 210.82 487.564 212.729C487.564 212.729 480.859 217.934 478.295 236.098C468.731 234.879 466.82 232.443 466.82 232.443C466.82 232.443 468.952 215.691 472.092 212.328C470.431 211.289 467.564 212.423 465.831 221.03C464.097 229.637 460.418 240.129 460.418 240.129C460.418 240.129 457.512 282.353 458.472 298.302C478.632 302.438 490.951 293.069 490.951 293.069C490.951 293.069 492.497 272.904 496.231 259.023C499.964 245.142 499.431 224.29 497.297 218.103ZM489.231 255.617C483.231 253.982 483.031 238.423 483.831 231.335C484.631 224.247 488.331 213.809 491.231 214.363C494.131 214.916 495.931 220.149 495.931 220.149C498.131 228.566 496.231 240.417 495.931 245.512C495.631 250.606 495.231 257.251 489.231 255.617Z" fill="#2A3051"/>
<path d="M481.804 198.194C481.804 198.194 482.476 205.208 484.311 209.595C481.083 210.836 473.68 222.474 473.775 215.386C473.815 212.48 473.775 207.195 473.775 207.195L481.804 198.194Z" fill="#FCA08B"/>
<path d="M470.158 192.017C470.158 192.017 466.382 191.446 466.821 188.365C467.096 186.435 468.868 186.374 468.868 186.374C468.868 186.374 466.749 185.355 467.25 183.316C467.752 181.278 469.342 181.973 469.342 181.973L472.897 179.703C472.897 179.703 474.186 177.433 475.842 178.058C477.498 178.684 477.685 179.703 477.685 179.703C478.669 177.757 481.638 178.406 481.575 180.792C484.022 178.336 487.702 180.676 487.661 183.548C490.337 181.648 490.212 184.845 489.376 185.494C492.011 186.049 491.425 189.755 490.296 190.543C493.098 192.304 489.71 195.175 488.958 195.222C490.589 198.048 487.326 199.16 487.326 199.16C487.619 201.522 485.431 202.68 484.204 201.893C482.977 201.105 484.566 196.427 484.817 194.528C485.068 192.628 483.478 189.015 479.714 187.765C475.95 186.513 470.158 192.017 470.158 192.017Z" fill="#202441"/>
<path d="M470.859 188.164C470.859 188.164 468.868 191.574 468.682 193.044C468.495 194.515 469.166 195.903 468.413 196.785C467.66 197.668 467.05 198.262 466.848 198.788C466.646 199.315 467.618 200.881 468.023 201.096C467.977 202.531 468.53 206.266 469.034 207.523C469.536 208.78 473.435 208.427 476.746 207.092C480.056 205.757 480.172 201.665 480.845 199.873C481.518 198.081 486.092 196.959 483.384 191.644C480.675 186.33 471.734 186.558 470.859 188.164Z" fill="#FFB29C"/>
<path d="M468.312 202.138C468.312 202.138 468.899 202.967 472.104 202.138C470.524 205.158 468.515 207.14 468.312 202.138Z" fill="white"/>
<path d="M472.873 195.231C472.873 195.231 470.74 194.106 469.86 194.181C468.98 194.256 469.521 192.943 470.3 193.244C471.079 193.544 472.534 194.594 472.873 195.231Z" fill="#202441"/>
<path d="M483.383 191.643C481.929 188.789 478.677 187.536 475.842 187.234L475.927 190.539C475.927 190.539 476.434 193.286 477.425 194.277C477.315 195.739 477.108 197.078 476.901 198.172L478.552 198.281C478.545 196.887 479.28 197.227 480.045 196.461C480.966 195.537 482.682 194.996 483.662 197.088C484.365 195.773 484.617 194.064 483.383 191.643Z" fill="#202441"/>
<path d="M476.807 190.367C476.807 190.367 470.98 190.653 469.432 186.515C467.884 182.377 469.81 178.876 471.726 178.873C473.642 178.872 474.61 181.551 474.61 181.551C476.831 179.681 481.028 182.032 481.97 184.285C486.355 183.378 485.837 187.577 485.837 187.577C490.374 187.484 488.405 199.952 482.121 205.16C481.492 202.726 480.572 195.27 480.572 195.27L476.807 190.367Z" fill="#202441"/>
<path d="M470.186 196.827C470.198 197.336 470.436 197.739 470.717 197.731C470.997 197.723 471.214 197.304 471.201 196.795C471.188 196.287 470.95 195.883 470.67 195.892C470.39 195.9 470.173 196.319 470.186 196.827Z" fill="#202441"/>
<path d="M478.994 201.674C478.994 201.674 480.103 202.694 481.418 200.724C482.732 198.755 482.399 196.921 481.656 196.097C480.913 195.273 479.324 195.673 478.619 196.788C477.915 197.902 477.735 200.657 478.994 201.674Z" fill="#FFB29C"/>
<path d="M506.369 410.847C507.909 410.127 509.541 409.255 511.114 408.292C514.086 406.484 516.396 404.664 516.694 403.857C516.813 401.401 515.379 398.901 513.345 395.152C511.312 391.402 510.834 385.973 508.084 373.82C505.213 378.474 494.933 380.182 494.933 380.182C497.955 384.839 503.756 398.395 503.636 400.162C503.573 401.093 502.53 402.001 501.557 402.653C501.025 402.956 499.595 403.574 499.595 403.574C495.304 406.043 489.826 405.364 490.641 411.801C490.777 412.875 498.549 413.289 501.309 412.699C502.39 412.468 503.789 411.98 505.324 411.315L505.326 411.316C505.371 411.297 505.416 411.276 505.461 411.256C505.7 411.151 505.942 411.042 506.188 410.928C506.249 410.902 506.309 410.875 506.369 410.847Z" fill="#006F7E"/>
<path d="M511.103 405.663C509.531 406.627 507.899 407.499 506.358 408.218C506.298 408.246 506.238 408.273 506.178 408.3C505.932 408.414 505.69 408.523 505.45 408.628C505.406 408.648 505.361 408.669 505.316 408.688L505.314 408.687C503.779 409.352 502.379 409.84 501.299 410.071C498.6 410.648 491.134 410.263 490.671 409.243C490.546 409.871 490.518 410.605 490.631 411.501C490.767 412.574 498.539 412.988 501.299 412.399C502.38 412.168 503.779 411.68 505.314 411.015L505.316 411.016C505.361 410.996 505.406 410.975 505.45 410.956C505.69 410.851 505.932 410.741 506.178 410.628C506.238 410.6 506.298 410.574 506.358 410.545C507.898 409.826 509.531 408.954 511.103 407.991C514.075 406.183 516.385 404.363 516.683 403.556C516.715 402.912 516.634 402.262 516.468 401.59C515.777 402.505 513.693 404.088 511.103 405.663Z" fill="#4F4F4F"/>
<path d="M470.731 370.271L457.711 370.724C457.711 370.724 459.671 388.759 459.404 390.974C459.137 393.189 452.738 394.961 448.604 396.585C444.47 398.209 444.87 401.31 446.47 401.901C448.07 402.492 468.786 402.492 470.165 402.492C473.214 402.492 471.203 397.324 470.537 392.746C469.871 388.168 470.731 370.271 470.731 370.271Z" fill="#006F7E"/>
<path d="M446.472 399.465C448.072 400.056 468.788 400.056 470.166 400.056C471.046 400.056 471.496 399.616 471.687 398.894C471.979 400.989 471.808 402.492 470.166 402.492C468.788 402.492 448.072 402.492 446.472 401.901C445.475 401.533 444.944 400.19 445.686 398.838C445.884 399.125 446.152 399.347 446.472 399.465Z" fill="#4F4F4F"/>
<path d="M495.398 344.328C487.518 348.755 477.889 345.267 473.892 336.538L432.23 245.551C428.233 236.823 431.382 226.159 439.263 221.732C447.144 217.305 456.773 220.793 460.77 229.522L502.432 320.51C506.428 329.238 503.279 339.902 495.398 344.328Z" fill="url(#paint1_linear_55_10884)"/>
<path d="M478.293 342.452C483.034 346.565 489.672 347.544 495.398 344.327C501.125 341.111 504.334 334.602 504.139 327.934L478.293 342.452Z" fill="#626666"/>
<path d="M480.665 337.394L480.503 337.486C479.169 338.235 477.538 337.644 476.862 336.166L434.717 244.125C434.04 242.647 434.574 240.842 435.908 240.092L436.07 240.001C437.404 239.251 439.034 239.842 439.711 241.32L481.856 333.361C482.532 334.839 481.999 336.645 480.665 337.394Z" fill="#FFCB27"/>
<path d="M499.81 326.641L499.648 326.733C498.314 327.482 496.683 326.891 496.006 325.413L453.862 233.372C453.185 231.894 453.718 230.089 455.053 229.339L455.214 229.248C456.549 228.498 458.179 229.089 458.856 230.567L501.001 322.608C501.678 324.086 501.145 325.892 499.81 326.641Z" fill="#FFCB27"/>
<path d="M490.534 331.851L490.373 331.942C489.038 332.691 487.408 332.1 486.731 330.623L444.586 238.581C443.91 237.104 444.442 235.298 445.778 234.548L445.939 234.457C447.274 233.707 448.904 234.298 449.581 235.776L491.726 327.817C492.402 329.295 491.869 331.101 490.534 331.851Z" fill="#FFCB27"/>
<path d="M442.701 208.966L428.185 217.119L433.108 227.87L447.623 219.717L442.701 208.966Z" fill="#626666"/>
<path d="M394.126 111.126L385.326 116.069L433.274 220.785L442.074 215.842L394.126 111.126Z" fill="#626666"/>
<path d="M397.324 109.327C389.56 95.3096 381.06 77.3997 381.06 77.3997L374.757 80.9393L368.455 84.4789C368.455 84.4789 376.479 102.656 382.103 117.876C387.538 119.625 389.716 125.687 389.716 125.687L394.116 123.216L398.516 120.744C398.516 120.744 395.386 115.217 397.324 109.327Z" fill="#626666"/>
<path d="M397.289 109.264C389.554 95.3007 381.06 77.3997 381.06 77.3997L368.455 84.4789C368.455 84.4789 376.475 102.646 382.077 117.807L397.289 109.264Z" fill="#9A9FA0"/>
<path d="M384.262 83.2172C381.797 78.7499 381.06 77.3997 381.06 77.3997L368.455 84.4789C368.455 84.4789 369.004 85.9347 370.801 90.7776L384.262 83.2172Z" fill="#CCCCCC"/>
<path d="M456.591 272.936C456.591 272.936 455.024 273.253 453.669 272.958C452.314 272.663 449.481 271.423 448.61 271.65C447.74 271.877 448.289 273.127 449.393 273.596C450.498 274.066 451.101 274.428 451.101 274.428C451.101 274.428 447.541 275.975 445.297 275.746C443.691 275.963 446.097 278.921 447.497 279.77C448.049 280.105 451.323 281.948 454.129 280.591C455.793 279.786 457.881 278.798 457.881 278.798L456.591 272.936Z" fill="#FFB29C"/>
<path d="M488.207 230.624C488.207 230.624 482.877 249.485 482.242 251.069C481.746 252.305 458.025 270.66 456.121 271.623C454.217 272.585 456.085 277.059 457.23 279.103C461.641 279.78 479.202 270.613 482.309 268.853C488.659 265.253 493.093 258.492 494.474 254.264C495.548 250.973 500.051 236.692 499.181 226.961C498.938 224.245 495.172 216.53 493.562 215.899C490.512 214.705 490.103 221.925 488.207 230.624Z" fill="#006F7E"/>
<path d="M425.381 208.301C425.381 208.301 422.593 206.63 423.66 201.338C424.727 196.047 430.927 194.123 431.994 194.865C433.06 195.607 431.827 195.935 430.627 196.674C429.427 197.413 427.794 198.188 426.961 199.96C428.561 198.15 431.195 196.674 433.227 196.932C434.427 197.191 433.794 198.261 433.227 198.372C432.661 198.483 429.361 199.206 428.027 202.831C429.161 201.657 431.694 200.07 433.261 200.181C434.061 200.218 433.895 201.437 433.095 201.805C432.295 202.175 429.761 202.765 429.128 205.017C430.462 203.799 432.595 203.097 433.362 203.614C434.128 204.131 433.595 204.538 432.495 204.833C431.395 205.128 429.168 206.472 428.348 209.474C427.493 209.891 425.381 208.301 425.381 208.301Z" fill="#FFB29C"/>
<path d="M309.273 367.513C309.273 367.513 332.139 346.202 342.539 352.963C352.939 359.723 332.406 390.401 332.406 390.401L324.254 387.829L333.583 368.632C327.339 377.443 316.734 387.829 316.734 387.829L309.273 367.513Z" fill="#2A3051"/>
<path d="M310.691 315.259C310.691 315.259 312.782 313.134 319.371 316.663C325.96 320.193 324.51 338.479 325.205 340.452C325.9 342.425 322.283 354.778 318.664 371.418C313.481 379.976 296.025 368.653 293.29 363.797C291.599 335.653 305.857 315.287 310.691 315.259Z" fill="#006F7E"/>
<path d="M311.787 314.753C311.787 314.753 315.244 308.991 315.974 308.441C318.506 311.103 322.506 312.321 322.506 312.321C322.506 312.321 321.406 319.576 322.506 323.452C319.206 326.81 311.787 314.753 311.787 314.753Z" fill="#FCA08B"/>
<path d="M309.798 314.753C309.798 314.753 299.767 320.938 294.786 333.588C289.804 346.239 285.472 371.115 291.925 381.975C298.377 392.835 328.003 398.459 333.247 401.281C323.69 397.816 301.215 391.786 299.999 391.786C298.435 398.693 298.679 398.923 298.679 398.923C298.679 398.923 319.558 408.851 332.089 411.93C344.62 415.009 349.681 404.167 338.924 391.402C328.166 378.635 319.002 374.915 316.075 366.831C315.181 364.361 314.206 356.617 313.34 349.718C313.34 349.718 300.918 359.575 302.506 343.11C303.765 330.056 309.798 314.753 309.798 314.753Z" fill="#2A3051"/>
<path d="M312.398 394.414L309.805 405.131C309.805 405.131 298.205 399.509 297.205 399.773C296.205 400.037 295.905 406.571 296.205 406.682C296.505 406.793 302.205 408.267 302.305 412.459C301.005 413.77 294.619 413.473 291.912 412.459C289.205 411.444 288.494 393.175 290.905 388.519C294.005 386.636 295.805 388.286 298.871 390.137C301.939 391.989 312.398 394.414 312.398 394.414Z" fill="#006F7E"/>
<path d="M293.967 410.484C291.464 409.547 290.67 393.873 292.468 387.829C291.979 387.958 291.464 388.179 290.906 388.518C288.495 393.174 289.206 411.444 291.913 412.458C294.62 413.473 301.006 413.77 302.306 412.458C302.296 412.023 302.213 411.624 302.094 411.245C299.6 411.555 295.873 411.198 293.967 410.484Z" fill="#4F4F4F"/>
<path d="M319.453 374.205C319.453 374.205 322.249 354.923 326.027 346.913C320.806 346.433 318.172 343.11 317.689 343.331C317.206 343.553 320.452 326.235 318.354 321.347C316.256 316.459 312.348 312.873 309.798 314.752C307.248 316.631 306.105 319.091 306.105 319.091L305.684 323.929C305.684 323.929 308.555 315.529 312.705 317.47C315.794 318.915 318.647 328.38 314.827 341.006C311.006 353.631 309.905 366.146 309.805 366.479C309.705 366.811 319.453 374.205 319.453 374.205Z" fill="#2A3051"/>
<path d="M364.33 326.248C364.33 326.248 366.141 325.05 367.054 323.903C367.966 322.756 369.534 319.862 370.349 319.455C371.164 319.049 371.416 320.41 370.798 321.528C370.179 322.645 369.899 323.338 369.899 323.338C369.899 323.338 374.874 320.287 376.528 318.593C377.922 317.682 377.986 319.173 377.113 320.104C376.239 321.035 372.858 323.696 372.858 323.696C372.858 323.696 376.774 321.226 378.002 320.186C379.228 319.146 379.538 319.587 379.726 320.253C379.913 320.917 374.276 325.081 373.889 325.28C376.643 324.692 379.514 322.453 380.002 322.323C380.49 322.194 381.087 322.769 380.602 323.508C380.117 324.246 375.589 326.973 374.978 327.135C376.766 326.851 378.958 325.649 379.466 325.61C379.973 325.57 380.218 326.506 378.904 327.188C377.59 327.871 372.69 330.077 370.883 330.271C369.076 330.465 366.922 331.377 366.922 331.377L364.33 326.248Z" fill="#FFB29C"/>
<path d="M321.903 326.268C321.903 326.268 335.986 333.439 337.273 333.895C338.277 334.25 362.293 326.76 363.92 325.851C365.546 324.943 367.144 329.089 367.711 331.211C365.656 335.062 350.482 343.264 347.716 344.631C342.061 347.427 335.609 346.825 332.349 345.363C329.812 344.226 314.876 341.47 309.966 334.627C305.436 328.315 307.354 319.859 310.706 319.092C313.613 318.426 315.722 322.522 321.903 326.268Z" fill="#006F7E"/>
<path d="M322.867 293.706C322.867 293.706 325.59 296.425 326.115 297.792C326.641 299.159 326.318 300.691 327.253 301.326C328.187 301.961 328.915 302.359 329.234 302.81C329.553 303.26 328.982 305.053 328.642 305.376C329.023 306.749 329.366 310.514 329.175 311.873C328.985 313.232 325.137 314.014 321.627 313.678C318.118 313.342 317.045 309.424 315.974 307.887C314.904 306.35 310.224 306.584 311.591 300.672C312.958 294.761 321.646 292.407 322.867 293.706Z" fill="#FFB29C"/>
<path d="M328.606 306.465C328.606 306.465 328.234 307.436 324.945 307.557C327.18 310.019 329.586 311.354 328.606 306.465Z" fill="white"/>
<path d="M322.582 301.11C322.582 301.11 324.377 299.41 325.245 299.229C326.112 299.048 325.282 297.936 324.6 298.45C323.918 298.964 322.758 300.397 322.582 301.11Z" fill="#202441"/>
<path d="M311.591 300.673C312.325 297.498 315.171 295.351 317.837 294.243L318.531 297.459C318.531 297.459 318.686 300.257 317.962 301.499C318.411 302.879 318.925 304.112 319.382 305.109L317.813 305.69C317.493 304.342 316.863 304.881 315.944 304.361C314.837 303.735 313.054 303.706 312.599 306.008C311.612 304.942 310.968 303.364 311.591 300.673Z" fill="#202441"/>
<path d="M317.64 297.546C317.64 297.546 318.929 298.684 319.453 294.243C319.976 289.801 318.89 291.688 317.039 292.238C315.189 292.788 316.973 290.614 316.973 290.614C314.39 289.448 311.61 290.713 311.228 293.16C306.78 293.546 308.266 297.452 308.266 297.452C303.864 298.669 308.691 310.141 315.982 313.36C316.018 310.829 315.155 303.365 315.155 303.365L317.64 297.546Z" fill="#202441"/>
<path d="M325.55 301.877C325.657 302.371 325.522 302.831 325.25 302.903C324.977 302.975 324.669 302.632 324.562 302.138C324.456 301.644 324.59 301.185 324.863 301.113C325.136 301.041 325.444 301.383 325.55 301.877Z" fill="#202441"/>
<path d="M318.183 309.093C318.183 309.093 317.352 310.396 315.62 308.873C313.888 307.35 313.78 305.484 314.304 304.474C314.828 303.465 316.456 303.392 317.398 304.266C318.34 305.141 319.161 307.749 318.183 309.093Z" fill="#FFB29C"/>
<path d="M309.966 308.814C309.966 308.814 318.138 297.503 323.738 294.243C321.072 288.325 314.154 287.955 310.279 290.244C306.406 292.534 302.306 300.84 309.966 308.814Z" fill="#FFCB27"/>
<path d="M316.326 300.944C316.326 300.944 323.355 289.506 327.155 289.34C330.955 289.175 325.475 296.702 325.475 296.702C325.475 296.702 324.672 295.265 323.306 295.45C321.939 295.635 316.326 300.944 316.326 300.944Z" fill="#EEAE18"/>
<path d="M387.455 375.814C387.455 374.545 386.947 373.418 386.155 372.635V375.976L383.592 377.614L381.03 375.976V372.635C380.238 373.418 379.73 374.545 379.73 375.814C379.73 377.52 380.639 378.981 381.943 379.668V394.499H385.848V379.273C386.818 378.496 387.455 377.241 387.455 375.814Z" fill="#E0E0E0"/>
<path d="M378.39 375.895C378.39 374.192 377.708 372.678 376.646 371.627V376.112L373.206 378.312L369.766 376.112V371.627C368.702 372.679 368.021 374.192 368.021 375.895C368.021 378.185 369.24 380.146 370.991 381.068V400.977H376.234V380.538C377.536 379.494 378.39 377.81 378.39 375.895Z" fill="#E0E0E0"/>
<path d="M366.735 379.479C366.735 378.81 366.467 378.216 366.05 377.803V379.564L364.698 380.428L363.347 379.564V377.803C362.93 378.216 362.662 378.81 362.662 379.479C362.662 380.378 363.141 381.149 363.829 381.512V389.332H365.888V381.303C366.399 380.893 366.735 380.231 366.735 379.479Z" fill="#E0E0E0"/>
<path d="M346.531 389.054C346.431 389.054 346.331 389.031 346.234 388.983C345.866 388.802 345.7 388.323 345.865 387.916L352.403 371.705C353.235 369.644 354.868 368.365 356.666 368.365H383.78C385.466 368.365 386.998 369.473 387.879 371.331L395.716 387.871C395.903 388.266 395.767 388.755 395.409 388.962C395.053 389.17 394.611 389.019 394.423 388.622L386.586 372.083C385.963 370.768 384.913 369.982 383.779 369.982H356.665C355.451 369.982 354.328 370.895 353.735 372.365L347.197 388.576C347.077 388.875 346.811 389.054 346.531 389.054Z" fill="#CCCCCC"/>
<path d="M403.725 385.712H337.173V418.495H403.725V385.712Z" fill="#C6823E"/>
<path d="M396.794 391.311H344.104V413.856H396.794V391.311Z" fill="#AD6525"/>
<path d="M341.308 389.132C341.181 389.132 341.051 389.099 340.93 389.027C340.542 388.796 340.394 388.259 340.604 387.828L348.457 371.617C349.45 369.565 351.376 368.288 353.48 368.288H386.046C388.016 368.288 389.819 369.389 390.869 371.235L400.282 387.774C400.518 388.188 400.405 388.735 400.031 388.996C399.658 389.258 399.163 389.134 398.928 388.719L389.515 372.179C388.76 370.852 387.462 370.059 386.045 370.059H353.479C351.965 370.059 350.581 370.977 349.865 372.454L342.012 388.664C341.87 388.963 341.593 389.132 341.308 389.132Z" fill="#E0E0E0"/>
</g>
<defs>
<linearGradient id="paint0_linear_55_10884" x1="364.28" y1="255.849" x2="496.243" y2="188.47" gradientUnits="userSpaceOnUse">
<stop offset="1.70489e-07" stop-color="#4EB9C4"/>
<stop offset="0.9926" stop-color="#06B584"/>
</linearGradient>
<linearGradient id="paint1_linear_55_10884" x1="430.496" y1="219.812" x2="506.968" y2="259.645" gradientUnits="userSpaceOnUse">
<stop stop-color="#92FFC0"/>
<stop offset="1" stop-color="#002661"/>
</linearGradient>
</defs>
</svg>
