<svg width="550" height="550" viewBox="0 0 550 550" fill="none" xmlns="http://www.w3.org/2000/svg">
<g clip-path="url(#clip0_85_2174)">
<path d="M549.62 0H0V550H549.62V0Z" fill="white"/>
<path d="M334.853 106.618C314.933 119.065 300.586 139.111 284.485 156.653C268.383 174.196 248.262 190.325 225.111 190.895C215.447 191.133 205.87 188.607 196.205 188.751C162.574 189.252 134.767 228.306 143.709 262.48C147.676 277.64 157.245 290.449 162.917 304.994C171.207 326.25 170.848 350.278 178.279 371.884C185.71 393.49 206.53 413.713 227.288 406.679C244.382 400.886 252.734 379.698 268.92 371.502C299.907 355.813 332.2 395.249 366.577 395.313C400.505 395.375 423.81 355.772 423.73 320.012C423.703 308.511 422.035 296.906 423.898 285.573C427.533 263.473 443.724 246.333 453.14 226.218C491.371 144.552 412.01 58.4002 334.853 106.618Z" fill="#D2F3F3"/>
<path d="M508.875 486.276C508.755 478.125 508.37 469.893 505.655 462.236C502.627 453.695 496.116 445.848 487.317 443.704C466.145 438.544 449.318 466.983 427.564 465.708C410.193 464.69 400.069 445.897 385.193 436.864C369.077 427.077 347.391 429.834 331.78 440.41C316.17 450.986 306.024 468.144 300.079 486.046L301.744 486.277H508.875V486.276Z" fill="#D2F3F3"/>
<path d="M41.6965 272.507C37.56 281.51 39.8563 292.446 45.2195 300.778C50.5816 309.108 58.6083 315.319 66.6371 321.118C70.0788 323.603 73.836 326.144 78.0791 326.214C84.0337 326.313 89.1276 321.257 90.8798 315.562C92.632 309.866 91.7317 303.71 90.4225 297.897C88.8769 291.039 86.7466 284.229 83.0949 278.223C74.4351 263.978 51.3962 251.395 41.6965 272.507Z" fill="#D2F3F3"/>
<path d="M423.458 296.859C453.823 296.859 478.439 272.226 478.439 241.84C478.439 211.454 453.823 186.822 423.458 186.822C393.093 186.822 368.477 211.454 368.477 241.84C368.477 272.226 393.093 296.859 423.458 296.859Z" stroke="#211D1D" stroke-width="1.1389" stroke-miterlimit="10" stroke-linecap="round" stroke-linejoin="round"/>
<path d="M361.383 143.646C358.271 148.847 358.519 155.814 361.825 160.895C365.129 165.975 371.266 169.008 377.319 168.756C382.229 168.551 387.127 166.166 389.862 162.08C392.822 157.657 392.93 151.617 390.556 146.853C384.944 135.596 368.608 131.575 361.383 143.646Z" stroke="#211D1D" stroke-width="1.1389" stroke-miterlimit="10" stroke-linecap="round" stroke-linejoin="round"/>
<path d="M43.7081 486.276H496.134" stroke="#211D1D" stroke-width="1.1389" stroke-miterlimit="10" stroke-linecap="round" stroke-linejoin="round"/>
<path d="M317.953 407.301C324.567 385.379 339.758 363.775 362.167 359.141C367.951 357.944 373.919 357.944 379.746 356.975C389.508 355.353 398.796 350.958 406.243 344.436C415.495 336.334 421.764 325.23 431.134 317.265C440.505 309.3 455.461 305.302 464.726 313.391C472.775 320.421 472.563 333.55 467.43 342.925C462.296 352.3 453.468 358.953 445.29 365.832C437.112 372.712 429 380.662 426.274 390.999C424.121 399.165 425.61 407.8 425.175 416.232C424.079 437.524 409.444 457.51 389.485 464.969C383.948 467.038 377.961 468.273 373.168 471.735C368.375 475.197 365.168 481.929 368.015 487.113H273.302C272.617 472.669 278.822 454.844 286.968 442.901C292.884 434.226 300.73 427.08 307.677 419.208C314.625 411.335 320.875 402.282 322.526 391.91" stroke="#211D1D" stroke-width="1.1389" stroke-miterlimit="10" stroke-linecap="round" stroke-linejoin="round"/>
<path d="M355.403 417.03L356.361 417.317C362.954 395.469 378.052 374.082 400.198 369.502L400.097 369.013L400.198 369.502C403.06 368.91 405.973 368.613 408.916 368.342C409.228 368.313 409.541 368.285 409.854 368.256C412.483 368.017 415.134 367.776 417.758 367.34L417.676 366.847L417.758 367.34C427.613 365.702 436.985 361.267 444.503 354.684C449.066 350.688 452.904 345.973 456.71 341.297L456.963 340.986C460.862 336.197 464.744 331.466 469.389 327.518C474.013 323.588 480.012 320.64 485.982 319.672C491.949 318.704 497.839 319.718 502.328 323.639C506.229 327.046 508.149 331.947 508.454 337.179C508.76 342.414 507.446 347.947 504.921 352.557L505.359 352.797L504.921 352.557C500.437 360.746 493.103 366.837 485.792 372.909C484.825 373.712 483.858 374.515 482.899 375.322L483.221 375.705L482.899 375.322C474.72 382.204 466.491 390.242 463.721 400.744C462.627 404.893 462.462 409.147 462.511 413.393C462.526 414.716 462.562 416.035 462.598 417.35C462.677 420.276 462.756 423.183 462.607 426.079C461.522 447.172 447.014 466.984 427.241 474.373C425.868 474.886 424.465 475.348 423.05 475.809C422.921 475.851 422.793 475.893 422.664 475.935C421.378 476.353 420.085 476.774 418.81 477.232C416.004 478.238 413.259 479.431 410.807 481.202L410.807 481.202C408.572 482.817 406.683 485.121 405.541 487.657H312.162C313.712 475.509 318.906 462.447 325.311 453.055C328.249 448.748 331.67 444.814 335.234 440.966C336.512 439.585 337.812 438.212 339.115 436.836C341.432 434.389 343.757 431.934 345.983 429.411L345.608 429.08L345.983 429.411C349.535 425.385 352.919 421.038 355.605 416.352L355.404 417.028L355.403 417.03Z" fill="url(#paint0_linear_85_2174)" stroke="url(#paint1_linear_85_2174)"/>
<path d="M491.065 334.869C479.139 338.777 471.039 349.773 465.022 360.793C459.006 371.814 454.036 383.779 444.99 392.484C430.591 406.341 408.717 409.296 392.767 421.332C381.389 429.917 373.568 443.086 371.469 457.191" stroke="white" stroke-width="0.7592" stroke-miterlimit="10" stroke-linecap="round" stroke-linejoin="round"/>
<path d="M357.682 411.123C358.977 408.135 359.942 405.023 360.457 401.782L357.682 411.123Z" fill="#211E21"/>
<path d="M195.138 475.754C196.253 480.759 196.941 485.879 197.39 491.061H333.66C333.862 487.139 334.161 483.447 334.632 480.087C339.275 446.977 355.724 409.337 347.783 374.867C339.125 337.293 299.618 332.434 273.009 332.049C245.794 331.655 196.88 329.329 180.728 361.516C180.625 361.722 180.523 361.928 180.423 362.136C175.118 373.092 173.698 386.383 174.625 399.075C176.623 426.401 189.344 449.728 195.138 475.754Z" fill="#006F7E"/>
<path d="M237.391 346C240.925 348.144 244.691 349.849 248.626 351.107C252.826 352.449 257.237 353.51 261.656 353.692C269.405 354.008 277.199 352.032 284.144 348.656C290.778 345.431 297.05 340.696 301.742 334.855C291.804 332.782 281.716 332.176 273.009 332.049C259.438 331.852 240.473 331.177 222.866 334.537C227.425 338.725 232.103 342.792 237.391 346Z" fill="#FAF2E5"/>
<path d="M229.961 274.075C228.706 271.092 226.711 268.309 223.885 266.731C221.06 265.154 217.325 264.992 214.684 266.863C211.732 268.953 210.784 272.977 211.072 276.584C211.561 282.721 215.129 288.533 220.377 291.745C225.625 294.956 232.422 295.485 238.103 293.125" fill="#F6C1AF"/>
<path d="M297.846 276.077C299.102 273.092 301.096 270.31 303.922 268.733C306.747 267.156 310.482 266.994 313.123 268.865C316.075 270.956 317.023 274.979 316.736 278.586C316.247 284.723 312.679 290.535 307.431 293.747C302.182 296.958 295.386 297.487 289.705 295.126L297.846 276.077Z" fill="#F6C1AF"/>
<path d="M244.013 342.989C251.295 345.914 259.196 346.501 266.954 345.789C277.293 344.841 286.464 340.988 293.485 334.329C293.376 334.287 293.265 334.248 293.157 334.203C291.238 333.421 289.454 332.384 287.896 330.979C287.804 330.895 287.714 330.812 287.624 330.727C283.54 326.864 282.096 321.366 281.7 315.615C281.487 312.533 281.577 309.378 281.722 306.364C281.722 306.338 281.724 306.309 281.726 306.283H242.965C243.087 308.796 243.172 311.409 243.075 313.998C242.842 320.323 241.532 326.504 237.066 330.727C235.995 331.738 234.816 332.567 233.551 333.25C233.386 333.341 233.219 333.427 233.053 333.512C232.97 333.556 232.885 333.597 232.801 333.638C232.191 333.936 231.561 334.194 230.92 334.435C234.715 338.044 239.083 341.009 244.013 342.989Z" fill="#F6C1AF"/>
<path d="M243.116 311.41C245.175 313.605 247.28 315.757 249.488 317.806C254.495 322.455 260.239 326.906 266.76 329.169C273.472 331.498 280.667 331.919 287.654 330.749C287.645 330.74 287.635 330.732 287.626 330.723C281.333 324.771 281.306 314.935 281.726 306.28H242.966C243.047 307.959 243.11 309.68 243.116 311.41Z" fill="#211E21"/>
<path d="M297.437 256.349V287.01C297.437 290.321 296.957 293.524 296.062 296.554C296 296.763 295.937 296.97 295.872 297.175C293.447 304.845 288.355 311.359 281.699 315.614C280.088 316.645 278.381 317.544 276.599 318.295C273.887 319.436 270.998 320.235 267.987 320.633C266.534 320.825 265.05 320.925 263.545 320.925C255.873 320.925 248.773 318.339 243.075 313.996C237.736 309.924 233.628 304.309 231.433 297.83C230.278 294.429 229.653 290.787 229.653 287.01V256.349C229.653 237.694 244.904 222.433 263.546 222.433C272.867 222.433 281.34 226.248 287.482 232.395C293.625 238.543 297.437 247.022 297.437 256.349Z" fill="#F6C1AF"/>
<path d="M234.453 234.475C235.089 227.958 237.911 220.892 243.964 218.407C250.192 215.849 257.73 218.991 263.856 216.199C269.944 213.425 272.161 206.12 274.471 199.838C276.779 193.556 281.267 186.602 287.953 186.828C292.263 186.974 295.947 190.332 297.73 194.26C299.515 198.189 299.753 202.623 299.868 206.937C300.288 222.64 299.441 238.375 297.338 253.942C293.76 251.609 290.932 249.475 287.927 246.438C284.923 243.401 282.529 239.591 281.927 235.36C274.083 238.709 264.728 240.618 256.201 240.703C251.343 240.751 245.843 239.905 243.045 235.93C244.383 237.49 243.366 239.077 242.97 241.093C242.573 243.11 241.545 244.943 240.438 246.675C237.481 251.301 233.844 255.491 229.679 259.067C228.72 254.568 227.677 249.852 227.454 245.257C227.341 242.92 227.344 240.48 228.368 238.377C229.395 236.273 232.175 233.949 234.453 234.475Z" fill="#211E21"/>
<path d="M240.166 292.609L229.652 281.957V292.942C229.652 297.962 231.545 302.798 234.953 306.483L245.535 317.925C248.395 321.018 252.416 322.777 256.629 322.777H271.267C274.804 322.777 278.189 321.341 280.65 318.799L292.956 306.084C295.83 303.116 297.427 299.138 297.405 295.005L297.336 281.957L286.822 292.609H240.166Z" fill="#F6C1AF"/>
<path d="M248.336 291.137C249.266 298.798 255.782 304.735 263.689 304.735C271.596 304.735 278.113 298.798 279.042 291.137H248.336Z" fill="#F3E5DA"/>
<path d="M262.202 287.28L259.786 282.046H263.545L263.689 269.685" stroke="#211E21" stroke-width="1.0203" stroke-miterlimit="10" stroke-linecap="round" stroke-linejoin="round"/>
<path d="M290.405 280.019L286.13 280.044L274.197 280.12L269.922 280.145C270.343 279.169 272.328 277.619 273.582 276.853C273.792 276.727 273.978 276.618 274.137 276.542C278.354 274.462 282.89 274.832 286.719 277.055C288.049 277.83 289.295 278.823 290.405 280.019Z" fill="#F3E5DA"/>
<path d="M286.728 277.299C286.728 278.275 286.518 279.211 286.13 280.044L274.197 280.12C273.792 279.27 273.566 278.31 273.566 277.299C273.566 277.147 273.573 276.995 273.582 276.852C273.792 276.726 273.978 276.617 274.137 276.541C278.354 274.461 282.89 274.831 286.719 277.054C286.728 277.13 286.728 277.215 286.728 277.299Z" fill="#211E21"/>
<path d="M236.905 280.019L241.18 280.044L253.113 280.12L257.388 280.145C256.967 279.169 254.982 277.619 253.728 276.853C253.518 276.727 253.332 276.618 253.173 276.542C248.956 274.462 244.421 274.832 240.591 277.055C239.261 277.83 238.015 278.823 236.905 280.019Z" fill="#F3E5DA"/>
<path d="M240.582 277.299C240.582 278.275 240.792 279.211 241.179 280.044L253.112 280.12C253.516 279.27 253.743 278.31 253.743 277.299C253.743 277.147 253.734 276.995 253.727 276.852C253.517 276.726 253.331 276.617 253.172 276.541C248.955 274.461 244.419 274.831 240.59 277.054C240.582 277.13 240.582 277.215 240.582 277.299Z" fill="#211E21"/>
<path d="M276.585 258.44C280.389 258.887 283.973 260.969 286.247 264.053" stroke="#211E21" stroke-width="1.0203" stroke-miterlimit="10" stroke-linecap="round" stroke-linejoin="round"/>
<path d="M251.081 258.564C247.278 259.011 243.693 261.093 241.42 264.177" stroke="#211E21" stroke-width="1.0203" stroke-miterlimit="10" stroke-linecap="round" stroke-linejoin="round"/>
<path d="M300.078 283.22C301.122 280.73 302.341 278.25 304.235 276.328C306.13 274.405 308.815 273.098 311.493 273.433" stroke="#211E21" stroke-width="1.0203" stroke-miterlimit="10" stroke-linecap="round" stroke-linejoin="round"/>
<path d="M214.725 271.095C215.958 270.233 217.575 270.046 219.05 270.34C220.525 270.634 221.878 271.367 223.121 272.217C224.946 273.466 226.585 274.99 227.966 276.72" stroke="#211E21" stroke-width="1.0203" stroke-miterlimit="10" stroke-linecap="round" stroke-linejoin="round"/>
<path d="M296.011 263.266C295.771 263.266 295.538 263.293 295.301 263.302V296.99C295.538 297 295.771 297.026 296.011 297.026C305.327 297.026 312.879 289.469 312.879 280.147C312.879 270.823 305.327 263.266 296.011 263.266Z" fill="#002E4C"/>
<path d="M300.74 264.177V293.746" stroke="#211E21" stroke-width="0.8519" stroke-miterlimit="10" stroke-linecap="round" stroke-linejoin="round"/>
<path d="M307.248 288.888C307.159 298.357 303.163 308.001 295.939 313.189C288.715 318.379 278.283 318.234 271.904 311.852" stroke="#002E4C" stroke-width="5.1195" stroke-miterlimit="10" stroke-linecap="round" stroke-linejoin="round"/>
<path d="M275.929 308.572C275.929 311.998 273.154 314.777 269.728 314.777C266.304 314.777 263.528 311.999 263.528 308.572C263.528 305.145 266.303 302.367 269.728 302.367C273.153 302.367 275.929 305.145 275.929 308.572Z" fill="#002E4C"/>
<path d="M303.029 338.648C301.072 337.753 304.271 335.425 306.366 335.903C324.262 339.991 340.035 350.833 353.183 363.737C366.331 376.64 377.205 391.661 388.64 406.129C400.443 421.063 412.901 435.472 425.963 449.3C436.97 460.951 449.375 475.559 445.1 491.062H241.25C241.25 491.062 261.151 447.181 316.785 452.93L303.029 338.648Z" fill="#006F7E"/>
<path d="M353.921 473.904C350.731 467.907 346.973 462.262 342.662 457.088C336.64 456.994 328.853 454.926 301.997 459.126C287.921 461.327 275.929 463.598 264.837 464.753C259.802 465.277 269.876 464.277 264.837 464.753C222.778 468.725 241.25 491.061 241.25 491.061H361.49C359.336 485.187 356.864 479.437 353.921 473.904Z" fill="#F6C1AF"/>
<path d="M211.662 396.856L104.922 441.962L101.972 443.209C81.1153 452.256 57.8806 434.285 61.1586 411.932L82.154 258.205C83.4808 248.491 92.4253 241.692 102.133 243.02C110.799 244.205 117.14 251.471 117.457 259.927L123.418 414.968L79.6555 384.938L184.729 336.07C201.371 328.33 221.132 335.555 228.866 352.209C236.814 369.219 228.956 389.585 211.662 396.856Z" fill="#006F7E"/>
<path d="M118.627 290.311L117.458 259.927C117.141 251.472 110.799 244.205 102.134 243.02C92.4264 241.692 83.4819 248.491 82.1551 258.205C82.1551 258.205 80.337 271.521 77.7703 290.311H118.627Z" fill="#F6C1AF"/>
<path d="M349.034 455.675C371.705 444.333 399.509 443.843 422.564 454.379" stroke="#211D1D" stroke-width="1.5312" stroke-miterlimit="10" stroke-linecap="round" stroke-linejoin="round"/>
<path d="M394.038 430.467C377.376 429.168 360.276 436.67 349.939 449.812C349.745 446.742 351.783 444.128 353.174 441.383C356.997 433.837 362.674 427.241 369.563 422.337" stroke="#211D1D" stroke-width="1.5312" stroke-miterlimit="10" stroke-linecap="round" stroke-linejoin="round"/>
<path d="M170.392 372.004C167.497 391.523 169.438 411.742 175.995 430.352C175.995 430.352 152.177 395.483 153.71 378.504" stroke="#211D1D" stroke-width="1.5312" stroke-miterlimit="10" stroke-linecap="round" stroke-linejoin="round"/>
<path d="M268.479 492.546H95.8143C93.0651 492.546 90.816 490.295 90.816 487.544C90.816 484.793 93.0651 482.542 95.8143 482.542H268.479C271.228 482.542 273.477 484.793 273.477 487.544C273.477 490.295 271.228 492.546 268.479 492.546Z" fill="#211E21"/>
<path d="M225.496 488.587L207.972 398.036L81.9231 400.749L98.9217 488.587H225.496Z" fill="#211E21"/>
<path d="M103.158 482.543C109.688 482.543 218.474 482.543 218.474 482.543" stroke="white" stroke-width="0.7592" stroke-miterlimit="10" stroke-linecap="round" stroke-linejoin="round"/>
<path d="M147.77 458.236C142.952 458.236 139.009 454.291 139.009 449.469C139.009 444.646 142.952 440.702 147.77 440.702C152.588 440.702 156.531 444.646 156.531 449.469C156.531 454.29 152.589 458.236 147.77 458.236Z" stroke="white" stroke-width="0.7592" stroke-miterlimit="10" stroke-linecap="round" stroke-linejoin="round"/>
<path d="M306.998 336.064C307.515 355.201 316.696 373.936 331.497 386.064C346.299 398.191 366.465 403.5 385.314 400.23" stroke="white" stroke-width="0.7592" stroke-miterlimit="10" stroke-linecap="round" stroke-linejoin="round"/>
<path d="M142.778 355.581C151.223 355.706 165.467 357.027 173.072 360.701C210.353 378.716 238.223 424.422 241.69 465.705" stroke="white" stroke-width="0.7592" stroke-miterlimit="10" stroke-linecap="round" stroke-linejoin="round"/>
<path d="M287.791 489.829C289.839 487.644 291.752 485.198 292.533 482.306C293.315 479.414 292.735 475.987 290.448 474.055" stroke="#211D1D" stroke-width="1.5312" stroke-miterlimit="10" stroke-linecap="round" stroke-linejoin="round"/>
<path d="M284.781 468.918C288.746 472.035 290.902 478.807 289.251 483.575C287.6 488.342 285.628 491.363 280.97 493.297C276.313 495.231 271.144 495.609 266.11 495.326C260.299 495 246.723 493.042 241.25 491.061C232.539 495.147 229.627 494.414 220.675 495.773C211.723 497.131 203.79 497.708 194.955 495.727C194.494 495.623 194.035 495.512 193.569 495.434L205.501 476.229C206.277 474.981 207.537 474.111 208.978 473.829L250.464 465.706L284.781 468.918Z" fill="#F6C1AF"/>
<path d="M199.736 496.539L214.16 479.35C214.778 478.613 215.622 478.1 216.56 477.888L248.963 470.612" stroke="#211D1D" stroke-width="1.5312" stroke-miterlimit="10" stroke-linecap="round" stroke-linejoin="round"/>
<path d="M206.401 496.929L222.177 482.98C222.948 482.299 223.876 481.82 224.877 481.584L252.674 475.068" stroke="#211D1D" stroke-width="1.5312" stroke-miterlimit="10" stroke-linecap="round" stroke-linejoin="round"/>
<path d="M220.675 495.773L232.381 486.781L258.994 481.941" stroke="#211D1D" stroke-width="1.5312" stroke-miterlimit="10" stroke-linecap="round" stroke-linejoin="round"/>
<path d="M84.89 260.051C73.5029 240.662 69.7227 221.4 58.9809 201.646C57.3309 198.612 54.6301 195.439 54.5422 191.822C54.5037 190.243 55.3413 188.146 57.1803 188.186C59.1491 188.229 61.2563 190.656 62.3819 192.054C67.4297 198.324 72.3323 204.713 77.0832 211.211C75.1474 204.456 72.5389 197.155 70.8802 190.326C70.1701 187.401 67.5396 177.652 67.2867 174.583C67.0867 172.159 67.0262 167.495 69.5842 166.156C73.747 163.978 78.244 177.636 79.0101 180.423C80.537 185.976 85.1868 198.066 88.811 208.779C89.0935 202.121 88.8132 196.426 87.8283 189.836C86.8433 183.246 82.3595 169.106 84.6657 162.855C84.8977 162.225 88.9912 157.494 91.4997 166.156C91.4997 166.156 94.0214 174.635 94.3039 175.576C98.3183 188.952 99.8649 198.349 103.167 209.168C104.209 199.321 102.742 180.309 103.046 170.637C103.101 168.891 104.847 167.194 106.581 166.982C108.335 166.769 110.111 170.235 110.393 171.979C113.308 189.974 114.373 208.333 119.585 225.106C120.39 217.068 122.815 208.848 125.555 201.249C127.162 196.793 130.408 191.651 135.097 192.3C133.397 206.346 131.699 220.392 129.999 234.436C129.164 241.345 128.258 248.47 124.781 254.498C121.001 261.054 114.214 265.791 106.762 267.078C99.3098 268.364 90.5478 269.685 84.89 260.051Z" fill="#F6C1AF"/>
<path d="M118.656 225.577C109.619 230.133 103.578 240.095 103.713 250.222" stroke="#211E21" stroke-width="1.0203" stroke-miterlimit="10" stroke-linecap="round" stroke-linejoin="round"/>
<path d="M77.7701 216.05L108.3 207.777" stroke="#211E21" stroke-width="1.0203" stroke-miterlimit="10" stroke-linecap="round" stroke-linejoin="round"/>
<path d="M180.54 207.662C222.971 207.662 257.368 173.241 257.368 130.781C257.368 88.3208 222.971 53.8999 180.54 53.8999C138.109 53.8999 103.712 88.3208 103.712 130.781C103.712 173.241 138.109 207.662 180.54 207.662Z" fill="#70C5D3"/>
<path d="M168.085 196.804C171.875 216.97 186.063 234.886 204.817 243.186C199.903 236.868 194.697 230.285 192.871 222.493C191.044 214.699 191.792 206.074 196.134 199.351" fill="#70C5D3"/>
<path d="M174.363 168.721L177.933 175.254L184.461 178.827L177.933 182.4L174.363 188.933L170.791 182.4L164.263 178.827L170.791 175.254L174.363 168.721Z" fill="white"/>
<path d="M199.736 153.478L201.065 155.909L203.496 157.24L201.065 158.569L199.736 161L198.407 158.569L195.977 157.24L198.407 155.909L199.736 153.478Z" fill="white"/>
<path d="M140.397 104.628L142.768 108.967L147.105 111.34L142.768 113.712L140.397 118.052L138.026 113.712L133.691 111.34L138.026 108.967L140.397 104.628Z" fill="white"/>
<path d="M154.426 88.1011L156.052 91.0744L159.023 92.7002L156.052 94.326L154.426 97.3004L152.801 94.326L149.83 92.7002L152.801 91.0744L154.426 88.1011Z" fill="white"/>
<path d="M229.537 153.231L230.953 155.821L233.541 157.239L230.953 158.656L229.537 161.247L228.12 158.656L225.531 157.239L228.12 155.821L229.537 153.231Z" fill="white"/>
<path d="M435.914 262.821H339.91C328.215 262.821 318.646 253.245 318.646 241.541C318.646 229.837 328.215 220.262 339.91 220.262H435.914C447.61 220.262 457.178 229.837 457.178 241.541C457.18 253.245 447.61 262.821 435.914 262.821Z" fill="#70C5D3"/>
<path d="M457.096 239.914C456.256 228.966 447.061 220.262 435.914 220.262H339.91C328.763 220.262 319.568 228.966 318.728 239.914H457.096Z" fill="#211E21"/>
<path d="M343.17 246.334C345.866 262.145 336.864 279.221 322.302 285.921C343.22 286.277 363.037 269.289 365.896 248.549L343.17 246.334Z" fill="#70C5D3"/>
<path d="M339.392 231.068C339.392 233.226 337.643 234.976 335.486 234.976C333.329 234.976 331.58 233.226 331.58 231.068C331.58 228.91 333.329 227.16 335.486 227.16C337.643 227.159 339.392 228.909 339.392 231.068Z" stroke="white" stroke-width="0.9251" stroke-miterlimit="10" stroke-linecap="round" stroke-linejoin="round"/>
<path d="M354.004 231.068C354.004 233.226 352.255 234.976 350.098 234.976C347.942 234.976 346.193 233.226 346.193 231.068C346.193 228.91 347.942 227.16 350.098 227.16C352.256 227.159 354.004 228.909 354.004 231.068Z" stroke="white" stroke-width="0.9251" stroke-miterlimit="10" stroke-linecap="round" stroke-linejoin="round"/>
<path d="M368.295 231.068C368.295 233.226 366.546 234.976 364.389 234.976C362.232 234.976 360.484 233.226 360.484 231.068C360.484 228.91 362.233 227.16 364.389 227.16C366.546 227.159 368.295 228.909 368.295 231.068Z" stroke="white" stroke-width="0.9251" stroke-miterlimit="10" stroke-linecap="round" stroke-linejoin="round"/>
<path d="M338.09 246.334H437.911" stroke="white" stroke-width="1.1777" stroke-miterlimit="10" stroke-linecap="round" stroke-linejoin="round"/>
<path d="M347.325 253.607H436.219" stroke="white" stroke-width="1.1777" stroke-miterlimit="10" stroke-linecap="round" stroke-linejoin="round"/>
<path d="M229.914 130.963L195.211 137.913L171.848 111.315L183.187 77.7666L217.887 70.8179L223.999 77.7765L198.315 100.368C194.538 103.691 194.167 109.504 197.487 113.283C200.808 117.063 206.613 117.438 210.391 114.115L236.075 91.5232L241.251 97.4159L229.914 130.963Z" fill="#211E21"/>
<path d="M193.988 126.034L183.598 114.206L142.163 150.652L152.552 162.48L193.988 126.034Z" fill="#211E21"/>
<path d="M151.174 153.074C144.854 145.879 133.897 145.169 126.707 151.494C119.514 157.821 118.811 168.785 125.131 175.981C131.452 183.176 142.408 183.886 149.601 177.558C156.791 171.234 157.495 160.27 151.174 153.074ZM134.676 174.813L127.513 166.66L130.989 156.371L141.629 154.243L148.792 162.397L145.319 172.685L134.676 174.813Z" fill="#211E21"/>
<path d="M151.763 168.242C153.87 160.635 149.415 152.759 141.813 150.65C134.211 148.542 126.34 152.999 124.233 160.607C122.126 168.214 126.581 176.091 134.183 178.199C141.785 180.308 149.656 175.85 151.763 168.242Z" stroke="white" stroke-width="0.9766" stroke-miterlimit="10" stroke-linecap="round" stroke-linejoin="round"/>
<path d="M182.881 115.579C182.881 115.579 186.818 113.303 191.574 115.507" stroke="white" stroke-width="0.9766" stroke-miterlimit="10" stroke-linecap="round" stroke-linejoin="round"/>
<path d="M152.891 144.628L181.86 119.147L174.428 110.687L185.378 80.2647L215.595 73.5854" stroke="white" stroke-width="0.9766" stroke-miterlimit="10" stroke-linecap="round" stroke-linejoin="round"/>
<path d="M191.572 129.201L196.624 134.081L227.565 128.143L237.111 99.8511" stroke="#7F6BF4" stroke-width="0.7695" stroke-miterlimit="10" stroke-linecap="round" stroke-linejoin="round"/>
</g>
<defs>
<linearGradient id="paint0_linear_85_2174" x1="311.605" y1="488.164" x2="451.143" y2="325.51" gradientUnits="userSpaceOnUse">
<stop offset="1.70489e-07" stop-color="#4EB9C4"/>
<stop offset="0.9926" stop-color="#06B584"/>
</linearGradient>
<linearGradient id="paint1_linear_85_2174" x1="311.596" y1="318.83" x2="436.467" y2="448.973" gradientUnits="userSpaceOnUse">
<stop stop-color="#92FFC0"/>
<stop offset="1" stop-color="#002661"/>
</linearGradient>
<clipPath id="clip0_85_2174">
<rect width="549.62" height="550" fill="white"/>
</clipPath>
</defs>
</svg>
