<svg width="551" height="550" viewBox="0 0 551 550" fill="none" xmlns="http://www.w3.org/2000/svg">
<path d="M276.806 522.027C419.74 522.027 535.612 460.908 535.612 385.513C535.612 310.119 419.74 249 276.806 249C133.871 249 18 310.119 18 385.513C18 460.908 133.871 522.027 276.806 522.027Z" fill="#F5F5F5"/>
<path d="M440.811 340.54C422.886 350.889 422.886 367.668 440.812 378.017C458.737 388.366 487.799 388.366 505.723 378.017C523.648 367.669 523.648 350.889 505.722 340.54C487.797 330.192 458.735 330.192 440.811 340.54Z" fill="#E6E6E6"/>
<path d="M402.692 461.042C441.925 461.042 473.729 442.68 473.729 420.029C473.729 397.378 441.925 379.015 402.692 379.015C363.46 379.015 331.655 397.378 331.655 420.029C331.655 442.68 363.46 461.042 402.692 461.042Z" fill="#E0E0E0"/>
<path d="M62.7121 452.738L69.9754 456.931C72.2645 458.254 75.9759 458.254 78.265 456.931L238.331 364.517C240.621 363.196 240.621 361.053 238.331 359.731L231.067 355.537C228.778 354.216 225.067 354.216 222.777 355.537L62.7121 447.952C60.423 449.274 60.423 451.417 62.7121 452.738Z" fill="#E0E0E0"/>
<path d="M103.422 461.589L110.685 465.782C112.974 467.104 116.686 467.104 118.975 465.782L255.566 387.207C257.855 385.885 257.855 383.743 255.566 382.42L248.302 378.226C246.013 376.905 242.301 376.905 240.012 378.226L103.422 456.804C101.133 458.125 101.133 460.267 103.422 461.589Z" fill="#E0E0E0"/>
<path d="M499.904 122.413L497.986 123.556L458.647 100.845L460.563 99.7007L499.904 122.413Z" fill="#FAFAFA"/>
<path d="M460.563 99.7007L497.985 121.301V82.1139L460.563 60.5264V99.7007Z" fill="white"/>
<path d="M455.029 102.932L501.603 129.822V80.0257L455.028 53.1362L455.029 102.932ZM458.647 59.4007L497.985 82.1124L497.986 123.555L458.648 100.843L458.647 59.4007Z" fill="#F0F0F0"/>
<path d="M458.647 100.844L460.563 99.7005V60.5262L458.647 59.4009V100.844Z" fill="white"/>
<path d="M455.029 53.1364L456.975 52.021L503.55 78.9116L501.603 80.0259L455.029 53.1364Z" fill="white"/>
<path d="M503.55 78.9116L501.603 80.0259V129.822L503.55 128.708V78.9116Z" fill="#E0E0E0"/>
<path d="M462.024 98.5292L496.525 118.448V108.489L487.898 88.5709L482.526 93.5495L484.459 101.898L472.546 76.4214L462.024 88.5709V98.5292Z" fill="url(#paint0_linear_66_1151)"/>
<path d="M482.85 78.9526C484.26 79.7666 485.402 81.7444 485.402 83.3724C485.402 84.9993 484.26 85.6593 482.85 84.8464C481.441 84.0335 480.3 82.0546 480.3 80.4266C480.298 78.7986 481.441 78.1386 482.85 78.9526Z" fill="#F0F0F0"/>
<path d="M499.904 184.974L497.986 186.115L458.647 163.404L460.563 162.26L499.904 184.974Z" fill="#FAFAFA"/>
<path d="M460.563 162.26L497.985 183.86V144.673L460.563 123.085V162.26Z" fill="white"/>
<path d="M455.029 165.492L501.603 192.382V142.586L455.028 115.697L455.029 165.492ZM458.647 121.961L497.985 144.673L497.986 186.115L458.648 163.404L458.647 121.961Z" fill="#F0F0F0"/>
<path d="M458.647 163.403L460.563 162.259V123.085L458.647 121.961V163.403Z" fill="#E0E0E0"/>
<path d="M455.028 115.694L456.975 114.58L503.55 141.471L501.603 142.585L455.028 115.694Z" fill="#FAFAFA"/>
<path d="M503.55 141.471L501.603 142.585V192.381L503.55 191.267V141.471Z" fill="#E0E0E0"/>
<path d="M462.024 161.088L496.525 181.007V171.048L487.898 151.13L482.526 156.109L484.459 164.458L472.546 138.98L462.024 151.13V161.088Z" fill="url(#paint1_linear_66_1151)"/>
<path d="M482.85 141.512C484.26 142.326 485.402 144.304 485.402 145.932C485.402 147.558 484.26 148.218 482.85 147.404C481.441 146.59 480.299 144.613 480.299 142.985C480.299 141.358 481.441 140.699 482.85 141.512Z" fill="#F0F0F0"/>
<path d="M73.2633 440.811C75.9726 425.712 77.2541 408.965 72.1644 385.427C67.8931 365.673 57.1516 348.63 44.7953 346.391C39.7749 345.482 34.628 348.397 33.3542 351.455C29.8518 359.862 36.2769 367.529 39.2733 371.357C41.5151 374.221 62.2292 394.546 63.9639 425.482L64.9968 443.983C65.1519 444.946 65.9912 445.429 66.649 444.936L73.2633 440.811Z" fill="url(#paint2_linear_66_1151)"/>
<path opacity="0.3" d="M73.2633 440.811C75.9726 425.712 77.2541 408.965 72.1644 385.427C67.8931 365.673 57.1516 348.63 44.7953 346.391C39.7749 345.482 34.628 348.397 33.3542 351.455C29.8518 359.862 36.2769 367.529 39.2733 371.357C41.5151 374.221 62.2292 394.546 63.9639 425.482L64.9968 443.983C65.1519 444.946 65.9912 445.429 66.649 444.936L73.2633 440.811Z" fill="url(#paint3_linear_66_1151)"/>
<path d="M69.8643 433.859C69.6333 433.768 69.4672 433.485 69.4738 433.158C70.213 393.754 58.6564 369.123 41.9628 355.204C41.7065 354.99 41.6328 354.547 41.7978 354.216C41.9617 353.886 42.3005 353.78 42.5634 354.002C59.4704 368.098 71.3295 393.272 70.5804 433.192C70.5738 433.587 70.3197 433.898 70.0139 433.89C69.9622 433.889 69.9116 433.878 69.8643 433.859Z" fill="white"/>
<path d="M66.6479 444.935C64.8043 446.254 63.7857 443.556 62.8661 440.461C59.9071 430.502 56.6478 425.241 51.0906 418.245C44.2453 409.627 32.3642 401.672 31.0541 394.545C29.8661 388.081 35.0669 383.103 44.3245 386.557C55.4499 390.708 70.4715 404.182 69.9677 442.865L66.6479 444.935Z" fill="url(#paint4_linear_66_1151)"/>
<path d="M67.4377 439.972C67.2309 439.906 67.0571 439.692 67.0065 439.406C61.7518 409.538 45.1792 394.721 37.5056 391.786C37.2086 391.673 37.0293 391.275 37.1041 390.896C37.1789 390.518 37.4693 390.301 37.7784 390.418C46.2638 393.662 62.7253 408.662 68.09 439.149C68.1582 439.536 67.9701 439.909 67.672 439.979C67.5917 440 67.5125 439.996 67.4377 439.972Z" fill="white"/>
<path d="M440.497 308.686C440.497 308.338 440.726 307.99 441.185 307.726C442.101 307.197 443.588 307.197 444.506 307.726C444.964 307.992 445.193 308.338 445.193 308.686L436.835 358.039H436.832C436.825 358.279 436.665 358.518 436.348 358.7C435.7 359.074 434.648 359.074 434.001 358.7C433.684 358.518 433.524 358.279 433.518 358.039H433.516L440.497 308.686Z" fill="#455A64"/>
<path d="M504.966 308.686C504.966 308.338 504.737 307.99 504.278 307.726C503.361 307.197 501.875 307.197 500.958 307.726C500.499 307.992 500.27 308.338 500.27 308.686L508.628 358.039H508.631C508.638 358.279 508.797 358.518 509.115 358.7C509.763 359.074 510.815 359.074 511.463 358.7C511.779 358.518 511.939 358.279 511.945 358.039H511.948L504.966 308.686Z" fill="#455A64"/>
<path d="M475.365 312.426C475.365 312.078 475.136 311.731 474.677 311.467C473.76 310.938 472.274 310.938 471.357 311.467C470.898 311.732 470.669 312.078 470.669 312.426L471.357 371.139H471.36C471.367 371.379 471.527 371.618 471.844 371.801C472.493 372.175 473.543 372.175 474.191 371.801C474.508 371.618 474.668 371.379 474.675 371.139H474.677L475.365 312.426Z" fill="#455A64"/>
<path d="M515.095 292.428H515.056C515.063 286.211 510.987 279.994 502.769 275.251C486.337 265.763 459.694 265.763 443.263 275.251C435.046 279.995 430.971 286.211 430.978 292.428H430.938V295.767C431.037 301.903 435.153 308.021 443.263 312.704C459.696 322.19 486.339 322.19 502.769 312.704C510.881 308.021 514.996 301.904 515.094 295.767V292.428H515.095Z" fill="#BA68C8"/>
<path opacity="0.4" d="M515.095 292.428H515.056C515.063 286.211 510.987 279.994 502.769 275.251C486.337 265.763 459.694 265.763 443.263 275.251C435.046 279.995 430.971 286.211 430.978 292.428H430.938V295.767C431.037 301.903 435.153 308.021 443.263 312.704C459.696 322.19 486.339 322.19 502.769 312.704C510.881 308.021 514.996 301.904 515.094 295.767V292.428H515.095Z" fill="#002E4C"/>
<path d="M443.264 275.251C426.831 284.737 426.831 300.12 443.264 309.607C459.697 319.094 486.34 319.094 502.77 309.607C519.203 300.12 519.203 284.738 502.77 275.251C486.337 265.763 459.695 265.763 443.264 275.251Z" fill="#BA68C8"/>
<path opacity="0.6" d="M443.264 275.251C426.831 284.737 426.831 300.12 443.264 309.607C459.697 319.094 486.34 319.094 502.77 309.607C519.203 300.12 519.203 284.738 502.77 275.251C486.337 265.763 459.695 265.763 443.264 275.251Z" fill="#006F7E"/>
<g opacity="0.05">
<path d="M482.234 284.4C487.476 287.427 487.476 292.334 482.234 295.36C476.993 298.386 468.494 298.386 463.253 295.36C458.011 292.334 458.011 287.427 463.253 284.4C468.494 281.374 476.993 281.374 482.234 284.4Z" fill="black"/>
</g>
<path d="M464.396 290.556C459.831 285.899 457.149 274.268 461.602 270.573H484.256C488.708 274.267 486.029 285.89 481.467 290.551C481.428 290.594 481.383 290.637 481.341 290.68C481.289 290.731 481.237 290.783 481.184 290.834C481.055 290.958 480.918 291.081 480.772 291.201C480.735 291.231 480.699 291.258 480.663 291.287C480.55 291.375 480.44 291.463 480.318 291.548C480.124 291.685 479.928 291.814 479.729 291.925C475.973 294.093 469.886 294.093 466.131 291.925C465.93 291.814 465.732 291.684 465.536 291.545C465.423 291.466 465.321 291.385 465.216 291.303C465.171 291.268 465.126 291.234 465.081 291.198C464.939 291.082 464.807 290.965 464.683 290.844C464.621 290.786 464.562 290.726 464.501 290.666C464.466 290.629 464.428 290.594 464.396 290.556Z" fill="#EBEBEB"/>
<path d="M482.288 269.085C487.457 272.07 487.457 276.909 482.288 279.893C477.119 282.877 468.739 282.877 463.57 279.893C458.401 276.909 458.401 272.07 463.57 269.085C468.739 266.101 477.119 266.101 482.288 269.085Z" fill="#FAFAFA"/>
<path d="M478.624 271.202C481.769 273.017 481.769 275.962 478.624 277.778C475.479 279.593 470.381 279.593 467.236 277.778C464.091 275.962 464.091 273.018 467.236 271.202C470.38 269.386 475.479 269.386 478.624 271.202Z" fill="#EBEBEB"/>
<path d="M467.235 274.323C470.38 272.508 475.478 272.508 478.623 274.323C479.497 274.828 480.119 275.42 480.506 276.05C480.118 276.68 479.497 277.273 478.623 277.777C475.478 279.592 470.38 279.592 467.235 277.777C466.362 277.272 465.739 276.679 465.352 276.05C465.74 275.419 466.362 274.826 467.235 274.323Z" fill="#E0E0E0"/>
<path d="M477.93 276.049C477.93 276.049 480.148 273.937 482.05 270.573C483.952 267.21 484.302 262.703 483.32 262.147C482.337 261.592 478.334 266.087 478.334 266.087C478.334 266.087 478.923 263.341 478.755 260.345C478.587 257.348 477.856 254.627 477 254.077C476.142 253.527 474.222 257.308 473.398 260.047C472.574 262.786 472.084 265.036 472.084 265.036C472.084 265.036 471.522 261.335 470.608 258.733C469.609 255.89 468.703 255.247 468 255.528C467.299 255.808 466.835 257.136 466.63 260.923C466.486 263.575 466.799 266.344 466.799 266.344C466.799 266.344 465.388 264.792 463.82 263.286C462.1 261.634 461.363 261.405 460.871 261.721C460.38 262.035 460.244 264.607 462.909 269.428C465.26 273.682 467.939 276.05 467.939 276.05C467.939 276.05 471.627 278.429 477.93 276.049Z" fill="url(#paint5_linear_66_1151)"/>
<path d="M203.01 34.9317L68.5948 112.551C64.5215 114.902 62.0795 119.033 61.8353 123.767L61.843 436.305C61.843 440.901 64.681 446.266 68.1812 448.288C71.6814 450.309 77.7457 450.085 81.7255 447.787L215.689 370.443C219.652 368.155 222.896 362.537 222.896 357.96L222.895 46.4102C222.895 41.8144 220.057 36.4497 216.557 34.429C213.056 32.4094 206.991 32.6338 203.01 34.9317Z" fill="#006F7E"/>
<path opacity="0.05" d="M203.175 34.8819L68.7594 112.501C64.6861 114.852 62.2441 118.983 61.9999 123.717L62.0076 436.255C62.0076 440.851 64.8456 446.216 68.3458 448.238C71.846 450.259 77.9103 450.035 81.8901 447.737L215.854 370.393C219.817 368.105 223.061 362.487 223.061 357.91L223.06 46.3604C223.06 41.7646 220.222 36.3999 216.722 34.3792C213.22 32.3596 207.156 32.584 203.175 34.8819Z" fill="#006F7E"/>
<path d="M79.9931 448.611C76.1442 450.109 71.203 450.036 68.1758 448.288C64.6811 446.27 61.8409 440.903 61.8409 436.305L61.8343 123.766C61.8728 122.003 62.2886 120.043 63.6537 117.59L75.2851 124.189C73.1368 126.909 71.9983 129.706 71.9312 132.587L71.9323 442.151C71.9323 447.684 75.427 450.307 79.9931 448.611Z" fill="#006F7E"/>
<path opacity="0.3" d="M79.9931 448.611C76.1442 450.109 71.203 450.036 68.1758 448.288C64.6811 446.27 61.8409 440.903 61.8409 436.305L61.8343 123.766C61.8728 122.003 62.2886 120.043 63.6537 117.59L75.2851 124.189C73.1368 126.909 71.9983 129.706 71.9312 132.587L71.9323 442.151C71.9323 447.684 75.427 450.307 79.9931 448.611Z" fill="#002E4C"/>
<path d="M78.2859 121.581C74.7912 123.599 71.9312 128.551 71.9312 132.587L71.9301 442.156C71.9301 448.364 76.329 450.904 81.7058 447.8L215.689 370.445C219.652 368.157 222.896 362.539 222.896 357.962L222.895 46.4122C222.895 41.8351 219.652 39.9628 215.688 42.2508L78.2859 121.581Z" fill="#BA68C8"/>
<path opacity="0.15" d="M78.2859 121.581C74.7912 123.599 71.9312 128.551 71.9312 132.587L71.9301 442.156C71.9301 448.364 76.329 450.904 81.7058 447.8L215.689 370.445C219.652 368.157 222.896 362.539 222.896 357.962L222.895 46.4122C222.895 41.8351 219.652 39.9628 215.688 42.2508L78.2859 121.581Z" fill="#006F7E"/>
<path d="M83.2216 140.208C79.4387 142.392 76.373 147.703 76.373 152.071L76.3741 429.954C76.3741 434.322 79.4398 436.092 83.2227 433.908L209.786 360.829C213.553 358.654 216.635 353.316 216.635 348.966L216.634 71.0823C216.634 66.7329 213.552 64.9531 209.785 67.1278L83.2216 140.208Z" fill="#263238"/>
<path d="M206.162 341.361L206.161 69.2197L83.2216 140.208C79.4387 142.392 76.373 147.703 76.373 152.071L76.3741 424.212L199.313 353.224C203.081 351.049 206.163 345.711 206.162 341.361Z" fill="#27DEBF"/>
<path d="M136.08 96.999L156.928 84.9617C158.172 84.2434 159.18 84.7538 159.18 86.1013C159.18 87.4488 158.171 89.123 156.928 89.8413L136.08 101.878C134.836 102.596 133.827 102.085 133.827 100.739C133.828 99.3915 134.836 97.7173 136.08 96.999Z" fill="#006F7E"/>
<path d="M171.854 76.3147C173.021 75.6404 173.967 76.1871 173.967 77.5346C173.967 78.8821 173.021 80.52 171.854 81.1943C170.687 81.8675 169.741 81.3219 169.741 79.9744C169.741 78.6269 170.687 76.9879 171.854 76.3147Z" fill="#006F7E"/>
<path d="M180.311 71.4383C181.478 70.7651 182.424 71.3107 182.424 72.6582C182.424 74.0057 181.478 75.6435 180.311 76.3178C179.144 76.991 178.198 76.4455 178.198 75.098C178.198 73.7505 179.144 72.1126 180.311 71.4383Z" fill="#006F7E"/>
<path d="M112.698 110.473C113.865 109.799 114.811 110.345 114.811 111.693C114.811 113.04 113.865 114.678 112.699 115.353C111.532 116.026 110.586 115.48 110.586 114.133C110.585 112.785 111.531 111.146 112.698 110.473Z" fill="#006F7E"/>
<path d="M121.155 105.596C122.322 104.923 123.267 105.469 123.267 106.816C123.267 108.164 122.321 109.802 121.155 110.476C119.988 111.149 119.042 110.604 119.042 109.256C119.042 107.909 119.988 106.271 121.155 105.596Z" fill="#006F7E"/>
<path d="M391.462 209.285C391.462 207.776 390.403 205.941 389.096 205.186L387.169 204.074C385.862 203.32 383.744 203.32 382.437 204.074L352.889 221.164C351.582 221.918 350.523 223.753 350.523 225.262V257.774C350.523 259.283 351.583 261.118 352.889 261.873L354.816 262.985C356.123 263.739 358.241 263.739 359.548 262.985L389.096 245.894C390.403 245.139 391.462 243.305 391.462 241.795V209.285Z" fill="#006F7E"/>
<path opacity="0.2" d="M350.523 257.774C350.523 259.283 351.582 261.118 352.889 261.873L354.816 262.985C355.997 263.667 357.835 263.726 359.144 263.175C358.031 263.597 357.183 262.968 357.183 261.619V229.107C357.183 228.353 357.448 227.517 357.876 226.775L351.217 222.931C350.789 223.672 350.524 224.508 350.524 225.263L350.523 257.774Z" fill="black"/>
<path opacity="0.3" d="M391.385 208.613C391.109 207.608 390.193 207.288 389.101 207.918L359.547 225.012C358.896 225.387 358.3 226.027 357.879 226.778L351.222 222.937C351.652 222.187 352.238 221.545 352.889 221.17L382.432 204.076C383.745 203.326 385.865 203.326 387.167 204.076L389.099 205.192C390.215 205.831 391.153 207.265 391.385 208.613Z" fill="white"/>
<path d="M384.16 220.374C383.966 220.262 383.728 220.262 383.535 220.374L364.221 231.525C364.027 231.637 363.909 231.842 363.909 232.066V250.392C363.909 250.615 364.027 250.821 364.221 250.933C364.318 250.989 364.426 251.017 364.533 251.017C364.641 251.017 364.749 250.989 364.846 250.933L384.16 239.781C384.353 239.669 384.472 239.464 384.472 239.24V220.915C384.472 220.691 384.353 220.485 384.16 220.374ZM373.961 236.688L365.794 232.059L382.13 222.628L373.961 236.688ZM371.12 236.514L365.159 247.859V233.137L371.12 236.514ZM372.208 237.132L373.883 238.081C373.981 238.136 374.087 238.161 374.19 238.161C374.406 238.161 374.615 238.05 374.732 237.851L376.616 234.608L382.716 239.172L366.093 248.77L372.208 237.132ZM377.247 233.52L383.224 223.233V237.992L377.247 233.52Z" fill="#FAFAFA"/>
<path d="M341.906 237.867C341.906 236.358 340.847 234.523 339.54 233.769L337.613 232.657C336.306 231.902 334.188 231.902 332.881 232.657L303.333 249.747C302.026 250.502 300.967 252.337 300.967 253.846V286.358C300.967 287.867 302.027 289.702 303.333 290.456L305.26 291.568C306.567 292.323 308.685 292.323 309.992 291.568L339.54 274.478C340.847 273.723 341.906 271.888 341.906 270.379V237.867Z" fill="#006F7E"/>
<path opacity="0.2" d="M300.967 286.357C300.967 287.866 302.026 289.701 303.333 290.455L305.26 291.567C306.441 292.249 308.279 292.309 309.588 291.758C308.475 292.179 307.627 291.551 307.627 290.201V257.69C307.627 256.935 307.892 256.099 308.32 255.358L301.661 251.513C301.233 252.255 300.968 253.091 300.968 253.845V286.357H300.967Z" fill="black"/>
<path opacity="0.3" d="M341.829 237.196C341.553 236.191 340.637 235.871 339.545 236.5L309.991 253.594C309.34 253.969 308.744 254.61 308.325 255.361L301.667 251.52C302.097 250.768 302.683 250.128 303.334 249.753L332.876 232.659C334.19 231.908 336.31 231.908 337.613 232.659L339.545 233.775C340.659 234.414 341.597 235.848 341.829 237.196Z" fill="white"/>
<path d="M334.644 255.76L325.288 261.162C324.168 261.809 323.256 263.738 323.256 265.463V272.23C323.256 273.955 324.167 274.832 325.288 274.185L330.249 271.321L333.711 274.943C333.814 275.051 333.954 275.057 334.096 274.976C334.181 274.927 334.266 274.847 334.344 274.738C334.554 274.447 334.665 274.018 334.615 273.689L333.931 269.194L334.644 268.783C335.764 268.136 336.676 266.207 336.676 264.482V257.715C336.676 255.99 335.764 255.113 334.644 255.76ZM335.617 265.432C335.617 266.257 335.181 267.18 334.644 267.49L333.275 268.281C333.114 268.374 332.963 268.573 332.862 268.822C332.762 269.072 332.723 269.346 332.757 269.568L333.181 272.018L330.861 269.93C330.761 269.826 330.622 269.814 330.476 269.898L325.288 272.894C324.752 273.203 324.316 272.784 324.316 271.959V264.853C324.316 264.028 324.752 263.105 325.288 262.796L334.644 257.393C335.18 257.084 335.617 257.503 335.617 258.328V265.432ZM322.082 267.499L321.908 267.599C321.796 267.664 321.686 267.783 321.596 267.937L317.076 275.636L317.342 271.283C317.391 271.008 317.36 270.757 317.261 270.608C317.161 270.458 317.004 270.427 316.835 270.524L315.553 271.268C314.89 271.649 314.352 271.131 314.352 270.113V259.912C314.352 258.893 314.891 257.753 315.553 257.37L330.541 248.717C331.203 248.334 331.742 248.853 331.742 249.872V255.471C331.742 255.922 331.979 256.149 332.273 255.981C332.565 255.812 332.803 255.31 332.803 254.859V249.26C332.803 247.342 331.789 246.366 330.542 247.085L315.554 255.739C314.307 256.458 313.293 258.605 313.293 260.524V270.724C313.293 272.644 314.306 273.62 315.554 272.899L316.124 272.567L316.03 277.641C315.964 278.015 316.044 278.331 316.23 278.427C316.323 278.474 316.429 278.461 316.537 278.399C316.647 278.335 316.757 278.22 316.85 278.061L322.082 269.129L322.083 269.128C322.376 268.959 322.614 268.457 322.614 268.006C322.612 267.559 322.375 267.33 322.082 267.499Z" fill="#FAFAFA"/>
<path d="M292.253 266.513C292.253 265.004 291.194 263.169 289.887 262.415L287.96 261.303C286.653 260.548 284.535 260.548 283.228 261.303L253.68 278.392C252.373 279.147 251.314 280.982 251.314 282.491V315.003C251.314 316.512 252.374 318.347 253.68 319.101L255.607 320.213C256.914 320.968 259.032 320.968 260.34 320.213L289.889 303.123C291.195 302.368 292.255 300.533 292.255 299.024L292.253 266.513Z" fill="#006F7E"/>
<path opacity="0.2" d="M251.314 315.003C251.314 316.512 252.373 318.347 253.68 319.101L255.607 320.213C256.788 320.895 258.626 320.955 259.935 320.404C258.822 320.825 257.974 320.196 257.974 318.847V286.336C257.974 285.581 258.239 284.745 258.667 284.004L252.008 280.159C251.58 280.901 251.315 281.737 251.315 282.491V315.003H251.314Z" fill="black"/>
<path opacity="0.3" d="M292.176 265.842C291.9 264.837 290.984 264.517 289.892 265.146L260.338 282.24C259.687 282.615 259.091 283.256 258.67 284.007L252.013 280.166C252.443 279.414 253.029 278.774 253.68 278.399L283.223 261.305C284.536 260.554 286.656 260.554 287.959 261.305L289.891 262.421C291.006 263.06 291.944 264.494 292.176 265.842Z" fill="white"/>
<path d="M279.484 304.614C279.432 304.614 279.38 304.613 279.327 304.609C272.769 304.047 268.141 299.589 265.573 291.362C264.668 288.466 265.582 284.954 267.899 282.416C268.424 281.842 268.948 281.559 269.499 281.554C269.502 281.554 269.505 281.554 269.509 281.554C270.949 281.554 273.37 285.58 273.427 287.177C273.473 288.452 272.91 289.479 272.38 290.341C271.647 291.531 271.499 292.574 271.898 293.725C272.681 295.984 273.967 297.191 275.829 297.417C276.312 297.472 276.741 297.009 277.078 296.03C277.649 294.371 278.349 293.393 279.222 293.038C279.808 292.799 280.438 292.847 281.096 293.179L281.393 293.327C281.897 293.576 282.417 293.834 282.919 294.167C283.004 294.224 283.092 294.275 283.18 294.328C284.115 294.887 284.915 295.574 284.463 297.806C283.981 300.177 282.289 303.466 280.629 304.397C280.564 304.433 280.493 304.458 280.42 304.47C280.379 304.477 280.327 304.49 280.268 304.503C280.069 304.548 279.784 304.614 279.484 304.614ZM269.465 282.798C269.335 282.804 269.09 282.965 268.823 283.258C266.798 285.474 265.991 288.509 266.765 290.99C269.203 298.793 273.347 302.841 279.434 303.363C279.59 303.376 279.818 303.324 279.984 303.285C280.023 303.277 280.059 303.267 280.095 303.26C281.257 302.524 282.792 299.752 283.238 297.557C283.553 296.007 283.149 295.765 282.536 295.398C282.433 295.337 282.329 295.274 282.229 295.207C281.792 294.918 281.329 294.689 280.838 294.446L280.534 294.294C280.099 294.073 279.843 294.13 279.693 294.194C279.342 294.337 278.808 294.842 278.259 296.436C277.567 298.446 276.463 298.758 275.68 298.657C273.329 298.372 271.659 296.85 270.718 294.133C270.191 292.616 270.382 291.203 271.317 289.685C271.79 288.916 272.213 288.148 272.18 287.221C272.135 285.985 270.075 282.98 269.465 282.798Z" fill="#FAFAFA"/>
<path d="M381.061 25.9555L253.752 99.3618C252.168 100.275 250.886 102.497 250.886 104.325V251.533C250.886 253.361 252.172 255.578 253.758 256.486L255.547 257.509C257.133 258.416 259.702 258.412 261.285 257.498L388.596 183.976C390.179 183.062 391.462 180.839 391.462 179.011V31.923C391.462 30.0948 390.177 27.8772 388.589 26.9697L386.801 25.9467C385.214 25.0381 382.645 25.0414 381.061 25.9555Z" fill="#E0E0E0"/>
<path d="M391.462 179.215C391.462 181.735 389.694 183.341 387.501 184.601L262.381 256.847C260.201 258.107 258.42 257.089 258.42 254.558V109.88C258.42 107.062 259.923 104.458 262.363 103.048L387.498 30.7659C389.26 29.7484 391.464 31.02 391.464 33.055V179.215H391.462Z" fill="#FAFAFA"/>
<path d="M388.816 31.5105C389.558 31.5105 390.359 32.1012 390.359 33.0538V179.215C390.359 180.925 389.308 182.291 386.949 183.646L261.83 255.893C261.385 256.149 260.965 256.286 260.615 256.286C259.666 256.286 259.524 255.204 259.524 254.559V109.88C259.524 107.463 260.824 105.212 262.917 104.004L388.051 31.7217C388.291 31.5809 388.55 31.5105 388.816 31.5105ZM388.816 30.4072C388.376 30.4072 387.924 30.5194 387.498 30.7658L262.363 103.048C259.923 104.457 258.42 107.062 258.42 109.88V254.559C258.42 256.355 259.315 257.389 260.614 257.389C261.147 257.389 261.747 257.215 262.381 256.849L387.501 184.603C389.694 183.344 391.463 181.736 391.463 179.217V33.0538C391.463 31.5105 390.196 30.4072 388.816 30.4072Z" fill="#E0E0E0"/>
<path d="M391.465 31.9251V33.0504C391.465 31.0209 389.258 29.7515 387.493 30.7668L262.362 103.051C261.138 103.746 260.156 104.749 259.482 105.931C259.46 105.964 259.449 105.986 259.438 106.019L251.693 101.551C252.222 100.635 252.939 99.8292 253.757 99.3661L381.061 25.9554C382.649 25.0402 385.22 25.0402 386.797 25.9444L388.585 26.9707C390.173 27.876 391.465 30.0936 391.465 31.9251Z" fill="#F0F0F0"/>
<path d="M295.84 100.149C295.594 100.29 295.389 100.462 295.222 100.663C295.056 100.866 294.921 101.085 294.815 101.323C294.711 101.561 294.634 101.812 294.583 102.072C294.533 102.335 294.496 102.602 294.474 102.869C294.461 103.023 294.451 103.227 294.447 103.485C294.444 103.743 294.441 104.007 294.441 104.279C294.441 104.552 294.446 104.816 294.452 105.073C294.46 105.331 294.466 105.529 294.473 105.668C294.488 105.916 294.522 106.14 294.577 106.343C294.631 106.544 294.71 106.706 294.814 106.822C294.919 106.939 295.056 107.003 295.226 107.009C295.395 107.017 295.599 106.951 295.837 106.813C296.025 106.706 296.202 106.57 296.367 106.409C296.534 106.246 296.678 106.056 296.801 105.841C296.923 105.627 297.021 105.38 297.093 105.106C297.165 104.83 297.201 104.527 297.201 104.194L296.293 104.719C296.214 104.764 296.144 104.761 296.087 104.705C296.029 104.65 296.001 104.561 296.001 104.439V102.672C296.001 102.551 296.029 102.429 296.087 102.306C296.144 102.184 296.214 102.098 296.293 102.053L298.912 100.541C298.992 100.495 299.059 100.501 299.119 100.556C299.176 100.612 299.204 100.701 299.204 100.823V102.955C299.204 103.666 299.119 104.354 298.944 105.022C298.771 105.688 298.533 106.306 298.231 106.876C297.927 107.445 297.572 107.952 297.164 108.399C296.757 108.846 296.315 109.207 295.838 109.481C295.318 109.781 294.855 109.929 294.447 109.925C294.04 109.922 293.691 109.799 293.403 109.554C293.114 109.31 292.892 108.957 292.738 108.496C292.584 108.038 292.496 107.506 292.472 106.909C292.458 106.461 292.45 105.977 292.45 105.455C292.45 104.934 292.458 104.43 292.472 103.944C292.487 103.324 292.574 102.694 292.732 102.053C292.89 101.411 293.113 100.803 293.398 100.227C293.682 99.6513 294.031 99.1255 294.441 98.6492C294.853 98.1718 295.317 97.7846 295.838 97.4854C296.343 97.1928 296.798 97.0454 297.201 97.0388C297.605 97.0333 297.948 97.1246 298.23 97.3116C298.51 97.4997 298.73 97.7549 298.89 98.0805C299.047 98.4061 299.134 98.7526 299.149 99.1211C299.157 99.2168 299.135 99.3158 299.084 99.4181C299.034 99.5193 298.977 99.5886 298.912 99.626L297.473 100.457C297.364 100.52 297.281 100.518 297.219 100.453C297.156 100.389 297.098 100.323 297.041 100.257C296.939 100.116 296.802 100.011 296.629 99.9439C296.456 99.8768 296.192 99.945 295.84 100.149Z" fill="url(#paint6_linear_66_1151)"/>
<path d="M301.986 102.381C301.986 102.637 302.016 102.831 302.079 102.961C302.14 103.093 302.216 103.182 302.311 103.227C302.404 103.272 302.51 103.282 302.624 103.254C302.74 103.227 302.852 103.18 302.96 103.118C303.177 102.993 303.349 102.861 303.475 102.721C303.6 102.583 303.707 102.426 303.792 102.255C303.872 102.109 303.93 102.012 303.965 101.962C304.002 101.915 304.063 101.864 304.15 101.815L305.557 101.002C305.714 100.911 305.795 100.988 305.795 101.231C305.795 101.365 305.741 101.598 305.633 101.933C305.525 102.266 305.357 102.642 305.13 103.057C304.902 103.47 304.608 103.888 304.247 104.307C303.886 104.728 303.457 105.081 302.959 105.368C302.49 105.639 302.073 105.776 301.709 105.78C301.344 105.786 301.038 105.665 300.788 105.421C300.54 105.176 300.352 104.811 300.226 104.33C300.1 103.847 300.037 103.256 300.037 102.555C300.037 101.911 300.1 101.277 300.226 100.654C300.352 100.032 300.54 99.4488 300.788 98.9043C301.038 98.3609 301.344 97.8703 301.709 97.4325C302.073 96.9947 302.49 96.6405 302.959 96.3699C303.486 96.0663 303.936 95.942 304.306 96.0003C304.677 96.0586 304.981 96.2357 305.216 96.5327C305.45 96.8308 305.62 97.2191 305.725 97.6965C305.829 98.1761 305.88 98.6821 305.88 99.2145V99.6809C305.88 99.803 305.853 99.9251 305.795 100.047C305.736 100.169 305.668 100.254 305.589 100.3L301.986 102.381ZM302.96 98.6205C302.658 98.7943 302.426 99.0682 302.268 99.4378C302.108 99.8074 302.014 100.171 301.986 100.532L303.934 99.4081C303.906 99.0803 303.811 98.8229 303.653 98.637C303.494 98.45 303.263 98.4445 302.96 98.6205Z" fill="url(#paint7_linear_66_1151)"/>
<path d="M309.41 98.0958C309.41 98.351 309.447 98.527 309.518 98.6249C309.59 98.7228 309.708 98.7228 309.875 98.6271L310.74 98.1277C310.82 98.0815 310.889 98.0859 310.947 98.142C311.004 98.1981 311.034 98.2861 311.034 98.4082V100.091C311.034 100.213 311.004 100.335 310.947 100.459C310.889 100.581 310.82 100.664 310.74 100.71L309.713 101.304C309.373 101.499 309.065 101.603 308.788 101.614C308.508 101.623 308.274 101.544 308.078 101.373C307.883 101.201 307.731 100.946 307.623 100.602C307.515 100.259 307.461 99.8327 307.461 99.3212V96.5217L306.659 96.9837C306.58 97.0299 306.511 97.0266 306.453 96.9705C306.395 96.9144 306.368 96.8253 306.368 96.7032V95.018C306.368 94.8981 306.395 94.7749 306.453 94.6528C306.511 94.5307 306.58 94.4449 306.659 94.3998L307.461 93.9378V91.223C307.461 91.1009 307.488 90.9777 307.548 90.8567C307.605 90.7346 307.673 90.6499 307.754 90.6037L309.117 89.8172C309.197 89.7699 309.265 89.7765 309.322 89.8326C309.379 89.8865 309.409 89.9756 309.409 90.0977V92.8136L310.631 92.1074C310.712 92.0623 310.779 92.0667 310.838 92.1217C310.895 92.1778 310.924 92.2669 310.924 92.389V94.0709C310.924 94.193 310.895 94.3151 310.838 94.4383C310.779 94.5615 310.712 94.6451 310.631 94.6902L309.409 95.3964V98.0958H309.41Z" fill="url(#paint8_linear_66_1151)"/>
<path d="M316.196 87.5303C316.196 87.6524 316.166 87.7734 316.109 87.8966C316.051 88.0187 315.982 88.1034 315.902 88.1485L314.538 88.9361C314.458 88.9812 314.391 88.9768 314.332 88.9218C314.274 88.8657 314.246 88.7766 314.246 88.6545V86.9726C314.246 86.8505 314.274 86.7284 314.332 86.6052C314.391 86.4831 314.458 86.3984 314.538 86.3533L315.902 85.5668C315.982 85.5217 316.051 85.525 316.109 85.58C316.166 85.6361 316.196 85.7241 316.196 85.8462V87.5303ZM316.196 97.1102C316.196 97.2323 316.166 97.3544 316.109 97.4765C316.051 97.5986 315.982 97.6833 315.902 97.7284L314.538 98.516C314.458 98.5611 314.391 98.5567 314.332 98.5017C314.274 98.4456 314.246 98.3565 314.246 98.2344V90.4706C314.246 90.3485 314.274 90.2264 314.332 90.1032C314.391 89.9811 314.458 89.8964 314.538 89.8513L315.902 89.0648C315.982 89.0197 316.051 89.023 316.109 89.0791C316.166 89.1352 316.196 89.2243 316.196 89.3442V97.1102Z" fill="url(#paint9_linear_66_1151)"/>
<path d="M323.22 93.0545C323.22 93.1766 323.19 93.2987 323.133 93.4219C323.074 93.544 323.006 93.6287 322.928 93.6738L321.564 94.4603C321.484 94.5065 321.416 94.5021 321.357 94.446C321.3 94.391 321.272 94.3019 321.272 94.1798V89.9647C321.272 89.4873 321.196 89.1484 321.044 88.946C320.892 88.7458 320.654 88.7392 320.33 88.9273C320.005 89.1143 319.768 89.3948 319.62 89.7677C319.473 90.1417 319.399 90.5696 319.399 91.0459V95.2611C319.399 95.3832 319.37 95.5053 319.312 95.6274C319.254 95.7495 319.185 95.8342 319.106 95.8793L317.743 96.6669C317.662 96.7131 317.595 96.7076 317.536 96.6526C317.479 96.5965 317.45 96.5074 317.45 96.3853V88.6215C317.45 88.4994 317.479 88.3774 317.536 88.2541C317.595 88.1321 317.662 88.0473 317.743 88.0022L319.052 87.2465C319.131 87.2003 319.199 87.2048 319.258 87.2609C319.316 87.317 319.344 87.406 319.344 87.527V87.9109C319.403 87.7668 319.474 87.6073 319.56 87.4346C319.647 87.263 319.751 87.0947 319.876 86.9286C319.997 86.7647 320.14 86.6041 320.302 86.449C320.464 86.2939 320.653 86.1542 320.871 86.0288C321.217 85.8286 321.534 85.7208 321.823 85.7043C322.112 85.6867 322.358 85.7747 322.564 85.9672C322.771 86.1597 322.931 86.4611 323.045 86.8725C323.161 87.2817 323.219 87.8174 323.219 88.4719V93.0545H323.22Z" fill="url(#paint10_linear_66_1151)"/>
<path d="M329.096 86.7309C329.096 86.9861 329.131 87.1621 329.204 87.26C329.275 87.3579 329.394 87.3579 329.56 87.2622L330.426 86.7628C330.506 86.7177 330.574 86.721 330.633 86.7771C330.69 86.8332 330.719 86.9212 330.719 87.0433V88.7263C330.719 88.8484 330.69 88.9705 330.633 89.0937C330.574 89.2158 330.506 89.2994 330.426 89.3456L329.398 89.9396C329.058 90.1343 328.75 90.2377 328.473 90.2487C328.195 90.2586 327.957 90.1794 327.763 90.0078C327.569 89.8373 327.416 89.581 327.308 89.2367C327.199 88.8946 327.146 88.4678 327.146 87.9563V85.1568L326.345 85.6188C326.266 85.6639 326.196 85.6617 326.139 85.6056C326.081 85.5495 326.053 85.4604 326.053 85.3383V83.6542C326.053 83.5343 326.081 83.4122 326.139 83.289C326.196 83.1669 326.266 83.0822 326.345 83.036L327.146 82.574V79.8592C327.146 79.7371 327.174 79.615 327.232 79.4929C327.291 79.3708 327.359 79.2861 327.439 79.2399L328.801 78.4534C328.882 78.4072 328.949 78.4127 329.008 78.4688C329.065 78.5227 329.095 78.6118 329.095 78.7339V81.4487L330.317 80.7425C330.397 80.6974 330.464 80.7018 330.524 80.7568C330.581 80.8129 330.609 80.902 330.609 81.0241V82.706C330.609 82.8281 330.581 82.9513 330.524 83.0734C330.464 83.1966 330.397 83.2802 330.317 83.3253L329.095 84.0315V86.7309H329.096Z" fill="url(#paint11_linear_66_1151)"/>
<path d="M337.286 80.4179C337.294 80.5807 337.297 80.7919 337.297 81.0537C337.297 81.3144 337.293 81.5311 337.286 81.7005C337.272 82.2439 337.193 82.7895 337.048 83.3384C336.905 83.8873 336.706 84.4098 336.454 84.9059C336.201 85.402 335.896 85.853 335.539 86.2578C335.182 86.6637 334.783 86.9959 334.343 87.2489C333.902 87.5041 333.503 87.6328 333.146 87.6383C332.79 87.646 332.485 87.5459 332.233 87.3413C331.98 87.1367 331.782 86.8441 331.637 86.4613C331.493 86.0785 331.414 85.6242 331.399 85.0984C331.392 84.9367 331.388 84.7255 331.388 84.4637C331.388 84.2019 331.393 83.9863 331.399 83.8169C331.407 83.2801 331.482 82.7367 331.626 82.1856C331.77 81.6356 331.971 81.1109 332.226 80.6148C332.483 80.1165 332.79 79.6611 333.146 79.2508C333.503 78.8383 333.902 78.5061 334.343 78.2509C334.783 77.9979 335.181 77.8692 335.539 77.8692C335.896 77.867 336.202 77.9682 336.459 78.1706C336.716 78.373 336.913 78.6667 337.053 79.0517C337.194 79.4378 337.272 79.8943 337.286 80.4179ZM333.347 83.8917C333.37 84.2998 333.468 84.5737 333.647 84.7112C333.823 84.8476 334.056 84.8333 334.344 84.6672C334.633 84.4989 334.865 84.2459 335.041 83.9038C335.217 83.5639 335.317 83.1756 335.339 82.7411C335.354 82.5662 335.361 82.3726 335.361 82.1625C335.361 81.9513 335.354 81.7665 335.339 81.6081C335.317 81.1989 335.218 80.9261 335.041 80.7897C334.865 80.6533 334.633 80.6676 334.344 80.8348C334.056 81.0009 333.823 81.2539 333.647 81.5949C333.469 81.9359 333.37 82.3242 333.347 82.7587C333.333 82.9336 333.326 83.1272 333.326 83.3384C333.326 83.5485 333.333 83.7333 333.347 83.8917Z" fill="url(#paint12_linear_66_1151)"/>
<path d="M338.25 76.6129C338.25 76.4919 338.279 76.3698 338.336 76.2466C338.393 76.1245 338.462 76.0398 338.542 75.9936L339.906 75.2071C339.985 75.162 340.053 75.1664 340.111 75.2225C340.169 75.2786 340.197 75.3677 340.197 75.4876V79.7028C340.197 80.1824 340.266 80.5244 340.404 80.7345C340.54 80.9446 340.768 80.9579 341.086 80.7742C341.402 80.5905 341.628 80.3165 341.762 79.9503C341.896 79.584 341.962 79.1637 341.962 78.6852V74.47C341.962 74.349 341.991 74.2269 342.048 74.1037C342.107 73.9805 342.175 73.897 342.254 73.8519L343.618 73.0642C343.697 73.018 343.766 73.0224 343.824 73.0785C343.882 73.1346 343.909 73.2238 343.909 73.3459V81.1086C343.909 81.2307 343.882 81.3539 343.824 81.476C343.766 81.5981 343.697 81.6827 343.618 81.7278L342.363 82.4528C342.283 82.4979 342.214 82.4946 342.157 82.4385C342.099 82.3835 342.07 82.2944 342.07 82.1723V81.7883C342.012 81.9434 341.943 82.1041 341.859 82.268C341.778 82.4319 341.673 82.5979 341.551 82.7629C341.429 82.9279 341.287 83.0875 341.124 83.2426C340.962 83.3977 340.769 83.5407 340.546 83.6694C339.846 84.0731 339.288 84.0885 338.874 83.7167C338.459 83.346 338.252 82.5045 338.252 81.1944V76.6129H338.25Z" fill="url(#paint13_linear_66_1151)"/>
<path d="M346.884 74.9257C346.871 75.1017 346.863 75.3008 346.863 75.523C346.863 75.7452 346.871 75.9333 346.884 76.0928C346.907 76.48 347.004 76.7462 347.178 76.8892C347.35 77.0344 347.581 77.0245 347.87 76.8573C348.108 76.7198 348.291 76.5614 348.417 76.3832C348.543 76.205 348.646 75.9982 348.725 75.7628C348.762 75.6528 348.803 75.5516 348.85 75.4581C348.896 75.3646 348.96 75.2942 349.039 75.2491L350.456 74.4296C350.536 74.3845 350.606 74.3878 350.667 74.4406C350.728 74.4945 350.755 74.5847 350.747 74.7112C350.739 74.8927 350.693 75.1809 350.607 75.5747C350.521 75.9696 350.368 76.3986 350.152 76.8617C349.935 77.3259 349.644 77.789 349.276 78.251C348.907 78.713 348.438 79.109 347.868 79.439C347.465 79.6722 347.087 79.8009 346.739 79.8251C346.388 79.8504 346.081 79.7712 345.818 79.5897C345.556 79.4082 345.346 79.1277 345.191 78.7449C345.036 78.3621 344.951 77.8814 344.937 77.3006C344.929 77.1378 344.927 76.9178 344.927 76.6406C344.927 76.3623 344.93 76.139 344.937 75.9674C344.951 75.3701 345.036 74.7915 345.191 74.2283C345.346 73.6673 345.556 73.1437 345.818 72.6586C346.081 72.1735 346.388 71.7401 346.739 71.3606C347.089 70.9822 347.466 70.6753 347.868 70.4421C348.438 70.1121 348.907 69.9669 349.276 70.0043C349.645 70.0417 349.935 70.1671 350.152 70.3816C350.368 70.595 350.521 70.848 350.607 71.1428C350.693 71.4387 350.741 71.6719 350.747 71.8457C350.755 71.9634 350.727 72.0844 350.667 72.2087C350.605 72.333 350.535 72.4188 350.456 72.4639L349.039 73.2823C348.959 73.3285 348.896 73.3296 348.85 73.2911C348.803 73.2515 348.762 73.1976 348.725 73.1305C348.646 72.9875 348.543 72.8995 348.417 72.8665C348.291 72.8357 348.108 72.8874 347.87 73.0249C347.581 73.1921 347.351 73.4473 347.178 73.7916C347.005 74.1359 346.907 74.5143 346.884 74.9257Z" fill="url(#paint14_linear_66_1151)"/>
<path d="M357.447 73.2942C357.447 73.4163 357.42 73.5395 357.361 73.6594C357.303 73.7826 357.235 73.8662 357.156 73.9124L355.792 74.7C355.713 74.7462 355.644 74.7407 355.587 74.6846C355.53 74.6296 355.501 74.5405 355.501 74.4184V70.2021C355.501 69.7247 355.424 69.3848 355.275 69.1835C355.123 68.9822 354.885 68.9767 354.561 69.1626C354.236 69.3496 353.999 69.6312 353.851 70.0041C353.703 70.3792 353.629 70.8049 353.629 71.2812V75.4964C353.629 75.6185 353.601 75.7417 353.542 75.8638C353.485 75.9859 353.416 76.0706 353.338 76.1168L351.974 76.9033C351.894 76.9484 351.826 76.944 351.768 76.8879C351.711 76.834 351.682 76.7449 351.682 76.6228V65.6932C351.682 65.5711 351.711 65.449 351.768 65.3258C351.826 65.2037 351.894 65.119 351.974 65.0739L353.338 64.2874C353.417 64.2412 353.486 64.2456 353.542 64.3017C353.601 64.3567 353.629 64.4447 353.629 64.5668V68.1165C353.751 67.8118 353.944 67.4763 354.202 67.1111C354.462 66.7437 354.761 66.4632 355.101 66.2674C355.446 66.0683 355.764 65.9583 356.052 65.9429C356.342 65.9253 356.588 66.0144 356.794 66.2058C357 66.3972 357.16 66.6997 357.275 67.1111C357.391 67.5214 357.447 68.0549 357.447 68.7094V73.2942Z" fill="url(#paint15_linear_66_1151)"/>
<path d="M270.676 143.326L380.653 79.8291V89.5982L270.677 153.093L270.676 143.326Z" fill="#B0D3C4"/>
<path d="M271 172.496L380.977 109V118.769L271.001 182.264L271 172.496Z" fill="#AED0C2"/>
<path d="M270.676 201.938L380.653 138.442V172.631L270.677 236.127L270.676 201.938Z" fill="#B6DDCD"/>
<path d="M232.595 75.2598L105.286 148.666C103.702 149.579 102.42 151.801 102.42 153.629V436.424C102.42 438.252 103.706 440.47 105.293 441.377L107.082 442.401C108.668 443.309 111.237 443.304 112.82 442.39L240.13 368.867C241.713 367.953 242.997 365.73 242.997 363.903V81.2273C242.997 79.3991 241.711 77.1815 240.123 76.274L238.335 75.251C236.749 74.3424 234.179 74.3468 232.595 75.2598Z" fill="#002E4C"/>
<path d="M242.997 364.108C242.997 366.628 241.228 368.234 239.035 369.493L113.915 441.739C111.735 443 109.954 441.981 109.954 439.449V159.184C109.954 156.366 111.456 153.761 113.897 152.352L239.032 80.0701C240.794 79.0526 242.998 80.3242 242.998 82.3592L242.997 364.108Z" fill="#FAFAFA"/>
<path d="M240.35 80.8147C241.092 80.8147 241.893 81.4054 241.893 82.358V364.107C241.893 365.816 240.842 367.182 238.483 368.537L113.363 440.783C112.918 441.039 112.499 441.176 112.148 441.176C111.199 441.176 111.057 440.095 111.057 439.449V159.184C111.057 156.768 112.356 154.516 114.449 153.308L239.584 81.0259C239.825 80.8862 240.083 80.8147 240.35 80.8147ZM240.349 79.7114C239.909 79.7114 239.457 79.8236 239.031 80.07L113.896 152.352C111.456 153.761 109.953 156.366 109.953 159.184V439.45C109.953 441.246 110.848 442.28 112.147 442.28C112.68 442.28 113.28 442.106 113.914 441.74L239.034 369.494C241.227 368.235 242.995 366.628 242.995 364.108V82.3591C242.997 80.8158 241.73 79.7114 240.349 79.7114Z" fill="#E0E0E0"/>
<path d="M242.999 81.2296V82.3549C242.999 80.3254 240.792 79.056 239.028 80.0713L113.896 152.357C112.672 153.052 111.69 154.056 111.016 155.237C110.994 155.27 110.983 155.292 110.972 155.325L103.227 150.856C103.756 149.941 104.474 149.135 105.29 148.672L232.595 75.261C234.183 74.3458 236.754 74.3458 238.331 75.25L240.119 76.2763C241.707 77.1805 242.999 79.3981 242.999 81.2296Z" fill="#002E4C"/>
<path d="M134.391 156.352C134.366 156.324 134.353 156.261 134.353 156.164V155.24L132.909 156.075C132.829 156.12 132.79 156.079 132.79 155.947V155.615C132.79 155.541 132.794 155.479 132.803 155.433C132.813 155.388 132.829 155.327 132.854 155.255L134.389 151.061C134.417 150.985 134.441 150.932 134.463 150.899C134.484 150.863 134.517 150.834 134.563 150.807L134.764 150.692C134.825 150.656 134.869 150.654 134.896 150.687C134.923 150.719 134.937 150.789 134.937 150.891V154.117L135.256 153.932C135.318 153.897 135.359 153.895 135.384 153.926C135.408 153.96 135.42 154.026 135.42 154.128V154.348C135.42 154.446 135.408 154.522 135.384 154.579C135.359 154.636 135.318 154.684 135.256 154.718L134.937 154.903V155.826C134.937 155.923 134.925 156.001 134.898 156.059C134.872 156.116 134.827 156.164 134.764 156.202L134.522 156.34C134.461 156.378 134.418 156.381 134.391 156.352ZM134.449 154.399V152.099L133.4 155.005L134.449 154.399Z" fill="#455A64"/>
<path d="M136.109 154.803C135.825 154.469 135.684 153.84 135.684 152.916C135.684 151.998 135.826 151.206 136.11 150.542C136.393 149.878 136.793 149.398 137.306 149.102C137.513 148.982 137.706 148.908 137.886 148.881C138.065 148.853 138.214 148.875 138.333 148.946C138.36 148.962 138.373 148.99 138.373 149.028C138.373 149.054 138.368 149.09 138.356 149.134L138.224 149.616C138.205 149.675 138.188 149.711 138.169 149.722C138.159 149.726 138.139 149.724 138.109 149.715C137.903 149.629 137.656 149.669 137.371 149.833C137.025 150.033 136.752 150.363 136.555 150.826C136.358 151.29 136.259 151.874 136.259 152.582C136.259 153.296 136.355 153.771 136.547 154.004C136.738 154.239 137.002 154.26 137.335 154.068C137.457 153.997 137.575 153.913 137.69 153.81C137.806 153.708 137.9 153.604 137.973 153.497V151.998L137.371 152.344C137.31 152.38 137.268 152.381 137.244 152.35C137.218 152.318 137.206 152.252 137.206 152.148V151.937C137.206 151.835 137.218 151.757 137.244 151.702C137.268 151.647 137.31 151.603 137.371 151.566L138.333 151.011C138.399 150.972 138.447 150.975 138.477 151.014C138.507 151.054 138.521 151.134 138.521 151.253V153.392C138.521 153.473 138.516 153.536 138.507 153.583C138.498 153.629 138.478 153.676 138.448 153.727C138.169 154.202 137.788 154.577 137.309 154.855C136.789 155.155 136.39 155.137 136.109 154.803Z" fill="#455A64"/>
<path d="M148.283 147.434C148.283 148.146 147.908 148.941 147.445 149.208C146.982 149.475 146.607 149.114 146.607 148.402C146.607 147.689 146.982 146.893 147.445 146.626C147.908 146.36 148.283 146.721 148.283 147.434Z" fill="#455A64"/>
<path d="M147.445 144.514C146.6 145.002 145.867 146.156 145.495 147.441C145.42 147.702 145.457 147.951 145.584 148.03L145.585 148.031C145.743 148.13 145.979 147.924 146.072 147.595C146.332 146.686 146.851 145.872 147.444 145.529C148.039 145.184 148.557 145.401 148.816 146.01C148.91 146.233 149.146 146.168 149.305 145.883L149.306 145.881C149.432 145.656 149.469 145.365 149.394 145.191C149.024 144.333 148.29 144.027 147.445 144.514Z" fill="#455A64"/>
<path d="M147.445 142.447C146.19 143.172 145.084 144.821 144.452 146.709C144.358 146.986 144.385 147.267 144.521 147.352L144.523 147.353C144.677 147.451 144.9 147.26 145.004 146.944C145.517 145.402 146.419 144.053 147.446 143.461C148.472 142.868 149.378 143.173 149.891 144.124C149.996 144.317 150.218 144.254 150.371 143.979C150.506 143.737 150.534 143.426 150.441 143.256C149.811 142.097 148.703 141.721 147.445 142.447Z" fill="#455A64"/>
<path d="M175.836 128.879C175.877 128.855 175.912 128.858 175.942 128.886C175.971 128.915 175.986 128.96 175.986 129.022V129.859C175.986 129.922 175.971 129.986 175.942 130.047C175.912 130.111 175.877 130.152 175.836 130.177L175.32 130.474C175.279 130.497 175.244 130.496 175.215 130.466C175.186 130.439 175.171 130.393 175.171 130.331V129.494C175.171 129.43 175.186 129.369 175.215 129.306C175.244 129.244 175.279 129.201 175.32 129.177L175.836 128.879ZM175.836 131.868C175.877 131.844 175.912 131.847 175.942 131.874C175.971 131.904 175.986 131.949 175.986 132.011V132.848C175.986 132.911 175.971 132.973 175.942 133.036C175.912 133.1 175.877 133.142 175.836 133.165L175.32 133.463C175.279 133.486 175.244 133.485 175.215 133.455C175.186 133.428 175.171 133.381 175.171 133.32V132.483C175.171 132.419 175.186 132.357 175.215 132.295C175.244 132.233 175.279 132.189 175.32 132.166L175.836 131.868Z" fill="#455A64"/>
<path d="M178.799 131.455C178.759 131.478 178.724 131.477 178.694 131.448C178.664 131.42 178.65 131.373 178.65 131.311V130.277L176.931 131.269C176.89 131.292 176.855 131.291 176.825 131.263C176.795 131.234 176.78 131.189 176.78 131.126V130.52C176.78 130.44 176.792 130.364 176.816 130.29C176.841 130.216 176.869 130.136 176.902 130.049L178.6 125.807C178.674 125.622 178.75 125.506 178.827 125.462L179.249 125.219C179.29 125.196 179.325 125.198 179.355 125.227C179.385 125.256 179.398 125.301 179.398 125.363V128.779L179.875 128.503C179.915 128.48 179.951 128.482 179.981 128.511C180.011 128.539 180.025 128.585 180.025 128.647V129.254C180.025 129.316 180.011 129.38 179.981 129.442C179.951 129.505 179.916 129.548 179.875 129.571L179.398 129.847V130.881C179.398 130.943 179.384 131.006 179.355 131.068C179.325 131.132 179.29 131.174 179.249 131.198L178.799 131.455ZM178.649 129.21V127.382L177.699 129.757L178.649 129.21Z" fill="#455A64"/>
<path d="M173.105 134.721C173.064 134.744 173.029 134.743 172.999 134.713C172.969 134.686 172.955 134.639 172.955 134.577V133.543L171.236 134.535C171.195 134.558 171.16 134.557 171.13 134.528C171.101 134.5 171.085 134.455 171.085 134.392V133.786C171.085 133.706 171.097 133.63 171.121 133.556C171.147 133.482 171.175 133.402 171.207 133.315L172.906 129.072C172.979 128.888 173.055 128.772 173.132 128.728L173.555 128.485C173.595 128.462 173.631 128.464 173.66 128.493C173.69 128.521 173.703 128.566 173.703 128.629V132.045L174.181 131.768C174.22 131.745 174.256 131.748 174.286 131.776C174.316 131.805 174.33 131.851 174.33 131.913V132.52C174.33 132.581 174.316 132.645 174.286 132.708C174.256 132.771 174.221 132.813 174.181 132.837L173.703 133.113V134.147C173.703 134.208 173.689 134.272 173.66 134.334C173.631 134.397 173.595 134.439 173.555 134.463L173.105 134.721ZM172.955 132.476V130.648L172.006 133.022L172.955 132.476Z" fill="#455A64"/>
<path d="M181.027 124.422C181.027 124.359 181.042 124.297 181.072 124.234C181.102 124.17 181.136 124.128 181.178 124.104L183.262 122.9C183.304 122.876 183.338 122.878 183.368 122.907C183.397 122.936 183.413 122.981 183.413 123.043V123.651C183.413 123.712 183.397 123.776 183.368 123.838C183.338 123.901 183.303 123.943 183.262 123.967L181.705 124.866L181.644 125.995C181.743 125.875 181.842 125.779 181.941 125.712C182.039 125.645 182.119 125.591 182.182 125.555C182.389 125.436 182.581 125.368 182.758 125.35C182.935 125.333 183.091 125.37 183.219 125.463C183.348 125.557 183.45 125.704 183.524 125.907C183.599 126.108 183.635 126.369 183.635 126.688C183.635 127.052 183.598 127.385 183.522 127.689C183.446 127.992 183.342 128.265 183.21 128.508C183.08 128.751 182.926 128.964 182.747 129.142C182.57 129.322 182.381 129.469 182.182 129.584C181.926 129.731 181.708 129.813 181.525 129.827C181.342 129.841 181.19 129.805 181.07 129.718C180.95 129.631 180.859 129.504 180.798 129.338C180.737 129.17 180.702 128.978 180.696 128.761C180.69 128.695 180.706 128.631 180.737 128.571C180.768 128.509 180.804 128.469 180.844 128.444L181.294 128.186C181.331 128.164 181.365 128.163 181.393 128.183C181.423 128.204 181.443 128.241 181.455 128.297C181.477 128.416 181.512 128.503 181.56 128.557C181.608 128.612 181.664 128.645 181.727 128.658C181.79 128.67 181.86 128.662 181.938 128.635C182.015 128.607 182.097 128.568 182.182 128.519C182.393 128.397 182.563 128.212 182.691 127.96C182.821 127.709 182.886 127.43 182.886 127.123C182.886 126.867 182.821 126.69 182.691 126.595C182.561 126.499 182.393 126.508 182.182 126.624C182.071 126.688 181.983 126.752 181.919 126.815C181.854 126.879 181.801 126.939 181.761 126.997C181.721 127.054 181.684 127.106 181.65 127.15C181.617 127.195 181.574 127.232 181.522 127.262L181.012 127.557C180.972 127.58 180.936 127.579 180.906 127.55C180.876 127.522 180.862 127.476 180.862 127.414L181.027 124.422Z" fill="#455A64"/>
<path d="M118.435 166.253V164.473L119.976 163.583V165.363L118.435 166.253Z" fill="#455A64"/>
<path d="M120.747 164.918V161.358L122.288 160.469V164.028L120.747 164.918Z" fill="#455A64"/>
<path d="M123.059 163.583V158.243L124.601 157.354V162.693L123.059 163.583Z" fill="#455A64"/>
<path d="M125.372 162.246V155.127L126.914 154.237V161.357L125.372 162.246Z" fill="#455A64"/>
<path d="M233.637 93.964C233.474 93.7253 233.271 93.6604 233.065 93.7792L227.307 97.0902C226.933 97.3047 226.642 98.0736 226.642 98.8381V102.074C226.642 102.501 226.731 102.867 226.893 103.106C226.962 103.208 227.04 103.28 227.125 103.317C227.234 103.367 227.348 103.357 227.465 103.29L233.222 99.9799C233.595 99.7632 233.887 98.9965 233.887 98.2309V94.9958C233.887 94.569 233.798 94.2027 233.637 93.964ZM227.05 102.689C226.992 102.603 226.957 102.43 226.957 102.216V98.98C226.957 98.4157 227.19 97.8063 227.465 97.6479L233.222 94.3369C233.289 94.2984 233.353 94.2907 233.405 94.3138C233.433 94.327 233.458 94.3479 233.479 94.3798C233.539 94.4656 233.572 94.6394 233.572 94.8517V98.0868C233.572 98.6522 233.34 99.2627 233.065 99.42L227.307 102.731C227.202 102.794 227.109 102.778 227.05 102.689Z" fill="#455A64"/>
<path d="M228.557 97.5801V101.408L227.652 101.926C227.575 101.97 227.476 101.915 227.476 101.827V98.9804C227.476 98.5723 227.652 98.1092 227.851 97.9871L228.557 97.5801Z" fill="#455A64"/>
<path d="M228.976 97.3479L230.057 96.7188V100.548L228.976 101.165V97.3479Z" fill="#455A64"/>
<path d="M230.476 96.4876L231.558 95.8584V99.6974L230.476 100.316V96.4876Z" fill="#455A64"/>
<path d="M233.058 95.2511V98.0099C233.058 98.517 232.782 98.9922 232.341 99.2452L231.977 99.4553V95.6273L232.837 95.1312C232.937 95.0751 233.058 95.1411 233.058 95.2511Z" fill="#455A64"/>
<path d="M234.102 94.8922C234.261 94.7976 234.39 95.2596 234.39 95.924V96.5257C234.39 97.1901 234.259 97.8171 234.098 97.926L233.805 98.124L233.812 95.0638C233.812 95.0638 233.942 94.9868 234.102 94.8922Z" fill="#455A64"/>
<path d="M217.898 104.675L223.497 99.7061L221.769 106.989L220.954 103.959L217.898 104.675Z" fill="#455A64"/>
<path d="M121.106 173.83L211.19 121.819C212.684 120.957 213.895 121.657 213.895 123.381V131.787C213.895 133.511 212.684 135.61 211.19 136.473L121.106 188.483C119.612 189.345 118.4 188.646 118.4 186.921V178.516C118.4 176.79 119.611 174.692 121.106 173.83Z" fill="#006F7E"/>
<path d="M220.698 129.912C220.341 129.912 219.991 129.726 219.799 129.396C219.508 128.9 219.676 128.261 220.172 127.972L232.081 121.016C232.578 120.725 233.216 120.894 233.506 121.389C233.796 121.885 233.629 122.525 233.133 122.814L221.223 129.769C221.057 129.866 220.877 129.912 220.698 129.912Z" fill="#E0E0E0"/>
<path d="M220.698 124.777C220.341 124.777 219.991 124.591 219.799 124.261C219.508 123.765 219.676 123.126 220.172 122.837L232.081 115.882C232.578 115.591 233.216 115.76 233.506 116.255C233.796 116.751 233.629 117.39 233.133 117.679L221.223 124.634C221.057 124.731 220.877 124.777 220.698 124.777Z" fill="#E0E0E0"/>
<path d="M220.698 119.644C220.341 119.644 219.991 119.458 219.799 119.128C219.508 118.632 219.676 117.993 220.172 117.703L232.081 110.748C232.578 110.458 233.216 110.625 233.506 111.121C233.796 111.617 233.629 112.256 233.133 112.546L221.223 119.501C221.057 119.597 220.877 119.644 220.698 119.644Z" fill="#E0E0E0"/>
<path d="M109.957 379.229V439.56C109.957 441.992 111.669 442.974 113.761 441.762L151.5 419.97L155.164 417.858L184.304 401.032C184.474 395.546 184.614 390.881 184.714 387.468C184.844 383.513 184.914 381.221 184.914 381.221L109.957 379.229Z" fill="#455A64"/>
<path d="M227.15 298.172C227.482 297.131 227.698 294.625 227.787 293.535C228.401 286.028 232.291 279.373 236.453 273.288C237.165 272.245 237.891 271.211 238.62 270.18C238.973 269.678 239.348 269.188 239.631 268.651C239.899 268.14 240.145 267.717 240.863 267.861C241.369 267.962 241.776 268.34 242.079 268.758C243.086 270.143 243.187 272.014 242.818 273.686C242.45 275.358 241.666 276.904 241.017 278.488C240.519 279.702 241.969 279.333 242.628 279.057C245.86 277.701 249.105 273.184 251.137 270.404C252.47 268.579 253.462 266.513 255.066 264.891C256.051 263.893 257.281 263.085 258.662 262.835C259.599 262.665 260.517 262.832 260.611 264.017C260.669 264.755 260.323 265.456 260.044 266.143C259.469 267.556 258.973 268.828 259.598 270.323C259.99 271.263 260.578 272.145 260.716 273.155C260.894 274.44 260.317 275.718 260.353 277.014C260.385 278.169 261.044 279.128 261.189 280.215C261.345 281.379 260.59 282.985 260.193 284.059C259.246 286.626 257.902 289.035 256.32 291.262C253.917 294.646 250.983 297.616 247.932 300.428C246.262 301.967 244.45 303.583 243.545 305.718C242.627 307.889 242.158 310.101 241.677 312.412C241.085 315.254 240.566 318.111 239.959 320.95C233.643 351.713 230.485 353.452 226.479 358.041C224.062 360.809 217.073 363.429 207.579 353.626C197.059 342.763 176.903 314.55 176.903 314.55L172.691 276.973C172.691 276.973 176.437 277.976 181.184 279.333C185.605 280.594 190.27 285.043 193.412 290.011C199.928 300.315 216.742 327.073 216.742 327.073C216.742 327.073 225.872 302.179 227.15 298.172Z" fill="#FFBDA7"/>
<path d="M175.689 277.315C182.643 278.249 186.739 280.405 190.798 285.219C194.857 290.031 210.65 316.329 210.65 316.329C210.65 316.329 205.278 327.9 190.798 334.003L172.791 310.395L175.689 277.315Z" fill="#BA68C8"/>
<path opacity="0.15" d="M175.689 277.315C182.643 278.249 186.739 280.405 190.798 285.219C194.857 290.031 210.65 316.329 210.65 316.329C210.65 316.329 205.278 327.9 190.798 334.003L172.791 310.395L175.689 277.315Z" fill="#006F7E"/>
<path d="M216.742 327.073C213.027 334.653 211.986 343.895 211.986 343.895C211.986 343.895 209.931 332.232 214.505 323.514L216.742 327.073Z" fill="#F0997A"/>
<path d="M240.468 283.632C240.853 287.867 239.149 293.678 237.598 295.862C237.598 295.862 240.427 293.225 241.127 290.04C241.893 286.551 241.343 285 240.468 283.632Z" fill="#F0997A"/>
<path d="M186.174 387.765C171.605 398.103 123.931 401.55 109.957 392.312V325.032V281.737V280.621L111.028 280.396L124.693 277.523L132.1 275.961L133.982 275.561H133.992L140.579 274.179L157.786 275.18H157.796L162.972 275.48H162.981L163.482 275.51C163.482 275.51 169.468 276.231 175.684 277.312C175.914 277.512 176.124 277.732 176.355 277.973V277.983C180.66 282.638 184.383 294.53 185.435 307.163C185.835 311.987 186.125 319.235 186.345 327.414C186.345 327.414 186.355 327.924 186.355 328.175C186.996 353.081 186.174 387.765 186.174 387.765Z" fill="#006F7E"/>
<path d="M174.998 232.966C178.048 225.97 175.062 216.692 171.416 212.335C166.146 206.035 157.947 203.318 145.584 204.086C136.184 204.669 126.938 208.574 125.179 218.221C117.623 220.475 118.484 232.883 120.363 238.356C124.177 249.462 131.677 259.129 131.804 264.808L174.998 232.966Z" fill="#455A64"/>
<path d="M174.992 259.095C173.507 264.458 170.401 268.388 165.444 269.162C162.48 269.632 157.613 269.205 157.613 269.205L157.809 276.033C164.482 281.744 162.035 289.246 157.584 296.006C152.054 289.855 145.722 287.664 140.197 285.23C134.684 282.808 132.135 277.422 132.135 277.422L131.429 254.366C131.429 254.366 128.394 257.812 123.39 254.554C119.963 252.306 117.498 246.52 119.996 241.193C122.472 235.96 127.438 238.125 128.968 239.712C130.487 241.299 132.275 244.291 133.547 243.873C135.484 243.229 136.125 242.013 136.624 240.732C137.513 238.489 138.15 235.592 138.245 230.592C139.627 229.889 140.956 228.881 142.125 227.597C144.257 225.229 145.402 222.416 145.495 219.838C156.211 216.482 168.538 218.063 172.993 221.509C175.557 226.024 175.65 236.523 176.074 242.569C176.535 249.133 176.24 254.609 174.992 259.095Z" fill="#FFBDA7"/>
<path d="M157.613 269.201C152.129 268.892 141.098 266.331 138.16 263.269C135.222 260.206 133.972 253.944 133.972 253.944C133.972 253.944 134.413 261.855 136.684 265.345C138.954 268.836 144.694 270.358 148.178 271.224C151.661 272.091 157.715 272.671 157.715 272.671L157.613 269.201Z" fill="#F0997A"/>
<path d="M157.583 296.01C154.713 294.249 148.378 287.056 145.227 290.398C142.077 293.739 140.389 294.657 138.308 294.038C136.228 293.418 131.634 288.882 128.63 285.566C125.625 282.251 124.679 277.488 124.679 277.488C124.679 277.488 127.587 273.96 128.911 271.606C130.337 269.073 130.034 268.361 131.856 268.235L132.02 273.008C132.02 273.008 133.182 275.611 138.335 279.131C143.487 282.65 153.873 287.895 157.583 296.01Z" fill="#BA68C8"/>
<path opacity="0.15" d="M157.583 296.01C154.713 294.249 148.378 287.056 145.227 290.398C142.077 293.739 140.389 294.657 138.308 294.038C136.228 293.418 131.634 288.882 128.63 285.566C125.625 282.251 124.679 277.488 124.679 277.488C124.679 277.488 127.587 273.96 128.911 271.606C130.337 269.073 130.034 268.361 131.856 268.235L132.02 273.008C132.02 273.008 133.182 275.611 138.335 279.131C143.487 282.65 153.873 287.895 157.583 296.01Z" fill="#006F7E"/>
<path d="M157.583 296.01C159.291 294.451 162.07 287.167 162.813 287.385C163.909 287.706 165.868 292.716 166.813 291.554C168.315 289.704 167.858 281.257 165.363 278.186C162.963 275.233 159.547 271.855 157.682 271.529L157.814 276.034C157.814 276.034 159.686 279.681 159.663 283.297C159.645 285.853 157.937 293.558 157.583 296.01Z" fill="#BA68C8"/>
<path opacity="0.15" d="M157.583 296.01C159.291 294.451 162.07 287.167 162.813 287.385C163.909 287.706 165.868 292.716 166.813 291.554C168.315 289.704 167.858 281.257 165.363 278.186C162.963 275.233 159.547 271.855 157.682 271.529L157.814 276.034C157.814 276.034 159.686 279.681 159.663 283.297C159.645 285.853 157.937 293.558 157.583 296.01Z" fill="black"/>
<path d="M154.145 239.062C154.148 240.335 153.16 241.365 151.935 241.367C150.711 241.368 149.715 240.336 149.711 239.064C149.708 237.792 150.697 236.761 151.921 236.76C153.145 236.759 154.141 237.789 154.145 239.062Z" fill="#263238"/>
<path d="M151.041 231.97L146.552 235.001C145.733 233.706 146.076 231.978 147.315 231.141C148.555 230.305 150.223 230.675 151.041 231.97Z" fill="#37474F"/>
<path d="M172.558 234.05L167.633 231.695C168.237 230.299 169.83 229.697 171.19 230.347C172.549 230.997 173.162 232.654 172.558 234.05Z" fill="#37474F"/>
<path d="M170.899 238.924C170.904 240.195 169.914 241.227 168.689 241.227C167.465 241.227 166.47 240.196 166.465 238.925C166.461 237.653 167.451 236.621 168.675 236.62C169.899 236.62 170.896 237.651 170.899 238.924Z" fill="#263238"/>
<path d="M159.237 234.291L160.841 250.233L169.396 247.652L159.237 234.291Z" fill="#F0997A"/>
<path d="M154.132 253.946L163.308 255.976C162.801 258.595 160.336 260.265 157.8 259.705C155.267 259.144 153.624 256.566 154.132 253.946Z" fill="#B16668"/>
<path d="M157.802 259.706C157.994 259.748 158.184 259.754 158.376 259.772C158.317 257.455 156.424 255.611 154.109 255.611C154.392 257.579 155.813 259.264 157.802 259.706Z" fill="#F28F8F"/>
<path d="M113.321 316.914L109.957 325.032V281.738V280.621C109.957 280.621 119.478 298.856 113.321 316.914Z" fill="#BA68C8"/>
<path opacity="0.15" d="M113.321 316.914L109.957 325.032V281.738V280.621C109.957 280.621 119.478 298.856 113.321 316.914Z" fill="black"/>
<path d="M176.295 247.199C176.295 247.199 179.363 248.138 182.241 249.962C185.121 251.786 185.223 255.009 184.061 257.075L181.794 256.629C181.794 256.629 182.96 253.973 181.597 252.554C180.234 251.133 176.258 249.905 176.258 249.905L176.295 247.199Z" fill="#263238"/>
<path d="M183.115 255.606C181.278 254.714 180.398 255.861 179.099 258.975C177.801 262.089 178.693 262.946 180.271 263.561C181.85 264.176 183.061 263.142 184.03 260.564C185.122 257.664 185.095 256.567 183.115 255.606Z" fill="#BA68C8"/>
<path opacity="0.1" d="M183.115 255.606C181.277 254.714 180.398 255.861 179.099 258.975C177.801 262.089 178.693 262.946 180.271 263.561C181.85 264.176 183.061 263.142 184.031 260.564C185.122 257.664 185.095 256.567 183.115 255.606Z" fill="#002E4C"/>
<path d="M129.898 207.93C124.416 213.005 119.152 220.212 123.052 236.876C120.699 238.968 119.7 242.57 120.786 246.277C122.293 251.423 127.233 254.808 131.819 253.837C136.404 252.867 138.899 247.907 137.392 242.761C136.265 238.911 132.128 235.184 128.729 235.429C128.729 235.429 125.476 228.3 128.528 218.204C132.691 204.438 148.735 203.299 155.799 204.411C153.425 201.027 137.143 201.223 129.898 207.93Z" fill="#263238"/>
<path d="M138.376 242.513C136.705 236.81 131.232 233.059 126.15 234.135C125.353 234.305 124.615 234.584 123.941 234.957C123.371 235.273 121.64 236.463 121.303 236.687C118.06 238.831 116.565 243.248 117.898 247.8C119.569 253.503 125.042 257.254 130.123 256.178C131.089 255.973 131.968 255.606 132.749 255.109C133.16 254.847 134.776 253.769 135.175 253.489C138.276 251.295 139.681 246.969 138.376 242.513Z" fill="#BA68C8"/>
<path opacity="0.3" d="M138.376 242.513C136.705 236.81 131.232 233.059 126.15 234.135C125.353 234.305 124.615 234.584 123.941 234.957C123.371 235.273 121.64 236.463 121.303 236.687C118.06 238.831 116.565 243.248 117.898 247.8C119.569 253.503 125.042 257.254 130.123 256.178C131.089 255.973 131.968 255.606 132.749 255.109C133.16 254.847 134.776 253.769 135.175 253.489C138.276 251.295 139.681 246.969 138.376 242.513Z" fill="black"/>
<path d="M136.299 243.904C134.629 238.202 129.155 234.452 124.073 235.528C118.991 236.604 116.226 242.098 117.897 247.802C119.568 253.504 125.04 257.255 130.122 256.179C135.204 255.102 137.97 249.607 136.299 243.904Z" fill="#BA68C8"/>
<path opacity="0.1" d="M136.299 243.904C134.629 238.202 129.155 234.452 124.073 235.528C118.991 236.604 116.226 242.098 117.897 247.802C119.568 253.504 125.04 257.255 130.122 256.179C135.204 255.102 137.97 249.607 136.299 243.904Z" fill="#002E4C"/>
<path d="M131.441 244.932C130.653 242.241 128.07 240.471 125.672 240.979C123.274 241.486 121.968 244.08 122.757 246.772C123.544 249.463 126.128 251.233 128.526 250.725C130.924 250.218 132.229 247.624 131.441 244.932Z" fill="#37474F"/>
<path d="M194.997 181.563C194.745 181.709 194.534 181.885 194.362 182.093C194.192 182.301 194.051 182.526 193.943 182.772C193.836 183.016 193.755 183.273 193.703 183.545C193.652 183.814 193.615 184.088 193.592 184.364C193.578 184.522 193.567 184.733 193.565 184.998C193.561 185.263 193.559 185.536 193.559 185.816C193.559 186.097 193.563 186.37 193.569 186.635C193.578 186.899 193.585 187.102 193.592 187.248C193.608 187.503 193.642 187.733 193.698 187.942C193.754 188.15 193.835 188.313 193.943 188.434C194.051 188.555 194.192 188.62 194.367 188.627C194.54 188.635 194.752 188.569 194.996 188.427C195.189 188.316 195.371 188.176 195.543 188.008C195.713 187.84 195.862 187.647 195.988 187.425C196.115 187.202 196.215 186.951 196.288 186.668C196.363 186.384 196.401 186.071 196.401 185.728L195.464 186.267C195.383 186.315 195.312 186.311 195.253 186.253C195.193 186.196 195.163 186.106 195.163 185.979V184.161C195.163 184.034 195.193 183.909 195.253 183.781C195.313 183.657 195.383 183.57 195.464 183.522L198.162 181.965C198.243 181.919 198.313 181.922 198.373 181.98C198.433 182.038 198.462 182.13 198.462 182.255V184.45C198.462 185.184 198.373 185.892 198.196 186.579C198.018 187.264 197.772 187.902 197.46 188.487C197.147 189.075 196.782 189.596 196.363 190.056C195.942 190.517 195.488 190.886 194.997 191.17C194.462 191.479 193.985 191.631 193.565 191.629C193.146 191.624 192.786 191.498 192.49 191.246C192.193 190.994 191.964 190.631 191.805 190.156C191.645 189.683 191.554 189.137 191.531 188.52C191.517 188.062 191.509 187.562 191.509 187.024C191.509 186.487 191.517 185.968 191.531 185.468C191.545 184.829 191.635 184.18 191.799 183.519C191.962 182.859 192.19 182.233 192.483 181.64C192.778 181.047 193.136 180.506 193.559 180.014C193.983 179.523 194.461 179.124 194.996 178.815C195.516 178.516 195.985 178.362 196.401 178.356C196.817 178.35 197.169 178.443 197.459 178.636C197.749 178.828 197.975 179.094 198.137 179.428C198.301 179.761 198.392 180.121 198.406 180.5C198.414 180.599 198.392 180.701 198.339 180.805C198.287 180.908 198.228 180.981 198.161 181.019L196.678 181.875C196.567 181.94 196.48 181.938 196.416 181.872C196.353 181.807 196.292 181.738 196.232 181.669C196.128 181.522 195.987 181.415 195.809 181.348C195.633 181.281 195.362 181.354 194.997 181.563Z" fill="#455A64"/>
<path d="M201.327 183.863C201.327 184.126 201.358 184.325 201.423 184.46C201.486 184.594 201.565 184.686 201.663 184.733C201.76 184.781 201.866 184.79 201.986 184.76C202.104 184.733 202.22 184.686 202.331 184.622C202.555 184.493 202.731 184.357 202.861 184.214C202.992 184.071 203.101 183.909 203.19 183.733C203.272 183.581 203.331 183.482 203.368 183.433C203.405 183.383 203.468 183.333 203.558 183.28L205.007 182.444C205.171 182.35 205.252 182.428 205.252 182.68C205.252 182.817 205.196 183.059 205.084 183.403C204.973 183.748 204.801 184.132 204.567 184.561C204.333 184.987 204.03 185.417 203.657 185.849C203.288 186.281 202.844 186.644 202.332 186.941C201.849 187.219 201.42 187.362 201.045 187.365C200.67 187.372 200.353 187.247 200.098 186.996C199.84 186.744 199.648 186.369 199.517 185.871C199.386 185.375 199.322 184.765 199.322 184.045C199.322 183.382 199.387 182.729 199.517 182.087C199.648 181.447 199.84 180.845 200.098 180.286C200.353 179.726 200.669 179.22 201.045 178.77C201.419 178.319 201.848 177.954 202.332 177.675C202.874 177.362 203.336 177.235 203.72 177.294C204.103 177.354 204.415 177.537 204.655 177.842C204.896 178.149 205.072 178.549 205.18 179.041C205.287 179.534 205.341 180.056 205.341 180.603V181.084C205.341 181.21 205.313 181.336 205.252 181.461C205.192 181.587 205.122 181.673 205.041 181.72L201.327 183.863ZM202.331 179.99C202.019 180.17 201.781 180.449 201.618 180.83C201.454 181.21 201.356 181.587 201.327 181.956L203.334 180.799C203.304 180.463 203.207 180.196 203.045 180.005C202.881 179.815 202.643 179.809 202.331 179.99Z" fill="#455A64"/>
<path d="M208.971 179.448C208.971 179.712 209.01 179.894 209.084 179.994C209.157 180.094 209.28 180.095 209.452 179.996L210.344 179.481C210.424 179.434 210.497 179.439 210.555 179.496C210.615 179.554 210.644 179.645 210.644 179.772V181.503C210.644 181.63 210.615 181.755 210.555 181.882C210.496 182.007 210.424 182.094 210.344 182.141L209.286 182.752C208.936 182.954 208.618 183.061 208.333 183.071C208.046 183.081 207.803 182.998 207.603 182.822C207.402 182.648 207.247 182.382 207.134 182.03C207.022 181.676 206.967 181.236 206.967 180.711V177.827L206.142 178.304C206.061 178.351 205.989 178.346 205.931 178.29C205.872 178.232 205.842 178.141 205.842 178.014V176.282C205.842 176.156 205.872 176.03 205.931 175.903C205.99 175.779 206.062 175.692 206.142 175.644L206.967 175.168V172.371C206.967 172.245 206.996 172.119 207.056 171.994C207.116 171.867 207.186 171.783 207.267 171.734L208.671 170.923C208.752 170.876 208.823 170.881 208.882 170.938C208.943 170.995 208.971 171.087 208.971 171.212V174.009L210.231 173.282C210.312 173.236 210.384 173.239 210.443 173.296C210.503 173.354 210.531 173.447 210.531 173.571V175.305C210.531 175.431 210.503 175.557 210.443 175.682C210.383 175.807 210.312 175.893 210.231 175.942L208.971 176.67V179.448Z" fill="#455A64"/>
<path d="M215.96 168.568C215.96 168.695 215.93 168.82 215.871 168.946C215.811 169.072 215.74 169.159 215.659 169.205L214.255 170.016C214.172 170.062 214.102 170.059 214.043 170.001C213.984 169.943 213.954 169.853 213.954 169.727V167.993C213.954 167.867 213.984 167.741 214.043 167.616C214.103 167.49 214.173 167.405 214.255 167.356L215.659 166.546C215.741 166.498 215.812 166.503 215.871 166.56C215.93 166.617 215.96 166.709 215.96 166.834V168.568ZM215.96 178.434C215.96 178.561 215.93 178.686 215.871 178.813C215.811 178.938 215.74 179.025 215.659 179.072L214.255 179.883C214.172 179.929 214.102 179.926 214.043 179.869C213.984 179.81 213.954 179.72 213.954 179.594V171.598C213.954 171.471 213.984 171.346 214.043 171.219C214.103 171.094 214.173 171.007 214.255 170.96L215.659 170.149C215.741 170.103 215.812 170.106 215.871 170.163C215.93 170.222 215.96 170.314 215.96 170.438V178.434Z" fill="#455A64"/>
<path d="M223.192 174.259C223.192 174.385 223.164 174.511 223.103 174.638C223.044 174.762 222.973 174.849 222.892 174.897L221.488 175.707C221.406 175.756 221.336 175.75 221.276 175.693C221.215 175.636 221.187 175.545 221.187 175.418V171.077C221.187 170.586 221.109 170.236 220.954 170.028C220.797 169.821 220.552 169.814 220.218 170.006C219.883 170.2 219.64 170.489 219.488 170.874C219.336 171.26 219.26 171.698 219.26 172.19V176.531C219.26 176.658 219.231 176.782 219.172 176.909C219.112 177.034 219.041 177.12 218.959 177.167L217.556 177.978C217.474 178.025 217.403 178.021 217.343 177.963C217.284 177.905 217.255 177.814 217.255 177.687V169.691C217.255 169.567 217.284 169.441 217.343 169.314C217.404 169.189 217.474 169.103 217.556 169.055L218.904 168.276C218.986 168.23 219.056 168.233 219.116 168.29C219.175 168.348 219.205 168.441 219.205 168.565V168.961C219.264 168.811 219.339 168.649 219.428 168.472C219.517 168.293 219.624 168.12 219.75 167.949C219.877 167.78 220.024 167.615 220.192 167.455C220.36 167.296 220.554 167.153 220.777 167.024C221.133 166.817 221.46 166.706 221.759 166.688C222.056 166.672 222.31 166.762 222.522 166.96C222.733 167.158 222.9 167.469 223.018 167.892C223.136 168.314 223.197 168.863 223.197 169.54V174.259H223.192Z" fill="#455A64"/>
<path d="M192.479 206.306C192.479 206.569 192.516 206.751 192.591 206.852C192.665 206.952 192.788 206.952 192.96 206.854L193.852 206.34C193.933 206.293 194.005 206.296 194.063 206.355C194.122 206.413 194.152 206.503 194.152 206.63V208.362C194.152 208.489 194.122 208.613 194.063 208.739C194.004 208.866 193.932 208.952 193.852 208.998L192.793 209.61C192.444 209.811 192.126 209.919 191.841 209.929C191.554 209.938 191.311 209.856 191.111 209.68C190.909 209.505 190.754 209.24 190.641 208.887C190.53 208.534 190.474 208.094 190.474 207.568V204.685L189.65 205.161C189.568 205.207 189.497 205.204 189.439 205.147C189.379 205.09 189.35 204.998 189.35 204.872V203.138C189.35 203.014 189.379 202.887 189.439 202.761C189.498 202.636 189.57 202.55 189.65 202.501L190.474 202.025V199.228C190.474 199.102 190.503 198.976 190.564 198.85C190.623 198.725 190.694 198.639 190.775 198.592L192.179 197.781C192.26 197.734 192.332 197.737 192.39 197.796C192.45 197.852 192.479 197.944 192.479 198.069V200.867L193.739 200.139C193.82 200.091 193.89 200.097 193.951 200.153C194.01 200.211 194.039 200.304 194.039 200.429V202.161C194.039 202.288 194.009 202.413 193.951 202.54C193.89 202.664 193.82 202.751 193.739 202.799L192.479 203.527V206.306Z" fill="#455A64"/>
<path d="M200.915 199.806C200.923 199.974 200.927 200.192 200.927 200.46C200.927 200.729 200.922 200.952 200.915 201.127C200.901 201.685 200.819 202.247 200.671 202.814C200.521 203.38 200.319 203.919 200.057 204.428C199.797 204.939 199.484 205.403 199.116 205.822C198.748 206.24 198.338 206.579 197.884 206.841C197.43 207.102 197.021 207.237 196.651 207.244C196.284 207.251 195.97 207.149 195.711 206.937C195.45 206.728 195.246 206.426 195.097 206.031C194.949 205.637 194.867 205.169 194.853 204.627C194.845 204.46 194.842 204.244 194.842 203.974C194.842 203.705 194.846 203.482 194.853 203.306C194.861 202.754 194.938 202.193 195.087 201.627C195.236 201.06 195.441 200.521 195.705 200.01C195.968 199.497 196.285 199.028 196.652 198.605C197.021 198.181 197.431 197.838 197.886 197.576C198.339 197.315 198.749 197.184 199.118 197.183C199.485 197.182 199.801 197.285 200.065 197.493C200.328 197.703 200.533 198.004 200.677 198.401C200.82 198.796 200.901 199.267 200.915 199.806ZM196.859 203.383C196.881 203.806 196.984 204.085 197.165 204.226C197.348 204.368 197.587 204.352 197.884 204.18C198.181 204.008 198.421 203.747 198.603 203.395C198.784 203.046 198.887 202.645 198.91 202.198C198.923 202.017 198.932 201.819 198.932 201.601C198.932 201.384 198.923 201.194 198.91 201.03C198.887 200.608 198.784 200.329 198.603 200.188C198.421 200.047 198.18 200.061 197.884 200.233C197.587 200.406 197.348 200.666 197.165 201.017C196.984 201.368 196.881 201.767 196.859 202.215C196.844 202.397 196.836 202.596 196.836 202.811C196.836 203.03 196.844 203.222 196.859 203.383Z" fill="#455A64"/>
<path d="M201.907 195.887C201.907 195.763 201.937 195.636 201.996 195.51C202.056 195.384 202.127 195.299 202.207 195.25L203.612 194.44C203.695 194.392 203.764 194.398 203.823 194.454C203.883 194.512 203.912 194.603 203.912 194.73V199.069C203.912 199.563 203.983 199.915 204.124 200.131C204.264 200.348 204.499 200.361 204.827 200.173C205.153 199.985 205.384 199.702 205.523 199.325C205.659 198.947 205.729 198.514 205.729 198.021V193.681C205.729 193.555 205.758 193.43 205.819 193.302C205.878 193.177 205.947 193.091 206.029 193.044L207.434 192.233C207.515 192.186 207.586 192.189 207.645 192.247C207.704 192.306 207.735 192.397 207.735 192.521V200.517C207.735 200.644 207.704 200.77 207.645 200.897C207.585 201.021 207.514 201.108 207.434 201.156L206.141 201.902C206.06 201.949 205.988 201.945 205.93 201.888C205.869 201.83 205.84 201.739 205.84 201.613V201.219C205.78 201.378 205.708 201.542 205.623 201.713C205.538 201.883 205.432 202.053 205.306 202.223C205.18 202.394 205.033 202.556 204.866 202.717C204.699 202.877 204.5 203.022 204.27 203.156C203.549 203.572 202.975 203.589 202.548 203.207C202.121 202.825 201.907 201.958 201.907 200.608V195.887Z" fill="#455A64"/>
<path d="M210.8 194.151C210.786 194.33 210.779 194.535 210.779 194.763C210.779 194.993 210.786 195.188 210.8 195.351C210.823 195.75 210.923 196.025 211.101 196.172C211.279 196.322 211.517 196.308 211.814 196.137C212.059 195.996 212.247 195.834 212.377 195.65C212.508 195.465 212.612 195.254 212.695 195.01C212.731 194.898 212.774 194.794 212.822 194.697C212.87 194.6 212.936 194.528 213.017 194.48L214.478 193.638C214.559 193.59 214.631 193.596 214.695 193.65C214.758 193.705 214.786 193.797 214.778 193.928C214.769 194.116 214.722 194.411 214.632 194.818C214.544 195.225 214.387 195.667 214.164 196.145C213.941 196.622 213.641 197.099 213.262 197.575C212.883 198.052 212.4 198.458 211.813 198.798C211.396 199.039 211.009 199.171 210.648 199.196C210.287 199.22 209.971 199.14 209.701 198.953C209.43 198.766 209.214 198.475 209.055 198.082C208.894 197.688 208.807 197.192 208.793 196.596C208.785 196.427 208.782 196.202 208.782 195.916C208.782 195.63 208.787 195.399 208.793 195.223C208.807 194.607 208.894 194.012 209.055 193.433C209.214 192.854 209.43 192.315 209.701 191.816C209.972 191.317 210.288 190.871 210.648 190.478C211.007 190.089 211.396 189.773 211.813 189.532C212.399 189.193 212.883 189.043 213.262 189.08C213.641 189.12 213.941 189.25 214.164 189.47C214.387 189.691 214.544 189.951 214.632 190.254C214.722 190.556 214.769 190.799 214.778 190.978C214.786 191.098 214.757 191.223 214.695 191.351C214.631 191.479 214.559 191.566 214.478 191.614L213.017 192.456C212.936 192.505 212.87 192.507 212.822 192.465C212.774 192.424 212.731 192.369 212.695 192.299C212.612 192.152 212.507 192.06 212.377 192.027C212.247 191.994 212.06 192.048 211.814 192.189C211.516 192.361 211.279 192.625 211.101 192.979C210.923 193.337 210.823 193.727 210.8 194.151Z" fill="#455A64"/>
<path d="M221.677 192.469C221.677 192.596 221.648 192.721 221.588 192.848C221.529 192.973 221.459 193.059 221.377 193.107L219.974 193.918C219.891 193.965 219.821 193.96 219.761 193.904C219.701 193.845 219.672 193.754 219.672 193.628V189.288C219.672 188.796 219.594 188.447 219.439 188.239C219.283 188.031 219.037 188.024 218.703 188.217C218.369 188.41 218.126 188.698 217.974 189.085C217.822 189.471 217.745 189.908 217.745 190.4V194.741C217.745 194.867 217.716 194.992 217.657 195.118C217.598 195.245 217.526 195.33 217.445 195.378L216.041 196.188C215.96 196.236 215.888 196.232 215.829 196.174C215.769 196.116 215.741 196.026 215.741 195.899V184.643C215.741 184.517 215.769 184.392 215.829 184.265C215.889 184.141 215.96 184.054 216.041 184.006L217.445 183.195C217.526 183.149 217.598 183.153 217.657 183.209C217.716 183.268 217.745 183.359 217.745 183.484V187.14C217.873 186.825 218.068 186.481 218.336 186.102C218.603 185.725 218.911 185.436 219.261 185.235C219.617 185.029 219.944 184.918 220.243 184.899C220.54 184.883 220.794 184.974 221.006 185.171C221.218 185.37 221.384 185.681 221.503 186.104C221.62 186.527 221.681 187.075 221.681 187.75V192.469H221.677Z" fill="#455A64"/>
<path d="M224.954 186.888C224.954 187.014 224.925 187.14 224.865 187.265C224.806 187.392 224.734 187.478 224.653 187.526L223.249 188.336C223.168 188.383 223.098 188.379 223.038 188.321C222.978 188.264 222.949 188.171 222.949 188.047V180.651C222.949 180.526 222.979 180.4 223.038 180.275C223.099 180.147 223.168 180.062 223.249 180.014L224.653 179.203C224.734 179.156 224.806 179.16 224.865 179.219C224.925 179.276 224.954 179.367 224.954 179.494V186.888ZM224.954 190.577C224.954 190.704 224.925 190.829 224.865 190.956C224.806 191.081 224.734 191.168 224.653 191.215L223.249 192.026C223.168 192.072 223.098 192.069 223.038 192.012C222.978 191.953 222.949 191.863 222.949 191.737V190.003C222.949 189.876 222.979 189.752 223.038 189.626C223.098 189.499 223.168 189.414 223.249 189.366L224.653 188.555C224.734 188.508 224.806 188.512 224.865 188.57C224.925 188.628 224.954 188.719 224.954 188.846V190.577Z" fill="#455A64"/>
<path d="M187.207 230.332C186.711 230.332 186.248 230.074 185.984 229.625C185.648 229.057 185.734 228.361 186.194 227.892C188.243 225.806 189.522 222.87 190.096 218.93C183.208 217.521 179.113 211.556 179.113 202.878C179.113 187.522 191.62 167.808 206.995 158.931C215.183 154.205 222.983 153.283 228.394 156.407C232.877 158.995 235.345 164.161 235.345 170.952C235.345 186.308 222.837 206.022 207.461 214.899C205.317 216.136 203.166 217.129 201.061 217.854C197.378 226.041 191.716 229.13 187.599 230.277C187.467 230.315 187.335 230.332 187.207 230.332ZM207.461 159.741C192.344 168.469 180.046 187.822 180.046 202.88C180.046 211.375 183.929 216.92 190.698 218.095L191.139 218.171L191.081 218.614C190.513 222.985 189.132 226.235 186.859 228.546C186.662 228.747 186.692 228.99 186.787 229.151C186.832 229.227 187.013 229.476 187.348 229.377C191.302 228.276 196.758 225.284 200.29 217.288L200.374 217.1L200.568 217.034C202.676 216.325 204.838 215.335 206.995 214.09C222.113 205.361 234.412 186.009 234.412 170.951C234.412 164.506 232.11 159.628 227.929 157.214C222.814 154.262 215.355 155.182 207.461 159.741Z" fill="#BA68C8"/>
<path d="M355.319 436.186C354.888 437.397 354.823 439.882 355.21 440.7C355.64 441.607 358.351 444.594 363.872 445.68C369.393 446.765 376.991 445.65 380.253 445.482C383.516 445.312 393.787 446.535 397.048 446.977C402.172 447.67 406.118 446.548 408.029 444.69C408.778 443.961 408.836 442.901 408.799 441.989C408.709 439.827 408.506 439.391 408.255 438.34L355.319 436.186Z" fill="#263238"/>
<path d="M407.405 432.969C407.506 433.396 407.598 433.824 407.681 434.255C408.086 436.385 408.439 438.745 408.156 440.909C407.495 442.53 405.678 443.421 404.218 443.885C400.363 445.11 397.419 444.914 393.144 444.104C390.583 443.619 383.211 443.099 380.147 443.307C376.78 443.535 372.149 444.179 368.782 443.87C365.906 443.606 363.08 443.306 360.418 442.165C358.17 441.203 355.878 439.971 355.33 437.658C354.664 432.79 356.71 430.637 359.024 429.284C361.466 427.855 364.606 428.028 368.112 427.794C371.289 427.581 373.601 427.577 376.422 427.361C378.334 427.216 381.829 426.937 383.681 426.353C385.805 425.682 387.991 422.969 388.895 422.872C388.895 422.872 403.019 422.76 404.369 422.872C405.928 423.002 406.404 427.832 406.596 428.881C406.748 429.704 406.776 430.584 406.996 431.38C407.14 431.909 407.279 432.437 407.405 432.969Z" fill="#37474F"/>
<path d="M363.873 443.221C363.433 439.712 362.849 432.111 369.307 427.72L370.128 427.677C370.128 427.677 366.368 426.302 361.197 427.677C356.026 429.052 353.737 433.231 355.024 437.64C355.024 437.64 356.176 441.919 363.873 443.221Z" fill="#FAFAFA"/>
<path d="M382.723 426.61C380.633 428.459 379.91 432.671 379.91 432.671C379.639 434.248 376.778 434.483 377.053 432.964C377.053 432.964 377.691 429.582 379.525 427.093C379.525 427.093 380.892 426.265 382.723 426.61Z" fill="#FAFAFA"/>
<path d="M376.868 427.327C376.868 427.327 374.619 429.226 373.936 433.07C373.644 434.583 371.262 434.558 371.43 433.095C371.43 433.095 371.709 429.364 373.938 427.617C374.7 427.023 376.175 426.946 376.868 427.327Z" fill="#FAFAFA"/>
<path d="M413.886 391.145C413.68 393.627 413.347 395.859 414.36 398.589C415.814 402.508 418.888 404.303 420.693 405.848C422.498 407.394 424.261 409.86 425.952 411.91C427.72 414.054 428.187 415.359 430.855 417.716C433.201 419.79 437.359 420.293 440.308 419.044C442.616 418.066 443.416 417.281 443.273 413.744C443.133 410.29 431.861 409.004 431.861 409.004L413.886 391.145Z" fill="#263238"/>
<path d="M441.814 403.203C442.775 403.55 443.018 405.291 443.164 408.754C443.274 411.374 444.432 415.21 440.637 416.861C437.576 418.193 432.683 417.307 430.615 414.838C428.034 411.756 426.289 409.042 422.606 405.281C419.41 402.018 416.083 400.918 414.664 394.398C413.752 390.205 414.469 388.469 417.435 387.266C421.513 385.613 427.921 391.015 431.117 391.865C433.87 392.598 440.854 402.857 441.814 403.203Z" fill="#37474F"/>
<path d="M431.117 391.865C430.947 391.82 430.763 391.755 430.575 391.686C424.689 392.172 422.336 396.029 421.744 397.194C421.2 398.336 422.877 399.223 423.874 398.336C426.153 394.028 430.834 393.073 432.697 392.861C432.095 392.349 431.551 391.98 431.117 391.865Z" fill="#FAFAFA"/>
<path d="M433.755 393.838C428.318 394.532 426.122 398.175 425.552 399.3C425.008 400.441 426.685 401.329 427.682 400.441C429.488 397.025 432.813 395.716 435.041 395.214C434.601 394.724 434.17 394.256 433.755 393.838Z" fill="#FAFAFA"/>
<path d="M416.536 399.223C416.536 399.223 416.856 391.46 427.887 390.382L428.519 390.722C428.519 390.722 426.762 387.679 423.093 386.738C419.425 385.798 416.529 386.698 414.604 389.058C412.679 391.417 414.631 397.711 416.536 399.223Z" fill="#FAFAFA"/>
<path d="M445.583 348.28C444.508 336.172 444.397 328.143 444.397 328.143C444.397 328.143 444.392 310.554 444.837 293.926C445.083 284.681 444.92 278.408 445.069 271.104C445.286 260.467 444.101 251.629 443.152 246.917C443.152 246.917 386.546 235.658 385.837 256.427C384.988 281.314 385.09 323.867 384.134 340.12C383.598 349.247 384.517 356.806 385.09 374.539C385.565 389.24 385.422 425.43 385.422 425.43C391.657 433.988 406.375 427.457 406.375 427.457C406.375 427.457 410.926 376.666 411.591 366.159C412.306 354.873 411.114 349.152 411.114 349.152L416.952 296.557C416.952 296.557 417.394 313.431 417.899 322.56C418.403 331.689 419.152 338.743 421.277 355.761C423.496 373.532 427.089 405.715 427.089 405.715C434.629 410.2 443.416 406.608 443.416 406.608C443.416 406.608 446.721 361.108 445.583 348.28Z" fill="#BA68C8"/>
<path opacity="0.4" d="M445.583 348.28C444.508 336.172 444.397 328.143 444.397 328.143C444.397 328.143 444.392 310.554 444.837 293.926C445.083 284.681 444.92 278.408 445.069 271.104C445.286 260.467 444.101 251.629 443.152 246.917C443.152 246.917 386.546 235.658 385.837 256.427C384.988 281.314 385.09 323.867 384.134 340.12C383.598 349.247 384.517 356.806 385.09 374.539C385.565 389.24 385.422 425.43 385.422 425.43C391.657 433.988 406.375 427.457 406.375 427.457C406.375 427.457 410.926 376.666 411.591 366.159C412.306 354.873 411.114 349.152 411.114 349.152L416.952 296.557C416.952 296.557 417.394 313.431 417.899 322.56C418.403 331.689 419.152 338.743 421.277 355.761C423.496 373.532 427.089 405.715 427.089 405.715C434.629 410.2 443.416 406.608 443.416 406.608C443.416 406.608 446.721 361.108 445.583 348.28Z" fill="black"/>
<path opacity="0.25" d="M437.815 275.632C437.815 275.632 435.497 284.086 421.479 289.758C421.479 289.758 417.667 320.386 417.7 319.754L416.952 296.557L418.23 286.841C418.23 286.841 431.377 284.05 437.815 275.632Z" fill="black"/>
<path d="M436.802 172.49C442.454 172.518 447.548 174.16 452.053 188.214C456.556 202.269 460.456 220.63 460.826 225.165C461.309 231.065 460.997 233.61 456.45 237.891C451.904 242.171 439.99 252.331 439.99 252.331L436.031 235.516L445.206 225.167L436.802 172.49Z" fill="#BA68C8"/>
<path opacity="0.6" d="M436.802 172.49C442.454 172.518 447.548 174.16 452.053 188.214C456.556 202.269 460.456 220.63 460.826 225.165C461.309 231.065 460.997 233.61 456.45 237.891C451.904 242.171 439.99 252.331 439.99 252.331L436.031 235.516L445.206 225.167L436.802 172.49Z" fill="white"/>
<path d="M408.261 167.429L410.472 187.027L428.691 182.886L426.338 156.723L408.261 167.429Z" fill="#B16668"/>
<path d="M394.57 143.43C394.57 143.43 389.71 150.805 390.263 151.529C390.818 152.253 394.394 152.908 394.394 152.908L394.57 143.43Z" fill="#9A4A4D"/>
<path d="M396.723 147.789C393.688 147.789 391.217 145.32 391.217 142.283C391.217 139.248 393.687 136.777 396.723 136.777C399.759 136.777 402.228 139.248 402.228 142.283C402.227 145.32 399.758 147.789 396.723 147.789ZM396.723 138.002C394.362 138.002 392.442 139.921 392.442 142.283C392.442 144.643 394.362 146.565 396.723 146.565C399.084 146.565 401.004 144.643 401.004 142.283C401.003 139.922 399.083 138.002 396.723 138.002Z" fill="#263238"/>
<path d="M408.053 124.042C398.702 126.014 395.351 129.752 394.47 144.606C393.549 160.127 395.785 165.379 397.825 167.469C399.202 168.879 406.85 169.134 410.709 168.07C415.539 166.738 426.452 162.871 431.565 155.064C437.578 145.879 439.157 133.429 432.72 128.323C423.661 121.134 411.859 123.239 408.053 124.042Z" fill="#B16668"/>
<path d="M408.383 168.506L407.949 165.647C407.949 165.647 403.449 168.237 398.362 167.819C400.146 168.699 404.801 168.951 408.383 168.506Z" fill="#9A4A4D"/>
<path d="M392.165 141.286L408.79 143.438L408.12 144.606L392.165 142.535V141.286Z" fill="#263238"/>
<path d="M393.525 130.043C394.19 130.17 394.923 130.106 395.638 129.909C395.026 131.239 395.605 132.931 396.778 133.807C397.951 134.684 399.575 134.807 400.971 134.364C400.465 135.225 400.298 136.279 400.512 137.255C400.959 139.289 403.251 141.052 405.356 140.748C405.455 142.921 405.482 145.046 407.802 146.036C407.802 146.036 409.28 140.298 414.115 141.02C418.982 141.746 419.639 147.95 416.572 151.72C413.527 155.461 410.688 154.066 410.645 154.044C410.763 155.034 411.116 156.155 411.411 156.784C412.277 158.629 413.812 160.212 415.5 161.29C418.297 163.076 422.493 164.472 427.155 164.444C428.674 160.06 431.163 156.74 433.807 152.894C435.88 149.88 438.527 146.453 439.569 142.946C440.798 138.811 440.833 134.726 439.686 131.251C438.54 127.777 437.183 125.134 433.4 124.203C432.541 119.552 427.901 117.098 423.68 114.963C419.46 112.828 414.242 112.785 409.986 114.849C408.43 113.195 407.201 111.221 405.033 110.263C403.263 109.482 400.914 109.678 399.733 111.212C398.792 112.436 398.818 114.124 398.887 115.667C397.102 115.423 395.232 115.446 393.562 116.127C391.894 116.807 390.457 118.235 390.12 120.004C389.784 121.775 390.782 123.805 392.509 124.321C391.341 125.134 390.822 126.764 391.305 128.102C391.726 129.271 392.555 129.859 393.525 130.043Z" fill="#263238"/>
<path d="M407.702 149.308L407.873 142.815C406.08 142.768 404.589 144.182 404.54 145.975C404.493 147.768 405.909 149.26 407.702 149.308Z" fill="#263238"/>
<path d="M445.909 181.401C443.935 176.375 439.681 172.035 432.788 171.829C431.251 171.782 427.734 171.792 427.734 171.792C426.95 174.985 414.807 176.022 409.003 174.011C406.484 174.672 394.251 177.862 392.153 178.558C386.146 180.553 386.066 188.214 386.099 205.985C386.13 222.55 386.099 242.221 385.198 262.953C395.762 268.521 411.091 269.949 422.706 268.776C440.95 266.932 445.338 261.482 445.338 261.482C444.575 250.734 444.372 243.405 444.674 232.789C444.899 224.818 446.572 215.083 447.176 206.472C447.78 197.86 447.755 186.097 445.909 181.401Z" fill="#006F7E"/>
<path opacity="0.3" d="M445.909 181.401C443.935 176.375 439.681 172.035 432.788 171.829C431.251 171.782 427.734 171.792 427.734 171.792C426.95 174.985 414.807 176.022 409.003 174.011C406.484 174.672 394.251 177.862 392.153 178.558C386.146 180.553 386.066 188.214 386.099 205.985C386.13 222.55 386.099 242.221 385.198 262.953C395.762 268.521 411.091 269.949 422.706 268.776C440.95 266.932 445.338 261.482 445.338 261.482C444.575 250.734 444.372 243.405 444.674 232.789C444.899 224.818 446.572 215.083 447.176 206.472C447.78 197.86 447.755 186.097 445.909 181.401Z" fill="#006F7E"/>
<path d="M328.738 155.663C327.71 153.328 328.875 149.526 329.315 147.815C330.04 144.999 329.616 141.116 329.785 139.981C330.217 137.079 328.271 136.505 326.828 138.435C325.524 140.181 325.525 144.018 324.54 144.25C323.556 144.483 320.75 137.026 319.278 132.669C317.809 128.312 317.425 125.531 315.004 126.073C313.259 126.465 313.339 128.722 314.207 132.293C315.076 135.863 315.247 136.28 315.292 136.995C315.329 137.585 314.426 137.671 314.025 137.811C313.281 138.072 311.986 138.467 311.605 139.198C311.396 139.598 311.294 140.056 311.014 140.408C310.375 141.211 309.069 141.172 308.381 141.933C307.882 142.484 307.836 143.312 307.427 143.933C307.163 144.332 306.76 144.626 306.503 145.028C305.996 145.819 306.141 146.857 306.424 147.753C307.419 150.905 309.043 153.007 311.027 155.499C312.677 157.572 315.266 160.937 316.217 162.428C319.358 167.35 330.962 186.194 336.702 193.611C337.92 195.185 339.005 196.633 341.622 197.336C348.183 199.098 388.485 202.589 388.485 202.589C400.142 202.826 404.208 181.574 394.262 180.524C394.262 180.524 386.186 180.329 376.517 180.242C366.18 180.149 348.857 179.707 348.857 179.707C348.857 179.707 329.552 157.512 328.738 155.663Z" fill="#B16668"/>
<path d="M394.893 178.689C388.918 178.453 349.535 178.785 349.535 178.785L333.149 161.317C333.149 161.317 330.35 168.72 321.267 170.445C321.267 170.445 328.394 183.453 332.484 189.417C336.247 194.905 337.152 197.726 342.982 198.855C348.812 199.983 385.738 204.231 388.935 204.116C392.131 204.002 397.385 203.447 400.706 194.111C403.608 185.949 400.949 178.927 394.893 178.689Z" fill="#BA68C8"/>
<path opacity="0.6" d="M394.893 178.689C388.918 178.453 349.535 178.785 349.535 178.785L333.149 161.317C333.149 161.317 330.35 168.72 321.267 170.445C321.267 170.445 328.394 183.453 332.484 189.417C336.247 194.905 337.152 197.726 342.982 198.855C348.812 199.983 385.738 204.231 388.935 204.116C392.131 204.002 397.385 203.447 400.706 194.111C403.608 185.949 400.949 178.927 394.893 178.689Z" fill="white"/>
<defs>
<linearGradient id="paint0_linear_66_1151" x1="462.026" y1="118.45" x2="496.394" y2="90.2394" gradientUnits="userSpaceOnUse">
<stop offset="1.70489e-07" stop-color="#4EB9C4"/>
<stop offset="0.9926" stop-color="#06B584"/>
</linearGradient>
<linearGradient id="paint1_linear_66_1151" x1="462.026" y1="181.009" x2="496.394" y2="152.798" gradientUnits="userSpaceOnUse">
<stop offset="1.70489e-07" stop-color="#4EB9C4"/>
<stop offset="0.9926" stop-color="#06B584"/>
</linearGradient>
<linearGradient id="paint2_linear_66_1151" x1="32.3387" y1="445.136" x2="92.9285" y2="418.613" gradientUnits="userSpaceOnUse">
<stop offset="1.70489e-07" stop-color="#4EB9C4"/>
<stop offset="0.9926" stop-color="#06B584"/>
</linearGradient>
<linearGradient id="paint3_linear_66_1151" x1="32.3387" y1="445.136" x2="92.9285" y2="418.613" gradientUnits="userSpaceOnUse">
<stop offset="1.70489e-07" stop-color="#4EB9C4"/>
<stop offset="0.9926" stop-color="#06B584"/>
</linearGradient>
<linearGradient id="paint4_linear_66_1151" x1="30.8882" y1="445.28" x2="76.5811" y2="415.438" gradientUnits="userSpaceOnUse">
<stop offset="1.70489e-07" stop-color="#4EB9C4"/>
<stop offset="0.9926" stop-color="#06B584"/>
</linearGradient>
<linearGradient id="paint5_linear_66_1151" x1="460.59" y1="277.108" x2="479.836" y2="257.714" gradientUnits="userSpaceOnUse">
<stop offset="1.70489e-07" stop-color="#4EB9C4"/>
<stop offset="0.9926" stop-color="#06B584"/>
</linearGradient>
<linearGradient id="paint6_linear_66_1151" x1="292.45" y1="97.0386" x2="299.759" y2="100.463" gradientUnits="userSpaceOnUse">
<stop stop-color="#92FFC0"/>
<stop offset="1" stop-color="#002661"/>
</linearGradient>
<linearGradient id="paint7_linear_66_1151" x1="300.037" y1="95.9863" x2="306.041" y2="99.1883" gradientUnits="userSpaceOnUse">
<stop stop-color="#92FFC0"/>
<stop offset="1" stop-color="#002661"/>
</linearGradient>
<linearGradient id="paint8_linear_66_1151" x1="306.368" y1="89.7856" x2="311.844" y2="91.7171" gradientUnits="userSpaceOnUse">
<stop stop-color="#92FFC0"/>
<stop offset="1" stop-color="#002661"/>
</linearGradient>
<linearGradient id="paint9_linear_66_1151" x1="314.246" y1="85.5356" x2="316.774" y2="85.8745" gradientUnits="userSpaceOnUse">
<stop stop-color="#92FFC0"/>
<stop offset="1" stop-color="#002661"/>
</linearGradient>
<linearGradient id="paint10_linear_66_1151" x1="317.45" y1="85.7021" x2="323.691" y2="88.6295" gradientUnits="userSpaceOnUse">
<stop stop-color="#92FFC0"/>
<stop offset="1" stop-color="#002661"/>
</linearGradient>
<linearGradient id="paint11_linear_66_1151" x1="326.053" y1="78.4224" x2="331.53" y2="80.354" gradientUnits="userSpaceOnUse">
<stop stop-color="#92FFC0"/>
<stop offset="1" stop-color="#002661"/>
</linearGradient>
<linearGradient id="paint12_linear_66_1151" x1="331.388" y1="77.8691" x2="337.422" y2="81.132" gradientUnits="userSpaceOnUse">
<stop stop-color="#92FFC0"/>
<stop offset="1" stop-color="#002661"/>
</linearGradient>
<linearGradient id="paint13_linear_66_1151" x1="338.25" y1="73.0327" x2="344.405" y2="75.8763" gradientUnits="userSpaceOnUse">
<stop stop-color="#92FFC0"/>
<stop offset="1" stop-color="#002661"/>
</linearGradient>
<linearGradient id="paint14_linear_66_1151" x1="344.927" y1="69.9985" x2="350.928" y2="73.1752" gradientUnits="userSpaceOnUse">
<stop stop-color="#92FFC0"/>
<stop offset="1" stop-color="#002661"/>
</linearGradient>
<linearGradient id="paint15_linear_66_1151" x1="351.682" y1="64.2559" x2="358.211" y2="66.9101" gradientUnits="userSpaceOnUse">
<stop stop-color="#92FFC0"/>
<stop offset="1" stop-color="#002661"/>
</linearGradient>
</defs>
</svg>
