<svg width="510" height="392" viewBox="0 0 510 392" fill="none" xmlns="http://www.w3.org/2000/svg">
<path d="M73.6146 325.936H393.678C422.118 304.661 447.995 280.24 469.283 255.313C477.724 245.43 484.997 234.83 490.953 223.806C508.828 190.725 515.852 151.897 503.494 116.989C485.377 65.8163 432.925 37.6015 380.415 30.9073C352.764 27.3821 327.804 30.1934 301.044 38.8462C274.807 47.3293 247.983 54.8431 221.676 45.0662C194.077 34.8093 170.88 15.9354 143.061 6.20184C68.7333 -19.804 21.2217 50.7147 6.0898 114.458C5.13916 118.461 4.38681 122.481 3.62385 126.514C-10.3404 200.3 20.7713 274.408 73.6146 325.936Z" fill="#C2F0EF"/>
<path d="M429.405 175.95L411.977 178.281L428.27 152.236L396.154 189.831L399.292 127.364L392.605 166.821L379.279 142.042L390.981 176.41L387.826 195.023L355.299 152.236L371.861 181.556H353.554L374.284 185.844L381.732 199.03C384.642 204.182 386.174 210.023 386.174 215.969V327.332H395.403V214.678C395.403 208.211 397.216 201.878 400.627 196.426L407.571 185.326L429.405 175.95Z" fill="#4F2330"/>
<path d="M434.308 180.958C441.48 181.329 447.591 175.703 447.955 168.389C447.964 168.229 447.953 168.072 447.955 167.913C448.669 168.141 449.417 168.292 450.198 168.333C455.167 168.591 459.401 164.692 459.654 159.625C459.725 158.2 459.463 156.839 458.955 155.606C467.337 155.23 474.22 148.408 474.654 139.691C475.116 130.433 468.129 122.546 459.049 122.075C458.757 122.06 458.466 122.054 458.177 122.054C458.804 120.624 459.199 119.06 459.282 117.403C459.641 110.213 454.216 104.089 447.165 103.723C443.262 103.521 439.684 105.13 437.202 107.821C434.081 102.764 428.678 99.2826 422.381 98.9556C412.109 98.4231 403.359 106.481 402.837 116.954C402.793 117.833 402.813 118.698 402.885 119.551C398.905 119.751 395.642 122.998 395.436 127.142C395.323 129.403 396.145 131.488 397.551 133.019C394.902 135.266 393.136 138.582 392.947 142.369C392.589 149.558 398.014 155.682 405.065 156.048C405.879 156.091 406.678 156.046 407.457 155.937C407.439 156.034 407.41 156.127 407.394 156.225C406.242 162.997 410.692 169.439 417.334 170.613C419.023 170.912 420.691 170.838 422.259 170.454C423.445 176.199 428.287 180.646 434.308 180.958Z" fill="#4B806B"/>
<path d="M385.253 145.684C385.253 138.362 379.431 132.425 372.249 132.425C372.091 132.425 371.938 132.444 371.782 132.449C371.97 131.711 372.08 130.942 372.08 130.145C372.08 125.071 368.046 120.959 363.07 120.959C361.671 120.959 360.351 121.293 359.169 121.875C358.375 113.358 351.343 106.697 342.783 106.697C333.691 106.697 326.32 114.212 326.32 123.482C326.32 123.78 326.328 124.076 326.343 124.371C324.911 123.805 323.36 123.482 321.731 123.482C314.671 123.482 308.947 129.318 308.947 136.516C308.947 140.501 310.705 144.062 313.468 146.453C308.673 149.888 305.537 155.567 305.537 161.995C305.537 172.482 313.874 180.983 324.159 180.983C325.022 180.983 325.869 180.918 326.7 180.803C327.098 184.846 330.444 188.003 334.514 188.003C336.734 188.003 338.735 187.06 340.163 185.551C342.5 188.135 345.837 189.764 349.556 189.764C356.616 189.764 362.339 183.929 362.339 176.73C362.339 175.898 362.255 175.088 362.109 174.299C362.205 174.313 362.298 174.337 362.395 174.35C369.087 175.178 375.171 170.32 375.983 163.497C376.19 161.762 376.032 160.068 375.578 158.49C381.144 156.988 385.253 151.832 385.253 145.684Z" fill="#4B806B"/>
<path d="M425.111 105.931C425.111 98.6087 419.289 92.6724 412.107 92.6724C411.949 92.6724 411.796 92.6907 411.64 92.6965C411.827 91.9585 411.938 91.1889 411.938 90.3919C411.938 85.3183 407.905 81.2057 402.929 81.2057C401.528 81.2057 400.209 81.541 399.027 82.1218C398.233 73.6054 391.202 66.9436 382.641 66.9436C373.549 66.9436 366.178 74.4591 366.178 83.7292C366.178 84.0271 366.187 84.3232 366.202 84.6178C364.77 84.052 363.219 83.7292 361.59 83.7292C354.53 83.7292 348.807 89.5648 348.807 96.7633C348.807 100.748 350.565 104.309 353.327 106.7C348.532 110.135 345.396 115.814 345.396 122.242C345.396 132.729 353.734 141.23 364.018 141.23C364.881 141.23 365.728 141.165 366.559 141.05C366.957 145.093 370.303 148.25 374.373 148.25C376.593 148.25 378.594 147.307 380.023 145.798C382.359 148.382 385.696 150.011 389.415 150.011C396.475 150.011 402.198 144.176 402.198 136.977C402.198 136.145 402.114 135.335 401.968 134.546C402.064 134.56 402.157 134.584 402.255 134.597C408.946 135.426 415.03 130.567 415.843 123.744C416.049 122.009 415.892 120.315 415.437 118.738C421.002 117.235 425.111 112.079 425.111 105.931Z" fill="#4B806B"/>
<path d="M327.372 162.125C331.02 161.179 333.225 157.397 332.297 153.677C331.37 149.958 327.66 147.709 324.012 148.655C320.364 149.601 318.159 153.384 319.087 157.103C320.015 160.823 323.724 163.071 327.372 162.125Z" fill="#559179"/>
<path d="M366.115 102.861C369.852 102.402 372.517 98.9412 372.066 95.1306C371.616 91.32 368.221 88.6031 364.484 89.0621C360.747 89.5212 358.082 92.9824 358.532 96.793C358.983 100.604 362.377 103.32 366.115 102.861Z" fill="#559179"/>
<path d="M437.929 128.852C441.694 128.852 444.745 125.74 444.745 121.902C444.745 118.064 441.694 114.952 437.929 114.952C434.165 114.952 431.113 118.064 431.113 121.902C431.113 125.74 434.165 128.852 437.929 128.852Z" fill="#559179"/>
<path d="M323.107 139.953C325.447 139.953 327.343 138.02 327.343 135.634C327.343 133.249 325.447 131.315 323.107 131.315C320.768 131.315 318.872 133.249 318.872 135.634C318.872 138.02 320.768 139.953 323.107 139.953Z" fill="#559179"/>
<path d="M362.728 166.652C365.067 166.652 366.963 164.718 366.963 162.333C366.963 159.948 365.067 158.014 362.728 158.014C360.388 158.014 358.492 159.948 358.492 162.333C358.492 164.718 360.388 166.652 362.728 166.652Z" fill="#559179"/>
<path d="M385.253 103.249C387.593 103.249 389.489 101.316 389.489 98.9305C389.489 96.5452 387.593 94.6116 385.253 94.6116C382.914 94.6116 381.017 96.5452 381.017 98.9305C381.017 101.316 382.914 103.249 385.253 103.249Z" fill="#559179"/>
<path d="M419.126 115.333C421.466 115.333 423.362 113.4 423.362 111.014C423.362 108.629 421.466 106.696 419.126 106.696C416.787 106.696 414.89 108.629 414.89 111.014C414.89 113.4 416.787 115.333 419.126 115.333Z" fill="#559179"/>
<path d="M427.201 162.333C427.201 164.718 425.305 166.652 422.965 166.652C420.626 166.652 418.73 164.718 418.73 162.333C418.73 159.948 420.626 158.014 422.965 158.014C425.305 158.014 427.201 159.948 427.201 162.333Z" fill="#559179"/>
<path d="M356.003 181.556C356.003 182.935 354.907 184.053 353.554 184.053C352.202 184.053 351.105 182.935 351.105 181.556C351.105 180.178 352.201 179.06 353.554 179.06C354.907 179.06 356.003 180.177 356.003 181.556Z" fill="#81E6BB"/>
<path d="M362.503 127.363C362.503 128.742 361.406 129.86 360.054 129.86C358.702 129.86 357.605 128.743 357.605 127.363C357.605 125.985 358.702 124.866 360.054 124.866C361.407 124.867 362.503 125.985 362.503 127.363Z" fill="#559179"/>
<path d="M387.702 77.2761C387.702 78.6548 386.606 79.773 385.253 79.773C383.901 79.773 382.804 78.6556 382.804 77.2761C382.804 75.8967 383.901 74.7793 385.253 74.7793C386.605 74.7793 387.702 75.8975 387.702 77.2761Z" fill="#559179"/>
<path d="M451.816 155.384C451.816 156.762 450.72 157.88 449.367 157.88C448.015 157.88 446.918 156.762 446.918 155.384C446.918 154.005 448.015 152.887 449.367 152.887C450.719 152.887 451.816 154.005 451.816 155.384Z" fill="#559179"/>
<path d="M408.025 148.229C408.025 149.608 406.929 150.726 405.577 150.726C404.224 150.726 403.128 149.608 403.128 148.229C403.128 146.85 404.224 145.732 405.577 145.732C406.929 145.732 408.025 146.85 408.025 148.229Z" fill="#559179"/>
<path d="M316.987 163C316.987 164.379 315.89 165.497 314.538 165.497C313.186 165.497 312.089 164.38 312.089 163C312.089 161.621 313.186 160.504 314.538 160.504C315.89 160.504 316.987 161.622 316.987 163Z" fill="#81E6BB"/>
<path d="M472.851 328.507C472.851 331.148 375.316 333.289 255 333.289C134.684 333.289 37.1492 331.148 37.1492 328.507C37.1492 325.866 134.684 323.726 255 323.726C375.316 323.726 472.851 325.865 472.851 328.507Z" fill="#4B806B"/>
<path d="M201.828 46.4717L111.679 86.7563H122.708H123.437L127.613 84.8901L201.828 51.7266L276.041 84.8901L280.218 86.7563H291.976L201.828 46.4717Z" fill="white"/>
<path d="M276.041 84.8901L201.828 51.7266L127.613 84.8901L123.437 86.7563H122.708V242.24H280.218V86.7563L276.041 84.8901Z" fill="#64AA8E"/>
<path d="M201.828 42.0928L104.079 86.7562H111.679L201.828 46.4716V42.0928Z" fill="#4F2330"/>
<path d="M201.828 42.0928V46.4716L291.976 86.7562H299.576L201.828 42.0928Z" fill="#4F2330"/>
<path d="M193.854 66.6143H182.1V72.568H193.854V66.6143Z" fill="#559179"/>
<path d="M227.415 75.5442H215.661V81.498H227.415V75.5442Z" fill="#559179"/>
<path d="M278.243 93.116H266.489V99.0698H278.243V93.116Z" fill="#559179"/>
<path d="M267.102 105.52H255.348V111.473H267.102V105.52Z" fill="#559179"/>
<path d="M135.609 101.55H123.855V107.504H135.609V101.55Z" fill="#559179"/>
<path d="M149.662 116.903H137.908V122.857H149.662V116.903Z" fill="#559179"/>
<path d="M179.247 89.3264H153.255V147.066H179.247V89.3264Z" fill="#C2F0EF"/>
<path d="M179.246 89.3264L153.255 147.065H179.246V89.3264Z" fill="#8DF0EE"/>
<path d="M181.598 144.467H151.467V147.065H181.598V144.467Z" fill="white"/>
<path d="M182.117 86.728H150.426V89.3264H182.117V86.728Z" fill="white"/>
<path d="M166.251 89.3264L166.271 144.467" stroke="white" stroke-width="1.8411" stroke-miterlimit="10"/>
<path d="M153.255 118.196H179.661" stroke="white" stroke-width="1.8411" stroke-miterlimit="10"/>
<path d="M153.246 89.3323L153.266 144.473" stroke="white" stroke-width="1.8411" stroke-miterlimit="10"/>
<path d="M179.463 144.473L179.443 89.3323" stroke="white" stroke-width="1.8411" stroke-miterlimit="10"/>
<path d="M214.802 89.3264H188.811V147.066H214.802V89.3264Z" fill="#C2F0EF"/>
<path d="M214.802 89.3264L188.811 147.065H214.802V89.3264Z" fill="#8DF0EE"/>
<path d="M217.156 144.467H187.023V147.065H217.156V144.467Z" fill="white"/>
<path d="M217.673 86.728H185.983V89.3264H217.673V86.728Z" fill="white"/>
<path d="M201.807 89.3264L201.827 144.467" stroke="white" stroke-width="1.8411" stroke-miterlimit="10"/>
<path d="M188.811 118.196H215.217" stroke="white" stroke-width="1.8411" stroke-miterlimit="10"/>
<path d="M188.801 89.3323L188.822 144.473" stroke="white" stroke-width="1.8411" stroke-miterlimit="10"/>
<path d="M215.02 144.473L214.999 89.3323" stroke="white" stroke-width="1.8411" stroke-miterlimit="10"/>
<path d="M250.359 89.3264H224.367V147.066H250.359V89.3264Z" fill="#C2F0EF"/>
<path d="M250.358 89.3264L224.367 147.065H250.358V89.3264Z" fill="#8DF0EE"/>
<path d="M252.711 144.467H222.579V147.065H252.711V144.467Z" fill="white"/>
<path d="M253.228 86.728H221.538V89.3264H253.228V86.728Z" fill="white"/>
<path d="M237.363 89.3264L237.383 144.467" stroke="white" stroke-width="1.8411" stroke-miterlimit="10"/>
<path d="M224.367 118.196H250.773" stroke="white" stroke-width="1.8411" stroke-miterlimit="10"/>
<path d="M224.358 89.3323L224.378 144.473" stroke="white" stroke-width="1.8411" stroke-miterlimit="10"/>
<path d="M250.576 144.473L250.555 89.3323" stroke="white" stroke-width="1.8411" stroke-miterlimit="10"/>
<path d="M128.354 143.795L35.1337 181.563H46.5389H47.2929L51.6112 179.814L128.354 148.722L205.095 179.814L209.413 181.563H221.573L128.354 143.795Z" fill="white"/>
<path d="M205.095 179.814L128.354 148.722L51.6112 179.814L47.2929 181.563H46.5389V327.333H209.413V181.563L205.095 179.814Z" fill="#64AA8E"/>
<path d="M128.354 139.69L27.2748 181.563H35.1337L128.354 143.796V139.69Z" fill="#4F2330"/>
<path d="M128.354 139.69V143.796L221.573 181.563H229.431L128.354 139.69Z" fill="#4F2330"/>
<path d="M58.6932 190.252H46.5389V195.834H58.6932V190.252Z" fill="#559179"/>
<path d="M146.855 261.068H134.7V266.649H146.855V261.068Z" fill="#559179"/>
<path d="M62.8744 245.719H50.7201V251.301H62.8744V245.719Z" fill="#559179"/>
<path d="M124.921 201.058H112.767V206.64H124.921V201.058Z" fill="#559179"/>
<path d="M76.4624 182.686H64.3089V188.268H76.4624V182.686Z" fill="#559179"/>
<path d="M138.881 164.546H126.726V170.128H138.881V164.546Z" fill="#559179"/>
<path d="M90.6837 213.071H58.978V276.93H90.6837V213.071Z" fill="#C2F0EF"/>
<path d="M90.6837 213.071L58.978 276.929H90.6837V213.071Z" fill="#8DF0EE"/>
<path d="M93.5544 274.055H56.7969V276.929H93.5544V274.055Z" fill="white"/>
<path d="M94.186 210.198H55.528V213.071H94.186V210.198Z" fill="white"/>
<path d="M74.8313 213.071L74.8564 274.055" stroke="white" stroke-width="2.1385" stroke-miterlimit="10"/>
<path d="M58.978 245H91.1896" stroke="white" stroke-width="2.1385" stroke-miterlimit="10"/>
<path d="M58.9666 213.078L58.9917 274.063" stroke="white" stroke-width="2.1385" stroke-miterlimit="10"/>
<path d="M90.9495 274.063L90.9244 213.078" stroke="white" stroke-width="2.1385" stroke-miterlimit="10"/>
<path d="M134.65 213.071H102.944V276.93H134.65V213.071Z" fill="#C2F0EF"/>
<path d="M134.65 213.071L102.944 276.929H134.65V213.071Z" fill="#8DF0EE"/>
<path d="M137.52 274.055H100.763V276.929H137.52V274.055Z" fill="white"/>
<path d="M138.152 210.198H99.494V213.071H138.152V210.198Z" fill="white"/>
<path d="M118.797 213.071L118.822 274.055" stroke="white" stroke-width="2.1385" stroke-miterlimit="10"/>
<path d="M102.944 245H135.156" stroke="white" stroke-width="2.1385" stroke-miterlimit="10"/>
<path d="M102.933 213.078L102.958 274.063" stroke="white" stroke-width="2.1385" stroke-miterlimit="10"/>
<path d="M134.916 274.063L134.891 213.078" stroke="white" stroke-width="2.1385" stroke-miterlimit="10"/>
<path d="M149.871 287.929H46.5389" stroke="white" stroke-width="5.2794" stroke-miterlimit="10"/>
<path d="M57.1722 287.929V327.333" stroke="white" stroke-width="5.094" stroke-miterlimit="10"/>
<path d="M70.3865 287.929V327.333" stroke="white" stroke-width="5.094" stroke-miterlimit="10"/>
<path d="M83.6 287.929V327.333" stroke="white" stroke-width="5.094" stroke-miterlimit="10"/>
<path d="M96.8135 287.929V327.333" stroke="white" stroke-width="5.094" stroke-miterlimit="10"/>
<path d="M110.028 287.929V327.333" stroke="white" stroke-width="5.094" stroke-miterlimit="10"/>
<path d="M123.241 287.929V327.333" stroke="white" stroke-width="5.094" stroke-miterlimit="10"/>
<path d="M136.456 287.929V327.333" stroke="white" stroke-width="5.094" stroke-miterlimit="10"/>
<path d="M275.302 143.795L368.522 181.563H357.116H356.363L352.044 179.814L275.302 148.722L198.56 179.814L194.241 181.563H182.082L275.302 143.795Z" fill="white"/>
<path d="M198.56 179.814L275.302 148.722L352.044 179.814L356.363 181.563H357.116V327.333H194.241V181.563L198.56 179.814Z" fill="#64AA8E"/>
<path d="M275.302 139.69L376.381 181.563H368.522L275.302 143.796V139.69Z" fill="#4F2330"/>
<path d="M275.302 139.69V143.796L182.082 181.563H174.224L275.302 139.69Z" fill="#4F2330"/>
<path d="M344.962 195.833H357.116V190.251H344.962V195.833Z" fill="#559179"/>
<path d="M256.801 266.649H268.954V261.068H256.801V266.649Z" fill="#559179"/>
<path d="M340.781 251.3H352.936V245.718H340.781V251.3Z" fill="#559179"/>
<path d="M278.735 206.64H290.888V201.058H278.735V206.64Z" fill="#559179"/>
<path d="M327.192 188.267H339.346V182.685H327.192V188.267Z" fill="#559179"/>
<path d="M264.774 170.127H276.928V164.545H264.774V170.127Z" fill="#559179"/>
<path d="M312.972 276.929H344.677V213.07H312.972V276.929Z" fill="#C2F0EF"/>
<path d="M312.971 213.071L344.677 276.929H312.971V213.071Z" fill="#8DF0EE"/>
<path d="M310.101 276.929H346.858V274.056H310.101V276.929Z" fill="white"/>
<path d="M309.469 213.071H348.127V210.197H309.469V213.071Z" fill="white"/>
<path d="M328.824 213.071L328.798 274.055" stroke="white" stroke-width="2.1385" stroke-miterlimit="10"/>
<path d="M344.677 245H312.465" stroke="white" stroke-width="2.1385" stroke-miterlimit="10"/>
<path d="M344.689 213.078L344.663 274.062" stroke="white" stroke-width="2.1385" stroke-miterlimit="10"/>
<path d="M312.706 274.062L312.731 213.078" stroke="white" stroke-width="2.1385" stroke-miterlimit="10"/>
<path d="M269.005 276.929H300.711V213.07H269.005V276.929Z" fill="#C2F0EF"/>
<path d="M269.005 213.071L300.711 276.929H269.005V213.071Z" fill="#8DF0EE"/>
<path d="M266.135 276.929H302.892V274.056H266.135V276.929Z" fill="white"/>
<path d="M265.503 213.071H304.161V210.197H265.503V213.071Z" fill="white"/>
<path d="M284.857 213.071L284.832 274.055" stroke="white" stroke-width="2.1385" stroke-miterlimit="10"/>
<path d="M300.711 245H268.499" stroke="white" stroke-width="2.1385" stroke-miterlimit="10"/>
<path d="M300.722 213.078L300.697 274.062" stroke="white" stroke-width="2.1385" stroke-miterlimit="10"/>
<path d="M268.739 274.062L268.765 213.078" stroke="white" stroke-width="2.1385" stroke-miterlimit="10"/>
<path d="M253.784 287.929H357.116" stroke="white" stroke-width="5.2794" stroke-miterlimit="10"/>
<path d="M346.483 287.929V327.333" stroke="white" stroke-width="5.094" stroke-miterlimit="10"/>
<path d="M333.269 287.929V327.333" stroke="white" stroke-width="5.094" stroke-miterlimit="10"/>
<path d="M320.056 287.929V327.333" stroke="white" stroke-width="5.094" stroke-miterlimit="10"/>
<path d="M306.841 287.929V327.333" stroke="white" stroke-width="5.094" stroke-miterlimit="10"/>
<path d="M293.628 287.929V327.333" stroke="white" stroke-width="5.094" stroke-miterlimit="10"/>
<path d="M280.413 287.929V327.333" stroke="white" stroke-width="5.094" stroke-miterlimit="10"/>
<path d="M267.2 287.929V327.333" stroke="white" stroke-width="5.094" stroke-miterlimit="10"/>
<path d="M250.112 180.762H153.543V327.333H250.112V180.762Z" fill="#64AA8E"/>
<path d="M226.844 220.314H176.812V327.333H226.844V220.314Z" fill="#DDDFDE"/>
<path d="M224.347 223.294H179.309V327.333H224.347V223.294Z" fill="#692E40"/>
<path d="M229.39 321.552H174.265V327.333H229.39V321.552Z" fill="#DDDFDE"/>
<path d="M224.347 223.294V321.553H179.309L224.347 223.294Z" fill="#4F2330"/>
<path d="M168.628 207.285H140.784L137.166 192.136H171.341L168.628 207.285Z" fill="white"/>
<path d="M164.721 207.285H143.785V327.333H164.721V207.285Z" fill="white"/>
<path d="M164.721 207.285H143.785V209.239H164.721V207.285Z" fill="#DDDFDE"/>
<path d="M263.776 207.285H235.932L232.314 192.136H266.489L263.776 207.285Z" fill="white"/>
<path d="M259.87 207.285H238.934V327.333H259.87V207.285Z" fill="white"/>
<path d="M259.87 207.285H238.934V209.239H259.87V207.285Z" fill="#DDDFDE"/>
<path d="M261.559 192.136H142.097L133.52 180.762H270.134L261.559 192.136Z" fill="white"/>
<path d="M262.501 190.887H142.097V192.137H262.501V190.887Z" fill="#DDDFDE"/>
<path d="M133.52 180.762H270.134L201.828 146.53L133.52 180.762Z" fill="white"/>
<path d="M142.43 180.762H261.225L201.828 150.994L142.43 180.762Z" fill="#64AA8E"/>
<path d="M201.828 142.808V146.53L133.52 180.762H127.762L201.828 142.808Z" fill="#4F2330"/>
<path d="M201.828 142.808V146.53L270.134 180.762H275.893L201.828 142.808Z" fill="#4F2330"/>
<path d="M178.671 212.576H165.708V218.53H178.671V212.576Z" fill="#559179"/>
<path d="M187.977 203.249H175.013V209.203H187.977V203.249Z" fill="#559179"/>
<path d="M230.828 195.62H217.865V201.574H230.828V195.62Z" fill="#559179"/>
<path d="M223.019 165.879H210.056V171.832H223.019V165.879Z" fill="#559179"/>
<path d="M482.725 383.451C482.725 385.597 424.979 387.338 353.744 387.338C282.51 387.338 224.763 385.598 224.763 383.451C224.763 381.305 282.51 379.565 353.744 379.565C424.979 379.566 482.725 381.306 482.725 383.451Z" fill="#DDDFDE"/>
<path d="M381.282 269.044L431.647 270.539C434.864 270.635 437.857 272.24 439.757 274.887L460.863 304.294C461.371 305.002 461.645 305.857 461.645 306.734V311.554H462.446C463.807 311.554 465.079 312.24 465.847 313.386L474.55 326.379C475.319 327.528 475.731 328.887 475.731 330.278V345.641L480.89 349.384C481.017 349.529 481.12 349.687 481.232 349.839H429.469C427.847 347.339 425.706 344.868 422.857 342.708C411.25 333.908 391.583 342.708 391.583 342.708H381.687C380.099 342.708 378.81 341.395 378.81 339.774V271.491C378.811 270.111 379.929 269.003 381.282 269.044Z" fill="#DDDFDE"/>
<path d="M453.659 317.254V305.287C453.659 304.66 453.458 304.052 453.086 303.555L433.52 277.379C432.989 276.669 432.165 276.253 431.29 276.253H393.072C391.524 276.253 390.269 277.533 390.269 279.111V297.974C390.269 299.553 391.524 300.832 393.072 300.832H422.297C423.037 300.832 423.747 301.131 424.272 301.663L438.852 316.425C439.377 316.957 440.088 317.255 440.828 317.255H453.659" fill="#8DF0EE"/>
<path d="M475.33 327.946H470.87C469.994 327.946 469.283 328.671 469.283 329.565V343.921C469.283 344.814 469.994 345.539 470.87 345.539H475.731V330.278C475.733 329.426 475.581 328.658 475.33 327.946Z" fill="#E65552"/>
<path d="M470.179 345.191H475.732V342.606H469.284V344.278C469.283 344.782 469.685 345.191 470.179 345.191Z" fill="#F9AA5B"/>
<path d="M480.614 363.588C480.11 364.73 479.003 365.465 477.775 365.465H435.895C435.114 365.465 434.456 364.865 434.383 364.073C434.145 361.462 433.194 355.576 429.469 349.838H481.232C484.229 353.922 482.019 360.408 480.614 363.588Z" fill="#ACADAD"/>
<path d="M475.731 345.191H461.992" stroke="#ACADAD" stroke-width="1.0713" stroke-miterlimit="10" stroke-linecap="round" stroke-linejoin="round"/>
<path d="M461.645 311.553V349.838" stroke="#ACADAD" stroke-width="1.0713" stroke-miterlimit="10" stroke-linecap="round" stroke-linejoin="round"/>
<path opacity="0.44" d="M450.187 321.062H438.779C437.857 321.062 436.975 320.689 436.323 320.025L421.691 305.106C421.04 304.442 420.157 304.069 419.235 304.069H388.036C386.118 304.069 384.564 305.654 384.564 307.609V335.122C384.564 337.077 386.118 338.662 388.036 338.662H393.878C394.392 338.662 394.893 338.549 395.357 338.325C398.676 336.713 413.458 330.108 421.963 335.83C428.398 340.158 431.507 343.945 432.859 345.978C433.512 346.961 434.588 347.562 435.753 347.562H450.187C452.105 347.562 453.659 345.978 453.659 344.022V324.602C453.659 322.647 452.105 321.062 450.187 321.062Z" fill="white"/>
<path d="M391.385 323.439H400.908C401.524 323.439 402.024 322.929 402.024 322.3C402.024 321.169 401.125 320.252 400.015 320.252H392.277C391.168 320.252 390.268 321.169 390.268 322.3C390.268 322.929 390.769 323.439 391.385 323.439Z" fill="#161B43"/>
<mask id="mask0_50_9807" style="mask-type:luminance" maskUnits="userSpaceOnUse" x="390" y="276" width="64" height="42">
<path d="M453.659 317.254V305.287C453.659 304.66 453.458 304.052 453.086 303.555L433.52 277.379C432.989 276.669 432.165 276.253 431.29 276.253H393.072C391.524 276.253 390.269 277.533 390.269 279.111V297.974C390.269 299.553 391.524 300.832 393.072 300.832H422.297C423.037 300.832 423.747 301.131 424.272 301.663L438.852 316.425C439.377 316.957 440.088 317.255 440.828 317.255H453.659" fill="white"/>
</mask>
<g mask="url(#mask0_50_9807)">
<path d="M426.099 348.607L435.788 343.943L394.996 255.859L385.307 260.523L426.099 348.607Z" fill="#C2F0EF"/>
<path d="M445.655 339.188L458.573 332.969L417.78 244.885L404.863 251.104L445.655 339.188Z" fill="#C2F0EF"/>
</g>
<path opacity="0.63" d="M393.072 299.643H422.297C423.037 299.643 423.747 299.942 424.272 300.474L438.852 315.236C439.377 315.767 440.088 316.066 440.827 316.066H453.659V317.255H440.827C440.087 317.255 439.377 316.956 438.852 316.425L424.272 301.663C423.747 301.131 423.036 300.832 422.297 300.832H393.072C391.524 300.832 390.269 299.553 390.269 297.974V296.785C390.268 298.364 391.523 299.643 393.072 299.643Z" fill="#ACADAD"/>
<path d="M374.445 338.257H378.81V290.818H374.445V338.257Z" fill="#161B43"/>
<path d="M413.107 384.918C424.867 382.955 432.841 371.644 430.916 359.653C428.992 347.662 417.898 339.532 406.138 341.495C394.377 343.457 386.404 354.768 388.328 366.759C390.253 378.75 401.347 386.88 413.107 384.918Z" fill="#161B43"/>
<g opacity="0.43">
<path d="M429.801 363.19C429.801 351.821 420.763 342.606 409.613 342.606" stroke="#DDDFDE" stroke-width="1.0935" stroke-miterlimit="10" stroke-linecap="round" stroke-linejoin="round"/>
<path d="M392.789 374.57C395.778 379.154 400.521 382.446 406.041 383.451" stroke="#DDDFDE" stroke-width="1.0935" stroke-miterlimit="10" stroke-linecap="round" stroke-linejoin="round"/>
</g>
<path d="M398.453 363.19C398.453 369.474 403.449 374.569 409.613 374.569C415.776 374.569 420.774 369.475 420.774 363.19C420.774 356.905 415.777 351.811 409.613 351.811C403.449 351.811 398.453 356.905 398.453 363.19Z" fill="#ACADAD"/>
<path d="M406.042 363.19C406.042 365.201 407.64 366.831 409.613 366.831C411.585 366.831 413.185 365.201 413.185 363.19C413.185 361.179 411.585 359.548 409.613 359.548C407.641 359.548 406.042 361.178 406.042 363.19Z" fill="#161B43"/>
<path d="M409.613 351.811V374.569" stroke="#161B43" stroke-width="1.4285" stroke-miterlimit="10"/>
<path d="M398.453 363.19H420.774" stroke="#161B43" stroke-width="1.4285" stroke-miterlimit="10"/>
<path d="M401.722 355.144L417.505 371.236" stroke="#161B43" stroke-width="1.4285" stroke-miterlimit="10"/>
<path d="M401.722 371.236L417.505 355.144" stroke="#161B43" stroke-width="1.4285" stroke-miterlimit="10"/>
<path d="M276.265 383.676C285.731 379.611 290.174 368.492 286.187 358.84C282.201 349.188 271.295 344.659 261.829 348.723C252.363 352.788 247.921 363.907 251.907 373.559C255.893 383.211 266.799 387.741 276.265 383.676Z" fill="#161B43"/>
<g opacity="0.43">
<path d="M286.444 366.227C286.444 356.428 278.653 348.484 269.043 348.484" stroke="#DDDFDE" stroke-width="0.9426" stroke-miterlimit="10" stroke-linecap="round" stroke-linejoin="round"/>
<path d="M254.541 376.036C257.117 379.987 261.206 382.825 265.964 383.692" stroke="#DDDFDE" stroke-width="0.9426" stroke-miterlimit="10" stroke-linecap="round" stroke-linejoin="round"/>
</g>
<path d="M259.423 366.227C259.423 371.644 263.73 376.035 269.043 376.035C274.356 376.035 278.662 371.644 278.662 366.227C278.662 360.81 274.356 356.418 269.043 356.418C263.73 356.418 259.423 360.81 259.423 366.227Z" fill="#ACADAD"/>
<path d="M265.965 366.227C265.965 367.96 267.343 369.365 269.043 369.365C270.742 369.365 272.12 367.96 272.12 366.227C272.12 364.493 270.742 363.088 269.043 363.088C267.343 363.088 265.965 364.493 265.965 366.227Z" fill="#161B43"/>
<path d="M269.043 356.418V376.035" stroke="#161B43" stroke-width="1.2313" stroke-miterlimit="10"/>
<path d="M259.423 366.227H278.662" stroke="#161B43" stroke-width="1.2313" stroke-miterlimit="10"/>
<path d="M262.241 359.291L275.845 373.162" stroke="#161B43" stroke-width="1.2313" stroke-miterlimit="10"/>
<path d="M262.241 373.162L275.845 359.291" stroke="#161B43" stroke-width="1.2313" stroke-miterlimit="10"/>
<path d="M238.191 343.63H371.322C373.266 343.63 374.843 342.023 374.843 340.039V245.062C374.843 243.078 373.267 241.471 371.322 241.471H238.191C236.246 241.471 234.669 243.078 234.669 245.062V340.039C234.669 342.022 236.246 343.63 238.191 343.63Z" fill="white"/>
<path d="M240.514 340.899H368.998C370.856 340.899 372.363 339.363 372.363 337.468V247.633C372.363 245.737 370.856 244.201 368.998 244.201H240.514C238.656 244.201 237.149 245.737 237.149 247.633V337.468C237.149 339.363 238.656 340.899 240.514 340.899Z" fill="#DDDFDE"/>
<g opacity="0.29">
<path d="M362.906 247.926C362.906 248.698 363.52 249.324 364.277 249.324C365.034 249.324 365.648 248.698 365.648 247.926C365.648 247.154 365.034 246.529 364.277 246.529C363.52 246.528 362.906 247.154 362.906 247.926Z" fill="white"/>
<path d="M362.906 256.851C362.906 257.623 363.52 258.249 364.277 258.249C365.034 258.249 365.648 257.623 365.648 256.851C365.648 256.079 365.034 255.453 364.277 255.453C363.52 255.453 362.906 256.079 362.906 256.851Z" fill="white"/>
<path d="M362.906 265.776C362.906 266.548 363.52 267.174 364.277 267.174C365.034 267.174 365.648 266.548 365.648 265.776C365.648 265.004 365.034 264.378 364.277 264.378C363.52 264.378 362.906 265.004 362.906 265.776Z" fill="white"/>
<path d="M362.906 274.701C362.906 275.473 363.52 276.099 364.277 276.099C365.034 276.099 365.648 275.473 365.648 274.701C365.648 273.929 365.034 273.303 364.277 273.303C363.52 273.303 362.906 273.929 362.906 274.701Z" fill="white"/>
<path d="M362.906 283.626C362.906 284.398 363.52 285.024 364.277 285.024C365.034 285.024 365.648 284.398 365.648 283.626C365.648 282.854 365.034 282.228 364.277 282.228C363.52 282.228 362.906 282.854 362.906 283.626Z" fill="white"/>
<path d="M362.906 292.551C362.906 293.323 363.52 293.948 364.277 293.948C365.034 293.948 365.648 293.323 365.648 292.551C365.648 291.779 365.034 291.153 364.277 291.153C363.52 291.153 362.906 291.779 362.906 292.551Z" fill="white"/>
<path d="M362.906 301.475C362.906 302.247 363.52 302.873 364.277 302.873C365.034 302.873 365.648 302.247 365.648 301.475C365.648 300.703 365.034 300.078 364.277 300.078C363.52 300.078 362.906 300.703 362.906 301.475Z" fill="white"/>
<path d="M362.906 310.4C362.906 311.173 363.52 311.798 364.277 311.798C365.034 311.798 365.648 311.173 365.648 310.4C365.648 309.628 365.034 309.003 364.277 309.003C363.52 309.003 362.906 309.628 362.906 310.4Z" fill="white"/>
<path d="M362.906 319.325C362.906 320.097 363.52 320.723 364.277 320.723C365.034 320.723 365.648 320.097 365.648 319.325C365.648 318.553 365.034 317.927 364.277 317.927C363.52 317.927 362.906 318.553 362.906 319.325Z" fill="white"/>
<path d="M362.906 328.25C362.906 329.022 363.52 329.648 364.277 329.648C365.034 329.648 365.648 329.022 365.648 328.25C365.648 327.478 365.034 326.852 364.277 326.852C363.52 326.852 362.906 327.478 362.906 328.25Z" fill="white"/>
<path d="M362.906 337.175C362.906 337.947 363.52 338.573 364.277 338.573C365.034 338.573 365.648 337.947 365.648 337.175C365.648 336.403 365.034 335.777 364.277 335.777C363.52 335.777 362.906 336.403 362.906 337.175Z" fill="white"/>
<path d="M351.002 247.926C351.002 248.698 351.616 249.324 352.373 249.324C353.131 249.324 353.744 248.698 353.744 247.926C353.744 247.154 353.131 246.529 352.373 246.529C351.616 246.528 351.002 247.154 351.002 247.926Z" fill="white"/>
<path d="M351.002 256.851C351.002 257.623 351.616 258.249 352.373 258.249C353.131 258.249 353.744 257.623 353.744 256.851C353.744 256.079 353.131 255.453 352.373 255.453C351.616 255.453 351.002 256.079 351.002 256.851Z" fill="white"/>
<path d="M351.002 265.776C351.002 266.548 351.616 267.174 352.373 267.174C353.131 267.174 353.744 266.548 353.744 265.776C353.744 265.004 353.131 264.378 352.373 264.378C351.616 264.378 351.002 265.004 351.002 265.776Z" fill="white"/>
<path d="M351.002 274.701C351.002 275.473 351.616 276.099 352.373 276.099C353.131 276.099 353.744 275.473 353.744 274.701C353.744 273.929 353.131 273.303 352.373 273.303C351.616 273.303 351.002 273.929 351.002 274.701Z" fill="white"/>
<path d="M351.002 283.626C351.002 284.398 351.616 285.024 352.373 285.024C353.131 285.024 353.744 284.398 353.744 283.626C353.744 282.854 353.131 282.228 352.373 282.228C351.616 282.228 351.002 282.854 351.002 283.626Z" fill="white"/>
<path d="M351.002 292.551C351.002 293.323 351.616 293.948 352.373 293.948C353.131 293.948 353.744 293.323 353.744 292.551C353.744 291.779 353.131 291.153 352.373 291.153C351.616 291.153 351.002 291.779 351.002 292.551Z" fill="white"/>
<path d="M351.002 301.475C351.002 302.247 351.616 302.873 352.373 302.873C353.131 302.873 353.744 302.247 353.744 301.475C353.744 300.703 353.131 300.078 352.373 300.078C351.616 300.078 351.002 300.703 351.002 301.475Z" fill="white"/>
<path d="M351.002 310.4C351.002 311.173 351.616 311.798 352.373 311.798C353.131 311.798 353.744 311.173 353.744 310.4C353.744 309.628 353.131 309.003 352.373 309.003C351.616 309.003 351.002 309.628 351.002 310.4Z" fill="white"/>
<path d="M351.002 319.325C351.002 320.097 351.616 320.723 352.373 320.723C353.131 320.723 353.744 320.097 353.744 319.325C353.744 318.553 353.131 317.927 352.373 317.927C351.616 317.927 351.002 318.553 351.002 319.325Z" fill="white"/>
<path d="M351.002 328.25C351.002 329.022 351.616 329.648 352.373 329.648C353.131 329.648 353.744 329.022 353.744 328.25C353.744 327.478 353.131 326.852 352.373 326.852C351.616 326.852 351.002 327.478 351.002 328.25Z" fill="white"/>
<path d="M351.002 337.175C351.002 337.947 351.616 338.573 352.373 338.573C353.131 338.573 353.744 337.947 353.744 337.175C353.744 336.403 353.131 335.777 352.373 335.777C351.616 335.777 351.002 336.403 351.002 337.175Z" fill="white"/>
<path d="M340.469 249.324C341.226 249.324 341.84 248.698 341.84 247.926C341.84 247.154 341.226 246.529 340.469 246.529C339.712 246.529 339.098 247.154 339.098 247.926C339.098 248.698 339.712 249.324 340.469 249.324Z" fill="white"/>
<path d="M340.469 258.249C341.226 258.249 341.84 257.623 341.84 256.851C341.84 256.079 341.226 255.453 340.469 255.453C339.712 255.453 339.098 256.079 339.098 256.851C339.098 257.623 339.712 258.249 340.469 258.249Z" fill="white"/>
<path d="M340.469 267.174C341.226 267.174 341.84 266.548 341.84 265.776C341.84 265.004 341.226 264.378 340.469 264.378C339.712 264.378 339.098 265.004 339.098 265.776C339.098 266.548 339.712 267.174 340.469 267.174Z" fill="white"/>
<path d="M340.469 276.099C341.226 276.099 341.84 275.473 341.84 274.701C341.84 273.929 341.226 273.303 340.469 273.303C339.712 273.303 339.098 273.929 339.098 274.701C339.098 275.473 339.712 276.099 340.469 276.099Z" fill="white"/>
<path d="M340.469 285.024C341.226 285.024 341.84 284.398 341.84 283.626C341.84 282.854 341.226 282.228 340.469 282.228C339.712 282.228 339.098 282.854 339.098 283.626C339.098 284.398 339.712 285.024 340.469 285.024Z" fill="white"/>
<path d="M339.098 292.551C339.098 293.323 339.711 293.948 340.469 293.948C341.226 293.948 341.84 293.323 341.84 292.551C341.84 291.779 341.226 291.153 340.469 291.153C339.711 291.153 339.098 291.779 339.098 292.551Z" fill="white"/>
<path d="M339.098 301.475C339.098 302.247 339.711 302.873 340.469 302.873C341.226 302.873 341.84 302.247 341.84 301.475C341.84 300.703 341.226 300.078 340.469 300.078C339.711 300.078 339.098 300.703 339.098 301.475Z" fill="white"/>
<path d="M340.469 311.798C341.226 311.798 341.84 311.172 341.84 310.4C341.84 309.628 341.226 309.003 340.469 309.003C339.712 309.003 339.098 309.628 339.098 310.4C339.098 311.172 339.712 311.798 340.469 311.798Z" fill="white"/>
<path d="M339.098 319.325C339.098 320.097 339.711 320.723 340.469 320.723C341.226 320.723 341.84 320.097 341.84 319.325C341.84 318.553 341.226 317.927 340.469 317.927C339.711 317.927 339.098 318.553 339.098 319.325Z" fill="white"/>
<path d="M340.469 329.648C341.226 329.648 341.84 329.022 341.84 328.25C341.84 327.478 341.226 326.852 340.469 326.852C339.712 326.852 339.098 327.478 339.098 328.25C339.098 329.022 339.712 329.648 340.469 329.648Z" fill="white"/>
<path d="M339.098 337.175C339.098 337.947 339.711 338.573 340.469 338.573C341.226 338.573 341.84 337.947 341.84 337.175C341.84 336.403 341.226 335.777 340.469 335.777C339.711 335.777 339.098 336.403 339.098 337.175Z" fill="white"/>
<path d="M328.565 249.324C329.322 249.324 329.936 248.698 329.936 247.926C329.936 247.154 329.322 246.529 328.565 246.529C327.808 246.529 327.194 247.154 327.194 247.926C327.194 248.698 327.808 249.324 328.565 249.324Z" fill="white"/>
<path d="M328.565 258.249C329.322 258.249 329.936 257.623 329.936 256.851C329.936 256.079 329.322 255.453 328.565 255.453C327.808 255.453 327.194 256.079 327.194 256.851C327.194 257.623 327.808 258.249 328.565 258.249Z" fill="white"/>
<path d="M328.565 267.174C329.322 267.174 329.936 266.548 329.936 265.776C329.936 265.004 329.322 264.378 328.565 264.378C327.808 264.378 327.194 265.004 327.194 265.776C327.194 266.548 327.808 267.174 328.565 267.174Z" fill="white"/>
<path d="M328.565 276.099C329.322 276.099 329.936 275.473 329.936 274.701C329.936 273.929 329.322 273.303 328.565 273.303C327.808 273.303 327.194 273.929 327.194 274.701C327.194 275.473 327.808 276.099 328.565 276.099Z" fill="white"/>
<path d="M328.565 285.024C329.322 285.024 329.936 284.398 329.936 283.626C329.936 282.854 329.322 282.228 328.565 282.228C327.808 282.228 327.194 282.854 327.194 283.626C327.194 284.398 327.808 285.024 328.565 285.024Z" fill="white"/>
<path d="M327.194 292.551C327.194 293.323 327.808 293.948 328.565 293.948C329.322 293.948 329.936 293.323 329.936 292.551C329.936 291.779 329.322 291.153 328.565 291.153C327.808 291.153 327.194 291.779 327.194 292.551Z" fill="white"/>
<path d="M327.194 301.475C327.194 302.247 327.808 302.873 328.565 302.873C329.322 302.873 329.936 302.247 329.936 301.475C329.936 300.703 329.322 300.078 328.565 300.078C327.808 300.078 327.194 300.703 327.194 301.475Z" fill="white"/>
<path d="M328.565 311.798C329.322 311.798 329.936 311.172 329.936 310.4C329.936 309.628 329.322 309.003 328.565 309.003C327.808 309.003 327.194 309.628 327.194 310.4C327.194 311.172 327.808 311.798 328.565 311.798Z" fill="white"/>
<path d="M327.194 319.325C327.194 320.097 327.808 320.723 328.565 320.723C329.322 320.723 329.936 320.097 329.936 319.325C329.936 318.553 329.322 317.927 328.565 317.927C327.808 317.927 327.194 318.553 327.194 319.325Z" fill="white"/>
<path d="M328.565 329.648C329.322 329.648 329.936 329.022 329.936 328.25C329.936 327.478 329.322 326.852 328.565 326.852C327.808 326.852 327.194 327.478 327.194 328.25C327.194 329.022 327.808 329.648 328.565 329.648Z" fill="white"/>
<path d="M327.194 337.175C327.194 337.947 327.808 338.573 328.565 338.573C329.322 338.573 329.936 337.947 329.936 337.175C329.936 336.403 329.322 335.777 328.565 335.777C327.808 335.777 327.194 336.403 327.194 337.175Z" fill="white"/>
<path d="M315.289 247.926C315.289 248.698 315.903 249.324 316.66 249.324C317.417 249.324 318.031 248.698 318.031 247.926C318.031 247.154 317.417 246.529 316.66 246.529C315.903 246.528 315.289 247.154 315.289 247.926Z" fill="white"/>
<path d="M315.289 256.851C315.289 257.623 315.903 258.249 316.66 258.249C317.417 258.249 318.031 257.623 318.031 256.851C318.031 256.079 317.417 255.453 316.66 255.453C315.903 255.453 315.289 256.079 315.289 256.851Z" fill="white"/>
<path d="M315.289 265.776C315.289 266.548 315.903 267.174 316.66 267.174C317.417 267.174 318.031 266.548 318.031 265.776C318.031 265.004 317.417 264.378 316.66 264.378C315.903 264.378 315.289 265.004 315.289 265.776Z" fill="white"/>
<path d="M315.289 274.701C315.289 275.473 315.903 276.099 316.66 276.099C317.417 276.099 318.031 275.473 318.031 274.701C318.031 273.929 317.417 273.303 316.66 273.303C315.903 273.303 315.289 273.929 315.289 274.701Z" fill="white"/>
<path d="M315.289 283.626C315.289 284.398 315.903 285.024 316.66 285.024C317.417 285.024 318.031 284.398 318.031 283.626C318.031 282.854 317.417 282.228 316.66 282.228C315.903 282.228 315.289 282.854 315.289 283.626Z" fill="white"/>
<path d="M315.289 292.551C315.289 293.323 315.903 293.948 316.66 293.948C317.417 293.948 318.031 293.323 318.031 292.551C318.031 291.779 317.417 291.153 316.66 291.153C315.903 291.153 315.289 291.779 315.289 292.551Z" fill="white"/>
<path d="M315.289 301.475C315.289 302.247 315.903 302.873 316.66 302.873C317.417 302.873 318.031 302.247 318.031 301.475C318.031 300.703 317.417 300.078 316.66 300.078C315.903 300.078 315.289 300.703 315.289 301.475Z" fill="white"/>
<path d="M315.289 310.4C315.289 311.173 315.903 311.798 316.66 311.798C317.417 311.798 318.031 311.173 318.031 310.4C318.031 309.628 317.417 309.003 316.66 309.003C315.903 309.003 315.289 309.628 315.289 310.4Z" fill="white"/>
<path d="M315.289 319.325C315.289 320.097 315.903 320.723 316.66 320.723C317.417 320.723 318.031 320.097 318.031 319.325C318.031 318.553 317.417 317.927 316.66 317.927C315.903 317.927 315.289 318.553 315.289 319.325Z" fill="white"/>
<path d="M315.289 328.25C315.289 329.022 315.903 329.648 316.66 329.648C317.417 329.648 318.031 329.022 318.031 328.25C318.031 327.478 317.417 326.852 316.66 326.852C315.903 326.852 315.289 327.478 315.289 328.25Z" fill="white"/>
<path d="M315.289 337.175C315.289 337.947 315.903 338.573 316.66 338.573C317.417 338.573 318.031 337.947 318.031 337.175C318.031 336.403 317.417 335.777 316.66 335.777C315.903 335.777 315.289 336.403 315.289 337.175Z" fill="white"/>
<path d="M304.756 249.324C305.513 249.324 306.126 248.698 306.126 247.926C306.126 247.154 305.513 246.529 304.756 246.529C303.998 246.529 303.385 247.154 303.385 247.926C303.385 248.698 303.998 249.324 304.756 249.324Z" fill="white"/>
<path d="M304.756 258.249C305.513 258.249 306.126 257.623 306.126 256.851C306.126 256.079 305.513 255.453 304.756 255.453C303.998 255.453 303.385 256.079 303.385 256.851C303.385 257.623 303.998 258.249 304.756 258.249Z" fill="white"/>
<path d="M304.756 267.174C305.513 267.174 306.126 266.548 306.126 265.776C306.126 265.004 305.513 264.378 304.756 264.378C303.998 264.378 303.385 265.004 303.385 265.776C303.385 266.548 303.998 267.174 304.756 267.174Z" fill="white"/>
<path d="M304.756 276.099C305.513 276.099 306.126 275.473 306.126 274.701C306.126 273.929 305.513 273.303 304.756 273.303C303.998 273.303 303.385 273.929 303.385 274.701C303.385 275.473 303.998 276.099 304.756 276.099Z" fill="white"/>
<path d="M304.756 285.024C305.513 285.024 306.126 284.398 306.126 283.626C306.126 282.854 305.513 282.228 304.756 282.228C303.998 282.228 303.385 282.854 303.385 283.626C303.385 284.398 303.998 285.024 304.756 285.024Z" fill="white"/>
<path d="M303.385 292.551C303.385 293.323 303.998 293.948 304.756 293.948C305.513 293.948 306.126 293.323 306.126 292.551C306.126 291.779 305.513 291.153 304.756 291.153C303.998 291.153 303.385 291.779 303.385 292.551Z" fill="white"/>
<path d="M303.385 301.475C303.385 302.247 303.998 302.873 304.756 302.873C305.513 302.873 306.126 302.247 306.126 301.475C306.126 300.703 305.513 300.078 304.756 300.078C303.998 300.078 303.385 300.703 303.385 301.475Z" fill="white"/>
<path d="M304.756 311.798C305.513 311.798 306.126 311.172 306.126 310.4C306.126 309.628 305.513 309.003 304.756 309.003C303.998 309.003 303.385 309.628 303.385 310.4C303.385 311.172 303.998 311.798 304.756 311.798Z" fill="white"/>
<path d="M303.385 319.325C303.385 320.097 303.998 320.723 304.756 320.723C305.513 320.723 306.126 320.097 306.126 319.325C306.126 318.553 305.513 317.927 304.756 317.927C303.998 317.927 303.385 318.553 303.385 319.325Z" fill="white"/>
<path d="M304.756 329.648C305.513 329.648 306.126 329.022 306.126 328.25C306.126 327.478 305.513 326.852 304.756 326.852C303.998 326.852 303.385 327.478 303.385 328.25C303.385 329.022 303.998 329.648 304.756 329.648Z" fill="white"/>
<path d="M303.385 337.175C303.385 337.947 303.998 338.573 304.756 338.573C305.513 338.573 306.126 337.947 306.126 337.175C306.126 336.403 305.513 335.777 304.756 335.777C303.998 335.777 303.385 336.403 303.385 337.175Z" fill="white"/>
<path d="M292.852 249.324C293.609 249.324 294.223 248.698 294.223 247.926C294.223 247.154 293.609 246.529 292.852 246.529C292.095 246.529 291.481 247.154 291.481 247.926C291.481 248.698 292.095 249.324 292.852 249.324Z" fill="white"/>
<path d="M292.852 258.249C293.609 258.249 294.223 257.623 294.223 256.851C294.223 256.079 293.609 255.453 292.852 255.453C292.095 255.453 291.481 256.079 291.481 256.851C291.481 257.623 292.095 258.249 292.852 258.249Z" fill="white"/>
<path d="M292.852 267.174C293.609 267.174 294.223 266.548 294.223 265.776C294.223 265.004 293.609 264.378 292.852 264.378C292.095 264.378 291.481 265.004 291.481 265.776C291.481 266.548 292.095 267.174 292.852 267.174Z" fill="white"/>
<path d="M292.852 276.099C293.609 276.099 294.223 275.473 294.223 274.701C294.223 273.929 293.609 273.303 292.852 273.303C292.095 273.303 291.481 273.929 291.481 274.701C291.481 275.473 292.095 276.099 292.852 276.099Z" fill="white"/>
<path d="M292.852 285.024C293.609 285.024 294.223 284.398 294.223 283.626C294.223 282.854 293.609 282.228 292.852 282.228C292.095 282.228 291.481 282.854 291.481 283.626C291.481 284.398 292.095 285.024 292.852 285.024Z" fill="white"/>
<path d="M291.481 292.551C291.481 293.323 292.095 293.948 292.852 293.948C293.609 293.948 294.223 293.323 294.223 292.551C294.223 291.779 293.609 291.153 292.852 291.153C292.095 291.153 291.481 291.779 291.481 292.551Z" fill="white"/>
<path d="M291.481 301.475C291.481 302.247 292.095 302.873 292.852 302.873C293.609 302.873 294.223 302.247 294.223 301.475C294.223 300.703 293.609 300.078 292.852 300.078C292.095 300.078 291.481 300.703 291.481 301.475Z" fill="white"/>
<path d="M292.852 311.798C293.609 311.798 294.223 311.172 294.223 310.4C294.223 309.628 293.609 309.003 292.852 309.003C292.095 309.003 291.481 309.628 291.481 310.4C291.481 311.172 292.095 311.798 292.852 311.798Z" fill="white"/>
<path d="M291.481 319.325C291.481 320.097 292.095 320.723 292.852 320.723C293.609 320.723 294.223 320.097 294.223 319.325C294.223 318.553 293.609 317.927 292.852 317.927C292.095 317.927 291.481 318.553 291.481 319.325Z" fill="white"/>
<path d="M292.852 329.648C293.609 329.648 294.223 329.022 294.223 328.25C294.223 327.478 293.609 326.852 292.852 326.852C292.095 326.852 291.481 327.478 291.481 328.25C291.481 329.022 292.095 329.648 292.852 329.648Z" fill="white"/>
<path d="M291.481 337.175C291.481 337.947 292.095 338.573 292.852 338.573C293.609 338.573 294.223 337.947 294.223 337.175C294.223 336.403 293.609 335.777 292.852 335.777C292.095 335.777 291.481 336.403 291.481 337.175Z" fill="white"/>
<path d="M279.576 247.926C279.576 248.698 280.19 249.324 280.947 249.324C281.704 249.324 282.318 248.698 282.318 247.926C282.318 247.154 281.704 246.529 280.947 246.529C280.19 246.529 279.576 247.154 279.576 247.926Z" fill="white"/>
<path d="M279.576 256.851C279.576 257.623 280.19 258.249 280.947 258.249C281.704 258.249 282.318 257.623 282.318 256.851C282.318 256.079 281.704 255.453 280.947 255.453C280.19 255.453 279.576 256.079 279.576 256.851Z" fill="white"/>
<path d="M279.576 265.776C279.576 266.548 280.19 267.174 280.947 267.174C281.704 267.174 282.318 266.548 282.318 265.776C282.318 265.004 281.704 264.378 280.947 264.378C280.19 264.378 279.576 265.004 279.576 265.776Z" fill="white"/>
<path d="M279.576 274.701C279.576 275.473 280.19 276.099 280.947 276.099C281.704 276.099 282.318 275.473 282.318 274.701C282.318 273.929 281.704 273.303 280.947 273.303C280.19 273.303 279.576 273.929 279.576 274.701Z" fill="white"/>
<path d="M279.576 283.626C279.576 284.398 280.19 285.024 280.947 285.024C281.704 285.024 282.318 284.398 282.318 283.626C282.318 282.854 281.704 282.228 280.947 282.228C280.19 282.228 279.576 282.854 279.576 283.626Z" fill="white"/>
<path d="M279.576 292.551C279.576 293.323 280.19 293.948 280.947 293.948C281.704 293.948 282.318 293.323 282.318 292.551C282.318 291.779 281.704 291.153 280.947 291.153C280.19 291.153 279.576 291.779 279.576 292.551Z" fill="white"/>
<path d="M279.576 301.475C279.576 302.247 280.19 302.873 280.947 302.873C281.704 302.873 282.318 302.247 282.318 301.475C282.318 300.703 281.704 300.078 280.947 300.078C280.19 300.078 279.576 300.703 279.576 301.475Z" fill="white"/>
<path d="M279.576 310.4C279.576 311.173 280.19 311.798 280.947 311.798C281.704 311.798 282.318 311.173 282.318 310.4C282.318 309.628 281.704 309.003 280.947 309.003C280.19 309.003 279.576 309.628 279.576 310.4Z" fill="white"/>
<path d="M279.576 319.325C279.576 320.097 280.19 320.723 280.947 320.723C281.704 320.723 282.318 320.097 282.318 319.325C282.318 318.553 281.704 317.927 280.947 317.927C280.19 317.927 279.576 318.553 279.576 319.325Z" fill="white"/>
<path d="M279.576 328.25C279.576 329.022 280.19 329.648 280.947 329.648C281.704 329.648 282.318 329.022 282.318 328.25C282.318 327.478 281.704 326.852 280.947 326.852C280.19 326.852 279.576 327.478 279.576 328.25Z" fill="white"/>
<path d="M279.576 337.175C279.576 337.947 280.19 338.573 280.947 338.573C281.704 338.573 282.318 337.947 282.318 337.175C282.318 336.403 281.704 335.777 280.947 335.777C280.19 335.777 279.576 336.403 279.576 337.175Z" fill="white"/>
<path d="M267.672 247.926C267.672 248.698 268.285 249.324 269.043 249.324C269.8 249.324 270.413 248.698 270.413 247.926C270.413 247.154 269.8 246.529 269.043 246.529C268.286 246.528 267.672 247.154 267.672 247.926Z" fill="white"/>
<path d="M267.672 256.851C267.672 257.623 268.285 258.249 269.043 258.249C269.8 258.249 270.413 257.623 270.413 256.851C270.413 256.079 269.8 255.453 269.043 255.453C268.286 255.453 267.672 256.079 267.672 256.851Z" fill="white"/>
<path d="M267.672 265.776C267.672 266.548 268.285 267.174 269.043 267.174C269.8 267.174 270.413 266.548 270.413 265.776C270.413 265.004 269.8 264.378 269.043 264.378C268.286 264.378 267.672 265.004 267.672 265.776Z" fill="white"/>
<path d="M267.672 274.701C267.672 275.473 268.285 276.099 269.043 276.099C269.8 276.099 270.413 275.473 270.413 274.701C270.413 273.929 269.8 273.303 269.043 273.303C268.286 273.303 267.672 273.929 267.672 274.701Z" fill="white"/>
<path d="M267.672 283.626C267.672 284.398 268.285 285.024 269.043 285.024C269.8 285.024 270.413 284.398 270.413 283.626C270.413 282.854 269.8 282.228 269.043 282.228C268.286 282.228 267.672 282.854 267.672 283.626Z" fill="white"/>
<path d="M267.672 292.551C267.672 293.323 268.285 293.948 269.043 293.948C269.8 293.948 270.413 293.323 270.413 292.551C270.413 291.779 269.8 291.153 269.043 291.153C268.286 291.153 267.672 291.779 267.672 292.551Z" fill="white"/>
<path d="M267.672 301.475C267.672 302.247 268.285 302.873 269.043 302.873C269.8 302.873 270.413 302.247 270.413 301.475C270.413 300.703 269.8 300.078 269.043 300.078C268.286 300.078 267.672 300.703 267.672 301.475Z" fill="white"/>
<path d="M267.672 310.4C267.672 311.173 268.285 311.798 269.043 311.798C269.8 311.798 270.413 311.173 270.413 310.4C270.413 309.628 269.8 309.003 269.043 309.003C268.286 309.003 267.672 309.628 267.672 310.4Z" fill="white"/>
<path d="M267.672 319.325C267.672 320.097 268.285 320.723 269.043 320.723C269.8 320.723 270.413 320.097 270.413 319.325C270.413 318.553 269.8 317.927 269.043 317.927C268.286 317.927 267.672 318.553 267.672 319.325Z" fill="white"/>
<path d="M267.672 328.25C267.672 329.022 268.285 329.648 269.043 329.648C269.8 329.648 270.413 329.022 270.413 328.25C270.413 327.478 269.8 326.852 269.043 326.852C268.286 326.852 267.672 327.478 267.672 328.25Z" fill="white"/>
<path d="M267.672 337.175C267.672 337.947 268.285 338.573 269.043 338.573C269.8 338.573 270.413 337.947 270.413 337.175C270.413 336.403 269.8 335.777 269.043 335.777C268.286 335.777 267.672 336.403 267.672 337.175Z" fill="white"/>
<path d="M257.139 249.324C257.896 249.324 258.51 248.698 258.51 247.926C258.51 247.154 257.896 246.529 257.139 246.529C256.382 246.529 255.768 247.154 255.768 247.926C255.768 248.698 256.382 249.324 257.139 249.324Z" fill="white"/>
<path d="M257.139 258.249C257.896 258.249 258.51 257.623 258.51 256.851C258.51 256.079 257.896 255.453 257.139 255.453C256.382 255.453 255.768 256.079 255.768 256.851C255.768 257.623 256.382 258.249 257.139 258.249Z" fill="white"/>
<path d="M257.139 267.174C257.896 267.174 258.51 266.548 258.51 265.776C258.51 265.004 257.896 264.378 257.139 264.378C256.382 264.378 255.768 265.004 255.768 265.776C255.768 266.548 256.382 267.174 257.139 267.174Z" fill="white"/>
<path d="M257.139 276.099C257.896 276.099 258.51 275.473 258.51 274.701C258.51 273.929 257.896 273.303 257.139 273.303C256.382 273.303 255.768 273.929 255.768 274.701C255.768 275.473 256.382 276.099 257.139 276.099Z" fill="white"/>
<path d="M257.139 285.024C257.896 285.024 258.51 284.398 258.51 283.626C258.51 282.854 257.896 282.228 257.139 282.228C256.382 282.228 255.768 282.854 255.768 283.626C255.768 284.398 256.382 285.024 257.139 285.024Z" fill="white"/>
<path d="M255.768 292.551C255.768 293.323 256.381 293.948 257.139 293.948C257.896 293.948 258.51 293.323 258.51 292.551C258.51 291.779 257.896 291.153 257.139 291.153C256.381 291.153 255.768 291.779 255.768 292.551Z" fill="white"/>
<path d="M255.768 301.475C255.768 302.247 256.381 302.873 257.139 302.873C257.896 302.873 258.51 302.247 258.51 301.475C258.51 300.703 257.896 300.078 257.139 300.078C256.381 300.078 255.768 300.703 255.768 301.475Z" fill="white"/>
<path d="M257.139 311.798C257.896 311.798 258.51 311.172 258.51 310.4C258.51 309.628 257.896 309.003 257.139 309.003C256.382 309.003 255.768 309.628 255.768 310.4C255.768 311.172 256.382 311.798 257.139 311.798Z" fill="white"/>
<path d="M255.768 319.325C255.768 320.097 256.381 320.723 257.139 320.723C257.896 320.723 258.51 320.097 258.51 319.325C258.51 318.553 257.896 317.927 257.139 317.927C256.381 317.927 255.768 318.553 255.768 319.325Z" fill="white"/>
<path d="M257.139 329.648C257.896 329.648 258.51 329.022 258.51 328.25C258.51 327.478 257.896 326.852 257.139 326.852C256.382 326.852 255.768 327.478 255.768 328.25C255.768 329.022 256.382 329.648 257.139 329.648Z" fill="white"/>
<path d="M255.768 337.175C255.768 337.947 256.381 338.573 257.139 338.573C257.896 338.573 258.51 337.947 258.51 337.175C258.51 336.403 257.896 335.777 257.139 335.777C256.381 335.777 255.768 336.403 255.768 337.175Z" fill="white"/>
<path d="M243.863 247.926C243.863 248.698 244.477 249.324 245.234 249.324C245.991 249.324 246.605 248.698 246.605 247.926C246.605 247.154 245.991 246.529 245.234 246.529C244.477 246.529 243.863 247.154 243.863 247.926Z" fill="white"/>
<path d="M243.863 256.851C243.863 257.623 244.477 258.249 245.234 258.249C245.991 258.249 246.605 257.623 246.605 256.851C246.605 256.079 245.991 255.453 245.234 255.453C244.477 255.453 243.863 256.079 243.863 256.851Z" fill="white"/>
<path d="M243.863 265.776C243.863 266.548 244.477 267.174 245.234 267.174C245.991 267.174 246.605 266.548 246.605 265.776C246.605 265.004 245.991 264.378 245.234 264.378C244.477 264.378 243.863 265.004 243.863 265.776Z" fill="white"/>
<path d="M243.863 274.701C243.863 275.473 244.477 276.099 245.234 276.099C245.991 276.099 246.605 275.473 246.605 274.701C246.605 273.929 245.991 273.303 245.234 273.303C244.477 273.303 243.863 273.929 243.863 274.701Z" fill="white"/>
<path d="M243.863 283.626C243.863 284.398 244.477 285.024 245.234 285.024C245.991 285.024 246.605 284.398 246.605 283.626C246.605 282.854 245.991 282.228 245.234 282.228C244.477 282.228 243.863 282.854 243.863 283.626Z" fill="white"/>
<path d="M243.863 292.551C243.863 293.323 244.477 293.948 245.234 293.948C245.991 293.948 246.605 293.323 246.605 292.551C246.605 291.779 245.991 291.153 245.234 291.153C244.477 291.153 243.863 291.779 243.863 292.551Z" fill="white"/>
<path d="M243.863 301.475C243.863 302.247 244.477 302.873 245.234 302.873C245.991 302.873 246.605 302.247 246.605 301.475C246.605 300.703 245.991 300.078 245.234 300.078C244.477 300.078 243.863 300.703 243.863 301.475Z" fill="white"/>
<path d="M243.863 310.4C243.863 311.173 244.477 311.798 245.234 311.798C245.991 311.798 246.605 311.173 246.605 310.4C246.605 309.628 245.991 309.003 245.234 309.003C244.477 309.003 243.863 309.628 243.863 310.4Z" fill="white"/>
<path d="M243.863 319.325C243.863 320.097 244.477 320.723 245.234 320.723C245.991 320.723 246.605 320.097 246.605 319.325C246.605 318.553 245.991 317.927 245.234 317.927C244.477 317.927 243.863 318.553 243.863 319.325Z" fill="white"/>
<path d="M243.863 328.25C243.863 329.022 244.477 329.648 245.234 329.648C245.991 329.648 246.605 329.022 246.605 328.25C246.605 327.478 245.991 326.852 245.234 326.852C244.477 326.852 243.863 327.478 243.863 328.25Z" fill="white"/>
<path d="M243.863 337.175C243.863 337.947 244.477 338.573 245.234 338.573C245.991 338.573 246.605 337.947 246.605 337.175C246.605 336.403 245.991 335.777 245.234 335.777C244.477 335.777 243.863 336.403 243.863 337.175Z" fill="white"/>
</g>
<path d="M234.237 340.899H374.767C376.326 340.899 377.591 342.189 377.591 343.778V344.946C377.591 347.943 375.207 350.374 372.267 350.374H283.372C279.893 347.164 274.104 345.191 269.042 345.191C263.979 345.191 259.38 347.163 255.901 350.374H235.739C232.799 350.374 230.416 347.943 230.416 344.946V344.794C230.417 342.643 232.128 340.899 234.237 340.899Z" fill="#161B43"/>
<g opacity="0.3">
<path d="M257.139 343.47H232.791" stroke="#DDDFDE" stroke-width="1.0935" stroke-miterlimit="10" stroke-linecap="round" stroke-linejoin="round"/>
<path d="M372.363 343.47H297.346" stroke="#DDDFDE" stroke-width="1.0935" stroke-miterlimit="10" stroke-linecap="round" stroke-linejoin="round"/>
</g>
<path d="M175.748 365.493C175.748 368.395 145.942 370.746 109.173 370.746C72.4053 370.746 42.5985 368.395 42.5985 365.493C42.5985 362.592 72.4053 360.241 109.173 360.241C145.942 360.241 175.748 362.592 175.748 365.493Z" fill="#DDDFDE"/>
<path d="M150.948 381.449C150.948 383.073 134.265 384.389 113.687 384.389C93.1081 384.389 76.4258 383.073 76.4258 381.449C76.4258 379.826 93.1081 378.51 113.687 378.51C134.266 378.51 150.948 379.826 150.948 381.449Z" fill="#DDDFDE"/>
<path d="M58.4656 262.331V364.989" stroke="#4F2330" stroke-width="2.6861" stroke-miterlimit="10" stroke-linecap="round" stroke-linejoin="round"/>
<path d="M52.264 365.059H64.6672" stroke="#4F2330" stroke-width="2.6861" stroke-miterlimit="10" stroke-linecap="round" stroke-linejoin="round"/>
<path d="M66.4232 236.796C66.3359 236.588 66.1352 236.454 65.914 236.454H58.4656H57.3958H49.9474C49.7254 236.454 49.5247 236.588 49.4374 236.796L39.0407 261.543C38.884 261.915 39.1525 262.33 39.5499 262.33H57.395H58.4648H76.3099C76.7081 262.33 76.9765 261.915 76.8199 261.543L66.4232 236.796Z" fill="#E65552"/>
<path opacity="0.53" d="M51.1257 239.52L42.0558 259.864" stroke="#F9AA5B" stroke-width="0.9674" stroke-miterlimit="10"/>
<path d="M168.595 305.725H109.114V366.372H168.595V305.725Z" fill="#D7835F"/>
<path d="M168.595 305.725H109.114V317.122H168.595V305.725Z" fill="#F0A176"/>
<path opacity="0.53" d="M143.128 317.122H135.827V328.682H143.128V317.122Z" fill="#F0A176"/>
<path opacity="0.53" d="M143.128 354.339H135.827V366.142H143.128V354.339Z" fill="#F0A176"/>
<path d="M109.209 287.579H61.883V366.373H109.209V287.579Z" fill="#D7835F"/>
<path d="M109.209 287.579H61.883V302.386H109.209V287.579Z" fill="#F0A176"/>
<path opacity="0.53" d="M88.9473 302.385H83.1382V317.404H88.9473V302.385Z" fill="#F0A176"/>
<path opacity="0.53" d="M88.9473 350.739H83.1382V366.075H88.9473V350.739Z" fill="#F0A176"/>
<path d="M109.114 317.122V332.407" stroke="#692E40" stroke-width="0.3256" stroke-miterlimit="10" stroke-linecap="round" stroke-linejoin="round"/>
<path d="M139.271 332.224H90.1704V382.287H139.271V332.224Z" fill="#D7835F"/>
<path d="M139.271 332.224H90.1704V341.631H139.271V332.224Z" fill="#F0A176"/>
<path opacity="0.53" d="M118.249 341.631H112.222V351.173H118.249V341.631Z" fill="#F0A176"/>
<path opacity="0.53" d="M118.249 372.354H112.222V382.097H118.249V372.354Z" fill="#F0A176"/>
<path d="M160.729 286.434H134.602V313.073H160.729V286.434Z" fill="#D7835F"/>
<path d="M160.729 286.434H134.602V291.44H160.729V286.434Z" fill="#F0A176"/>
<path opacity="0.53" d="M149.543 291.439H146.337V296.517H149.543V291.439Z" fill="#F0A176"/>
<path opacity="0.53" d="M149.543 307.787H146.337V312.972H149.543V307.787Z" fill="#F0A176"/>
<path d="M139.271 341.631V366.143" stroke="#692E40" stroke-width="0.3256" stroke-miterlimit="10" stroke-linecap="round" stroke-linejoin="round"/>
<path d="M100.64 119.262C100.629 119.221 100.619 119.178 100.607 119.136C99.7658 115.975 97.1472 113.512 93.9722 113.014C92.1044 112.721 90.3361 113.078 88.8395 113.887C87.2467 109.681 83.254 106.693 78.5677 106.693C76.6118 106.693 74.7774 107.218 73.1854 108.13C70.7137 102.44 65.1364 98.4648 58.6402 98.4648C52.3048 98.4648 46.8515 102.25 44.2917 107.714C43.78 107.64 43.2619 107.589 42.7307 107.589C36.6457 107.589 31.7122 112.618 31.7122 118.823C31.7122 119.567 31.7848 120.292 31.9211 120.995C32.3169 123.021 34.0647 124.481 36.0917 124.481H96.4879C99.1832 124.481 101.306 121.925 100.64 119.262Z" fill="white"/>
<path d="M132.71 57.5862C132.702 57.5546 132.694 57.523 132.686 57.4913C132.052 55.1135 130.083 53.2606 127.694 52.8862C126.289 52.6657 124.959 52.9345 123.833 53.5427C122.635 50.3794 119.631 48.1313 116.105 48.1313C114.633 48.1313 113.254 48.5265 112.056 49.2121C110.198 44.9315 106.001 41.9404 101.114 41.9404C96.3484 41.9404 92.2455 44.7875 90.3198 48.8984C89.9354 48.8427 89.5454 48.8036 89.1447 48.8036C84.567 48.8036 80.8558 52.5875 80.8558 57.2551C80.8558 57.8142 80.9097 58.3608 81.0133 58.8891C81.3111 60.4142 82.6257 61.5116 84.1508 61.5116H129.586C131.615 61.5116 133.212 59.5896 132.71 57.5862Z" fill="white"/>
<path d="M295.993 73.142C296.001 73.1087 296.01 73.0754 296.019 73.0413C296.689 70.5262 298.773 68.5652 301.299 68.1691C302.786 67.9362 304.193 68.2199 305.384 68.8639C306.651 65.5167 309.829 63.1389 313.559 63.1389C315.116 63.1389 316.575 63.5565 317.843 64.282C319.809 59.7534 324.248 56.5894 329.419 56.5894C334.461 56.5894 338.802 59.6012 340.839 63.9501C341.246 63.891 341.659 63.8502 342.082 63.8502C346.925 63.8502 350.851 67.8538 350.851 72.7917C350.851 73.3833 350.794 73.9615 350.685 74.5198C350.37 76.133 348.979 77.2945 347.365 77.2945H299.297C297.152 77.2953 295.462 75.2611 295.993 73.142Z" fill="white"/>
<path opacity="0.41" d="M405.953 230.289V224.007C405.953 222.281 407.325 220.881 409.018 220.881H428.963" stroke="white" stroke-width="1.3026" stroke-miterlimit="10" stroke-linecap="round" stroke-linejoin="round"/>
<path opacity="0.41" d="M405.953 233.855V237.637" stroke="white" stroke-width="1.3026" stroke-miterlimit="10" stroke-linecap="round" stroke-linejoin="round"/>
<path d="M198.327 379.799C213.584 379.799 225.952 378.479 225.952 376.851C225.952 375.223 213.584 373.904 198.327 373.904C183.07 373.904 170.702 375.223 170.702 376.851C170.702 378.479 183.07 379.799 198.327 379.799Z" fill="#DDDFDE"/>
<path d="M197.349 264.984C199.785 265.168 201.581 262.921 202.428 261.581C202.316 261.521 202.22 261.46 202.144 261.399C200.951 260.443 200.951 258.097 200.951 258.097L193.897 258.726C193.897 258.726 194.537 261.008 193.079 262.312C193.054 262.333 193.022 262.349 192.995 262.37C193.737 263.39 195.155 264.818 197.349 264.984Z" fill="#F0A176"/>
<path d="M214.866 300.835C215.825 299.336 222.346 284.431 222.09 282.432C221.834 280.432 216.123 268.699 212.628 265.918C209.357 263.315 204.07 262.463 202.428 261.581C201.581 262.921 199.785 265.168 197.349 264.984C195.154 264.818 193.737 263.39 192.994 262.37C191.449 263.576 186.672 262.598 182.9 264.137C179.064 265.701 169.666 269.938 169.666 269.938C169.666 267.657 165.83 254.816 165.83 254.816C165.83 254.816 163.721 271.633 164.104 274.241C164.488 276.848 170.114 276.783 174.972 276.653C179.831 276.522 182.196 274.045 182.779 274.632C183.362 275.218 183.795 290.211 183.092 301.423C183.004 302.814 182.939 304.202 182.891 305.565C186.669 306.078 198.176 307.378 209.33 305.995C209.085 301.583 209.048 294.046 209.048 290.863C209.048 286.691 210.071 275.61 210.39 276.132C210.71 276.653 216.975 283.888 216.975 283.888C216.592 284.866 212.884 299.402 212.884 299.402L214.866 300.835Z" fill="#E65552"/>
<path d="M182.78 274.631V271.046" stroke="#692E40" stroke-width="0.3069" stroke-miterlimit="10" stroke-linecap="round" stroke-linejoin="round"/>
<path d="M210.391 276.13V273.458" stroke="#692E40" stroke-width="0.3069" stroke-miterlimit="10" stroke-linecap="round" stroke-linejoin="round"/>
<path d="M216.976 283.888C216.976 283.888 217.871 282.91 218.51 282.78" stroke="#692E40" stroke-width="0.3069" stroke-miterlimit="10" stroke-linecap="round" stroke-linejoin="round"/>
<path d="M193.897 258.726L200.951 258.097L201.387 260.323C201.387 260.323 199.405 262.376 197.642 262.376C195.878 262.376 194.022 260.237 194.022 260.237L193.897 258.726Z" fill="#D7835F"/>
<path d="M203.508 251.426C203.266 251.384 202.991 249.126 202.923 248.879C202.205 246.312 200.461 244.456 197.711 244.646C195.377 244.485 193.646 245.805 192.808 247.945C192.68 248.271 192.144 251.387 191.915 251.426C191.532 251.491 191.34 251.752 191.403 253.316C191.467 254.88 192.554 254.75 192.554 254.75C192.554 254.75 192.554 254.75 192.995 257.227C193.314 259.026 195.658 260.275 196.917 260.824C197.427 261.046 197.997 261.046 198.507 260.824C199.766 260.275 202.109 259.026 202.429 257.227C202.87 254.75 202.87 254.75 202.87 254.75C202.87 254.75 203.957 254.881 204.02 253.316C204.084 251.752 203.891 251.491 203.508 251.426Z" fill="#F0A176"/>
<path d="M209.624 308.983C209.503 308.443 209.408 307.364 209.331 305.994C198.177 307.378 186.67 306.077 182.892 305.564C182.553 315.183 183.092 323.584 183.092 323.584V373.407H187.824L194.563 327.737C194.971 324.974 195.62 322.254 196.506 319.61L197.03 318.044L197.765 320.699C198.297 322.621 198.71 324.574 199.001 326.549L205.916 373.406H210.647V323.91C210.647 323.692 210.64 323.474 210.624 323.257L209.624 308.983Z" fill="#161B43"/>
<path d="M210.646 373.407L218.169 376.992H205.916V373.407H210.646Z" fill="#4F2330"/>
<path d="M183.05 373.407L175.527 376.992H187.78V373.407H183.05Z" fill="#4F2330"/>
<path d="M191.915 251.426C191.915 251.426 191.361 250.1 191.915 247.319C192.469 244.537 193.023 243.321 196.518 242.408C200.013 241.496 200.78 244.451 200.908 244.451C201.036 244.451 203.405 246.102 204.032 248.405C204.659 250.708 203.151 250.772 202.911 253.316C202.911 253.316 202.57 250.658 202.058 249.314C201.546 247.97 199.842 247.276 199.842 247.276C199.842 247.276 197.199 249.883 195.026 250.448C192.852 251.013 192.468 253.316 192.468 253.316L191.915 251.426Z" fill="#4F2330"/>
<path d="M187.871 241.689L164.707 244.305L167.264 267.924L190.428 265.308L187.871 241.689Z" fill="#D7835F"/>
<path d="M187.871 241.689L164.707 244.305L165.188 248.743L188.352 246.127L187.871 241.689Z" fill="#F0A176"/>
<path opacity="0.53" d="M178.44 247.245L175.597 247.566L176.085 252.067L178.928 251.747L178.44 247.245Z" fill="#F0A176"/>
<path opacity="0.53" d="M180.005 261.746L177.162 262.067L177.66 266.664L180.504 266.343L180.005 261.746Z" fill="#F0A176"/>
<path d="M218.234 283.481L199.306 283.342L199.17 302.641L218.097 302.779L218.234 283.481Z" fill="#D7835F"/>
<path d="M218.234 283.481L199.307 283.342L199.281 286.969L218.208 287.107L218.234 283.481Z" fill="#F0A176"/>
<path opacity="0.53" d="M210.106 287.046L207.782 287.029L207.756 290.708L210.08 290.725L210.106 287.046Z" fill="#F0A176"/>
<path opacity="0.53" d="M210.023 298.89L207.699 298.873L207.673 302.629L209.996 302.646L210.023 298.89Z" fill="#F0A176"/>
</svg>
