<svg width="482" height="482" viewBox="0 0 482 482" fill="none" xmlns="http://www.w3.org/2000/svg">
<path d="M450.082 304.82H292.117V213.389H450.082V304.82ZM293.081 303.856H449.118V214.353H293.081V303.856Z" fill="#006F7E"/>
<path d="M417.498 262.139H313.256V265.196H417.498V262.139Z" fill="#F0F0F0"/>
<path d="M424.677 273.535H313.256V276.872H424.677V273.535Z" fill="#F0F0F0"/>
<path d="M424.677 285.064H313.256V288.401H424.677V285.064Z" fill="#F0F0F0"/>
<path d="M349.688 245.588H313.256V253.521H349.688V245.588Z" fill="#F0F0F0"/>
<path d="M449.6 213.87H292.599V228.426H449.6V213.87Z" fill="#006F7E"/>
<path d="M437.519 226.251C437.318 226.059 439.342 223.619 442.036 220.801C444.732 217.982 447.08 215.854 447.28 216.046C447.481 216.238 445.457 218.677 442.761 221.495C440.067 224.313 437.719 226.442 437.519 226.251Z" fill="white"/>
<path d="M447.281 226.25C447.081 226.442 444.733 224.313 442.038 221.495C439.341 218.676 437.318 216.236 437.519 216.046C437.719 215.855 440.066 217.982 442.762 220.801C445.458 223.619 447.482 226.059 447.281 226.25Z" fill="white"/>
<path d="M255.679 32.8281H98.678V123.295H255.679V32.8281Z" fill="white"/>
<path d="M223.576 81.0967H119.335V84.1545H223.576V81.0967Z" fill="#F0F0F0"/>
<path d="M230.756 92.4932H119.335V95.8286H230.756V92.4932Z" fill="#F0F0F0"/>
<path d="M230.756 104.021H119.335V107.357H230.756V104.021Z" fill="#F0F0F0"/>
<path d="M155.766 64.5459H119.335V72.4787H155.766V64.5459Z" fill="#F0F0F0"/>
<path d="M255.679 32.8281H98.678V47.3826H255.679V32.8281Z" fill="#006F7E"/>
<path d="M243.059 45.1392C242.859 44.9473 244.882 42.5074 247.577 39.6897C250.273 36.8709 252.62 34.7424 252.821 34.9333C253.021 35.1251 250.998 37.564 248.302 40.3828C245.608 43.2005 243.26 45.33 243.059 45.1392Z" fill="white"/>
<path d="M252.822 45.1393C252.621 45.3311 250.274 43.2016 247.578 40.3839C244.881 37.5651 242.86 35.1252 243.059 34.9344C243.26 34.7425 245.607 36.872 248.302 39.6907C251 42.5076 253.022 44.9474 252.822 45.1393Z" fill="white"/>
<path d="M196.217 200.888H38.2524V109.458H196.217V200.888ZM39.2164 199.924H195.253V110.422H39.2164V199.924Z" fill="#006F7E"/>
<path d="M163.632 158.207H59.3901V161.265H163.632V158.207Z" fill="white"/>
<path d="M170.812 169.604H59.3901V172.94H170.812V169.604Z" fill="#F0F0F0"/>
<path d="M170.812 181.133H59.3901V184.468H170.812V181.133Z" fill="#F0F0F0"/>
<path d="M95.8217 141.656H59.3901V149.59H95.8217V141.656Z" fill="white"/>
<path d="M195.735 109.939H38.7344V124.495H195.735V109.939Z" fill="#006F7E"/>
<path d="M378.521 221.84H193.14V387.798H378.521V221.84Z" fill="white"/>
<path d="M202.458 169.56H57.2432V320.435H202.458V169.56Z" fill="white"/>
<path d="M202.458 169.56H57.2432V185.999H202.458V169.56Z" fill="#006F7E"/>
<path d="M69.2352 177.611C69.2352 179.372 67.8702 180.798 66.1861 180.798C64.502 180.798 63.137 179.372 63.137 177.611C63.137 175.851 64.502 174.424 66.1861 174.424C67.8702 174.424 69.2352 175.851 69.2352 177.611Z" fill="white"/>
<path d="M81.6017 177.611C81.6017 179.372 80.2367 180.798 78.5526 180.798C76.8684 180.798 75.5034 179.372 75.5034 177.611C75.5034 175.851 76.8684 174.424 78.5526 174.424C80.2367 174.424 81.6017 175.851 81.6017 177.611Z" fill="white"/>
<path d="M93.9686 177.611C93.9686 179.372 92.6036 180.798 90.9195 180.798C89.2354 180.798 87.8704 179.372 87.8704 177.611C87.8704 175.851 89.2354 174.424 90.9195 174.424C92.6036 174.424 93.9686 175.851 93.9686 177.611Z" fill="white"/>
<path d="M429.352 65.8271H243.97V250.588H429.352V65.8271Z" fill="white"/>
<path d="M429.352 65.8271H243.97V87.4689H429.352V65.8271Z" fill="#006F7E"/>
<path d="M259.758 76.4253C259.758 78.7428 257.961 80.6216 255.744 80.6216C253.528 80.6216 251.731 78.7428 251.731 76.4253C251.731 74.1078 253.528 72.23 255.744 72.23C257.96 72.23 259.758 74.1088 259.758 76.4253Z" fill="white"/>
<path d="M274.864 73.5883C276.502 75.2271 276.559 77.826 274.992 79.3925C273.425 80.96 270.826 80.9021 269.188 79.2643C267.55 77.6255 267.491 75.0266 269.059 73.4591C270.625 71.8916 273.224 71.9495 274.864 73.5883Z" fill="white"/>
<path d="M292.32 76.4253C292.32 78.7428 290.523 80.6216 288.306 80.6216C286.089 80.6216 284.293 78.7428 284.293 76.4253C284.293 74.1078 286.089 72.23 288.306 72.23C290.523 72.23 292.32 74.1088 292.32 76.4253Z" fill="white"/>
<path d="M389.305 436.819C389.305 436.956 322.365 437.07 239.81 437.07C157.227 437.07 90.301 436.957 90.301 436.819C90.301 436.68 157.226 436.567 239.81 436.567C322.365 436.568 389.305 436.681 389.305 436.819Z" fill="#263238"/>
<path d="M324.077 318.807C309.185 308.402 305.807 289.09 306.396 271.731C306.494 268.833 306.175 265.778 307.553 263.235C308.933 260.693 312.149 258.956 314.743 260.176C316.894 261.189 317.832 263.692 319.037 265.762C320.638 268.517 323.025 270.796 325.833 272.253C327.678 273.21 329.961 273.796 331.783 272.792C334.282 271.412 334.576 267.959 334.559 265.077C334.525 259.706 334.492 254.333 334.459 248.963C334.44 246.081 334.433 243.138 335.328 240.403C336.225 237.669 338.205 235.127 340.946 234.359C343.689 233.592 347.078 235.172 347.658 237.993C347.899 239.168 347.66 240.386 347.74 241.582C347.82 242.779 348.377 244.102 349.513 244.436C350.663 244.774 351.817 243.957 352.678 243.113C355.653 240.204 357.672 236.455 359.558 232.727C361.445 228.999 363.275 225.183 365.975 222.008C368.674 218.834 372.407 216.32 376.534 216.086C380.662 215.852 385.06 218.399 386.103 222.452C387.149 226.515 384.779 230.637 382.199 233.926C378.372 238.806 373.845 243.122 368.804 246.695C367.896 247.339 366.911 248.036 366.564 249.104C365.938 251.025 367.758 252.934 369.655 253.565C371.803 254.28 374.134 254.058 376.381 254.322C378.628 254.586 381.063 255.578 381.913 257.701C383.093 260.647 380.629 263.735 378.205 265.757C373.351 269.806 367.808 273.006 361.895 275.172C359.775 275.948 357.544 276.629 355.834 278.118C354.125 279.608 353.093 282.198 354.126 284.228C355.16 286.26 357.811 286.91 360.032 286.497C362.252 286.085 364.239 284.88 366.356 284.081C370.317 282.586 375.432 282.859 377.969 286.282C379.636 288.532 379.783 291.665 378.94 294.347C378.097 297.029 376.387 299.34 374.571 301.47C368.223 308.918 360.096 314.913 350.908 318.099C341.721 321.284 333.208 322.146 324.077 318.807Z" fill="url(#paint0_linear_38_47)"/>
<path d="M381.94 218.499C381.946 218.505 381.851 218.599 381.66 218.772C381.447 218.962 381.164 219.215 380.804 219.536C380.049 220.203 378.936 221.187 377.537 222.493C374.737 225.097 370.802 229.015 366.529 234.375C364.384 237.046 362.156 240.07 359.822 243.36C357.494 246.656 355.028 250.193 352.576 254.008C350.124 257.822 347.668 261.909 345.466 266.325C344.355 268.528 343.364 270.834 342.353 273.184C341.347 275.535 340.327 277.919 339.295 280.331C335.2 289.996 331.598 299.339 329.025 308.066C326.436 316.785 324.896 324.866 324.222 331.714C323.531 338.564 323.672 344.155 323.952 347.992C324.102 349.91 324.25 351.399 324.385 352.404C324.441 352.886 324.484 353.265 324.518 353.55C324.545 353.808 324.554 353.942 324.546 353.944C324.536 353.945 324.509 353.815 324.464 353.559C324.419 353.276 324.357 352.898 324.279 352.419C324.109 351.418 323.929 349.93 323.746 348.009C323.403 344.169 323.203 338.558 323.849 331.678C324.477 324.801 325.986 316.679 328.558 307.925C331.113 299.164 334.71 289.793 338.809 280.121C339.843 277.707 340.864 275.322 341.871 272.971C342.881 270.627 343.883 268.302 345.003 266.088C347.225 261.65 349.699 257.553 352.169 253.739C354.638 249.92 357.121 246.387 359.466 243.101C361.819 239.817 364.07 236.799 366.239 234.136C370.561 228.789 374.551 224.899 377.399 222.34C378.821 221.055 379.956 220.095 380.735 219.454C381.11 219.15 381.403 218.911 381.624 218.731C381.827 218.57 381.934 218.491 381.94 218.499Z" fill="#263238"/>
<path d="M345.154 266.067C345.118 266.073 345.02 265.635 344.873 264.838C344.721 264.042 344.54 262.883 344.338 261.447C343.93 258.577 343.503 254.596 343.048 250.204C342.593 245.809 342.11 241.845 341.661 238.99C341.44 237.562 341.249 236.407 341.107 235.611C340.969 234.814 340.911 234.368 340.946 234.359C340.982 234.352 341.109 234.782 341.309 235.567C341.513 236.352 341.761 237.499 342.029 238.924C342.575 241.774 343.12 245.747 343.574 250.146C344.012 254.481 344.407 258.403 344.71 261.4C344.854 262.752 344.978 263.893 345.077 264.807C345.161 265.613 345.192 266.063 345.154 266.067Z" fill="#263238"/>
<path d="M382.209 259.143C382.21 259.179 381.682 259.241 380.731 259.32C379.78 259.405 378.404 259.52 376.708 259.716C373.314 260.083 368.644 260.753 363.523 261.718C358.403 262.692 353.807 263.771 350.505 264.647C348.85 265.073 347.521 265.455 346.6 265.713C345.681 265.975 345.167 266.103 345.154 266.068C345.143 266.032 345.636 265.838 346.539 265.514C347.443 265.195 348.76 264.757 350.406 264.282C353.691 263.309 358.291 262.169 363.426 261.19C368.561 260.223 373.258 259.609 376.671 259.339C378.378 259.191 379.762 259.132 380.719 259.113C381.677 259.096 382.207 259.105 382.209 259.143Z" fill="#263238"/>
<path d="M329.014 307.242C328.997 307.25 328.911 307.095 328.759 306.79C328.588 306.428 328.379 305.985 328.126 305.449C327.581 304.283 326.836 302.575 325.944 300.451C324.156 296.206 321.871 290.265 319.439 283.675C317.004 277.083 314.778 271.128 313.081 266.853C312.25 264.774 311.565 263.064 311.057 261.794C310.839 261.242 310.66 260.787 310.513 260.413C310.394 260.096 310.339 259.925 310.357 259.917C310.374 259.91 310.46 260.065 310.611 260.37C310.783 260.732 310.992 261.174 311.244 261.71C311.789 262.876 312.534 264.584 313.427 266.708C315.215 270.953 317.5 276.894 319.933 283.487C322.366 290.077 324.593 296.031 326.29 300.307C327.122 302.385 327.805 304.096 328.314 305.365C328.532 305.917 328.71 306.373 328.858 306.746C328.976 307.065 329.031 307.235 329.014 307.242Z" fill="#263238"/>
<path d="M378.253 291.373C378.258 291.391 378.089 291.46 377.764 291.575C377.38 291.704 376.906 291.862 376.335 292.054C375.014 292.482 373.231 293.06 371.062 293.762C366.61 295.206 360.484 297.271 353.718 299.561C346.95 301.854 340.8 303.864 336.316 305.215C334.075 305.892 332.256 306.421 330.992 306.76C330.408 306.914 329.926 307.04 329.533 307.144C329.198 307.226 329.02 307.26 329.015 307.242C329.01 307.225 329.179 307.156 329.504 307.04C329.887 306.912 330.36 306.754 330.933 306.562C332.254 306.134 334.036 305.556 336.205 304.853C340.657 303.41 346.784 301.344 353.551 299.052C360.318 296.761 366.467 294.751 370.951 293.399C373.192 292.723 375.011 292.193 376.276 291.853C376.86 291.7 377.341 291.573 377.734 291.47C378.069 291.389 378.247 291.356 378.253 291.373Z" fill="#263238"/>
<path d="M358.166 57.5302L353.199 59.3069L351.075 52.8201C347.157 40.8549 334.654 34.453 323.218 38.5442C311.776 42.6374 305.658 55.7006 309.576 67.6657L311.7 74.1525L306.716 75.9349C302.84 77.3211 300.743 81.7883 302.07 85.8439L315.89 128.058C317.238 132.176 321.517 134.371 325.392 132.984L376.845 114.579C380.783 113.17 382.882 108.693 381.534 104.576L367.714 62.3618C366.384 58.3062 362.103 56.1209 358.166 57.5302ZM318.95 64.311C316.803 57.7539 320.154 50.5933 326.428 48.3491C332.696 46.1068 339.544 49.6187 341.691 56.1758L343.814 62.6635L321.073 70.7978L318.95 64.311ZM347.879 101.765L351.408 112.546C351.556 113.002 351.296 113.467 350.855 113.625L345.918 115.391C345.54 115.526 345.056 115.327 344.907 114.871L341.378 104.09C337.554 103.928 334.005 101.394 332.676 97.3386C330.97 92.1243 333.639 86.4232 338.643 84.6331C343.645 82.8439 349.095 85.6395 350.802 90.8547C352.13 94.9103 350.81 99.1876 347.879 101.765Z" fill="url(#paint1_linear_38_47)"/>
<path d="M352.982 59.1903C353.029 59.3204 343.776 62.7851 332.316 66.9264C320.853 71.0697 311.525 74.3222 311.478 74.1921C311.43 74.0619 320.682 70.5983 332.146 66.455C343.604 62.3137 352.935 59.0602 352.982 59.1903Z" fill="#263238"/>
<path d="M363.908 60.9669C363.917 60.964 363.954 61.0498 364.019 61.2194C364.092 61.4161 364.185 61.6648 364.299 61.9752C364.547 62.678 364.891 63.6555 365.329 64.8971C366.215 67.4777 367.476 71.1496 369.028 75.6727C370.575 80.2392 372.413 85.6588 374.452 91.6751C375.46 94.6953 376.56 97.8331 377.615 101.147C378.103 102.813 378.508 104.594 378.338 106.438C378.252 107.353 378.004 108.273 377.558 109.106C377.104 109.933 376.471 110.661 375.736 111.254C374.255 112.439 372.519 113.131 370.844 113.752C369.162 114.356 367.503 114.952 365.875 115.537C362.616 116.702 359.474 117.827 356.478 118.9C350.494 121.031 345.101 122.951 340.559 124.569C336.047 126.155 332.385 127.443 329.812 128.349C328.568 128.775 327.586 129.111 326.883 129.352C326.568 129.454 326.316 129.536 326.116 129.601C325.942 129.655 325.852 129.678 325.849 129.669C325.846 129.662 325.931 129.622 326.099 129.553C326.295 129.475 326.541 129.378 326.848 129.257C327.546 128.994 328.516 128.628 329.747 128.164C332.307 127.223 335.951 125.884 340.44 124.234C344.971 122.588 350.351 120.634 356.323 118.466C359.315 117.384 362.454 116.25 365.709 115.074C367.336 114.487 368.992 113.89 370.672 113.283C372.335 112.667 374.023 111.984 375.421 110.864C376.114 110.304 376.698 109.63 377.119 108.868C377.529 108.101 377.761 107.251 377.843 106.391C378.006 104.658 377.623 102.928 377.145 101.287C376.106 98.0057 375.007 94.8399 374.015 91.8235C372.014 85.7957 370.212 80.3625 368.692 75.7864C367.204 71.2421 365.994 67.5529 365.145 64.9607C364.745 63.7066 364.43 62.7185 364.205 62.0089C364.108 61.6918 364.032 61.4383 363.973 61.2368C363.921 61.0604 363.899 60.9698 363.908 60.9669Z" fill="#263238"/>
<path d="M336.766 47.6734C336.741 47.7158 336.254 47.4141 335.307 47.0324C334.357 46.6699 332.92 46.2467 331.099 46.1889C329.29 46.1224 327.088 46.4019 324.89 47.3621C322.7 48.3106 320.542 49.9947 318.998 52.2862C317.423 54.5689 316.733 57.2103 316.732 59.6058C316.712 62.012 317.223 64.1549 317.714 65.9133C318.222 67.6735 318.741 69.0704 319.084 70.0402C319.43 71.0099 319.617 71.5488 319.583 71.5623C319.552 71.5739 319.304 71.0601 318.901 70.1115C318.503 69.161 317.932 67.7805 317.375 66.0155C316.835 64.2523 316.276 62.0823 316.27 59.6029C316.244 57.137 316.949 54.3665 318.581 52.0037C320.184 49.6284 322.429 47.8961 324.707 46.9369C326.992 45.9681 329.263 45.7194 331.116 45.8331C332.983 45.9382 334.441 46.427 335.384 46.8521C335.851 47.0806 336.207 47.2676 336.432 47.4247C336.661 47.5741 336.776 47.658 336.766 47.6734Z" fill="#263238"/>
<path d="M337.204 85.3945C337.198 85.382 337.365 85.2991 337.693 85.1516C338.018 85.0003 338.515 84.8065 339.18 84.6166C339.841 84.4093 340.687 84.259 341.686 84.2002C342.682 84.151 343.855 84.2541 345.068 84.7043C347.531 85.57 349.801 88.088 350.915 91.4244C351.451 93.1094 351.498 95.0664 350.96 96.9587C350.385 98.8433 349.33 100.651 347.807 102.17L347.871 101.915C349.151 105.428 350.545 109.253 351.997 113.231L352.084 113.473L351.841 113.555C351.142 113.789 350.392 114.041 349.637 114.293C348.013 114.837 346.411 115.373 344.84 115.899L344.603 115.978L344.525 115.74C343.204 111.744 341.757 107.975 340.706 104.374L340.915 104.538C338.941 104.406 337.168 103.578 335.755 102.498C334.337 101.408 333.251 100.054 332.518 98.6303C331.798 97.2016 331.436 95.6852 331.496 94.2884C331.532 92.8925 331.854 91.6287 332.305 90.5635C333.205 88.4148 334.544 87.0632 335.537 86.3258C336.549 85.5864 337.204 85.3945 337.204 85.3945C337.227 85.4379 336.592 85.6799 335.627 86.4424C334.681 87.204 333.403 88.5574 332.562 90.6686C331.723 92.7287 331.358 95.6901 332.86 98.4539C333.58 99.8198 334.642 101.118 336.014 102.159C337.38 103.188 339.084 103.964 340.939 104.078L341.102 104.087L341.147 104.242C342.21 107.818 343.665 111.571 344.997 115.584L344.681 115.426C346.251 114.9 347.853 114.362 349.477 113.817C350.232 113.565 350.981 113.313 351.681 113.079L351.524 113.402C350.083 109.419 348.697 105.591 347.425 102.076L347.373 101.934L347.488 101.82C348.93 100.394 349.981 98.6264 350.534 96.8334C351.061 95.0239 351.03 93.1644 350.531 91.541C349.477 88.3029 347.311 85.8409 344.961 84.9762C343.802 84.5231 342.666 84.3997 341.691 84.4257C340.713 84.4604 339.877 84.5848 339.218 84.766C337.895 85.1073 337.222 85.437 337.204 85.3945Z" fill="#263238"/>
<path d="M307.412 363.735L211.126 363.289C199.546 363.236 190.2 353.807 190.249 342.227L191.27 100.837C191.319 89.2502 200.753 79.8984 212.34 79.9524L308.625 80.3968C320.206 80.4508 329.551 89.8797 329.502 101.459L328.481 342.849C328.434 354.436 318.999 363.789 307.412 363.735Z" fill="#455A64"/>
<path d="M308.488 88.7278L289.82 88.642C287.317 88.6304 285.278 90.7435 285.268 93.3598L285.252 96.7463C285.241 99.3636 283.203 101.476 280.699 101.464L244.311 101.296C241.807 101.285 239.787 99.1534 239.797 96.5362L239.812 93.1496C239.823 90.5324 237.802 88.401 235.298 88.3894L228.733 88.3586L212.394 88.2834C204.28 88.2458 197.672 94.7952 197.637 102.91L196.641 338.523C196.606 346.634 203.152 353.238 211.262 353.275L307.356 353.719C315.47 353.756 322.077 347.207 322.113 339.092L323.108 103.478C323.143 95.3688 316.599 88.7663 308.488 88.7278Z" fill="white"/>
<path d="M295.556 322.289L224.101 321.96C223.361 321.956 222.764 321.151 222.769 320.161L222.848 301.467C222.852 300.477 223.456 299.678 224.195 299.681L295.651 300.011C296.391 300.015 296.988 300.82 296.983 301.81L296.904 320.503C296.9 321.493 296.297 322.293 295.556 322.289Z" fill="#222B3D"/>
<path d="M241.775 312.535C241.981 312.535 242.205 312.469 242.447 312.337C242.697 312.205 242.822 312.006 242.822 311.742C242.822 311.316 242.385 310.948 241.511 310.64C241.298 310.566 241.121 310.497 240.982 310.43C240.849 310.364 240.703 310.273 240.541 310.155C240.379 310.037 240.258 309.894 240.177 309.725C240.096 309.556 240.056 309.358 240.056 309.13C240.056 308.719 240.207 308.395 240.508 308.16C240.809 307.918 241.173 307.796 241.599 307.796C241.849 307.796 242.102 307.852 242.359 307.962C242.624 308.072 242.774 308.127 242.811 308.127C242.899 308.127 242.943 308.054 242.943 307.907H243.197V309.229H242.954C242.91 308.921 242.76 308.66 242.503 308.447C242.253 308.234 241.963 308.127 241.632 308.127C241.397 308.127 241.198 308.182 241.037 308.292C240.883 308.403 240.805 308.553 240.805 308.744C240.805 308.854 240.827 308.957 240.871 309.053C240.916 309.141 240.96 309.215 241.004 309.273C241.048 309.325 241.129 309.383 241.246 309.45C241.371 309.516 241.463 309.563 241.522 309.593C241.588 309.615 241.702 309.655 241.863 309.714C242.032 309.773 242.146 309.813 242.205 309.835C242.587 309.982 242.914 310.192 243.186 310.464C243.458 310.728 243.594 311.037 243.594 311.389C243.594 311.837 243.414 312.197 243.054 312.469C242.694 312.734 242.238 312.866 241.687 312.866C241.423 312.866 241.165 312.804 240.916 312.679C240.666 312.554 240.526 312.491 240.497 312.491C240.453 312.491 240.401 312.521 240.342 312.58C240.284 312.638 240.254 312.697 240.254 312.756H239.99V311.202H240.232C240.284 311.577 240.456 311.893 240.75 312.15C241.052 312.407 241.393 312.535 241.775 312.535ZM244.302 312.756V312.524C244.699 312.524 244.93 312.451 244.996 312.304V308.579C244.541 308.542 244.309 308.524 244.302 308.524V308.27C244.442 308.27 244.713 308.193 245.118 308.039C245.529 307.877 245.819 307.796 245.988 307.796V312.304C246.054 312.451 246.286 312.524 246.682 312.524V312.756H244.302ZM245.459 307.091C245.298 307.091 245.154 307.032 245.029 306.915C244.912 306.79 244.853 306.632 244.853 306.441C244.853 306.272 244.904 306.125 245.007 306C245.118 305.875 245.257 305.813 245.426 305.813C245.588 305.813 245.731 305.875 245.856 306C245.981 306.125 246.043 306.283 246.043 306.474C246.043 306.643 245.988 306.79 245.878 306.915C245.768 307.032 245.628 307.091 245.459 307.091ZM251.837 307.796V312.436C251.837 313.193 251.653 313.803 251.286 314.266C250.926 314.729 250.397 314.96 249.699 314.96C249.074 314.96 248.571 314.853 248.189 314.64C247.814 314.427 247.627 314.203 247.627 313.968C247.627 313.799 247.671 313.663 247.759 313.56C247.847 313.465 247.961 313.417 248.101 313.417C248.233 313.417 248.347 313.45 248.442 313.516C248.545 313.582 248.597 313.678 248.597 313.803C248.597 314.038 248.505 314.192 248.321 314.266C248.52 314.464 248.942 314.563 249.589 314.563C250.345 314.563 250.761 313.887 250.834 312.535C250.496 312.756 250.063 312.866 249.534 312.866C249.291 312.866 249.049 312.829 248.806 312.756C248.571 312.675 248.332 312.546 248.09 312.37C247.855 312.194 247.66 311.933 247.506 311.588C247.359 311.235 247.285 310.824 247.285 310.353C247.285 309.53 247.513 308.899 247.969 308.458C248.431 308.017 249.034 307.796 249.776 307.796C250.239 307.796 250.643 307.914 250.988 308.149C251.363 307.914 251.646 307.796 251.837 307.796ZM250.845 312.172V312.04V308.403C250.58 308.248 250.246 308.171 249.842 308.171C249.438 308.171 249.085 308.366 248.784 308.755C248.483 309.137 248.332 309.67 248.332 310.353C248.332 311 248.453 311.518 248.696 311.907C248.938 312.297 249.254 312.491 249.644 312.491C250.129 312.491 250.529 312.385 250.845 312.172ZM252.923 312.756V312.524C253.32 312.524 253.551 312.451 253.617 312.304V308.579C253.162 308.542 252.93 308.524 252.923 308.524V308.27C253.062 308.27 253.334 308.193 253.738 308.039C254.15 307.877 254.44 307.796 254.609 307.796V308.303C255.006 307.965 255.443 307.796 255.92 307.796C256.604 307.796 257.096 307.925 257.397 308.182C257.706 308.432 257.86 308.825 257.86 309.361V312.304C257.926 312.451 258.158 312.524 258.554 312.524V312.756H256.174V312.524C256.571 312.524 256.802 312.451 256.868 312.304V309.284C256.868 308.542 256.53 308.171 255.854 308.171C255.391 308.171 254.976 308.333 254.609 308.656V312.304C254.675 312.451 254.907 312.524 255.303 312.524V312.756H252.923ZM266.51 312.084C266.51 312.084 266.741 312.102 267.204 312.139V312.392C267.064 312.392 266.789 312.473 266.377 312.635C265.973 312.789 265.687 312.866 265.518 312.866V312.359C265.121 312.697 264.684 312.866 264.206 312.866C263.523 312.866 263.027 312.741 262.718 312.491C262.417 312.234 262.267 311.837 262.267 311.301V308.359C262.2 308.212 261.969 308.138 261.572 308.138V307.907H263.258V311.378C263.258 312.12 263.596 312.491 264.272 312.491C264.735 312.491 265.15 312.33 265.518 312.006V308.359C265.452 308.212 265.22 308.138 264.823 308.138V307.907H266.51V312.084ZM267.687 314.872V314.64C268.083 314.64 268.315 314.567 268.381 314.42V308.579C268.381 308.579 268.149 308.561 267.687 308.524V308.27C267.826 308.27 268.098 308.193 268.502 308.039C268.914 307.877 269.204 307.796 269.373 307.796V308.16C269.725 307.918 270.166 307.796 270.695 307.796C270.938 307.796 271.177 307.841 271.412 307.929C271.654 308.01 271.893 308.142 272.128 308.325C272.37 308.502 272.565 308.766 272.712 309.119C272.866 309.472 272.944 309.883 272.944 310.353C272.944 311.169 272.716 311.793 272.26 312.227C271.805 312.653 271.202 312.866 270.453 312.866C270.027 312.866 269.667 312.785 269.373 312.624V314.42C269.439 314.567 269.67 314.64 270.067 314.64V314.872H267.687ZM269.373 312.271C269.652 312.418 269.99 312.491 270.387 312.491C270.791 312.491 271.143 312.304 271.445 311.929C271.746 311.555 271.897 311.029 271.897 310.353C271.897 309.905 271.764 309.431 271.5 308.932C271.243 308.425 270.938 308.171 270.585 308.171C270.078 308.171 269.674 308.289 269.373 308.524V312.271Z" fill="white"/>
<path d="M238.341 157.97L213.55 157.855L213.529 162.405L238.32 162.519L238.341 157.97Z" fill="#E8505B"/>
<path opacity="0.1" d="M238.341 157.97L213.55 157.855L213.529 162.405L238.32 162.519L238.341 157.97Z" fill="black"/>
<path d="M311.04 185.885C311.036 185.866 311.247 185.896 311.606 185.752C311.944 185.621 312.478 185.209 312.54 184.454C312.537 182.917 312.532 180.682 312.527 177.813C312.527 176.368 312.526 174.765 312.525 173.011C312.526 172.571 312.526 172.124 312.526 171.666C312.538 171.197 312.537 170.763 312.256 170.403C312.002 170.045 311.568 169.817 311.115 169.815C310.621 169.814 310.117 169.813 309.606 169.812C305.504 169.804 300.837 169.795 295.682 169.785C275.03 169.708 246.53 169.603 215.051 169.486C214.636 169.483 214.23 169.687 213.989 170.023C213.721 170.364 213.733 170.766 213.738 171.283C213.735 172.262 213.73 173.236 213.726 174.209C213.717 176.153 213.709 178.084 213.701 180.001C213.697 180.96 213.692 181.914 213.687 182.866C213.703 183.322 213.643 183.867 213.728 184.221C213.823 184.608 214.116 184.935 214.481 185.09C214.671 185.167 214.848 185.194 215.077 185.192L215.783 185.196L217.19 185.202C218.126 185.207 219.058 185.212 219.986 185.217C227.41 185.256 234.572 185.295 241.395 185.331C255.034 185.413 267.32 185.489 277.643 185.551C287.947 185.632 296.293 185.699 302.081 185.744C304.951 185.778 307.187 185.804 308.724 185.822C309.471 185.837 310.044 185.847 310.452 185.855C310.84 185.867 311.04 185.885 311.04 185.885C311.04 185.885 310.84 185.901 310.451 185.907C310.043 185.911 309.47 185.917 308.724 185.924C307.185 185.928 304.949 185.934 302.079 185.941C296.29 185.933 287.945 185.922 277.64 185.908C267.317 185.875 255.032 185.837 241.391 185.794C234.569 185.767 227.407 185.739 219.983 185.71C219.055 185.707 218.123 185.703 217.187 185.699L215.779 185.693L215.074 185.69C214.833 185.695 214.534 185.657 214.287 185.549C213.783 185.337 213.381 184.886 213.246 184.349C213.17 184.076 213.187 183.801 213.186 183.578L213.189 182.866C213.193 181.914 213.197 180.959 213.201 180.001C213.208 178.083 213.216 176.152 213.224 174.209C213.228 173.237 213.231 172.262 213.235 171.283C213.243 171.033 213.221 170.813 213.26 170.513C213.303 170.231 213.412 169.959 213.582 169.729C213.913 169.264 214.482 168.979 215.052 168.986C246.53 169.159 275.03 169.318 295.681 169.431C300.838 169.469 305.504 169.503 309.606 169.533C310.117 169.536 310.622 169.54 311.115 169.545C311.655 169.55 312.169 169.828 312.464 170.252C312.795 170.667 312.792 171.236 312.772 171.668C312.768 172.126 312.766 172.574 312.762 173.013C312.745 174.767 312.732 176.37 312.719 177.814C312.684 180.687 312.657 182.924 312.637 184.463C312.554 185.267 311.976 185.68 311.62 185.8C311.247 185.933 311.04 185.885 311.04 185.885Z" fill="#E0E0E0"/>
<path d="M265.553 175.561L220.204 175.352L220.184 179.604L265.534 179.813L265.553 175.561Z" fill="#E8505B"/>
<path opacity="0.2" d="M265.553 175.561L220.204 175.352L220.184 179.604L265.534 179.813L265.553 175.561Z" fill="white"/>
<path d="M238.166 199.483L213.375 199.369L213.354 203.918L238.145 204.032L238.166 199.483Z" fill="#E8505B"/>
<path opacity="0.1" d="M238.166 199.483L213.375 199.369L213.354 203.918L238.145 204.032L238.166 199.483Z" fill="black"/>
<path d="M310.404 227.396C310.402 227.378 310.606 227.397 310.976 227.288C311.326 227.173 311.89 226.884 312.197 226.195C312.362 225.856 312.378 225.445 312.364 224.973C312.362 224.505 312.36 223.994 312.358 223.441C312.356 222.332 312.353 221.054 312.35 219.62C312.35 218.181 312.349 216.582 312.349 214.835C312.349 214.397 312.349 213.951 312.349 213.495C312.371 213.034 312.315 212.607 312.068 212.222C311.837 211.844 311.46 211.545 311.02 211.411C310.589 211.274 310.073 211.348 309.563 211.328C305.476 211.32 300.826 211.31 295.686 211.301C275.106 211.225 246.705 211.119 215.336 211.003C214.465 210.982 213.66 211.692 213.576 212.554C213.547 213.471 213.56 214.484 213.551 215.44C213.542 217.377 213.533 219.302 213.526 221.212C213.522 222.167 213.517 223.119 213.513 224.067C213.53 224.54 213.462 225.035 213.574 225.413C213.683 225.812 213.937 226.168 214.278 226.401C214.631 226.639 215.014 226.727 215.477 226.709L216.879 226.716C217.813 226.721 218.741 226.726 219.666 226.731C227.065 226.769 234.202 226.808 241 226.843C254.593 226.926 266.835 227.001 277.123 227.064C287.391 227.145 295.707 227.211 301.475 227.256C304.337 227.29 306.563 227.316 308.096 227.334C308.839 227.348 309.411 227.359 309.818 227.367C310.205 227.377 310.404 227.396 310.404 227.396C310.404 227.396 310.205 227.412 309.817 227.418C309.411 227.422 308.838 227.427 308.095 227.435C306.563 227.439 304.336 227.445 301.474 227.453C295.707 227.445 287.39 227.433 277.121 227.42C266.833 227.388 254.591 227.349 240.998 227.307C234.199 227.28 227.062 227.252 219.664 227.223C218.739 227.219 217.811 227.215 216.877 227.212L215.475 227.206C215.003 227.231 214.424 227.117 213.998 226.812C213.561 226.514 213.235 226.058 213.095 225.545C212.951 225.005 213.037 224.535 213.016 224.065C213.02 223.117 213.022 222.165 213.026 221.21C213.034 219.299 213.043 217.375 213.049 215.437C213.061 214.456 213.042 213.525 213.077 212.494C213.184 211.385 214.22 210.472 215.338 210.5C246.707 210.673 275.107 210.83 295.687 210.944C300.826 210.982 305.475 211.015 309.563 211.046C310.068 211.073 310.578 210.991 311.099 211.151C311.603 211.308 312.028 211.654 312.289 212.085C312.565 212.509 312.625 213.049 312.597 213.495C312.593 213.951 312.59 214.397 312.587 214.836C312.571 216.583 312.557 218.182 312.544 219.621C312.529 221.056 312.516 222.333 312.505 223.442C312.498 223.995 312.492 224.506 312.487 224.973C312.496 225.433 312.468 225.889 312.288 226.237C311.948 226.953 311.353 227.235 310.988 227.337C310.606 227.432 310.404 227.396 310.404 227.396Z" fill="#E0E0E0"/>
<path d="M237.979 242.783L213.188 242.669L213.167 247.219L237.959 247.333L237.979 242.783Z" fill="#E8505B"/>
<path opacity="0.1" d="M237.979 242.783L213.188 242.669L213.167 247.219L237.959 247.333L237.979 242.783Z" fill="#006F7E"/>
<path d="M310.22 270.692C310.219 270.674 310.423 270.693 310.791 270.585C311.142 270.47 311.705 270.18 312.013 269.491C312.178 269.152 312.194 268.74 312.18 268.269C312.178 267.801 312.176 267.29 312.174 266.737C312.172 265.628 312.17 264.35 312.167 262.916C312.166 261.477 312.166 259.878 312.165 258.13C312.165 257.693 312.166 257.246 312.166 256.789C312.186 256.328 312.131 255.902 311.885 255.517C311.652 255.139 311.276 254.84 310.837 254.705C310.406 254.569 309.89 254.643 309.379 254.622C305.293 254.613 300.641 254.604 295.502 254.595C274.922 254.519 246.521 254.414 215.153 254.297C214.28 254.276 213.476 254.986 213.393 255.848C213.364 256.765 213.377 257.778 213.368 258.734C213.36 260.671 213.351 262.596 213.343 264.506C213.34 265.461 213.335 266.411 213.331 267.361C213.347 267.833 213.279 268.328 213.391 268.707C213.5 269.106 213.754 269.462 214.094 269.695C214.448 269.933 214.831 270.022 215.294 270.003L216.696 270.01C217.629 270.015 218.558 270.02 219.483 270.025C226.881 270.064 234.017 270.102 240.816 270.137C254.41 270.221 266.652 270.295 276.94 270.358C287.208 270.439 295.524 270.505 301.292 270.55C304.153 270.584 306.381 270.611 307.913 270.628C308.656 270.642 309.229 270.652 309.635 270.661C310.021 270.674 310.22 270.692 310.22 270.692C310.22 270.692 310.021 270.708 309.634 270.714C309.227 270.718 308.655 270.723 307.912 270.731C306.379 270.735 304.151 270.741 301.29 270.749C295.523 270.74 287.207 270.729 276.937 270.716C266.649 270.684 254.407 270.645 240.814 270.603C234.014 270.576 226.878 270.548 219.48 270.519C218.555 270.515 217.626 270.51 216.693 270.507L215.291 270.501C214.819 270.526 214.24 270.411 213.814 270.107C213.377 269.808 213.051 269.353 212.911 268.84C212.768 268.3 212.853 267.83 212.831 267.36C212.835 266.412 212.839 265.46 212.843 264.506C212.851 262.595 212.858 260.67 212.866 258.733C212.878 257.753 212.858 256.822 212.894 255.79C213.001 254.681 214.036 253.768 215.155 253.797C246.523 253.97 274.923 254.127 295.503 254.241C300.641 254.279 305.292 254.312 309.38 254.342C309.884 254.368 310.394 254.287 310.916 254.447C311.419 254.604 311.844 254.95 312.105 255.382C312.382 255.806 312.442 256.346 312.414 256.792C312.41 257.248 312.406 257.694 312.402 258.132C312.387 259.88 312.373 261.479 312.361 262.917C312.345 264.352 312.333 265.63 312.321 266.739C312.315 267.291 312.308 267.803 312.302 268.27C312.311 268.731 312.283 269.186 312.102 269.534C311.763 270.249 311.167 270.532 310.804 270.634C310.423 270.727 310.22 270.692 310.22 270.692Z" fill="#E0E0E0"/>
<path d="M265.379 217.074L220.029 216.865L220.009 221.117L265.36 221.326L265.379 217.074Z" fill="#E8505B"/>
<path opacity="0.2" d="M265.379 217.074L220.029 216.865L220.009 221.117L265.36 221.326L265.379 217.074Z" fill="white"/>
<path d="M224.141 262.822C224.136 263.99 223.245 264.933 222.15 264.928C221.055 264.922 220.171 263.972 220.176 262.804C220.181 261.637 221.073 260.693 222.168 260.699C223.263 260.704 224.146 261.654 224.141 262.822Z" fill="#E8505B"/>
<path d="M230.285 262.851C230.28 264.019 229.388 264.961 228.293 264.957C227.198 264.952 226.315 264.001 226.32 262.833C226.325 261.666 227.216 260.723 228.311 260.728C229.407 260.731 230.29 261.683 230.285 262.851Z" fill="#E8505B"/>
<path d="M236.428 262.879C236.424 264.046 235.532 264.99 234.437 264.984C233.342 264.98 232.459 264.029 232.463 262.861C232.468 261.693 233.36 260.751 234.455 260.755C235.549 260.76 236.433 261.711 236.428 262.879Z" fill="#E8505B"/>
<path d="M242.571 262.907C242.566 264.075 241.674 265.019 240.58 265.013C239.485 265.008 238.601 264.057 238.607 262.889C238.612 261.722 239.503 260.779 240.599 260.784C241.693 260.789 242.577 261.74 242.571 262.907Z" fill="#E8505B"/>
<path d="M248.716 262.935C248.711 264.104 247.819 265.046 246.724 265.041C245.629 265.036 244.745 264.085 244.75 262.918C244.756 261.75 245.647 260.807 246.741 260.812C247.837 260.817 248.72 261.768 248.716 262.935Z" fill="#E8505B"/>
<path d="M254.858 262.964C254.853 264.132 253.962 265.075 252.867 265.069C251.772 265.065 250.889 264.114 250.893 262.947C250.898 261.778 251.79 260.836 252.884 260.84C253.98 260.845 254.863 261.797 254.858 262.964Z" fill="#E8505B"/>
<path d="M261.003 262.992C260.997 264.16 260.105 265.103 259.011 265.098C257.916 265.092 257.033 264.142 257.038 262.975C257.043 261.806 257.934 260.864 259.029 260.869C260.123 260.874 261.007 261.824 261.003 262.992Z" fill="#E8505B"/>
<path d="M267.145 263.02C267.141 264.189 266.249 265.131 265.155 265.127C264.06 265.121 263.176 264.171 263.181 263.003C263.186 261.835 264.078 260.893 265.172 260.897C266.267 260.902 267.15 261.853 267.145 263.02Z" fill="#E8505B"/>
<path d="M273.289 263.05C273.284 264.217 272.392 265.16 271.298 265.155C270.203 265.151 269.319 264.2 269.324 263.032C269.33 261.864 270.221 260.922 271.316 260.926C272.411 260.93 273.294 261.882 273.289 263.05Z" fill="#E8505B"/>
<g opacity="0.2">
<path d="M224.141 262.822C224.136 263.99 223.245 264.933 222.15 264.928C221.055 264.922 220.171 263.972 220.176 262.804C220.181 261.637 221.073 260.693 222.168 260.699C223.263 260.704 224.146 261.654 224.141 262.822Z" fill="white"/>
<path d="M230.285 262.851C230.28 264.019 229.388 264.961 228.293 264.957C227.198 264.952 226.315 264.001 226.32 262.833C226.325 261.666 227.216 260.723 228.311 260.728C229.407 260.731 230.29 261.683 230.285 262.851Z" fill="white"/>
<path d="M236.428 262.879C236.424 264.046 235.532 264.99 234.437 264.984C233.342 264.98 232.459 264.029 232.463 262.861C232.468 261.693 233.36 260.751 234.455 260.755C235.549 260.76 236.433 261.711 236.428 262.879Z" fill="white"/>
<path d="M242.571 262.907C242.566 264.075 241.674 265.019 240.58 265.013C239.485 265.008 238.601 264.057 238.607 262.889C238.612 261.722 239.503 260.779 240.599 260.784C241.693 260.789 242.577 261.74 242.571 262.907Z" fill="white"/>
<path d="M248.716 262.935C248.711 264.104 247.819 265.046 246.724 265.041C245.629 265.036 244.745 264.085 244.75 262.918C244.756 261.75 245.647 260.807 246.741 260.812C247.837 260.817 248.72 261.768 248.716 262.935Z" fill="white"/>
<path d="M254.858 262.964C254.853 264.132 253.962 265.075 252.867 265.069C251.772 265.065 250.889 264.114 250.893 262.947C250.898 261.778 251.79 260.836 252.884 260.84C253.98 260.845 254.863 261.797 254.858 262.964Z" fill="white"/>
<path d="M261.003 262.992C260.997 264.16 260.105 265.103 259.011 265.098C257.916 265.092 257.033 264.142 257.038 262.975C257.043 261.806 257.934 260.864 259.029 260.869C260.123 260.874 261.007 261.824 261.003 262.992Z" fill="white"/>
<path d="M267.145 263.02C267.141 264.189 266.249 265.131 265.155 265.127C264.06 265.121 263.176 264.171 263.181 263.003C263.186 261.835 264.078 260.893 265.172 260.897C266.267 260.902 267.15 261.853 267.145 263.02Z" fill="white"/>
<path d="M273.289 263.05C273.284 264.217 272.392 265.16 271.298 265.155C270.203 265.151 269.319 264.2 269.324 263.032C269.33 261.864 270.221 260.922 271.316 260.926C272.411 260.93 273.294 261.882 273.289 263.05Z" fill="white"/>
</g>
<path d="M264.564 123.88C265.861 123.335 266.784 121.998 266.792 120.422C266.8 118.357 265.238 116.676 263.301 116.667C261.365 116.658 259.788 118.325 259.78 120.39C259.774 121.98 260.703 123.335 262.014 123.88C256.618 124.693 256.863 130.557 256.863 130.557L269.621 130.616C269.621 130.616 269.912 124.688 264.564 123.88Z" fill="#E8505B"/>
<path opacity="0.1" d="M264.564 123.88C265.861 123.335 266.784 121.998 266.792 120.422C266.8 118.357 265.238 116.676 263.301 116.667C261.365 116.658 259.788 118.325 259.78 120.39C259.774 121.98 260.703 123.335 262.014 123.88C256.618 124.693 256.863 130.557 256.863 130.557L269.621 130.616C269.621 130.616 269.912 124.688 264.564 123.88Z" fill="#222B3D"/>
<path d="M285.301 134.451L239.807 134.242L239.782 139.682L285.276 139.891L285.301 134.451Z" fill="#E8505B"/>
<path opacity="0.2" d="M285.301 134.451L239.807 134.242L239.782 139.682L285.276 139.891L285.301 134.451Z" fill="white"/>
<path d="M118.056 162.605C118.056 162.614 117.904 162.631 117.609 162.655C117.29 162.678 116.855 162.71 116.297 162.75C115.718 162.76 115.013 162.886 114.182 163.033C113.769 163.117 113.312 163.15 112.845 163.288C112.377 163.418 111.878 163.556 111.351 163.703C109.271 164.359 106.765 165.402 104.242 167.229C101.726 169.041 99.2092 171.633 97.2475 175.015C96.216 176.677 95.4679 178.596 94.796 180.614C94.2494 182.667 93.7655 184.849 93.7289 187.148C93.6267 188.294 93.7424 189.459 93.7906 190.643C93.8214 191.234 93.9487 191.821 94.0248 192.417C94.1058 193.014 94.1935 193.614 94.3632 194.203C94.851 196.599 95.8275 198.948 97.0624 201.199C99.5312 205.719 103.68 209.612 108.804 211.869C111.367 213 114.201 213.61 117.084 213.728C119.969 213.912 122.925 213.448 125.726 212.485L126.573 212.174L126.685 212.133L126.786 212.184C130.935 214.29 135.003 216.355 138.944 218.357L138.583 218.665C137.284 214.636 136.026 210.729 134.818 206.98L134.772 206.836L134.879 206.729C137.944 203.66 140.079 199.933 141.263 196.116C142.45 192.288 142.652 188.39 142.189 184.817C141.727 181.237 140.556 177.981 138.996 175.242C137.436 172.494 135.496 170.263 133.506 168.52C131.492 166.789 129.404 165.617 127.533 164.72C125.616 163.918 123.908 163.404 122.488 163.13C121.778 163.009 121.147 162.902 120.597 162.808C120.051 162.77 119.586 162.738 119.202 162.711C118.843 162.683 118.561 162.662 118.347 162.645C118.155 162.625 118.056 162.612 118.056 162.605C118.056 162.598 118.155 162.596 118.348 162.599C118.562 162.605 118.845 162.613 119.206 162.623C119.592 162.638 120.061 162.658 120.61 162.68C121.165 162.763 121.803 162.857 122.519 162.964C123.953 163.215 125.684 163.707 127.63 164.496C129.529 165.38 131.654 166.546 133.707 168.282C135.737 170.028 137.718 172.277 139.317 175.055C140.917 177.824 142.124 181.124 142.61 184.759C143.095 188.386 142.905 192.35 141.709 196.249C140.517 200.137 138.352 203.942 135.232 207.077L135.293 206.825C136.505 210.571 137.77 214.477 139.075 218.504L139.265 219.093L138.713 218.814C134.769 216.814 130.701 214.752 126.551 212.648L126.764 212.658L125.899 212.977C123.035 213.962 120.011 214.433 117.063 214.246C114.118 214.124 111.22 213.496 108.602 212.337C103.369 210.027 99.1475 206.043 96.644 201.434C95.3908 199.137 94.4066 196.742 93.9159 194.302C93.7462 193.702 93.6595 193.092 93.5785 192.485C93.5033 191.878 93.377 191.281 93.3471 190.679C93.3018 189.476 93.189 188.291 93.298 187.128C93.3452 184.792 93.8455 182.577 94.4123 180.496C95.1045 178.45 95.8757 176.507 96.9313 174.827C98.9412 171.41 101.511 168.802 104.075 166.991C106.644 165.165 109.188 164.139 111.295 163.507C111.828 163.368 112.333 163.236 112.807 163.113C113.279 162.982 113.741 162.955 114.158 162.879C114.998 162.747 115.707 162.637 116.29 162.645C116.851 162.626 117.289 162.612 117.61 162.601C117.905 162.595 118.056 162.596 118.056 162.605Z" fill="#E8505B"/>
<path d="M123.554 185.113H121.773L117.885 179.695V176.138C117.885 176.138 115.132 175.969 115.455 180.626C115.778 185.283 115.429 184.097 115.429 184.097C115.429 184.097 109.582 184.119 109.096 184.627C108.742 184.997 108.583 190.805 108.521 193.954C108.491 195.54 109.463 197.015 110.938 197.39C111.147 197.444 111.359 197.475 111.568 197.475C113.026 197.475 120.477 196.289 120.477 196.289H123.554V185.113Z" fill="url(#paint2_linear_38_47)"/>
<path d="M128.654 184.137L127.559 196.322H124.508V184.383L128.654 184.137Z" fill="url(#paint3_linear_38_47)"/>
<path d="M164.989 432.201V423.953L150.21 423.854L150.087 436.313L151.003 436.382C155.08 436.645 171.749 437.028 174.481 436.183C177.528 435.241 164.989 432.201 164.989 432.201Z" fill="url(#paint4_linear_38_47)"/>
<path d="M174.83 435.41C174.83 435.55 169.302 435.661 162.484 435.661C155.664 435.661 150.137 435.55 150.137 435.41C150.137 435.271 155.664 435.159 162.484 435.159C169.302 435.16 174.83 435.272 174.83 435.41Z" fill="#263238"/>
<path d="M165.248 433.884C165.127 433.82 165.231 433.384 165.548 432.954C165.864 432.523 166.251 432.294 166.347 432.391C166.447 432.491 166.244 432.853 165.952 433.252C165.66 433.648 165.373 433.95 165.248 433.884Z" fill="#263238"/>
<path d="M166.191 434.427C166.063 434.379 166.129 433.89 166.419 433.377C166.709 432.861 167.093 432.552 167.2 432.636C167.311 432.723 167.125 433.143 166.856 433.622C166.587 434.101 166.323 434.478 166.191 434.427Z" fill="#263238"/>
<path d="M154.59 435.373C154.532 435.414 154.313 435.197 153.993 434.834C153.671 434.475 153.249 433.966 152.696 433.536C152.147 433.108 151.543 432.893 151.097 432.837C150.647 432.776 150.352 432.846 150.327 432.774C150.301 432.72 150.576 432.514 151.109 432.482C151.634 432.446 152.375 432.646 153.002 433.138C153.626 433.624 154.025 434.205 154.279 434.625C154.531 435.049 154.645 435.335 154.59 435.373Z" fill="#263238"/>
<path d="M165.294 432.334C165.366 432.451 165.112 432.737 164.69 432.891C164.269 433.047 163.889 432.992 163.87 432.857C163.848 432.719 164.147 432.558 164.517 432.421C164.887 432.285 165.22 432.214 165.294 432.334Z" fill="#263238"/>
<path d="M165.062 431.536C165.076 431.675 164.681 431.794 164.183 431.799C163.684 431.806 163.286 431.699 163.297 431.56C163.307 431.421 163.7 431.304 164.176 431.297C164.652 431.291 165.049 431.398 165.062 431.536Z" fill="#263238"/>
<path d="M201.381 432.201L201.382 423.953L186.603 423.854L186.48 436.187L187.396 436.254C191.473 436.518 208.143 437.028 210.875 436.183C213.921 435.241 201.381 432.201 201.381 432.201Z" fill="url(#paint5_linear_38_47)"/>
<path d="M211.223 435.429C211.223 435.567 205.696 435.68 198.877 435.68C192.057 435.68 186.531 435.568 186.531 435.429C186.531 435.29 192.057 435.177 198.877 435.177C205.695 435.177 211.223 435.29 211.223 435.429Z" fill="#263238"/>
<path d="M201.641 433.884C201.52 433.82 201.624 433.384 201.942 432.954C202.258 432.523 202.645 432.294 202.741 432.391C202.841 432.491 202.638 432.853 202.346 433.252C202.053 433.648 201.765 433.95 201.641 433.884Z" fill="#263238"/>
<path d="M202.584 434.427C202.456 434.379 202.522 433.89 202.813 433.377C203.102 432.861 203.486 432.552 203.593 432.636C203.704 432.723 203.518 433.143 203.25 433.622C202.98 434.101 202.715 434.478 202.584 434.427Z" fill="#263238"/>
<path d="M190.982 435.373C190.924 435.414 190.705 435.197 190.385 434.834C190.064 434.475 189.641 433.966 189.088 433.536C188.54 433.108 187.936 432.893 187.489 432.837C187.04 432.776 186.745 432.846 186.719 432.774C186.693 432.72 186.968 432.514 187.5 432.482C188.025 432.446 188.767 432.646 189.394 433.138C190.018 433.624 190.415 434.205 190.67 434.625C190.924 435.049 191.038 435.335 190.982 435.373Z" fill="#263238"/>
<path d="M201.687 432.334C201.759 432.451 201.505 432.737 201.084 432.891C200.662 433.047 200.283 432.992 200.263 432.857C200.241 432.719 200.541 432.558 200.91 432.421C201.28 432.285 201.613 432.214 201.687 432.334Z" fill="#263238"/>
<path d="M201.454 431.536C201.468 431.675 201.073 431.794 200.575 431.799C200.076 431.806 199.679 431.699 199.689 431.56C199.699 431.421 200.093 431.304 200.569 431.297C201.045 431.291 201.441 431.398 201.454 431.536Z" fill="#263238"/>
<path d="M255.825 187.445C255.439 187.048 254.491 187.235 254.491 187.235C254.491 187.235 254.657 186.108 254.481 185.564C254.307 185.019 253.092 185.124 253.092 185.124C253.092 185.124 253.017 184.6 253.123 183.753C253.15 183.541 253.032 183.385 252.84 183.268C252.265 182.92 251.024 182.937 251.024 182.937C250.28 182.405 253.292 178.194 254.408 176.846C255.512 175.515 255.326 174.448 254.33 174.45C253.651 174.451 250.135 178.499 249.063 179.858C247.991 181.216 245.114 184.996 245.017 181.98C244.918 178.963 243.707 176.681 242.949 176.293C242.191 175.904 241.374 176.816 241.793 177.654C242.132 178.331 242.346 179.635 242.468 180.621C242.568 181.435 242.534 182.26 242.357 183.059C241.854 185.319 241.313 186.786 241.059 187.414L240.985 187.372C240.985 187.372 219.944 207.548 218.428 208.988C217.062 210.284 189.721 207.455 184.244 206.874C182.747 206.706 180.53 206.405 178.608 206.49C176.232 206.594 175.81 206.932 173.432 206.963C166.15 207.061 160.081 207.769 155.565 208.534C150.105 209.457 145.628 213.344 143.938 218.618C138.41 235.871 125.903 276.717 123.674 299.664C121.918 302.964 119.957 306.819 119.159 308.988C117.61 313.206 117.986 313.35 118.509 313.447C119.91 313.706 121.514 306.132 122.113 307.96C122.713 309.789 119.075 316.995 120.55 317.207C122.475 317.481 124.008 309.522 124.188 308.857C124.362 308.212 125.333 308.43 125.139 309.021C124.86 309.87 122.147 318.865 124.034 319.153C125.08 319.313 125.193 317.407 125.193 317.407C125.193 317.407 127.111 308.805 127.997 308.971C128.898 309.14 127.941 314.228 127.497 315.921C127.058 317.593 127.676 318.482 128.579 318.062C129.194 317.774 130.675 312.621 131.074 310.937C131.475 309.253 132.488 304.613 133.849 307.306C135.21 310 137.27 311.557 138.121 311.591C138.972 311.624 139.328 310.453 138.595 309.87C138.002 309.399 137.258 308.307 136.731 307.463C136.297 306.768 135.979 306.006 135.804 305.206C135.126 302.121 135.132 300.327 135.132 300.327L134.975 299.336C137.133 288.642 143.356 257.269 152.294 237.225L155.975 244.8L157.572 250.406L147.763 274.64L189.613 274.089L183.374 250.048L190.954 224.979H190.953C199.157 225.162 220.227 225.467 223.768 223.885C228.182 221.912 251.028 193.114 251.028 193.114H251.027C252.571 191.885 254.14 190.563 255.298 189.409C255.3 189.407 256.662 188.305 255.825 187.445Z" fill="#FFBE9D"/>
<path d="M145.942 256.797C147.154 252.653 153.393 232.16 153.393 232.16C153.393 232.16 156.455 248.867 155.65 250.879C154.723 253.198 153.018 255.85 153.018 255.85C145.942 266.627 146.871 272.013 146.871 272.013L189.615 270.71C189.719 264.732 186.18 250.834 185.44 248.619C184.7 246.405 187.154 239.138 187.154 239.138C187.154 239.138 191.985 234.232 191.798 231.707C191.421 226.621 190.956 224.978 190.956 224.978L216.964 225.936L216.147 208.288L178.76 204.546C177.466 208.228 165.693 206.424 165.693 206.424C152.983 206.842 152.213 209.179 146.912 213.283C141.612 217.387 132.883 252.633 132.883 252.633L145.942 256.797Z" fill="url(#paint6_linear_38_47)"/>
<path d="M171.221 252.629C171.22 252.695 170.361 252.752 168.969 252.743C167.577 252.734 165.654 252.647 163.541 252.436C161.427 252.222 159.526 251.924 158.16 251.655C156.795 251.387 155.963 251.161 155.976 251.095C155.989 251.025 156.842 251.128 158.217 251.305C159.592 251.484 161.489 251.725 163.591 251.936C165.693 252.147 167.6 252.289 168.982 252.388C170.365 252.488 171.222 252.556 171.221 252.629Z" fill="#263238"/>
<path d="M174.147 248.994C174.165 249.055 173.283 249.39 171.813 249.789C170.344 250.187 168.28 250.628 165.97 250.903C163.66 251.176 161.55 251.233 160.027 251.189C158.504 251.145 157.569 251.025 157.573 250.962C157.576 250.888 158.515 250.881 160.026 250.834C161.538 250.787 163.622 250.676 165.911 250.405C168.197 250.132 170.251 249.751 171.731 249.444C173.212 249.135 174.127 248.921 174.147 248.994Z" fill="#263238"/>
<path d="M188.525 232.779C188.592 232.793 188.482 233.626 188.233 234.959C187.985 236.292 187.594 238.124 187.101 240.133C186.608 242.143 186.108 243.948 185.711 245.245C185.315 246.543 185.028 247.332 184.961 247.314C184.894 247.294 185.061 246.472 185.368 245.153C185.733 243.649 186.152 241.921 186.614 240.014C187.086 238.11 187.514 236.386 187.887 234.883C188.224 233.57 188.457 232.764 188.525 232.779Z" fill="#263238"/>
<path d="M146.391 254.342C146.354 254.476 143.406 253.789 139.807 252.806C136.206 251.823 133.318 250.92 133.355 250.785C133.391 250.651 136.338 251.339 139.939 252.321C143.538 253.304 146.427 254.209 146.391 254.342Z" fill="#263238"/>
<path d="M191.427 224.752C191.427 224.775 191.031 224.816 190.32 224.746C189.614 224.674 188.579 224.509 187.381 224.045C186.182 223.596 184.819 222.845 183.545 221.709C182.272 220.579 181.133 219.023 180.407 217.192C179.67 215.363 179.428 213.456 179.544 211.758C179.655 210.063 180.105 208.532 180.863 207.459C181.614 206.371 182.61 205.845 183.303 205.663C183.654 205.569 183.938 205.547 184.126 205.552C184.316 205.557 184.414 205.578 184.414 205.593C184.416 205.641 184.014 205.618 183.362 205.849C182.722 206.078 181.822 206.619 181.158 207.657C179.846 209.72 179.48 213.487 180.875 217.007C181.574 218.767 182.649 220.262 183.858 221.368C185.065 222.48 186.365 223.238 187.514 223.717C189.83 224.677 191.444 224.645 191.427 224.752Z" fill="#263238"/>
<path d="M213.897 225.583C213.759 225.583 213.654 221.605 213.663 216.7C213.673 211.792 213.794 207.816 213.931 207.816C214.07 207.817 214.174 211.794 214.165 216.701C214.156 221.606 214.036 225.584 213.897 225.583Z" fill="#263238"/>
<path d="M178.531 205.622C178.637 203.47 178.862 201.04 178.862 201.04C178.862 201.04 184.181 200.454 184.504 194.958C184.827 189.462 184.504 176.79 184.504 176.79L174.815 171.856L164.157 180.267L165.772 207.742L175.579 208.366C177.125 208.464 178.452 207.232 178.531 205.622Z" fill="#FFBE9D"/>
<path d="M179.49 190.611C179.505 190.615 179.506 190.714 179.406 190.847C179.307 190.976 179.092 191.123 178.794 191.117C178.176 191.087 177.582 190.405 177.363 189.572C177.253 189.148 177.254 188.719 177.337 188.35C177.402 187.987 177.613 187.621 177.915 187.522C178.06 187.468 178.21 187.474 178.325 187.532C178.438 187.589 178.507 187.674 178.543 187.754C178.615 187.917 178.559 188.017 178.545 188.009C178.523 188.008 178.528 187.917 178.447 187.814C178.371 187.709 178.19 187.614 177.99 187.718C177.785 187.81 177.645 188.072 177.593 188.406C177.533 188.738 177.54 189.119 177.638 189.495C177.831 190.242 178.348 190.853 178.808 190.908C179.036 190.937 179.224 190.849 179.327 190.766C179.433 190.679 179.469 190.601 179.49 190.611Z" fill="#EB996E"/>
<path d="M187.808 173.824C187.068 171.294 184.378 170.037 181.928 169.343C178.2 168.287 174.162 167.819 170.52 169.16C166.878 170.501 162.497 172.86 162.498 176.884C160.348 176.706 159.12 178.59 158.267 180.924C157.763 182.302 157.431 183.837 157.353 185.357L157.318 185.346C157.041 190.612 155.574 197.868 152.159 201.764C150.274 203.914 147.559 205.4 146.46 208.079C145.505 210.407 145.999 213.158 145.096 215.508C144.299 217.583 142.534 219.056 141.268 220.86C138.512 224.792 138.324 230.345 140.349 234.732C142.375 239.119 146.388 242.33 150.842 243.801C155.297 245.272 160.15 245.11 164.684 243.93C168.031 243.058 171.287 241.616 173.954 239.336C176.622 237.057 178.668 233.888 179.279 230.35C179.957 226.412 178.855 222.413 178.045 218.502C175.48 206.129 176.213 205.486 179.449 194.009C179.522 193.807 179.568 193.596 179.624 193.387C179.666 193.235 179.708 193.089 179.751 192.933L179.744 192.931C179.835 192.482 179.894 192.025 179.895 191.559C178.958 191.928 177.827 191.682 177.108 190.955C176.389 190.228 176.121 189.056 176.448 188.07C176.824 186.935 177.865 186.178 178.934 185.727C180.003 185.277 181.154 185.055 182.203 184.556C184.429 183.497 185.973 181.299 187.022 178.996C187.76 177.381 188.308 175.532 187.808 173.824Z" fill="#263238"/>
<path d="M179.87 190.845C179.904 190.831 180.091 191.189 180.377 191.798C180.664 192.406 181.047 193.265 181.474 194.252L181.554 194.439L181.35 194.456C181.029 194.484 180.704 194.512 180.369 194.541C179.696 194.585 179.135 194.665 178.483 194.659C178.38 194.64 178.265 194.546 178.234 194.44C178.2 194.336 178.209 194.248 178.22 194.172C178.248 194.021 178.282 193.909 178.311 193.781L178.481 193.098C178.694 192.265 178.847 191.754 178.887 191.764C178.928 191.773 178.849 192.301 178.689 193.144L178.555 193.834C178.505 194.067 178.421 194.415 178.546 194.388C179.026 194.368 179.709 194.288 180.344 194.24C180.679 194.213 181.004 194.188 181.325 194.162L181.202 194.367C180.789 193.375 180.439 192.5 180.2 191.872C179.964 191.244 179.837 190.86 179.87 190.845Z" fill="#E8505B"/>
<path d="M146.871 272.013L189.615 270.709L208.205 343.336L204.781 426.644H182.157L184.96 345.11L168.426 294.552L170.974 429.875L148.133 430.212L145.726 303.014C145.626 299.479 144.463 291.503 144.895 287.996L146.871 272.013Z" fill="#498E89"/>
<path d="M174.119 295.579C174.11 295.645 173.308 295.606 172.022 295.454C170.736 295.303 168.967 295.031 167.03 294.643C165.092 294.252 163.356 293.819 162.111 293.46C160.867 293.101 160.112 292.83 160.129 292.764C160.168 292.624 163.271 293.377 167.129 294.15C170.984 294.93 174.137 295.435 174.119 295.579Z" fill="#455A64"/>
<path d="M204.576 422.075C204.576 422.215 199.453 422.326 193.137 422.326C186.818 422.326 181.697 422.215 181.697 422.075C181.697 421.937 186.818 421.824 193.137 421.824C199.453 421.825 204.576 421.937 204.576 422.075Z" fill="#455A64"/>
<path d="M170.769 426.359C170.769 426.499 165.801 426.611 159.672 426.611C153.541 426.611 148.573 426.499 148.573 426.359C148.573 426.22 153.541 426.108 159.672 426.108C165.801 426.108 170.769 426.22 170.769 426.359Z" fill="#455A64"/>
<path d="M167.827 426.012C167.688 426.014 167.088 396.444 166.485 359.975C165.883 323.492 165.507 293.924 165.646 293.922C165.784 293.92 166.385 323.483 166.987 359.966C167.59 396.436 167.966 426.009 167.827 426.012Z" fill="#455A64"/>
<path d="M201.537 422.075C201.529 422.075 201.526 421.941 201.527 421.681C201.531 421.397 201.539 421.015 201.548 420.527C201.578 419.484 201.621 417.994 201.676 416.088C201.811 412.208 202.004 406.638 202.243 399.767C202.77 385.965 203.498 366.941 204.302 345.927C204.31 345.734 204.317 345.54 204.324 345.361L204.332 345.432C199.266 325.146 194.687 306.811 191.367 293.518C189.738 286.896 188.418 281.53 187.499 277.792C187.057 275.955 186.713 274.517 186.472 273.513C186.364 273.041 186.28 272.672 186.217 272.397C186.162 272.145 186.138 272.016 186.147 272.014C186.155 272.012 186.195 272.138 186.267 272.386C186.341 272.657 186.441 273.023 186.569 273.49C186.832 274.489 187.207 275.919 187.687 277.747C188.644 281.474 190.016 286.827 191.709 293.433C195.066 306.717 199.696 325.039 204.818 345.31L204.826 345.345L204.825 345.382C204.819 345.56 204.81 345.754 204.803 345.949C203.942 366.959 203.163 385.98 202.597 399.781C202.291 406.65 202.043 412.216 201.871 416.096C201.774 418.001 201.7 419.489 201.648 420.531C201.618 421.019 201.595 421.401 201.578 421.684C201.559 421.944 201.546 422.076 201.537 422.075Z" fill="#455A64"/>
<path d="M194.164 343.666C194.187 343.803 191.949 344.3 189.165 344.778C187.087 345.136 185.292 345.381 184.508 345.425L184.507 345.229C184.767 345.301 184.907 345.357 184.901 345.391C184.897 345.426 184.745 345.437 184.476 345.425L183.892 345.4L184.475 345.229C185.229 345.009 187.003 344.641 189.081 344.285C191.863 343.805 194.139 343.528 194.164 343.666Z" fill="#455A64"/>
<path d="M193.731 346.437C193.711 346.577 191.703 346.422 189.231 346.232C186.758 346.037 184.75 345.879 184.753 345.737C184.756 345.601 186.781 345.535 189.27 345.731C191.757 345.923 193.749 346.302 193.731 346.437Z" fill="#455A64"/>
<path opacity="0.2" d="M146.681 273.547C147.714 275.002 149.188 275.512 150.901 275.793C152.613 276.073 154.361 275.886 156.084 275.694C167.117 274.47 178.809 273.341 189.614 270.708C175.628 271.492 160.857 271.228 146.871 272.012C146.871 272.012 146.751 272.974 146.723 273.205" fill="black"/>
<g opacity="0.2">
<path d="M161.098 293.262L168.978 323.853L168.427 294.551L161.098 293.262Z" fill="black"/>
</g>
<defs>
<linearGradient id="paint0_linear_38_47" x1="306.333" y1="216.071" x2="378.398" y2="265.235" gradientUnits="userSpaceOnUse">
<stop stop-color="#92FFC0"/>
<stop offset="1" stop-color="#002661"/>
</linearGradient>
<linearGradient id="paint1_linear_38_47" x1="301.675" y1="133.404" x2="380.513" y2="67.5537" gradientUnits="userSpaceOnUse">
<stop offset="1.70489e-07" stop-color="#4EB9C4"/>
<stop offset="0.9926" stop-color="#06B584"/>
</linearGradient>
<linearGradient id="paint2_linear_38_47" x1="108.521" y1="176.138" x2="122.725" y2="185.084" gradientUnits="userSpaceOnUse">
<stop stop-color="#92FFC0"/>
<stop offset="1" stop-color="#002661"/>
</linearGradient>
<linearGradient id="paint3_linear_38_47" x1="124.508" y1="184.137" x2="129.516" y2="185.66" gradientUnits="userSpaceOnUse">
<stop stop-color="#92FFC0"/>
<stop offset="1" stop-color="#002661"/>
</linearGradient>
<linearGradient id="paint4_linear_38_47" x1="150.087" y1="423.854" x2="158.303" y2="438.071" gradientUnits="userSpaceOnUse">
<stop stop-color="#92FFC0"/>
<stop offset="1" stop-color="#002661"/>
</linearGradient>
<linearGradient id="paint5_linear_38_47" x1="186.48" y1="423.854" x2="194.647" y2="438.043" gradientUnits="userSpaceOnUse">
<stop stop-color="#92FFC0"/>
<stop offset="1" stop-color="#002661"/>
</linearGradient>
<linearGradient id="paint6_linear_38_47" x1="132.883" y1="204.546" x2="182.39" y2="259.704" gradientUnits="userSpaceOnUse">
<stop stop-color="#92FFC0"/>
<stop offset="1" stop-color="#002661"/>
</linearGradient>
</defs>
</svg>
