<svg width="95" height="79" viewBox="0 0 95 79" fill="none" xmlns="http://www.w3.org/2000/svg">
<path d="M13.5891 52.3228C13.2115 52.3228 12.8354 52.1976 12.5606 51.9507C4.10875 44.3525 0 35.6671 0 25.398C0 17.6907 3.97274 16.54 6.34088 16.54C10.7285 16.54 11.8865 19.591 13.1122 22.821C13.5817 24.0578 14.1136 25.4597 14.8601 26.8352C15.1727 27.4111 14.8567 28.0859 14.1546 28.342C13.4527 28.5986 12.63 28.3392 12.3175 27.7634C11.5046 26.2656 10.9469 24.796 10.455 23.4993C9.14004 20.0347 8.4884 18.8226 6.34088 18.8226C3.1298 18.8228 2.7832 23.4211 2.7832 25.398C2.7832 35.0716 6.6539 43.2537 14.6168 50.4122C15.1347 50.8779 15.0944 51.5998 14.5266 52.0247C14.26 52.2244 13.924 52.3228 13.5891 52.3228Z" fill="#006F7E"/>
<path d="M81.4109 52.3228C81.7885 52.3228 82.1646 52.1976 82.4394 51.9507C90.8913 44.3525 95 35.6671 95 25.398C95 17.6907 91.0273 16.54 88.6591 16.54C84.2715 16.54 83.1135 19.591 81.8878 22.821C81.4184 24.0578 80.8864 25.4597 80.1399 26.8352C79.8273 27.4111 80.1433 28.0859 80.8454 28.342C81.5473 28.5986 82.37 28.3392 82.6825 27.7634C83.4954 26.2656 84.0531 24.796 84.545 23.4993C85.86 20.0347 86.5116 18.8226 88.6591 18.8226C91.8702 18.8226 92.2168 23.4209 92.2168 25.3979C92.2168 35.0714 88.3461 43.2536 80.3832 50.412C79.8653 50.8777 79.9056 51.5996 80.4734 52.0245C80.74 52.2243 81.076 52.3228 81.4109 52.3228Z" fill="#006F7E"/>
<path d="M47.4999 61.9931C61.2373 61.9931 73.711 58.159 80.9553 51.6465L79.6556 26.5311C72.5427 27.4474 53.8037 29.7819 47.4999 29.7819C40.8101 29.7819 20.1103 27.1522 14.17 26.3791C13.3252 26.2692 12.5611 26.8047 12.5611 27.5064L12.5609 38.2404L13.1103 39.5971L12.5609 40.8556V44.1121L13.2337 46.0804L12.5609 47.0647L12.5605 48.4984C16.1954 56.2087 31.9572 61.9931 47.4999 61.9931Z" fill="#006F7E"/>
<path d="M82.4387 27.7251C82.4387 27.0234 81.6741 26.4878 80.8289 26.5979C80.4851 26.6426 80.0921 26.6936 79.6553 26.7499L79.6559 39.6794C71.7549 42.8208 60.7054 44.4752 47.4999 44.4752C33.1721 44.4752 21.3793 42.5292 13.3958 38.8477C13.2346 38.7731 12.9297 38.6311 12.5609 38.459V41.0744C20.942 44.7934 33.0018 46.7581 47.4999 46.7581C60.4626 46.7581 71.4779 45.1885 79.6561 42.1978L79.6563 46.134C71.7876 50.742 60.7351 53.169 47.4999 53.169C33.1911 53.169 21.4304 50.3343 13.4893 44.9713C13.3055 44.8471 12.9557 44.6053 12.5609 44.3311V47.2837C20.9771 52.6306 33.0265 55.4518 47.4999 55.4518C60.4477 55.4518 71.454 53.1926 79.6563 48.8884V51.2567C72.4122 57.7693 61.237 61.1468 47.4997 61.1468C31.957 61.1468 20.4321 56.6679 12.5603 48.7174V52.1699C20.7073 59.4939 32.8599 63.4295 47.4997 63.4295C62.1397 63.4295 74.2925 59.4939 82.4395 52.1698L82.4393 47.2834L81.8463 46.2994L82.4393 44.3306L82.4391 41.0742L81.7845 40.3284L82.4389 38.459L82.4387 27.7251Z" fill="#E8F4FF"/>
<path d="M81.5107 44.752C80.9149 45.1544 80.2948 45.5408 79.6565 45.9147L79.6567 48.669C80.6232 48.1618 81.5526 47.6276 82.4397 47.0639V44.1113C82.0445 44.3859 81.6947 44.6278 81.5107 44.752Z" fill="#E8F4FF"/>
<path d="M82.4393 38.2397C82.0704 38.4119 81.7654 38.5538 81.6041 38.6284C80.9788 38.9168 80.3276 39.1932 79.6562 39.4601L79.6564 41.9784C80.6252 41.6241 81.5518 41.2488 82.4396 40.8548L82.4393 38.2397Z" fill="#E8F4FF"/>
<path d="M47.5001 35.4884C44.7642 35.4884 39.8659 35.1151 37.8989 34.8636C37.1397 34.7665 36.62 34.1827 36.7385 33.56C36.8569 32.9374 37.5655 32.5101 38.3279 32.6083C40.3871 32.8715 45.1184 33.2059 47.5001 33.2059C49.8817 33.2059 54.613 32.8717 56.672 32.6083C57.4324 32.5112 58.1432 32.9373 58.2614 33.56C58.38 34.1829 57.8604 34.7667 57.101 34.8636C55.1342 35.1151 50.2361 35.4884 47.5001 35.4884Z" fill="#E8F4FF"/>
</svg>
