<svg width="334" height="267" viewBox="0 0 334 267" fill="none" xmlns="http://www.w3.org/2000/svg">
<g clip-path="url(#clip0_14_1885)">
<path d="M334 0H0V267H334V0Z" fill="white"/>
<path d="M163.51 169.97H28.5431C24.092 160.662 24.7519 143.772 27.2921 134.413C31.1142 120.316 38.9696 114.97 45.7235 105C56.1429 89.6179 55.001 64.6615 64.0458 47.8697C71.6805 33.6965 84.5569 26.0122 96.5739 27.5968C108.451 29.1673 110.523 47.3614 117.206 58.6284C119.791 62.9858 122.863 66.1093 126.184 68.3704C131.495 71.9882 137.442 73.4045 143.042 74.1547C157.001 76.0232 171.394 81.7058 173.728 113.579C176.133 146.412 163.51 169.97 163.51 169.97Z" fill="#71C2C9"/>
<path d="M301.649 228.796C301.649 230.686 238.31 232.219 160.177 232.219C82.0433 232.219 18.704 230.686 18.704 228.796C18.704 226.905 82.0433 225.373 160.177 225.373C238.31 225.373 301.649 226.905 301.649 228.796Z" fill="#CADCED"/>
<path d="M192.075 205.064H145.164L151.948 189.943H198.86L192.075 205.064Z" fill="#C94747"/>
<path d="M172.988 204.879L175.782 202.795L175.855 200.826L173.757 202.391L171.66 201.058L171.591 198.213L173.688 196.649L172.182 195.857L169.389 197.94L169.383 199.808L169.197 199.947L156.894 209.122L155.054 208.273L152.26 210.356L152.187 212.326L154.285 210.762L156.382 212.094L156.451 214.939L154.353 216.503L155.86 217.295L158.653 215.212L158.659 213.344L171.148 204.03L172.988 204.879Z" fill="#AAB8C4"/>
<path d="M157.939 208.759C156.037 209.499 154.136 210.244 152.236 210.993L152.187 212.326L154.285 210.762L156.382 212.094L156.451 214.939L154.353 216.504L155.859 217.296L158.653 215.212L158.659 213.344L171.147 204.03L172.988 204.88L175.781 202.796L175.815 201.874C169.749 203.699 163.882 206.446 157.939 208.759Z" fill="#8F9BA5"/>
<path d="M162.738 210.299L160.276 213.103C159.927 213.501 159.375 213.484 159.044 213.065L149.266 200.722C148.934 200.303 148.948 199.642 149.297 199.244L151.759 196.44C152.108 196.043 152.66 196.06 152.991 196.478L162.77 208.822C163.102 209.24 163.087 209.901 162.738 210.299Z" fill="#F89334"/>
<path d="M159.095 211.417C158.911 211.626 158.621 211.617 158.447 211.397L150.707 201.627C150.533 201.407 150.54 201.059 150.724 200.851C150.907 200.642 151.197 200.651 151.371 200.87L159.111 210.641C159.285 210.86 159.278 211.208 159.095 211.417Z" fill="#CF7A2B"/>
<path d="M160.244 210.107C160.061 210.316 159.771 210.307 159.597 210.087L151.857 200.317C151.683 200.097 151.69 199.749 151.873 199.54C152.057 199.332 152.346 199.341 152.521 199.56L160.261 209.331C160.435 209.551 160.428 209.898 160.244 210.107Z" fill="#CF7A2B"/>
<path d="M161.394 208.798C161.211 209.007 160.921 208.997 160.747 208.778L153.007 199.007C152.833 198.787 152.84 198.44 153.023 198.231C153.207 198.023 153.497 198.032 153.671 198.251L161.411 208.022C161.585 208.241 161.578 208.589 161.394 208.798Z" fill="#CF7A2B"/>
<path d="M174.141 215.435L172.459 211.898C172.221 211.396 172.367 210.758 172.785 210.472L185.119 202.039C185.537 201.753 186.069 201.928 186.308 202.429L187.99 205.966C188.228 206.468 188.083 207.106 187.664 207.392L175.33 215.825C174.912 216.111 174.38 215.936 174.141 215.435Z" fill="#F8897A"/>
<path d="M174.107 210.926C173.982 210.662 174.059 210.327 174.278 210.177L184.042 203.502C184.261 203.352 184.541 203.444 184.666 203.707C184.791 203.97 184.714 204.306 184.495 204.456L174.732 211.131C174.512 211.281 174.233 211.189 174.107 210.926Z" fill="#CF7265"/>
<path d="M174.893 212.577C174.767 212.314 174.844 211.979 175.064 211.829L184.827 205.154C185.046 205.004 185.326 205.095 185.451 205.359C185.576 205.622 185.5 205.957 185.28 206.107L175.517 212.782C175.297 212.932 175.018 212.841 174.893 212.577Z" fill="#CF7265"/>
<path d="M175.678 214.23C175.553 213.966 175.63 213.631 175.849 213.481L185.612 206.806C185.832 206.656 186.111 206.748 186.237 207.011C186.362 207.274 186.285 207.61 186.066 207.76L176.302 214.435C176.083 214.585 175.803 214.493 175.678 214.23Z" fill="#CF7265"/>
<path d="M188.718 229.008H175.597V208.932H192.339V224.667C192.338 227.064 190.718 229.008 188.718 229.008Z" fill="#F15555"/>
<path d="M177.064 229.008H145.657C143.658 229.008 142.037 227.064 142.037 224.667V208.933H180.684V224.667C180.684 227.064 179.063 229.008 177.064 229.008Z" fill="#FF5A5A"/>
<path opacity="0.72" d="M192.339 208.932H180.684V210.98H192.339V208.932Z" fill="#B8CDE0"/>
<path opacity="0.72" d="M180.683 208.932H142.037V210.98H180.683V208.932Z" fill="#B8CDE0"/>
<path d="M193.959 204.22H177.557C177.045 204.22 176.63 204.717 176.63 205.331V207.822C176.63 208.435 177.045 208.933 177.557 208.933H193.959C194.471 208.933 194.886 208.436 194.886 207.822V205.331C194.885 204.717 194.471 204.22 193.959 204.22Z" fill="#F15555"/>
<path d="M181.251 204.22H140.417C139.905 204.22 139.49 204.717 139.49 205.331V207.822C139.49 208.435 139.905 208.933 140.417 208.933H181.251C181.762 208.933 182.177 208.436 182.177 207.822V205.331C182.177 204.717 181.762 204.22 181.251 204.22Z" fill="#FF5A5A"/>
<path d="M198.139 189.943H151.948L151.228 186.925H198.139V189.943Z" fill="#FF5A5A"/>
<path d="M192.075 205.064L189.368 206.576L198.139 186.925L198.86 189.943L192.075 205.064Z" fill="#F15555"/>
<path d="M145.164 205.064L142.457 206.576L151.228 186.925L151.948 189.943L145.164 205.064Z" fill="#F15555"/>
<path d="M267.741 90.6538H272.137C272.809 90.6538 273.353 91.3069 273.353 92.1127V94.049H266.524V92.1127C266.524 91.3069 267.069 90.6538 267.741 90.6538Z" fill="#8CAFD4"/>
<path d="M254.071 228.812H275.862V167.232H254.071V228.812Z" fill="#E8F4FF"/>
<path d="M218.899 189.771L255.795 167.232L271.444 189.771V228.813H228.133H210.727L218.309 207.025C220.216 201.542 220.426 195.422 218.899 189.771Z" fill="#E8F4FF"/>
<path d="M212.394 224.022L210.727 228.812H275.862V224.022H212.394Z" fill="#E8F4FF"/>
<path d="M250.615 196.441C239.472 196.441 219.882 196.441 219.882 196.441C219.807 194.19 219.486 191.946 218.899 189.771L254.848 167.81C257.085 173.189 258.92 180.367 258.92 185.106C258.92 189.122 256.824 196.441 250.615 196.441Z" fill="#E8F4FF"/>
<path d="M246.503 154.424H275.862V151.541H246.503V154.424Z" fill="#BBD6F2"/>
<path d="M245.49 167.232H275.862V154.424H245.49V167.232Z" fill="white"/>
<path d="M260.676 154.424H275.862V100.938H254.071L260.676 154.424Z" fill="white"/>
<path d="M275.862 100.938H254.071V103.977H275.862V100.938Z" fill="#E8F4FF"/>
<path d="M264.966 154.424H275.862V100.937H264.966V154.424Z" fill="#E8F4FF"/>
<path d="M256.392 92.4924H275.862V100.938H254.15C252.825 100.938 251.75 99.6491 251.75 98.0594C251.75 94.9846 253.828 92.4924 256.392 92.4924Z" fill="white"/>
<path d="M222.122 189.942H246.641C251.697 189.942 255.795 185.028 255.795 178.966V153.424C255.795 151.685 254.62 150.276 253.17 150.276H190.295L187.892 156.327C187.015 158.536 186.991 161.097 187.827 163.33C193.892 179.524 207.317 189.942 222.122 189.942Z" fill="white"/>
<path d="M187.267 160.86C187.121 159.325 187.326 157.753 187.892 156.327L190.295 150.276H253.17C254.62 150.276 255.795 151.685 255.795 153.424V160.86H187.267Z" fill="#E8F4FF"/>
<path d="M188.648 154.424L190.295 150.276H253.17C254.62 150.276 255.795 151.685 255.795 153.424V154.424H188.648Z" fill="#E8F4FF"/>
<path d="M210.466 142.215H243.517C246.916 142.215 250.145 143.996 252.357 147.091L255.795 151.903H188.522C187.745 151.903 187.056 151.3 186.82 150.412C186.526 149.303 187.024 148.114 187.942 147.737L192.752 145.758C198.453 143.412 204.439 142.215 210.466 142.215Z" fill="white"/>
<path opacity="0.72" d="M116.872 83.5102V11.8148C116.872 9.70228 118.3 7.98975 120.062 7.98975H166.71C168.471 7.98975 169.9 9.70228 169.9 11.8148V83.5102C169.9 85.6227 168.471 87.3352 166.71 87.3352H120.061C118.3 87.3347 116.872 85.6221 116.872 83.5102Z" fill="#B8CDE0"/>
<path d="M115.718 81.9284V10.233C115.718 8.1205 117.146 6.40796 118.908 6.40796H165.555C167.317 6.40796 168.745 8.1205 168.745 10.233V81.9284C168.745 84.0409 167.317 85.7534 165.555 85.7534H118.908C117.146 85.7529 115.718 84.0403 115.718 81.9284Z" fill="white"/>
<path d="M166.173 11.2034V80.9566C166.173 81.9002 165.535 82.6649 164.748 82.6649H119.716C118.929 82.6649 118.291 81.9002 118.291 80.9566V11.2034C118.291 10.2598 118.929 9.49512 119.716 9.49512H164.748C165.535 9.49512 166.173 10.2598 166.173 11.2034Z" fill="#ADE2FF"/>
<path opacity="0.29" d="M148.276 82.6668H122.684L151.111 9.49438H166.171V34.7131L148.276 82.6668Z" fill="white"/>
<path opacity="0.29" d="M146.024 9.49512L118.291 82.6654V71.2463L141.696 9.49512H146.024Z" fill="white"/>
<path d="M123.484 135.21C125.519 132.726 130.488 130.176 131.089 128.625C131.93 126.46 132.292 124.628 133.852 123.24C135.412 121.851 136.672 120.352 137.51 119.221C138.348 118.089 139.392 117.428 140.683 117.512C141.972 117.596 140.757 119.768 139.943 120.383C139.128 120.999 138.336 122.803 138.22 123.677C138.105 124.552 141.114 124.749 142.957 124.383C144.8 124.017 146.627 124.562 148.116 124.72C149.605 124.878 150.088 125.974 150.088 125.974C150.088 125.974 151.147 126.105 151.922 126.916C152.697 127.727 151.522 128.471 151.522 128.471C151.522 128.471 151.698 129.061 150.945 129.437C150.193 129.814 148.826 129.177 148.826 129.177C148.826 129.177 148.549 130.254 146.86 130.022C145.172 129.789 142.207 130.265 140.234 130.713C138.26 131.162 135.989 133.491 134.492 132.937C132.995 132.383 127.559 140.821 127.559 140.821L123.484 135.21Z" fill="#FEC4AD"/>
<path d="M107.245 139.399C111.062 138.691 124.215 132.532 130.368 129.566C131.665 132.733 132.186 133.877 133.607 135.629C123.276 143.694 115.303 149.536 108.732 151.891C106.843 152.568 104.459 152.905 101.77 152.974C94.7236 153.153 83.699 152.989 75.9119 150.777L79.1597 136.192C79.1597 136.192 103.127 140.162 107.245 139.399Z" fill="#06B584"/>
<path opacity="0.72" d="M166.909 167.618C165.2 167.618 163.69 168.617 162.75 170.15C162.735 170.174 162.72 170.197 162.706 170.221C162.637 170.337 162.573 170.456 162.511 170.577C162.495 170.608 162.478 170.636 162.463 170.667H156.098V169.941C156.098 169.669 155.914 169.448 155.687 169.448H154.584H154.489H153.854V170.209V170.667H145.944V176.953H153.854V177.411V178.172H154.489H154.584H155.687C155.914 178.172 156.098 177.951 156.098 177.679V176.953H158.05H162.462C162.48 176.99 162.502 177.026 162.521 177.063C162.57 177.159 162.62 177.255 162.674 177.347C162.703 177.398 162.735 177.446 162.767 177.497C162.829 177.597 162.891 177.698 162.958 177.794C163.905 179.143 165.323 180.003 166.909 180.003C169.761 180.003 172.073 177.23 172.073 173.81C172.073 170.39 169.761 167.618 166.909 167.618Z" fill="#B8CDE0"/>
<path opacity="0.72" d="M174.542 109.188H117.222C116.028 109.188 115.06 110.349 115.06 111.782V115.146C115.06 116.578 116.028 117.739 117.222 117.739H117.592L119.678 120.488L124.727 127.145C127.109 130.281 130.481 132.069 134.018 132.069H157.747C161.284 132.069 164.655 130.281 167.037 127.145L172.087 120.488L174.172 117.739H174.542C175.736 117.739 176.704 116.578 176.704 115.146V111.782C176.705 110.35 175.736 109.188 174.542 109.188Z" fill="#B8CDE0"/>
<path d="M167.246 177.768C170.098 177.768 172.41 174.995 172.41 171.575C172.41 168.155 170.098 165.383 167.246 165.383C164.394 165.383 162.082 168.155 162.082 171.575C162.082 174.995 164.394 177.768 167.246 177.768Z" fill="#8CAFD4"/>
<path d="M167.246 176.942C169.718 176.942 171.722 174.539 171.722 171.575C171.722 168.611 169.718 166.208 167.246 166.208C164.774 166.208 162.771 168.611 162.771 171.575C162.771 174.539 164.774 176.942 167.246 176.942Z" fill="#E8F4FF"/>
<path d="M167.398 167.543H163.332C162.555 168.627 162.082 170.034 162.082 171.575C162.082 173.093 162.539 174.481 163.295 175.558H167.398C169.244 175.558 170.74 173.764 170.74 171.551C170.74 169.338 169.244 167.543 167.398 167.543Z" fill="#B8CDE0"/>
<path d="M170.632 172.525C171.075 170.283 169.918 168.036 168.049 167.505C166.179 166.974 164.305 168.36 163.862 170.602C163.419 172.844 164.576 175.091 166.445 175.622C168.315 176.153 170.189 174.767 170.632 172.525Z" fill="#E8F4FF"/>
<path d="M169.555 171.575C169.555 173.311 168.382 174.718 166.934 174.718H146.282V168.432H166.934C168.382 168.432 169.555 169.839 169.555 171.575Z" fill="#E8F4FF"/>
<path d="M158.388 168.432H156.018V174.718H158.388V168.432Z" fill="#E8F4FF"/>
<path d="M146.281 168.432V174.719H149.944V168.432H146.281Z" fill="#B8CDE0"/>
<path d="M156.436 167.706V175.445C156.436 175.717 156.252 175.937 156.025 175.937H154.827C154.476 175.937 154.192 175.596 154.192 175.177V167.975C154.192 167.554 154.476 167.214 154.827 167.214H156.025C156.252 167.214 156.436 167.434 156.436 167.706Z" fill="#E8F4FF"/>
<path d="M154.192 167.213V175.937H154.922V167.213H154.192Z" fill="#E8F4FF"/>
<path d="M145.882 130.259H140.64V165.204H145.882V130.259Z" fill="#E8F4FF"/>
<path d="M145.882 141.933H140.64V144.775H145.882V141.933Z" fill="#8CAFD4"/>
<path d="M145.882 164.267H140.64V165.203H145.882V164.267Z" fill="#E8F4FF"/>
<path d="M145.882 130.259H140.64V132.919H145.882V130.259Z" fill="#E8F4FF"/>
<path d="M143.261 181.01C140.992 181.01 139.152 178.804 139.152 176.083V166.182H147.37V176.083C147.37 178.804 145.53 181.01 143.261 181.01Z" fill="#E8F4FF"/>
<path d="M147.37 166.182H139.152V170.353H147.37V166.182Z" fill="#E8F4FF"/>
<path d="M147.12 128.352H139.402C139.175 128.352 138.992 128.132 138.992 127.86V124.597H147.53V127.86C147.53 128.132 147.346 128.352 147.12 128.352Z" fill="#8CAFD4"/>
<path d="M147.12 128.352H139.402C139.175 128.352 138.992 128.132 138.992 127.86V124.597H147.53V127.86C147.53 128.132 147.346 128.352 147.12 128.352Z" fill="#B8CDE0"/>
<path d="M146.488 131.043H140.034C139.807 131.043 139.624 130.822 139.624 130.55V128.353H146.899V130.55C146.899 130.822 146.715 131.043 146.488 131.043Z" fill="#E8F4FF"/>
<path d="M146.899 128.352H139.624V129.228H146.899V128.352Z" fill="#E8F4FF"/>
<path d="M146.488 142.434H140.034C139.807 142.434 139.624 142.214 139.624 141.942V140.505C139.624 140.085 139.908 139.744 140.258 139.744H146.264C146.615 139.744 146.899 140.085 146.899 140.505V141.942C146.899 142.214 146.715 142.434 146.488 142.434Z" fill="#E8F4FF"/>
<path d="M146.899 139.745H139.624V140.62H146.899V139.745Z" fill="#E8F4FF"/>
<path d="M171.1 111.201L169.013 113.952L163.964 120.609C161.582 123.745 158.21 125.534 154.673 125.534H130.944C127.407 125.534 124.036 123.745 121.653 120.609L116.604 113.952L114.517 111.201H171.1Z" fill="#E8F4FF"/>
<path d="M171.1 111.201L169.013 113.952H116.604L114.517 111.201H171.1Z" fill="#E8F4FF"/>
<path d="M171.468 111.203H114.148C112.954 111.203 111.986 110.042 111.986 108.61V105.246C111.986 103.814 112.954 102.653 114.148 102.653H171.468C172.662 102.653 173.631 103.814 173.631 105.246V108.61C173.631 110.042 172.662 111.203 171.468 111.203Z" fill="white"/>
<path d="M147.493 167.214H139.029C138.566 167.214 138.191 166.763 138.191 166.209C138.191 165.654 138.566 165.204 139.029 165.204H147.493C147.955 165.204 148.331 165.654 148.331 166.209C148.331 166.763 147.956 167.214 147.493 167.214Z" fill="#E8F4FF"/>
<path d="M160.177 100.258H156.105V102.655H160.177V100.258Z" fill="#E8F4FF"/>
<path d="M160.177 100.258H156.105V101.457H160.177V100.258Z" fill="#E8F4FF"/>
<path d="M160.721 98.4946H155.561V100.257H160.721V98.4946Z" fill="#E8F4FF"/>
<path d="M130.684 100.258H126.613V102.655H130.684V100.258Z" fill="#E8F4FF"/>
<path d="M130.684 100.258H126.613V101.457H130.684V100.258Z" fill="#E8F4FF"/>
<path d="M131.229 98.4946H126.068V100.257H131.229V98.4946Z" fill="#E8F4FF"/>
<path d="M133.438 91.4827V91.8928C133.438 92.2399 133.577 92.5235 133.755 92.5379C135.247 92.657 141.579 93.6999 143.559 102.807H150.637C150.637 102.807 145.741 91.6675 136.748 89.3942C136.113 89.234 135.449 89.1176 134.752 89.0525C134.039 88.9852 133.438 90.0895 133.438 91.4827Z" fill="#E8F4FF"/>
<path d="M146.769 102.805H143.559C142.27 96.8766 139.135 94.3636 136.693 93.302C135.385 92.7328 134.275 92.579 133.754 92.5379C133.577 92.5224 133.438 92.2404 133.438 91.8917V91.4458C133.441 91.056 133.496 90.6918 133.583 90.3688C137.267 90.3122 140.906 92.4508 143.875 96.8248C145.038 98.5379 145.967 100.584 146.769 102.805Z" fill="#E8F4FF"/>
<path d="M136.693 93.302C135.385 92.7327 134.275 92.5789 133.754 92.5378C133.577 92.5223 133.438 92.2404 133.438 91.8917V91.4458H135.567C136.133 91.4458 136.606 92.2457 136.693 93.302Z" fill="#8CAFD4"/>
<path d="M83.947 192.979C83.947 192.979 104.865 207.023 112.831 212.417C120.797 217.811 119.88 225.544 119.846 228.393L63.1152 228.16L65.3232 217.396C65.3232 217.396 85.9666 222.284 91.7323 223.912C91.7323 223.912 73.9355 221.477 65.3232 217.396C56.7104 213.315 53.1041 208.318 53.1041 208.318L83.947 192.979Z" fill="#003D7D"/>
<path d="M60.8539 218.18L55.3758 216.66C55.3758 216.66 46.2968 221.106 44.0002 223.795C43.2859 224.631 41.5175 226.982 42.0644 227.984C42.6647 229.084 44.0403 227.984 46.4473 227.984C48.4656 227.984 53.9712 227.96 55.6849 227.96C57.6484 227.96 60.1961 227.968 60.1961 227.968L60.8539 218.18Z" fill="#133A50"/>
<path d="M60.0968 218.045L59.6871 228.985L67.6412 229.008L69.362 216.788L60.0968 218.045Z" fill="#2873AC"/>
<path d="M80.1124 120.568C80.1124 120.568 76.0376 124.33 73.5379 127.352C72.4482 128.669 72.4624 128.953 70.8512 128.953L84.535 142.547C84.535 142.547 82.3871 139.234 83.1967 136.275C83.9257 133.612 87.1121 127.484 89.3174 125.534L80.1124 120.568Z" fill="#FEC4AD"/>
<path d="M78.9909 123.734C78.4062 126.841 81.0078 132.415 82.3576 135.515C82.5825 136.032 82.8154 136.547 83.0559 137.058C83.0849 136.796 83.1263 136.534 83.1971 136.275C83.9261 133.612 87.1124 127.485 89.3177 125.534L80.1127 120.568C80.1127 120.568 79.7057 120.944 79.0715 121.552C79.1521 122.226 79.1379 122.954 78.9909 123.734Z" fill="#F0B9A3"/>
<path d="M95.5065 117.682C95.7296 118.426 97.2438 121.945 97.0848 122.619C96.8644 123.555 94.8332 123.082 94.33 123.854C93.5159 125.104 94.0534 126.092 93.6023 127.509C93.0554 129.226 93.2661 131.678 92.342 132.683C90.8016 134.359 86.5179 132.911 84.4921 131.668C79.6919 128.722 76.0116 122.402 77.2635 114.592C77.711 111.799 79.4211 108.806 81.1387 106.801C83.1574 104.445 86.7784 104.217 88.99 104.913C90.3166 105.331 91.5221 106.625 92.415 107.806C93.2238 108.876 94.5388 110.323 94.8559 111.826C94.8563 111.827 95.0042 116.007 95.5065 117.682Z" fill="#FEC4AD"/>
<path d="M74.7215 106.268C74.7055 106.26 74.5844 105.376 75.6844 102.917C77.5254 98.7996 85.5569 98.8359 91.3654 100.208C93.3017 100.665 95.2514 98.8759 96.2953 100.324C97.0964 101.435 96.5398 108.503 95.2706 110.001C93.1548 112.498 86.8386 110.206 84.4463 109.002C82.7251 108.136 84.9344 111.399 85.2737 113.023C85.4946 114.079 84.2855 117.818 84.1635 118.543C82.1969 117.938 83.007 115.967 81.5913 114.46C80.2833 113.067 78.8894 115.192 79.2996 116.942C79.9346 119.653 81.6892 119.92 81.6892 119.92C81.6198 121.364 80.775 122.839 80.775 122.839C80.775 122.839 77.1228 124.665 76.3639 123.727C75.7935 123.021 73.2729 116.948 72.6311 115.222C71.2617 111.536 72.099 108.495 74.7215 106.268Z" fill="#411919"/>
<path d="M70.8511 128.953C70.8511 128.953 68.3403 129.056 64.2669 134.754C45.1385 161.513 53.1041 208.318 53.1041 208.318C53.1041 208.318 70.1457 212.473 82.7068 189.155C82.7068 189.155 81.0662 182.332 81.7244 172.309C82.465 161.029 85.4398 146.108 83.9386 140.2C83.3423 137.854 81.1633 137.101 79.1601 135.146C74.5603 130.658 70.8511 128.953 70.8511 128.953Z" fill="#06B584"/>
<path d="M68.4298 130.194C69.394 130.184 74.0807 129.153 81.5899 141.694C82.6596 143.48 83.7881 144.659 84.3238 146.271C84.0668 153.483 82.2761 163.905 81.7244 172.309C81.0662 182.332 82.7068 189.155 82.7068 189.155C70.1457 212.473 53.1041 208.318 53.1041 208.318C53.1041 208.318 45.1385 161.514 64.2669 134.754C65.5499 132.959 67.019 131.438 68.4298 130.194Z" fill="#004B9A"/>
<path d="M77.0168 138.454C72.3555 129.824 66.7162 130.567 63.3553 138.454C59.9944 146.342 56.0741 171.413 57.6421 179.248C59.2101 187.083 67.2399 189.903 71.9805 181.441C76.7211 172.98 79.0733 152.829 79.3347 148.331C79.5962 143.834 78.18 140.607 77.0168 138.454Z" fill="#06B584"/>
<path d="M53.1041 208.318L56.7109 213.315C62.6075 221.484 80.4997 223.487 87.5556 216.768L102.127 195.656L96.3571 214.405L103.05 216.66C103.05 216.66 120.344 189.927 119.058 178.306C118.826 176.214 116.861 171.058 114.399 171.551C100.036 174.425 77.638 186.914 77.638 186.914L53.1041 208.318Z" fill="#004B9A"/>
<path d="M94.2026 220.81L92.4569 228.083L112.626 228.778C112.626 228.778 111.188 225.795 110.062 224.919C108.5 223.704 102.137 221.517 102.137 221.517L94.2026 220.81Z" fill="#133A50"/>
<path d="M94.0178 220.996L102.137 221.516L105.103 215.459L95.7003 212.005L94.0178 220.996Z" fill="#2873AC"/>
<path d="M122.464 174.72L126.5 170.462L129.501 169.026L132.26 170.313L130.945 172.69L122.464 174.72Z" fill="#E6B397"/>
<path d="M131.514 151.167L128.974 150.45L129.452 148.016L131.908 145.522L132.585 145.714L131.514 151.167Z" fill="#E8F4FF"/>
<path d="M134.077 151.89L136.618 152.607L137.095 150.172L135.824 146.628L135.147 146.437L134.077 151.89Z" fill="#E8F4FF"/>
<path d="M126.83 149.845L125.937 154.393C125.868 154.747 125.898 155.12 126.024 155.451L128.375 158.986L131.553 159.883L135.254 158.055C135.49 157.826 135.656 157.509 135.725 157.155L136.617 152.607L126.83 149.845Z" fill="#E8F4FF"/>
<path d="M128.205 151.727L127.671 151.577L127.276 153.59L127.81 153.741L128.205 151.727Z" fill="#4B698F"/>
<path d="M129.19 152.01L128.656 151.859L128.261 153.872L128.795 154.023L129.19 152.01Z" fill="#4B698F"/>
<path d="M130.173 152.287L129.639 152.136L129.244 154.149L129.778 154.3L130.173 152.287Z" fill="#4B698F"/>
<path d="M131.153 152.567L130.619 152.416L130.224 154.429L130.758 154.58L131.153 152.567Z" fill="#4B698F"/>
<path d="M129.206 149.303L128.979 150.46L131.519 151.177L131.746 150.02L129.206 149.303Z" fill="#E8F4FF"/>
<path d="M134.301 150.738L134.074 151.894L136.614 152.611L136.841 151.454L134.301 150.738Z" fill="#E8F4FF"/>
<path d="M129.982 169.924L131.48 159.862L128.457 159.009L126.163 169.05C127.433 169.362 128.706 169.649 129.982 169.924Z" fill="#E8F4FF"/>
<path d="M131.25 161.405L131.48 159.862L128.457 159.009L128.256 159.888C129.254 160.397 130.251 160.906 131.25 161.405Z" fill="#E8F4FF"/>
<path d="M130.648 168.188L126.295 166.96L122.329 187.173L126.683 188.402L130.648 168.188Z" fill="#4B698F"/>
<path d="M124.813 186.231C124.564 186.161 124.409 185.862 124.468 185.563L127.608 169.559C127.667 169.26 127.916 169.075 128.165 169.146C128.414 169.216 128.569 169.515 128.51 169.814L125.37 185.818C125.311 186.117 125.062 186.301 124.813 186.231Z" fill="#B8CDE0"/>
<path d="M118.573 174.394C118.573 174.394 122.802 174.004 124.125 173.549C125.448 173.094 128.495 173.094 129.713 172.364C131.501 171.293 132.26 170.312 132.26 170.312L132.757 172.303L132.439 173.27L132.284 176.078L131.307 179.078C131.62 179.904 131.19 181.017 131.19 181.017L128.506 182.413C128.506 182.413 123.802 181.762 122.658 181.521C121.514 181.281 117.286 181.525 117.286 181.525L118.573 174.394Z" fill="#FEC4AD"/>
<path d="M74.7162 135.965C74.7162 135.965 86.1345 161.295 93.0648 165.318C98.978 168.75 118.573 174.394 118.573 174.394L118.824 183.314C118.824 183.314 92.6832 181.72 85.5944 176.766C78.6636 171.922 64.1716 154.425 62.0665 144.531C61.1687 140.312 64.2869 127.857 74.7162 135.965Z" fill="#06B584"/>
<path d="M123.209 174.629C122.226 173.014 125.591 170.558 125.591 170.558L125.487 172.326C126.011 173.203 127.392 174.246 127.392 174.246L123.209 174.629Z" fill="#FEC4AD"/>
</g>
<defs>
<clipPath id="clip0_14_1885">
<rect width="334" height="267" fill="white"/>
</clipPath>
</defs>
</svg>
