<svg width="95" height="79" viewBox="0 0 95 79" fill="none" xmlns="http://www.w3.org/2000/svg">
<path fill-rule="evenodd" clip-rule="evenodd" d="M41.8472 8.54873C43.0813 6.0254 45.6343 4.16699 48.8386 4.16699C52.0425 4.16699 54.5959 6.0254 55.8297 8.54873C56.8404 8.05588 57.989 7.77424 59.2364 7.77424C63.7221 7.77424 66.9322 11.4167 67.0324 15.4267C67.8344 15.1444 68.7071 14.9887 69.6343 14.9887C74.192 14.9887 77.4327 18.7491 77.4327 22.8345V32.5741C77.4327 33.9188 76.2688 35.009 74.8332 35.009C73.3976 35.009 72.2337 33.9188 72.2337 32.5741V22.8345C72.2337 20.9433 70.8189 19.8585 69.6343 19.8585C68.4493 19.8585 67.0348 20.9433 67.0348 22.8345V29.3276C67.0348 30.6723 65.8709 31.7625 64.4353 31.7625C62.9998 31.7625 61.8359 30.6723 61.8359 29.3276V15.62C61.8359 13.7288 60.4211 12.644 59.2364 12.644C58.0514 12.644 56.637 13.7288 56.637 15.62V33.6562C56.637 35.0009 55.4731 36.0911 54.0375 36.0911C52.6019 36.0911 51.438 35.0009 51.438 33.6562V12.0128C51.438 10.1215 50.0232 9.03678 48.8386 9.03678C47.6536 9.03678 46.2391 10.1215 46.2391 12.0128V37.2634C46.2391 38.6084 45.0752 39.6983 43.6396 39.6983C42.2039 39.6983 41.0401 38.6084 41.0401 37.2634V15.62C41.0401 13.7288 39.6254 12.644 38.4406 12.644C37.2558 12.644 35.8412 13.7288 35.8412 15.62V46.2816C35.8412 47.2991 35.1657 48.2094 34.1476 48.5639C33.1294 48.9184 31.9832 48.6428 31.2736 47.8724L21.527 37.2916C20.5294 36.2693 19.0469 36.2745 18.0544 37.3076C16.9138 38.4948 16.9138 40.5148 18.0544 41.702C18.0955 41.7449 18.135 41.7891 18.1728 41.8345L26.6274 51.9997L26.6707 52.0533L31.6513 58.3954C31.7099 58.47 31.7639 58.5476 31.8131 58.6282C35.8487 65.2283 42.7506 69.0976 50.026 69.0976H50.5715C52.0071 69.0976 53.171 70.1877 53.171 71.5324C53.171 72.8772 52.0071 73.9673 50.5715 73.9673H50.026C40.7593 73.9673 32.2611 69.0661 27.3775 61.1715L22.5041 54.9661L14.123 44.8892C11.2702 41.8462 11.2925 37.0654 14.19 34.05C17.253 30.8621 22.3438 30.8621 25.4067 34.05L25.4427 34.088L30.6422 39.7327V15.62C30.6422 11.5346 33.8828 7.77424 38.4406 7.77424C39.688 7.77424 40.8366 8.05588 41.8472 8.54873Z" fill="#222B3D"/>
<path fill-rule="evenodd" clip-rule="evenodd" d="M65.1178 36.9016C66.0834 36.6754 67.0941 36.6754 68.0597 36.9016L81.083 39.9514C82.2403 40.2222 83.052 41.1962 83.052 42.3136V52.0532C83.052 58.9508 79.585 65.4458 73.694 69.5844L70.228 72.0193C68.0715 73.5345 65.106 73.5345 62.9495 72.0193L59.4836 69.5844C53.5925 65.4458 50.1255 58.9508 50.1255 52.0532V42.3136C50.1255 41.1962 50.9372 40.2222 52.0945 39.9514L65.1178 36.9016ZM74.5119 54.5725C75.5275 53.6219 75.5281 52.0805 74.5133 51.1292C73.4985 50.1777 71.8525 50.1773 70.837 51.1279L66.5999 55.0939L63.8673 52.5051C62.858 51.5487 61.212 51.5399 60.1913 52.4853C59.1702 53.431 59.1609 54.9725 60.1705 55.9289L64.7404 60.2581C65.2266 60.7192 65.889 60.9792 66.5808 60.9811C67.2726 60.9831 67.9367 60.7266 68.4261 60.2689L74.5119 54.5725Z" fill="#006F7E"/>
</svg>
