<svg width="95" height="90" viewBox="0 0 95 90" fill="none" xmlns="http://www.w3.org/2000/svg">
<path d="M56.4062 1.38428C46.5676 1.3948 37.1351 5.1168 30.1782 11.7337C23.2212 18.3506 19.3079 27.322 19.2969 36.6797C19.2969 38.3556 19.7258 45.2977 20.9711 46.2508C57.6822 74.4707 53.4842 71.9751 56.4062 71.9751C66.2483 71.9751 75.6872 68.2565 82.6465 61.6373C89.6059 55.0182 93.5156 46.0406 93.5156 36.6797C93.5156 27.3188 89.6059 18.3412 82.6465 11.7221C75.6872 5.10289 66.2483 1.38428 56.4062 1.38428Z" fill="#006F7E"/>
<path d="M51.9531 43.7388H5.9375C4.75685 43.74 3.62493 44.1866 2.79009 44.9807C1.95524 45.7747 1.48566 46.8513 1.48438 47.9742V87.5051C1.48436 87.7843 1.5714 88.0573 1.7345 88.2894C1.8976 88.5216 2.12942 88.7025 2.40065 88.8094C2.67187 88.9162 2.97032 88.9442 3.25825 88.8897C3.54617 88.8352 3.81064 88.7007 4.0182 88.5032L17.9922 75.2124C18.13 75.081 18.2937 74.9768 18.4739 74.9058C18.6541 74.8348 18.8474 74.7984 19.0425 74.7987H51.9531C53.1338 74.7975 54.2657 74.3509 55.1005 73.5568C55.9354 72.7628 56.405 71.6862 56.4062 70.5633V47.9742C56.405 46.8513 55.9354 45.7747 55.1005 44.9807C54.2657 44.1866 53.1338 43.74 51.9531 43.7388Z" fill="#E43056"/>
<path d="M68.2812 35.2677H57.8906V19.7377C57.8906 19.3633 57.7342 19.0042 57.4559 18.7394C57.1775 18.4747 56.7999 18.3259 56.4062 18.3259C56.0126 18.3259 55.635 18.4747 55.3566 18.7394C55.0783 19.0042 54.9219 19.3633 54.9219 19.7377V36.6795C54.9218 36.865 54.9602 37.0486 55.0348 37.2199C55.1093 37.3912 55.2187 37.5468 55.3565 37.678C55.4944 37.8091 55.658 37.9131 55.8381 37.984C56.0183 38.0549 56.2113 38.0914 56.4062 38.0914H68.2812C68.6749 38.0914 69.0525 37.9426 69.3309 37.6778C69.6092 37.4131 69.7656 37.054 69.7656 36.6795C69.7656 36.3051 69.6092 35.946 69.3309 35.6812C69.0525 35.4165 68.6749 35.2677 68.2812 35.2677Z" fill="#EFF3FE"/>
<path d="M86.0937 38.0917H83.125C82.7313 38.0917 82.3538 37.943 82.0754 37.6782C81.797 37.4134 81.6406 37.0543 81.6406 36.6799C81.6406 36.3054 81.797 35.9463 82.0754 35.6816C82.3538 35.4168 82.7313 35.2681 83.125 35.2681H86.0937C86.4874 35.2681 86.865 35.4168 87.1434 35.6816C87.4217 35.9463 87.5781 36.3054 87.5781 36.6799C87.5781 37.0543 87.4217 37.4134 87.1434 37.6782C86.865 37.943 86.4874 38.0917 86.0937 38.0917Z" fill="#EFF3FE"/>
<path d="M29.6875 38.0917H26.7187C26.3251 38.0917 25.9475 37.943 25.6691 37.6782C25.3908 37.4134 25.2344 37.0543 25.2344 36.6799C25.2344 36.3054 25.3908 35.9463 25.6691 35.6816C25.9475 35.4168 26.3251 35.2681 26.7187 35.2681H29.6875C30.0812 35.2681 30.4587 35.4168 30.7371 35.6816C31.0155 35.9463 31.1719 36.3054 31.1719 36.6799C31.1719 37.0543 31.0155 37.4134 30.7371 37.6782C30.4587 37.943 30.0812 38.0917 29.6875 38.0917Z" fill="#EFF3FE"/>
<path d="M56.4062 12.6788C56.2113 12.6788 56.0183 12.6423 55.8381 12.5714C55.658 12.5005 55.4944 12.3965 55.3565 12.2654C55.2187 12.1342 55.1093 11.9786 55.0348 11.8073C54.9602 11.636 54.9218 11.4524 54.9219 11.2669V8.44331C54.9219 8.06887 55.0783 7.70977 55.3566 7.44501C55.635 7.18024 56.0126 7.03149 56.4062 7.03149C56.7999 7.03149 57.1775 7.18024 57.4559 7.44501C57.7342 7.70977 57.8906 8.06887 57.8906 8.44331V11.2669C57.8907 11.4524 57.8523 11.636 57.7777 11.8073C57.7032 11.9786 57.5938 12.1342 57.456 12.2654C57.3181 12.3965 57.1545 12.5005 56.9744 12.5714C56.7942 12.6423 56.6012 12.6788 56.4062 12.6788Z" fill="#EFF3FE"/>
<path d="M44.5314 54.0959V57.4945H40.2515V54.0959C40.2515 53.7215 40.0951 53.3624 39.8167 53.0976C39.5383 52.8328 39.1608 52.6841 38.7671 52.6841C38.3734 52.6841 37.9959 52.8328 37.7175 53.0976C37.4391 53.3624 37.2827 53.7215 37.2827 54.0959V64.0586C37.2827 64.433 37.4391 64.7921 37.7175 65.0569C37.9959 65.3216 38.3734 65.4704 38.7671 65.4704C39.1608 65.4704 39.5383 65.3216 39.8167 65.0569C40.0951 64.7921 40.2515 64.433 40.2515 64.0586V60.3181H44.5314V64.0586C44.5314 64.433 44.6878 64.7921 44.9661 65.0569C45.2445 65.3216 45.6221 65.4704 46.0157 65.4704C46.4094 65.4704 46.787 65.3216 47.0654 65.0569C47.3437 64.7921 47.5001 64.433 47.5001 64.0586V54.0959C47.5001 53.7215 47.3437 53.3624 47.0654 53.0976C46.787 52.8328 46.4094 52.6841 46.0157 52.6841C45.6221 52.6841 45.2445 52.8328 44.9661 53.0976C44.6878 53.3624 44.5314 53.7215 44.5314 54.0959Z" fill="#EFF3FE"/>
<path d="M31.3668 59.281C31.3798 57.0267 31.3849 54.7642 31.3552 54.4237C31.3347 54.0055 31.183 53.6027 30.9196 53.2673C30.6562 52.9318 30.2932 52.6791 29.8774 52.5417C29.4564 52.4303 29.0096 52.4451 28.5978 52.584C28.186 52.7229 27.8292 52.9792 27.5761 53.318C26.9985 53.9935 24.5291 58.2152 23.4948 59.9979C23.3699 60.2128 23.3061 60.4551 23.3097 60.7006C23.3133 60.9462 23.3843 61.1867 23.5155 61.3982C23.6468 61.6097 23.8338 61.7849 24.0581 61.9067C24.2824 62.0284 24.5362 62.0923 24.7944 62.0922H28.3785C28.3741 62.5954 28.3705 63.078 28.3662 63.5192C28.3644 63.7046 28.4011 63.8885 28.474 64.0604C28.547 64.2324 28.6549 64.3889 28.7916 64.5212C28.9282 64.6535 29.0909 64.7588 29.2704 64.8313C29.4498 64.9037 29.6425 64.9418 29.8375 64.9434H29.8505C30.2419 64.9432 30.6174 64.7962 30.8954 64.5341C31.1733 64.272 31.3313 63.9162 31.3349 63.544C31.3379 63.1841 31.3429 62.6768 31.3472 62.0825C31.7063 62.0419 32.0375 61.878 32.2786 61.6216C32.5197 61.3652 32.654 61.0339 32.6564 60.69C32.6588 60.346 32.5291 60.013 32.2916 59.7536C32.0542 59.4941 31.7253 59.3261 31.3668 59.281ZM28.3981 59.2685H27.3196C27.7001 58.6233 28.0704 58.0015 28.4068 57.4431C28.4046 58.0112 28.4017 58.6316 28.3981 59.2685Z" fill="#EFF3FE"/>
<path d="M20.7769 62.4551H20.7574C19.976 62.4647 19.1556 62.4716 18.4097 62.4744C18.9309 61.803 19.5955 60.9288 20.4312 59.7941C23.6607 55.4033 20.4113 52.6289 17.7466 52.6289C16.8011 52.6304 15.8852 52.9432 15.1548 53.5143C14.4244 54.0853 13.9244 54.8794 13.7399 55.7614C13.7022 55.9433 13.7026 56.1306 13.741 56.3124C13.7794 56.4942 13.855 56.6671 13.9637 56.8211C14.0723 56.9751 14.2118 57.1073 14.3741 57.21C14.5364 57.3128 14.7184 57.3841 14.9097 57.42C15.2961 57.4924 15.6969 57.4158 16.0239 57.2072C16.351 56.9985 16.5775 56.6748 16.6536 56.3073C16.706 56.0551 16.8529 55.8295 17.0671 55.6727C17.2814 55.5158 17.5482 55.4384 17.818 55.4547C18.0878 55.4711 18.3421 55.5802 18.5337 55.7616C18.7252 55.9431 18.8409 56.1845 18.8591 56.4411C18.7025 57.5985 15.6737 61.2532 14.922 62.1876C14.2792 62.9887 13.8907 63.4726 14.14 64.2364C14.2173 64.4569 14.3467 64.6576 14.5184 64.823C14.69 64.9884 14.8993 65.1141 15.1301 65.1905C17.0155 65.3138 18.9064 65.3433 20.7951 65.2787C21.1887 65.2764 21.5653 65.1255 21.842 64.8591C22.1187 64.5927 22.2728 64.2327 22.2704 63.8583C22.268 63.4839 22.1093 63.1257 21.8292 62.8625C21.5491 62.5994 21.1706 62.4528 20.7769 62.4551Z" fill="#EFF3FE"/>
</svg>
